<?xml version="1.0" encoding="utf-8"?>
<!-- Generator: Adobe Illustrator 16.0.0, SVG Export Plug-In . SVG Version: 6.00 Build 0)  -->
<!DOCTYPE svg PUBLIC "-//W3C//DTD SVG 1.1//EN" "http://www.w3.org/Graphics/SVG/1.1/DTD/svg11.dtd">
<svg version="1.1" id="Layer_1" xmlns="http://www.w3.org/2000/svg" xmlns:xlink="http://www.w3.org/1999/xlink" x="0px" y="0px"
	 width="50px" height="50px" viewBox="-245.5 -35.5 50 50" enable-background="new -245.5 -35.5 50 50" xml:space="preserve">
<path style="fill:white" d="M-204.147-3.18c-0.18-0.671-0.609-1.232-1.21-1.579c-1.052-0.608-2.458-0.336-3.253,0.545l-4.438-2.562l5.727-1.533
	c0.267-0.071,0.425-0.346,0.354-0.612s-0.344-0.425-0.612-0.354l-6.425,1.72l-2.157-2.946l2.158-2.948l6.422,1.723
	c0.043,0.012,0.087,0.017,0.13,0.017c0.221,0,0.422-0.147,0.482-0.371c0.072-0.267-0.086-0.541-0.354-0.612l-5.722-1.535
	l4.484-2.589c0.478,0.45,1.116,0.717,1.786,0.717c0.468,0,0.928-0.127,1.331-0.368c1.23-0.736,1.632-2.335,0.897-3.564
	c-0.707-1.182-2.378-1.609-3.562-0.897c-0.596,0.356-1.018,0.923-1.188,1.596c-0.145,0.575-0.08,1.163,0.16,1.694l-4.41,2.546
	l1.535-5.726c0.072-0.267-0.087-0.541-0.354-0.612c-0.266-0.071-0.541,0.086-0.612,0.354l-1.722,6.425l-3.63,0.395l-1.474-3.343
	l4.703-4.703c0.195-0.195,0.195-0.512,0-0.707s-0.512-0.195-0.707,0L-220-18.819v-5.09c1.289-0.132,2.317-1.211,2.338-2.534
	c0.021-1.432-1.128-2.615-2.598-2.638c-1.411,0-2.578,1.148-2.6,2.56c-0.017,1.189,0.775,2.195,1.86,2.519v5.185l-4.192-4.192
	c-0.195-0.195-0.512-0.195-0.707,0s-0.195,0.512,0,0.707l4.704,4.704l-1.474,3.343l-3.631-0.395l-1.721-6.424
	c-0.071-0.267-0.344-0.424-0.612-0.354c-0.267,0.071-0.425,0.346-0.354,0.612l1.533,5.725l-4.432-2.559
	c0.395-1.151-0.065-2.461-1.158-3.094c-1.201-0.692-2.86-0.242-3.55,0.952c-0.347,0.601-0.439,1.301-0.259,1.972
	c0.18,0.671,0.61,1.231,1.211,1.578c0.395,0.228,0.844,0.349,1.298,0.349c0.755,0,1.455-0.342,1.944-0.898l4.446,2.567l-5.725,1.534
	c-0.267,0.071-0.425,0.346-0.354,0.612c0.06,0.224,0.262,0.371,0.482,0.371c0.043,0,0.086-0.005,0.13-0.017l6.424-1.721l2.157,2.947
	l-2.157,2.947l-6.425-1.722c-0.265-0.071-0.541,0.087-0.612,0.354s0.087,0.541,0.354,0.612l5.726,1.534l-4.499,2.598
	c-0.825-0.746-2.124-0.941-3.104-0.356c-1.228,0.735-1.63,2.333-0.897,3.564c0.467,0.78,1.323,1.265,2.234,1.265
	c0.467,0,0.927-0.127,1.33-0.367c1.142-0.683,1.559-2.106,1.026-3.292l4.408-2.545l-1.534,5.724
	c-0.071,0.267,0.087,0.541,0.354,0.612c0.043,0.012,0.087,0.017,0.13,0.017c0.221,0,0.422-0.147,0.482-0.371l1.722-6.424
	l3.632-0.396l1.473,3.34l-4.703,4.705c-0.195,0.195-0.195,0.512,0,0.707c0.098,0.098,0.226,0.146,0.354,0.146
	s0.256-0.049,0.354-0.146L-221-2.187V2.91c-1.291,0.132-2.318,1.211-2.337,2.534c-0.011,0.694,0.249,1.351,0.733,1.849
	c0.483,0.498,1.131,0.778,1.826,0.789h0.039c1.41,0,2.576-1.148,2.598-2.559c0.01-0.694-0.25-1.351-0.734-1.85
	c-0.312-0.322-0.698-0.541-1.125-0.667v-5.187l4.189,4.188c0.195,0.195,0.512,0.195,0.707,0s0.195-0.512,0-0.707l-4.703-4.7
	l1.474-3.343l3.629,0.395l1.722,6.424c0.06,0.224,0.262,0.371,0.482,0.371c0.043,0,0.086-0.005,0.13-0.017
	c0.267-0.071,0.425-0.346,0.354-0.612l-1.534-5.725l4.433,2.559c-0.167,0.485-0.188,1.008-0.052,1.515
	c0.18,0.67,0.61,1.231,1.211,1.579c0.395,0.228,0.843,0.348,1.297,0.348c0.927,0,1.791-0.498,2.253-1.3
	C-204.061-1.809-203.968-2.509-204.147-3.18z M-208.329-19.087c0.104-0.415,0.364-0.763,0.731-0.983
	c0.248-0.148,0.53-0.227,0.817-0.227c0.498,0,0.943,0.232,1.245,0.615c0.043,0.055,0.092,0.103,0.129,0.164
	c0.142,0.237,0.207,0.496,0.217,0.754c0.022,0.566-0.25,1.127-0.769,1.438c-0.512,0.305-1.164,0.263-1.66-0.035
	c-0.214-0.128-0.402-0.299-0.533-0.518c-0.05-0.083-0.089-0.17-0.122-0.259C-208.388-18.439-208.409-18.767-208.329-19.087z
	 M-233.29-17.306c-0.501,0.426-1.261,0.539-1.852,0.198c-0.37-0.213-0.634-0.558-0.745-0.971c-0.067-0.252-0.065-0.509-0.01-0.757
	c0.035-0.158,0.087-0.312,0.17-0.456c0.083-0.143,0.19-0.265,0.309-0.373c0.292-0.266,0.673-0.426,1.078-0.426
	c0.279,0,0.554,0.074,0.796,0.213c0.612,0.354,0.895,1.053,0.76,1.709c-0.033,0.163-0.085,0.324-0.173,0.475
	C-233.043-17.542-233.16-17.417-233.29-17.306z M-233.401-0.929c-0.682,0.406-1.593,0.21-2.075-0.397
	c-0.04-0.051-0.083-0.099-0.117-0.155c-0.142-0.238-0.207-0.498-0.217-0.756c-0.021-0.566,0.25-1.127,0.769-1.437
	c0.248-0.148,0.531-0.226,0.819-0.226c0.307,0,0.599,0.096,0.852,0.255c0.209,0.132,0.394,0.306,0.523,0.523
	c0.05,0.084,0.088,0.171,0.121,0.259C-232.461-2.153-232.729-1.331-233.401-0.929z M-220-5.44l-0.5,1.135l-0.5-1.133l-1.049-2.379
	l-2.585,0.281l-1.232,0.134l0.732-1l1.536-2.098l-1.535-2.097l-0.733-1.001l1.231,0.134l2.586,0.282l1.049-2.379l0.5-1.133
	l0.5,1.135l1.048,2.377l2.585-0.281l1.232-0.134l-0.732,1l-1.536,2.098l1.536,2.099l0.731,1l-1.233-0.134l-2.584-0.281L-220-5.44z
	 M-221-27.886c0.228-0.121,0.485-0.195,0.762-0.195h0c0.07,0.001,0.137,0.014,0.205,0.024c0.782,0.114,1.382,0.788,1.371,1.599
	c-0.012,0.779-0.592,1.424-1.338,1.549c-0.085,0.014-0.171,0.026-0.261,0.026v0.497l-0.025-0.497
	c-0.259-0.004-0.5-0.075-0.714-0.188c-0.516-0.271-0.869-0.812-0.86-1.434C-221.851-27.104-221.503-27.619-221-27.886z M-220,6.89
	c-0.223,0.118-0.472,0.191-0.739,0.191v0.245c-0.004-0.002-0.008-0.006-0.013-0.009l-0.011-0.236
	c-0.069-0.001-0.137-0.014-0.205-0.023c-0.348-0.05-0.67-0.206-0.919-0.462c-0.297-0.306-0.457-0.71-0.45-1.137
	c0.011-0.773,0.582-1.415,1.337-1.547c0.093-0.016,0.187-0.028,0.285-0.028c0.255,0.003,0.496,0.073,0.715,0.188
	c0.148,0.078,0.288,0.173,0.408,0.297c0.298,0.307,0.458,0.711,0.452,1.138C-219.149,6.107-219.5,6.624-220,6.89z M-208.202-2.094
	c-0.065-0.245-0.065-0.495-0.015-0.737c0.034-0.165,0.088-0.327,0.175-0.477s0.202-0.275,0.328-0.388
	c0.289-0.256,0.662-0.412,1.059-0.412c0.278,0,0.554,0.074,0.797,0.214c0.37,0.213,0.634,0.558,0.745,0.971
	c0.067,0.252,0.065,0.51,0.01,0.758c-0.035,0.158-0.087,0.312-0.17,0.456c-0.082,0.142-0.19,0.261-0.311,0.367
	c-0.501,0.443-1.276,0.564-1.874,0.219C-207.827-1.336-208.092-1.681-208.202-2.094z"/>
</svg>
