<?xml version="1.0" encoding="utf-8"?>
<!-- Generator: Adobe Illustrator 16.0.0, SVG Export Plug-In . SVG Version: 6.00 Build 0)  -->
<!DOCTYPE svg PUBLIC "-//W3C//DTD SVG 1.1//EN" "http://www.w3.org/Graphics/SVG/1.1/DTD/svg11.dtd">
<svg version="1.1" id="Layer_1" xmlns="http://www.w3.org/2000/svg" xmlns:xlink="http://www.w3.org/1999/xlink" x="0px" y="0px"
	 width="50px" height="50px" viewBox="174.5 174.5 50 50" enable-background="new 174.5 174.5 50 50" xml:space="preserve">
<path style="fill:white" d="M214.5,199h-1.665l1.519-1.52c0.195-0.195,0.195-0.512,0-0.707s-0.512-0.195-0.707,0L211.421,199h-1.842l0.882-0.882
	c0.195-0.195,0.195-0.512,0-0.707s-0.512-0.195-0.707,0l-1.382,1.382l-3.729-3.729l5.817-5.817c0.195-0.195,0.195-0.512,0-0.707
	s-0.512-0.195-0.707,0l-5.817,5.817l-3.729-3.729l1.381-1.383c0.195-0.195,0.195-0.513,0-0.707c-0.195-0.195-0.512-0.195-0.707,0
	L200,189.422v-1.842l2.225-2.227c0.195-0.195,0.195-0.512,0-0.707s-0.512-0.195-0.707,0l-1.518,1.52V184.5
	c0-0.276-0.224-0.5-0.5-0.5s-0.5,0.224-0.5,0.5v1.666l-1.519-1.52c-0.195-0.195-0.512-0.195-0.707,0s-0.195,0.512,0,0.707
	L199,187.58v1.843l-0.883-0.884c-0.195-0.195-0.512-0.195-0.707,0s-0.195,0.512,0,0.707l1.382,1.383l-3.728,3.728l-5.816-5.816
	c-0.195-0.195-0.512-0.195-0.707,0s-0.195,0.512,0,0.707l5.816,5.816l-3.729,3.729l-1.382-1.381c-0.195-0.195-0.512-0.195-0.707,0
	s-0.195,0.512,0,0.707l0.882,0.881h-1.842l-2.226-2.224c-0.195-0.195-0.512-0.195-0.707,0s-0.195,0.512,0,0.707l1.519,1.517H184.5
	c-0.276,0-0.5,0.224-0.5,0.5s0.224,0.5,0.5,0.5h1.666l-1.52,1.52c-0.195,0.195-0.195,0.512,0,0.707
	c0.098,0.098,0.226,0.146,0.354,0.146s0.256-0.049,0.354-0.146L187.58,200h1.842l-0.883,0.882c-0.195,0.195-0.195,0.512,0,0.707
	c0.098,0.098,0.226,0.146,0.354,0.146s0.256-0.049,0.354-0.146l1.382-1.382l3.729,3.729l-5.816,5.816
	c-0.195,0.195-0.195,0.512,0,0.707c0.098,0.098,0.226,0.146,0.354,0.146s0.256-0.049,0.354-0.146l5.816-5.816l3.729,3.729
	l-1.381,1.382c-0.195,0.195-0.195,0.512,0,0.707s0.512,0.195,0.707,0l0.881-0.882v1.841l-2.225,2.227
	c-0.195,0.195-0.195,0.512,0,0.707s0.512,0.195,0.707,0l1.518-1.52v1.666c0,0.276,0.224,0.5,0.5,0.5s0.5-0.224,0.5-0.5v-1.666
	l1.52,1.52c0.098,0.098,0.226,0.146,0.354,0.146s0.256-0.049,0.354-0.146c0.195-0.195,0.195-0.512,0-0.707L200,211.42v-1.841
	l0.883,0.882c0.098,0.098,0.226,0.146,0.354,0.146s0.256-0.049,0.354-0.146c0.195-0.195,0.195-0.512,0-0.707l-1.383-1.382
	l3.729-3.729l5.817,5.817c0.098,0.098,0.226,0.146,0.354,0.146s0.256-0.049,0.354-0.146c0.195-0.195,0.195-0.512,0-0.707
	l-5.817-5.817l3.729-3.729l1.382,1.381c0.098,0.098,0.226,0.146,0.354,0.146s0.256-0.049,0.354-0.146
	c0.195-0.195,0.195-0.512,0-0.707L209.579,200h1.842l2.226,2.224c0.098,0.098,0.226,0.146,0.354,0.146s0.256-0.049,0.354-0.146
	c0.195-0.195,0.195-0.512,0-0.707L212.836,200h1.664c0.276,0,0.5-0.224,0.5-0.5S214.776,199,214.5,199z M207.165,199h-6.457
	l3.229-3.229L207.165,199z M200,198.294v-6.459l3.229,3.229L200,198.294z M199,191.835v6.457l-3.229-3.229L199,191.835z
	 M198.294,199h-6.459l3.229-3.229L198.294,199z M191.835,200h6.459l-3.229,3.229L191.835,200z M199,200.708v6.457l-3.229-3.229
	L199,200.708z M200,207.165v-6.459l3.229,3.229L200,207.165z M200.708,200h6.457l-3.229,3.229L200.708,200z"/>
</svg>
