<?xml version="1.0" encoding="utf-8"?>
<!-- Generator: Adobe Illustrator 16.0.0, SVG Export Plug-In . SVG Version: 6.00 Build 0)  -->
<!DOCTYPE svg PUBLIC "-//W3C//DTD SVG 1.1//EN" "http://www.w3.org/Graphics/SVG/1.1/DTD/svg11.dtd">
<svg version="1.1" id="Layer_1" xmlns="http://www.w3.org/2000/svg" xmlns:xlink="http://www.w3.org/1999/xlink" x="0px" y="0px"
	 width="50px" height="50px" viewBox="244.5 -175.5 50 50" enable-background="new 244.5 -175.5 50 50" xml:space="preserve">
<path style="fill:white" d="M283.443-146.938c-0.27,0.066-0.434,0.337-0.367,0.605l0.975,3.958l-8.826-5.097l4.025-1.078
	c0.268-0.071,0.426-0.346,0.354-0.612s-0.346-0.424-0.611-0.354l-4.775,1.279l-1.939-2.263l1.637-1.91l0.088-0.051l4.99,1.336
	c0.043,0.012,0.086,0.017,0.129,0.017c0.221,0,0.422-0.147,0.482-0.371c0.072-0.267-0.086-0.541-0.354-0.612l-4.023-1.078
	l8.973-5.18l-1.055,3.934c-0.07,0.267,0.088,0.541,0.355,0.612c0.043,0.012,0.086,0.017,0.129,0.017
	c0.221,0,0.422-0.147,0.482-0.371l1.52-5.673l-5.674-1.519c-0.262-0.071-0.541,0.087-0.613,0.354
	c-0.07,0.267,0.088,0.541,0.355,0.612l4.113,1.102l-9.088,5.247l1.08-4.026c0.07-0.267-0.088-0.541-0.354-0.612
	c-0.268-0.071-0.541,0.087-0.613,0.354l-1.318,4.924l-2.631,0.493l-0.953-2.71l3.51-3.509c0.195-0.195,0.195-0.512,0-0.707
	s-0.512-0.195-0.707,0l-2.945,2.945v-10.211l2.869,2.757c0.197,0.191,0.516,0.187,0.707-0.014c0.191-0.199,0.186-0.516-0.014-0.707
	l-4.234-4.07l-4.07,4.234c-0.191,0.199-0.186,0.516,0.014,0.707c0.096,0.093,0.221,0.14,0.346,0.14c0.131,0,0.264-0.051,0.361-0.153
	l3.021-3.144v10.461l-2.947-2.945c-0.195-0.195-0.512-0.195-0.707,0s-0.195,0.512,0,0.707l3.654,3.652v0.646l-0.678,1.921
	l-3.072-0.577l-1.297-4.84c-0.072-0.267-0.342-0.425-0.613-0.354c-0.266,0.071-0.424,0.346-0.354,0.612l1.08,4.026l-9.018-5.206
	l4.471-1.101c0.268-0.066,0.432-0.337,0.365-0.605c-0.064-0.268-0.332-0.436-0.604-0.366l-5.705,1.403l1.406,5.704
	c0.055,0.228,0.26,0.38,0.484,0.38c0.039,0,0.08-0.004,0.119-0.015c0.27-0.066,0.434-0.337,0.367-0.605l-0.896-3.637l8.508,4.912
	l-4.023,1.078c-0.266,0.071-0.424,0.346-0.354,0.612c0.061,0.224,0.264,0.371,0.484,0.371c0.043,0,0.086-0.005,0.129-0.017
	l4.988-1.336l0.924,0.533l1.225,1.428l-1.836,2.143l-0.309,0.178l-4.992-1.336c-0.262-0.069-0.541,0.087-0.613,0.354
	c-0.07,0.267,0.088,0.541,0.355,0.612l4.025,1.078l-8.59,4.959l1.092-4.073c0.07-0.267-0.088-0.541-0.354-0.612
	c-0.268-0.071-0.541,0.087-0.613,0.354l-1.52,5.673l5.674,1.52c0.043,0.012,0.086,0.017,0.129,0.017
	c0.221,0,0.422-0.147,0.482-0.371c0.072-0.267-0.086-0.541-0.354-0.612l-3.975-1.065l8.525-4.922l-1.078,4.022
	c-0.07,0.267,0.088,0.541,0.355,0.612c0.043,0.012,0.086,0.017,0.129,0.017c0.221,0,0.422-0.147,0.482-0.371l1.336-4.988
	l0.559-0.323l2.473-0.464l0.678,1.921v1.005l-3.654,3.653c-0.195,0.195-0.195,0.512,0,0.707s0.512,0.195,0.707,0l2.947-2.946v9.931
	l-2.951-2.836c-0.197-0.19-0.516-0.186-0.707,0.014s-0.186,0.516,0.014,0.707l4.234,4.07l4.068-4.236
	c0.191-0.199,0.186-0.516-0.014-0.707s-0.516-0.186-0.707,0.014l-2.938,3.059v-10.016l2.945,2.947
	c0.098,0.098,0.225,0.146,0.354,0.146c0.127,0,0.256-0.049,0.354-0.146c0.195-0.195,0.195-0.512,0-0.707l-3.604-3.604l1.047-2.976
	l1.852,0.347l0.762,0.44l1.334,4.988c0.061,0.223,0.264,0.371,0.484,0.371c0.041,0,0.086-0.005,0.129-0.017
	c0.268-0.071,0.426-0.346,0.354-0.612l-1.076-4.022l8.92,5.15l-4.135,1.019c-0.27,0.066-0.434,0.337-0.367,0.605
	c0.057,0.228,0.26,0.38,0.486,0.38c0.039,0,0.078-0.004,0.119-0.015l5.703-1.405l-1.406-5.702
	C283.982-146.84,283.717-147.007,283.443-146.938z M270.219-149.207l-0.426,1.214l-0.289,0.822l-0.711-2.016v-0.267l-0.541,0.312
	l-1.633,0.306l0.879-1.026l0.525-0.613l0.023-0.026l-1.428-1.665l0.707,0.132l1.447,0.271l0.02-0.053l0.711-2.016l0.289,0.822
	l0.438,1.247l0.826-0.155l1.33-0.25l-1.078,1.26l-0.348,0.405l0.959,1.121l0.467,0.544l-2.156-0.404L270.219-149.207z"/>
</svg>
