<?xml version="1.0" encoding="utf-8"?>
<!-- Generator: Adobe Illustrator 16.0.0, SVG Export Plug-In . SVG Version: 6.00 Build 0)  -->
<!DOCTYPE svg PUBLIC "-//W3C//DTD SVG 1.1//EN" "http://www.w3.org/Graphics/SVG/1.1/DTD/svg11.dtd">
<svg version="1.1" id="Layer_1" xmlns="http://www.w3.org/2000/svg" xmlns:xlink="http://www.w3.org/1999/xlink" x="0px" y="0px"
	 width="50px" height="50px" viewBox="-245.5 -245.5 50 50" enable-background="new -245.5 -245.5 50 50" xml:space="preserve">
<path style="fill:white" d="M-205.5-221.25h-6.99l3.118-3.119c0.293-0.293,0.293-0.768,0-1.061s-0.768-0.293-1.061,0l-3.283,3.283l-5.259-5.259
	l3.575-3.575c0.293-0.293,0.293-0.768,0-1.061s-0.768-0.293-1.061,0l-3.29,3.29v-6.75c0-0.414-0.336-0.75-0.75-0.75
	s-0.75,0.336-0.75,0.75v6.75l-3.289-3.29c-0.293-0.293-0.768-0.293-1.061,0s-0.293,0.768,0,1.061l3.575,3.575l-5.258,5.259
	l-3.283-3.283c-0.293-0.293-0.768-0.293-1.061,0s-0.293,0.768,0,1.061l3.118,3.119h-6.991c-0.414,0-0.75,0.336-0.75,0.75
	s0.336,0.75,0.75,0.75h6.991l-3.118,3.119c-0.293,0.293-0.293,0.768,0,1.061c0.146,0.146,0.338,0.22,0.53,0.22
	s0.384-0.073,0.53-0.22l3.283-3.283l5.258,5.258l-3.574,3.575c-0.293,0.293-0.293,0.768,0,1.061s0.768,0.293,1.061,0l3.289-3.29
	v6.75c0,0.414,0.336,0.75,0.75,0.75s0.75-0.336,0.75-0.75v-6.75l3.29,3.291c0.146,0.146,0.338,0.22,0.53,0.22s0.384-0.073,0.53-0.22
	c0.293-0.293,0.293-0.768,0-1.061l-3.575-3.576l5.258-5.259l3.284,3.284c0.146,0.146,0.338,0.22,0.53,0.22s0.384-0.073,0.53-0.22
	c0.293-0.293,0.293-0.768,0-1.061l-3.118-3.119h6.99c0.414,0,0.75-0.336,0.75-0.75S-205.086-221.25-205.5-221.25z M-220.035-214.656
	l-0.465,0.465l-0.465-0.465l-0.285-0.285l-4.809-4.809l-0.164-0.164l-0.585-0.585l0.586-0.586l0.165-0.165l4.808-4.809l0.286-0.285
	l0.464-0.465l0.465,0.465l0.285,0.285l4.809,4.809l0.165,0.165l0.585,0.584l-0.585,0.585l-0.166,0.165l-4.808,4.809
	L-220.035-214.656z M-208.959-210.02c0.293,0.293,0.293,0.768,0,1.061c-0.146,0.146-0.338,0.22-0.53,0.22s-0.384-0.073-0.53-0.22
	l-2.612-2.612c-0.293-0.293-0.293-0.768,0-1.061s0.768-0.293,1.061,0L-208.959-210.02z M-227.954-212.632
	c0.293,0.293,0.293,0.768,0,1.061l-2.612,2.612c-0.146,0.146-0.338,0.22-0.53,0.22s-0.384-0.073-0.53-0.22
	c-0.293-0.293-0.293-0.768,0-1.061l2.612-2.612C-228.722-212.925-228.247-212.925-227.954-212.632z M-231.626-230.288
	c-0.292-0.293-0.292-0.768,0.001-1.061c0.292-0.292,0.768-0.293,1.061,0.001l2.61,2.614c0.292,0.293,0.292,0.768-0.001,1.061
	c-0.146,0.146-0.338,0.219-0.53,0.219s-0.384-0.073-0.531-0.22L-231.626-230.288z M-212.633-227.668
	c-0.292-0.293-0.292-0.768,0-1.061l2.615-2.611c0.292-0.292,0.768-0.292,1.061,0c0.292,0.293,0.292,0.768,0,1.061l-2.615,2.611
	c-0.146,0.146-0.338,0.219-0.53,0.219S-212.487-227.521-212.633-227.668z"/>
</svg>
