<?xml version="1.0" encoding="utf-8"?>
<!-- Generator: Adobe Illustrator 16.0.0, SVG Export Plug-In . SVG Version: 6.00 Build 0)  -->
<!DOCTYPE svg PUBLIC "-//W3C//DTD SVG 1.1//EN" "http://www.w3.org/Graphics/SVG/1.1/DTD/svg11.dtd">
<svg version="1.1" id="Layer_1" xmlns="http://www.w3.org/2000/svg" xmlns:xlink="http://www.w3.org/1999/xlink" x="0px" y="0px"
	 width="50px" height="50px" viewBox="244.5 -175.5 50 50" enable-background="new 244.5 -175.5 50 50" xml:space="preserve">
<path style="fill:white" d="M285.894-143.681c0-0.178-0.096-0.343-0.25-0.432l-2.041-1.18c-0.154-0.089-0.346-0.089-0.5,0l-1.791,1.035l-1.405-0.812
	l1.412-0.815c0.239-0.138,0.321-0.444,0.183-0.683c-0.138-0.241-0.444-0.321-0.683-0.183l-1.912,1.104l-1.771-1.023l3.825-2.208
	c0.239-0.138,0.321-0.444,0.183-0.683c-0.138-0.24-0.444-0.321-0.683-0.183l-4.325,2.498l-0.521-0.3v-5.905l0.52-0.3l4.327,2.498
	c0.079,0.045,0.165,0.067,0.25,0.067c0.172,0,0.341-0.09,0.433-0.25c0.139-0.239,0.057-0.545-0.183-0.683l-3.827-2.209l1.772-1.023
	l1.912,1.104c0.079,0.045,0.165,0.067,0.25,0.067c0.172,0,0.341-0.089,0.433-0.25c0.139-0.239,0.057-0.545-0.183-0.683l-1.412-0.815
	l1.403-0.81l1.791,1.033c0.077,0.044,0.164,0.067,0.25,0.067s0.173-0.022,0.25-0.067l2.043-1.177c0.154-0.089,0.25-0.254,0.25-0.433
	l-0.002-1.252l0.002-1.106c0-0.179-0.095-0.345-0.25-0.434l-2.043-1.177c-0.156-0.089-0.346-0.089-0.5,0l-2.04,1.177
	c-0.155,0.089-0.251,0.254-0.251,0.434v2.07l-1.403,0.81v-1.631c0-0.276-0.224-0.5-0.5-0.5s-0.5,0.224-0.5,0.5v2.208l-1.771,1.022
	v-4.417c0-0.276-0.224-0.5-0.5-0.5s-0.5,0.224-0.5,0.5v4.995l-0.521,0.301L270-157.271v-0.6l4.327-2.498
	c0.239-0.138,0.321-0.444,0.183-0.683c-0.138-0.24-0.445-0.322-0.683-0.183l-3.827,2.21v-2.046l1.913-1.105
	c0.239-0.138,0.321-0.444,0.183-0.683c-0.139-0.24-0.447-0.321-0.683-0.183L270-162.227v-1.624v-0.578v-0.576l-0.5,0.288
	L269.008-165v-0.004l-1.042-0.601v-1.78l1.062-0.613c0-0.002,0.002-0.004,0.002-0.006l0.47-0.271l0.479,0.277
	c-0.049-0.224-0.237-0.395-0.476-0.397c0.001,0,0.003,0,0.003,0c0.241,0,0.432,0.172,0.48,0.397l1.062,0.613v1.78l-1.041,0.601
	v0.576v0.578l1.791-1.033c0.154-0.089,0.25-0.254,0.25-0.433v-2.357c0-0.178-0.095-0.343-0.249-0.433l-2.042-1.18
	c-0.154-0.089-0.346-0.089-0.5,0l-2.043,1.18c-0.154,0.089-0.249,0.254-0.249,0.433v2.357c0,0.179,0.096,0.344,0.25,0.433
	l1.784,1.029v0.004v1.622l-1.41-0.814c-0.238-0.136-0.544-0.056-0.683,0.183c-0.139,0.239-0.057,0.545,0.183,0.683l1.91,1.104v2.046
	l-3.824-2.208c-0.239-0.137-0.546-0.056-0.683,0.183c-0.139,0.239-0.057,0.545,0.183,0.683l4.324,2.496v0.602l-5.114,2.953
	l-0.52-0.3l-0.001-4.995c0-0.276-0.224-0.5-0.5-0.5s-0.5,0.224-0.5,0.5l0.001,4.417l-1.773-1.023v-2.208c0-0.276-0.224-0.5-0.5-0.5
	s-0.5,0.224-0.5,0.5v1.63l-1.404-0.811l0.002-0.966l-0.002-1.104c0-0.178-0.096-0.343-0.25-0.432l-2.041-1.177
	c-0.154-0.089-0.345-0.089-0.499,0l-2.042,1.178c-0.154,0.089-0.25,0.254-0.25,0.433v2.357c0,0.179,0.096,0.344,0.25,0.433
	l2.041,1.18c0.077,0.044,0.164,0.067,0.25,0.067s0.173-0.022,0.25-0.067l1.791-1.035l1.405,0.812l-1.412,0.816
	c-0.239,0.138-0.321,0.444-0.183,0.683c0.093,0.161,0.261,0.25,0.433,0.25c0.085,0,0.171-0.021,0.25-0.067l1.912-1.104l1.773,1.023
	l-3.827,2.209c-0.239,0.138-0.321,0.444-0.183,0.683c0.092,0.161,0.261,0.25,0.433,0.25c0.085,0,0.171-0.021,0.25-0.067l4.327-2.498
	l0.519,0.299v5.905l-0.521,0.3l-4.324-2.498c-0.237-0.137-0.545-0.056-0.683,0.183c-0.139,0.239-0.057,0.545,0.183,0.683
	l3.824,2.208l-1.771,1.023l-1.912-1.104c-0.238-0.137-0.545-0.056-0.683,0.183c-0.139,0.239-0.057,0.545,0.183,0.683l1.412,0.815
	l-1.406,0.812l-1.793-1.034c-0.154-0.089-0.345-0.088-0.499,0l-2.038,1.177c-0.155,0.089-0.251,0.254-0.251,0.432l-0.002,1.111
	l0.002,0.142l-0.002,1.104c0,0.179,0.095,0.345,0.25,0.434l2.043,1.179c0.077,0.044,0.164,0.067,0.25,0.067s0.173-0.022,0.25-0.067
	l2.04-1.179c0.154-0.089,0.25-0.254,0.25-0.433l-0.001-1.253l0.001-0.815l1.407-0.813v1.632c0,0.276,0.224,0.5,0.5,0.5
	s0.5-0.224,0.5-0.5v-2.209l1.771-1.022v4.418c0,0.276,0.224,0.5,0.5,0.5s0.5-0.224,0.5-0.5v-4.996l0.52-0.3l5.114,2.953v0.602
	l-4.324,2.496c-0.239,0.138-0.321,0.444-0.183,0.683c0.092,0.161,0.26,0.25,0.433,0.25c0.085,0,0.171-0.021,0.25-0.067l3.824-2.208
	v2.046l-1.91,1.104c-0.239,0.138-0.321,0.444-0.183,0.683c0.139,0.239,0.443,0.32,0.683,0.183l1.41-0.814v1.622l-1.792,1.033
	c-0.154,0.089-0.25,0.254-0.25,0.433v2.357c0,0.178,0.095,0.343,0.249,0.433l2.043,1.18c0.077,0.044,0.164,0.067,0.25,0.067
	s0.173-0.022,0.25-0.067l2.042-1.18c0.154-0.089,0.249-0.254,0.249-0.433v-2.357c0-0.179-0.096-0.344-0.25-0.433L270-137.149v-1.624
	l1.413,0.816c0.078,0.045,0.165,0.067,0.25,0.067c0.172,0,0.34-0.089,0.433-0.25c0.139-0.239,0.057-0.545-0.183-0.683L270-139.929
	v-2.046l3.827,2.21c0.24,0.138,0.546,0.058,0.683-0.183c0.139-0.239,0.057-0.545-0.183-0.683L270-143.129v-0.6l5.114-2.953l0.52,0.3
	v4.996c0,0.276,0.224,0.5,0.5,0.5s0.5-0.224,0.5-0.5v-4.418l1.772,1.023v2.209c0,0.276,0.224,0.5,0.5,0.5s0.5-0.224,0.5-0.5v-1.631
	l1.405,0.811v2.069c0,0.179,0.096,0.344,0.25,0.433l2.041,1.179c0.077,0.044,0.164,0.067,0.25,0.067s0.173-0.022,0.25-0.067
	l2.041-1.179c0.154-0.089,0.25-0.254,0.25-0.433l0.002-1.254L285.894-143.681z M281.81-158.184v-1.203l1.541-0.89l1.063,0.613
	l0.479,0.276v0.555l0.001,1.228l-1.543,0.889l-1.041-0.601l-0.5-0.289V-158.184z M254.106-158.834v-0.554l0.478-0.276l1.062-0.613
	l1.543,0.889l-0.001,1.203v0.577l-0.5,0.289l-1.041,0.602l-1.541-0.891V-158.834z M257.188-141.612l-1.54,0.891l-1.071-0.619
	l-0.471-0.271l0.001-0.554v-0.268l-0.002-0.142l0.001-0.815l1.541-0.89l1.041,0.6l0.5,0.289v0.578V-141.612z M270-144.883
	l-0.5,0.289l-0.5-0.289l-4.114-2.376l-0.5-0.289v-0.578v-4.75v-0.578l0.5-0.289l4.114-2.376l0.5-0.289l0.5,0.289l4.114,2.376
	l0.5,0.289v0.578v4.75v0.578l-0.5,0.289L270-144.883z M271.041-133.614l-1.062,0.613l-0.479,0.277l-0.479-0.277l-1.062-0.613v-1.78
	l1.042-0.601l0.5-0.288l0.5,0.288l1.041,0.601V-133.614z M281.812-142.577v-0.237l-0.001-0.577l0.5-0.289l1.041-0.602l1.542,0.892
	l-0.001,1.225v0.554l-0.47,0.271l-1.071,0.619l-1.541-0.891L281.812-142.577z"/>
</svg>
