<?xml version="1.0" encoding="utf-8"?>
<!-- Generator: Adobe Illustrator 16.0.0, SVG Export Plug-In . SVG Version: 6.00 Build 0)  -->
<!DOCTYPE svg PUBLIC "-//W3C//DTD SVG 1.1//EN" "http://www.w3.org/Graphics/SVG/1.1/DTD/svg11.dtd">
<svg version="1.1" id="Layer_1" xmlns="http://www.w3.org/2000/svg" xmlns:xlink="http://www.w3.org/1999/xlink" x="0px" y="0px"
	 width="50px" height="50px" viewBox="-245.5 174.5 50 50" enable-background="new -245.5 174.5 50 50" xml:space="preserve">
<path style="fill:white" d="M-205.629,200.979l-7.724,2.07l-0.083-0.049v-7.002l0.084-0.049l7.723,2.068c0.043,0.011,0.087,0.017,0.13,0.017
	c0.221,0,0.423-0.147,0.482-0.371c0.071-0.267-0.087-0.54-0.354-0.612l-6.757-1.809l1.549-0.895l1.22,0.704l1.721-0.992v-1.409
	l1.951-1.127c0.239-0.138,0.321-0.443,0.183-0.683c-0.139-0.239-0.445-0.323-0.683-0.183l-1.951,1.127l-1.221-0.704l-1.719,0.992
	v1.409l-1.548,0.894l1.811-6.755c0.071-0.268-0.087-0.541-0.354-0.613c-0.265-0.065-0.54,0.088-0.612,0.354l-2.069,7.722
	l-0.082,0.048l-6.067-3.501v-0.098l5.652-5.652c0.195-0.195,0.195-0.512,0-0.707s-0.512-0.195-0.707,0l-4.945,4.945v-1.787
	l1.22-0.705v-1.984l-1.22-0.704v-2.253c0-0.276-0.224-0.5-0.5-0.5s-0.5,0.224-0.5,0.5v2.253l-1.22,0.704v1.984l1.22,0.705v1.787
	l-4.945-4.945c-0.195-0.195-0.512-0.195-0.707,0s-0.195,0.512,0,0.707l5.652,5.652v0.099l-6.067,3.5l-0.082-0.048l-2.069-7.722
	c-0.072-0.266-0.345-0.42-0.612-0.354c-0.267,0.072-0.425,0.346-0.354,0.613l1.811,6.755l-1.548-0.894v-1.409l-1.72-0.992
	l-1.22,0.704l-1.951-1.127c-0.239-0.141-0.545-0.057-0.683,0.183s-0.056,0.545,0.183,0.683l1.951,1.127v1.409l1.72,0.992
	l1.221-0.704l1.549,0.895l-6.757,1.809c-0.267,0.072-0.425,0.346-0.354,0.612c0.06,0.224,0.262,0.371,0.482,0.371
	c0.043,0,0.086-0.006,0.13-0.017l7.723-2.068l0.084,0.049v7.002l-0.084,0.049l-7.723-2.07c-0.265-0.064-0.54,0.088-0.612,0.354
	c-0.071,0.268,0.087,0.541,0.354,0.613l6.757,1.811l-1.548,0.894l-1.221-0.705l-1.721,0.994l0.001,1.409l-1.953,1.127
	c-0.239,0.138-0.321,0.443-0.183,0.683c0.093,0.16,0.261,0.25,0.434,0.25c0.085,0,0.171-0.021,0.25-0.067l1.952-1.127l1.22,0.704
	l1.72-0.992v-1.409l1.547-0.894l-1.811,6.755c-0.071,0.268,0.087,0.541,0.354,0.613c0.043,0.011,0.087,0.017,0.13,0.017
	c0.221,0,0.422-0.147,0.482-0.37l2.069-7.722l0.084-0.049l6.065,3.499v0.099l-5.652,5.654c-0.195,0.195-0.195,0.512,0,0.707
	s0.512,0.195,0.707,0l4.945-4.947v1.788l-1.22,0.704v1.986l1.22,0.704v2.253c0,0.276,0.224,0.5,0.5,0.5s0.5-0.224,0.5-0.5v-2.253
	l1.22-0.704v-1.986l-1.22-0.704v-1.788l4.945,4.947c0.098,0.098,0.226,0.146,0.354,0.146s0.256-0.049,0.354-0.146
	c0.195-0.195,0.195-0.512,0-0.707l-5.652-5.654v-0.098l6.065-3.5l0.081,0.048l2.07,7.723c0.06,0.223,0.262,0.37,0.482,0.37
	c0.043,0,0.086-0.006,0.13-0.017c0.267-0.072,0.425-0.346,0.354-0.613l-1.811-6.756l1.549,0.894v1.41l1.721,0.992l1.22-0.704
	l1.952,1.127c0.079,0.046,0.165,0.067,0.25,0.067c0.173,0,0.341-0.09,0.434-0.25c0.138-0.239,0.056-0.545-0.183-0.683l-1.953-1.127
	l0.001-1.409l-1.721-0.994l-1.221,0.705l-1.549-0.894l6.758-1.811c0.267-0.072,0.425-0.346,0.354-0.613
	C-205.088,201.067-205.362,200.914-205.629,200.979z M-214.437,202.424l-5.064-2.924l5.064-2.924V202.424z M-214.934,195.709
	l-5.066,2.926v-5.85L-214.934,195.709z M-221,192.786v5.849l-5.066-2.926L-221,192.786z M-226.563,196.576l5.064,2.924l-5.064,2.924
	V196.576z M-226.064,203.29l5.064-2.925v5.847L-226.064,203.29z M-220,206.213v-5.848l5.064,2.925L-220,206.213z"/>
</svg>
