<?xml version="1.0" encoding="utf-8"?>
<!-- Generator: Adobe Illustrator 16.0.0, SVG Export Plug-In . SVG Version: 6.00 Build 0)  -->
<!DOCTYPE svg PUBLIC "-//W3C//DTD SVG 1.1//EN" "http://www.w3.org/Graphics/SVG/1.1/DTD/svg11.dtd">
<svg version="1.1" id="Layer_1" xmlns="http://www.w3.org/2000/svg" xmlns:xlink="http://www.w3.org/1999/xlink" x="0px" y="0px"
	 width="50px" height="50px" viewBox="104.5 -35.5 50 50" enable-background="new 104.5 -35.5 50 50" xml:space="preserve">
<path style="fill:white" d="M144.501-11h-3.302l1.2-1.2c0.195-0.195,0.195-0.512,0-0.707s-0.512-0.195-0.707,0L139.786-11h-0.509l0.823-0.823
	c0.195-0.195,0.195-0.512,0-0.707s-0.512-0.195-0.707,0L137.861-11h-1.936l-1.501-3.716l3.426-3.426
	c0.195-0.195,0.195-0.512,0-0.707s-0.512-0.195-0.707,0l-3.452,3.452l-3.69-1.565v-1.898l1.529-1.53
	c0.195-0.195,0.195-0.512,0-0.707c-0.195-0.195-0.512-0.195-0.707,0l-0.822,0.823v-0.51l1.904-1.906
	c0.195-0.195,0.195-0.512,0-0.707c-0.195-0.195-0.512-0.195-0.707,0l-1.197,1.198v-3.3c0-0.276-0.224-0.5-0.5-0.5
	s-0.5,0.224-0.5,0.5v3.3l-1.199-1.199c-0.195-0.195-0.512-0.195-0.707,0s-0.195,0.512,0,0.707l1.906,1.906v0.509l-0.822-0.823
	c-0.195-0.195-0.512-0.195-0.707,0c-0.195,0.195-0.195,0.512,0,0.707l1.529,1.53v1.937l-3.716,1.501l-3.427-3.426
	c-0.195-0.195-0.512-0.195-0.707,0s-0.195,0.512,0,0.707l3.453,3.453L123.038-11h-1.898l-1.531-1.529
	c-0.195-0.194-0.512-0.195-0.707,0.001c-0.195,0.195-0.195,0.512,0,0.707L119.724-11h-0.508l-1.906-1.904
	c-0.195-0.195-0.512-0.195-0.707,0s-0.195,0.512,0,0.707L117.801-11h-3.3c-0.276,0-0.5,0.224-0.5,0.5s0.224,0.5,0.5,0.5h3.302
	l-1.2,1.2c-0.195,0.195-0.195,0.512,0,0.707c0.098,0.098,0.226,0.146,0.354,0.146s0.256-0.049,0.354-0.146L119.216-10h0.509
	l-0.823,0.823c-0.195,0.195-0.195,0.512,0,0.707c0.098,0.098,0.226,0.146,0.354,0.146s0.256-0.049,0.354-0.146l1.532-1.53h1.936
	l1.501,3.717l-3.426,3.426c-0.195,0.195-0.195,0.512,0,0.707c0.098,0.098,0.226,0.146,0.354,0.146s0.256-0.049,0.354-0.146
	l3.452-3.452l3.69,1.565v1.898l-1.529,1.53c-0.195,0.195-0.195,0.512,0,0.707c0.195,0.195,0.512,0.195,0.707,0l0.822-0.823v0.51
	l-1.904,1.906c-0.195,0.195-0.195,0.512,0,0.707c0.098,0.098,0.226,0.146,0.354,0.146s0.256-0.049,0.354-0.146l1.197-1.198v3.3
	c0,0.276,0.224,0.5,0.5,0.5s0.5-0.224,0.5-0.5V1.2l1.199,1.199c0.195,0.195,0.512,0.195,0.707,0s0.195-0.512,0-0.707l-1.906-1.906
	v-0.51l0.824,0.824c0.098,0.098,0.226,0.146,0.354,0.146s0.256-0.049,0.354-0.146c0.195-0.195,0.195-0.512,0-0.707l-1.531-1.53
	v-1.937l3.716-1.501l3.427,3.426c0.098,0.098,0.226,0.146,0.354,0.146s0.256-0.049,0.354-0.146c0.195-0.195,0.195-0.512,0-0.707
	l-3.453-3.453l1.566-3.69h1.898l1.531,1.529c0.098,0.097,0.226,0.146,0.354,0.146s0.256-0.049,0.354-0.147
	c0.195-0.195,0.195-0.512,0-0.707L139.278-10h0.508l1.906,1.904c0.098,0.098,0.226,0.146,0.354,0.146s0.256-0.049,0.354-0.146
	c0.195-0.195,0.195-0.512,0-0.707L141.201-10h3.3c0.276,0,0.5-0.224,0.5-0.5S144.777-11,144.501-11z M134.878-10l-1.242,2.928
	l-0.23,0.543l-0.456,0.184l-2.948,1.192l-0.548,0.221l-0.452-0.192l-2.928-1.241l-0.544-0.23l-0.185-0.456L124.154-10l-0.222-0.548
	L124.124-11l1.242-2.928l0.23-0.544l0.456-0.184l2.948-1.191l0.548-0.221l0.452,0.192l2.928,1.242l0.544,0.231l0.184,0.455
	L134.848-11l0.222,0.548L134.878-10z"/>
</svg>
