<?xml version="1.0" encoding="utf-8"?>
<!-- Generator: Adobe Illustrator 16.0.0, SVG Export Plug-In . SVG Version: 6.00 Build 0)  -->
<!DOCTYPE svg PUBLIC "-//W3C//DTD SVG 1.1//EN" "http://www.w3.org/Graphics/SVG/1.1/DTD/svg11.dtd">
<svg version="1.1" id="Layer_1" xmlns="http://www.w3.org/2000/svg" xmlns:xlink="http://www.w3.org/1999/xlink" x="0px" y="0px"
	 width="50px" height="50px" viewBox="104.5 314.5 50 50" enable-background="new 104.5 314.5 50 50" xml:space="preserve">
<path style="fill:white" d="M145.444,336.653L145.444,336.653c-1.33,0.02-2.402,1.044-2.534,2.336h-1.682l0.814-1.412
	c0.138-0.239,0.056-0.545-0.184-0.684c-0.241-0.137-0.546-0.056-0.684,0.184l-1.103,1.912h-2.047l2.209-3.826
	c0.139-0.239,0.057-0.545-0.183-0.683c-0.238-0.138-0.545-0.057-0.683,0.183l-2.498,4.326h-2.669l2.809-3.838l-4.727,0.514
	l1.333-2.309l4.997-0.002c0.276,0,0.5-0.224,0.5-0.5s-0.224-0.5-0.5-0.5l-4.419,0.002l1.023-1.773h2.208c0.276,0,0.5-0.224,0.5-0.5
	s-0.224-0.5-0.5-0.5h-1.631l0.846-1.465c0.334,0.149,0.688,0.249,1.055,0.249c0.909,0,1.766-0.485,2.233-1.267
	c0.732-1.229,0.329-2.828-0.899-3.564c-1.19-0.709-2.857-0.284-3.564,0.898c-0.609,1.021-0.426,2.288,0.353,3.112l-0.888,1.536
	l-0.816-1.412c-0.14-0.239-0.443-0.322-0.683-0.183c-0.239,0.138-0.321,0.443-0.183,0.683l1.104,1.912l-1.023,1.771l-2.209-3.826
	c-0.138-0.239-0.444-0.322-0.683-0.183c-0.239,0.138-0.321,0.443-0.183,0.683l2.497,4.327l-1.335,2.312l-1.919-4.352l-1.919,4.349
	l-1.333-2.308l2.498-4.328c0.139-0.239,0.057-0.545-0.183-0.683c-0.238-0.138-0.545-0.057-0.683,0.183l-2.21,3.827l-1.022-1.771
	l1.104-1.914c0.138-0.239,0.056-0.545-0.184-0.684c-0.241-0.138-0.546-0.056-0.684,0.184l-0.814,1.413l-0.854-1.479
	c0.387-0.336,0.666-0.779,0.802-1.285c0.181-0.672,0.088-1.372-0.259-1.974c-0.689-1.191-2.345-1.646-3.551-0.95
	c-1.24,0.717-1.666,2.31-0.95,3.55c0.463,0.802,1.326,1.3,2.252,1.3c0.285,0,0.563-0.063,0.832-0.155l0.862,1.492l-1.631-0.002
	c-0.276,0-0.5,0.224-0.5,0.5c0,0.275,0.224,0.5,0.5,0.5l2.208,0.002l1.022,1.771h-4.416c-0.276,0-0.5,0.224-0.5,0.5
	s0.224,0.5,0.5,0.5h4.993l1.335,2.312l-4.729-0.514l2.808,3.836h-2.667l-2.499-4.326c-0.139-0.239-0.444-0.322-0.683-0.183
	c-0.239,0.138-0.321,0.443-0.183,0.683l2.21,3.826h-2.048l-1.104-1.912c-0.14-0.239-0.443-0.322-0.683-0.183
	c-0.239,0.138-0.321,0.443-0.183,0.683l0.815,1.412h-1.775c-0.323-1.069-1.317-1.859-2.518-1.859h-0.001
	c-0.693,0.011-1.342,0.291-1.825,0.789c-0.484,0.499-0.744,1.155-0.733,1.848c0.021,1.412,1.187,2.561,2.598,2.561h0.04
	c0.694-0.011,1.343-0.291,1.826-0.79c0.412-0.425,0.651-0.968,0.709-1.548h1.681l-0.815,1.412c-0.138,0.239-0.056,0.545,0.184,0.684
	c0.079,0.045,0.165,0.066,0.25,0.066c0.173,0,0.341-0.09,0.434-0.25l1.103-1.912h2.047l-2.209,3.826
	c-0.139,0.239-0.057,0.545,0.183,0.683c0.079,0.046,0.165,0.067,0.25,0.067c0.172,0,0.341-0.09,0.433-0.25l2.498-4.326h2.669
	l-2.81,3.838l4.728-0.514l-1.334,2.311l-4.994-0.002c-0.276,0-0.5,0.224-0.5,0.5s0.224,0.5,0.5,0.5l4.417,0.002l-1.023,1.771h-2.208
	c-0.276,0-0.5,0.224-0.5,0.5s0.224,0.5,0.5,0.5h1.631l-0.842,1.458c-1.161-0.504-2.639-0.068-3.29,1.025
	c-0.356,0.595-0.459,1.293-0.289,1.966c0.169,0.674,0.591,1.24,1.187,1.597c0.402,0.241,0.862,0.368,1.33,0.368
	c0.91,0,1.766-0.484,2.232-1.265c0.357-0.597,0.46-1.296,0.29-1.97c-0.11-0.438-0.337-0.824-0.64-1.144l0.887-1.537l0.817,1.413
	c0.093,0.16,0.261,0.25,0.433,0.25c0.085,0,0.171-0.021,0.25-0.067c0.239-0.138,0.321-0.443,0.183-0.683l-1.104-1.913l1.022-1.771
	l2.21,3.827c0.092,0.16,0.26,0.25,0.433,0.25c0.085,0,0.171-0.021,0.25-0.067c0.239-0.138,0.321-0.443,0.183-0.683l-2.497-4.328
	l1.334-2.31l1.918,4.352l1.92-4.352l1.334,2.311l-2.496,4.325c-0.139,0.239-0.057,0.545,0.183,0.683
	c0.079,0.046,0.165,0.067,0.25,0.067c0.172,0,0.341-0.09,0.433-0.25l2.209-3.824l1.022,1.771l-1.104,1.912
	c-0.138,0.239-0.056,0.545,0.184,0.684c0.079,0.045,0.165,0.066,0.25,0.066c0.173,0,0.341-0.09,0.434-0.25l0.813-1.412l0.854,1.479
	c-0.918,0.8-1.176,2.164-0.545,3.257c0.463,0.802,1.325,1.3,2.252,1.3c0.453,0,0.902-0.121,1.297-0.349
	c0.601-0.347,1.031-0.907,1.211-1.578s0.088-1.372-0.259-1.973c-0.605-1.046-1.955-1.521-3.089-1.154l-0.857-1.484l1.633,0.002
	c0.276,0,0.5-0.224,0.5-0.5c0-0.275-0.224-0.5-0.5-0.5l-2.21-0.002l-1.022-1.771h4.419c0.276,0,0.5-0.224,0.5-0.5
	s-0.224-0.5-0.5-0.5h-4.997l-1.333-2.311l4.727,0.514l-2.81-3.836h2.67l2.498,4.326c0.092,0.16,0.261,0.25,0.433,0.25
	c0.085,0,0.171-0.021,0.25-0.067c0.239-0.138,0.321-0.443,0.183-0.683l-2.209-3.826h2.048l1.104,1.912
	c0.093,0.16,0.261,0.25,0.433,0.25c0.085,0,0.171-0.021,0.25-0.067c0.239-0.138,0.321-0.443,0.183-0.683l-0.815-1.412h1.775
	c0.322,1.071,1.312,1.861,2.48,1.861h0.038c1.432-0.024,2.579-1.208,2.558-2.638C148.06,337.802,146.897,336.653,145.444,336.653z
	 M136.325,324.947c0.292-0.487,0.807-0.778,1.376-0.778c0.021,0,0.042,0.008,0.062,0.009c0.265,0.011,0.525,0.08,0.754,0.217
	c0.061,0.036,0.112,0.081,0.166,0.124c0.62,0.49,0.803,1.374,0.389,2.069c-0.39,0.649-1.231,0.926-1.934,0.672
	c-0.09-0.032-0.178-0.07-0.261-0.12c-0.222-0.133-0.395-0.314-0.524-0.52C136.043,326.127,136.007,325.482,136.325,324.947z
	 M120.125,326.446c-0.356-0.618-0.246-1.374,0.211-1.874c0.107-0.118,0.229-0.226,0.373-0.31c0.143-0.082,0.297-0.135,0.456-0.17
	c0.112-0.024,0.227-0.045,0.342-0.045c0.571,0,1.103,0.306,1.387,0.799c0.214,0.37,0.271,0.801,0.159,1.214
	c-0.065,0.245-0.191,0.462-0.355,0.646c-0.111,0.125-0.239,0.238-0.389,0.325c-0.15,0.087-0.313,0.138-0.479,0.168
	C121.177,327.32,120.462,327.031,120.125,326.446z M111.943,339.957c-0.01-0.068-0.022-0.136-0.023-0.206
	c-0.004-0.271,0.065-0.528,0.188-0.762c0.07-0.134,0.154-0.262,0.263-0.374c0.297-0.307,0.696-0.479,1.147-0.485
	c0.61,0,1.14,0.352,1.408,0.859c0.114,0.216,0.187,0.456,0.19,0.715c0.002,0.097-0.008,0.191-0.023,0.285
	c-0.052,0.319-0.197,0.614-0.428,0.853c-0.298,0.307-0.697,0.479-1.124,0.485l-0.024,0.497v-0.497
	C112.72,341.327,112.057,340.728,111.943,339.957z M122.853,352.82c0.104,0.414,0.041,0.845-0.178,1.211
	c-0.287,0.48-0.814,0.778-1.375,0.778c-0.021,0-0.042-0.008-0.062-0.009c-0.266-0.011-0.525-0.08-0.754-0.217
	c-0.06-0.036-0.112-0.08-0.166-0.123c-0.277-0.218-0.478-0.514-0.565-0.86c-0.104-0.414-0.041-0.843,0.179-1.209
	c0.291-0.488,0.805-0.779,1.375-0.779c0.19,0,0.375,0.047,0.553,0.113c0.09,0.034,0.181,0.063,0.264,0.113
	c0.219,0.13,0.393,0.311,0.525,0.52C122.736,352.5,122.811,352.653,122.853,352.82z M137.489,351.733
	c0.571,0,1.103,0.306,1.387,0.799c0.213,0.37,0.27,0.801,0.159,1.213c-0.067,0.252-0.198,0.474-0.369,0.661
	c-0.109,0.119-0.231,0.228-0.376,0.311c-0.142,0.082-0.294,0.13-0.45,0.162c-0.659,0.136-1.391-0.153-1.732-0.747
	c-0.354-0.612-0.249-1.358,0.197-1.859c0.11-0.124,0.235-0.236,0.387-0.324c0.149-0.086,0.312-0.139,0.479-0.173
	C137.276,351.754,137.382,351.733,137.489,351.733z M131.051,342.173l-0.25,0.566l-1.301,2.946l-1.299-2.946l-0.25-0.567
	l-0.615,0.067l-3.201,0.348l1.901-2.598l0.365-0.499l-0.366-0.501l-1.9-2.598l3.201,0.348l0.613,0.066l0.251-0.568l1.3-2.945
	l1.3,2.947l0.25,0.567l0.615-0.067l3.2-0.348l-1.9,2.598l-0.366,0.501l0.365,0.499l1.901,2.598l-3.199-0.348L131.051,342.173z
	 M144.073,339.989c-0.113-0.215-0.186-0.456-0.189-0.714c-0.001-0.098,0.009-0.192,0.024-0.286c0.126-0.747,0.771-1.324,1.579-1.336
	c0.796,0,1.456,0.599,1.569,1.368c0.01,0.068,0.022,0.136,0.023,0.206c0.004,0.275-0.068,0.533-0.189,0.762
	c-0.264,0.501-0.779,0.852-1.384,0.861l-0.022,0.497v-0.497C144.873,340.851,144.343,340.498,144.073,339.989z"/>
</svg>
