<?xml version="1.0" encoding="utf-8"?>
<!-- Generator: Adobe Illustrator 16.0.0, SVG Export Plug-In . SVG Version: 6.00 Build 0)  -->
<!DOCTYPE svg PUBLIC "-//W3C//DTD SVG 1.1//EN" "http://www.w3.org/Graphics/SVG/1.1/DTD/svg11.dtd">
<svg version="1.1" id="Layer_1" xmlns="http://www.w3.org/2000/svg" xmlns:xlink="http://www.w3.org/1999/xlink" x="0px" y="0px"
	 width="50px" height="50px" viewBox="-315.5 174.5 50 50" enable-background="new -315.5 174.5 50 50" xml:space="preserve">
<path style="fill:white" d="M-275.688,207.476l-2.651-1.531l1.855-0.496c0.267-0.072,0.425-0.346,0.354-0.612c-0.071-0.268-0.345-0.419-0.612-0.354
	l-2.821,0.756l-1.444-0.834v-9.807l1.443-0.834l2.824,0.758c0.043,0.011,0.087,0.017,0.13,0.017c0.221,0,0.422-0.147,0.482-0.37
	c0.072-0.267-0.086-0.541-0.354-0.613l-1.857-0.498l2.652-1.531c0.239-0.138,0.321-0.443,0.183-0.683
	c-0.139-0.239-0.446-0.323-0.683-0.183l-2.65,1.53l0.496-1.855c0.071-0.267-0.087-0.54-0.354-0.612
	c-0.264-0.063-0.541,0.087-0.612,0.354l-0.755,2.82l-1.441,0.832l-8.497-4.902v-1.666l2.064-2.066c0.195-0.195,0.195-0.512,0-0.707
	s-0.512-0.195-0.707,0l-1.357,1.358v-3.06c0-0.276-0.224-0.5-0.5-0.5s-0.5,0.224-0.5,0.5v3.061l-1.359-1.359
	c-0.195-0.195-0.512-0.195-0.707,0s-0.195,0.512,0,0.707l2.066,2.066v1.666l-8.498,4.901l-1.44-0.831l-0.756-2.821
	c-0.072-0.267-0.345-0.418-0.612-0.354c-0.267,0.072-0.425,0.347-0.354,0.613l0.498,1.854l-2.649-1.529
	c-0.239-0.141-0.545-0.057-0.683,0.183s-0.056,0.545,0.183,0.683l2.652,1.531l-1.857,0.498c-0.267,0.072-0.425,0.347-0.354,0.613
	c0.06,0.223,0.262,0.37,0.482,0.37c0.043,0,0.086-0.006,0.13-0.017l2.824-0.758l1.441,0.832v9.811l-1.442,0.832l-2.823-0.756
	c-0.267-0.063-0.541,0.087-0.612,0.354c-0.071,0.267,0.087,0.54,0.354,0.612l1.857,0.496l-2.651,1.531
	c-0.239,0.138-0.321,0.443-0.183,0.683c0.093,0.16,0.261,0.25,0.434,0.25c0.085,0,0.171-0.021,0.25-0.067l2.65-1.53l-0.496,1.855
	c-0.071,0.267,0.087,0.54,0.354,0.612c0.043,0.011,0.087,0.017,0.13,0.017c0.221,0,0.423-0.147,0.482-0.371l0.755-2.82l1.445-0.834
	l8.493,4.903v1.667l-2.066,2.066c-0.195,0.195-0.195,0.512,0,0.707c0.098,0.098,0.226,0.146,0.354,0.146s0.256-0.049,0.354-0.146
	l1.359-1.359v3.061c0,0.276,0.224,0.5,0.5,0.5s0.5-0.224,0.5-0.5v-3.06l1.357,1.358c0.195,0.195,0.512,0.195,0.707,0
	s0.195-0.512,0-0.707L-290,211.84v-1.667l8.492-4.903l1.446,0.834l0.755,2.82c0.06,0.224,0.262,0.371,0.482,0.371
	c0.043,0,0.086-0.006,0.13-0.017c0.267-0.072,0.425-0.346,0.354-0.612l-0.496-1.855l2.65,1.53c0.079,0.046,0.165,0.067,0.25,0.067
	c0.173,0,0.341-0.09,0.434-0.25C-275.366,207.919-275.448,207.613-275.688,207.476z M-290,189.98l7.497,4.325l-1.281,0.74
	l-0.008,0.001l-6.203-3.579l-0.004-0.013V189.98z M-285.304,195.33l-3.127,0.586l-1.055-3L-285.304,195.33z M-291,189.98v1.476
	l-0.004,0.012l-6.205,3.579l-0.006-0.001l-1.283-0.74L-291,189.98z M-291.514,192.916l-1.056,3l-3.127-0.586L-291.514,192.916z
	 M-296.709,197.086l2.069,2.414l-2.069,2.414V197.086z M-298.994,195.173l1.277,0.737l0.008,0.009v7.162l-0.008,0.009l-1.277,0.737
	V195.173z M-291,209.019l-7.493-4.327l1.278-0.737l0.009-0.002l6.203,3.581l0.003,0.009V209.019z M-295.695,203.669l3.125-0.585
	l1.057,3L-295.695,203.669z M-290.5,205.951l-0.5-1.418l-0.912-2.59l-2.694,0.505l-1.481,0.277l0.978-1.141l1.787-2.085
	l-1.787-2.085l-0.978-1.141l1.481,0.277l2.694,0.505l0.912-2.591l0.5-1.419l0.5,1.423l0.91,2.587l2.697-0.505l1.481-0.277
	l-0.978,1.141l-1.787,2.085l1.787,2.085l0.978,1.141l-1.481-0.277l-2.697-0.505l-0.91,2.585L-290.5,205.951z M-284.293,197.089
	v4.822l-2.067-2.411L-284.293,197.089z M-285.306,203.669l-4.18,2.415l1.055-3L-285.306,203.669z M-290,209.019v-1.476l0.004-0.011
	l6.201-3.58l0.011,0.002l1.276,0.737L-290,209.019z M-282.008,203.826l-1.275-0.736l-0.01-0.012v-7.156l0.01-0.012l1.275-0.736
	V203.826z"/>
</svg>
