<?xml version="1.0" encoding="utf-8"?>
<!-- Generator: Adobe Illustrator 16.0.0, SVG Export Plug-In . SVG Version: 6.00 Build 0)  -->
<!DOCTYPE svg PUBLIC "-//W3C//DTD SVG 1.1//EN" "http://www.w3.org/Graphics/SVG/1.1/DTD/svg11.dtd">
<svg version="1.1" id="Layer_1" xmlns="http://www.w3.org/2000/svg" xmlns:xlink="http://www.w3.org/1999/xlink" x="0px" y="0px"
	 width="50px" height="50px" viewBox="34.5 -175.5 50 50" enable-background="new 34.5 -175.5 50 50" xml:space="preserve">
<path style="fill:white" d="M74.814-142.236l-2.205-1.273v-5.015l-1,0.001v4.436l-6.178-3.567l4.025-1.078c0.268-0.071,0.426-0.346,0.354-0.612
	c-0.072-0.267-0.347-0.426-0.612-0.354l-4.992,1.336L60.5-150.5l3.71-2.142l4.989,1.336c0.043,0.012,0.086,0.017,0.129,0.017
	c0.221,0,0.423-0.147,0.483-0.371c0.071-0.267-0.087-0.541-0.354-0.612l-4.023-1.078l6.175-3.565v4.392l1-0.001v-4.968l2.205-1.273
	c0.239-0.138,0.321-0.444,0.183-0.683c-0.137-0.241-0.443-0.321-0.683-0.183l-2.202,1.271l-4.346-2.507L67.268-160l3.845,2.218
	l-6.18,3.568l1.08-4.026c0.071-0.267-0.087-0.541-0.354-0.612c-0.269-0.07-0.541,0.087-0.613,0.354l-1.338,4.992L60-151.366v-4.282
	l3.652-3.652c0.195-0.195,0.195-0.512,0-0.707s-0.512-0.195-0.707,0L60-157.062v-7.13l3.804,2.195l0.499-0.867L60-165.348v-2.549
	c0-0.276-0.224-0.5-0.5-0.5s-0.5,0.224-0.5,0.5v2.549l-4.343,2.506l0.502,0.865L59-164.193v7.13l-2.945-2.945
	c-0.195-0.195-0.512-0.195-0.707,0s-0.195,0.512,0,0.707L59-155.648v4.282l-3.708-2.141l-1.338-4.992
	c-0.072-0.267-0.343-0.424-0.613-0.354c-0.267,0.071-0.425,0.346-0.354,0.612l1.08,4.026l-6.18-3.568l3.806-2.196l-0.501-0.865
	l-4.305,2.484l-2.202-1.271c-0.238-0.136-0.545-0.056-0.683,0.183c-0.139,0.239-0.057,0.545,0.183,0.683l2.205,1.273v5.015l1-0.001
	v-4.436l6.175,3.565l-4.023,1.078c-0.267,0.071-0.425,0.346-0.354,0.612c0.061,0.224,0.263,0.371,0.483,0.371
	c0.043,0,0.086-0.005,0.129-0.017l4.989-1.336l3.71,2.142l-3.707,2.14l-4.992-1.336c-0.264-0.072-0.539,0.087-0.612,0.354
	c-0.071,0.267,0.087,0.541,0.354,0.612l4.025,1.078l-6.178,3.567v-4.392l-1,0.001v4.968l-2.205,1.273
	c-0.239,0.138-0.321,0.444-0.183,0.683c0.092,0.161,0.261,0.25,0.433,0.25c0.085,0,0.171-0.021,0.25-0.067l2.204-1.272l4.345,2.507
	l0.498-0.867l-3.843-2.218l6.177-3.566l-1.077,4.022c-0.071,0.267,0.087,0.541,0.354,0.612c0.043,0.012,0.086,0.017,0.129,0.017
	c0.221,0,0.423-0.147,0.483-0.371l1.335-4.988L59-149.634v4.28l-3.652,3.653c-0.195,0.195-0.195,0.512,0,0.707s0.512,0.195,0.707,0
	L59-143.939v7.132l-3.804-2.195l-0.498,0.867L59-135.652v2.549c0,0.276,0.224,0.5,0.5,0.5s0.5-0.224,0.5-0.5v-2.549l4.343-2.507
	l-0.502-0.865L60-136.807v-7.132l2.945,2.947c0.098,0.098,0.226,0.146,0.354,0.146s0.256-0.049,0.354-0.146
	c0.195-0.195,0.195-0.512,0-0.707L60-145.354v-4.28l3.709,2.141l1.335,4.988c0.061,0.223,0.263,0.371,0.483,0.371
	c0.042,0,0.086-0.005,0.129-0.017c0.268-0.071,0.426-0.346,0.354-0.612l-1.077-4.022l6.177,3.566l-3.805,2.196l0.501,0.865
	l4.304-2.483l2.204,1.272c0.079,0.045,0.165,0.067,0.25,0.067c0.172,0,0.341-0.09,0.433-0.25
	C75.136-141.792,75.054-142.098,74.814-142.236z"/>
</svg>
