<?xml version="1.0" encoding="utf-8"?>
<!-- Generator: Adobe Illustrator 16.0.0, SVG Export Plug-In . SVG Version: 6.00 Build 0)  -->
<!DOCTYPE svg PUBLIC "-//W3C//DTD SVG 1.1//EN" "http://www.w3.org/Graphics/SVG/1.1/DTD/svg11.dtd">
<svg version="1.1" id="Layer_1" xmlns="http://www.w3.org/2000/svg" xmlns:xlink="http://www.w3.org/1999/xlink" x="0px" y="0px"
	 width="50px" height="50px" viewBox="-35.5 34.5 50 50" enable-background="new -35.5 34.5 50 50" xml:space="preserve">
<path style="fill:white" d="M4.939,67.548l-0.856-0.494v-2.322c0-0.268-0.143-0.516-0.375-0.649l-2.385-1.377c-0.232-0.135-0.518-0.135-0.75,0
	l-2.011,1.161l-0.964-0.557l5.145-1.377c0.4-0.107,0.638-0.519,0.531-0.919c-0.107-0.399-0.521-0.637-0.918-0.53l-5.915,1.584
	c0.297-0.802,0.468-1.664,0.468-2.567c0-0.905-0.171-1.769-0.469-2.571l5.916,1.586c0.065,0.018,0.13,0.025,0.195,0.025
	c0.331,0,0.634-0.221,0.724-0.556c0.107-0.4-0.13-0.812-0.53-0.919l-5.141-1.378l0.959-0.553l2.01,1.159
	c0.116,0.067,0.246,0.101,0.375,0.101s0.259-0.033,0.375-0.101l2.387-1.377c0.232-0.134,0.375-0.382,0.375-0.65l-0.001-2.319
	l0.858-0.495c0.359-0.207,0.481-0.666,0.274-1.024c-0.207-0.358-0.667-0.481-1.024-0.274l-0.858,0.495l-2.01-1.161
	c-0.231-0.135-0.518-0.135-0.75,0l-2.385,1.376c-0.232,0.134-0.375,0.382-0.375,0.649v2.323l-0.961,0.555l1.378-5.145
	c0.107-0.4-0.13-0.812-0.531-0.919c-0.397-0.104-0.811,0.131-0.918,0.53l-1.583,5.913c-1.107-1.331-2.672-2.263-4.45-2.565
	l4.33-4.329c0.293-0.293,0.293-0.768,0-1.061s-0.768-0.293-1.061,0l-3.765,3.764v-1.112l2.009-1.157
	c0.232-0.134,0.375-0.381,0.375-0.649v-2.756c0-0.268-0.143-0.516-0.375-0.649l-2.01-1.161v-0.99c0-0.414-0.336-0.75-0.75-0.75
	s-0.75,0.336-0.75,0.75v0.99l-2.01,1.161c-0.232,0.134-0.375,0.382-0.375,0.649v2.756c0,0.269,0.143,0.516,0.375,0.649l2.009,1.157
	v1.112l-3.765-3.764c-0.293-0.293-0.768-0.293-1.061,0s-0.293,0.768,0,1.061l4.33,4.329c-1.778,0.303-3.343,1.234-4.45,2.565
	l-1.583-5.913c-0.107-0.399-0.52-0.636-0.918-0.53c-0.4,0.107-0.638,0.519-0.531,0.919l1.378,5.145l-0.963-0.557v-2.321
	c0-0.268-0.143-0.516-0.375-0.649l-2.383-1.376c-0.232-0.135-0.519-0.135-0.75,0l-2.01,1.161l-0.858-0.495
	c-0.358-0.207-0.817-0.084-1.024,0.274c-0.207,0.358-0.084,0.817,0.274,1.024l0.858,0.495l-0.001,2.319
	c0,0.269,0.143,0.517,0.375,0.65l2.385,1.377c0.116,0.067,0.246,0.101,0.375,0.101s0.259-0.033,0.375-0.101l2.01-1.16l0.961,0.554
	l-5.141,1.378c-0.4,0.107-0.637,0.519-0.53,0.919c0.09,0.335,0.393,0.556,0.724,0.556c0.064,0,0.129-0.008,0.195-0.025l5.916-1.586
	c-0.298,0.803-0.469,1.666-0.469,2.571c0,0.903,0.17,1.766,0.468,2.567l-5.915-1.584c-0.396-0.105-0.811,0.131-0.918,0.53
	c-0.107,0.4,0.13,0.812,0.531,0.919l5.145,1.377l-0.964,0.557l-2.012-1.16c-0.231-0.135-0.517-0.135-0.75,0l-2.383,1.376
	c-0.232,0.134-0.375,0.381-0.375,0.648l-0.001,2.323l-0.856,0.494c-0.359,0.207-0.481,0.666-0.274,1.024
	c0.139,0.24,0.391,0.375,0.65,0.375c0.127,0,0.256-0.032,0.375-0.101l0.858-0.495l2.009,1.161c0.116,0.067,0.246,0.101,0.375,0.101
	c0.13,0,0.259-0.033,0.375-0.101l2.385-1.38c0.232-0.135,0.375-0.382,0.375-0.649v-2.318l0.961-0.555l-1.375,5.141
	c-0.107,0.399,0.131,0.811,0.531,0.918c0.065,0.018,0.13,0.025,0.194,0.025c0.331,0,0.634-0.221,0.724-0.557l1.581-5.908
	c1.107,1.331,2.672,2.262,4.449,2.565l-4.328,4.328c-0.293,0.293-0.293,0.768,0,1.061s0.768,0.293,1.061,0l3.765-3.765v1.114
	l-2.009,1.157c-0.232,0.134-0.375,0.381-0.375,0.649v2.756c0,0.268,0.143,0.516,0.375,0.649l2.01,1.161v0.99
	c0,0.414,0.336,0.75,0.75,0.75s0.75-0.336,0.75-0.75v-0.99l2.01-1.161c0.232-0.134,0.375-0.382,0.375-0.649V71.34
	c0-0.269-0.143-0.516-0.375-0.649l-2.009-1.157v-1.114l3.765,3.766c0.146,0.146,0.338,0.22,0.53,0.22s0.384-0.073,0.53-0.22
	c0.293-0.293,0.293-0.768,0-1.061l-4.329-4.329c1.778-0.303,3.343-1.234,4.45-2.565l1.581,5.908c0.09,0.336,0.393,0.557,0.724,0.557
	c0.064,0,0.129-0.008,0.194-0.025c0.4-0.107,0.638-0.519,0.531-0.918l-1.375-5.141l0.962,0.556v2.317
	c0,0.268,0.143,0.515,0.375,0.649l2.385,1.38c0.116,0.067,0.246,0.101,0.375,0.101s0.259-0.033,0.375-0.101l2.007-1.161l0.858,0.495
	c0.118,0.068,0.247,0.101,0.375,0.101c0.259,0,0.511-0.135,0.65-0.375C5.421,68.214,5.298,67.755,4.939,67.548z M-0.688,51.946
	l1.634-0.943l0.886,0.512l0.75,0.433l0,0.866l0,1.021l-1.636,0.943l-0.884-0.511l-0.75-0.433V52.97V51.946z M-20.313,53.835
	l-0.75,0.433l-0.885,0.511l-1.634-0.943l0-1.021l0-0.866l0.75-0.433l0.886-0.512l1.633,0.942v1.023V53.835z M-20.312,67.051
	l-1.635,0.946l-0.885-0.512l-0.751-0.435l0-0.863l0-1.022l1.634-0.943l0.886,0.511l0.75,0.433v0.866V67.051z M-9.75,65.355
	c-0.246,0.031-0.495,0.053-0.75,0.053s-0.504-0.021-0.75-0.053c-1.604-0.205-3.006-1.054-3.943-2.28
	c-0.303-0.396-0.561-0.829-0.757-1.295c-0.295-0.702-0.458-1.473-0.458-2.28s0.164-1.578,0.458-2.28
	c0.196-0.466,0.454-0.898,0.757-1.295c0.937-1.227,2.339-2.075,3.943-2.28c0.246-0.031,0.495-0.053,0.75-0.053
	s0.504,0.021,0.75,0.053c1.604,0.205,3.006,1.054,3.943,2.28c0.303,0.396,0.561,0.829,0.757,1.295
	c0.295,0.702,0.458,1.473,0.458,2.28s-0.164,1.578-0.458,2.28c-0.196,0.466-0.454,0.898-0.757,1.295
	C-6.744,64.302-8.146,65.15-9.75,65.355z M-12.135,45.337l0.885-0.511l0.75-0.434l0.75,0.434l0.885,0.511v1.89l-0.885,0.51
	l-0.75,0.433l-0.75-0.433l-0.885-0.51V45.337z M-8.865,73.663l-0.885,0.511l-0.75,0.434l-0.75-0.434l-0.885-0.511v-1.89l0.885-0.51
	l0.75-0.433l0.75,0.433l0.885,0.51V73.663z M0.948,67.997l-1.635-0.946v-1.02v-0.867l0.749-0.432l0.886-0.512l1.635,0.943v1.023
	v0.863l-0.751,0.435L0.948,67.997z"/>
</svg>
