<?xml version="1.0" encoding="utf-8"?>
<!-- Generator: Adobe Illustrator 16.0.0, SVG Export Plug-In . SVG Version: 6.00 Build 0)  -->
<!DOCTYPE svg PUBLIC "-//W3C//DTD SVG 1.1//EN" "http://www.w3.org/Graphics/SVG/1.1/DTD/svg11.dtd">
<svg version="1.1" id="Layer_1" xmlns="http://www.w3.org/2000/svg" xmlns:xlink="http://www.w3.org/1999/xlink" x="0px" y="0px"
	 width="50px" height="50px" viewBox="-245.5 174.5 50 50" enable-background="new -245.5 174.5 50 50" xml:space="preserve">
<path style="fill:white" d="M-204.56,196.413L-204.56,196.413c-0.761,0.011-1.473,0.318-2.003,0.864c-0.399,0.411-0.659,0.921-0.758,1.473h-4.261
	l3.767-3.766c0.293-0.293,0.293-0.768,0-1.061s-0.768-0.293-1.061,0l-4.827,4.826h-0.083c-0.213-1.918-1.234-3.591-2.711-4.683
	l0.047-0.083l6.59-1.766c0.4-0.107,0.637-0.519,0.53-0.919c-0.107-0.4-0.518-0.639-0.919-0.53l-5.14,1.377l2.138-3.703
	c0.305,0.108,0.621,0.184,0.946,0.184c0.998,0,1.936-0.531,2.448-1.387c0.805-1.349,0.363-3.102-0.985-3.907
	c-0.442-0.264-0.946-0.403-1.458-0.403c-0.998,0-1.936,0.531-2.449,1.388c-0.634,1.063-0.485,2.368,0.26,3.271l-2.201,3.812
	l-1.378-5.145c-0.107-0.399-0.518-0.637-0.919-0.53c-0.4,0.107-0.637,0.519-0.53,0.919l1.767,6.593l-0.043,0.076
	c-0.83-0.365-1.744-0.57-2.707-0.57s-1.877,0.205-2.707,0.57l-0.043-0.075l1.767-6.591c0.107-0.4-0.13-0.812-0.53-0.919
	c-0.399-0.105-0.812,0.131-0.919,0.53l-1.378,5.142l-2.163-3.746c0.879-0.89,1.105-2.285,0.45-3.421
	c-0.508-0.879-1.454-1.425-2.469-1.425c-0.498,0-0.99,0.133-1.422,0.383c-0.659,0.379-1.13,0.993-1.328,1.729
	c-0.197,0.736-0.096,1.504,0.284,2.162c0.508,0.879,1.455,1.425,2.47,1.425c0.244,0,0.485-0.033,0.72-0.095l2.158,3.737
	l-5.141-1.377c-0.398-0.106-0.811,0.131-0.918,0.53c-0.107,0.4,0.13,0.812,0.531,0.919l6.59,1.766l0.047,0.081
	c-1.478,1.092-2.498,2.765-2.711,4.683h-0.085l-4.826-4.826c-0.293-0.293-0.768-0.293-1.061,0s-0.293,0.768,0,1.061l3.766,3.766
	h-4.403c-0.408-1.081-1.453-1.859-2.701-1.859h0c-1.569,0.023-2.828,1.32-2.805,2.892c0.023,1.547,1.302,2.806,2.849,2.806h0.042
	c1.381-0.021,2.519-1.027,2.758-2.338h4.259l-3.764,3.763c-0.293,0.293-0.293,0.768,0,1.061c0.146,0.146,0.338,0.22,0.53,0.22
	s0.384-0.073,0.53-0.22l4.824-4.823h0.087c0.213,1.918,1.234,3.592,2.712,4.683l-0.044,0.077l-6.595,1.769
	c-0.4,0.107-0.637,0.519-0.53,0.919c0.107,0.4,0.521,0.639,0.919,0.53l5.145-1.38l-2.133,3.696c-1.234-0.42-2.724,0.08-3.402,1.217
	c-0.806,1.347-0.364,3.099,0.984,3.906c0.442,0.264,0.946,0.403,1.458,0.403c0.998,0,1.935-0.531,2.448-1.387
	c0.39-0.654,0.502-1.421,0.316-2.159c-0.105-0.418-0.308-0.792-0.575-1.113l2.199-3.81l1.378,5.139
	c0.09,0.335,0.393,0.556,0.724,0.556c0.064,0,0.13-0.008,0.195-0.025c0.4-0.107,0.637-0.519,0.53-0.919l-1.766-6.587l0.044-0.076
	c0.829,0.364,1.744,0.569,2.706,0.569s1.877-0.205,2.706-0.569l0.043,0.074l-1.766,6.59c-0.107,0.4,0.13,0.812,0.53,0.919
	c0.065,0.018,0.13,0.025,0.195,0.025c0.331,0,0.634-0.221,0.724-0.556l1.378-5.142l2.163,3.748
	c-0.344,0.347-0.604,0.771-0.733,1.258c-0.197,0.735-0.096,1.503,0.284,2.162c0.507,0.879,1.454,1.424,2.469,1.424
	c0.498,0,0.99-0.132,1.422-0.382c0.659-0.38,1.13-0.994,1.327-1.729c0.198-0.735,0.097-1.503-0.284-2.162
	c-0.507-0.879-1.453-1.425-2.469-1.425c-0.245,0-0.487,0.034-0.722,0.096l-2.159-3.739l5.143,1.379
	c0.399,0.108,0.812-0.13,0.919-0.53c0.107-0.4-0.13-0.812-0.53-0.919l-6.593-1.768l-0.045-0.079
	c1.478-1.091,2.499-2.765,2.712-4.683h0.086l4.822,4.824c0.146,0.146,0.338,0.22,0.53,0.22s0.384-0.073,0.53-0.22
	c0.293-0.293,0.293-0.768,0-1.061l-3.761-3.764h4.401c0.407,1.08,1.445,1.859,2.659,1.859h0.043
	c1.571-0.023,2.829-1.321,2.805-2.892C-201.693,197.672-202.969,196.413-204.56,196.413z M-213.46,185.087
	c0.174-0.291,0.445-0.493,0.757-0.59c0.129-0.04,0.264-0.067,0.405-0.067c0.242,0,0.48,0.065,0.688,0.19
	c0.15,0.09,0.271,0.208,0.372,0.339c0.327,0.426,0.386,1.023,0.095,1.512c-0.275,0.46-0.818,0.698-1.336,0.637
	c-0.179-0.021-0.354-0.075-0.515-0.172c-0.331-0.197-0.54-0.516-0.617-0.866C-213.684,185.745-213.644,185.395-213.46,185.087z
	 M-229.66,186.331c-0.18-0.312-0.228-0.675-0.134-1.023c0.021-0.08,0.072-0.145,0.107-0.219c0.116-0.244,0.281-0.462,0.521-0.6
	c0.205-0.119,0.438-0.182,0.672-0.182c0.032,0,0.063,0.011,0.095,0.013c0.444,0.032,0.852,0.274,1.075,0.662
	c0.23,0.399,0.211,0.858,0.026,1.246c-0.113,0.238-0.274,0.455-0.519,0.597c-0.242,0.14-0.518,0.167-0.788,0.14
	C-229.03,186.923-229.44,186.711-229.66,186.331z M-237.724,200.25c-0.063-0.152-0.104-0.316-0.107-0.49
	c-0.006-0.4,0.167-0.759,0.443-1.01c0.238-0.217,0.552-0.354,0.905-0.359c0.347,0,0.66,0.141,0.9,0.359
	c0.267,0.243,0.443,0.583,0.448,0.969c0.002,0.188-0.034,0.367-0.101,0.531c-0.199,0.484-0.672,0.83-1.227,0.838l-0.02,0.747v-0.747
	C-237.041,201.088-237.521,200.739-237.724,200.25z M-227.54,213.913c-0.174,0.291-0.444,0.493-0.756,0.59
	c-0.129,0.04-0.264,0.067-0.405,0.067c-0.242,0-0.48-0.065-0.688-0.19c-0.15-0.09-0.271-0.208-0.372-0.339
	c-0.328-0.427-0.387-1.022-0.095-1.511c0.247-0.412,0.68-0.658,1.161-0.658c0.059,0,0.115,0.016,0.173,0.023
	c0.181,0.024,0.357,0.073,0.516,0.169c0.309,0.184,0.527,0.478,0.616,0.827c0.003,0.014-0.001,0.026,0.002,0.04
	C-227.313,213.269-227.362,213.616-227.54,213.913z M-212.415,212.006c0.444,0.032,0.85,0.274,1.074,0.662
	c0.18,0.312,0.228,0.676,0.134,1.023c-0.021,0.081-0.073,0.146-0.108,0.221c-0.116,0.244-0.281,0.461-0.52,0.599
	c-0.242,0.139-0.517,0.165-0.786,0.139c-0.427-0.041-0.837-0.252-1.057-0.632c-0.18-0.312-0.228-0.676-0.135-1.024
	c0.021-0.081,0.073-0.146,0.108-0.22c0.116-0.244,0.281-0.461,0.521-0.599c0.205-0.119,0.438-0.182,0.672-0.182
	C-212.478,211.993-212.447,212.004-212.415,212.006z M-211.802,215.316L-211.802,215.316c0.128,0,0.256-0.032,0.375-0.101
	C-211.545,215.284-211.674,215.316-211.802,215.316z M-215.242,199.5c0,0.257-0.04,0.503-0.076,0.75
	c-0.197,1.361-0.911,2.545-1.944,3.36c-0.393,0.311-0.82,0.575-1.291,0.764c-0.604,0.242-1.259,0.384-1.948,0.384
	s-1.344-0.142-1.948-0.384c-0.471-0.188-0.898-0.453-1.291-0.764c-1.033-0.815-1.747-1.999-1.944-3.36
	c-0.036-0.247-0.076-0.493-0.076-0.75s0.04-0.503,0.076-0.75c0.197-1.361,0.911-2.545,1.943-3.36
	c0.393-0.31,0.819-0.574,1.291-0.764c0.604-0.242,1.259-0.384,1.948-0.384s1.345,0.142,1.948,0.384
	c0.472,0.189,0.898,0.454,1.291,0.764c1.033,0.816,1.746,1.999,1.943,3.36C-215.282,198.997-215.242,199.243-215.242,199.5z
	 M-205.417,200.25c-0.267-0.243-0.443-0.584-0.449-0.97c-0.003-0.186,0.035-0.364,0.103-0.53c0.064-0.156,0.156-0.303,0.277-0.428
	c0.251-0.259,0.588-0.404,0.971-0.409c0.557,0,1.036,0.348,1.239,0.837c0.063,0.152,0.104,0.317,0.107,0.491
	c0.006,0.399-0.167,0.758-0.44,1.009c-0.235,0.217-0.544,0.354-0.888,0.359l-0.021,0.747v-0.747
	C-204.865,200.609-205.178,200.469-205.417,200.25z"/>
</svg>
