<?xml version="1.0" encoding="utf-8"?>
<!-- Generator: Adobe Illustrator 16.0.0, SVG Export Plug-In . SVG Version: 6.00 Build 0)  -->
<!DOCTYPE svg PUBLIC "-//W3C//DTD SVG 1.1//EN" "http://www.w3.org/Graphics/SVG/1.1/DTD/svg11.dtd">
<svg version="1.1" id="Layer_1" xmlns="http://www.w3.org/2000/svg" xmlns:xlink="http://www.w3.org/1999/xlink" x="0px" y="0px"
	 width="50px" height="50px" viewBox="244.5 174.5 50 50" enable-background="new 244.5 174.5 50 50" xml:space="preserve">
<path style="fill:white" d="M283.836,197.411c-0.195-0.195-0.512-0.195-0.707,0s-0.195,0.512,0,0.707l0.731,0.731h-1.841l-2.076-2.075
	c-0.195-0.195-0.512-0.195-0.707,0s-0.195,0.512,0,0.707l1.369,1.368h-2.027l-3.936-3.936l5.817-5.817
	c0.195-0.195,0.195-0.512,0-0.707s-0.512-0.195-0.707,0l-5.817,5.817l-3.937-3.937v-2.025l1.52,1.52
	c0.195,0.195,0.512,0.195,0.707,0s0.195-0.512,0-0.707l-2.227-2.227v-1.841l0.882,0.882c0.098,0.098,0.226,0.146,0.354,0.146
	s0.256-0.049,0.354-0.146c0.195-0.195,0.195-0.512,0-0.707l-2.089-2.089l-2.088,2.089c-0.195,0.195-0.195,0.512,0,0.707
	s0.512,0.195,0.707,0l0.881-0.882v1.842l-2.224,2.226c-0.195,0.195-0.195,0.512,0,0.707c0.098,0.098,0.226,0.146,0.354,0.146
	s0.256-0.049,0.354-0.146l1.517-1.519v2.024l-3.936,3.936l-5.816-5.816c-0.195-0.195-0.512-0.195-0.707,0s-0.195,0.512,0,0.707
	l5.816,5.816l-3.937,3.937h-2.023l1.368-1.368c0.195-0.195,0.195-0.512,0-0.707s-0.512-0.195-0.707,0l-2.075,2.075h-1.841l0.73-0.73
	c0.195-0.195,0.195-0.512,0-0.707s-0.512-0.195-0.707,0l-2.089,2.089l2.089,2.088c0.098,0.098,0.226,0.146,0.354,0.146
	s0.256-0.049,0.354-0.146c0.195-0.195,0.195-0.512,0-0.707l-1.033-1.032h1.841l2.378,2.376c0.098,0.098,0.226,0.146,0.354,0.146
	s0.256-0.049,0.354-0.146c0.195-0.195,0.195-0.512,0-0.707l-1.671-1.669h2.326l3.937,3.937l-5.816,5.816
	c-0.195,0.195-0.195,0.512,0,0.707c0.098,0.098,0.226,0.146,0.354,0.146s0.256-0.049,0.354-0.146l5.816-5.816l3.936,3.936v2.324
	l-1.517-1.517c-0.195-0.195-0.512-0.195-0.707,0s-0.195,0.512,0,0.707l2.224,2.224v1.841l-0.88-0.879
	c-0.195-0.195-0.512-0.195-0.707,0s-0.195,0.512,0,0.707l2.09,2.088l2.088-2.088c0.195-0.195,0.195-0.512,0-0.707
	s-0.512-0.195-0.707,0l-0.884,0.884v-1.841l2.227-2.229c0.195-0.195,0.195-0.512,0-0.707s-0.512-0.195-0.707,0l-1.52,1.521v-2.329
	l3.937-3.937l5.817,5.817c0.098,0.098,0.226,0.146,0.354,0.146s0.256-0.049,0.354-0.146c0.195-0.195,0.195-0.512,0-0.707
	l-5.817-5.817l3.936-3.936h2.327l-1.669,1.669c-0.195,0.195-0.195,0.512,0,0.707c0.098,0.098,0.226,0.146,0.354,0.146
	s0.256-0.049,0.354-0.146l2.376-2.376h1.84l-1.03,1.031c-0.195,0.195-0.195,0.512,0,0.707c0.098,0.098,0.226,0.146,0.354,0.146
	s0.256-0.049,0.354-0.146l2.088-2.089L283.836,197.411z M277.164,198.85h-6.457l3.229-3.229L277.164,198.85z M273.229,194.914
	l-3.229,3.229v-6.459L273.229,194.914z M268.999,191.685v6.457l-3.229-3.229L268.999,191.685z M265.063,195.62l3.229,3.229h-6.459
	L265.063,195.62z M261.834,199.85h6.459l-3.229,3.229L261.834,199.85z M265.771,203.786l3.229-3.229v6.457L265.771,203.786z
	 M269.999,207.015v-6.459l3.229,3.229L269.999,207.015z M273.936,203.078l-3.229-3.229h6.457L273.936,203.078z"/>
</svg>
