<?xml version="1.0" encoding="utf-8"?>
<!-- Generator: Adobe Illustrator 16.0.0, SVG Export Plug-In . SVG Version: 6.00 Build 0)  -->
<!DOCTYPE svg PUBLIC "-//W3C//DTD SVG 1.1//EN" "http://www.w3.org/Graphics/SVG/1.1/DTD/svg11.dtd">
<svg version="1.1" id="Layer_1" xmlns="http://www.w3.org/2000/svg" xmlns:xlink="http://www.w3.org/1999/xlink" x="0px" y="0px"
	 width="50px" height="50px" viewBox="34.5 -175.5 50 50" enable-background="new 34.5 -175.5 50 50" xml:space="preserve">
<path style="fill:white" d="M74.814-142.236l-2.621-1.514l1.752-1.012c0.239-0.138,0.321-0.444,0.183-0.683c-0.138-0.24-0.444-0.322-0.683-0.183
	l-2.252,1.301l-2.401-1.386l4.714-2.721c0.239-0.138,0.321-0.444,0.183-0.683c-0.138-0.239-0.444-0.321-0.683-0.183l-5.214,3.01
	l-2.177-1.256v-5.906l1.875-1.082l5.518,3.185c0.079,0.045,0.165,0.067,0.25,0.067c0.172,0,0.341-0.09,0.433-0.25
	c0.139-0.239,0.057-0.545-0.183-0.683l-5.019-2.896l2.401-1.386l2.555,1.476c0.079,0.045,0.165,0.067,0.25,0.067
	c0.172,0,0.34-0.089,0.433-0.25c0.139-0.239,0.057-0.545-0.183-0.683l-2.055-1.187l2.924-1.688c0.239-0.138,0.321-0.444,0.183-0.683
	c-0.137-0.241-0.443-0.321-0.683-0.183l-2.771,1.6v-2.021c0-0.276-0.224-0.5-0.5-0.5s-0.5,0.224-0.5,0.5v2.599l-2.4,1.386v-5.44
	c0-0.276-0.224-0.5-0.5-0.5s-0.5,0.224-0.5,0.5v6.018l-2.028,1.171L60-157.271v-2.162l5.367-3.099
	c0.239-0.138,0.321-0.444,0.183-0.683c-0.138-0.24-0.444-0.321-0.683-0.183L60-160.588v-2.773l2.406-1.389
	c0.239-0.138,0.321-0.444,0.183-0.683c-0.138-0.24-0.444-0.32-0.683-0.183L60-164.515v-3.381c0-0.276-0.224-0.5-0.5-0.5
	s-0.5,0.224-0.5,0.5v3.377l-1.898-1.097c-0.239-0.137-0.545-0.057-0.683,0.183c-0.139,0.239-0.057,0.545,0.183,0.683L59-163.365
	v2.773l-4.861-2.807c-0.238-0.136-0.545-0.056-0.683,0.183c-0.139,0.239-0.057,0.545,0.183,0.683L59-159.438v2.167l-5.113,2.953
	l-2.023-1.168l-0.002-6.021c0-0.276-0.224-0.5-0.5-0.5s-0.5,0.224-0.5,0.5l0.002,5.443l-2.402-1.387v-2.601
	c0-0.276-0.224-0.5-0.5-0.5s-0.5,0.224-0.5,0.5v2.024l-2.775-1.603c-0.238-0.136-0.545-0.056-0.683,0.183
	c-0.139,0.239-0.057,0.545,0.183,0.683l2.926,1.689l-2.053,1.186c-0.239,0.138-0.321,0.444-0.183,0.683
	c0.093,0.161,0.261,0.25,0.433,0.25c0.085,0,0.171-0.021,0.25-0.067l2.553-1.475l2.402,1.387l-5.016,2.895
	c-0.239,0.138-0.321,0.444-0.183,0.683c0.092,0.16,0.261,0.25,0.433,0.25c0.085,0,0.171-0.021,0.25-0.067l5.515-3.184l1.874,1.082
	v5.904l-2.177,1.256L46-149.3c-0.238-0.137-0.546-0.057-0.683,0.183c-0.139,0.239-0.057,0.545,0.183,0.683l4.711,2.72l-2.401,1.386
	l-2.251-1.299c-0.238-0.137-0.545-0.056-0.683,0.183c-0.139,0.239-0.057,0.545,0.183,0.683l1.751,1.01l-2.624,1.515
	c-0.239,0.138-0.321,0.444-0.183,0.683c0.092,0.161,0.261,0.25,0.433,0.25c0.085,0,0.171-0.021,0.25-0.067l2.777-1.604v2.375
	c0,0.276,0.224,0.5,0.5,0.5s0.5-0.224,0.5-0.5v-2.952l2.4-1.386v5.793c0,0.276,0.224,0.5,0.5,0.5s0.5-0.224,0.5-0.5v-6.371
	l2.023-1.168L59-143.729v2.515l-5.361,3.095c-0.239,0.138-0.321,0.444-0.183,0.683c0.092,0.161,0.261,0.25,0.433,0.25
	c0.085,0,0.171-0.021,0.25-0.067L59-140.059v2.773l-2.398,1.385c-0.239,0.138-0.321,0.444-0.183,0.683
	c0.137,0.24,0.442,0.319,0.683,0.183L59-136.132v3.028c0,0.276,0.224,0.5,0.5,0.5s0.5-0.224,0.5-0.5v-3.033l1.906,1.101
	c0.079,0.045,0.165,0.067,0.25,0.067c0.172,0,0.341-0.089,0.433-0.25c0.139-0.239,0.057-0.545-0.183-0.683L60-137.291v-2.773
	l4.867,2.811c0.239,0.138,0.546,0.057,0.683-0.183c0.139-0.239,0.057-0.545-0.183-0.683L60-141.218v-2.511l5.114-2.953l2.026,1.17
	v6.368c0,0.276,0.224,0.5,0.5,0.5s0.5-0.224,0.5-0.5v-5.791l2.402,1.387v2.948c0,0.276,0.224,0.5,0.5,0.5s0.5-0.224,0.5-0.5v-2.371
	l2.771,1.6c0.079,0.045,0.165,0.067,0.25,0.067c0.172,0,0.341-0.09,0.433-0.25C75.136-141.792,75.054-142.098,74.814-142.236z
	 M60-144.883l-0.5,0.289l-0.5-0.289l-4.113-2.376l-0.5-0.289v-0.578v-4.749v-0.578l0.5-0.289L59-156.117l0.5-0.289l0.5,0.289
	l4.114,2.375l0.501,0.289v0.577v4.752v0.577l-0.501,0.289L60-144.883z"/>
</svg>
