<?xml version="1.0" encoding="utf-8"?>
<!-- Generator: Adobe Illustrator 16.0.0, SVG Export Plug-In . SVG Version: 6.00 Build 0)  -->
<!DOCTYPE svg PUBLIC "-//W3C//DTD SVG 1.1//EN" "http://www.w3.org/Graphics/SVG/1.1/DTD/svg11.dtd">
<svg version="1.1" id="Layer_1" xmlns="http://www.w3.org/2000/svg" xmlns:xlink="http://www.w3.org/1999/xlink" x="0px" y="0px"
	 width="50px" height="50px" viewBox="-175.5 -245.5 50 50" enable-background="new -175.5 -245.5 50 50" xml:space="preserve">
<path style="fill:white" d="M-135.5-221.25h-3.289l1.799-1.799c0.293-0.292,0.293-0.768,0-1.061s-0.768-0.293-1.061,0l-2.86,2.859h-1.909l-6.931-6.931
	v-1.909l2.86-2.86c0.293-0.293,0.293-0.768,0-1.061s-0.768-0.293-1.061,0l-1.8,1.8v-3.289c0-0.414-0.336-0.75-0.75-0.75
	s-0.75,0.336-0.75,0.75v3.289l-1.799-1.799c-0.293-0.293-0.768-0.293-1.061,0c-0.293,0.292-0.293,0.768,0,1.061l2.859,2.86v1.911
	l-6.928,6.929h-1.912l-2.86-2.86c-0.293-0.293-0.768-0.293-1.061,0s-0.293,0.768,0,1.061l1.8,1.8h-3.289
	c-0.414,0-0.75,0.336-0.75,0.75s0.336,0.75,0.75,0.75h3.289l-1.799,1.799c-0.293,0.292-0.293,0.768,0,1.061
	c0.146,0.146,0.338,0.22,0.53,0.22s0.384-0.073,0.53-0.22l2.86-2.859h1.911l6.929,6.93v1.91l-2.86,2.86
	c-0.293,0.293-0.293,0.768,0,1.061s0.768,0.293,1.061,0l1.8-1.8v3.289c0,0.414,0.336,0.75,0.75,0.75s0.75-0.336,0.75-0.75v-3.289
	l1.799,1.799c0.146,0.146,0.338,0.22,0.53,0.22s0.384-0.073,0.53-0.22c0.293-0.292,0.293-0.768,0-1.061l-2.859-2.86v-1.91l6.93-6.93
	h1.91l2.86,2.86c0.146,0.146,0.338,0.22,0.53,0.22s0.384-0.073,0.53-0.22c0.293-0.293,0.293-0.768,0-1.061l-1.8-1.8h3.289
	c0.414,0,0.75-0.336,0.75-0.75S-135.086-221.25-135.5-221.25z M-144.19-220.5l-0.75,0.75l-4.809,4.809l-0.75,0.75l-0.75-0.75
	l-4.808-4.809l-0.75-0.75l0.75-0.75l4.807-4.808l0.751-0.751l0.749,0.749l4.81,4.81L-144.19-220.5z M-145.289-224.961h-0.75v-0.75
	v-5.228c0-0.414,0.336-0.75,0.75-0.75s0.75,0.336,0.75,0.75v3.417l3.614-3.614c0.293-0.293,0.768-0.293,1.061,0s0.293,0.768,0,1.061
	l-3.614,3.614h3.418c0.414,0,0.75,0.336,0.75,0.75s-0.336,0.75-0.75,0.75H-145.289z M-161.688-225.711c0-0.414,0.336-0.75,0.75-0.75
	h3.418l-3.614-3.614c-0.293-0.293-0.293-0.768,0-1.061s0.768-0.293,1.061,0l3.614,3.614v-3.417c0-0.414,0.336-0.75,0.75-0.75
	s0.75,0.336,0.75,0.75v5.228v0.75h-0.75h-5.229C-161.353-224.961-161.688-225.297-161.688-225.711z M-155.71-216.03h0.75v0.75v5.228
	c0,0.414-0.336,0.75-0.75,0.75s-0.75-0.336-0.75-0.75v-3.417l-3.614,3.614c-0.146,0.146-0.338,0.22-0.53,0.22
	s-0.384-0.073-0.53-0.22c-0.293-0.293-0.293-0.768,0-1.061l3.614-3.614h-3.418c-0.414,0-0.75-0.336-0.75-0.75s0.336-0.75,0.75-0.75
	H-155.71z M-139.311-215.28c0,0.414-0.336,0.75-0.75,0.75h-3.418l3.614,3.614c0.293,0.293,0.293,0.768,0,1.061
	c-0.146,0.146-0.338,0.22-0.53,0.22s-0.384-0.073-0.53-0.22l-3.614-3.614v3.417c0,0.414-0.336,0.75-0.75,0.75s-0.75-0.336-0.75-0.75
	v-5.228v-0.75h0.75h5.229C-139.646-216.03-139.311-215.694-139.311-215.28z"/>
</svg>
