<?xml version="1.0" encoding="utf-8"?>
<!-- Generator: Adobe Illustrator 16.0.0, SVG Export Plug-In . SVG Version: 6.00 Build 0)  -->
<!DOCTYPE svg PUBLIC "-//W3C//DTD SVG 1.1//EN" "http://www.w3.org/Graphics/SVG/1.1/DTD/svg11.dtd">
<svg version="1.1" id="Layer_1" xmlns="http://www.w3.org/2000/svg" xmlns:xlink="http://www.w3.org/1999/xlink" x="0px" y="0px"
	 width="50px" height="50px" viewBox="104.5 -175.5 50 50" enable-background="new 104.5 -175.5 50 50" xml:space="preserve">
<path style="fill:white" d="M145.96-143.426c-0.189-0.668-0.628-1.222-1.234-1.559c-1.126-0.629-2.612-0.258-3.361,0.757l-1.458-0.842l1.412-0.815
	c0.239-0.138,0.321-0.444,0.183-0.683c-0.138-0.241-0.444-0.321-0.683-0.183l-1.912,1.104l-1.771-1.023l3.825-2.208
	c0.239-0.138,0.321-0.444,0.183-0.683c-0.137-0.24-0.443-0.321-0.683-0.183l-4.325,2.498l-0.521-0.301v-5.904l0.521-0.3l4.327,2.498
	c0.079,0.045,0.165,0.067,0.25,0.067c0.172,0,0.341-0.09,0.433-0.25c0.139-0.239,0.057-0.545-0.183-0.683l-3.827-2.209l1.772-1.023
	l1.912,1.104c0.079,0.045,0.165,0.067,0.25,0.067c0.172,0,0.341-0.089,0.433-0.25c0.139-0.239,0.057-0.545-0.183-0.683l-1.412-0.815
	l1.465-0.846c0.486,0.67,1.252,1.092,2.092,1.092c0.439,0,0.876-0.114,1.264-0.329c1.251-0.699,1.701-2.285,1.003-3.536
	c-0.674-1.206-2.318-1.682-3.536-1.004c-1.037,0.58-1.512,1.768-1.25,2.87l-1.537,0.887v-1.631c0-0.276-0.224-0.5-0.5-0.5
	s-0.5,0.224-0.5,0.5v2.208l-1.771,1.022v-4.417c0-0.276-0.224-0.5-0.5-0.5s-0.5,0.224-0.5,0.5v4.995l-0.521,0.301L130-157.271v-0.6
	l4.327-2.498c0.239-0.138,0.321-0.444,0.183-0.683c-0.138-0.24-0.444-0.322-0.683-0.183l-3.827,2.21v-2.046l1.913-1.105
	c0.239-0.138,0.321-0.444,0.183-0.683c-0.14-0.24-0.448-0.321-0.683-0.183L130-162.227v-1.709c1.195-0.234,2.1-1.286,2.1-2.548
	c0-1.433-1.166-2.599-2.6-2.599c-1.433,0-2.598,1.166-2.598,2.599c0,1.262,0.904,2.314,2.098,2.548v1.707l-1.41-0.814
	c-0.239-0.136-0.543-0.056-0.683,0.183c-0.139,0.239-0.057,0.545,0.183,0.683l1.91,1.104v2.046l-3.824-2.208
	c-0.238-0.137-0.545-0.056-0.683,0.183c-0.139,0.239-0.057,0.545,0.183,0.683l4.324,2.496v0.602l-5.114,2.953l-0.52-0.3
	l-0.001-4.995c0-0.276-0.224-0.5-0.5-0.5s-0.5,0.224-0.5,0.5l0.001,4.417l-1.773-1.023v-2.208c0-0.276-0.224-0.5-0.5-0.5
	s-0.5,0.224-0.5,0.5v1.63l-1.535-0.886c0.103-0.428,0.105-0.875-0.019-1.31c-0.189-0.668-0.628-1.222-1.235-1.561
	c-1.214-0.676-2.864-0.201-3.533,1.005c-0.698,1.251-0.248,2.837,1.004,3.536c0.386,0.215,0.822,0.329,1.262,0.329
	c0.841,0,1.606-0.421,2.093-1.092l1.465,0.846l-1.412,0.816c-0.239,0.138-0.321,0.444-0.183,0.683
	c0.093,0.161,0.261,0.25,0.433,0.25c0.085,0,0.171-0.021,0.25-0.067l1.912-1.104l1.773,1.023l-3.827,2.209
	c-0.239,0.138-0.321,0.444-0.183,0.683c0.092,0.161,0.261,0.25,0.433,0.25c0.085,0,0.171-0.021,0.25-0.067l4.327-2.498l0.518,0.299
	v5.906l-0.52,0.3l-4.324-2.498c-0.238-0.137-0.545-0.056-0.683,0.183c-0.139,0.239-0.057,0.545,0.183,0.683l3.824,2.208
	l-1.771,1.023l-1.912-1.104c-0.237-0.137-0.545-0.056-0.683,0.183c-0.139,0.239-0.057,0.545,0.183,0.683l1.412,0.815l-1.465,0.846
	c-0.485-0.67-1.251-1.091-2.091-1.091c-0.441,0-0.878,0.114-1.264,0.329c-0.606,0.338-1.045,0.892-1.234,1.56
	c-0.189,0.667-0.107,1.369,0.23,1.975c0.457,0.823,1.327,1.333,2.271,1.333c0.439,0,0.876-0.113,1.262-0.328
	c0.607-0.338,1.046-0.893,1.236-1.561c0.123-0.435,0.12-0.882,0.018-1.31l1.537-0.888v1.632c0,0.276,0.224,0.5,0.5,0.5
	s0.5-0.224,0.5-0.5v-2.209l1.771-1.022v4.418c0,0.276,0.224,0.5,0.5,0.5s0.5-0.224,0.5-0.5v-4.996l0.52-0.3l5.114,2.953v0.602
	l-4.324,2.496c-0.239,0.138-0.321,0.444-0.183,0.683c0.092,0.161,0.26,0.25,0.433,0.25c0.085,0,0.171-0.021,0.25-0.067l3.824-2.208
	v2.046l-1.91,1.104c-0.239,0.138-0.321,0.444-0.183,0.683c0.139,0.239,0.442,0.32,0.683,0.183l1.41-0.814v1.707
	c-1.194,0.233-2.1,1.286-2.1,2.549c0,1.433,1.165,2.599,2.598,2.599c1.434,0,2.6-1.166,2.6-2.599c0-1.261-0.903-2.313-2.098-2.548
	v-1.709l1.413,0.816c0.078,0.045,0.165,0.067,0.25,0.067c0.172,0,0.34-0.089,0.433-0.25c0.139-0.239,0.057-0.545-0.183-0.683
	L130-139.929v-2.046l3.827,2.21c0.24,0.138,0.546,0.058,0.683-0.183c0.139-0.239,0.057-0.545-0.183-0.683L130-143.129v-0.6
	l5.113-2.953l0.521,0.3v4.996c0,0.276,0.224,0.5,0.5,0.5s0.5-0.224,0.5-0.5v-4.418l1.772,1.023v2.209c0,0.276,0.224,0.5,0.5,0.5
	s0.5-0.224,0.5-0.5v-1.631l1.536,0.887c-0.103,0.428-0.105,0.875,0.018,1.31c0.189,0.668,0.628,1.223,1.234,1.561
	c0.387,0.215,0.823,0.328,1.263,0.328c0.943,0,1.813-0.511,2.272-1.333C146.067-142.057,146.149-142.758,145.96-143.426z
	 M143.457-159.883c0.31,0,0.603,0.094,0.854,0.254c0.222,0.14,0.413,0.33,0.545,0.566c0.034,0.062,0.057,0.125,0.082,0.189
	c0.292,0.734,0.009,1.59-0.699,1.986c-0.238,0.132-0.507,0.203-0.776,0.203c-0.483,0-0.927-0.226-1.228-0.591
	c-0.061-0.074-0.124-0.145-0.172-0.23c-0.126-0.227-0.185-0.47-0.194-0.713c-0.022-0.583,0.269-1.159,0.812-1.462
	C142.919-159.813,143.188-159.883,143.457-159.883z M116.937-157.505c-0.047,0.084-0.104,0.161-0.166,0.234
	c-0.478,0.563-1.349,0.753-2.009,0.385c-0.709-0.396-0.992-1.252-0.7-1.987c0.025-0.063,0.048-0.128,0.082-0.189
	c0.132-0.237,0.322-0.426,0.544-0.566c0.252-0.159,0.545-0.253,0.854-0.253c0.27,0,0.538,0.07,0.775,0.202
	c0.373,0.208,0.644,0.55,0.761,0.961c0.047,0.166,0.06,0.334,0.053,0.501C117.121-157.971,117.061-157.728,116.937-157.505z
	 M116.317-141.319c-0.237,0.132-0.506,0.202-0.775,0.202c-0.31,0-0.603-0.094-0.854-0.253c-0.222-0.14-0.412-0.33-0.544-0.567
	c-0.034-0.061-0.057-0.125-0.082-0.188c-0.131-0.326-0.157-0.683-0.06-1.027c0.117-0.411,0.387-0.751,0.76-0.959
	c0.237-0.133,0.506-0.203,0.776-0.203c0.482,0,0.925,0.226,1.226,0.59c0.062,0.074,0.125,0.145,0.173,0.23
	c0.124,0.222,0.185,0.466,0.194,0.713c0.007,0.167-0.006,0.335-0.053,0.501C116.961-141.868,116.69-141.527,116.317-141.319z
	 M130-144.883l-0.5,0.289l-0.5-0.289l-4.114-2.375l-0.501-0.289v-0.577v-4.752v-0.577l0.501-0.289l4.114-2.375l0.5-0.289l0.5,0.289
	l4.113,2.376l0.5,0.289v0.578v4.749v0.578l-0.5,0.289L130-144.883z M129.021-168.001c0.151-0.048,0.311-0.082,0.479-0.082
	s0.327,0.033,0.479,0.082c0.647,0.205,1.121,0.804,1.121,1.517c0,0.706-0.463,1.3-1.1,1.511c-0.158,0.053-0.324,0.088-0.5,0.088
	s-0.342-0.036-0.5-0.088c-0.635-0.212-1.098-0.805-1.098-1.511C127.902-167.197,128.375-167.796,129.021-168.001z M129.979-133
	c-0.152,0.048-0.312,0.082-0.48,0.082c-0.167,0-0.325-0.033-0.477-0.081c-0.647-0.204-1.121-0.804-1.121-1.518
	c0-0.707,0.464-1.301,1.1-1.512c0.158-0.052,0.323-0.087,0.498-0.087c0.177,0,0.343,0.036,0.502,0.088
	c0.635,0.212,1.098,0.805,1.098,1.511C131.098-133.803,130.625-133.205,129.979-133z M142.681-141.319
	c-0.372-0.208-0.642-0.549-0.759-0.96c-0.047-0.166-0.06-0.335-0.053-0.502c0.01-0.248,0.07-0.491,0.194-0.713
	c0.048-0.085,0.111-0.156,0.173-0.23c0.301-0.364,0.743-0.59,1.226-0.59c0.27,0,0.539,0.07,0.777,0.203
	c0.372,0.208,0.642,0.548,0.759,0.958c0.098,0.344,0.071,0.701-0.06,1.027c-0.025,0.063-0.048,0.128-0.082,0.188
	c-0.132,0.237-0.33,0.423-0.557,0.56C143.818-141.087,143.191-141.036,142.681-141.319z"/>
</svg>
