<?xml version="1.0" encoding="utf-8"?>
<!-- Generator: Adobe Illustrator 16.0.0, SVG Export Plug-In . SVG Version: 6.00 Build 0)  -->
<!DOCTYPE svg PUBLIC "-//W3C//DTD SVG 1.1//EN" "http://www.w3.org/Graphics/SVG/1.1/DTD/svg11.dtd">
<svg version="1.1" id="Layer_1" xmlns="http://www.w3.org/2000/svg" xmlns:xlink="http://www.w3.org/1999/xlink" x="0px" y="0px"
	 width="50px" height="50px" viewBox="244.5 244.5 50 50" enable-background="new 244.5 244.5 50 50" xml:space="preserve">
<path style="fill:white" d="M274.258,255.629l-3.758,3.758V254.5h1v2.473l2.051-2.051L274.258,255.629z M272.707,264.335l0.337,0.209l6.358-6.36
	l-0.707-0.707l-5.806,5.808c-0.442-0.242-0.907-0.435-1.39-0.576v-0.079l4.879-4.879l-0.707-0.707l-5.172,5.172v1.276l0.387,0.09
	C271.53,263.73,272.143,263.984,272.707,264.335z M274.667,266.296c0.352,0.562,0.604,1.175,0.754,1.817l0.09,0.387h0.987
	l4.965-4.966l-0.707-0.707l-4.512,4.513c-0.136-0.425-0.312-0.835-0.526-1.228l5.806-5.808l-0.707-0.707l-6.359,6.361
	L274.667,266.296z M281.74,267.5l1.844-1.845l-0.707-0.707l-3.551,3.552h5.174v-1H281.74z M282.877,274.053l0.707-0.707
	l-1.845-1.846h2.761v-1h-5.173L282.877,274.053z M276.238,271.654l4.518,4.52l0.707-0.707l-4.965-4.967h-0.988l-0.092,0.384
	c-0.15,0.631-0.407,1.239-0.764,1.807l-0.211,0.338l6.373,6.375l0.707-0.707l-5.818-5.82
	C275.923,272.483,276.102,272.074,276.238,271.654z M272.688,274.654c-0.563,0.354-1.171,0.611-1.805,0.763l-0.384,0.092v1.276
	l5.172,5.172l0.707-0.707l-4.879-4.879v-0.085c0.476-0.143,0.936-0.338,1.376-0.581l5.819,5.819l0.707-0.707l-6.376-6.376
	L272.688,274.654z M270.5,284.5h1v-2.473l2.051,2.051l0.707-0.707l-3.758-3.758V284.5z M265.451,284.078l2.049-2.05v2.472h1v-4.888
	l-3.756,3.759L265.451,284.078z M266.312,274.654l-0.338-0.213l-6.376,6.376l0.707,0.707l5.819-5.819
	c0.439,0.243,0.9,0.438,1.376,0.581v0.085l-4.877,4.879l0.707,0.707l5.17-5.172v-1.276l-0.384-0.092
	C267.481,275.265,266.874,275.009,266.312,274.654z M264.347,272.689c-0.356-0.564-0.613-1.172-0.765-1.806l-0.092-0.384h-0.988
	l-4.965,4.967l0.707,0.707l4.518-4.52c0.138,0.422,0.316,0.83,0.534,1.223l-5.819,5.819l0.707,0.707l6.376-6.376L264.347,272.689z
	 M254.5,270.5v1h2.761l-1.845,1.846l0.707,0.707l3.55-3.553H254.5z M256.123,264.948l-0.707,0.707l1.844,1.845h-2.76v1h5.174
	L256.123,264.948z M262.762,267.346l-4.518-4.519l-0.707,0.707l4.965,4.966h0.988l0.092-0.384c0.151-0.634,0.408-1.24,0.765-1.805
	l0.213-0.338l-6.376-6.376l-0.707,0.707l5.819,5.819C263.078,266.516,262.899,266.925,262.762,267.346z M262.623,257.75l4.877,4.879
	v0.085c-0.476,0.144-0.937,0.338-1.376,0.582l-5.819-5.819l-0.707,0.707l6.376,6.376l0.338-0.213
	c0.562-0.355,1.17-0.612,1.805-0.764l0.384-0.092v-1.276l-5.17-5.172L262.623,257.75z M267.5,256.972l-2.049-2.05l-0.707,0.707
	l3.756,3.759V254.5h-1V256.972z M265.815,271.21c0.403,0.874,1.105,1.575,1.976,1.975l0.709,0.325v-3.01h-3.012L265.815,271.21z
	 M265.815,267.791l-0.325,0.709h3.01v-3.011l-0.709,0.326C266.917,266.218,266.216,266.919,265.815,267.791z M273.185,271.209
	l0.325-0.709h-3.01v3.01l0.709-0.325C272.082,272.784,272.784,272.082,273.185,271.209z M273.185,267.791
	c-0.4-0.872-1.102-1.573-1.976-1.976l-0.709-0.326v3.011h3.01L273.185,267.791z"/>
</svg>
