<?xml version="1.0" encoding="utf-8"?>
<!-- Generator: Adobe Illustrator 16.0.0, SVG Export Plug-In . SVG Version: 6.00 Build 0)  -->
<!DOCTYPE svg PUBLIC "-//W3C//DTD SVG 1.1//EN" "http://www.w3.org/Graphics/SVG/1.1/DTD/svg11.dtd">
<svg version="1.1" id="Layer_1" xmlns="http://www.w3.org/2000/svg" xmlns:xlink="http://www.w3.org/1999/xlink" x="0px" y="0px"
	 width="50px" height="50px" viewBox="34.5 244.5 50 50" enable-background="new 34.5 244.5 50 50" xml:space="preserve">
<path style="fill:white" d="M50.896,261.604c-0.195-0.195-0.195-0.512,0-0.707s0.512-0.195,0.707,0l3.84,3.84c0.195,0.195,0.195,0.512,0,0.707
	c-0.098,0.098-0.226,0.146-0.354,0.146s-0.256-0.049-0.354-0.146L50.896,261.604z M52.606,268.25h5.644v-5.932l-3.7-3.701
	c-0.195-0.195-0.512-0.195-0.707,0s-0.195,0.512,0,0.707l3.407,3.408v4.518h-4.229l-3.553-3.552c-0.195-0.195-0.512-0.195-0.707,0
	s-0.195,0.512,0,0.707L52.606,268.25z M45.417,268.25h3.655l-2.079-2.077c-0.195-0.195-0.512-0.195-0.707,0s-0.195,0.512,0,0.707
	l0.37,0.37h-1.239c-0.276,0-0.5,0.224-0.5,0.5S45.141,268.25,45.417,268.25z M59.5,262.508l5.817-5.818
	c0.195-0.195,0.195-0.512,0-0.707s-0.512-0.195-0.707,0l-5.11,5.111l-5.11-5.111c-0.195-0.195-0.512-0.195-0.707,0
	s-0.195,0.512,0,0.707L59.5,262.508z M61.75,267.25v-4.518l3.407-3.408c0.195-0.195,0.195-0.512,0-0.707s-0.512-0.195-0.707,0
	l-3.7,3.701v5.932h5.644l3.846-3.845c0.195-0.195,0.195-0.512,0-0.707s-0.512-0.195-0.707,0l-3.553,3.552H61.75z M72.007,266.173
	l-2.079,2.077h3.655c0.276,0,0.5-0.224,0.5-0.5s-0.224-0.5-0.5-0.5h-1.239l0.37-0.37c0.195-0.195,0.195-0.512,0-0.707
	S72.202,265.978,72.007,266.173z M46.993,272.827l2.079-2.077h-3.655c-0.276,0-0.5,0.224-0.5,0.5s0.224,0.5,0.5,0.5h1.239
	l-0.37,0.37c-0.195,0.195-0.195,0.512,0,0.707c0.098,0.098,0.226,0.146,0.354,0.146S46.896,272.925,46.993,272.827z M62.683,256.143
	c-0.195-0.195-0.512-0.195-0.707,0l-0.226,0.226v-0.952c0-0.276-0.224-0.5-0.5-0.5s-0.5,0.224-0.5,0.5v3.366l1.933-1.933
	C62.878,256.654,62.878,256.338,62.683,256.143z M58.25,258.782v-3.366c0-0.276-0.224-0.5-0.5-0.5s-0.5,0.224-0.5,0.5v0.952
	l-0.226-0.226c-0.195-0.195-0.512-0.195-0.707,0s-0.195,0.512,0,0.707L58.25,258.782z M63.549,265.436
	c0.099,0.103,0.229,0.154,0.361,0.154c0.124,0,0.249-0.046,0.346-0.139l4.007-3.84c0.199-0.191,0.206-0.508,0.016-0.707
	c-0.191-0.198-0.507-0.207-0.707-0.016l-4.007,3.84C63.365,264.92,63.358,265.236,63.549,265.436z M55.443,273.557
	c-0.195-0.195-0.512-0.195-0.707,0l-3.84,3.84c-0.195,0.195-0.195,0.512,0,0.707c0.098,0.098,0.226,0.146,0.354,0.146
	s0.256-0.049,0.354-0.146l3.84-3.84C55.639,274.068,55.639,273.752,55.443,273.557z M66.394,270.75H60.75v5.932l3.7,3.701
	c0.098,0.098,0.226,0.146,0.354,0.146s0.256-0.049,0.354-0.146c0.195-0.195,0.195-0.512,0-0.707l-3.407-3.408v-4.518h4.229
	l3.553,3.552c0.195,0.195,0.512,0.195,0.707,0s0.195-0.512,0-0.707L66.394,270.75z M67.618,269.5l4.906-4.906
	c0.195-0.195,0.195-0.512,0-0.707s-0.512-0.195-0.707,0l-5.613,5.613l5.613,5.613c0.098,0.098,0.226,0.146,0.354,0.146
	s0.256-0.049,0.354-0.146c0.195-0.195,0.195-0.512,0-0.707L67.618,269.5z M64.264,273.557c-0.195-0.195-0.512-0.195-0.707,0
	s-0.195,0.512,0,0.707l3.84,3.84c0.098,0.098,0.226,0.146,0.354,0.146s0.256-0.049,0.354-0.146c0.195-0.195,0.195-0.512,0-0.707
	L64.264,273.557z M73.583,270.75h-3.655l2.079,2.077c0.098,0.098,0.226,0.146,0.354,0.146s0.256-0.049,0.354-0.146
	c0.195-0.195,0.195-0.512,0-0.707l-0.37-0.37h1.239c0.276,0,0.5-0.224,0.5-0.5S73.859,270.75,73.583,270.75z M59.5,276.492
	l-5.817,5.818c-0.195,0.195-0.195,0.512,0,0.707s0.512,0.195,0.707,0l5.11-5.111l5.11,5.111c0.098,0.098,0.226,0.146,0.354,0.146
	s0.256-0.049,0.354-0.146c0.195-0.195,0.195-0.512,0-0.707L59.5,276.492z M57.25,271.75v4.518l-3.407,3.408
	c-0.195,0.195-0.195,0.512,0,0.707c0.098,0.098,0.226,0.146,0.354,0.146s0.256-0.049,0.354-0.146l3.7-3.701v-5.932h-5.644
	l-3.846,3.845c-0.195,0.195-0.195,0.512,0,0.707s0.512,0.195,0.707,0l3.553-3.552H57.25z M56.317,282.857
	c0.195,0.195,0.512,0.195,0.707,0l0.226-0.226v0.952c0,0.276,0.224,0.5,0.5,0.5s0.5-0.224,0.5-0.5v-3.368l-1.933,1.935
	C56.122,282.346,56.122,282.662,56.317,282.857z M47.183,263.887c-0.195-0.195-0.512-0.195-0.707,0s-0.195,0.512,0,0.707
	l4.906,4.906l-4.906,4.906c-0.195,0.195-0.195,0.512,0,0.707c0.098,0.098,0.226,0.146,0.354,0.146s0.256-0.049,0.354-0.146
	l5.613-5.613L47.183,263.887z M60.75,280.216v3.368c0,0.276,0.224,0.5,0.5,0.5s0.5-0.224,0.5-0.5v-0.952l0.226,0.226
	c0.195,0.195,0.512,0.195,0.707,0s0.195-0.512,0-0.707L60.75,280.216z"/>
</svg>
