<?xml version="1.0" encoding="utf-8"?>
<!-- Generator: Adobe Illustrator 16.0.0, SVG Export Plug-In . SVG Version: 6.00 Build 0)  -->
<!DOCTYPE svg PUBLIC "-//W3C//DTD SVG 1.1//EN" "http://www.w3.org/Graphics/SVG/1.1/DTD/svg11.dtd">
<svg version="1.1" id="Layer_1" xmlns="http://www.w3.org/2000/svg" xmlns:xlink="http://www.w3.org/1999/xlink" x="0px" y="0px"
	 width="50px" height="50px" viewBox="34.5 34.5 50 50" enable-background="new 34.5 34.5 50 50" xml:space="preserve">
<path style="fill:white" d="M59.5,41.417c-0.12,0-0.236,0.016-0.351,0.035c0.105-0.058,0.222-0.099,0.351-0.099s0.245,0.041,0.351,0.099
	C59.736,41.433,59.62,41.417,59.5,41.417z M75.948,68.671c-0.503,0.901-1.458,1.462-2.492,1.462c-0.481,0-0.959-0.124-1.383-0.358
	c-0.665-0.372-1.146-0.979-1.354-1.713c-0.118-0.415-0.13-0.84-0.06-1.252l-1.004-0.58v1.199c0,0.414-0.336,0.75-0.75,0.75
	s-0.75-0.336-0.75-0.75v-2.065l-1.272-0.734v3.985c0,0.414-0.336,0.75-0.75,0.75s-0.75-0.336-0.75-0.75v-4.631
	c-1.173,1.536-2.928,2.6-4.937,2.857l4.005,2.312c0.358,0.207,0.481,0.666,0.274,1.024c-0.206,0.357-0.665,0.483-1.024,0.274
	l-3.452-1.992v1.468l1.789,1.034c0.358,0.208,0.48,0.666,0.273,1.025c-0.208,0.358-0.663,0.481-1.025,0.273l-1.037-0.601v1.089
	c1.205,0.333,2.098,1.427,2.098,2.735c0,1.571-1.278,2.85-2.85,2.85c-1.57,0-2.848-1.278-2.848-2.85c0-1.31,0.894-2.405,2.1-2.736
	v-1.086l-1.035,0.599c-0.118,0.068-0.247,0.101-0.374,0.101c-0.26,0-0.512-0.134-0.65-0.375c-0.207-0.358-0.085-0.817,0.274-1.024
	l1.785-1.032v-1.468l-3.449,1.99c-0.118,0.068-0.247,0.101-0.374,0.101c-0.26,0-0.512-0.135-0.65-0.375
	c-0.207-0.359-0.084-0.817,0.274-1.024l4.005-2.312c-2.01-0.257-3.766-1.321-4.939-2.857v4.631c0,0.414-0.336,0.75-0.75,0.75
	s-0.75-0.336-0.75-0.75v-3.985l-1.271,0.734v2.065c0,0.414-0.336,0.75-0.75,0.75s-0.75-0.336-0.75-0.75v-1.2L48.34,66.81
	c0.07,0.412,0.059,0.837-0.06,1.252c-0.208,0.733-0.689,1.342-1.354,1.712c-0.424,0.235-0.901,0.359-1.383,0.359c0,0,0,0-0.001,0
	c-1.034,0-1.989-0.561-2.49-1.463c-0.37-0.664-0.46-1.434-0.252-2.166c0.209-0.731,0.689-1.338,1.354-1.707
	c0.422-0.236,0.901-0.361,1.385-0.361c0.843,0,1.619,0.387,2.155,1.015l0.9-0.52l-1.037-0.599c-0.358-0.207-0.481-0.665-0.274-1.024
	c0.207-0.357,0.664-0.483,1.024-0.274l1.788,1.031l1.271-0.734l-3.45-1.992c-0.358-0.207-0.481-0.666-0.274-1.024
	c0.207-0.357,0.664-0.483,1.024-0.274l3.997,2.309c-0.367-0.877-0.571-1.839-0.571-2.848c0-1.008,0.204-1.969,0.57-2.846
	l-3.997,2.308c-0.118,0.068-0.247,0.101-0.374,0.101c-0.26,0-0.512-0.135-0.65-0.375c-0.207-0.358-0.084-0.817,0.274-1.024
	l3.452-1.992l-1.273-0.735l-1.787,1.032c-0.118,0.068-0.247,0.101-0.374,0.101c-0.26,0-0.512-0.134-0.65-0.375
	c-0.207-0.358-0.085-0.817,0.274-1.024l1.037-0.6l-0.9-0.52c-0.536,0.629-1.313,1.016-2.157,1.016c-0.482,0-0.961-0.125-1.384-0.36
	c-1.372-0.766-1.865-2.505-1.101-3.876c0.501-0.901,1.456-1.462,2.49-1.462c0.482,0,0.96,0.124,1.383,0.359
	c1.081,0.604,1.606,1.809,1.413,2.963l1.005,0.58v-1.197c0-0.414,0.336-0.75,0.75-0.75s0.75,0.336,0.75,0.75v2.063l1.273,0.735
	l-0.001-3.985c0-0.414,0.336-0.75,0.75-0.75s0.75,0.336,0.75,0.75l0.001,4.631c1.174-1.536,2.93-2.601,4.939-2.857l-4.005-2.312
	c-0.358-0.207-0.481-0.665-0.274-1.024c0.206-0.357,0.665-0.483,1.024-0.274l3.449,1.99v-1.468l-1.785-1.032
	c-0.359-0.207-0.481-0.666-0.274-1.024c0.206-0.359,0.665-0.483,1.024-0.274l1.035,0.599v-1.087
	c-1.205-0.332-2.098-1.426-2.098-2.735c0-1.571,1.277-2.85,2.848-2.85c1.571,0,2.85,1.278,2.85,2.85c0,1.31-0.894,2.404-2.1,2.735
	v1.089l1.037-0.601c0.363-0.209,0.817-0.084,1.025,0.273c0.207,0.359,0.085,0.817-0.273,1.025l-1.789,1.034v1.468l3.452-1.992
	c0.359-0.209,0.818-0.083,1.024,0.274c0.207,0.358,0.084,0.817-0.274,1.024l-4.005,2.312c2.009,0.259,3.765,1.322,4.938,2.858
	v-4.632c0-0.414,0.336-0.75,0.75-0.75s0.75,0.336,0.75,0.75v3.985l1.271-0.734v-2.064c0-0.414,0.336-0.75,0.75-0.75
	s0.75,0.336,0.75,0.75v1.198l1.006-0.581c-0.193-1.153,0.33-2.357,1.409-2.962c0.426-0.236,0.903-0.36,1.385-0.36
	c1.034,0,1.989,0.561,2.492,1.462c0.765,1.371,0.271,3.11-1.101,3.876c-0.424,0.235-0.902,0.36-1.385,0.36
	c-0.844,0-1.621-0.387-2.156-1.016l-0.9,0.52l1.037,0.6c0.358,0.207,0.481,0.666,0.274,1.024c-0.139,0.24-0.391,0.375-0.65,0.375
	c-0.127,0-0.256-0.032-0.374-0.101l-1.787-1.032l-1.273,0.734l3.453,1.993c0.358,0.207,0.481,0.666,0.274,1.024
	c-0.139,0.24-0.391,0.375-0.65,0.375c-0.127,0-0.256-0.032-0.374-0.101l-3.998-2.309c0.366,0.877,0.57,1.839,0.57,2.847
	c0,1.009-0.204,1.971-0.571,2.848l3.998-2.309c0.36-0.209,0.818-0.083,1.024,0.274c0.207,0.358,0.084,0.817-0.274,1.024l-3.45,1.992
	l1.271,0.734l1.787-1.031c0.36-0.209,0.817-0.083,1.024,0.274c0.207,0.358,0.084,0.817-0.274,1.024l-1.037,0.599l0.9,0.52
	c0.535-0.628,1.312-1.015,2.154-1.015c0.483,0,0.963,0.125,1.387,0.361c0.663,0.369,1.144,0.976,1.353,1.707
	C76.408,67.236,76.318,68.006,75.948,68.671z M72.181,51.313c-0.107,0.342-0.087,0.723,0.102,1.06
	c0.091,0.162,0.217,0.297,0.362,0.404c0.415,0.309,1.002,0.38,1.473,0.117c0.497-0.277,0.744-0.824,0.674-1.356
	c-0.022-0.163-0.068-0.326-0.153-0.479c-0.189-0.339-0.516-0.569-0.888-0.653c-0.096-0.021-0.193-0.039-0.294-0.039
	c-0.23,0-0.451,0.058-0.654,0.171C72.49,50.713,72.28,50.996,72.181,51.313z M46.818,51.312c-0.101-0.317-0.311-0.602-0.624-0.776
	c-0.198-0.11-0.425-0.169-0.652-0.169c-0.101,0-0.197,0.018-0.293,0.039c-0.371,0.083-0.698,0.312-0.887,0.652
	c-0.085,0.152-0.131,0.315-0.153,0.479c-0.07,0.533,0.177,1.079,0.674,1.356c0.469,0.263,1.057,0.189,1.473-0.117
	c0.146-0.108,0.272-0.242,0.362-0.404C46.906,52.036,46.927,51.654,46.818,51.312z M46.819,67.687
	c0.004-0.013,0.014-0.021,0.018-0.034c0.099-0.348,0.057-0.711-0.119-1.025c-0.091-0.163-0.221-0.293-0.364-0.403
	c-0.232-0.178-0.514-0.288-0.815-0.288c-0.231,0-0.451,0.058-0.654,0.171c-0.315,0.176-0.542,0.462-0.641,0.809
	c-0.052,0.182-0.061,0.366-0.036,0.548c0.022,0.165,0.071,0.328,0.155,0.478c0.188,0.34,0.515,0.57,0.887,0.653
	c0.096,0.021,0.193,0.039,0.294,0.039c0.227,0,0.453-0.059,0.653-0.17C46.499,68.294,46.715,68.018,46.819,67.687z M64.192,63.075
	c0.303-0.396,0.562-0.829,0.757-1.295c0.295-0.702,0.459-1.473,0.459-2.28s-0.164-1.578-0.459-2.28
	c-0.195-0.466-0.454-0.898-0.757-1.295c-0.937-1.227-2.338-2.075-3.942-2.28c-0.246-0.031-0.495-0.053-0.75-0.053
	s-0.504,0.021-0.75,0.053c-1.604,0.205-3.006,1.054-3.942,2.28c-0.303,0.396-0.562,0.829-0.757,1.295
	c-0.295,0.702-0.459,1.473-0.459,2.28s0.164,1.578,0.459,2.28c0.195,0.466,0.454,0.898,0.757,1.295
	c0.937,1.227,2.338,2.075,3.942,2.28c0.246,0.031,0.495,0.053,0.75,0.053s0.504-0.021,0.75-0.053
	C61.854,65.15,63.256,64.302,64.192,63.075z M58.152,43.517c0,0.459,0.246,0.847,0.598,1.09c0.218,0.15,0.466,0.259,0.75,0.259
	c0.283,0,0.532-0.108,0.75-0.258c0.354-0.244,0.6-0.631,0.6-1.091s-0.246-0.848-0.6-1.092c-0.218-0.149-0.467-0.258-0.75-0.258
	c-0.284,0-0.532,0.108-0.75,0.259C58.398,42.67,58.152,43.057,58.152,43.517z M59.149,41.452c0.114-0.02,0.23-0.035,0.351-0.035
	s0.236,0.016,0.351,0.035c-0.105-0.058-0.222-0.099-0.351-0.099S59.255,41.395,59.149,41.452z M60.848,75.483
	c0-0.459-0.246-0.846-0.598-1.089c-0.218-0.151-0.468-0.26-0.752-0.26c-0.283,0-0.531,0.107-0.748,0.258
	c-0.354,0.243-0.6,0.631-0.6,1.091c0,0.461,0.246,0.849,0.6,1.092c0.217,0.15,0.465,0.258,0.748,0.258
	c0.284,0,0.534-0.108,0.752-0.26C60.602,76.33,60.848,75.943,60.848,75.483z M74.793,67.463c0.024-0.182,0.016-0.366-0.036-0.548
	c-0.099-0.347-0.325-0.633-0.639-0.808c-0.205-0.114-0.426-0.172-0.657-0.172c-0.302,0-0.583,0.11-0.814,0.288
	c-0.144,0.11-0.273,0.24-0.364,0.403c-0.176,0.314-0.218,0.679-0.119,1.025c0.004,0.013,0.014,0.021,0.018,0.034
	c0.104,0.331,0.319,0.608,0.622,0.776c0.285,0.158,0.613,0.181,0.922,0.115c0.375-0.079,0.721-0.294,0.913-0.638
	C74.722,67.791,74.771,67.628,74.793,67.463z"/>
</svg>
