<?xml version="1.0" encoding="utf-8"?>
<!-- Generator: Adobe Illustrator 16.0.0, SVG Export Plug-In . SVG Version: 6.00 Build 0)  -->
<!DOCTYPE svg PUBLIC "-//W3C//DTD SVG 1.1//EN" "http://www.w3.org/Graphics/SVG/1.1/DTD/svg11.dtd">
<svg version="1.1" id="Layer_1" xmlns="http://www.w3.org/2000/svg" xmlns:xlink="http://www.w3.org/1999/xlink" x="0px" y="0px"
	 width="50px" height="50px" viewBox="314.5 -245.5 50 50" enable-background="new 314.5 -245.5 50 50" xml:space="preserve">
<path style="fill:white" d="M350.955-214.033h-3.435l-1.725-1.725l4.41,0c0.414,0,0.75-0.336,0.75-0.75s-0.336-0.75-0.75-0.75l-5.809,0l3.104-3.104
	c0.293-0.293,0.293-0.768,0-1.061l-3.154-3.154l0.119-0.119h6.153c0.414,0,0.75-0.336,0.75-0.75s-0.336-0.75-0.75-0.75h-4.653
	l1.731-1.731h3.081c0.414,0,0.75-0.336,0.75-0.75s-0.336-0.75-0.75-0.75h-1.581l1.541-1.541c0.293-0.293,0.293-0.768,0-1.061
	s-0.768-0.293-1.061,0l-1.895,1.895v-2.288c0-0.414-0.336-0.75-0.75-0.75s-0.75,0.336-0.75,0.75v3.788l-1.378,1.378v-4.653
	c0-0.414-0.336-0.75-0.75-0.75s-0.75,0.336-0.75,0.75v6.153l-0.119,0.119l-3.154-3.154c-0.293-0.293-0.768-0.293-1.061,0
	l-3.104,3.104l0.001-5.808c0-0.414-0.336-0.75-0.75-0.75s-0.75,0.336-0.75,0.75l-0.001,4.41l-1.725-1.725v-3.435
	c0-0.414-0.336-0.75-0.75-0.75s-0.75,0.336-0.75,0.75v1.935l-1.718-1.718c-0.293-0.293-0.768-0.293-1.061,0s-0.293,0.768,0,1.061
	l1.718,1.718l-1.934,0c-0.414,0-0.75,0.336-0.75,0.75s0.336,0.75,0.75,0.75l3.434,0l1.725,1.725h-4.41
	c-0.414,0-0.75,0.336-0.75,0.75s0.336,0.75,0.75,0.75h5.809l-3.104,3.103c-0.293,0.293-0.293,0.768,0,1.061l3.154,3.154
	l-0.119,0.119h-6.152c-0.414,0-0.75,0.336-0.75,0.75s0.336,0.75,0.75,0.75h4.652l-1.378,1.378h-3.788c-0.414,0-0.75,0.336-0.75,0.75
	s0.336,0.75,0.75,0.75h2.288l-1.895,1.895c-0.293,0.293-0.293,0.768,0,1.061c0.146,0.146,0.338,0.22,0.53,0.22
	s0.384-0.073,0.53-0.22l1.541-1.541v1.582c0,0.414,0.336,0.75,0.75,0.75s0.75-0.336,0.75-0.75v-3.082l1.731-1.731v4.653
	c0,0.414,0.336,0.75,0.75,0.75s0.75-0.336,0.75-0.75v-6.153l0.119-0.119l3.154,3.155c0.141,0.141,0.331,0.22,0.53,0.22
	s0.39-0.079,0.53-0.22l3.104-3.104l-0.001,5.808c0,0.414,0.336,0.75,0.75,0.75s0.75-0.336,0.75-0.75l0.001-4.41l1.725,1.725v3.435
	c0,0.414,0.336,0.75,0.75,0.75s0.75-0.336,0.75-0.75v-1.935l1.718,1.718c0.146,0.146,0.338,0.22,0.53,0.22s0.384-0.073,0.53-0.22
	c0.293-0.293,0.293-0.768,0-1.061l-1.718-1.718h1.935c0.414,0,0.75-0.336,0.75-0.75S351.369-214.033,350.955-214.033z
	 M339.602-214.582l-2.624-2.625l-1.061-1.061l-2.624-2.624l2.624-2.624l1.061-1.061l2.624-2.624l2.624,2.624l1.061,1.061
	l2.624,2.624l-2.624,2.624l-1.061,1.061L339.602-214.582z M340.352-209.014v3.693c0,0.414-0.336,0.75-0.75,0.75
	s-0.75-0.336-0.75-0.75v-3.693c0-0.414,0.336-0.75,0.75-0.75S340.352-209.428,340.352-209.014z M328.018-219.849l-3.695,0
	c-0.414,0-0.75-0.336-0.75-0.75s0.336-0.75,0.75-0.75l3.695,0c0.414,0,0.75,0.336,0.75,0.75S328.432-219.849,328.018-219.849z
	 M338.652-231.986l0.003-3.693c0-0.414,0.336-0.75,0.75-0.75h0.001c0.414,0,0.749,0.336,0.749,0.75l-0.003,3.693
	c0,0.414-0.336,0.75-0.75,0.75h-0.001C338.987-231.236,338.652-231.572,338.652-231.986z M355.428-220.394
	c0,0.414-0.336,0.75-0.75,0.75h-0.001l-3.695-0.003c-0.414,0-0.749-0.336-0.749-0.75s0.336-0.75,0.75-0.75h0.001l3.695,0.003
	C355.093-221.144,355.428-220.808,355.428-220.394z"/>
</svg>
