<?xml version="1.0" encoding="utf-8"?>
<!-- Generator: Adobe Illustrator 16.0.0, SVG Export Plug-In . SVG Version: 6.00 Build 0)  -->
<!DOCTYPE svg PUBLIC "-//W3C//DTD SVG 1.1//EN" "http://www.w3.org/Graphics/SVG/1.1/DTD/svg11.dtd">
<svg version="1.1" id="Layer_1" xmlns="http://www.w3.org/2000/svg" xmlns:xlink="http://www.w3.org/1999/xlink" x="0px" y="0px"
	 width="50px" height="50px" viewBox="-315.5 34.5 50 50" enable-background="new -315.5 34.5 50 50" xml:space="preserve">
<path style="fill:white" d="M-275,59.5c0-0.276-0.224-0.5-0.5-0.5h-1.247l1.6-1.602c0.195-0.195,0.195-0.512,0-0.707s-0.512-0.195-0.707,0L-278.161,59
	h-4.103l-3.782-1.062l-0.019-0.233l2.471-4.403l4.054-4.054c0.195-0.195,0.195-0.512,0-0.707s-0.512-0.195-0.707,0l-4.589,4.589
	l-3.74,2.1l-0.233-0.106L-290,50.877v-3.713l2.309-2.311c0.195-0.195,0.195-0.512,0-0.707s-0.512-0.195-0.707,0L-290,45.75V44.5
	c0-0.276-0.224-0.5-0.5-0.5s-0.5,0.224-0.5,0.5v1.246l-1.6-1.6c-0.195-0.195-0.512-0.195-0.707,0s-0.195,0.512,0,0.707L-291,47.16
	v3.216l-1.39,4.951l-3.591-2.016l-4.771-4.771c-0.195-0.195-0.512-0.195-0.707,0s-0.195,0.512,0,0.707l3.729,3.729l2.764,4.926
	L-298.878,59h-3.96l-2.309-2.306c-0.195-0.195-0.512-0.195-0.708,0c-0.195,0.195-0.195,0.512,0,0.707l1.601,1.599h-1.247
	c-0.276,0-0.5,0.224-0.5,0.5s0.224,0.5,0.5,0.5h1.248l-1.601,1.602c-0.195,0.195-0.195,0.512,0,0.707
	c0.098,0.098,0.226,0.146,0.354,0.146s0.256-0.049,0.354-0.146l2.309-2.309h2.381l4.73,1.328l0.511,0.658l-1.948,3.471l-4.296,4.296
	c-0.195,0.195-0.195,0.512,0,0.707c0.098,0.098,0.226,0.146,0.354,0.146s0.256-0.049,0.354-0.146l3.761-3.761l3.832-2.151
	l0.997,0.378l1.162,4.142v2.771l-2.307,2.309c-0.195,0.195-0.195,0.512,0,0.707c0.098,0.098,0.226,0.146,0.354,0.146
	s0.256-0.049,0.354-0.146l1.6-1.602V74.5c0,0.276,0.224,0.5,0.5,0.5s0.5-0.224,0.5-0.5v-1.248l1.602,1.602
	c0.195,0.195,0.512,0.195,0.707,0s0.195-0.512,0-0.707L-290,71.838v-3.271l1.09-3.884l0.9-0.15l4.186,2.349l3.579,3.579
	c0.098,0.098,0.226,0.146,0.354,0.146s0.256-0.049,0.354-0.146c0.195-0.195,0.195-0.512,0-0.707l-4.621-4.621l-1.893-3.372
	l0.325-0.344l5.043-1.416h2.524l2.307,2.306c0.098,0.098,0.226,0.146,0.354,0.146s0.256-0.049,0.354-0.146
	c0.195-0.195,0.195-0.512,0-0.707L-276.746,60h1.246C-275.224,60-275,59.776-275,59.5z M-284.384,60l-3.286,0.923l0.896,1.596
	l1.279,2.279l-0.944-0.53l-2.932-1.646l-0.63,2.244l-0.57,2.031l-0.43-1.53l-0.771-2.745l-2.607,1.464l-1.269,0.712l1.097-1.954
	l1.078-1.921L-296.758,60l-0.991-0.278L-295.18,59l1.708-0.479l-1.645-2.932l-0.53-0.943l2.28,1.279l1.596,0.896l0.771-2.745
	l0.43-1.53l0.57,2.031l0.63,2.244l1.921-1.078l1.955-1.098l-0.712,1.269l-1.463,2.606l1.708,0.479l2.569,0.722L-284.384,60z"/>
</svg>
