<?xml version="1.0" encoding="utf-8"?>
<!-- Generator: Adobe Illustrator 16.0.0, SVG Export Plug-In . SVG Version: 6.00 Build 0)  -->
<!DOCTYPE svg PUBLIC "-//W3C//DTD SVG 1.1//EN" "http://www.w3.org/Graphics/SVG/1.1/DTD/svg11.dtd">
<svg version="1.1" id="Layer_1" xmlns="http://www.w3.org/2000/svg" xmlns:xlink="http://www.w3.org/1999/xlink" x="0px" y="0px"
	 width="50px" height="50px" viewBox="104.5 314.5 50 50" enable-background="new 104.5 314.5 50 50" xml:space="preserve">
<path style="fill:white" d="M140.383,346.072c0.039,0.022,0.082,0.033,0.125,0.033c0.086,0,0.17-0.045,0.217-0.125c0.068-0.119,0.027-0.272-0.092-0.342
	l-3.407-1.968l7.339-1.966c0.134-0.035,0.213-0.173,0.177-0.306c-0.035-0.134-0.172-0.212-0.306-0.177l-7.823,2.095l-3.41-1.969
	v-3.697l3.412-1.97l7.821,2.096c0.021,0.006,0.043,0.009,0.064,0.009c0.11,0,0.212-0.073,0.241-0.186
	c0.036-0.133-0.043-0.271-0.177-0.306l-7.338-1.967l3.406-1.967c0.119-0.069,0.16-0.223,0.092-0.342
	c-0.071-0.121-0.225-0.159-0.342-0.092l-3.406,1.967l1.966-7.339c0.036-0.133-0.043-0.271-0.177-0.306
	c-0.131-0.033-0.271,0.043-0.306,0.177l-2.097,7.822l-3.41,1.969l-3.203-1.848v-3.939l5.726-5.727c0.098-0.098,0.098-0.256,0-0.354
	s-0.256-0.098-0.354,0l-5.372,5.373v-3.936c0-0.138-0.112-0.25-0.25-0.25s-0.25,0.112-0.25,0.25v3.936l-5.372-5.373
	c-0.098-0.098-0.256-0.098-0.354,0s-0.098,0.256,0,0.354l5.726,5.727v3.939l-3.203,1.848l-3.41-1.969l-2.097-7.822
	c-0.035-0.134-0.175-0.211-0.306-0.177c-0.134,0.035-0.213,0.173-0.177,0.306l1.966,7.339l-3.406-1.967
	c-0.118-0.067-0.271-0.029-0.342,0.092c-0.068,0.119-0.027,0.272,0.092,0.342l3.406,1.967l-7.338,1.967
	c-0.134,0.035-0.213,0.173-0.177,0.306c0.029,0.112,0.131,0.186,0.241,0.186c0.021,0,0.043-0.003,0.064-0.009l7.821-2.096
	l3.412,1.97v3.697l-3.41,1.969l-7.823-2.095c-0.131-0.034-0.271,0.043-0.306,0.177c-0.036,0.133,0.043,0.271,0.177,0.306
	l7.339,1.966l-3.407,1.968c-0.119,0.069-0.16,0.223-0.092,0.342c0.047,0.08,0.131,0.125,0.217,0.125
	c0.043,0,0.086-0.011,0.125-0.033l3.407-1.967l-1.966,7.339c-0.036,0.133,0.043,0.271,0.177,0.306
	c0.021,0.006,0.043,0.009,0.064,0.009c0.11,0,0.212-0.073,0.241-0.186l2.097-7.822l3.412-1.97l3.2,1.849v3.938l-5.726,5.727
	c-0.098,0.098-0.098,0.256,0,0.354s0.256,0.098,0.354,0l5.372-5.373v3.937c0,0.138,0.112,0.25,0.25,0.25s0.25-0.112,0.25-0.25
	v-3.937l5.372,5.374c0.049,0.049,0.112,0.073,0.177,0.073s0.128-0.024,0.177-0.073c0.098-0.098,0.098-0.256,0-0.354l-5.726-5.728
	v-3.938l3.2-1.849l3.412,1.97l2.097,7.822c0.029,0.112,0.131,0.186,0.241,0.186c0.021,0,0.043-0.003,0.064-0.009
	c0.134-0.035,0.213-0.173,0.177-0.306l-1.966-7.339L140.383,346.072z M132.202,340.771L130,339.5l2.202-1.271V340.771z
	 M131.952,337.795l-2.202,1.271v-2.542L131.952,337.795z M129.25,336.524v2.542l-2.202-1.271L129.25,336.524z M126.798,338.229
	L129,339.5l-2.202,1.271V338.229z M127.049,341.204l2.201-1.271v2.542L127.049,341.204z M129.75,342.476v-2.542l2.201,1.271
	L129.75,342.476z M124.797,335.63l3.703-2.136v-1.752l-5.777-5.779l-1.557,0.899l2.114,7.893L124.797,335.63z M122.559,327.213
	l4.941,4.943v0.76l-2.703,1.56l-0.657-0.379l-1.81-6.752L122.559,327.213z M113.628,336.218c-0.071-0.268,0.087-0.541,0.354-0.613
	l1.98-0.53l-1.944-1.124v-3.39l2.937-1.694l1.942,1.121l-0.53-1.979c-0.071-0.267,0.087-0.54,0.354-0.612
	c0.264-0.065,0.54,0.088,0.612,0.354l1.498,5.593l-1.94-1.123v-1.081l-1.937-1.118l-1.937,1.118v2.235l1.937,1.119l0.937-0.541
	l1.94,1.121l-5.59,1.498c-0.044,0.011-0.087,0.017-0.13,0.017C113.891,336.588,113.688,336.44,113.628,336.218z M130.5,333.494
	l3.703,2.136l1.517-0.875l2.114-7.893l-1.557-0.899l-5.777,5.779V333.494z M131.5,332.156l4.941-4.943l0.229,0.132l-1.81,6.752
	l-0.657,0.379l-2.703-1.56V332.156z M138.169,333.343l1.498-5.593c0.072-0.267,0.349-0.419,0.612-0.354
	c0.268,0.072,0.426,0.346,0.354,0.612l-0.53,1.979l1.942-1.121l2.937,1.694v3.39l-1.944,1.124l1.98,0.53
	c0.267,0.072,0.425,0.346,0.354,0.613c-0.061,0.223-0.263,0.37-0.483,0.37c-0.043,0-0.086-0.006-0.13-0.017l-5.59-1.498l1.94-1.121
	l0.937,0.541l1.937-1.119v-2.235l-1.937-1.118l-1.937,1.118v1.081L138.169,333.343z M124.408,324.82
	c-0.195-0.195-0.195-0.512,0-0.707s0.512-0.195,0.707,0l1.448,1.448v-2.243l2.937-1.694l2.937,1.694v2.243l1.448-1.448
	c0.195-0.195,0.512-0.195,0.707,0s0.195,0.512,0,0.707l-4.092,4.092v-2.24l0.937-0.541v-2.234l-1.937-1.118l-1.937,1.118v2.234
	l0.937,0.541v2.24L124.408,324.82z M145.372,342.782c0.071,0.268-0.087,0.541-0.354,0.613l-1.98,0.53l1.944,1.121l-0.002,3.391
	l-2.936,1.696l-1.944-1.123l0.531,1.979c0.071,0.268-0.087,0.541-0.354,0.613c-0.044,0.011-0.087,0.017-0.13,0.017
	c-0.221,0-0.423-0.147-0.483-0.37l-1.498-5.591l1.941,1.122v1.08l1.937,1.119l1.936-1.12l0.002-2.234l-1.938-1.118l-0.937,0.541
	l-1.938-1.121l5.589-1.498C145.028,342.362,145.3,342.517,145.372,342.782z M134.201,343.368l-3.701,2.139v1.751l5.778,5.779
	l1.556-0.899l-2.115-7.893L134.201,343.368z M136.442,351.787l-4.942-4.943v-0.761l2.701-1.561l0.658,0.381l1.811,6.752
	L136.442,351.787z M120.833,345.658l-1.498,5.591c-0.061,0.223-0.263,0.37-0.483,0.37c-0.043,0-0.086-0.006-0.13-0.017
	c-0.267-0.072-0.425-0.346-0.354-0.613l0.531-1.979l-1.944,1.123l-2.936-1.696l-0.002-3.391l1.944-1.121l-1.98-0.53
	c-0.267-0.072-0.425-0.346-0.354-0.613c0.072-0.266,0.345-0.419,0.613-0.354l5.589,1.498l-1.938,1.121l-0.937-0.541l-1.938,1.118
	l0.002,2.234l1.936,1.12l1.937-1.119v-1.08L120.833,345.658z M135.202,337.361v4.277l1.517,0.874l7.893-2.113v-1.799l-7.892-2.113
	L135.202,337.361z M143.611,339.368v0.264l-6.752,1.809l-0.657-0.38v-3.121l0.658-0.38L143.611,339.368z M123.798,341.639v-4.277
	l-1.518-0.874l-7.892,2.113v1.799l7.893,2.113L123.798,341.639z M115.389,339.632v-0.264l6.751-1.809l0.658,0.38v3.121l-0.657,0.38
	L115.389,339.632z M128.5,345.507l-3.701-2.139l-1.518,0.877l-2.115,7.893l1.557,0.899l5.777-5.779V345.507z M127.5,346.844
	l-4.941,4.943l-0.229-0.132l1.811-6.752l0.658-0.381l2.701,1.561V346.844z M134.592,354.18c0.195,0.195,0.195,0.512,0,0.707
	s-0.512,0.195-0.707,0l-1.448-1.449v2.244l-2.937,1.694l-2.937-1.694v-2.244l-1.448,1.449c-0.195,0.195-0.512,0.195-0.707,0
	s-0.195-0.512,0-0.707l4.092-4.095v2.243l-0.937,0.541v2.234l1.937,1.118l1.937-1.118v-2.234l-0.937-0.541v-2.243L134.592,354.18z"
	/>
</svg>
