<?xml version="1.0" encoding="utf-8"?>
<!-- Generator: Adobe Illustrator 16.0.0, SVG Export Plug-In . SVG Version: 6.00 Build 0)  -->
<!DOCTYPE svg PUBLIC "-//W3C//DTD SVG 1.1//EN" "http://www.w3.org/Graphics/SVG/1.1/DTD/svg11.dtd">
<svg version="1.1" id="Layer_1" xmlns="http://www.w3.org/2000/svg" xmlns:xlink="http://www.w3.org/1999/xlink" x="0px" y="0px"
	 width="50px" height="50px" viewBox="-315.5 -105.5 50 50" enable-background="new -315.5 -105.5 50 50" xml:space="preserve">
<path style="fill:white" d="M-275.629-79.019l-1.86,0.498v-3.958l1.86,0.498c0.043,0.012,0.087,0.017,0.13,0.017c0.221,0,0.423-0.147,0.482-0.371
	c0.071-0.267-0.087-0.541-0.354-0.612l-2.119-0.567v-2.262l1.472-0.849v-2.236l-1.938-1.118l-1.468,0.848l-1.96-1.13l0.567-2.117
	c0.071-0.267-0.087-0.541-0.354-0.612c-0.264-0.07-0.541,0.086-0.612,0.354l-0.498,1.858l-3.429-1.979l1.361-1.361
	c0.195-0.195,0.195-0.512,0-0.707s-0.512-0.195-0.707,0l-1.551,1.551l-1.958-1.13v-1.699l-1.937-1.117l-1.937,1.117v1.699
	l-1.958,1.13l-1.551-1.551c-0.195-0.195-0.512-0.195-0.707,0s-0.195,0.512,0,0.707l1.361,1.361l-3.429,1.979l-0.498-1.858
	c-0.072-0.267-0.343-0.424-0.612-0.354c-0.267,0.071-0.425,0.346-0.354,0.612l0.567,2.117l-1.96,1.131l-1.469-0.849l-1.937,1.118
	v2.236l1.472,0.849v2.262l-2.119,0.567c-0.267,0.071-0.425,0.346-0.354,0.612c0.06,0.224,0.262,0.371,0.482,0.371
	c0.043,0,0.086-0.005,0.13-0.017l1.86-0.498v3.958l-1.86-0.498c-0.264-0.07-0.541,0.087-0.612,0.354s0.087,0.541,0.354,0.612
	l2.119,0.567v2.262l-1.472,0.849l0.002,2.236l1.936,1.117l1.471-0.849l1.958,1.131l-0.567,2.118
	c-0.071,0.267,0.087,0.541,0.354,0.612c0.043,0.012,0.087,0.017,0.13,0.017c0.221,0,0.422-0.147,0.482-0.371l0.498-1.859
	l3.429,1.979l-1.362,1.362c-0.195,0.195-0.195,0.512,0,0.707s0.512,0.195,0.707,0l1.551-1.552l1.958,1.13v1.7l1.937,1.117
	l1.937-1.117v-1.7l1.958-1.13l1.551,1.552c0.098,0.098,0.226,0.146,0.354,0.146s0.256-0.049,0.354-0.146
	c0.195-0.195,0.195-0.512,0-0.707l-1.362-1.362l3.429-1.979l0.498,1.859c0.06,0.224,0.262,0.371,0.482,0.371
	c0.043,0,0.086-0.005,0.13-0.017c0.267-0.071,0.425-0.346,0.354-0.612l-0.567-2.118l1.958-1.13l1.471,0.848l1.936-1.117l0.002-2.236
	l-1.472-0.849v-2.262l2.119-0.567c0.267-0.071,0.425-0.346,0.354-0.612S-275.361-79.09-275.629-79.019z M-278.489-78.253
	l-4.863,1.302L-289.5-80.5l6.148-3.55l4.862,1.303V-78.253z M-282.127-84.757l2.736-1.58l0.901,0.52v2.034L-282.127-84.757z
	 M-279.891-88.247v1.043l-2.736,1.58l0.976-3.639L-279.891-88.247z M-282.547-89.78l-1.304,4.863l-6.149,3.55v-7.1l3.56-3.56
	L-282.547-89.78z M-290-89.88v-3.159l0.902-0.521l1.761,1.017L-290-89.88z M-291.902-93.56l0.902,0.521v3.159l-2.663-2.663
	L-291.902-93.56z M-294.56-92.026l3.56,3.56v7.1l-6.149-3.55l-1.304-4.863L-294.56-92.026z M-298.374-85.624l-2.736-1.58v-1.043
	l1.76-1.016L-298.374-85.624z M-302.511-85.816l0.901-0.52l2.736,1.58l-3.638,0.975V-85.816z M-302.511-82.747l4.862-1.303
	l6.148,3.55l-6.148,3.549l-4.863-1.302V-82.747z M-298.873-76.244l-2.736,1.58l-0.902-0.521v-2.033L-298.873-76.244z
	 M-301.108-72.755v-1.042l2.736-1.58l-0.975,3.638L-301.108-72.755z M-298.451-71.222l1.303-4.863l6.148-3.549v7.099l-3.559,3.561
	L-298.451-71.222z M-291-71.121v3.16l-0.901,0.521l-1.761-1.017L-291-71.121z M-289.099-67.441L-290-67.961v-3.16l2.663,2.664
	L-289.099-67.441z M-286.441-68.975L-290-72.535v-7.099l6.148,3.549l1.303,4.863L-286.441-68.975z M-282.627-75.377l2.735,1.579
	v1.043l-1.76,1.016L-282.627-75.377z M-278.489-75.185l-0.902,0.521l-2.736-1.58l3.638-0.974V-75.185z"/>
</svg>
