<?xml version="1.0" encoding="utf-8"?>
<!-- Generator: Adobe Illustrator 16.0.0, SVG Export Plug-In . SVG Version: 6.00 Build 0)  -->
<!DOCTYPE svg PUBLIC "-//W3C//DTD SVG 1.1//EN" "http://www.w3.org/Graphics/SVG/1.1/DTD/svg11.dtd">
<svg version="1.1" id="Layer_1" xmlns="http://www.w3.org/2000/svg" xmlns:xlink="http://www.w3.org/1999/xlink" x="0px" y="0px"
	 width="50px" height="50px" viewBox="174.5 -315.5 50 50" enable-background="new 174.5 -315.5 50 50" xml:space="preserve">
<path style="fill:white" d="M202.677-277.622c0.293,0.293,0.293,0.768,0,1.061c-0.146,0.146-0.339,0.22-0.53,0.22c-0.192,0-0.384-0.073-0.53-0.22
	l-2.116-2.117l-2.118,2.117c-0.294,0.293-0.769,0.292-1.061,0c-0.293-0.293-0.293-0.768,0-1.061l3.179-3.178L202.677-277.622z
	 M199.5-300.199l3.179-3.179c0.293-0.293,0.293-0.768,0-1.061s-0.768-0.293-1.061,0l-2.118,2.118l-2.116-2.117
	c-0.292-0.292-0.767-0.294-1.061,0c-0.293,0.292-0.293,0.768,0,1.061L199.5-300.199z M186.622-293.929
	c-0.293-0.293-0.768-0.293-1.061,0s-0.293,0.768,0,1.061l2.118,2.118l-2.118,2.119c-0.293,0.293-0.293,0.768,0,1.061
	c0.146,0.146,0.338,0.22,0.53,0.22s0.384-0.073,0.53-0.22l3.179-3.18L186.622-293.929z M211.318-290.75l2.12-2.119
	c0.293-0.292,0.293-0.768,0-1.061c-0.292-0.292-0.767-0.293-1.061,0l-3.181,3.18l3.181,3.179c0.146,0.146,0.339,0.219,0.53,0.219
	c0.192,0,0.384-0.073,0.53-0.22c0.293-0.293,0.293-0.768,0-1.061L211.318-290.75z M211.605-283.499c0,0.415-0.336,0.75-0.75,0.75
	l-2.544,0l2.325,2.325c0.293,0.293,0.293,0.768,0,1.061c-0.146,0.146-0.338,0.22-0.53,0.22s-0.384-0.073-0.53-0.22l-2.325-2.325
	v2.545c0,0.414-0.336,0.75-0.75,0.75s-0.75-0.336-0.75-0.75v-4.045l-1.351-1.351H194.6l-1.351,1.351v4.044
	c0,0.414-0.336,0.75-0.75,0.75s-0.75-0.336-0.75-0.75v-2.544l-2.325,2.325c-0.146,0.146-0.338,0.22-0.53,0.22
	s-0.384-0.073-0.53-0.22c-0.293-0.293-0.293-0.768,0-1.061l2.326-2.326h-2.546c-0.414,0-0.75-0.336-0.75-0.75s0.336-0.75,0.75-0.75
	h4.046l1.35-1.35l0.001-9.8l-1.352-1.351l-4.044-0.001c-0.414,0-0.75-0.336-0.75-0.75c0-0.415,0.336-0.75,0.75-0.75l2.544,0
	l-2.325-2.325c-0.293-0.293-0.293-0.768,0-1.061s0.768-0.293,1.061,0l2.325,2.325v-2.545c0-0.414,0.336-0.75,0.75-0.75
	s0.75,0.336,0.75,0.75v4.045l1.352,1.352h9.799l1.352-1.352v-4.044c0-0.414,0.336-0.75,0.75-0.75s0.75,0.336,0.75,0.75v2.544
	l2.325-2.325c0.293-0.293,0.768-0.293,1.061,0s0.293,0.768,0,1.061l-2.326,2.326h2.546c0.414,0,0.75,0.336,0.75,0.75
	s-0.336,0.75-0.75,0.75h-4.046l-1.349,1.349v9.803l1.35,1.349l4.044,0.001C211.27-284.249,211.605-283.913,211.605-283.499z
	 M202.9-286.039h1.062v-1.06v-6.803v-1.059h-1.062h-6.799h-1.061v1.061l-0.001,6.8v1.061h1.061H202.9z M210.036-294.727
	l-4.228,4.227l4.228,4.228c0.146,0.146,0.338,0.22,0.53,0.22s0.384-0.073,0.53-0.22c0.293-0.293,0.293-0.768,0-1.061l-3.167-3.167
	l3.167-3.167c0.293-0.293,0.293-0.768,0-1.061S210.329-295.02,210.036-294.727z M199.501-296.808l4.227-4.227
	c0.293-0.293,0.293-0.768,0-1.061s-0.768-0.293-1.061,0l-3.166,3.167l-3.167-3.167c-0.293-0.293-0.768-0.293-1.061,0
	s-0.293,0.768,0,1.061L199.501-296.808z M187.898-287.327c-0.293,0.293-0.293,0.768,0,1.061c0.146,0.146,0.338,0.22,0.53,0.22
	s0.384-0.073,0.53-0.22l4.227-4.227l-4.228-4.228c-0.293-0.293-0.768-0.293-1.061,0s-0.293,0.768,0,1.061l3.167,3.167
	L187.898-287.327z M199.494-284.185l-4.227,4.227c-0.293,0.293-0.293,0.768,0,1.061s0.768,0.293,1.061,0l3.166-3.166l3.166,3.167
	c0.146,0.146,0.338,0.22,0.53,0.22s0.384-0.073,0.53-0.22c0.293-0.293,0.293-0.768,0-1.061L199.494-284.185z"/>
</svg>
