<?xml version="1.0" encoding="utf-8"?>
<!-- Generator: Adobe Illustrator 16.0.0, SVG Export Plug-In . SVG Version: 6.00 Build 0)  -->
<!DOCTYPE svg PUBLIC "-//W3C//DTD SVG 1.1//EN" "http://www.w3.org/Graphics/SVG/1.1/DTD/svg11.dtd">
<svg version="1.1" id="Layer_1" xmlns="http://www.w3.org/2000/svg" xmlns:xlink="http://www.w3.org/1999/xlink" x="0px" y="0px"
	 width="50px" height="50px" viewBox="174.5 314.5 50 50" enable-background="new 174.5 314.5 50 50" xml:space="preserve">
<path style="fill:white" d="M214.491,339.498l1.01-3.764l-2.463-0.66l1.694-0.979c0.239-0.138,0.321-0.443,0.183-0.683
	c-0.138-0.239-0.443-0.322-0.683-0.183l-2.188,1.263l-0.936-0.541l-1.94,1.121l5.107,1.368l-0.194,0.725l-6.856-1.838l3.407-1.967
	c0.119-0.069,0.16-0.223,0.092-0.342c-0.07-0.121-0.226-0.159-0.342-0.092l-3.406,1.967l1.837-6.855l0.725,0.194l-1.369,5.106
	l1.94-1.119v-1.082l2.186-1.263c0.239-0.138,0.321-0.443,0.183-0.683c-0.138-0.239-0.444-0.322-0.683-0.183l-1.691,0.977
	l0.659-2.461l-3.767-1.009l-2.758-2.758l-1.802,1.802v-1.954c0-0.276-0.224-0.5-0.5-0.5s-0.5,0.224-0.5,0.5v2.523l-0.937,0.541v2.24
	l3.738-3.738l0.53,0.53l-5.019,5.02v-3.936c0-0.138-0.112-0.25-0.25-0.25s-0.25,0.112-0.25,0.25v3.936l-5.019-5.02l0.53-0.53
	l3.738,3.738v-2.24l-0.937-0.541v-2.523c0-0.276-0.224-0.5-0.5-0.5s-0.5,0.224-0.5,0.5v1.954l-1.802-1.802l-2.758,2.758
	l-3.767,1.009l0.659,2.461l-1.692-0.977c-0.237-0.138-0.545-0.056-0.683,0.183c-0.139,0.239-0.057,0.545,0.183,0.683l2.187,1.263
	v1.082l1.94,1.119l-1.369-5.106l0.725-0.194l1.837,6.855l-3.406-1.967c-0.117-0.067-0.272-0.029-0.342,0.092
	c-0.068,0.119-0.027,0.272,0.092,0.342l3.407,1.967l-6.856,1.838l-0.194-0.725l5.107-1.368l-1.94-1.121l-0.937,0.541l-2.187-1.263
	c-0.238-0.138-0.545-0.057-0.683,0.183c-0.139,0.239-0.057,0.545,0.183,0.683l1.694,0.979l-2.463,0.66l1.01,3.764l-1.009,3.768
	l2.462,0.66l-1.694,0.978c-0.239,0.138-0.321,0.443-0.183,0.683c0.092,0.16,0.26,0.25,0.433,0.25c0.085,0,0.171-0.021,0.25-0.067
	l2.188-1.262l0.937,0.541l1.94-1.121l-5.107-1.368l0.193-0.725l6.856,1.837l-3.407,1.968c-0.119,0.069-0.16,0.223-0.092,0.342
	c0.047,0.08,0.131,0.125,0.217,0.125c0.043,0,0.086-0.011,0.125-0.033l3.407-1.967l-1.837,6.855l-0.725-0.194l1.37-5.108
	l-1.941,1.122v1.08l-2.187,1.264c-0.239,0.138-0.321,0.443-0.183,0.683c0.137,0.239,0.442,0.32,0.683,0.183l1.693-0.978l-0.66,2.462
	l3.766,1.009l2.758,2.758l1.802-1.802v1.954c0,0.276,0.224,0.5,0.5,0.5s0.5-0.224,0.5-0.5v-2.523l0.937-0.541v-2.241l-3.738,3.739
	l-0.53-0.53l5.019-5.021v3.937c0,0.138,0.112,0.25,0.25,0.25s0.25-0.112,0.25-0.25v-3.937l5.019,5.021l-0.53,0.53l-3.738-3.739
	v2.241l0.937,0.541v2.523c0,0.276,0.224,0.5,0.5,0.5s0.5-0.224,0.5-0.5v-1.954l1.802,1.802l2.758-2.758l3.766-1.009l-0.66-2.462
	l1.693,0.978c0.239,0.139,0.546,0.058,0.683-0.183c0.139-0.239,0.057-0.545-0.183-0.683l-2.188-1.264v-1.082l-1.94-1.12l1.37,5.108
	l-0.725,0.194l-1.837-6.855l3.407,1.967c0.039,0.022,0.082,0.033,0.125,0.033c0.086,0,0.17-0.045,0.217-0.125
	c0.068-0.119,0.027-0.272-0.092-0.342l-3.407-1.968l6.856-1.837l0.193,0.725l-5.107,1.368l1.94,1.121l0.937-0.541l2.188,1.262
	c0.079,0.046,0.165,0.067,0.25,0.067c0.173,0,0.341-0.09,0.433-0.25c0.139-0.239,0.057-0.545-0.183-0.683l-1.694-0.978l2.462-0.66
	L214.491,339.498z M205.122,326.058l0.53,0.53l-5.152,5.153v6.027l5.22-3.014l1.886-7.039l0.726,0.194l-1.968,7.338l-6.613,3.818
	v-7.636L205.122,326.058z M206.802,326.853l-1.941,7.244l-3.36,1.939v-3.881L206.802,326.853z M190.669,327.91l0.726-0.194
	l1.886,7.039l5.22,3.014v-6.027l-5.152-5.153l0.53-0.53l5.372,5.373v7.636l-6.613-3.818L190.669,327.91z M192.198,326.853
	l5.302,5.303v3.881l-3.36-1.939L192.198,326.853z M185.048,341.352l0.193-0.724l7.04,1.885l5.219-3.013l-5.22-3.013l-7.038,1.885
	l-0.194-0.724l7.339-1.966L199,339.5l-6.612,3.817L185.048,341.352z M184.896,339.5l7.244-1.94l3.36,1.94l-3.359,1.94L184.896,339.5
	z M193.878,352.942l-0.53-0.53l5.152-5.154v-6.026l-5.219,3.014l-1.886,7.039l-0.726-0.194l1.968-7.339l6.612-3.817v7.635
	L193.878,352.942z M192.2,352.146l1.94-7.242l3.359-1.939v3.88L192.2,352.146z M208.33,351.09l-0.726,0.194l-1.886-7.039
	l-5.219-3.014v6.026l5.152,5.154l-0.53,0.53l-5.372-5.374v-7.635l6.612,3.817L208.33,351.09z M206.8,352.146l-5.3-5.302v-3.88
	l3.359,1.939L206.8,352.146z M206.612,343.317L200,339.5l6.613-3.817l7.339,1.966l-0.194,0.724l-7.038-1.885l-5.22,3.013
	l5.219,3.013l7.04-1.885l0.193,0.724L206.612,343.317z M214.104,339.5l-7.245,1.94l-3.359-1.94l3.36-1.94L214.104,339.5z"/>
</svg>
