<?xml version="1.0" encoding="utf-8"?>
<!-- Generator: Adobe Illustrator 16.0.0, SVG Export Plug-In . SVG Version: 6.00 Build 0)  -->
<!DOCTYPE svg PUBLIC "-//W3C//DTD SVG 1.1//EN" "http://www.w3.org/Graphics/SVG/1.1/DTD/svg11.dtd">
<svg version="1.1" id="Layer_1" xmlns="http://www.w3.org/2000/svg" xmlns:xlink="http://www.w3.org/1999/xlink" x="0px" y="0px"
	 width="50px" height="50px" viewBox="314.5 314.5 50 50" enable-background="new 314.5 314.5 50 50" xml:space="preserve">
<path style="fill:white" d="M327.499,335.566c-0.138-0.239-0.056-0.545,0.184-0.684l1.913-1.103l-0.002-2.209c0-0.275,0.224-0.5,0.5-0.5
	s0.5,0.224,0.5,0.5l0.002,2.787l-2.413,1.392c-0.079,0.045-0.165,0.066-0.25,0.066C327.76,335.816,327.592,335.727,327.499,335.566z
	 M350.818,343.249l-2.412,1.392l0.002,2.785c0,0.276,0.224,0.5,0.5,0.5s0.5-0.225,0.5-0.5l-0.002-2.207l1.912-1.103
	c0.239-0.139,0.321-0.444,0.184-0.684C351.363,343.193,351.058,343.112,350.818,343.249z M337.088,327.824l2.413,1.393l2.412-1.393
	c0.239-0.138,0.321-0.443,0.183-0.683c-0.138-0.239-0.444-0.322-0.683-0.183l-1.912,1.104l-1.913-1.104
	c-0.24-0.141-0.546-0.057-0.683,0.183C336.767,327.381,336.849,327.687,337.088,327.824z M341.914,351.177l-2.413-1.393
	l-2.413,1.394c-0.239,0.138-0.321,0.443-0.183,0.683c0.092,0.16,0.261,0.25,0.433,0.25c0.085,0,0.171-0.021,0.25-0.067l1.913-1.104
	l1.913,1.104c0.239,0.139,0.545,0.057,0.683-0.183C342.235,351.62,342.153,351.314,341.914,351.177z M330.095,347.929
	c0.276,0,0.5-0.224,0.5-0.5l-0.001-2.785l-2.413-1.393c-0.238-0.139-0.545-0.057-0.683,0.183c-0.139,0.239-0.057,0.545,0.183,0.683
	l1.913,1.105l0.001,2.207C329.595,347.705,329.818,347.929,330.095,347.929z M348.906,331.073c-0.276,0-0.5,0.224-0.5,0.5v2.785
	l2.414,1.393c0.079,0.046,0.165,0.067,0.25,0.067c0.172,0,0.341-0.09,0.433-0.25c0.139-0.239,0.057-0.545-0.183-0.683l-1.914-1.105
	v-2.207C349.406,331.297,349.183,331.073,348.906,331.073z M357.395,339.5c0,0.276-0.224,0.5-0.5,0.5h-1.132l-1.234,2.136
	c-0.089,0.154-0.254,0.25-0.433,0.25h-2.752c-0.179,0-0.344-0.095-0.433-0.25l-0.428-0.739l-3.695,2.134l-0.152,0.088v0.177
	l-0.001,4.269h0.852c0.179,0,0.344,0.095,0.433,0.25l1.379,2.385c0.09,0.154,0.09,0.346,0,0.5l-1.235,2.134l0.567,0.982
	c0.139,0.239,0.057,0.545-0.183,0.683c-0.079,0.046-0.165,0.067-0.25,0.067c-0.172,0-0.341-0.09-0.433-0.25l-0.567-0.983
	l-2.466,0.002c-0.179,0-0.344-0.096-0.433-0.25l-1.376-2.385c-0.09-0.155-0.09-0.346,0-0.5l0.427-0.739l-3.696-2.133l-0.152-0.088
	l-0.154,0.089l-3.694,2.132l0.427,0.737c0.09,0.154,0.09,0.345,0,0.5l-1.378,2.387c-0.089,0.154-0.254,0.25-0.433,0.25h-2.467
	l-0.567,0.983c-0.092,0.16-0.261,0.25-0.433,0.25c-0.085,0-0.171-0.021-0.25-0.067c-0.239-0.138-0.321-0.443-0.183-0.683
	l0.567-0.982l-1.231-2.136c-0.089-0.155-0.089-0.346,0.001-0.5l1.377-2.387c0.089-0.154,0.254-0.25,0.433-0.25l0.852,0.001v-4.266
	v-0.177l-0.154-0.089l-3.694-2.134l-0.426,0.738c-0.089,0.154-0.254,0.25-0.433,0.25h-2.754c-0.179,0-0.344-0.096-0.434-0.25
	l-1.231-2.135h-1.136c-0.276,0-0.5-0.224-0.5-0.5s0.224-0.5,0.5-0.5h1.135l1.231-2.136c0.09-0.154,0.255-0.25,0.434-0.25
	l2.755,0.001c0.179,0,0.344,0.096,0.433,0.25l0.425,0.736l3.694-2.133l0.155-0.09v-0.175v-4.267l-0.854,0.001
	c-0.179,0-0.344-0.096-0.434-0.25l-1.377-2.388c-0.089-0.155-0.089-0.346,0.001-0.5l1.232-2.134l-0.566-0.981
	c-0.139-0.239-0.057-0.545,0.183-0.683c0.239-0.14,0.545-0.057,0.683,0.183l0.567,0.982l2.465-0.002c0.179,0,0.344,0.096,0.434,0.25
	l1.376,2.388c0.089,0.155,0.089,0.346-0.001,0.5l-0.424,0.734l3.695,2.134l0.154,0.089l0.151-0.088l3.695-2.132l-0.427-0.737
	c-0.09-0.154-0.09-0.345,0-0.5l1.378-2.387c0.089-0.154,0.254-0.25,0.433-0.25h2.467l0.567-0.983
	c0.138-0.239,0.444-0.32,0.683-0.183c0.239,0.138,0.321,0.443,0.183,0.683l-0.568,0.984l1.232,2.134c0.09,0.154,0.09,0.346,0,0.5
	l-1.379,2.387c-0.089,0.154-0.254,0.25-0.433,0.25l-0.85-0.001v4.265v0.179l0.152,0.088l3.697,2.134l0.425-0.734
	c0.089-0.154,0.254-0.25,0.432-0.25l2.755-0.003c0.001,0,0.001,0,0.001,0c0.179,0,0.344,0.096,0.434,0.25l1.23,2.134h1.134
	C357.171,339,357.395,339.224,357.395,339.5z M353.808,341.386l0.801-1.386l0.287-0.497l-0.29-0.503l-0.798-1.384l-2.177,0.003
	l-0.425,0.734l-0.199,0.344L350.832,339l-0.29,0.501l0.289,0.499l0.161,0.279l0.214,0.369l0.426,0.737H353.808z M346.192,336.281
	L344.203,339h5.474l0.308-0.531L346.192,336.281z M340.8,342.752l0.251-0.568l0.613,0.066l3.201,0.348L342.964,340l-0.365-0.499
	l0.366-0.501l1.9-2.598l-3.2,0.348l-0.615,0.067l-0.25-0.566l-1.3-2.948l-1.301,2.946l-0.25,0.567l-0.614-0.066l-3.2-0.348
	l1.9,2.599l0.366,0.5l-0.365,0.5l-1.901,2.597l3.201-0.348l0.615-0.067l0.25,0.567l1.299,2.946L340.8,342.752z M345.635,330.938
	l-0.613-0.001l-2.736,4.738l3.35-0.364V330.938z M345.021,326.168l-1.09,1.887l0.424,0.732l0.217,0.376l0.16,0.276l0.288,0.498
	l0.578,0.001h0.323h0.427l0.848,0.001l1.09-1.887l-0.8-1.385l-0.289-0.5h-0.576H345.021z M340.06,332.095l1.36,3.083l2.736-4.739
	l-0.308-0.531L340.06,332.095z M335.152,329.905l-0.308,0.532l2.735,4.739l1.361-3.084L335.152,329.905z M331.514,326.667
	l-0.8,1.385l1.089,1.888l0.85-0.001h0.43l0.32-0.001h0.576l0.289-0.5l0.163-0.283l0.211-0.364l0.425-0.735l-1.088-1.888
	l-1.599,0.001l-0.578,0.001L331.514,326.667z M333.367,335.313l3.349,0.364l-2.736-4.74l-0.612,0.001V335.313z M329.018,338.469
	l0.307,0.532h5.473l-1.99-2.72L329.018,338.469z M328.009,340.281l0.162-0.28l0.288-0.5l-0.289-0.5l-0.176-0.306l-0.198-0.343
	l-0.425-0.736l-2.177-0.001l-0.799,1.386l-0.288,0.499l0.289,0.501l0.799,1.385h2.176l0.425-0.736L328.009,340.281z
	 M332.808,342.719l1.989-2.718h-5.473l-0.307,0.531L332.808,342.719z M333.367,348.062l0.612,0.001l2.736-4.739l-3.349,0.363
	V348.062z M333.979,352.833l1.09-1.887l-0.426-0.735l-0.214-0.369l-0.161-0.279l-0.289-0.499l-0.577-0.001h-0.32h-0.43l-0.848-0.001
	l-1.089,1.887l0.799,1.385l0.288,0.5h0.577H333.979z M338.941,346.907l-1.359-3.084l-2.737,4.74l0.307,0.53L338.941,346.907z
	 M343.85,349.094l0.307-0.529l-2.737-4.74l-1.359,3.082L343.85,349.094z M347.486,352.334l0.802-1.386l-1.09-1.885h-0.854h-0.418
	h-0.327h-0.577l-0.289,0.5l-0.16,0.278l-0.202,0.349l-0.438,0.758l1.088,1.885l1.6-0.001l0.578-0.001L347.486,352.334z
	 M345.636,343.687l-3.353-0.364l2.737,4.741h0.614L345.636,343.687z M349.983,340.531L349.677,340h-5.474l1.99,2.719
	L349.983,340.531z"/>
</svg>
