<?xml version="1.0" encoding="utf-8"?>
<!-- Generator: Adobe Illustrator 16.0.0, SVG Export Plug-In . SVG Version: 6.00 Build 0)  -->
<!DOCTYPE svg PUBLIC "-//W3C//DTD SVG 1.1//EN" "http://www.w3.org/Graphics/SVG/1.1/DTD/svg11.dtd">
<svg version="1.1" id="Layer_1" xmlns="http://www.w3.org/2000/svg" xmlns:xlink="http://www.w3.org/1999/xlink" x="0px" y="0px"
	 width="50px" height="50px" viewBox="-105.5 34.5 50 50" enable-background="new -105.5 34.5 50 50" xml:space="preserve">
<path style="fill:white" d="M-63.856,66.319c0-0.268-0.143-0.515-0.375-0.648l-2.042-1.18c-0.23-0.134-0.516-0.133-0.749-0.001l-1.667,0.963
	l-3.714-2.144l5.145-1.378c0.4-0.107,0.638-0.519,0.531-0.919s-0.519-0.639-0.918-0.53l-5.915,1.584
	c0.297-0.801,0.468-1.663,0.468-2.566c0-0.905-0.171-1.769-0.469-2.571l5.916,1.586c0.065,0.018,0.13,0.025,0.195,0.025
	c0.331,0,0.634-0.221,0.724-0.556c0.107-0.4-0.13-0.812-0.53-0.919l-5.141-1.377l3.707-2.141l1.667,0.961
	c0.116,0.067,0.245,0.101,0.375,0.101s0.258-0.033,0.375-0.101l2.043-1.177c0.232-0.134,0.375-0.382,0.375-0.649l-0.002-1.252
	l0.001-1.106c0-0.269-0.143-0.517-0.375-0.65l-2.043-1.178c-0.232-0.134-0.518-0.134-0.749,0.001l-2.04,1.176
	c-0.233,0.134-0.376,0.382-0.376,0.649v1.927l-3.71,2.142l1.379-5.144c0.107-0.4-0.13-0.812-0.53-0.919
	c-0.4-0.105-0.812,0.131-0.919,0.53l-1.584,5.911c-1.107-1.331-2.673-2.262-4.451-2.564l4.33-4.329c0.293-0.293,0.293-0.768,0-1.061
	s-0.768-0.293-1.061,0l-3.764,3.764v-4.285l1.665-0.96c0.233-0.135,0.376-0.382,0.376-0.65v-2.357c0-0.268-0.143-0.515-0.374-0.648
	l-2.042-1.181c-0.232-0.135-0.518-0.135-0.751,0l-2.042,1.18c-0.231,0.135-0.374,0.382-0.374,0.649v2.357
	c0,0.269,0.143,0.516,0.375,0.649l1.667,0.961v4.285l-3.764-3.764c-0.293-0.293-0.768-0.293-1.061,0s-0.293,0.768,0,1.061
	l4.33,4.329c-1.778,0.303-3.343,1.233-4.451,2.564l-1.584-5.911c-0.107-0.399-0.518-0.637-0.919-0.53
	c-0.4,0.107-0.637,0.519-0.53,0.919l1.379,5.144l-3.711-2.143l0.001-0.821l-0.001-1.104c0-0.268-0.143-0.515-0.375-0.648
	l-2.041-1.177c-0.231-0.134-0.517-0.134-0.748-0.001l-2.043,1.178c-0.232,0.134-0.375,0.382-0.375,0.649l-0.001,2.356
	c0,0.268,0.143,0.516,0.375,0.649l2.043,1.181c0.116,0.066,0.245,0.1,0.374,0.1s0.258-0.033,0.375-0.101l1.666-0.962l3.709,2.142
	l-5.141,1.377c-0.4,0.107-0.637,0.519-0.53,0.919c0.09,0.335,0.393,0.556,0.724,0.556c0.064,0,0.129-0.008,0.195-0.025l5.916-1.586
	c-0.298,0.803-0.469,1.666-0.469,2.571c0,0.903,0.17,1.766,0.468,2.566l-5.915-1.584c-0.398-0.107-0.811,0.13-0.918,0.53
	c-0.107,0.4,0.13,0.812,0.531,0.919l5.145,1.378l-3.715,2.145l-1.668-0.962c-0.232-0.133-0.517-0.134-0.748,0.001l-2.039,1.178
	c-0.232,0.134-0.375,0.381-0.375,0.648l-0.001,1.109l0.001,0.143l-0.001,1.104c0,0.269,0.143,0.517,0.375,0.65l2.043,1.18
	c0.116,0.066,0.245,0.1,0.374,0.1s0.258-0.033,0.375-0.101l2.041-1.179c0.232-0.134,0.375-0.382,0.375-0.649l-0.001-1.252l0-0.672
	l3.712-2.143l-1.376,5.14c-0.107,0.4,0.13,0.812,0.531,0.919c0.065,0.018,0.13,0.025,0.194,0.025c0.331,0,0.634-0.221,0.724-0.556
	l1.582-5.909c1.107,1.331,2.672,2.262,4.449,2.565l-4.327,4.327c-0.293,0.293-0.293,0.768,0,1.061s0.768,0.293,1.061,0l3.764-3.765
	v4.288l-1.667,0.961c-0.232,0.134-0.375,0.381-0.375,0.649v2.357c0,0.268,0.143,0.515,0.374,0.649l2.042,1.18
	c0.116,0.067,0.246,0.101,0.375,0.101s0.259-0.033,0.375-0.101l2.042-1.18c0.231-0.135,0.374-0.382,0.374-0.649v-2.357
	c0-0.269-0.143-0.516-0.375-0.649l-1.666-0.961v-4.288l3.764,3.767c0.146,0.146,0.338,0.22,0.53,0.22s0.384-0.073,0.53-0.22
	c0.293-0.293,0.293-0.768,0-1.061l-4.328-4.329c1.777-0.304,3.342-1.234,4.449-2.565l1.582,5.909
	c0.09,0.335,0.393,0.556,0.724,0.556c0.064,0,0.129-0.008,0.194-0.025c0.4-0.107,0.638-0.519,0.531-0.919l-1.376-5.14l3.71,2.142
	v1.925c0,0.268,0.143,0.516,0.375,0.649l2.042,1.179c0.116,0.067,0.245,0.101,0.375,0.101s0.258-0.033,0.374-0.1l2.042-1.18
	c0.232-0.134,0.375-0.382,0.375-0.649l0.001-1.254L-63.856,66.319z M-67.941,51.383l0-0.625l1.292-0.746l0.542,0.312l0.749,0.432
	l0.001,0.867l0,0.627l-1.293,0.744l-0.542-0.312l-0.75-0.433l-0.001-0.818V51.383z M-94.352,52.994l-1.292-0.747l0-0.624l0-0.867
	l0.749-0.432l0.541-0.312l1.292,0.745v0.625l0,0.865l-0.75,0.434L-94.352,52.994z M-93.062,68.244l-1.291,0.746l-0.542-0.313
	l-0.749-0.433l0-0.677l-0.001-0.143v-0.047l0-0.624l1.292-0.746l0.541,0.312l0.75,0.433l0,0.866V68.244z M-79.75,65.355
	c-0.246,0.031-0.495,0.053-0.75,0.053s-0.504-0.021-0.75-0.053c-1.604-0.205-3.006-1.054-3.943-2.28
	c-0.303-0.396-0.561-0.829-0.757-1.295c-0.295-0.702-0.458-1.473-0.458-2.28s0.164-1.578,0.458-2.28
	c0.196-0.466,0.454-0.898,0.757-1.295c0.937-1.227,2.339-2.075,3.943-2.28c0.246-0.031,0.495-0.053,0.75-0.053
	s0.504,0.021,0.75,0.053c1.604,0.205,3.006,1.054,3.943,2.28c0.303,0.396,0.561,0.829,0.757,1.295
	c0.295,0.702,0.458,1.473,0.458,2.28s-0.164,1.578-0.458,2.28c-0.196,0.466-0.454,0.898-0.757,1.295
	C-76.744,64.302-78.146,65.15-79.75,65.355z M-81.792,42.759l0.542-0.313l0.75-0.433l0.75,0.433l0.541,0.312v1.492l-0.541,0.312
	l-0.75,0.433l-0.75-0.432l-0.542-0.312V42.759z M-79.209,76.241l-0.541,0.312l-0.75,0.434l-0.75-0.433l-0.542-0.313V74.75
	l0.542-0.312l0.75-0.432l0.75,0.433l0.541,0.312V76.241z M-67.938,67.618v-0.195l0-0.67l0.75-0.434l0.541-0.313l1.292,0.747v0.624
	l0,0.867l-0.749,0.433l-0.542,0.313l-1.292-0.746L-67.938,67.618z"/>
</svg>
