<?xml version="1.0" encoding="utf-8"?>
<!-- Generator: Adobe Illustrator 16.0.0, SVG Export Plug-In . SVG Version: 6.00 Build 0)  -->
<!DOCTYPE svg PUBLIC "-//W3C//DTD SVG 1.1//EN" "http://www.w3.org/Graphics/SVG/1.1/DTD/svg11.dtd">
<svg version="1.1" id="Layer_1" xmlns="http://www.w3.org/2000/svg" xmlns:xlink="http://www.w3.org/1999/xlink" x="0px" y="0px"
	 width="50px" height="50px" viewBox="-35.5 -35.5 50 50" enable-background="new -35.5 -35.5 50 50" xml:space="preserve">
<path style="fill:white" d="M4.814-2.236L3.833-2.803v-2.466c0-0.179-0.095-0.344-0.25-0.433L1.198-7.079c-0.154-0.089-0.346-0.089-0.5,0l-2.136,1.233
	l-1.612-0.931L2.678-8.31c0.267-0.071,0.425-0.346,0.354-0.612C2.961-9.188,2.687-9.346,2.419-9.275l-6.426,1.721L-6.163-10.5
	l2.159-2.949l6.423,1.722c0.043,0.012,0.087,0.017,0.13,0.017c0.221,0,0.422-0.147,0.482-0.371c0.071-0.267-0.087-0.541-0.354-0.612
	l-5.723-1.534l1.606-0.928l2.135,1.232c0.078,0.044,0.164,0.067,0.25,0.067s0.172-0.022,0.25-0.067l2.387-1.377
	c0.155-0.089,0.25-0.255,0.25-0.434l-0.002-2.463l0.983-0.568c0.239-0.138,0.321-0.444,0.183-0.683
	c-0.139-0.24-0.445-0.322-0.683-0.183l-0.983,0.568l-2.135-1.234c-0.154-0.089-0.345-0.089-0.5,0l-2.385,1.376
	c-0.155,0.089-0.25,0.254-0.25,0.433v2.467l-1.608,0.929l1.534-5.727c0.071-0.267-0.087-0.541-0.354-0.612
	c-0.264-0.07-0.541,0.087-0.612,0.354L-4.7-14.651l-3.631,0.395l-1.474-3.342l4.704-4.703c0.195-0.195,0.195-0.512,0-0.707
	s-0.512-0.195-0.707,0L-10-18.817v-1.86l2.134-1.229c0.155-0.089,0.25-0.254,0.25-0.433v-2.756c0-0.179-0.095-0.344-0.25-0.433
	L-10-26.762v-1.134c0-0.276-0.224-0.5-0.5-0.5s-0.5,0.224-0.5,0.5v1.134l-2.135,1.233c-0.155,0.089-0.25,0.254-0.25,0.433v2.756
	c0,0.179,0.096,0.344,0.25,0.433L-11-20.677v1.86l-4.191-4.19c-0.195-0.195-0.512-0.195-0.707,0s-0.195,0.512,0,0.707l4.704,4.703
	l-1.474,3.342l-3.631-0.395l-1.721-6.426c-0.071-0.267-0.344-0.425-0.612-0.354c-0.267,0.071-0.425,0.346-0.354,0.612l1.534,5.727
	l-1.61-0.93v-2.466c0-0.179-0.095-0.344-0.25-0.433l-2.383-1.376c-0.154-0.089-0.346-0.089-0.5,0l-2.135,1.234l-0.983-0.568
	c-0.239-0.139-0.545-0.056-0.683,0.183s-0.056,0.545,0.183,0.683l0.983,0.568l-0.002,2.463c0,0.179,0.095,0.344,0.25,0.434
	l2.385,1.377c0.077,0.044,0.164,0.067,0.25,0.067s0.173-0.022,0.25-0.067l2.135-1.233l1.608,0.929l-5.723,1.534
	c-0.267,0.071-0.425,0.346-0.354,0.612c0.06,0.224,0.262,0.371,0.482,0.371c0.043,0,0.086-0.005,0.13-0.017l6.423-1.722l2.159,2.949
	l-2.156,2.945l-6.426-1.721c-0.266-0.07-0.541,0.087-0.612,0.354c-0.071,0.267,0.087,0.541,0.354,0.612l5.728,1.534l-1.612,0.931
	L-21.7-7.078c-0.154-0.089-0.345-0.089-0.5,0l-2.383,1.376c-0.155,0.089-0.25,0.254-0.25,0.433l-0.002,2.467l-0.98,0.566
	c-0.239,0.138-0.321,0.444-0.183,0.683c0.093,0.161,0.261,0.25,0.434,0.25c0.085,0,0.171-0.021,0.25-0.067l0.983-0.567l2.134,1.233
	c0.077,0.044,0.164,0.067,0.25,0.067s0.173-0.022,0.25-0.067l2.385-1.379c0.154-0.089,0.25-0.254,0.25-0.433v-2.463l1.608-0.929
	l-1.531,5.723c-0.071,0.267,0.087,0.541,0.354,0.612c0.043,0.012,0.087,0.017,0.13,0.017c0.221,0,0.423-0.147,0.482-0.371
	l1.718-6.422l3.632-0.396l1.473,3.34l-4.703,4.703c-0.195,0.195-0.195,0.512,0,0.707s0.512,0.195,0.707,0L-11-2.185v1.862
	l-2.134,1.229c-0.155,0.089-0.25,0.254-0.25,0.433v2.756c0,0.179,0.095,0.344,0.25,0.433L-11,5.762v1.134c0,0.276,0.224,0.5,0.5,0.5
	s0.5-0.224,0.5-0.5V5.762l2.135-1.233c0.155-0.089,0.25-0.254,0.25-0.433V1.34c0-0.179-0.096-0.344-0.25-0.433L-10-0.323v-1.862
	l4.191,4.193c0.098,0.098,0.226,0.146,0.354,0.146s0.256-0.049,0.354-0.146c0.195-0.195,0.195-0.512,0-0.707l-4.703-4.704
	l1.473-3.341l3.632,0.396l1.718,6.422c0.06,0.223,0.262,0.371,0.482,0.371c0.043,0,0.086-0.005,0.13-0.017
	c0.267-0.071,0.425-0.345,0.354-0.612l-1.531-5.723l1.609,0.929v2.462c0,0.179,0.095,0.343,0.25,0.433l2.385,1.379
	c0.078,0.045,0.164,0.067,0.25,0.067s0.173-0.022,0.25-0.067l2.132-1.233L4.314-1.37c0.079,0.045,0.165,0.067,0.25,0.067
	c0.173,0,0.341-0.09,0.434-0.25C5.136-1.792,5.054-2.098,4.814-2.236z M-21.948-14.933l-1.885-1.088l0.001-1.598l0-0.578l0.5-0.289
	l1.385-0.8l1.883,1.087v1.6v0.578l-0.5,0.289L-21.948-14.933z M-8.615,3.807L-10,4.607l-0.5,0.289L-11,4.607l-1.385-0.8V1.629
	L-11,0.831l0.5-0.288l0.5,0.288l1.385,0.798V3.807z M-10-5.439l-0.5,1.134L-11-5.439l-1.048-2.378l-2.585,0.281l-1.232,0.134
	l0.732-1l1.536-2.098l-1.536-2.098l-0.732-1l1.232,0.134l2.585,0.281L-11-15.561l0.5-1.134l0.5,1.134l1.048,2.378l2.585-0.281
	l1.232-0.134l-0.732,1L-7.402-10.5l1.536,2.098l0.732,1l-1.232-0.134l-2.585-0.281L-10-5.439z M-12.385-24.807l1.385-0.8l0.5-0.289
	l0.5,0.289l1.385,0.8v2.178L-10-21.831l-0.5,0.288l-0.5-0.288l-1.385-0.798V-24.807z M-0.938-18.199l1.885-1.087l1.385,0.801
	l0.5,0.289l0,0.578l0.001,1.598l-1.887,1.088l-1.385-0.799l-0.5-0.289v-0.578V-18.199z M-20.062-2.805l-1.885,1.09l-1.384-0.8
	l-0.502-0.29l0-0.575l0.001-1.601l1.883-1.087l1.387,0.799l0.5,0.289v0.578V-2.805z M0.948-1.714l-1.885-1.09v-1.597V-4.98
	l0.499-0.288l1.386-0.8L2.833-4.98v1.6v0.575l-0.501,0.29L0.948-1.714z"/>
</svg>
