<?xml version="1.0" encoding="utf-8"?>
<!-- Generator: Adobe Illustrator 16.0.0, SVG Export Plug-In . SVG Version: 6.00 Build 0)  -->
<!DOCTYPE svg PUBLIC "-//W3C//DTD SVG 1.1//EN" "http://www.w3.org/Graphics/SVG/1.1/DTD/svg11.dtd">
<svg version="1.1" id="Layer_1" xmlns="http://www.w3.org/2000/svg" xmlns:xlink="http://www.w3.org/1999/xlink" x="0px" y="0px"
	 width="50px" height="50px" viewBox="34.5 174.5 50 50" enable-background="new 34.5 174.5 50 50" xml:space="preserve">
<path style="fill:white" d="M78.412,199.123l-1.574-2.727c-0.134-0.232-0.382-0.375-0.649-0.375h-3.147c-0.268,0-0.516,0.143-0.649,0.375l-1.358,2.354
	h-3.352l1.577-2.731c0.207-0.358,0.084-0.817-0.274-1.024c-0.359-0.208-0.818-0.084-1.024,0.274l-1.802,3.12
	c-0.247-1.486-0.978-2.807-2.028-3.798l3.441-0.001c0.414,0,0.75-0.336,0.75-0.75s-0.336-0.75-0.75-0.75l-3.505,0.001l1.849-3.202
	h2.716c0.268,0,0.516-0.143,0.649-0.375l1.575-2.729c0.134-0.232,0.134-0.519,0-0.75l-1.575-2.726
	c-0.134-0.232-0.382-0.375-0.649-0.375h-3.149c-0.268,0-0.516,0.143-0.649,0.375l-1.575,2.726c-0.134,0.231-0.134,0.518,0,0.75
	l1.359,2.354l-1.761,3.05l-1.575-2.729c-0.206-0.358-0.665-0.482-1.024-0.274c-0.358,0.207-0.481,0.666-0.274,1.024l1.668,2.89
	c-0.676-0.228-1.397-0.356-2.149-0.356c-0.671,0-1.317,0.102-1.93,0.284l1.627-2.817c0.207-0.358,0.084-0.817-0.274-1.024
	c-0.36-0.208-0.817-0.084-1.024,0.274l-1.665,2.885l-1.853-3.208l1.36-2.35c0.134-0.232,0.134-0.519,0-0.751l-1.577-2.729
	c-0.134-0.232-0.382-0.375-0.649-0.375h-3.148c-0.268,0-0.516,0.143-0.649,0.375l-1.575,2.728c-0.134,0.232-0.134,0.518,0,0.75
	l1.576,2.729c0.134,0.232,0.382,0.375,0.649,0.375h0.001l2.714-0.003l1.85,3.204h-3.322c-0.414,0-0.75,0.336-0.75,0.75
	s0.336,0.75,0.75,0.75h3.262c-0.994,0.938-1.709,2.168-1.992,3.557l-1.663-2.877c-0.207-0.359-0.664-0.481-1.024-0.274
	c-0.359,0.207-0.481,0.666-0.274,1.024l1.578,2.73h-3.531l-1.358-2.354c-0.134-0.232-0.382-0.375-0.649-0.375h-3.147
	c-0.269,0-0.516,0.144-0.65,0.376l-1.571,2.729c-0.133,0.231-0.133,0.517,0,0.748l1.569,2.727c0.134,0.232,0.382,0.376,0.65,0.376
	l3.149,0.002c0.268,0,0.516-0.143,0.649-0.375l1.358-2.354h3.705l-1.751,3.032c-0.207,0.358-0.084,0.817,0.274,1.024
	c0.118,0.068,0.247,0.101,0.374,0.101c0.26,0,0.512-0.135,0.65-0.375l1.715-2.969c0.346,1.45,1.154,2.725,2.268,3.646h-3.59
	c-0.414,0-0.75,0.336-0.75,0.75s0.336,0.75,0.75,0.75h3.151l-1.677,2.904l-2.718,0.002c-0.269,0-0.516,0.143-0.649,0.375
	l-1.575,2.725c-0.134,0.231-0.134,0.518,0,0.75l1.572,2.727c0.134,0.231,0.381,0.375,0.649,0.375l3.152,0.002
	c0.269,0,0.516-0.144,0.65-0.376l1.572-2.73c0.133-0.231,0.133-0.518-0.001-0.749l-1.355-2.348l1.766-3.059l1.753,3.035
	c0.139,0.24,0.391,0.375,0.65,0.375c0.127,0,0.256-0.032,0.374-0.101c0.358-0.207,0.481-0.666,0.274-1.024l-1.841-3.188
	c0.674,0.226,1.393,0.354,2.142,0.354c0.834,0,1.63-0.159,2.368-0.437l-1.889,3.27c-0.207,0.358-0.084,0.817,0.274,1.024
	c0.118,0.068,0.247,0.101,0.374,0.101c0.26,0,0.512-0.135,0.65-0.375l1.663-2.88l1.677,2.904l-1.36,2.347
	c-0.135,0.232-0.136,0.519-0.001,0.751l1.576,2.73c0.134,0.232,0.382,0.375,0.649,0.375h3.15c0.268,0,0.516-0.143,0.649-0.375
	l1.573-2.727c0.134-0.232,0.134-0.518,0-0.75l-1.575-2.73c-0.134-0.232-0.382-0.375-0.649-0.375H68.63l-2.714,0.003l-1.678-2.906
	l3.331,0.001c0.414,0,0.75-0.336,0.75-0.75s-0.336-0.75-0.75-0.75l-3.769-0.001c1.169-0.967,2.008-2.318,2.321-3.858l1.838,3.184
	c0.139,0.24,0.391,0.375,0.65,0.375c0.127,0,0.256-0.032,0.374-0.101c0.358-0.207,0.481-0.666,0.274-1.024l-1.751-3.033h3.526
	l1.354,2.35c0.134,0.231,0.381,0.375,0.649,0.375l3.151,0.002c0.269,0,0.516-0.144,0.649-0.375l1.573-2.729
	C78.546,199.641,78.546,199.354,78.412,199.123z M67.332,184.434h0.866l0.434,0.75l0.708,1.226l-1.143,1.979h-1.416h-0.867
	l-0.433-0.75l-0.709-1.229l1.142-1.976H67.332z M50.8,188.388l-1.143-1.979l0.709-1.228l0.433-0.75h0.866h1.417l1.144,1.979
	l-0.71,1.227l-0.434,0.749l-0.865,0.001L50.8,188.388z M46.665,199.5l-0.433,0.75l-0.709,1.229l-2.283-0.002l-0.706-1.227
	l-0.432-0.75l0.432-0.75l0.708-1.229h2.281l0.709,1.229L46.665,199.5z M51.667,214.567l-0.87-0.001l-0.431-0.746l-0.709-1.23
	l1.142-1.975l1.419-0.001l0.864-0.001l0.434,0.752l0.706,1.224l-1.14,1.979L51.667,214.567z M68.198,210.612l1.142,1.979
	l-0.708,1.227l-0.433,0.75h-0.866h-1.418l-1.143-1.979l0.71-1.226l0.435-0.749l0.864-0.001L68.198,210.612z M62.738,203.61
	c-0.393,0.311-0.819,0.575-1.291,0.764c-0.604,0.242-1.258,0.384-1.947,0.384s-1.345-0.142-1.948-0.384
	c-0.471-0.189-0.898-0.454-1.291-0.764c-1.032-0.815-1.746-1.999-1.942-3.36c-0.036-0.247-0.076-0.493-0.076-0.75
	s0.04-0.503,0.076-0.75c0.196-1.361,0.91-2.544,1.942-3.359c0.393-0.311,0.819-0.575,1.29-0.765c0.604-0.242,1.26-0.384,1.949-0.384
	s1.345,0.142,1.948,0.384c0.471,0.189,0.898,0.454,1.291,0.764c1.032,0.815,1.746,1.999,1.942,3.36
	c0.036,0.247,0.076,0.493,0.076,0.75s-0.04,0.503-0.076,0.75C64.485,201.611,63.771,202.795,62.738,203.61z M73.472,201.475
	l-0.706-1.225l-0.433-0.751l0.432-0.749l0.709-1.229h2.282l0.709,1.229l0.432,0.748l-0.434,0.752l-0.707,1.227L73.472,201.475z"/>
</svg>
