<?xml version="1.0" encoding="utf-8"?>
<!-- Generator: Adobe Illustrator 16.0.0, SVG Export Plug-In . SVG Version: 6.00 Build 0)  -->
<!DOCTYPE svg PUBLIC "-//W3C//DTD SVG 1.1//EN" "http://www.w3.org/Graphics/SVG/1.1/DTD/svg11.dtd">
<svg version="1.1" id="Layer_1" xmlns="http://www.w3.org/2000/svg" xmlns:xlink="http://www.w3.org/1999/xlink" x="0px" y="0px"
	 width="50px" height="50px" viewBox="-245.5 34.5 50 50" enable-background="new -245.5 34.5 50 50" xml:space="preserve">
<path style="fill:white" d="M-205.147,61.599L-206.748,60h1.247c0.276,0,0.5-0.224,0.5-0.5s-0.224-0.5-0.5-0.5h-1.248l1.601-1.602
	c0.195-0.195,0.195-0.512,0-0.707s-0.512-0.195-0.707,0L-208.163,59h-3.241l-4.701-1.32l2.391-4.26l2.291-2.29l3.264-0.002
	c0.276,0,0.5-0.225,0.5-0.5c0-0.276-0.224-0.5-0.5-0.5c0,0,0,0,0,0l-2.263,0.001l0.882-0.882c0.195-0.195,0.195-0.512,0-0.707
	s-0.512-0.195-0.707,0l-0.881,0.881v-2.263c0-0.276-0.224-0.5-0.5-0.5s-0.5,0.224-0.5,0.5v3.263l-2.295,2.296l-4.256,2.389
	L-220,50.404v-3.242l2.307-2.309c0.195-0.195,0.195-0.512,0-0.707s-0.512-0.195-0.707,0l-1.6,1.602V44.5c0-0.276-0.224-0.5-0.5-0.5
	s-0.5,0.224-0.5,0.5v1.248l-1.602-1.602c-0.195-0.195-0.512-0.195-0.707,0s-0.195,0.512,0,0.707l2.309,2.309v3.242l-1.319,4.701
	l-4.261-2.392l-2.291-2.291l-0.002-3.264c0-0.276-0.224-0.5-0.5-0.5c0,0,0,0,0,0c-0.276,0-0.5,0.225-0.5,0.5l0.001,2.263
	l-0.882-0.882c-0.195-0.195-0.512-0.195-0.707,0s-0.195,0.512,0,0.707l0.882,0.882l-2.265,0.001c-0.276,0-0.5,0.224-0.5,0.5
	s0.224,0.5,0.5,0.5l3.265-0.001l2.295,2.295l2.388,4.256l-4.701,1.32h-3.242l-2.309-2.306c-0.195-0.195-0.512-0.195-0.708,0
	c-0.195,0.195-0.195,0.512,0,0.707l1.601,1.599h-1.247c-0.276,0-0.5,0.224-0.5,0.5s0.224,0.5,0.5,0.5h1.248l-1.601,1.602
	c-0.195,0.195-0.195,0.512,0,0.707c0.098,0.098,0.226,0.146,0.354,0.146s0.256-0.049,0.354-0.146l2.309-2.309h3.241l4.701,1.32
	l-2.388,4.256l-2.295,2.294l-3.264,0.002c-0.276,0-0.5,0.225-0.5,0.5c0,0.276,0.224,0.5,0.5,0.5h0l2.263-0.001l-0.882,0.882
	c-0.195,0.195-0.195,0.512,0,0.707c0.098,0.098,0.226,0.146,0.354,0.146s0.256-0.049,0.354-0.146l0.883-0.883v2.265
	c0,0.276,0.224,0.5,0.5,0.5s0.5-0.224,0.5-0.5v-3.265l2.291-2.291l4.261-2.392l1.319,4.701v3.242l-2.307,2.309
	c-0.195,0.195-0.195,0.512,0,0.707c0.098,0.098,0.226,0.146,0.354,0.146s0.256-0.049,0.354-0.146l1.6-1.602V74.5
	c0,0.276,0.224,0.5,0.5,0.5s0.5-0.224,0.5-0.5v-1.248l1.602,1.602c0.195,0.195,0.512,0.195,0.707,0s0.195-0.512,0-0.707L-220,71.838
	v-3.242l1.319-4.701l4.256,2.389l2.295,2.296l0.002,3.262c0,0.276,0.224,0.5,0.5,0.5h0c0.276,0,0.5-0.225,0.5-0.5l-0.001-2.261
	l0.88,0.88c0.098,0.098,0.226,0.146,0.354,0.146s0.256-0.049,0.354-0.146c0.195-0.195,0.195-0.512,0-0.707l-0.882-0.882l2.265-0.001
	c0.276,0,0.5-0.224,0.5-0.5s-0.224-0.5-0.5-0.5l-3.265,0.001l-2.291-2.291l-2.391-4.26l4.701-1.32h3.242l2.309,2.306
	c0.098,0.098,0.226,0.146,0.354,0.146s0.256-0.049,0.354-0.146C-204.952,62.11-204.952,61.794-205.147,61.599z M-215.103,60
	l-2.497,0.701l1.271,2.266l0.903,1.609l-1.614-0.906l-2.262-1.27l-0.7,2.494l-0.5,1.781l-0.5-1.781l-0.7-2.494l-2.266,1.272
	l-1.61,0.903l0.906-1.613l1.269-2.262L-225.898,60l-1.78-0.5l1.78-0.5l2.497-0.701l-1.269-2.262l-0.906-1.613l1.61,0.903
	l2.266,1.272l0.7-2.494l0.5-1.781l0.5,1.781l0.7,2.494l2.262-1.27l1.614-0.906l-0.903,1.609l-1.271,2.266l2.497,0.701l1.78,0.5
	L-215.103,60z"/>
</svg>
