<?xml version="1.0" encoding="utf-8"?>
<!-- Generator: Adobe Illustrator 16.0.0, SVG Export Plug-In . SVG Version: 6.00 Build 0)  -->
<!DOCTYPE svg PUBLIC "-//W3C//DTD SVG 1.1//EN" "http://www.w3.org/Graphics/SVG/1.1/DTD/svg11.dtd">
<svg version="1.1" id="Layer_1" xmlns="http://www.w3.org/2000/svg" xmlns:xlink="http://www.w3.org/1999/xlink" x="0px" y="0px"
	 width="50px" height="50px" viewBox="314.5 -105.5 50 50" enable-background="new 314.5 -105.5 50 50" xml:space="preserve">
<path style="fill:white" d="M354.371-79.019l-7.724,2.068l-1.527-0.882l-2.286-2.667l2.287-2.668l1.527-0.881l7.723,2.069
	c0.043,0.012,0.086,0.017,0.129,0.017c0.221,0,0.423-0.147,0.483-0.371c0.071-0.267-0.087-0.541-0.354-0.612l-6.757-1.81
	l3.018-1.742l2.949,0.791c0.044,0.012,0.087,0.017,0.13,0.017c0.221,0,0.423-0.147,0.483-0.371c0.071-0.267-0.087-0.541-0.354-0.612
	l-1.984-0.532l2.198-1.269c0.239-0.138,0.321-0.444,0.183-0.683c-0.138-0.24-0.443-0.321-0.683-0.183l-2.196,1.268l0.531-1.981
	c0.071-0.267-0.087-0.541-0.354-0.612c-0.269-0.069-0.541,0.087-0.613,0.354l-0.789,2.947l-3.018,1.743l1.811-6.755
	c0.071-0.267-0.087-0.541-0.354-0.612c-0.269-0.07-0.541,0.086-0.613,0.354l-2.068,7.721l-1.528,0.882l-3.455,0.647L340-86.701
	v-1.765l5.652-5.653c0.195-0.195,0.195-0.512,0-0.707s-0.512-0.195-0.707,0L340-89.88v-3.484l2.158-2.158
	c0.195-0.195,0.195-0.512,0-0.707s-0.512-0.195-0.707,0L340-94.778v-2.536c0-0.276-0.224-0.5-0.5-0.5s-0.5,0.224-0.5,0.5v2.536
	l-1.451-1.451c-0.195-0.195-0.512-0.195-0.707,0s-0.195,0.512,0,0.707L339-93.364v3.484l-4.945-4.946
	c-0.195-0.195-0.512-0.195-0.707,0s-0.195,0.512,0,0.707L339-88.466v1.764l-1.168,3.315l-3.453-0.647l-1.528-0.882l-2.068-7.721
	c-0.072-0.267-0.342-0.424-0.613-0.354c-0.267,0.071-0.425,0.346-0.354,0.612l1.811,6.755l-3.018-1.743l-0.789-2.947
	c-0.072-0.268-0.343-0.424-0.613-0.354c-0.267,0.071-0.425,0.346-0.354,0.612l0.531,1.981l-2.196-1.268
	c-0.238-0.136-0.545-0.056-0.683,0.183c-0.139,0.239-0.057,0.545,0.183,0.683l2.198,1.269l-1.984,0.532
	c-0.267,0.071-0.425,0.346-0.354,0.612c0.061,0.224,0.263,0.371,0.483,0.371c0.043,0,0.086-0.005,0.13-0.017l2.949-0.791
	l3.018,1.742l-6.757,1.81c-0.268,0.071-0.426,0.346-0.354,0.612c0.061,0.224,0.263,0.371,0.483,0.371
	c0.043,0,0.086-0.005,0.129-0.017l7.723-2.069l1.526,0.881l2.288,2.669l-2.288,2.668l-1.526,0.881l-7.723-2.069
	c-0.262-0.07-0.54,0.087-0.612,0.354c-0.071,0.267,0.087,0.541,0.354,0.612l6.757,1.81l-3.019,1.743l-2.947-0.79
	c-0.268-0.071-0.541,0.086-0.613,0.354c-0.071,0.267,0.087,0.541,0.354,0.612l1.982,0.531l-2.197,1.269
	c-0.239,0.138-0.321,0.444-0.183,0.683c0.092,0.161,0.261,0.25,0.433,0.25c0.085,0,0.171-0.021,0.25-0.067l2.197-1.269l-0.531,1.981
	c-0.071,0.267,0.087,0.541,0.354,0.612c0.043,0.012,0.086,0.017,0.129,0.017c0.221,0,0.423-0.147,0.483-0.371l0.789-2.947
	l3.017-1.742l-1.811,6.755c-0.071,0.267,0.087,0.541,0.354,0.612c0.044,0.012,0.087,0.017,0.13,0.017
	c0.221,0,0.423-0.147,0.483-0.371l2.068-7.721l1.527-0.882l3.454-0.648L339-74.297v1.762l-5.652,5.654
	c-0.195,0.195-0.195,0.512,0,0.707s0.512,0.195,0.707,0L339-71.121v3.485l-2.158,2.158c-0.195,0.195-0.195,0.512,0,0.707
	s0.512,0.195,0.707,0L339-66.222v2.536c0,0.276,0.224,0.5,0.5,0.5s0.5-0.224,0.5-0.5v-2.536l1.451,1.451
	c0.098,0.098,0.226,0.146,0.354,0.146s0.256-0.049,0.354-0.146c0.195-0.195,0.195-0.512,0-0.707L340-67.636v-3.485l4.945,4.947
	c0.098,0.098,0.226,0.146,0.354,0.146s0.256-0.049,0.354-0.146c0.195-0.195,0.195-0.512,0-0.707L340-72.535v-1.764l1.166-3.314
	l3.456,0.648l1.524,0.88l2.069,7.722c0.061,0.224,0.263,0.371,0.483,0.371c0.043,0,0.086-0.005,0.13-0.017
	c0.267-0.071,0.425-0.346,0.354-0.612l-1.812-6.756l3.02,1.743l0.789,2.947c0.061,0.223,0.263,0.371,0.483,0.371
	c0.042,0,0.086-0.005,0.129-0.017c0.268-0.071,0.426-0.346,0.354-0.612l-0.531-1.981l2.197,1.269
	c0.079,0.045,0.165,0.067,0.25,0.067c0.172,0,0.341-0.089,0.433-0.25c0.139-0.239,0.057-0.545-0.183-0.683l-2.197-1.269l1.982-0.531
	c0.267-0.071,0.425-0.346,0.354-0.612c-0.072-0.267-0.344-0.426-0.613-0.354l-2.947,0.79l-3.019-1.743l6.757-1.81
	c0.268-0.071,0.426-0.346,0.354-0.612C354.911-78.932,354.635-79.09,354.371-79.019z M342.013-78.472l-1.505-0.282L340-77.311
	l-0.5,1.421l-0.5-1.418l-0.51-1.446l-1.502,0.282l-1.481,0.278l0.979-1.143l0.996-1.163l-0.997-1.163l-0.979-1.142l1.481,0.278
	l1.502,0.281l0.51-1.446l0.5-1.418l0.5,1.421l0.508,1.443l1.505-0.282l1.481-0.278l-0.979,1.143l-0.997,1.163l0.997,1.163
	l0.979,1.143L342.013-78.472z"/>
</svg>
