<?xml version="1.0" encoding="utf-8"?>
<!-- Generator: Adobe Illustrator 16.0.0, SVG Export Plug-In . SVG Version: 6.00 Build 0)  -->
<!DOCTYPE svg PUBLIC "-//W3C//DTD SVG 1.1//EN" "http://www.w3.org/Graphics/SVG/1.1/DTD/svg11.dtd">
<svg version="1.1" id="Layer_1" xmlns="http://www.w3.org/2000/svg" xmlns:xlink="http://www.w3.org/1999/xlink" x="0px" y="0px"
	 width="50px" height="50px" viewBox="-105.5 -105.5 50 50" enable-background="new -105.5 -105.5 50 50" xml:space="preserve">
<path style="fill:white" d="M-61.715-80.751l-1.179-2.041c-0.09-0.154-0.255-0.25-0.433-0.25l-2.357-0.001c-0.179,0-0.344,0.096-0.433,0.25
	l-1.034,1.792h-5.036l4.194-4.192c0.195-0.195,0.195-0.512,0-0.707s-0.512-0.195-0.707,0l-4.901,4.899h-3.016l-1.509-2.614
	l1.51-2.616l6.689-1.792c0.267-0.071,0.425-0.346,0.354-0.612c-0.07-0.267-0.345-0.423-0.612-0.354l-5.723,1.533l2.514-4.354
	l0.809-0.002l0.149,0.002c0.002,0,0.005,0,0.007,0l1.104-0.001c0.179,0,0.343-0.095,0.433-0.249l1.181-2.042
	c0.09-0.154,0.09-0.345,0-0.5l-1.181-2.042c-0.089-0.154-0.254-0.25-0.433-0.25l-2.357,0.001c-0.178,0-0.343,0.096-0.433,0.25
	l-1.178,2.04c-0.09,0.154-0.09,0.345-0.001,0.5l1.035,1.792l-2.517,4.358l-1.534-5.728c-0.07-0.267-0.345-0.424-0.612-0.354
	c-0.267,0.071-0.425,0.346-0.354,0.612l1.793,6.693l-1.509,2.613h-3.019l-1.51-2.614l1.793-6.689
	c0.071-0.267-0.087-0.541-0.354-0.612c-0.265-0.069-0.54,0.087-0.612,0.354l-1.534,5.724l-2.517-4.359l1.034-1.79
	c0.09-0.154,0.09-0.345,0-0.5l-1.178-2.041c-0.089-0.154-0.254-0.249-0.432-0.25h-2.358c-0.179,0-0.344,0.095-0.434,0.25
	l-1.179,2.042c-0.089,0.155-0.089,0.346,0,0.5l1.179,2.041c0.09,0.154,0.255,0.25,0.434,0.25h1.104c0.001,0,0.002,0,0.003,0
	l0.962-0.001l2.517,4.358l-5.726-1.533c-0.265-0.07-0.541,0.087-0.612,0.354s0.087,0.541,0.354,0.612l6.691,1.792l1.509,2.614
	l-1.51,2.614h-3.018l-4.899-4.899c-0.195-0.195-0.512-0.195-0.707,0s-0.195,0.512,0,0.707l4.192,4.192h-5.033l-1.034-1.792
	c-0.09-0.154-0.254-0.249-0.433-0.249h-2.356c-0.179,0-0.344,0.095-0.433,0.249l-1.18,2.041c-0.089,0.155-0.089,0.346,0,0.5
	l1.178,2.042c0.09,0.155,0.255,0.25,0.434,0.25l1.25,0.001c0.002,0,0.003,0,0.004,0l1.104-0.001c0.179,0,0.344-0.095,0.433-0.25
	l1.032-1.791h5.032l-4.189,4.19c-0.195,0.195-0.195,0.512,0,0.707c0.098,0.098,0.226,0.146,0.354,0.146s0.256-0.049,0.354-0.146
	l4.896-4.897h3.02l1.51,2.613l-1.508,2.612l-6.693,1.795c-0.267,0.071-0.425,0.346-0.354,0.612c0.072,0.268,0.346,0.427,0.612,0.354
	l5.728-1.536l-2.519,4.362l-0.966-0.002l-1.104,0.004c-0.178,0-0.342,0.096-0.432,0.25l-1.178,2.038
	c-0.09,0.155-0.09,0.346-0.001,0.501l1.179,2.041c0.09,0.155,0.255,0.25,0.434,0.25l1.249,0.001c0.002,0,0.003,0,0.004,0
	l1.104-0.001c0.179,0,0.344-0.095,0.433-0.25l1.178-2.04c0.09-0.155,0.09-0.346,0-0.501l-1.034-1.791l2.517-4.359l1.535,5.723
	c0.061,0.224,0.262,0.37,0.482,0.37c0.043,0,0.087-0.005,0.13-0.017c0.268-0.072,0.426-0.346,0.354-0.612l-1.794-6.688l1.51-2.614
	h3.019l1.508,2.612l-1.793,6.691c-0.071,0.267,0.087,0.541,0.354,0.612c0.044,0.012,0.087,0.017,0.13,0.017
	c0.221,0,0.423-0.146,0.482-0.37l1.534-5.726l2.519,4.36l-1.036,1.791c-0.089,0.155-0.089,0.346,0,0.5l1.179,2.042
	c0.09,0.154,0.254,0.25,0.433,0.25l1.104,0.001c0.001,0,0.003,0,0.004,0l1.25-0.001c0.179,0,0.344-0.096,0.433-0.25l1.179-2.042
	c0.09-0.155,0.09-0.346,0-0.5l-1.179-2.041c-0.089-0.155-0.254-0.25-0.433-0.25l-1.253,0.001h-0.814l-2.518-4.361l5.725,1.536
	c0.269,0.073,0.541-0.086,0.612-0.354c0.072-0.267-0.087-0.541-0.354-0.612l-6.69-1.795l-1.509-2.612l1.509-2.614h3.019l4.896,4.897
	c0.098,0.098,0.226,0.146,0.354,0.146s0.256-0.049,0.354-0.146c0.195-0.195,0.195-0.512,0-0.707l-4.189-4.19h5.033l1.035,1.792
	c0.089,0.154,0.254,0.25,0.433,0.25h2.357c0.179,0,0.344-0.095,0.433-0.249l1.178-2.043C-61.625-80.405-61.625-80.596-61.715-80.751
	z M-74.283-94.353l0.89-1.541l1.227-0.001h0.553l0.278,0.48l0.614,1.062l-0.893,1.542h-0.812l-0.153-0.002l-0.236,0.001
	l-0.577,0.001l-0.289-0.501L-74.283-94.353z M-89.389-95.895l0.554-0.001l0.41-0.001l0.816,0.002l0.89,1.541l-0.602,1.04l-0.289,0.5
	l-0.576,0.001l-1.203,0.001l-0.89-1.542l0.613-1.062L-89.389-95.895z M-94.717-80.501l-0.288,0.5l-0.601,1.042l-1.781-0.001
	l-0.612-1.062l-0.276-0.48l0.276-0.478l0.613-1.062h1.779l0.602,1.041L-94.717-80.501z M-86.72-66.647l-0.889,1.542l-1.238-0.001
	h-0.542l-0.276-0.479l-0.613-1.061l0.891-1.541l1.2-0.001h0.578l0.288,0.5L-86.72-66.647z M-71.613-65.106l-0.542,0.001h-0.424
	l-0.813-0.001l-0.891-1.542l0.603-1.041l0.288-0.499l0.578-0.001h1.201l0.891,1.542l-0.613,1.061L-71.613-65.106z M-78.991-77.887
	h-0.577h-1.864h-0.577l-0.289-0.5l-0.933-1.614l-0.288-0.5l0.288-0.5l0.933-1.615l0.288-0.499h0.579h1.862h0.578l0.289,0.5
	l0.932,1.614l0.289,0.5l-0.289,0.5l-0.932,1.614L-78.991-77.887z M-66.284-80.501l0.289-0.5l0.6-1.042l1.781,0.001l0.612,1.062
	l0.277,0.479l-0.276,0.479l-0.613,1.063h-1.78l-0.601-1.042L-66.284-80.501z"/>
</svg>
