<?xml version="1.0" encoding="utf-8"?>
<!-- Generator: Adobe Illustrator 16.0.0, SVG Export Plug-In . SVG Version: 6.00 Build 0)  -->
<!DOCTYPE svg PUBLIC "-//W3C//DTD SVG 1.1//EN" "http://www.w3.org/Graphics/SVG/1.1/DTD/svg11.dtd">
<svg version="1.1" id="Layer_1" xmlns="http://www.w3.org/2000/svg" xmlns:xlink="http://www.w3.org/1999/xlink" x="0px" y="0px"
	 width="50px" height="50px" viewBox="174.5 -105.5 50 50" enable-background="new 174.5 -105.5 50 50" xml:space="preserve">
<path style="fill:white" d="M217.506-82.756l-2.58,0.003l-1.004,1.731l-2.748,0.004l0.795-1.376c0.139-0.239,0.057-0.545-0.184-0.683
	c-0.238-0.137-0.545-0.056-0.682,0.183l-1.084,1.878l-2.049,0.003l2.189-3.794c0.139-0.239,0.057-0.545-0.182-0.683
	c-0.238-0.137-0.545-0.057-0.684,0.183l-2.479,4.296l-0.521,0.001l-2.955-5.119l0.281-0.485h4.92c0.277,0,0.5-0.224,0.5-0.5
	s-0.223-0.5-0.5-0.5h-4.342l1.027-1.772h2.127c0.277,0,0.5-0.224,0.5-0.5s-0.223-0.5-0.5-0.5h-1.549l1.357-2.342l2.002-0.004
	l1.293-2.231l-1.285-2.229l-2.582,0.003l-1.291,2.233l0.998,1.729l-1.398,2.412l-0.857-1.484c-0.137-0.239-0.441-0.322-0.682-0.183
	c-0.24,0.138-0.322,0.443-0.184,0.683l1.145,1.983l-1.025,1.768l-2.248-3.893c-0.137-0.24-0.443-0.321-0.682-0.183
	c-0.24,0.138-0.322,0.443-0.184,0.683l2.535,4.392l-0.244,0.421l-5.928,0.008l-0.328-0.567l2.455-4.253
	c0.139-0.239,0.057-0.545-0.184-0.684c-0.238-0.136-0.545-0.056-0.682,0.184l-2.168,3.753l-1.021-1.771l1.061-1.84
	c0.139-0.239,0.057-0.546-0.184-0.684c-0.24-0.139-0.545-0.056-0.684,0.184l-0.771,1.34l-1.297-2.247l1.002-1.733l-1.285-2.229
	l-2.578,0.005l-1.295,2.231l1.287,2.229l2.004-0.003l1.338,2.319l-1.715-0.001c-0.275,0-0.5,0.224-0.5,0.5s0.225,0.5,0.5,0.5
	l2.293,0.001l1.023,1.771h-4.502c-0.277,0-0.5,0.224-0.5,0.5s0.223,0.5,0.5,0.5h5.078l0.287,0.495l-2.973,5.131l-0.656,0.001
	l-2.494-4.317c-0.141-0.24-0.445-0.321-0.684-0.183c-0.238,0.138-0.32,0.444-0.182,0.683l2.205,3.819l-2.047,0.003l-1.102-1.908
	c-0.137-0.239-0.443-0.322-0.682-0.184c-0.24,0.139-0.322,0.444-0.184,0.684l0.814,1.41l-2.617,0.004l-0.998-1.729l-2.58,0.002
	l-1.293,2.234l1.287,2.228l2.58-0.004l1.004-1.731l2.619-0.004l-0.814,1.414c-0.139,0.239-0.057,0.545,0.182,0.684
	c0.08,0.045,0.166,0.066,0.25,0.066c0.174,0,0.342-0.09,0.434-0.25l1.105-1.916l2.051-0.003l-2.215,3.833
	c-0.139,0.239-0.057,0.545,0.184,0.684c0.078,0.045,0.164,0.066,0.25,0.066c0.172,0,0.34-0.089,0.432-0.25l2.504-4.335l0.646-0.001
	l2.955,5.119l-0.305,0.524h-5.045c-0.275,0-0.5,0.224-0.5,0.5c0,0.275,0.225,0.5,0.5,0.5h4.467l-1.027,1.771h-2.254
	c-0.275,0-0.5,0.224-0.5,0.5s0.225,0.5,0.5,0.5h1.676l-1.336,2.305l-2,0.003l-1.293,2.233l1.287,2.227l2.578-0.003l1.293-2.232
	l-0.998-1.729l1.312-2.265l0.795,1.375c0.092,0.16,0.26,0.25,0.432,0.25c0.086,0,0.172-0.021,0.25-0.067
	c0.24-0.138,0.322-0.443,0.184-0.683l-1.082-1.874l1.025-1.769l2.184,3.784c0.092,0.16,0.262,0.25,0.434,0.25
	c0.084,0,0.17-0.021,0.25-0.067c0.238-0.138,0.32-0.443,0.182-0.683l-2.471-4.283l0.328-0.567l5.93-0.009l0.266,0.459l-2.539,4.399
	c-0.139,0.239-0.057,0.545,0.182,0.683c0.08,0.046,0.166,0.067,0.25,0.067c0.172,0,0.342-0.09,0.434-0.25l2.252-3.898l1.021,1.771
	l-1.145,1.986c-0.139,0.239-0.057,0.545,0.184,0.683c0.078,0.046,0.164,0.067,0.25,0.067c0.172,0,0.34-0.09,0.434-0.25l0.855-1.485
	l1.361,2.356l-1.006,1.732l1.287,2.229l2.58-0.005l1.291-2.231l-1.285-2.229l-2.002,0.004l-1.318-2.283h1.545
	c0.277,0,0.5-0.224,0.5-0.5c0-0.275-0.223-0.5-0.5-0.5h-2.123l-1.023-1.772h4.334c0.277,0,0.5-0.224,0.5-0.5s-0.223-0.5-0.5-0.5
	h-4.91l-0.309-0.532l2.973-5.13l0.486-0.001l2.514,4.356c0.092,0.16,0.262,0.25,0.434,0.25c0.084,0,0.17-0.021,0.25-0.067
	c0.238-0.138,0.32-0.443,0.182-0.683l-2.227-3.858l2.045-0.003l1.125,1.947c0.092,0.161,0.262,0.25,0.434,0.25
	c0.084,0,0.17-0.021,0.25-0.066c0.238-0.139,0.32-0.444,0.182-0.684l-0.836-1.448l2.785-0.005l1,1.73l2.58-0.005l1.293-2.231
	L217.506-82.756z M205.43-80.51l-0.291,0.502l-2.393,4.13l-0.289,0.498l-0.576,0.001l-4.773,0.007l-0.58,0.001l-0.287-0.497
	l-2.381-4.123l-0.287-0.499l0.291-0.501l2.393-4.131l0.289-0.499l0.576-0.001l4.773-0.006l0.578-0.001l0.289,0.498l2.379,4.123
	L205.43-80.51z M201.607-84.128l-0.584,0.001l-3.037,0.004l-0.576,0.001l-0.289,0.499l-1.523,2.629l-0.293,0.506l0.285,0.494
	l1.518,2.628l0.285,0.494l0.584-0.001l3.039-0.004l0.576-0.001l0.289-0.499l1.521-2.629l0.293-0.505l-0.285-0.495l-1.518-2.627
	L201.607-84.128z M202.541-80.512l-0.293,0.508l-0.943,1.628l-0.289,0.499l-0.576,0.001l-1.883,0.002l-0.588,0.001l-0.283-0.491
	l-0.941-1.632l-0.285-0.491l0.295-0.509l0.943-1.628l0.289-0.499l0.576-0.001l1.881-0.002l0.588-0.001l0.283,0.491l0.943,1.632
	L202.541-80.512z"/>
</svg>
