<?xml version="1.0" encoding="utf-8"?>
<!-- Generator: Adobe Illustrator 16.0.0, SVG Export Plug-In . SVG Version: 6.00 Build 0)  -->
<!DOCTYPE svg PUBLIC "-//W3C//DTD SVG 1.1//EN" "http://www.w3.org/Graphics/SVG/1.1/DTD/svg11.dtd">
<svg version="1.1" id="Layer_1" xmlns="http://www.w3.org/2000/svg" xmlns:xlink="http://www.w3.org/1999/xlink" x="0px" y="0px"
	 width="50px" height="50px" viewBox="-35.5 104.5 50 50" enable-background="new -35.5 104.5 50 50" xml:space="preserve">
<path style="fill:white" d="M5.071,128.75h-8.856c-0.125-1.123-0.525-2.165-1.133-3.054l5.435-0.001c0.415,0,0.75-0.336,0.75-0.75
	s-0.336-0.75-0.75-0.75l-4.652,0.001l1.643-1.643h3.259c0.414,0,0.75-0.336,0.75-0.75s-0.336-0.75-0.75-0.75h-1.759l1.63-1.63
	c0.293-0.293,0.293-0.768,0-1.061s-0.768-0.293-1.061,0l-1.807,1.807v-2.112c0-0.414-0.336-0.75-0.75-0.75s-0.75,0.336-0.75,0.75
	v3.612l-1.466,1.466l0-4.652c0-0.414-0.336-0.75-0.75-0.75s-0.75,0.336-0.75,0.75l0,5.436c-0.889-0.608-1.93-1.008-3.053-1.133
	l0-8.856c0-0.414-0.336-0.75-0.75-0.75s-0.75,0.336-0.75,0.75l0,8.856c-1.054,0.117-2.032,0.479-2.884,1.024l0-4.914
	c0-0.414-0.336-0.75-0.75-0.75s-0.75,0.336-0.75,0.75l0,4.41l-1.636-1.637v-3.436c0-0.414-0.336-0.75-0.75-0.75
	s-0.75,0.336-0.75,0.75v1.936l-1.807-1.807c-0.293-0.293-0.768-0.293-1.061,0s-0.293,0.768,0,1.061l1.806,1.806h-1.933
	c-0.414,0-0.75,0.336-0.75,0.75s0.336,0.75,0.75,0.75h3.433l1.638,1.638h-4.411c-0.414,0-0.75,0.336-0.75,0.75s0.336,0.75,0.75,0.75
	h4.915c-0.546,0.852-0.908,1.83-1.025,2.883h-8.856c-0.414,0-0.75,0.336-0.75,0.75s0.336,0.75,0.75,0.75h8.856
	c0.125,1.123,0.524,2.164,1.132,3.053l-5.435,0.001c-0.415,0-0.75,0.336-0.75,0.75s0.336,0.75,0.75,0.75l4.653-0.001l-1.467,1.467
	h-3.611c-0.414,0-0.75,0.336-0.75,0.75s0.336,0.75,0.75,0.75h2.111l-1.807,1.807c-0.293,0.293-0.293,0.768,0,1.061
	c0.146,0.146,0.338,0.22,0.53,0.22s0.384-0.073,0.53-0.22l1.631-1.631v1.76c0,0.414,0.336,0.75,0.75,0.75s0.75-0.336,0.75-0.75
	v-3.26l1.642-1.642l-0.001,4.652c0,0.414,0.335,0.75,0.75,0.75c0.414,0,0.75-0.336,0.75-0.75l0-5.435
	c0.889,0.607,1.93,1.007,3.053,1.132l0,8.856c0,0.414,0.336,0.75,0.75,0.75s0.75-0.336,0.75-0.75l0-8.856
	c1.054-0.117,2.032-0.479,2.884-1.024l0,4.914c0,0.414,0.336,0.75,0.75,0.75s0.75-0.336,0.75-0.75l0-4.41l1.814,1.814v3.435
	c0,0.414,0.336,0.75,0.75,0.75s0.75-0.336,0.75-0.75v-1.935l1.629,1.629c0.146,0.146,0.338,0.22,0.53,0.22s0.384-0.073,0.53-0.22
	c0.293-0.293,0.293-0.768,0-1.061l-1.629-1.629h1.934c0.414,0,0.75-0.336,0.75-0.75s-0.336-0.75-0.75-0.75h-3.434l-1.814-1.814
	h4.411c0.414,0,0.75-0.336,0.75-0.75s-0.336-0.75-0.75-0.75h-4.915c0.546-0.852,0.908-1.83,1.025-2.883h8.856
	c0.414,0,0.75-0.336,0.75-0.75S5.485,128.75,5.071,128.75z M-6.304,132.636c-0.129,0.172-0.262,0.342-0.411,0.497
	c-0.05,0.052-0.1,0.103-0.152,0.152c-0.155,0.148-0.326,0.281-0.498,0.41c-0.706,0.529-1.544,0.875-2.46,0.994
	c-0.223,0.029-0.444,0.068-0.675,0.068s-0.453-0.039-0.676-0.068c-0.916-0.119-1.753-0.465-2.459-0.994
	c-0.403-0.302-0.759-0.657-1.061-1.06c-0.529-0.706-0.875-1.544-0.994-2.459c-0.029-0.224-0.068-0.445-0.068-0.677
	s0.039-0.453,0.068-0.677c0.12-0.915,0.465-1.753,0.994-2.459c0.129-0.172,0.262-0.342,0.411-0.497
	c0.05-0.052,0.1-0.103,0.152-0.152c0.155-0.148,0.326-0.281,0.498-0.41c0.706-0.529,1.544-0.875,2.46-0.994
	c0.223-0.029,0.444-0.068,0.675-0.068s0.453,0.039,0.676,0.068c0.916,0.119,1.753,0.465,2.459,0.994
	c0.403,0.302,0.759,0.657,1.061,1.06c0.529,0.706,0.875,1.544,0.994,2.459c0.029,0.224,0.068,0.445,0.068,0.677
	s-0.039,0.453-0.068,0.677C-5.43,131.092-5.775,131.93-6.304,132.636z"/>
</svg>
