<?xml version="1.0" encoding="utf-8"?>
<!-- Generator: Adobe Illustrator 16.0.0, SVG Export Plug-In . SVG Version: 6.00 Build 0)  -->
<!DOCTYPE svg PUBLIC "-//W3C//DTD SVG 1.1//EN" "http://www.w3.org/Graphics/SVG/1.1/DTD/svg11.dtd">
<svg version="1.1" id="Layer_1" xmlns="http://www.w3.org/2000/svg" xmlns:xlink="http://www.w3.org/1999/xlink" x="0px" y="0px"
	 width="50px" height="50px" viewBox="34.5 104.5 50 50" enable-background="new 34.5 104.5 50 50" xml:space="preserve">
<path style="fill:white" d="M74.312,137.476l-6.979-4.029v-7.893l6.979-4.029c0.239-0.138,0.321-0.443,0.183-0.683
	c-0.138-0.239-0.444-0.322-0.683-0.183l-6.977,4.028l-6.334-3.654l5.152-5.152c0.195-0.195,0.195-0.512,0-0.707
	s-0.512-0.195-0.707,0L60,120.119v-7.434c0-0.276-0.224-0.5-0.5-0.5s-0.5,0.224-0.5,0.5v7.434l-4.946-4.945
	c-0.195-0.195-0.512-0.195-0.707,0s-0.195,0.512,0,0.707l5.152,5.152l-6.334,3.654l-6.977-4.028
	c-0.239-0.138-0.546-0.057-0.683,0.183c-0.139,0.239-0.057,0.545,0.183,0.683l6.979,4.029v7.893l-6.979,4.029
	c-0.239,0.138-0.321,0.443-0.183,0.683c0.092,0.16,0.261,0.25,0.433,0.25c0.085,0,0.171-0.021,0.25-0.067l6.98-4.03l6.331,3.654
	l-5.153,5.154c-0.195,0.195-0.195,0.512,0,0.707s0.512,0.195,0.707,0L59,138.879v7.436c0,0.276,0.224,0.5,0.5,0.5s0.5-0.224,0.5-0.5
	v-7.436l4.946,4.947c0.098,0.098,0.226,0.146,0.354,0.146s0.256-0.049,0.354-0.146c0.195-0.195,0.195-0.512,0-0.707l-5.153-5.154
	l6.331-3.654l6.98,4.03c0.079,0.046,0.165,0.067,0.25,0.067c0.172,0,0.341-0.09,0.433-0.25
	C74.633,137.919,74.551,137.613,74.312,137.476z M66.333,132.868l-5.834-3.368l5.834-3.368V132.868z M60,128.635v-6.736l5.835,3.367
	L60,128.635z M59,121.898v6.736l-5.835-3.369L59,121.898z M52.667,126.132l5.834,3.368l-5.834,3.368V126.132z M59,130.365v6.733
	l-5.831-3.366L59,130.365z M60,137.099v-6.733l5.831,3.367L60,137.099z"/>
</svg>
