<?xml version="1.0" encoding="utf-8"?>
<!-- Generator: Adobe Illustrator 16.0.0, SVG Export Plug-In . SVG Version: 6.00 Build 0)  -->
<!DOCTYPE svg PUBLIC "-//W3C//DTD SVG 1.1//EN" "http://www.w3.org/Graphics/SVG/1.1/DTD/svg11.dtd">
<svg version="1.1" id="Layer_1" xmlns="http://www.w3.org/2000/svg" xmlns:xlink="http://www.w3.org/1999/xlink" x="0px" y="0px"
	 width="50px" height="50px" viewBox="174.5 -175.5 50 50" enable-background="new 174.5 -175.5 50 50" xml:space="preserve">
<path style="fill:white" d="M214.059-156.241l2.236-1.286v-2.573l-2.236-1.288l-2.235,1.288v1.996l-2.417,1.391v-1.714c0-0.276-0.224-0.5-0.5-0.5
	s-0.5,0.224-0.5,0.5v2.289l-1.771,1.02v-4.495c0-0.276-0.224-0.5-0.5-0.5s-0.5,0.224-0.5,0.5v5.07l-0.422,0.243l-5.139-2.958v-0.656
	l4.253-2.455c0.239-0.138,0.321-0.444,0.183-0.683c-0.138-0.24-0.444-0.322-0.683-0.183l-3.753,2.167v-2.045l1.839-1.063
	c0.239-0.138,0.321-0.444,0.183-0.683c-0.139-0.24-0.447-0.321-0.683-0.183l-1.339,0.774v-2.594l1.735-1v-2.573l-2.235-1.286
	l-2.236,1.286v2.573l1.736,1v2.678l-1.484-0.857c-0.238-0.136-0.544-0.056-0.683,0.183c-0.139,0.239-0.057,0.545,0.183,0.683
	l1.984,1.146v2.045l-3.898-2.25c-0.238-0.137-0.545-0.056-0.683,0.183c-0.139,0.239-0.057,0.545,0.183,0.683l4.398,2.539v0.572
	l-5.14,2.958l-0.568-0.328l-0.001-4.985c0-0.276-0.224-0.5-0.5-0.5s-0.5,0.224-0.5,0.5l0.001,4.41l-1.773-1.021v-2.204
	c0-0.276-0.224-0.5-0.5-0.5s-0.5,0.224-0.5,0.5v1.628l-2.269-1.305v-1.996l-2.235-1.288l-2.236,1.288v2.573l2.236,1.286l1.735-0.998
	l2.271,1.307l-1.414,0.817c-0.239,0.138-0.321,0.444-0.183,0.683c0.093,0.161,0.261,0.25,0.433,0.25c0.085,0,0.171-0.021,0.25-0.067
	l1.916-1.107l1.775,1.022l-3.833,2.213c-0.239,0.138-0.321,0.444-0.183,0.683c0.092,0.161,0.261,0.25,0.433,0.25
	c0.085,0,0.171-0.021,0.25-0.067l4.335-2.502l0.56,0.322v5.911l-0.525,0.302l-4.368-2.523c-0.238-0.137-0.546-0.056-0.683,0.183
	c-0.139,0.239-0.057,0.545,0.183,0.683l3.867,2.233l-1.775,1.021l-1.951-1.126c-0.238-0.137-0.545-0.056-0.683,0.183
	c-0.139,0.239-0.057,0.545,0.183,0.683l1.45,0.837l-2.31,1.328l-1.733-0.998l-2.236,1.288l0.002,2.572l2.234,1.287l2.236-1.287
	v-1.997l2.27-1.306v1.589c0,0.276,0.224,0.5,0.5,0.5s0.5-0.224,0.5-0.5v-2.165l1.771-1.019v4.37c0,0.276,0.224,0.5,0.5,0.5
	s0.5-0.224,0.5-0.5v-4.945l0.568-0.327l5.14,2.958v0.531l-4.398,2.539c-0.239,0.138-0.321,0.444-0.183,0.683
	c0.092,0.161,0.26,0.25,0.433,0.25c0.085,0,0.171-0.021,0.25-0.067l3.898-2.25v2.045l-1.984,1.146
	c-0.239,0.138-0.321,0.444-0.183,0.683c0.138,0.239,0.443,0.32,0.683,0.183l1.484-0.857v2.72l-1.736,0.998v2.573l2.236,1.286
	l2.235-1.286v-2.573l-1.735-0.998v-2.637l1.339,0.774c0.078,0.045,0.165,0.067,0.25,0.067c0.172,0,0.34-0.089,0.433-0.25
	c0.139-0.239,0.057-0.545-0.183-0.683l-1.839-1.063v-2.045l3.753,2.167c0.239,0.138,0.546,0.058,0.683-0.183
	c0.139-0.239,0.057-0.545-0.183-0.683l-4.253-2.455v-0.615l5.139-2.958l0.421,0.243v5.03c0,0.276,0.224,0.5,0.5,0.5
	s0.5-0.224,0.5-0.5v-4.455l1.772,1.02v2.249c0,0.276,0.224,0.5,0.5,0.5s0.5-0.224,0.5-0.5v-1.673l2.415,1.39v1.998l2.237,1.287
	l2.234-1.287l0.002-2.572l-2.236-1.288l-1.734,0.998l-2.382-1.371l1.376-0.794c0.239-0.138,0.321-0.444,0.183-0.683
	c-0.137-0.241-0.443-0.321-0.683-0.183l-1.878,1.084l-1.774-1.021l3.794-2.19c0.239-0.138,0.321-0.444,0.183-0.683
	c-0.138-0.24-0.444-0.321-0.683-0.183l-4.296,2.48l-0.451-0.26v-5.911l0.486-0.28l4.262,2.46c0.079,0.045,0.165,0.067,0.25,0.067
	c0.172,0,0.341-0.09,0.433-0.25c0.139-0.239,0.057-0.545-0.183-0.683l-3.761-2.17l1.775-1.021l1.843,1.064
	c0.079,0.045,0.165,0.067,0.25,0.067c0.172,0,0.341-0.089,0.433-0.25c0.139-0.239,0.057-0.545-0.183-0.683l-1.341-0.774l2.346-1.35
	L214.059-156.241z M204.713-152.86v4.761v0.575l-0.503,0.289l-4.136,2.381l-0.5,0.288l-0.5-0.288l-4.137-2.381l-0.503-0.289v-0.575
	v-4.761v-0.575l0.503-0.289l4.137-2.381l0.5-0.288l0.5,0.288l4.136,2.381l0.503,0.289V-152.86z"/>
</svg>
