<?xml version="1.0" encoding="utf-8"?>
<!-- Generator: Adobe Illustrator 16.0.0, SVG Export Plug-In . SVG Version: 6.00 Build 0)  -->
<!DOCTYPE svg PUBLIC "-//W3C//DTD SVG 1.1//EN" "http://www.w3.org/Graphics/SVG/1.1/DTD/svg11.dtd">
<svg version="1.1" id="Layer_1" xmlns="http://www.w3.org/2000/svg" xmlns:xlink="http://www.w3.org/1999/xlink" x="0px" y="0px"
	 width="50px" height="50px" viewBox="314.5 -175.5 50 50" enable-background="new 314.5 -175.5 50 50" xml:space="preserve">
<path style="fill:white" d="M354.814-142.236l-1.375-0.793l-1.146-4.304c-0.071-0.266-0.343-0.427-0.612-0.354c-0.267,0.071-0.426,0.345-0.354,0.612
	l0.89,3.339l-4.301-2.483v-8.562l4.3-2.482l-0.895,3.337c-0.071,0.267,0.087,0.541,0.354,0.612c0.043,0.012,0.086,0.017,0.129,0.017
	c0.221,0,0.423-0.147,0.483-0.371l1.152-4.303l1.375-0.794c0.239-0.138,0.321-0.444,0.183-0.683
	c-0.138-0.241-0.443-0.321-0.683-0.183l-1.353,0.781l-4.339-1.163c-0.268-0.069-0.541,0.087-0.613,0.354
	c-0.071,0.267,0.087,0.541,0.354,0.612l3.374,0.904l-4.32,2.494L340-159.927v-4.946l2.426,2.419
	c0.195,0.194,0.513,0.195,0.708-0.001c0.194-0.195,0.194-0.512-0.001-0.707L340-166.286v-1.611c0-0.276-0.224-0.5-0.5-0.5
	s-0.5,0.224-0.5,0.5v1.542l-3.194,3.204c-0.194,0.196-0.194,0.512,0.002,0.707c0.097,0.097,0.225,0.146,0.353,0.146
	s0.257-0.049,0.354-0.147l2.485-2.494v5.012l-7.417,4.279l-4.319-2.494l3.375-0.898c0.267-0.071,0.426-0.345,0.354-0.612
	s-0.342-0.424-0.612-0.355l-4.345,1.156l-1.351-0.78c-0.238-0.136-0.545-0.056-0.683,0.183c-0.139,0.239-0.057,0.545,0.183,0.683
	l1.375,0.794l1.146,4.303c0.06,0.224,0.262,0.371,0.483,0.371c0.042,0,0.086-0.005,0.129-0.017c0.267-0.071,0.426-0.345,0.354-0.612
	l-0.89-3.339l4.301,2.483v8.562l-4.3,2.482l0.895-3.338c0.071-0.267-0.087-0.541-0.354-0.612c-0.261-0.071-0.54,0.087-0.612,0.354
	l-1.152,4.304l-1.375,0.794c-0.239,0.138-0.321,0.444-0.183,0.683c0.092,0.161,0.261,0.25,0.433,0.25
	c0.085,0,0.171-0.021,0.25-0.067l1.353-0.781l4.339,1.163c0.044,0.012,0.087,0.017,0.13,0.017c0.221,0,0.423-0.147,0.483-0.371
	c0.071-0.267-0.087-0.541-0.354-0.612l-3.374-0.904l4.322-2.495l7.415,4.28v4.946l-2.426-2.419
	c-0.195-0.194-0.513-0.195-0.708,0.001c-0.194,0.195-0.194,0.512,0.001,0.707l3.133,3.123v1.611c0,0.276,0.224,0.5,0.5,0.5
	s0.5-0.224,0.5-0.5v-1.542l3.194-3.205c0.194-0.196,0.194-0.512-0.002-0.707c-0.195-0.195-0.512-0.195-0.707,0.001L340-136.062
	v-5.011l7.415-4.28l4.32,2.494l-3.373,0.899c-0.267,0.071-0.426,0.345-0.354,0.612c0.06,0.224,0.262,0.371,0.483,0.371
	c0.042,0,0.086-0.005,0.129-0.017l4.343-1.157l1.352,0.781c0.079,0.045,0.165,0.067,0.25,0.067c0.172,0,0.341-0.09,0.433-0.25
	C355.136-141.792,355.054-142.098,354.814-142.236z M346.218-155.186l-4.5,0.843l-1.518-4.315L346.218-155.186z M338.799-158.657
	l-1.52,4.314l-4.497-0.843L338.799-158.657z M332.085-153.972l2.977,3.472l-2.977,3.472V-153.972z M332.785-145.814l4.494-0.843
	l1.52,4.314L332.785-145.814z M339.5-143.365l-0.5-1.418l-1.062-3.015l-3.137,0.588l-1.48,0.278l0.979-1.143l2.078-2.425
	l-2.078-2.425l-0.979-1.143l1.48,0.278l3.137,0.588l1.062-3.015l0.5-1.418l0.5,1.421l1.06,3.012l3.14-0.589l1.481-0.277
	l-0.979,1.143l-2.079,2.425l2.079,2.425l0.979,1.143l-1.481-0.277l-3.14-0.589l-1.06,3.012L339.5-143.365z M340.2-142.342
	l1.518-4.315l4.497,0.843L340.2-142.342z M346.915-147.027l-2.977-3.473l2.977-3.473V-147.027z"/>
</svg>
