<?xml version="1.0" encoding="utf-8"?>
<!-- Generator: Adobe Illustrator 16.0.0, SVG Export Plug-In . SVG Version: 6.00 Build 0)  -->
<!DOCTYPE svg PUBLIC "-//W3C//DTD SVG 1.1//EN" "http://www.w3.org/Graphics/SVG/1.1/DTD/svg11.dtd">
<svg version="1.1" id="Layer_1" xmlns="http://www.w3.org/2000/svg" xmlns:xlink="http://www.w3.org/1999/xlink" x="0px" y="0px"
	 width="50px" height="50px" viewBox="-35.5 314.5 50 50" enable-background="new -35.5 314.5 50 50" xml:space="preserve">
<path style="fill:white" d="M6.895,339H3.658l1.094-1.896c0.138-0.239,0.056-0.545-0.183-0.684c-0.241-0.137-0.545-0.056-0.683,0.184l-1.374,2.382
	l-0.946-1.638c-0.089-0.154-0.254-0.25-0.433-0.25h-2.194c-0.179,0-0.344,0.096-0.433,0.25L-2.448,339h-3.348l2.807-3.838
	l-4.726,0.514l1.674-2.898h1.906c0.179,0,0.344-0.096,0.433-0.25l1.098-1.902c0.089-0.154,0.089-0.346,0-0.5l-0.946-1.637
	l2.75,0.002h0c0.276,0,0.5-0.224,0.5-0.5c0-0.275-0.224-0.5-0.5-0.5l-2.189-0.002l1.619-2.803c0.138-0.239,0.056-0.545-0.183-0.683
	c-0.24-0.141-0.544-0.057-0.683,0.183l-1.618,2.803l-1.094-1.896c-0.139-0.238-0.444-0.322-0.683-0.183
	c-0.239,0.138-0.321,0.443-0.183,0.683l1.375,2.383h-1.892c-0.179,0-0.344,0.096-0.433,0.25l-1.098,1.9
	c-0.089,0.154-0.089,0.346,0,0.5l0.954,1.653l-1.673,2.898l-1.919-4.351l-1.919,4.351l-1.675-2.901l0.954-1.647
	c0.09-0.155,0.09-0.347,0-0.501l-1.1-1.902c-0.089-0.154-0.254-0.25-0.433-0.25l-1.886-0.002l1.373-2.381
	c0.138-0.239,0.056-0.545-0.184-0.684c-0.239-0.137-0.545-0.055-0.683,0.184l-1.094,1.898l-1.62-2.805
	c-0.139-0.239-0.445-0.323-0.683-0.183c-0.239,0.138-0.321,0.443-0.183,0.683l1.618,2.803H-20.2c-0.276,0-0.5,0.224-0.5,0.5
	s0.224,0.5,0.5,0.5h2.747l-0.944,1.637c-0.089,0.155-0.089,0.346,0,0.5l1.099,1.902c0.089,0.154,0.254,0.25,0.433,0.25h0
	l1.905-0.002l1.675,2.902l-4.726-0.514l2.807,3.836h-3.35l-0.953-1.65c-0.089-0.154-0.254-0.25-0.433-0.25h-2.194
	c-0.179,0-0.344,0.096-0.433,0.25l-0.945,1.638l-1.375-2.384c-0.139-0.239-0.445-0.32-0.683-0.184
	c-0.239,0.139-0.321,0.444-0.183,0.684L-24.66,339h-3.235c-0.276,0-0.5,0.224-0.5,0.5s0.224,0.5,0.5,0.5h3.237l-1.095,1.896
	c-0.138,0.239-0.056,0.545,0.183,0.683c0.079,0.046,0.165,0.067,0.25,0.067c0.173,0,0.341-0.09,0.434-0.25l1.375-2.382l0.943,1.636
	c0.089,0.154,0.254,0.25,0.433,0.25l2.195,0.002h0c0.179,0,0.344-0.096,0.433-0.25l0.954-1.652h3.351l-2.809,3.838l4.727-0.514
	l-1.674,2.898l-1.909,0.002c-0.178,0-0.343,0.096-0.433,0.25l-1.098,1.9c-0.089,0.154-0.089,0.345,0,0.5l0.944,1.637h-2.748
	c-0.276,0-0.5,0.224-0.5,0.5s0.224,0.5,0.5,0.5h2.189l-1.618,2.803c-0.138,0.239-0.056,0.545,0.183,0.683
	c0.079,0.046,0.165,0.067,0.25,0.067c0.173,0,0.341-0.09,0.434-0.25l1.619-2.805l1.096,1.896c0.093,0.16,0.261,0.25,0.434,0.25
	c0.085,0,0.171-0.021,0.25-0.067c0.239-0.138,0.321-0.443,0.183-0.683l-1.376-2.381l1.888,0.002h0c0.179,0,0.344-0.096,0.433-0.251
	l1.096-1.904c0.089-0.154,0.089-0.345,0-0.499l-0.952-1.648l1.675-2.901l1.919,4.352l1.919-4.35l1.674,2.899l-0.954,1.647
	c-0.09,0.155-0.09,0.346,0,0.501l1.099,1.904c0.089,0.154,0.254,0.25,0.433,0.25h1.889l-1.373,2.379
	c-0.138,0.239-0.056,0.545,0.183,0.683c0.079,0.046,0.165,0.067,0.25,0.067c0.173,0,0.341-0.09,0.434-0.25l1.093-1.895l1.62,2.805
	c0.093,0.16,0.261,0.25,0.434,0.25c0.085,0,0.171-0.021,0.25-0.067c0.239-0.138,0.321-0.443,0.183-0.683l-1.621-2.807h2.191
	c0.276,0,0.5-0.224,0.5-0.5s-0.224-0.5-0.5-0.5h-2.748l0.942-1.635c0.089-0.155,0.089-0.346,0-0.5l-1.098-1.902
	c-0.089-0.154-0.254-0.25-0.433-0.25h0l-1.905,0.002l-1.676-2.902l4.728,0.514L-5.797,340h3.35l0.952,1.648
	c0.089,0.154,0.254,0.25,0.433,0.25l2.197,0.002h0c0.179,0,0.344-0.096,0.433-0.25l0.944-1.638l1.376,2.384
	c0.093,0.16,0.261,0.25,0.434,0.25c0.085,0,0.171-0.021,0.25-0.067c0.239-0.138,0.321-0.443,0.183-0.683L3.658,340h3.237
	c0.276,0,0.5-0.224,0.5-0.5S7.171,339,6.895,339z M-5,328.975h0.577l0.289,0.501l0.52,0.899l-0.809,1.402h-1.04h-0.578l-0.288-0.5
	l-0.521-0.902l0.809-1.4H-5z M-16.577,331.777l-0.81-1.402l0.52-0.902l0.289-0.5l0.578,0.001l1.04,0.001l0.811,1.402l-0.521,0.898
	l-0.29,0.5l-0.577,0.001L-16.577,331.777z M-21.847,340.9l-0.519-0.9l-0.288-0.5l0.289-0.5l0.52-0.9h1.617l0.52,0.9l0.289,0.5
	l-0.289,0.5l-0.521,0.902L-21.847,340.9z M-16,350.026l-0.579-0.001l-0.288-0.498l-0.521-0.902l0.809-1.4l1.042-0.001l0.576-0.001
	l0.29,0.502l0.519,0.898l-0.808,1.404L-16,350.026z M-4.424,347.223l0.809,1.402l-0.52,0.901l-0.289,0.501H-5h-1.041l-0.81-1.404
	l0.521-0.899l0.289-0.499l0.577-0.001L-4.424,347.223z M-8.949,342.184l-0.251,0.568l-1.3,2.944l-1.299-2.947l-0.25-0.566
	l-0.617,0.067l-3.2,0.348l1.902-2.598l0.365-0.499L-13.965,339l-1.901-2.598l3.2,0.348l0.615,0.066l0.25-0.567l1.3-2.946
	l1.299,2.946l0.25,0.568l0.615-0.067l3.201-0.348L-7.035,339l-0.367,0.501L-7.037,340l1.902,2.598l-3.2-0.348L-8.949,342.184z
	 M1.654,339.498L1.365,340l-0.519,0.9l-1.62-0.002L-1.292,340l-0.289-0.5l0.289-0.5l0.521-0.902h1.617L1.366,339L1.654,339.498z"/>
</svg>
