<?xml version="1.0" encoding="utf-8"?>
<!-- Generator: Adobe Illustrator 16.0.0, SVG Export Plug-In . SVG Version: 6.00 Build 0)  -->
<!DOCTYPE svg PUBLIC "-//W3C//DTD SVG 1.1//EN" "http://www.w3.org/Graphics/SVG/1.1/DTD/svg11.dtd">
<svg version="1.1" id="Layer_1" xmlns="http://www.w3.org/2000/svg" xmlns:xlink="http://www.w3.org/1999/xlink" x="0px" y="0px"
	 width="50px" height="50px" viewBox="-315.5 104.5 50 50" enable-background="new -315.5 104.5 50 50" xml:space="preserve">
<path style="fill:white" d="M-275.5,129h-1.665l1.519-1.52c0.195-0.195,0.195-0.512,0-0.707s-0.512-0.195-0.707,0l-2.226,2.227h-0.071
	c-0.122-2.896-1.28-5.522-3.12-7.522l2.231-2.231c0.195-0.195,0.195-0.512,0-0.707s-0.512-0.195-0.707,0l-2.231,2.231
	c-2-1.84-4.626-2.999-7.522-3.12v-0.07l2.225-2.227c0.195-0.195,0.195-0.512,0-0.707s-0.512-0.195-0.707,0l-1.518,1.52V114.5
	c0-0.276-0.224-0.5-0.5-0.5s-0.5,0.224-0.5,0.5v1.666l-1.519-1.52c-0.195-0.195-0.512-0.195-0.707,0s-0.195,0.512,0,0.707
	l2.226,2.227v0.07c-2.896,0.121-5.521,1.28-7.521,3.119l-2.23-2.23c-0.195-0.195-0.512-0.195-0.707,0s-0.195,0.512,0,0.707
	l2.23,2.23c-1.84,2-3,4.627-3.121,7.523h-0.071l-2.226-2.225c-0.195-0.195-0.512-0.195-0.707,0s-0.195,0.512,0,0.707l1.519,1.518
	h-1.666c-0.276,0-0.5,0.224-0.5,0.5s0.224,0.5,0.5,0.5h1.666l-1.52,1.52c-0.195,0.195-0.195,0.512,0,0.707
	c0.098,0.098,0.226,0.146,0.354,0.146s0.256-0.049,0.354-0.146l2.227-2.227h0.07c0.122,2.896,1.28,5.522,3.12,7.522l-2.229,2.229
	c-0.195,0.195-0.195,0.512,0,0.707c0.098,0.098,0.226,0.146,0.354,0.146s0.256-0.049,0.354-0.146l2.229-2.229
	c2,1.84,4.626,2.999,7.522,3.12v0.07l-2.225,2.227c-0.195,0.195-0.195,0.512,0,0.707s0.512,0.195,0.707,0l1.518-1.52v1.666
	c0,0.276,0.224,0.5,0.5,0.5s0.5-0.224,0.5-0.5v-1.666l1.52,1.52c0.098,0.098,0.226,0.146,0.354,0.146s0.256-0.049,0.354-0.146
	c0.195-0.195,0.195-0.512,0-0.707L-290,141.42v-0.07c2.896-0.121,5.523-1.28,7.523-3.121l2.23,2.23
	c0.098,0.098,0.226,0.146,0.354,0.146s0.256-0.049,0.354-0.146c0.195-0.195,0.195-0.512,0-0.707l-2.23-2.23
	c1.839-2,2.998-4.626,3.119-7.521h0.072l2.225,2.224c0.098,0.098,0.226,0.146,0.354,0.146s0.256-0.049,0.354-0.146
	c0.195-0.195,0.195-0.512,0-0.707l-1.518-1.517h1.665c0.276,0,0.5-0.224,0.5-0.5S-275.224,129-275.5,129z M-298.522,122.184
	l0.645,0.645c-1.496,1.652-2.442,3.802-2.561,6.172h-0.912C-301.229,126.379-300.182,124.002-298.522,122.184z M-296.432,126.213
	l1.978,0.039l2.749,2.748h-8.232c0.117-2.232,1.008-4.258,2.414-5.818l2.05,2.05l-0.938-0.019c-0.003,0-0.007,0-0.01,0
	c-0.272,0-0.495,0.218-0.5,0.49C-296.927,125.979-296.708,126.207-296.432,126.213z M-296.392,133.799l0.9-0.015l-2.034,2.033
	c-1.405-1.561-2.295-3.586-2.413-5.817h8.23l-2.768,2.769l-1.932,0.03c-0.276,0.005-0.497,0.231-0.492,0.508
	C-296.895,133.582-296.705,133.792-296.392,133.799z M-298.523,136.815c-1.659-1.818-2.707-4.194-2.827-6.815h0.912
	c0.118,2.369,1.064,4.52,2.56,6.171L-298.523,136.815z M-291,140.35c-2.621-0.12-4.998-1.167-6.816-2.827l0.645-0.645
	c1.652,1.495,3.801,2.441,6.171,2.56V140.35z M-291,138.938c-2.232-0.117-4.257-1.008-5.818-2.413l2.386-2.386l0.023,1.583
	c0.004,0.273,0.227,0.492,0.5,0.492c0.002,0,0.005,0,0.007,0c0.276-0.004,0.497-0.231,0.493-0.508l-0.038-2.554l2.446-2.445V138.938
	z M-291,128.291l-2.47-2.47l0.046-2.506c0.005-0.275-0.215-0.504-0.491-0.509c-0.003,0-0.006,0-0.009,0
	c-0.272,0-0.495,0.218-0.5,0.491l-0.028,1.541l-2.365-2.364c1.561-1.405,3.585-2.295,5.817-2.412V128.291z M-291,119.562
	c-2.369,0.118-4.518,1.063-6.17,2.559l-0.645-0.645c1.818-1.659,4.195-2.706,6.815-2.826V119.562z M-290,118.65
	c2.621,0.12,4.998,1.167,6.816,2.827l-0.645,0.645c-1.652-1.495-3.801-2.441-6.171-2.56V118.65z M-284.235,132.773l-2.315-0.033
	l-2.741-2.74h8.229c-0.117,2.231-1.007,4.256-2.412,5.816l-2.062-2.062l1.287,0.019c0.25-0.006,0.503-0.217,0.507-0.493
	C-283.738,133.005-283.959,132.777-284.235,132.773z M-289.293,129l2.766-2.766l2.271-0.045c0.276-0.006,0.496-0.233,0.49-0.51
	c-0.005-0.275-0.19-0.484-0.51-0.49l-1.231,0.024l2.032-2.031c1.405,1.561,2.295,3.586,2.413,5.817H-289.293z M-290,120.062
	c2.232,0.117,4.257,1.008,5.818,2.413l-2.061,2.06l-0.025-1.262c-0.005-0.275-0.203-0.46-0.51-0.49
	c-0.276,0.006-0.496,0.233-0.49,0.51l0.044,2.223l-2.777,2.777V120.062z M-290,130.705l2.799,2.799l-0.03,2.181
	c-0.004,0.276,0.217,0.503,0.493,0.507c0.002,0,0.004,0,0.007,0c0.273,0,0.496-0.22,0.5-0.493l0.017-1.208l2.033,2.033
	c-1.561,1.406-3.586,2.297-5.819,2.414V130.705z M-290,140.35v-0.912c2.37-0.118,4.52-1.064,6.172-2.561l0.645,0.645
	C-285.001,139.182-287.379,140.229-290,140.35z M-282.476,136.814l-0.645-0.645c1.495-1.651,2.44-3.801,2.559-6.17h0.912
	C-279.771,132.62-280.817,134.997-282.476,136.814z M-280.562,129c-0.118-2.369-1.064-4.52-2.56-6.171l0.645-0.645
	c1.659,1.818,2.707,4.194,2.827,6.815H-280.562z"/>
</svg>
