<?xml version="1.0" encoding="utf-8"?>
<!-- Generator: Adobe Illustrator 16.0.0, SVG Export Plug-In . SVG Version: 6.00 Build 0)  -->
<!DOCTYPE svg PUBLIC "-//W3C//DTD SVG 1.1//EN" "http://www.w3.org/Graphics/SVG/1.1/DTD/svg11.dtd">
<svg version="1.1" id="Layer_1" xmlns="http://www.w3.org/2000/svg" xmlns:xlink="http://www.w3.org/1999/xlink" x="0px" y="0px"
	 width="50px" height="50px" viewBox="-245.5 314.5 50 50" enable-background="new -245.5 314.5 50 50" xml:space="preserve">
<path style="fill:white" d="M-204.556,336.653C-204.556,336.653-204.556,336.653-204.556,336.653c-0.695,0.01-1.344,0.29-1.827,0.788
	c-0.413,0.425-0.651,0.968-0.709,1.548h-5.093l4.193-4.191c0.195-0.195,0.195-0.512,0-0.707s-0.512-0.195-0.707,0l-4.9,4.898h-2.197
	l2.807-3.838l-4.726,0.514l1.1-1.905l6.689-1.792c0.267-0.072,0.425-0.346,0.354-0.613c-0.071-0.266-0.345-0.419-0.612-0.354
	l-5.724,1.534l2.551-4.418c0.333,0.15,0.687,0.25,1.053,0.25c0.91,0,1.766-0.485,2.233-1.266c0.734-1.229,0.331-2.828-0.899-3.565
	c-1.186-0.709-2.857-0.282-3.564,0.899c-0.355,0.596-0.458,1.295-0.288,1.969c0.11,0.438,0.337,0.824,0.639,1.143l-2.592,4.489
	l-1.535-5.728c-0.071-0.266-0.345-0.418-0.612-0.354c-0.267,0.072-0.425,0.346-0.354,0.613l1.793,6.692l-1.1,1.905l-1.919-4.351
	l-1.919,4.351l-1.099-1.904l1.793-6.689c0.072-0.268-0.087-0.541-0.354-0.613c-0.265-0.065-0.54,0.088-0.612,0.354l-1.534,5.725
	l-2.559-4.433c0.917-0.8,1.175-2.164,0.544-3.258c-0.689-1.194-2.349-1.646-3.55-0.95c-1.241,0.716-1.667,2.309-0.952,3.55
	c0.463,0.802,1.327,1.3,2.254,1.3c0.284,0,0.561-0.063,0.83-0.154l2.566,4.444l-5.724-1.534c-0.265-0.065-0.541,0.088-0.612,0.354
	c-0.071,0.268,0.087,0.541,0.354,0.613l6.69,1.792l1.1,1.906l-4.726-0.514l2.807,3.836h-2.2l-4.898-4.898
	c-0.195-0.195-0.512-0.195-0.707,0s-0.195,0.512,0,0.707l4.191,4.191h-5.186c-0.324-1.07-1.318-1.859-2.517-1.859c0,0,0,0-0.001,0
	c-1.431,0.021-2.579,1.205-2.559,2.639c0.021,1.411,1.187,2.559,2.598,2.559h0.04c1.33-0.02,2.402-1.045,2.534-2.338h5.091
	l-4.191,4.19c-0.195,0.195-0.195,0.512,0,0.707c0.098,0.098,0.226,0.146,0.354,0.146s0.256-0.049,0.354-0.146l4.898-4.897h2.201
	l-2.809,3.838l4.727-0.514l-1.098,1.902l-6.693,1.794c-0.267,0.072-0.425,0.346-0.354,0.613c0.072,0.267,0.348,0.422,0.612,0.354
	l5.728-1.536l-2.548,4.414c-1.16-0.505-2.636-0.07-3.291,1.024c-0.356,0.596-0.459,1.294-0.289,1.968
	c0.17,0.673,0.591,1.239,1.188,1.596c0.403,0.24,0.863,0.367,1.33,0.367c0.91,0,1.766-0.484,2.233-1.265
	c0.356-0.597,0.458-1.295,0.289-1.969c-0.111-0.438-0.337-0.824-0.639-1.144l2.592-4.489l1.534,5.723
	c0.06,0.223,0.262,0.37,0.482,0.37c0.043,0,0.086-0.006,0.13-0.017c0.267-0.072,0.425-0.346,0.354-0.613l-1.793-6.688l1.1-1.905
	l1.918,4.351l1.919-4.35l1.099,1.902l-1.793,6.689c-0.071,0.268,0.087,0.541,0.354,0.613c0.043,0.011,0.087,0.017,0.13,0.017
	c0.221,0,0.422-0.147,0.482-0.37l1.534-5.725l2.56,4.434c-0.917,0.8-1.175,2.163-0.544,3.257c0.463,0.802,1.327,1.3,2.253,1.3
	c0.454,0,0.903-0.121,1.297-0.349c0.602-0.347,1.032-0.907,1.211-1.578c0.18-0.671,0.088-1.372-0.259-1.973
	c-0.604-1.046-1.956-1.52-3.09-1.153l-2.562-4.438l5.726,1.536c0.268,0.068,0.541-0.087,0.612-0.354
	c0.072-0.268-0.087-0.541-0.354-0.613l-6.692-1.794l-1.099-1.904l4.728,0.514l-2.809-3.836h2.202l4.895,4.898
	c0.098,0.098,0.226,0.146,0.354,0.146s0.256-0.049,0.354-0.146c0.195-0.195,0.195-0.512,0-0.707l-4.188-4.191h5.185
	c0.323,1.07,1.311,1.86,2.479,1.86h0.04c1.433-0.023,2.58-1.206,2.559-2.638C-201.941,337.801-203.104,336.653-204.556,336.653z
	 M-213.852,326.16c-0.104-0.415-0.042-0.846,0.177-1.212c0.292-0.487,0.806-0.779,1.376-0.779c0.021,0,0.041,0.008,0.062,0.009
	c0.265,0.01,0.526,0.08,0.755,0.217c0.06,0.036,0.112,0.081,0.166,0.124c0.621,0.49,0.803,1.374,0.388,2.069
	c-0.39,0.65-1.23,0.929-1.933,0.673c-0.089-0.033-0.177-0.071-0.261-0.121c-0.218-0.13-0.393-0.311-0.525-0.52
	C-213.736,326.479-213.81,326.327-213.852,326.16z M-229.876,326.446c-0.356-0.617-0.246-1.372,0.21-1.873
	c0.108-0.118,0.229-0.228,0.375-0.312c0.142-0.081,0.295-0.133,0.454-0.168c0.113-0.025,0.228-0.046,0.343-0.046
	c0.571,0,1.103,0.307,1.387,0.799c0.354,0.612,0.249,1.358-0.197,1.859c-0.111,0.125-0.236,0.237-0.388,0.325
	c-0.151,0.087-0.315,0.138-0.482,0.169C-228.825,327.319-229.538,327.03-229.876,326.446z M-238.057,339.956
	c-0.01-0.066-0.022-0.133-0.023-0.202c-0.004-0.277,0.069-0.535,0.191-0.765c0.266-0.501,0.786-0.85,1.406-0.859
	c0.61,0,1.14,0.352,1.409,0.859c0.115,0.216,0.188,0.457,0.191,0.716c0.001,0.097-0.009,0.191-0.024,0.284
	c-0.124,0.748-0.767,1.326-1.551,1.338l-0.024,0.497v-0.497C-237.281,341.327-237.944,340.728-238.057,339.956z M-227.148,352.82
	c0.105,0.415,0.042,0.845-0.177,1.211c-0.292,0.487-0.807,0.778-1.375,0.778c-0.021,0-0.041-0.008-0.062-0.009
	c-0.265-0.01-0.525-0.08-0.755-0.217c-0.06-0.036-0.112-0.08-0.166-0.122c-0.277-0.218-0.478-0.514-0.565-0.86
	c-0.104-0.414-0.042-0.843,0.178-1.21c0.292-0.488,0.806-0.779,1.375-0.779c0.191,0,0.375,0.047,0.554,0.113
	c0.089,0.034,0.181,0.063,0.264,0.113c0.219,0.131,0.393,0.312,0.525,0.521C-227.263,352.501-227.19,352.653-227.148,352.82z
	 M-212.51,351.733c0.571,0,1.102,0.306,1.386,0.799c0.214,0.37,0.271,0.801,0.16,1.213c-0.068,0.253-0.199,0.475-0.371,0.662
	c-0.109,0.119-0.231,0.227-0.375,0.31c-0.142,0.082-0.295,0.131-0.451,0.162c-0.659,0.135-1.39-0.154-1.732-0.747
	c-0.353-0.611-0.249-1.357,0.196-1.858c0.111-0.125,0.237-0.238,0.389-0.326c0.149-0.086,0.312-0.138,0.478-0.172
	C-212.725,351.754-212.618,351.733-212.51,351.733z M-218.949,342.173l-0.251,0.569l-1.3,2.943l-1.298-2.946l-0.25-0.567
	l-0.616,0.067l-3.201,0.348l1.902-2.598l0.365-0.499l-0.367-0.501l-1.901-2.598l3.2,0.348l0.615,0.066l0.25-0.567l1.3-2.946
	l1.299,2.947l0.25,0.567l0.616-0.067l3.2-0.348l-1.901,2.598l-0.367,0.501l0.365,0.499l1.902,2.598l-3.201-0.348L-218.949,342.173z
	 M-205.927,339.989c-0.114-0.216-0.186-0.456-0.19-0.715c-0.001-0.097,0.008-0.191,0.023-0.285c0.052-0.319,0.198-0.614,0.428-0.852
	c0.297-0.307,0.696-0.479,1.152-0.484c0.795,0,1.457,0.599,1.57,1.368c0.01,0.068,0.023,0.136,0.024,0.206
	c0.004,0.275-0.069,0.533-0.189,0.762c-0.264,0.501-0.78,0.851-1.385,0.86l-0.024,0.497v-0.497
	C-205.128,340.85-205.657,340.498-205.927,339.989z"/>
</svg>
