<?xml version="1.0" encoding="utf-8"?>
<!-- Generator: Adobe Illustrator 16.0.0, SVG Export Plug-In . SVG Version: 6.00 Build 0)  -->
<!DOCTYPE svg PUBLIC "-//W3C//DTD SVG 1.1//EN" "http://www.w3.org/Graphics/SVG/1.1/DTD/svg11.dtd">
<svg version="1.1" id="Layer_1" xmlns="http://www.w3.org/2000/svg" xmlns:xlink="http://www.w3.org/1999/xlink" x="0px" y="0px"
	 width="50px" height="50px" viewBox="34.5 -35.5 50 50" enable-background="new 34.5 -35.5 50 50" xml:space="preserve">
<path style="fill:white" d="M59.5-28.083c-0.168,0-0.327,0.033-0.479,0.082c0.049-0.225,0.239-0.396,0.479-0.396s0.43,0.171,0.479,0.396
	C59.827-28.049,59.668-28.083,59.5-28.083z M75.729-1.45c-0.459,0.822-1.329,1.333-2.272,1.333c-0.439,0-0.876-0.113-1.263-0.328
	c-0.606-0.338-1.045-0.893-1.234-1.561c-0.123-0.435-0.12-0.882-0.018-1.31l-1.536-0.887v1.631c0,0.276-0.224,0.5-0.5,0.5
	s-0.5-0.224-0.5-0.5v-2.209l-1.772-1.023v4.418c0,0.276-0.224,0.5-0.5,0.5s-0.5-0.224-0.5-0.5v-4.927l-3.966-0.432L60.06-3.095
	l4.268,2.464c0.239,0.138,0.321,0.444,0.183,0.683c-0.137,0.24-0.442,0.321-0.683,0.183L60-1.975v2.046l1.913,1.105
	c0.239,0.138,0.321,0.444,0.183,0.683c-0.093,0.161-0.261,0.25-0.433,0.25c-0.085,0-0.172-0.021-0.25-0.067L60,1.227v1.709
	c1.194,0.235,2.098,1.287,2.098,2.548c0,1.433-1.166,2.599-2.6,2.599c-1.433,0-2.598-1.166-2.598-2.599
	c0-1.263,0.905-2.315,2.1-2.549V1.229l-1.41,0.814C57.35,2.179,57.046,2.1,56.907,1.86c-0.139-0.239-0.057-0.545,0.183-0.683
	L59,0.073v-2.046l-3.824,2.208c-0.079,0.045-0.165,0.067-0.25,0.067c-0.173,0-0.341-0.089-0.433-0.25
	c-0.139-0.239-0.057-0.545,0.183-0.683l4.266-2.462l-1.609-3.651l-3.966,0.432v4.927c0,0.276-0.224,0.5-0.5,0.5s-0.5-0.224-0.5-0.5
	v-4.418l-1.771,1.022v2.209c0,0.276-0.224,0.5-0.5,0.5s-0.5-0.224-0.5-0.5v-1.632l-1.537,0.888c0.103,0.428,0.105,0.875-0.018,1.31
	c-0.19,0.668-0.629,1.223-1.236,1.561c-0.386,0.215-0.822,0.328-1.262,0.328c-0.944,0-1.814-0.511-2.271-1.333
	c-0.338-0.606-0.42-1.308-0.23-1.975c0.189-0.668,0.628-1.222,1.234-1.56c0.386-0.215,0.822-0.329,1.264-0.329
	c0.84,0,1.605,0.421,2.091,1.091l1.465-0.846l-1.412-0.815c-0.239-0.138-0.321-0.444-0.183-0.683
	c0.137-0.239,0.444-0.319,0.683-0.183l1.912,1.104l1.771-1.023l-3.824-2.208c-0.239-0.138-0.321-0.444-0.183-0.683
	c0.138-0.24,0.444-0.319,0.683-0.183l4.266,2.463l2.355-3.219l-2.355-3.218l-4.267,2.463c-0.079,0.045-0.165,0.067-0.25,0.067
	c-0.172,0-0.341-0.089-0.433-0.25c-0.139-0.239-0.057-0.545,0.183-0.683l3.827-2.209l-1.773-1.023l-1.912,1.104
	c-0.079,0.045-0.165,0.067-0.25,0.067c-0.172,0-0.34-0.089-0.433-0.25c-0.139-0.239-0.057-0.545,0.183-0.683l1.412-0.816
	l-1.465-0.846c-0.486,0.67-1.252,1.092-2.093,1.092c-0.439,0-0.876-0.114-1.262-0.329c-1.252-0.699-1.702-2.285-1.004-3.536
	c0.67-1.206,2.318-1.682,3.533-1.005c0.607,0.339,1.046,0.893,1.235,1.561c0.124,0.435,0.121,0.882,0.019,1.31l1.535,0.886v-1.63
	c0-0.276,0.224-0.5,0.5-0.5s0.5,0.224,0.5,0.5v2.208l1.773,1.023l-0.001-4.417c0-0.276,0.224-0.5,0.5-0.5s0.5,0.224,0.5,0.5
	l0.001,4.926l3.966,0.432l1.609-3.651l-4.266-2.462c-0.239-0.138-0.321-0.444-0.183-0.683c0.138-0.239,0.444-0.319,0.683-0.183
	L59-19.027v-2.046l-1.91-1.104c-0.239-0.138-0.321-0.444-0.183-0.683c0.139-0.24,0.444-0.32,0.683-0.183L59-22.229v-1.707
	c-1.193-0.234-2.098-1.287-2.098-2.548c0-1.433,1.165-2.599,2.598-2.599c1.434,0,2.6,1.166,2.6,2.599c0,1.262-0.904,2.314-2.1,2.548
	v1.709l1.413-0.816c0.235-0.139,0.544-0.058,0.683,0.183c0.139,0.239,0.057,0.545-0.183,0.683L60-21.071v2.046l3.827-2.21
	c0.239-0.138,0.545-0.058,0.683,0.183c0.139,0.239,0.057,0.545-0.183,0.683l-4.268,2.464l1.608,3.649l3.967-0.432v-4.926
	c0-0.276,0.224-0.5,0.5-0.5s0.5,0.224,0.5,0.5v4.417l1.771-1.022v-2.208c0-0.276,0.224-0.5,0.5-0.5s0.5,0.224,0.5,0.5v1.631
	l1.537-0.887c-0.262-1.102,0.213-2.291,1.25-2.87c1.219-0.677,2.862-0.202,3.536,1.004c0.698,1.251,0.248,2.837-1.003,3.536
	c-0.388,0.215-0.824,0.329-1.264,0.329c-0.84,0-1.605-0.421-2.092-1.092l-1.465,0.846l1.412,0.815
	c0.239,0.138,0.321,0.444,0.183,0.683c-0.092,0.161-0.261,0.25-0.433,0.25c-0.085,0-0.171-0.021-0.25-0.067l-1.912-1.104
	l-1.772,1.023l3.827,2.209c0.239,0.138,0.321,0.444,0.183,0.683c-0.092,0.16-0.261,0.25-0.433,0.25c-0.085,0-0.171-0.021-0.25-0.067
	l-4.268-2.463L63.838-10.5l2.355,3.219l4.267-2.463c0.238-0.138,0.545-0.057,0.683,0.183c0.139,0.239,0.057,0.545-0.183,0.683
	L67.135-6.67l1.771,1.023l1.912-1.104c0.238-0.138,0.545-0.057,0.683,0.183c0.139,0.239,0.057,0.545-0.183,0.683l-1.412,0.815
	l1.458,0.842c0.749-1.016,2.234-1.387,3.361-0.757c0.606,0.337,1.045,0.891,1.234,1.559C76.149-2.758,76.067-2.057,75.729-1.45z
	 M72.681-19.681c-0.543,0.303-0.834,0.879-0.812,1.462c0.01,0.243,0.068,0.487,0.194,0.713c0.048,0.085,0.111,0.156,0.172,0.23
	c0.301,0.365,0.744,0.591,1.228,0.591c0.27,0,0.538-0.07,0.776-0.203c0.708-0.396,0.991-1.252,0.699-1.986
	c-0.025-0.064-0.048-0.128-0.082-0.189c-0.132-0.236-0.323-0.426-0.545-0.566c-0.252-0.16-0.545-0.254-0.854-0.254
	C73.188-19.883,72.919-19.813,72.681-19.681z M47.131-18.219c0.007-0.167-0.006-0.335-0.053-0.501
	c-0.117-0.411-0.388-0.752-0.761-0.961c-0.237-0.132-0.506-0.202-0.775-0.202c-0.31,0-0.603,0.094-0.854,0.253
	c-0.222,0.14-0.412,0.33-0.544,0.566c-0.034,0.062-0.057,0.126-0.082,0.189c-0.292,0.735-0.009,1.591,0.7,1.987
	c0.66,0.369,1.531,0.178,2.009-0.385c0.062-0.072,0.119-0.149,0.166-0.234C47.061-17.728,47.121-17.971,47.131-18.219z M47.078-2.28
	c0.047-0.166,0.06-0.334,0.053-0.501c-0.01-0.248-0.07-0.491-0.194-0.713c-0.048-0.085-0.111-0.156-0.173-0.23
	c-0.301-0.364-0.743-0.59-1.226-0.59c-0.271,0-0.539,0.07-0.776,0.203c-0.373,0.208-0.643,0.548-0.76,0.959
	c-0.098,0.344-0.071,0.701,0.06,1.027c0.025,0.063,0.048,0.128,0.082,0.188c0.132,0.237,0.322,0.427,0.544,0.567
	c0.252,0.16,0.545,0.253,0.854,0.253c0.27,0,0.538-0.07,0.775-0.202C46.69-1.527,46.961-1.868,47.078-2.28z M61.049-7.817
	l2.585,0.281l1.232,0.134l-0.732-1L62.598-10.5l1.536-2.098l0.732-1l-1.232,0.134l-2.585,0.281L60-15.562l-0.5-1.134L59-15.562
	l-1.049,2.379l-2.585-0.281l-1.232-0.134l0.732,1l1.536,2.098l-1.536,2.098l-0.732,1l1.232-0.134l2.585-0.281L59-5.438l0.5,1.134
	L60-5.438L61.049-7.817z M57.902-26.484c0,0.706,0.463,1.299,1.098,1.511c0.158,0.052,0.324,0.088,0.5,0.088s0.342-0.035,0.5-0.088
	c0.637-0.211,1.1-0.805,1.1-1.511c0-0.713-0.474-1.312-1.121-1.517c-0.049-0.225-0.239-0.396-0.479-0.396s-0.43,0.171-0.479,0.396
	C58.375-27.796,57.902-27.197,57.902-26.484z M61.098,5.484c0-0.706-0.463-1.299-1.098-1.511c-0.159-0.053-0.325-0.088-0.502-0.088
	c-0.175,0-0.34,0.035-0.498,0.087c-0.636,0.211-1.1,0.805-1.1,1.512c0,0.714,0.474,1.313,1.121,1.518
	c0.151,0.048,0.31,0.081,0.477,0.081c0.169,0,0.328-0.034,0.48-0.082C60.625,6.795,61.098,6.197,61.098,5.484z M74.3-1.378
	c0.227-0.137,0.425-0.322,0.557-0.56c0.034-0.061,0.057-0.125,0.082-0.188c0.131-0.326,0.157-0.683,0.06-1.027
	c-0.117-0.411-0.387-0.751-0.759-0.958c-0.238-0.133-0.508-0.203-0.777-0.203c-0.482,0-0.925,0.226-1.226,0.59
	c-0.062,0.074-0.125,0.145-0.173,0.23c-0.124,0.222-0.185,0.466-0.194,0.713c-0.007,0.167,0.006,0.336,0.053,0.502
	c0.117,0.411,0.387,0.752,0.759,0.96C73.191-1.036,73.818-1.087,74.3-1.378z"/>
</svg>
