<?xml version="1.0" encoding="utf-8"?>
<!-- Generator: Adobe Illustrator 16.0.0, SVG Export Plug-In . SVG Version: 6.00 Build 0)  -->
<!DOCTYPE svg PUBLIC "-//W3C//DTD SVG 1.1//EN" "http://www.w3.org/Graphics/SVG/1.1/DTD/svg11.dtd">
<svg version="1.1" id="Layer_1" xmlns="http://www.w3.org/2000/svg" xmlns:xlink="http://www.w3.org/1999/xlink" x="0px" y="0px"
	 width="50px" height="50px" viewBox="-315.5 -105.5 50 50" enable-background="new -315.5 -105.5 50 50" xml:space="preserve">
<path style="fill:white" d="M-273.105-81h-3.523l1.061-1.839c0.138-0.239,0.056-0.545-0.183-0.683c-0.241-0.139-0.546-0.056-0.683,0.183L-277.782-81
	h-2.68l2.731-4.729c0.138-0.239,0.056-0.545-0.183-0.683s-0.545-0.057-0.683,0.183L-281.616-81h-4.999l-1.509-2.614l2.5-4.33
	l6.039,0c0.276,0,0.5-0.224,0.5-0.5c0-0.276-0.224-0.5-0.5-0.5l-5.462,0l1.339-2.319l2.7,0.001c0.276,0,0.5-0.224,0.5-0.5
	c0-0.276-0.224-0.5-0.5-0.5l-2.123-0.001l1.762-3.052c0.138-0.239,0.056-0.545-0.183-0.683c-0.239-0.139-0.545-0.057-0.683,0.183
	l-1.762,3.052l-1.062-1.839c-0.138-0.239-0.445-0.322-0.683-0.183c-0.239,0.138-0.321,0.444-0.183,0.683l1.35,2.339l-1.338,2.319
	l-2.73-4.729c-0.138-0.24-0.445-0.322-0.683-0.183c-0.239,0.138-0.321,0.444-0.183,0.683l3.019,5.228l-2.5,4.331h-3.018l-2.5-4.33
	l3.019-5.229c0.138-0.239,0.056-0.545-0.183-0.683c-0.24-0.138-0.544-0.056-0.683,0.183l-2.73,4.729l-1.339-2.319l1.351-2.34
	c0.138-0.239,0.056-0.545-0.183-0.683c-0.239-0.139-0.545-0.056-0.683,0.183l-1.062,1.84l-1.763-3.053
	c-0.139-0.24-0.445-0.321-0.683-0.183c-0.239,0.138-0.321,0.444-0.183,0.683l1.762,3.052h-2.122c-0.276,0-0.5,0.224-0.5,0.5
	s0.224,0.5,0.5,0.5h2.7l1.339,2.319h-5.46c-0.276,0-0.5,0.224-0.5,0.5s0.224,0.5,0.5,0.5h6.038l2.5,4.331L-294.384-81h-4.999
	l-3.022-5.228c-0.138-0.24-0.445-0.322-0.683-0.183c-0.239,0.138-0.321,0.444-0.183,0.683l2.733,4.728h-2.681l-1.35-2.338
	c-0.139-0.24-0.445-0.321-0.683-0.183c-0.239,0.138-0.321,0.444-0.183,0.683l1.062,1.838h-3.522c-0.276,0-0.5,0.224-0.5,0.5
	s0.224,0.5,0.5,0.5h3.523l-1.062,1.84c-0.138,0.239-0.056,0.545,0.183,0.683c0.079,0.045,0.165,0.067,0.25,0.067
	c0.173,0,0.341-0.09,0.434-0.25l1.35-2.34h2.68l-2.732,4.73c-0.138,0.239-0.056,0.545,0.183,0.683
	c0.079,0.045,0.165,0.067,0.25,0.067c0.173,0,0.341-0.089,0.434-0.25l3.021-5.23h4.999l1.509,2.613l-2.5,4.331h-6.037
	c-0.276,0-0.5,0.224-0.5,0.5s0.224,0.5,0.5,0.5h5.459l-1.339,2.319l-2.701,0c-0.276,0-0.5,0.224-0.5,0.5c0,0.276,0.224,0.5,0.5,0.5
	l2.124,0l-1.762,3.051c-0.138,0.239-0.056,0.545,0.183,0.683c0.079,0.045,0.165,0.067,0.25,0.067c0.173,0,0.341-0.089,0.434-0.25
	l1.762-3.052l1.062,1.84c0.093,0.161,0.261,0.25,0.434,0.25c0.085,0,0.171-0.021,0.25-0.067c0.239-0.138,0.321-0.444,0.183-0.683
	l-1.352-2.34l1.339-2.319l2.73,4.73c0.093,0.161,0.261,0.25,0.434,0.25c0.085,0,0.171-0.021,0.25-0.067
	c0.239-0.138,0.321-0.444,0.183-0.683l-3.02-5.23l2.5-4.329h3.019l2.5,4.33l-3.02,5.229c-0.138,0.239-0.056,0.545,0.183,0.683
	c0.079,0.045,0.165,0.067,0.25,0.067c0.173,0,0.341-0.089,0.434-0.25l2.731-4.729l1.339,2.319l-1.349,2.338
	c-0.138,0.239-0.056,0.545,0.183,0.683c0.079,0.045,0.165,0.067,0.25,0.067c0.173,0,0.341-0.09,0.434-0.25l1.061-1.838l1.762,3.052
	c0.093,0.161,0.261,0.25,0.434,0.25c0.085,0,0.171-0.021,0.25-0.067c0.239-0.138,0.321-0.444,0.183-0.683l-1.763-3.053h2.124
	c0.276,0,0.5-0.224,0.5-0.5s-0.224-0.5-0.5-0.5h-2.701l-1.339-2.32l5.461,0.001c0.276,0,0.5-0.224,0.5-0.5
	c0-0.276-0.224-0.5-0.5-0.5l-6.039-0.001l-2.499-4.329l1.509-2.614h4.998l3.02,5.231c0.093,0.16,0.261,0.25,0.434,0.25
	c0.085,0,0.171-0.021,0.25-0.067c0.239-0.138,0.321-0.444,0.183-0.683L-280.463-80h2.681l1.351,2.34
	c0.093,0.161,0.261,0.25,0.434,0.25c0.085,0,0.171-0.021,0.25-0.067c0.239-0.138,0.321-0.444,0.183-0.683l-1.062-1.84h3.523
	c0.276,0,0.5-0.224,0.5-0.5S-272.829-81-273.105-81z M-287.77-80l-0.932,1.614l-0.289,0.5h-0.577h-1.865h-0.577l-0.289-0.5
	L-293.229-80l-0.289-0.5l0.289-0.5l0.932-1.614l0.289-0.5h0.577h1.864h0.578l0.289,0.5L-287.77-81l0.289,0.5L-287.77-80z"/>
</svg>
