<?xml version="1.0" encoding="utf-8"?>
<!-- Generator: Adobe Illustrator 16.0.0, SVG Export Plug-In . SVG Version: 6.00 Build 0)  -->
<!DOCTYPE svg PUBLIC "-//W3C//DTD SVG 1.1//EN" "http://www.w3.org/Graphics/SVG/1.1/DTD/svg11.dtd">
<svg version="1.1" id="Layer_1" xmlns="http://www.w3.org/2000/svg" xmlns:xlink="http://www.w3.org/1999/xlink" x="0px" y="0px"
	 width="50px" height="50px" viewBox="314.5 174.5 50 50" enable-background="new 314.5 174.5 50 50" xml:space="preserve">
<path style="fill:white" d="M354.5,199h-1.585l-3.005-3c-0.195-0.195-0.512-0.195-0.707,0s-0.195,0.513,0,0.707l2.298,2.293h-2.922l-3.937-3.936
	l4.254-4.254c0.195-0.195,0.195-0.512,0-0.707s-0.512-0.195-0.707,0l-4.254,4.254L340,190.421v-2.922l2.295,2.297
	c0.195,0.195,0.512,0.195,0.707,0s0.195-0.512,0-0.707L340,186.084V184.5c0-0.276-0.224-0.5-0.5-0.5s-0.5,0.224-0.5,0.5v1.584
	l-3,3.005c-0.195,0.195-0.195,0.513,0,0.707c0.098,0.098,0.226,0.146,0.354,0.146s0.256-0.049,0.354-0.146L339,187.5v2.921
	l-3.936,3.937l-4.254-4.254c-0.195-0.195-0.512-0.195-0.707,0s-0.195,0.512,0,0.707l4.254,4.254L330.421,199h-2.922l2.296-2.295
	c0.195-0.195,0.195-0.512,0-0.707s-0.512-0.195-0.707,0L326.083,199H324.5c-0.276,0-0.5,0.224-0.5,0.5s0.224,0.5,0.5,0.5h1.584
	l3.006,3c0.098,0.098,0.226,0.146,0.354,0.146s0.256-0.049,0.354-0.146c0.195-0.195,0.195-0.513,0-0.707L327.5,200h2.921
	l3.937,3.936l-4.254,4.254c-0.195,0.195-0.195,0.512,0,0.707c0.098,0.098,0.226,0.146,0.354,0.146s0.256-0.049,0.354-0.146
	l4.254-4.254l3.936,3.937v2.923l-2.295-2.296c-0.195-0.195-0.512-0.195-0.707,0s-0.195,0.512,0,0.707l3.002,3.003v1.584
	c0,0.276,0.224,0.5,0.5,0.5s0.5-0.224,0.5-0.5v-1.585l3-3.004c0.195-0.195,0.195-0.513,0-0.707c-0.195-0.195-0.512-0.195-0.707,0
	L340,211.501v-2.922l3.936-3.937l4.254,4.254c0.098,0.098,0.226,0.146,0.354,0.146s0.256-0.049,0.354-0.146
	c0.195-0.195,0.195-0.512,0-0.707l-4.254-4.254l3.937-3.936h2.923l-2.296,2.295c-0.195,0.195-0.195,0.512,0,0.707
	c0.098,0.098,0.226,0.146,0.354,0.146s0.256-0.049,0.354-0.146l3.003-3.002h1.584c0.276,0,0.5-0.224,0.5-0.5S354.776,199,354.5,199z
	 M347.165,199h-6.458l3.229-3.229L347.165,199z M343.229,195.064L340,198.293v-6.458L343.229,195.064z M339,191.835v6.458
	l-3.229-3.229L339,191.835z M335.064,195.771l3.229,3.229h-6.458L335.064,195.771z M331.835,200h6.458l-3.229,3.229L331.835,200z
	 M335.771,203.936l3.229-3.229v6.458L335.771,203.936z M340,207.165v-6.458l3.229,3.229L340,207.165z M343.936,203.229L340.707,200
	h6.458L343.936,203.229z"/>
</svg>
