<?xml version="1.0" encoding="utf-8"?>
<!-- Generator: Adobe Illustrator 16.0.0, SVG Export Plug-In . SVG Version: 6.00 Build 0)  -->
<!DOCTYPE svg PUBLIC "-//W3C//DTD SVG 1.1//EN" "http://www.w3.org/Graphics/SVG/1.1/DTD/svg11.dtd">
<svg version="1.1" id="Layer_1" xmlns="http://www.w3.org/2000/svg" xmlns:xlink="http://www.w3.org/1999/xlink" x="0px" y="0px"
	 width="50px" height="50px" viewBox="-35.5 -175.5 50 50" enable-background="new -35.5 -175.5 50 50" xml:space="preserve">
<path style="fill:white" d="M4.814-142.236l-0.981-0.567v-2.466c0-0.179-0.095-0.344-0.25-0.433l-2.385-1.377c-0.154-0.089-0.346-0.089-0.5,0
	l-2.136,1.233l-1.612-0.931l5.728-1.534c0.267-0.071,0.425-0.346,0.354-0.612c-0.071-0.267-0.345-0.425-0.612-0.354l-6.693,1.792
	l-0.112-0.064v-5.905l0.116-0.067l6.689,1.792c0.043,0.012,0.087,0.017,0.13,0.017c0.221,0,0.422-0.147,0.482-0.371
	c0.071-0.267-0.087-0.541-0.354-0.612l-5.723-1.534l1.606-0.928l2.135,1.232c0.078,0.044,0.164,0.067,0.25,0.067
	s0.172-0.022,0.25-0.067l2.387-1.377c0.155-0.089,0.25-0.255,0.25-0.434l-0.002-2.463l0.983-0.568
	c0.239-0.138,0.321-0.444,0.183-0.683c-0.139-0.24-0.445-0.321-0.683-0.183l-0.983,0.568l-2.135-1.234
	c-0.154-0.089-0.345-0.089-0.5,0l-2.385,1.376c-0.155,0.089-0.25,0.254-0.25,0.433v2.467l-1.609,0.929l1.535-5.727
	c0.071-0.267-0.087-0.541-0.354-0.612c-0.264-0.071-0.541,0.086-0.612,0.354l-1.793,6.693l-0.114,0.066L-10-157.271v-0.132
	l4.898-4.897c0.195-0.195,0.195-0.512,0-0.707s-0.512-0.195-0.707,0l-4.191,4.19v-1.86l2.134-1.229
	c0.155-0.089,0.25-0.254,0.25-0.433v-2.756c0-0.179-0.095-0.344-0.25-0.433L-10-166.762v-1.134c0-0.276-0.224-0.5-0.5-0.5
	s-0.5,0.224-0.5,0.5v1.134l-2.135,1.233c-0.155,0.089-0.25,0.254-0.25,0.433v2.756c0,0.179,0.096,0.344,0.25,0.433l2.134,1.229v1.86
	l-4.191-4.19c-0.195-0.195-0.512-0.195-0.707,0s-0.195,0.512,0,0.707l4.898,4.897v0.132l-5.114,2.953l-0.114-0.066l-1.793-6.693
	c-0.071-0.267-0.346-0.425-0.612-0.354c-0.267,0.071-0.425,0.346-0.354,0.612l1.535,5.727l-1.611-0.93v-2.466
	c0-0.179-0.095-0.344-0.25-0.433l-2.383-1.376c-0.154-0.089-0.346-0.089-0.5,0l-2.135,1.234l-0.983-0.568
	c-0.239-0.138-0.545-0.056-0.683,0.183s-0.056,0.545,0.183,0.683l0.983,0.568l-0.002,2.463c0,0.179,0.095,0.344,0.25,0.434
	l2.385,1.377c0.077,0.044,0.164,0.067,0.25,0.067s0.173-0.022,0.25-0.067l2.135-1.233l1.608,0.929l-5.723,1.534
	c-0.267,0.071-0.425,0.346-0.354,0.612c0.06,0.224,0.262,0.371,0.482,0.371c0.043,0,0.086-0.005,0.13-0.017l6.689-1.792l0.116,0.067
	v5.905l-0.112,0.064l-6.693-1.792c-0.266-0.07-0.541,0.087-0.612,0.354c-0.071,0.267,0.087,0.541,0.354,0.612l5.728,1.534
	l-1.612,0.93l-2.136-1.232c-0.155-0.089-0.346-0.089-0.5,0l-2.384,1.376c-0.155,0.089-0.25,0.254-0.25,0.433l-0.001,2.466
	l-0.981,0.566c-0.239,0.138-0.321,0.444-0.183,0.683c0.093,0.161,0.261,0.25,0.434,0.25c0.085,0,0.171-0.021,0.25-0.067l0.983-0.568
	l2.133,1.234c0.078,0.044,0.164,0.067,0.25,0.067s0.173-0.022,0.25-0.067l2.385-1.379c0.154-0.089,0.25-0.254,0.25-0.433v-2.463
	l1.609-0.929l-1.532,5.723c-0.071,0.267,0.087,0.541,0.354,0.612c0.043,0.012,0.087,0.017,0.13,0.017
	c0.221,0,0.423-0.147,0.482-0.371l1.791-6.689l0.115-0.066l5.114,2.953v0.129l-4.898,4.898c-0.195,0.195-0.195,0.512,0,0.707
	s0.512,0.195,0.707,0l4.191-4.191v1.862l-2.134,1.229c-0.155,0.089-0.25,0.254-0.25,0.433v2.756c0,0.179,0.095,0.344,0.25,0.433
	l2.135,1.233v1.134c0,0.276,0.224,0.5,0.5,0.5s0.5-0.224,0.5-0.5v-1.134l2.135-1.233c0.155-0.089,0.25-0.254,0.25-0.433v-2.756
	c0-0.179-0.096-0.344-0.25-0.433L-10-140.323v-1.862l4.191,4.193c0.098,0.098,0.226,0.146,0.354,0.146s0.256-0.049,0.354-0.146
	c0.195-0.195,0.195-0.512,0-0.707l-4.898-4.9v-0.129l5.114-2.953l0.115,0.066l1.791,6.689c0.06,0.223,0.262,0.371,0.482,0.371
	c0.043,0,0.086-0.005,0.13-0.017c0.267-0.071,0.425-0.345,0.354-0.612l-1.532-5.723l1.61,0.93v2.462c0,0.179,0.095,0.343,0.25,0.433
	l2.385,1.379c0.078,0.045,0.164,0.067,0.25,0.067s0.173-0.022,0.25-0.067l2.132-1.233l0.983,0.568
	c0.079,0.045,0.165,0.067,0.25,0.067c0.173,0,0.341-0.09,0.434-0.25C5.136-141.792,5.054-142.098,4.814-142.236z M-0.938-158.199
	l1.885-1.087l1.385,0.801l0.5,0.289l0,0.578l0.001,1.598l-1.887,1.088l-1.385-0.799l-0.5-0.289v-0.578V-158.199z M-21.948-154.933
	l-1.885-1.088l0.001-1.598l0-0.578l0.5-0.289l1.385-0.8l1.883,1.087v1.6v0.578l-0.5,0.289L-21.948-154.933z M-20.063-142.805
	l-1.885,1.09l-1.384-0.8l-0.502-0.29l0-0.575l0-1.6l1.884-1.087l1.386,0.8l0.5,0.288v0.578V-142.805z M-10-144.883l-0.5,0.289
	l-0.5-0.289l-4.114-2.376l-0.5-0.289v-0.578v-4.75v-0.578l0.5-0.289l4.114-2.376l0.5-0.289l0.5,0.289l4.114,2.376l0.5,0.289v0.578
	v4.75v0.578l-0.5,0.289L-10-144.883z M-12.385-164.807l1.385-0.8l0.5-0.289l0.5,0.289l1.385,0.8v2.178L-10-161.831l-0.5,0.288
	l-0.5-0.288l-1.385-0.798V-164.807z M-8.615-136.193l-1.385,0.8l-0.5,0.289l-0.5-0.289l-1.385-0.8v-2.178l1.385-0.798l0.5-0.288
	l0.5,0.288l1.385,0.798V-136.193z M0.948-141.714l-1.885-1.09v-1.597v-0.579l0.499-0.288l1.386-0.8l1.885,1.088v1.6v0.575
	l-0.501,0.29L0.948-141.714z"/>
</svg>
