<?xml version="1.0" encoding="utf-8"?>
<!-- Generator: Adobe Illustrator 16.0.0, SVG Export Plug-In . SVG Version: 6.00 Build 0)  -->
<!DOCTYPE svg PUBLIC "-//W3C//DTD SVG 1.1//EN" "http://www.w3.org/Graphics/SVG/1.1/DTD/svg11.dtd">
<svg version="1.1" id="Layer_1" xmlns="http://www.w3.org/2000/svg" xmlns:xlink="http://www.w3.org/1999/xlink" x="0px" y="0px"
	 width="50px" height="50px" viewBox="-245.5 314.5 50 50" enable-background="new -245.5 314.5 50 50" xml:space="preserve">
<path style="fill:white" d="M-219.5,350.088l4.092,4.092l-0.707,0.707l-0.691-0.691l-1.693,1.693v0.926h-4v-0.926l-1.693-1.693l-0.691,0.691
	l-0.707-0.707l4.092-4.092v2.07l-1.658,1.658l1.658,1.658v0.34h2v-0.34l1.658-1.658l-1.658-1.658V350.088z M-209.432,330.04
	l2.265,0.608l0.296-0.172l1,1.731l-0.297,0.172l-0.606,2.266l-2.267-0.608l-1.791,1.036l5.59,1.498l0.259-0.967l-0.945-0.253
	l0.619-2.313l0.803-0.465l-2-3.464l-0.803,0.465l-2.312-0.62l0.253-0.943l-0.966-0.26l-1.499,5.592l1.792-1.037L-209.432,330.04z
	 M-213.28,336.487l7.891,2.113l0.002,1.799l-7.896,2.113l-1.515-0.874v-4.277L-213.28,336.487z M-213.14,337.56l-0.658,0.38v3.121
	l0.657,0.38l6.753-1.809v-0.264L-213.14,337.56z M-205.929,343.648l0.946-0.253l-0.259-0.967l-5.592,1.499l1.796,1.034l2.264-0.605
	l0.608,2.264l0.296,0.172l-1,1.732l-0.295-0.17l-2.267,0.605l-0.607-2.267l-1.794-1.033l1.499,5.591l0.966-0.26l-0.253-0.945
	l2.315-0.619l0.803,0.463l2-3.463l-0.803-0.465L-205.929,343.648z M-214.283,344.245l2.115,7.893l-1.555,0.899l-5.777-5.779v-1.752
	l3.702-2.136L-214.283,344.245z M-213.332,351.656l-1.809-6.753l-0.657-0.379l-2.702,1.56v0.76l4.941,4.943L-213.332,351.656z
	 M-221.5,347.258l-5.777,5.779l-1.557-0.899l2.115-7.894l1.517-0.874l3.702,2.136V347.258z M-222.5,346.084l-2.702-1.56l-0.659,0.38
	l-1.809,6.751l0.229,0.132l4.941-4.943V346.084z M-231.567,348.96l-2.267-0.605l-0.295,0.17l-1-1.732l0.296-0.172l0.608-2.264
	l2.264,0.605l1.796-1.034l-5.592-1.499l-0.259,0.967l0.946,0.253l-0.621,2.313l-0.803,0.465l2,3.463l0.803-0.463l2.313,0.619
	l-0.253,0.945l0.966,0.26l1.498-5.589l-1.791,1.031L-231.567,348.96z M-227.72,336.487l1.518,0.874v4.277l-1.516,0.874l-7.895-2.113
	l0.002-1.799L-227.72,336.487z M-227.202,337.939l-0.658-0.38l-6.751,1.809v0.264l6.752,1.809l0.658-0.38V337.939z
	 M-235.073,335.352l-0.945,0.253l0.259,0.967l5.59-1.498l-1.791-1.036l-2.267,0.608l-0.606-2.266l-0.297-0.172l1-1.731l0.296,0.172
	l2.265-0.608l0.607,2.266l1.792,1.037l-1.499-5.592l-0.966,0.26l0.253,0.943l-2.312,0.62l-0.803-0.465l-2,3.464l0.803,0.465
	L-235.073,335.352z M-226.719,334.755l-2.115-7.893l1.557-0.899l5.777,5.779v1.752l-3.703,2.136L-226.719,334.755z M-227.67,327.345
	l1.809,6.752l0.658,0.379l2.703-1.56v-0.76l-4.941-4.943L-227.67,327.345z M-221.5,326.844l-1.658-1.658l1.658-1.658v-0.342h2v0.342
	l1.658,1.658l-1.658,1.658v2.068l4.092-4.092l-0.707-0.707l-0.692,0.692l-1.692-1.692v-0.928h-4v0.928l-1.692,1.692l-0.692-0.692
	l-0.707,0.707l4.092,4.092V326.844z M-219.5,331.742l5.777-5.779l1.557,0.899l-2.115,7.893l-1.516,0.875l-3.703-2.136V331.742z
	 M-218.5,332.916l2.703,1.56l0.658-0.379l1.809-6.752l-0.229-0.132l-4.941,4.943V332.916z"/>
</svg>
