<?xml version="1.0" encoding="utf-8"?>
<!-- Generator: Adobe Illustrator 16.0.0, SVG Export Plug-In . SVG Version: 6.00 Build 0)  -->
<!DOCTYPE svg PUBLIC "-//W3C//DTD SVG 1.1//EN" "http://www.w3.org/Graphics/SVG/1.1/DTD/svg11.dtd">
<svg version="1.1" id="Layer_1" xmlns="http://www.w3.org/2000/svg" xmlns:xlink="http://www.w3.org/1999/xlink" x="0px" y="0px"
	 width="50px" height="50px" viewBox="-315.5 174.5 50 50" enable-background="new -315.5 174.5 50 50" xml:space="preserve">
<path style="fill:white" d="M-273.105,198.75h-3.09l0.845-1.464c0.207-0.359,0.083-0.817-0.275-1.024c-0.358-0.208-0.817-0.085-1.024,0.274
	l-1.276,2.214h-2.102l2.514-4.354c0.207-0.358,0.084-0.817-0.274-1.024c-0.357-0.207-0.818-0.084-1.024,0.274l-2.948,5.104h-2.024
	c-0.213-1.918-1.234-3.591-2.712-4.683l1.017-1.761l5.896-0.001c0.415,0,0.75-0.336,0.75-0.75s-0.336-0.75-0.75-0.75l-5.029,0.001
	l1.05-1.819l2.556,0.001c0,0,0,0,0,0c0.414,0,0.75-0.336,0.75-0.75s-0.335-0.75-0.75-0.75l-1.69-0.001l1.545-2.677
	c0.207-0.358,0.084-0.817-0.274-1.024c-0.358-0.207-0.817-0.084-1.024,0.274l-1.545,2.677l-0.845-1.464
	c-0.207-0.358-0.667-0.482-1.024-0.274c-0.359,0.207-0.481,0.666-0.274,1.024l1.278,2.214l-1.05,1.818l-2.514-4.354
	c-0.207-0.358-0.666-0.481-1.024-0.274c-0.359,0.207-0.481,0.666-0.274,1.024l2.946,5.104l-1.014,1.757
	c-0.83-0.365-1.744-0.57-2.707-0.57c-0.962,0-1.877,0.205-2.707,0.569l-1.013-1.755l2.946-5.105
	c0.207-0.358,0.084-0.817-0.274-1.024c-0.358-0.208-0.818-0.084-1.024,0.274l-2.514,4.355l-1.05-1.818l1.278-2.216
	c0.207-0.359,0.084-0.817-0.274-1.024c-0.36-0.208-0.818-0.085-1.024,0.274l-0.845,1.465l-1.546-2.678
	c-0.207-0.358-0.667-0.481-1.024-0.274c-0.359,0.207-0.481,0.666-0.274,1.024l1.545,2.677h-1.689c-0.414,0-0.75,0.336-0.75,0.75
	s0.336,0.75,0.75,0.75h2.556l1.05,1.819h-5.027c-0.414,0-0.75,0.336-0.75,0.75s0.336,0.75,0.75,0.75h5.894l1.017,1.762
	c-1.478,1.091-2.499,2.765-2.712,4.683h-2.024l-2.95-5.104c-0.208-0.36-0.667-0.481-1.025-0.274s-0.481,0.666-0.274,1.024
	l2.516,4.354h-2.104l-1.277-2.213c-0.207-0.359-0.667-0.481-1.024-0.274c-0.359,0.207-0.481,0.666-0.274,1.024l0.845,1.463h-3.089
	c-0.414,0-0.75,0.336-0.75,0.75s0.336,0.75,0.75,0.75h3.09l-0.845,1.465c-0.207,0.359-0.083,0.817,0.275,1.024
	c0.118,0.068,0.247,0.101,0.374,0.101c0.259,0,0.511-0.135,0.65-0.375l1.277-2.215h2.103l-2.516,4.355
	c-0.207,0.358-0.084,0.817,0.274,1.024c0.118,0.068,0.247,0.101,0.375,0.101c0.259,0,0.511-0.135,0.65-0.375l2.949-5.105h2.024
	c0.213,1.918,1.234,3.591,2.712,4.683l-1.017,1.762h-5.893c-0.414,0-0.75,0.336-0.75,0.75s0.336,0.75,0.75,0.75h5.026l-1.05,1.819
	h-2.557c-0.414,0-0.75,0.336-0.75,0.75s0.336,0.75,0.75,0.75h1.69l-1.545,2.676c-0.207,0.358-0.084,0.817,0.274,1.024
	c0.118,0.068,0.247,0.101,0.375,0.101c0.259,0,0.511-0.135,0.65-0.375l1.546-2.677l0.846,1.465c0.139,0.24,0.391,0.375,0.65,0.375
	c0.127,0,0.256-0.032,0.375-0.101c0.359-0.207,0.481-0.666,0.274-1.024l-1.279-2.215l1.05-1.819l2.515,4.355
	c0.139,0.24,0.391,0.375,0.65,0.375c0.127,0,0.256-0.032,0.375-0.101c0.359-0.207,0.481-0.666,0.274-1.024l-2.947-5.105l1.013-1.756
	c0.83,0.365,1.744,0.57,2.707,0.57s1.877-0.205,2.707-0.57l1.014,1.756l-2.948,5.105c-0.207,0.358-0.084,0.817,0.274,1.024
	c0.118,0.068,0.247,0.101,0.375,0.101c0.259,0,0.511-0.135,0.65-0.375l2.515-4.355l1.051,1.819l-1.277,2.214
	c-0.207,0.359-0.084,0.817,0.274,1.024c0.118,0.068,0.247,0.101,0.375,0.101c0.259,0,0.511-0.135,0.65-0.375l0.844-1.464
	l1.546,2.678c0.139,0.24,0.391,0.375,0.65,0.375c0.127,0,0.256-0.032,0.375-0.101c0.359-0.207,0.481-0.666,0.274-1.024l-1.546-2.678
	h1.69c0.414,0,0.75-0.336,0.75-0.75s-0.336-0.75-0.75-0.75h-2.557l-1.05-1.819l5.028,0.001c0.414,0,0.75-0.336,0.75-0.75
	s-0.335-0.75-0.75-0.75l-5.895-0.001l-1.017-1.761c1.478-1.092,2.499-2.765,2.711-4.683h2.023l2.948,5.105
	c0.139,0.24,0.391,0.375,0.65,0.375c0.127,0,0.256-0.032,0.375-0.101c0.359-0.207,0.481-0.666,0.274-1.024l-2.514-4.355h2.104
	l1.278,2.215c0.139,0.24,0.391,0.375,0.65,0.375c0.127,0,0.256-0.032,0.375-0.101c0.359-0.207,0.481-0.666,0.274-1.024l-0.846-1.465
	h3.09c0.414,0,0.75-0.336,0.75-0.75S-272.691,198.75-273.105,198.75z M-285.242,199.5c0,0.257-0.04,0.503-0.076,0.75
	c-0.197,1.361-0.911,2.544-1.943,3.36c-0.393,0.31-0.819,0.574-1.291,0.764c-0.604,0.242-1.259,0.384-1.949,0.384
	s-1.344-0.142-1.948-0.384c-0.471-0.189-0.898-0.454-1.291-0.764c-1.032-0.815-1.746-1.999-1.943-3.36
	c-0.036-0.247-0.076-0.493-0.076-0.75s0.04-0.503,0.076-0.75c0.197-1.361,0.911-2.545,1.944-3.36
	c0.393-0.311,0.82-0.575,1.291-0.764c0.604-0.242,1.258-0.384,1.948-0.384s1.344,0.142,1.948,0.384
	c0.471,0.189,0.898,0.454,1.291,0.764c1.032,0.815,1.746,1.999,1.943,3.36C-285.282,198.997-285.242,199.243-285.242,199.5z"/>
</svg>
