<?xml version="1.0" encoding="utf-8"?>
<!-- Generator: Adobe Illustrator 16.0.0, SVG Export Plug-In . SVG Version: 6.00 Build 0)  -->
<!DOCTYPE svg PUBLIC "-//W3C//DTD SVG 1.1//EN" "http://www.w3.org/Graphics/SVG/1.1/DTD/svg11.dtd">
<svg version="1.1" id="Layer_1" xmlns="http://www.w3.org/2000/svg" xmlns:xlink="http://www.w3.org/1999/xlink" x="0px" y="0px"
	 width="50px" height="50px" viewBox="34.5 174.5 50 50" enable-background="new 34.5 174.5 50 50" xml:space="preserve">
<path style="fill:white" d="M74.5,199h-0.749l-2.202-2.2c-0.195-0.195-0.512-0.195-0.707,0s-0.195,0.512,0,0.707L72.337,199h-2.494l-4.567-4.568
	l5.185-5.185c0.195-0.195,0.195-0.512,0-0.707s-0.512-0.195-0.707,0l-5.185,5.185L60,189.157v-2.493l1.495,1.494
	c0.098,0.098,0.226,0.146,0.354,0.146s0.256-0.049,0.354-0.146c0.195-0.195,0.195-0.512,0-0.707L60,185.25v-0.75
	c0-0.276-0.224-0.5-0.5-0.5s-0.5,0.224-0.5,0.5v0.749l-2.2,2.202c-0.195,0.195-0.195,0.512,0,0.707s0.512,0.195,0.707,0L59,186.663
	v2.494l-4.568,4.567l-5.185-5.185c-0.195-0.195-0.512-0.195-0.707,0s-0.195,0.512,0,0.707l5.185,5.185L49.157,199h-2.493
	l1.494-1.495c0.195-0.195,0.195-0.512,0-0.707s-0.512-0.195-0.707,0L45.25,199H44.5c-0.276,0-0.5,0.224-0.5,0.5s0.224,0.5,0.5,0.5
	h0.749l2.202,2.2c0.098,0.098,0.226,0.146,0.354,0.146s0.256-0.049,0.354-0.146c0.195-0.195,0.195-0.512,0-0.707L46.663,200h2.494
	l4.567,4.568l-5.185,5.185c-0.195,0.195-0.195,0.512,0,0.707c0.098,0.098,0.226,0.146,0.354,0.146s0.256-0.049,0.354-0.146
	l5.185-5.185L59,209.843v2.493l-1.495-1.494c-0.195-0.195-0.512-0.195-0.707,0s-0.195,0.512,0,0.707L59,213.75v0.75
	c0,0.276,0.224,0.5,0.5,0.5s0.5-0.224,0.5-0.5v-0.749l2.2-2.202c0.195-0.195,0.195-0.512,0-0.707s-0.512-0.195-0.707,0L60,212.337
	v-2.494l4.568-4.567l5.185,5.185c0.098,0.098,0.226,0.146,0.354,0.146s0.256-0.049,0.354-0.146c0.195-0.195,0.195-0.512,0-0.707
	l-5.185-5.185L69.843,200h2.493l-1.494,1.495c-0.195,0.195-0.195,0.512,0,0.707c0.098,0.098,0.226,0.146,0.354,0.146
	s0.256-0.049,0.354-0.146L73.75,200h0.75c0.276,0,0.5-0.224,0.5-0.5S74.776,199,74.5,199z M68.429,199h-7.722l3.861-3.861
	L68.429,199z M63.861,194.432L60,198.293v-7.722L63.861,194.432z M59,190.571v7.722l-3.861-3.861L59,190.571z M54.432,195.139
	L58.293,199h-7.722L54.432,195.139z M50.571,200h7.722l-3.861,3.861L50.571,200z M55.139,204.568L59,200.707v7.722L55.139,204.568z
	 M60,208.429v-7.722l3.861,3.861L60,208.429z M64.568,203.861L60.707,200h7.722L64.568,203.861z"/>
</svg>
