<?xml version="1.0" encoding="utf-8"?>
<!-- Generator: Adobe Illustrator 16.0.0, SVG Export Plug-In . SVG Version: 6.00 Build 0)  -->
<!DOCTYPE svg PUBLIC "-//W3C//DTD SVG 1.1//EN" "http://www.w3.org/Graphics/SVG/1.1/DTD/svg11.dtd">
<svg version="1.1" id="Layer_1" xmlns="http://www.w3.org/2000/svg" xmlns:xlink="http://www.w3.org/1999/xlink" x="0px" y="0px"
	 width="50px" height="50px" viewBox="-35.5 174.5 50 50" enable-background="new -35.5 174.5 50 50" xml:space="preserve">
<path style="fill:white" d="M6.895,198.75H4.091l0.878-1.521c0.207-0.359,0.083-0.817-0.275-1.024c-0.358-0.208-0.817-0.084-1.024,0.274l-1.157,2.007
	l-0.729-1.263c-0.134-0.232-0.381-0.375-0.649-0.375h-2.194c-0.268,0-0.516,0.143-0.649,0.375l-0.882,1.527h-1.193
	c-0.213-1.918-1.234-3.591-2.712-4.683l0.601-1.04h1.762c0.268,0,0.516-0.143,0.649-0.375l1.098-1.902
	c0.134-0.232,0.134-0.519,0-0.75l-0.729-1.261l2.317,0.001h0c0.414,0,0.75-0.336,0.75-0.75s-0.335-0.75-0.75-0.75l-1.756-0.001
	l1.402-2.429c0.207-0.358,0.084-0.817-0.274-1.024c-0.357-0.207-0.818-0.084-1.024,0.274l-1.402,2.428l-0.878-1.521
	c-0.207-0.358-0.667-0.483-1.024-0.274c-0.359,0.207-0.481,0.666-0.274,1.024l1.159,2.008h-1.459c-0.268,0-0.515,0.143-0.649,0.375
	l-1.098,1.9c-0.134,0.231-0.134,0.518,0,0.75l0.882,1.528l-0.597,1.034c-0.83-0.365-1.744-0.57-2.707-0.57s-1.877,0.205-2.707,0.57
	l-0.599-1.037l0.882-1.523c0.135-0.232,0.135-0.519,0-0.751l-1.1-1.902c-0.134-0.232-0.381-0.375-0.649-0.375l-1.453-0.001
	l1.156-2.006c0.207-0.359,0.083-0.818-0.275-1.024c-0.359-0.209-0.817-0.084-1.024,0.274l-0.877,1.523l-1.403-2.431
	c-0.207-0.358-0.667-0.481-1.024-0.274c-0.359,0.207-0.481,0.666-0.274,1.024l1.402,2.429H-20.2c-0.414,0-0.75,0.336-0.75,0.75
	s0.336,0.75,0.75,0.75h2.313L-18.614,190c-0.134,0.232-0.133,0.519,0,0.75l1.099,1.902c0.134,0.232,0.381,0.375,0.649,0.375h0
	l1.761-0.002l0.602,1.042c-1.478,1.092-2.499,2.765-2.712,4.683h-1.195l-0.881-1.526c-0.134-0.232-0.381-0.375-0.649-0.375h-2.194
	c-0.268,0-0.516,0.144-0.65,0.375l-0.729,1.263l-1.159-2.008c-0.208-0.358-0.667-0.482-1.024-0.274
	c-0.358,0.207-0.481,0.666-0.274,1.024l0.878,1.521h-2.803c-0.414,0-0.75,0.336-0.75,0.75s0.336,0.75,0.75,0.75h2.804l-0.878,1.521
	c-0.207,0.359-0.084,0.817,0.274,1.024c0.118,0.068,0.247,0.101,0.375,0.101c0.259,0,0.511-0.135,0.65-0.375l1.158-2.007l0.726,1.26
	c0.134,0.232,0.381,0.376,0.649,0.376l2.195,0.001c0,0,0,0,0,0c0.268,0,0.516-0.143,0.649-0.375l0.881-1.526h1.195
	c0.213,1.918,1.234,3.591,2.712,4.683l-0.601,1.04l-1.764,0.002c-0.268,0-0.515,0.143-0.649,0.375l-1.098,1.899
	c-0.134,0.231-0.134,0.518,0,0.75l0.729,1.263h-2.315c-0.414,0-0.75,0.336-0.75,0.75s0.336,0.75,0.75,0.75h1.756l-1.402,2.428
	c-0.207,0.358-0.084,0.817,0.274,1.024c0.118,0.068,0.247,0.101,0.375,0.101c0.259,0,0.511-0.135,0.65-0.375l1.403-2.43l0.879,1.521
	c0.139,0.241,0.391,0.375,0.65,0.375c0.127,0,0.257-0.032,0.375-0.101c0.358-0.207,0.481-0.666,0.274-1.024l-1.159-2.006
	l1.455,0.001c0,0,0,0,0,0c0.268,0,0.516-0.144,0.65-0.376l1.096-1.903c0.134-0.231,0.133-0.518,0-0.749l-0.879-1.523l0.598-1.037
	c0.83,0.365,1.744,0.57,2.707,0.57s1.877-0.205,2.707-0.57l0.598,1.036l-0.882,1.523c-0.135,0.232-0.135,0.519,0,0.751l1.099,1.903
	c0.134,0.231,0.381,0.375,0.649,0.375l1.457,0.001l-1.156,2.004c-0.207,0.359-0.084,0.817,0.274,1.024
	c0.118,0.068,0.247,0.101,0.375,0.101c0.259,0,0.511-0.135,0.65-0.375l0.877-1.521l1.403,2.43c0.139,0.24,0.391,0.375,0.65,0.375
	c0.127,0,0.256-0.032,0.375-0.101c0.359-0.207,0.481-0.666,0.274-1.024l-1.403-2.431h1.757c0.414,0,0.75-0.336,0.75-0.75
	s-0.336-0.75-0.75-0.75h-2.316l0.727-1.261c0.134-0.231,0.133-0.517,0-0.749l-1.098-1.902c-0.134-0.232-0.381-0.375-0.649-0.375h0
	l-1.76,0.002l-0.602-1.042c1.478-1.092,2.499-2.765,2.712-4.683h1.195l0.879,1.523c0.134,0.231,0.381,0.375,0.649,0.375l2.197,0.002
	h0c0.268,0,0.516-0.144,0.65-0.376l0.727-1.262l1.16,2.009c0.139,0.24,0.391,0.375,0.65,0.375c0.127,0,0.256-0.032,0.375-0.101
	c0.359-0.207,0.481-0.666,0.274-1.024l-0.879-1.521h2.804c0.414,0,0.75-0.336,0.75-0.75S7.309,198.75,6.895,198.75z M-6.562,190.375
	l0.665-1.15h0.465h0.865l0.433,0.75l0.231,0.4l-0.665,1.152h-0.462h-0.867l-0.433-0.75L-6.562,190.375z M-16.433,191.527
	l-0.666-1.152l0.232-0.402l0.433-0.75l0.867,0.001h0.462l0.667,1.152l-0.232,0.4l-0.434,0.749l-0.864,0.001L-16.433,191.527z
	 M-14.441,208.623l-0.664,1.153h-0.462l-0.868-0.001l-0.431-0.748l-0.232-0.403l0.665-1.149l0.464-0.001l0.865-0.001l0.434,0.752
	L-14.441,208.623z M-4.568,207.473l0.665,1.152l-0.231,0.4l-0.433,0.752l-0.866-0.001h-0.464l-0.666-1.152l0.232-0.401l0.433-0.748
	l0.866-0.001L-4.568,207.473z M1.365,199.498l-0.433,0.752l-0.23,0.4l-1.331-0.002l-0.23-0.398l-0.434-0.751l0.432-0.749
	l0.232-0.402H0.7l0.232,0.402L1.365,199.498z M-5.242,199.5c0,0.257-0.04,0.503-0.076,0.75c-0.197,1.361-0.911,2.545-1.943,3.36
	c-0.393,0.31-0.82,0.574-1.291,0.764c-0.604,0.242-1.259,0.384-1.948,0.384s-1.344-0.142-1.948-0.384
	c-0.471-0.189-0.898-0.454-1.291-0.764c-1.032-0.815-1.746-1.999-1.943-3.36c-0.036-0.247-0.076-0.493-0.076-0.75
	s0.04-0.503,0.076-0.75c0.197-1.361,0.911-2.545,1.943-3.36c0.393-0.31,0.82-0.574,1.291-0.764c0.604-0.242,1.259-0.384,1.948-0.384
	s1.344,0.142,1.948,0.384c0.471,0.189,0.898,0.454,1.291,0.764c1.032,0.815,1.746,1.999,1.943,3.36
	C-5.282,198.997-5.242,199.243-5.242,199.5z M-19.709,199.5l-0.433,0.75l-0.232,0.401l-1.329-0.001l-0.231-0.4l-0.432-0.75
	l0.433-0.75l0.231-0.401h1.328l0.232,0.401L-19.709,199.5z"/>
</svg>
