<?xml version="1.0" encoding="utf-8"?>
<!-- Generator: Adobe Illustrator 16.0.0, SVG Export Plug-In . SVG Version: 6.00 Build 0)  -->
<!DOCTYPE svg PUBLIC "-//W3C//DTD SVG 1.1//EN" "http://www.w3.org/Graphics/SVG/1.1/DTD/svg11.dtd">
<svg version="1.1" id="Layer_1" xmlns="http://www.w3.org/2000/svg" xmlns:xlink="http://www.w3.org/1999/xlink" x="0px" y="0px"
	 width="50px" height="50px" viewBox="314.5 -245.5 50 50" enable-background="new 314.5 -245.5 50 50" xml:space="preserve">
<path style="fill:white" d="M331.02-214.903l2.885-0.001v0.504v0.003l-0.002,2.378c0,0.276-0.224,0.5-0.5,0.5s-0.5-0.224-0.5-0.5l0.001-1.2
	l-3.779,3.683c-0.097,0.095-0.223,0.142-0.349,0.142c-0.13,0-0.26-0.05-0.358-0.151c-0.192-0.198-0.188-0.515,0.01-0.707
	l3.748-3.652l-1.155,0c-0.276,0-0.5-0.224-0.5-0.5C330.52-214.679,330.743-214.903,331.02-214.903z M332.22-227.096l-1.202,0
	c-0.276,0-0.5,0.224-0.5,0.5c0,0.276,0.224,0.5,0.5,0.5l2.885-0.001v-2.884c0-0.276-0.224-0.5-0.5-0.5s-0.5,0.224-0.5,0.5v1.153
	l-3.78-3.639c-0.197-0.19-0.514-0.185-0.707,0.014c-0.191,0.199-0.186,0.516,0.014,0.707L332.22-227.096z M348.48-226.597
	c0-0.276-0.224-0.5-0.5-0.5l-1.202,0l3.791-3.649c0.199-0.191,0.205-0.508,0.014-0.707c-0.192-0.199-0.509-0.204-0.707-0.014
	l-3.78,3.639v-1.154c0-0.276-0.224-0.5-0.5-0.5s-0.5,0.224-0.5,0.5v2.886l2.885-0.001
	C348.257-226.097,348.48-226.321,348.48-226.597z M344.146-221c0.019,0.167,0.051,0.329,0.051,0.5s-0.032,0.333-0.051,0.5
	c-0.235,2.186-1.96,3.91-4.146,4.146c-0.166,0.018-0.329,0.051-0.5,0.051s-0.334-0.033-0.5-0.051
	c-2.186-0.235-3.91-1.96-4.146-4.146c-0.019-0.167-0.051-0.329-0.051-0.5s0.032-0.333,0.051-0.5c0.235-2.186,1.96-3.91,4.146-4.146
	c0.166-0.018,0.329-0.051,0.5-0.051s0.334,0.033,0.5,0.051C342.186-224.91,343.91-223.186,344.146-221z M343.196-220.5
	c0-0.171-0.028-0.335-0.051-0.5c-0.224-1.635-1.511-2.921-3.146-3.146c-0.165-0.023-0.329-0.051-0.5-0.051s-0.335,0.028-0.5,0.051
	c-1.635,0.224-2.922,1.51-3.146,3.146c-0.022,0.165-0.051,0.329-0.051,0.5s0.028,0.335,0.051,0.5
	c0.224,1.635,1.511,2.921,3.146,3.146c0.165,0.023,0.329,0.051,0.5,0.051s0.335-0.028,0.5-0.051c1.635-0.224,2.922-1.51,3.146-3.146
	C343.168-220.165,343.196-220.329,343.196-220.5z M354.5-220h-1.247l1.601,1.598c0.195,0.195,0.195,0.512,0,0.708
	c-0.098,0.098-0.226,0.146-0.354,0.146s-0.256-0.049-0.354-0.146L351.838-220h-0.297c-0.091,0.482-0.322,0.927-0.678,1.281
	c-0.466,0.466-1.086,0.723-1.746,0.723c-0.659,0-1.279-0.257-1.746-0.723c-0.354-0.354-0.586-0.798-0.678-1.281h-0.281
	c-0.246,3.426-2.986,6.166-6.412,6.412v0.347c0.463,0.09,0.9,0.305,1.243,0.648c0.467,0.466,0.724,1.086,0.724,1.747
	c-0.001,0.66-0.258,1.28-0.724,1.746c-0.345,0.345-0.775,0.574-1.243,0.67v0.268l2.307,2.309c0.195,0.195,0.195,0.512,0,0.707
	c-0.098,0.098-0.226,0.146-0.354,0.146s-0.256-0.049-0.354-0.146l-1.6-1.601v1.247c0,0.276-0.224,0.5-0.5,0.5s-0.5-0.224-0.5-0.5
	v-1.247l-1.6,1.601c-0.195,0.195-0.512,0.195-0.707,0c-0.195-0.195-0.195-0.512,0-0.707l2.307-2.309v-0.266
	c-0.471-0.096-0.902-0.326-1.249-0.672c-0.963-0.963-0.963-2.53,0-3.493c0.345-0.344,0.785-0.56,1.249-0.649v-0.346
	c-3.426-0.246-6.166-2.986-6.412-6.412h-0.284c-0.092,0.482-0.323,0.925-0.678,1.28c-0.466,0.466-1.086,0.723-1.746,0.723
	c-0.659,0-1.279-0.257-1.746-0.723c-0.354-0.354-0.585-0.798-0.678-1.279h-0.296l-2.307,2.309c-0.098,0.098-0.226,0.146-0.354,0.146
	s-0.256-0.049-0.354-0.146c-0.195-0.195-0.195-0.512,0-0.707l1.6-1.602H324.5c-0.276,0-0.5-0.224-0.5-0.5s0.224-0.5,0.5-0.5h1.246
	l-1.6-1.599c-0.195-0.195-0.195-0.512,0-0.707s0.512-0.195,0.707,0L327.16-221h0.312c0.101-0.456,0.324-0.875,0.662-1.213
	c0.933-0.931,2.558-0.933,3.492,0c0.337,0.338,0.561,0.757,0.661,1.213h0.301c0.246-3.426,2.986-6.166,6.412-6.412v-0.255
	c-0.471-0.096-0.902-0.326-1.249-0.672c-0.963-0.963-0.963-2.53,0-3.493c0.345-0.345,0.785-0.56,1.249-0.65v-0.355l-2.309-2.309
	c-0.195-0.195-0.195-0.512,0-0.707s0.512-0.195,0.707,0l1.602,1.601v-1.248c0-0.276,0.224-0.5,0.5-0.5s0.5,0.224,0.5,0.5v1.247
	l1.598-1.6c0.195-0.196,0.512-0.195,0.707-0.001c0.195,0.195,0.195,0.512,0,0.707L340-232.838v0.357
	c0.463,0.09,0.9,0.305,1.243,0.648c0.467,0.466,0.724,1.086,0.724,1.747c-0.001,0.66-0.258,1.28-0.724,1.746
	c-0.345,0.345-0.775,0.574-1.243,0.67v0.257c3.426,0.246,6.166,2.986,6.412,6.412h0.298c0.1-0.455,0.323-0.875,0.661-1.212
	c0.933-0.931,2.558-0.933,3.492,0c0.337,0.337,0.561,0.756,0.661,1.211h0.313l2.309-2.309c0.195-0.195,0.512-0.195,0.707,0
	s0.195,0.512,0,0.707L353.252-221h1.248c0.276,0,0.5,0.224,0.5,0.5S354.776-220,354.5-220z M331.35-220.467
	c0-0.186-0.037-0.365-0.103-0.533c-0.073-0.187-0.182-0.36-0.328-0.506c-0.277-0.277-0.646-0.43-1.039-0.43s-0.762,0.153-1.039,0.43
	c-0.146,0.146-0.255,0.319-0.328,0.506c-0.065,0.168-0.103,0.348-0.103,0.533c0,0.162,0.032,0.318,0.082,0.467
	c0.071,0.212,0.186,0.409,0.349,0.572c0.555,0.555,1.523,0.555,2.078,0c0.163-0.163,0.277-0.36,0.349-0.572
	C331.317-220.149,331.35-220.305,331.35-220.467z M339-228.724c0.322,0.111,0.678,0.111,1-0.001c0.198-0.068,0.384-0.17,0.536-0.322
	c0.277-0.277,0.431-0.646,0.431-1.039c0-0.393-0.153-0.762-0.431-1.04c-0.153-0.154-0.338-0.265-0.536-0.337
	c-0.159-0.058-0.328-0.093-0.503-0.093c-0.173,0-0.339,0.034-0.497,0.091c-0.201,0.072-0.387,0.184-0.542,0.339
	c-0.573,0.573-0.573,1.505,0,2.079C338.612-228.893,338.8-228.792,339-228.724z M340-212.223c-0.159-0.058-0.328-0.093-0.503-0.093
	c-0.173,0-0.339,0.035-0.497,0.091c-0.201,0.072-0.387,0.184-0.542,0.339c-0.573,0.573-0.573,1.505,0,2.079
	c0.154,0.154,0.342,0.255,0.542,0.323c0.322,0.111,0.678,0.111,1-0.001c0.198-0.069,0.384-0.17,0.536-0.322
	c0.277-0.277,0.431-0.646,0.431-1.039c0-0.393-0.153-0.762-0.431-1.04C340.383-212.04,340.198-212.15,340-212.223z M345.438-220.5
	c0-0.169-0.012-0.335-0.025-0.5c-0.241-2.875-2.537-5.171-5.412-5.412c-0.165-0.014-0.331-0.025-0.5-0.025s-0.335,0.012-0.5,0.025
	c-2.875,0.241-5.171,2.537-5.412,5.412c-0.014,0.165-0.025,0.331-0.025,0.5s0.012,0.335,0.025,0.5
	c0.241,2.875,2.537,5.171,5.412,5.412c0.165,0.014,0.331,0.025,0.5,0.025s0.335-0.012,0.5-0.025
	c2.875-0.241,5.171-2.537,5.412-5.412C345.426-220.165,345.438-220.331,345.438-220.5z M350.587-220.465
	c0-0.186-0.037-0.366-0.103-0.535c-0.073-0.187-0.183-0.358-0.328-0.504c-0.277-0.277-0.646-0.43-1.039-0.43
	s-0.762,0.153-1.039,0.43c-0.146,0.146-0.255,0.318-0.328,0.504c-0.065,0.168-0.103,0.349-0.103,0.535
	c0,0.162,0.032,0.317,0.082,0.465c0.071,0.213,0.186,0.41,0.349,0.574c0.555,0.555,1.523,0.555,2.078,0
	c0.163-0.164,0.277-0.361,0.349-0.574C350.555-220.148,350.587-220.304,350.587-220.465z M346.824-213.904l1.158,0
	c0.276,0,0.5-0.224,0.5-0.5c0-0.276-0.224-0.5-0.5-0.5l-2.887,0.001v0.506v2.377c0,0.276,0.224,0.5,0.5,0.5s0.5-0.224,0.5-0.5
	v-1.199l3.78,3.683c0.097,0.095,0.223,0.142,0.349,0.142c0.13,0,0.26-0.05,0.358-0.151c0.192-0.198,0.188-0.515-0.01-0.707
	L346.824-213.904z"/>
</svg>
