<?xml version="1.0" encoding="utf-8"?>
<!-- Generator: Adobe Illustrator 16.0.0, SVG Export Plug-In . SVG Version: 6.00 Build 0)  -->
<!DOCTYPE svg PUBLIC "-//W3C//DTD SVG 1.1//EN" "http://www.w3.org/Graphics/SVG/1.1/DTD/svg11.dtd">
<svg version="1.1" id="Layer_1" xmlns="http://www.w3.org/2000/svg" xmlns:xlink="http://www.w3.org/1999/xlink" x="0px" y="0px"
	 width="50px" height="50px" viewBox="314.5 -35.5 50 50" enable-background="new 314.5 -35.5 50 50" xml:space="preserve">
<path style="fill:white" d="M332.046-18.754c0-0.276,0.224-0.5,0.5-0.5l1.901,0.001l0.95-1.648c0.139-0.239,0.442-0.321,0.684-0.183
	c0.239,0.138,0.321,0.444,0.184,0.683l-1.239,2.148l-2.479-0.001C332.27-18.254,332.046-18.479,332.046-18.754z M346.456-2.747
	l-2.479-0.001L342.738-0.6c-0.138,0.239-0.056,0.545,0.184,0.683c0.079,0.045,0.165,0.067,0.25,0.067c0.173,0,0.341-0.09,0.434-0.25
	l0.949-1.646l1.901,0.001c0.276,0,0.5-0.224,0.5-0.5C346.956-2.522,346.732-2.747,346.456-2.747z M343.976-18.252h2.48
	c0.276,0,0.5-0.224,0.5-0.5s-0.224-0.5-0.5-0.5h-1.902l-0.952-1.648c-0.138-0.241-0.444-0.321-0.683-0.183
	c-0.239,0.138-0.321,0.444-0.183,0.683L343.976-18.252z M335.023-2.747h-2.479c-0.276,0-0.5,0.224-0.5,0.5s0.224,0.5,0.5,0.5h1.903
	l0.952,1.647c0.093,0.16,0.261,0.25,0.433,0.25c0.085,0,0.172-0.021,0.25-0.067c0.239-0.139,0.321-0.444,0.183-0.684L335.023-2.747z
	 M328.625-8.169c0.079,0.045,0.165,0.067,0.25,0.067c0.173,0,0.341-0.09,0.434-0.25l1.237-2.146l-1.24-2.148
	c-0.138-0.241-0.444-0.322-0.683-0.183c-0.239,0.138-0.321,0.444-0.183,0.683l0.951,1.648l-0.95,1.647
	C328.304-8.613,328.386-8.307,328.625-8.169z M350.375-12.83c-0.237-0.137-0.545-0.056-0.683,0.183l-1.239,2.147l1.24,2.148
	c0.092,0.161,0.261,0.25,0.433,0.25c0.085,0,0.171-0.021,0.25-0.067c0.239-0.138,0.321-0.444,0.183-0.683l-0.951-1.648l0.95-1.647
	C350.696-12.386,350.614-12.692,350.375-12.83z M354.997-1.553c-0.092,0.16-0.261,0.25-0.433,0.25c-0.085,0-0.171-0.021-0.25-0.067
	l-0.98-0.566l-2.137,1.232c-0.077,0.044-0.164,0.067-0.25,0.067s-0.173-0.022-0.25-0.067l-2.384-1.376
	c-0.154-0.089-0.25-0.254-0.25-0.433l-0.001-2.466l-2.282-1.318l-4.112-0.447L340-2.96v2.638l2.135,1.232
	c0.154,0.089,0.25,0.254,0.25,0.433l0.001,2.754c0,0.179-0.096,0.344-0.25,0.433L340,5.76v1.134c0,0.276-0.224,0.5-0.5,0.5
	s-0.5-0.224-0.5-0.5V5.759l-2.136-1.231c-0.154-0.089-0.25-0.254-0.25-0.433l0.001-2.753c0-0.179,0.096-0.344,0.25-0.433L339-0.323
	V-2.96l-1.668-3.784l-4.112,0.447l-2.282,1.317l0.002,2.464c0,0.179-0.095,0.344-0.25,0.434l-2.387,1.378
	c-0.077,0.044-0.164,0.067-0.25,0.067s-0.173-0.022-0.25-0.067l-2.136-1.233l-0.983,0.568c-0.079,0.045-0.165,0.067-0.25,0.067
	c-0.172,0-0.341-0.089-0.433-0.25c-0.139-0.239-0.057-0.545,0.183-0.683l0.983-0.568l0.001-2.464c0-0.179,0.096-0.344,0.25-0.433
	l2.387-1.378c0.154-0.089,0.346-0.089,0.5,0l2.133,1.232l2.282-1.318l2.442-3.337l-2.442-3.337l-2.281-1.317l-2.136,1.233
	c-0.077,0.044-0.164,0.067-0.25,0.067s-0.173-0.022-0.25-0.067l-2.385-1.377c-0.155-0.089-0.25-0.255-0.25-0.434l0.002-2.464
	l-0.984-0.568c-0.239-0.138-0.321-0.444-0.183-0.683c0.138-0.239,0.445-0.32,0.683-0.183l0.984,0.568l2.133-1.233
	c0.153-0.089,0.345-0.09,0.5,0l2.386,1.379c0.155,0.089,0.25,0.255,0.25,0.433l-0.001,2.463l2.282,1.318l4.112,0.447L339-18.04
	v-2.636l-2.137-1.232c-0.154-0.089-0.25-0.254-0.25-0.434l0.002-2.755c0-0.178,0.096-0.343,0.25-0.433L339-26.762v-1.133
	c0-0.276,0.224-0.5,0.5-0.5s0.5,0.224,0.5,0.5v1.135l2.135,1.231c0.154,0.089,0.25,0.254,0.25,0.434l-0.002,2.755
	c0,0.178-0.096,0.343-0.25,0.433L340-20.676v2.637l1.668,3.784l4.112-0.447l2.282-1.317l-0.002-2.464
	c0-0.179,0.095-0.344,0.25-0.434l2.387-1.378c0.154-0.089,0.346-0.089,0.5,0l2.136,1.233l0.983-0.568
	c0.238-0.138,0.545-0.057,0.683,0.183c0.139,0.239,0.057,0.545-0.183,0.683l-0.984,0.568v2.464c0,0.179-0.096,0.344-0.25,0.433
	l-2.387,1.378c-0.077,0.044-0.164,0.067-0.25,0.067c-0.087,0-0.173-0.022-0.25-0.067l-2.132-1.233l-2.283,1.318l-2.442,3.337
	l2.442,3.337l2.283,1.318l2.132-1.23c0.154-0.089,0.344-0.089,0.5,0l2.388,1.375c0.154,0.089,0.25,0.254,0.25,0.434l-0.002,2.462
	l0.983,0.568C355.054-2.098,355.136-1.792,354.997-1.553z M329.438-15.731l0.499-0.289v-0.578l0.001-1.598l-1.886-1.09l-1.384,0.8
	l-0.499,0.289v0.578l-0.002,1.599l1.885,1.088L329.438-15.731z M341.049-7.817l2.585,0.281l1.232,0.134l-0.732-1l-1.536-2.098
	l1.536-2.098l0.732-1l-1.232,0.134l-2.585,0.281L340-15.562l-0.5-1.134l-0.5,1.134l-1.049,2.379l-2.585-0.281l-1.232-0.134l0.732,1
	l1.536,2.098l-1.536,2.098l-0.732,1l1.232-0.134l2.585-0.281L339-5.438l0.5,1.134l0.5-1.134L341.049-7.817z M349.062-16.598v0.577
	l0.5,0.289l1.383,0.8l1.887-1.089v-1.599v-0.578l-0.499-0.289l-1.386-0.8l-1.887,1.089L349.062-16.598z M337.613-22.629L339-21.83
	l0.5,0.288l0.5-0.289l1.383-0.799l0.002-2.178L340-25.605l-0.502-0.289L339-25.607l-1.385,0.8L337.613-22.629z M329.938-4.402
	v-0.577l-0.5-0.289l-1.383-0.799l-1.887,1.089l-0.001,1.598v0.578l0.5,0.289l1.386,0.8l1.887-1.089L329.938-4.402z M341.385,1.631
	L340,0.832l-0.5-0.289L339,0.832l-1.385,0.799l-0.001,2.175L339,4.604l0.501,0.289L340,4.606l1.386-0.798L341.385,1.631z
	 M352.832-3.381l0.001-1.597l-1.888-1.087l-1.382,0.797l-0.501,0.289v0.577l0.001,1.6l1.884,1.087l1.386-0.8l0.498-0.287
	L352.832-3.381z"/>
</svg>
