<?xml version="1.0" encoding="utf-8"?>
<!-- Generator: Adobe Illustrator 16.0.0, SVG Export Plug-In . SVG Version: 6.00 Build 0)  -->
<!DOCTYPE svg PUBLIC "-//W3C//DTD SVG 1.1//EN" "http://www.w3.org/Graphics/SVG/1.1/DTD/svg11.dtd">
<svg version="1.1" id="Layer_1" xmlns="http://www.w3.org/2000/svg" xmlns:xlink="http://www.w3.org/1999/xlink" x="0px" y="0px"
	 width="50px" height="50px" viewBox="-35.5 -35.5 50 50" enable-background="new -35.5 -35.5 50 50" xml:space="preserve">
<path style="fill:white" d="M4.5-11h-5.925l3.722-3.723c0.195-0.195,0.195-0.512,0-0.707s-0.512-0.195-0.707,0L-2.84-11h-6.454l1.861-1.861l3.125-0.002
	c0.276,0,0.5-0.224,0.5-0.5c0-0.276-0.224-0.5-0.5-0.5h0l-2.124,0.001l6.891-6.891c0.195-0.195,0.195-0.512,0-0.707
	s-0.512-0.195-0.707,0l-6.89,6.89v-2.124c0-0.276-0.224-0.5-0.5-0.5s-0.5,0.224-0.5,0.5v3.124L-10-11.708v-6.448l4.428-4.434
	c0.195-0.196,0.195-0.512,0-0.708c-0.195-0.194-0.512-0.195-0.708,0L-10-19.571V-25.5c0-0.276-0.224-0.5-0.5-0.5s-0.5,0.224-0.5,0.5
	v5.925l-3.723-3.722c-0.195-0.195-0.512-0.195-0.707,0s-0.195,0.512,0,0.707l4.43,4.43v6.454l-1.862-1.862l-0.002-3.125
	c0-0.276-0.224-0.5-0.5-0.5h0c-0.276,0-0.5,0.224-0.5,0.5l0.001,2.123l-6.891-6.891c-0.195-0.195-0.512-0.195-0.707,0
	s-0.195,0.512,0,0.707l6.89,6.89h-2.123c-0.276,0-0.5,0.224-0.5,0.5s0.224,0.5,0.5,0.5h3.123L-11.708-11h-6.448l-4.434-4.428
	c-0.195-0.194-0.512-0.195-0.708,0c-0.195,0.196-0.195,0.512,0,0.708l3.726,3.72H-25.5c-0.276,0-0.5,0.224-0.5,0.5
	s0.224,0.5,0.5,0.5h5.925l-3.722,3.723c-0.195,0.195-0.195,0.512,0,0.707c0.098,0.098,0.226,0.146,0.354,0.146
	s0.256-0.049,0.354-0.146l4.43-4.43h6.452l-1.862,1.862l-3.124,0.002c-0.276,0-0.5,0.224-0.5,0.5c0,0.276,0.224,0.5,0.5,0.5h0
	l2.122-0.001l-6.89,6.89c-0.195,0.195-0.195,0.512,0,0.707c0.098,0.098,0.226,0.146,0.354,0.146s0.256-0.049,0.354-0.146l6.89-6.89
	v2.124c0,0.276,0.224,0.5,0.5,0.5s0.5-0.224,0.5-0.5V-7.43L-11-9.294v6.45l-4.428,4.434c-0.195,0.196-0.195,0.512,0,0.708
	c0.195,0.194,0.512,0.195,0.708,0L-11-1.429V4.5c0,0.276,0.224,0.5,0.5,0.5S-10,4.776-10,4.5v-5.925l3.723,3.722
	c0.098,0.098,0.226,0.146,0.354,0.146s0.256-0.049,0.354-0.146c0.195-0.195,0.195-0.512,0-0.707L-10-2.84v-6.452l1.862,1.862
	l0.001,3.123c0,0.276,0.224,0.5,0.5,0.5c0.276,0,0.5-0.224,0.5-0.5l0-2.122l6.89,6.89c0.098,0.098,0.226,0.146,0.354,0.146
	S0.361,0.558,0.459,0.46c0.195-0.195,0.195-0.512,0-0.707l-6.89-6.89h2.125c0.276,0,0.5-0.224,0.5-0.5s-0.224-0.5-0.5-0.5h-3.125
	L-9.294-10h6.45L1.59-5.572c0.098,0.097,0.226,0.146,0.354,0.146S2.2-5.475,2.297-5.572c0.195-0.196,0.195-0.512,0-0.708L-1.429-10
	H4.5C4.776-10,5-10.224,5-10.5S4.776-11,4.5-11z"/>
</svg>
