<?xml version="1.0" encoding="utf-8"?>
<!-- Generator: Adobe Illustrator 16.0.0, SVG Export Plug-In . SVG Version: 6.00 Build 0)  -->
<!DOCTYPE svg PUBLIC "-//W3C//DTD SVG 1.1//EN" "http://www.w3.org/Graphics/SVG/1.1/DTD/svg11.dtd">
<svg version="1.1" id="Layer_1" xmlns="http://www.w3.org/2000/svg" xmlns:xlink="http://www.w3.org/1999/xlink" x="0px" y="0px"
	 width="50px" height="50px" viewBox="314.5 -105.5 50 50" enable-background="new 314.5 -105.5 50 50" xml:space="preserve">
<path style="fill:white" d="M327.499-84.434c-0.138-0.239-0.056-0.545,0.184-0.683l1.913-1.103l-0.002-2.208c0-0.276,0.224-0.5,0.5-0.5
	s0.5,0.224,0.5,0.5l0.002,2.786l-2.413,1.392c-0.079,0.045-0.165,0.067-0.25,0.067C327.76-84.184,327.592-84.274,327.499-84.434z
	 M350.818-76.751l-2.412,1.392l0.002,2.785c0,0.276,0.224,0.5,0.5,0.5s0.5-0.224,0.5-0.5l-0.002-2.207l1.912-1.103
	c0.239-0.138,0.321-0.444,0.184-0.683C351.363-76.807,351.058-76.889,350.818-76.751z M337.088-92.176l2.413,1.393l2.412-1.393
	c0.239-0.138,0.321-0.444,0.183-0.683c-0.138-0.24-0.444-0.321-0.683-0.183l-1.912,1.104l-1.913-1.104
	c-0.238-0.136-0.545-0.056-0.683,0.183C336.767-92.62,336.849-92.314,337.088-92.176z M341.914-68.824l-2.413-1.392l-2.413,1.393
	c-0.239,0.138-0.321,0.444-0.183,0.683c0.092,0.161,0.261,0.25,0.433,0.25c0.085,0,0.171-0.021,0.25-0.067l1.913-1.105l1.913,1.104
	c0.239,0.137,0.545,0.056,0.683-0.183C342.235-68.38,342.153-68.686,341.914-68.824z M330.095-72.072c0.276,0,0.5-0.224,0.5-0.5
	l-0.001-2.785l-2.413-1.393c-0.238-0.136-0.545-0.056-0.683,0.183c-0.139,0.239-0.057,0.545,0.183,0.683l1.913,1.104l0.001,2.208
	C329.595-72.296,329.818-72.072,330.095-72.072z M348.906-88.927c-0.276,0-0.5,0.224-0.5,0.5v2.785l2.414,1.393
	c0.079,0.045,0.165,0.067,0.25,0.067c0.173,0,0.341-0.09,0.433-0.25c0.139-0.239,0.057-0.545-0.183-0.683l-1.914-1.104v-2.208
	C349.406-88.704,349.183-88.927,348.906-88.927z M357.395-80.5c0,0.276-0.224,0.5-0.5,0.5h-1.132l-1.234,2.136
	c-0.089,0.155-0.254,0.25-0.433,0.25h-2.752c-0.179,0-0.344-0.095-0.433-0.25l-0.428-0.739l-3.848,2.221l-0.001,4.446h0.852
	c0.179,0,0.344,0.095,0.433,0.25l1.379,2.385c0.09,0.155,0.09,0.346,0,0.501l-1.234,2.133l0.566,0.982
	c0.139,0.239,0.057,0.545-0.183,0.683c-0.079,0.045-0.165,0.067-0.25,0.067c-0.172,0-0.341-0.089-0.433-0.25l-0.567-0.983
	l-2.466,0.001c-0.179,0-0.344-0.095-0.433-0.25l-1.376-2.384c-0.09-0.155-0.09-0.346,0-0.5l0.427-0.739l-3.849-2.221l-3.848,2.221
	l0.426,0.736c0.09,0.155,0.09,0.346,0,0.5l-1.378,2.387c-0.089,0.155-0.254,0.25-0.433,0.25h-2.467l-0.567,0.983
	c-0.092,0.161-0.261,0.25-0.433,0.25c-0.085,0-0.171-0.021-0.25-0.067c-0.239-0.138-0.321-0.444-0.183-0.683l0.567-0.982
	l-1.231-2.135c-0.089-0.155-0.089-0.345,0.001-0.5l1.377-2.387c0.089-0.155,0.254-0.25,0.433-0.25l0.852,0v-4.443l-3.849-2.222
	l-0.426,0.738c-0.089,0.155-0.254,0.25-0.433,0.25h-2.754c-0.179,0-0.344-0.095-0.434-0.25L323.241-80h-1.136
	c-0.276,0-0.5-0.224-0.5-0.5s0.224-0.5,0.5-0.5h1.136l1.23-2.135c0.09-0.155,0.255-0.25,0.434-0.25l2.755,0.001
	c0.179,0,0.344,0.095,0.433,0.25l0.425,0.736l3.85-2.222v-4.441l-0.854,0c-0.179,0-0.344-0.095-0.434-0.25l-1.377-2.387
	c-0.089-0.155-0.089-0.345,0.001-0.5l1.232-2.135l-0.566-0.981c-0.139-0.239-0.057-0.545,0.183-0.683
	c0.239-0.138,0.545-0.057,0.683,0.183l0.567,0.983l2.465-0.002c0.179,0,0.344,0.095,0.434,0.25l1.376,2.387
	c0.089,0.154,0.089,0.345-0.001,0.5l-0.424,0.734l3.85,2.223l3.846-2.22l-0.426-0.737c-0.09-0.155-0.09-0.346,0-0.5l1.378-2.387
	c0.089-0.155,0.254-0.25,0.433-0.25h2.466l0.568-0.984c0.138-0.24,0.444-0.319,0.683-0.183c0.239,0.138,0.321,0.444,0.183,0.683
	l-0.568,0.984l1.232,2.134c0.09,0.155,0.09,0.345,0,0.5l-1.379,2.387c-0.089,0.155-0.254,0.25-0.433,0.25l-0.85,0v4.443l3.85,2.222
	l0.425-0.735c0.089-0.155,0.254-0.25,0.432-0.25l2.755-0.003c0.001,0,0.001,0,0.001,0c0.179,0,0.344,0.095,0.434,0.25L355.76-81
	h1.135C357.171-81,357.395-80.777,357.395-80.5z M353.808-78.615L354.608-80l0.287-0.498L354.605-81l-0.798-1.383l-2.177,0.002
	l-0.425,0.735l-0.199,0.345L350.832-81l-0.29,0.501L350.83-80l0.161,0.278l0.214,0.371l0.427,0.737H353.808z M345.635-84.041v-5.021
	l-0.613,0l-3.146,5.45L343.386-81h6.292l0.307-0.53L345.635-84.041z M342.231-81l-0.934-1.614l-0.289-0.5h-0.576l-1.865-0.001
	h-0.576l-0.289,0.5L336.771-81l-0.288,0.5l0.289,0.5l0.932,1.614l0.288,0.5h0.577l1.864,0h0.577l0.289-0.5L342.231-80l0.289-0.5
	L342.231-81z M345.021-93.833l-1.09,1.887l0.423,0.731l0.218,0.376l0.16,0.277l0.288,0.498l0.578,0l0.323,0l0.427,0l0.848,0
	l1.09-1.887l-0.8-1.384l-0.289-0.5h-0.576H345.021z M335.152-90.095l-0.308,0.532l3.146,5.448l3.02,0.001l3.146-5.448l-0.307-0.531
	l-4.347,2.509L335.152-90.095z M331.514-93.333l-0.8,1.385l1.089,1.887l0.85,0l0.43,0l0.32,0l0.576,0l0.289-0.5l0.163-0.283
	l0.211-0.365l0.425-0.735l-1.088-1.887l-1.599,0.001l-0.578,0L331.514-93.333z M329.018-81.532L329.324-81h6.292l1.509-2.615
	l-3.146-5.448l-0.612,0v5.02L329.018-81.532z M328.009-79.719L328.171-80l0.288-0.5L328.17-81l-0.176-0.305l-0.198-0.343
	l-0.425-0.736l-2.177-0.001L324.396-81l-0.288,0.5l0.289,0.5l0.799,1.385h2.176l0.425-0.737L328.009-79.719z M333.367-76.958v5.02
	l0.612,0l3.146-5.448L335.617-80h-6.292l-0.307,0.531L333.367-76.958z M333.979-67.167l1.09-1.886l-0.426-0.736l-0.214-0.369
	l-0.161-0.28l-0.289-0.499h-0.577l-0.32,0h-0.43l-0.848,0l-1.089,1.887l0.799,1.384l0.288,0.5h0.577H333.979z M343.85-70.907
	l0.307-0.529l-3.146-5.449l-3.02,0l-3.146,5.448l0.308,0.531l4.349-2.51L343.85-70.907z M347.486-67.667l0.801-1.385l-1.089-1.885
	h-0.854h-0.418h-0.327h-0.577l-0.289,0.5l-0.16,0.279l-0.202,0.349l-0.438,0.757l1.088,1.884l1.6-0.001l0.578,0L347.486-67.667z
	 M349.982-79.47L349.676-80h-6.29l-1.51,2.616l3.146,5.448h0.613l0.001-5.023L349.982-79.47z"/>
</svg>
