<?xml version="1.0" encoding="utf-8"?>
<!-- Generator: Adobe Illustrator 16.0.0, SVG Export Plug-In . SVG Version: 6.00 Build 0)  -->
<!DOCTYPE svg PUBLIC "-//W3C//DTD SVG 1.1//EN" "http://www.w3.org/Graphics/SVG/1.1/DTD/svg11.dtd">
<svg version="1.1" id="Layer_1" xmlns="http://www.w3.org/2000/svg" xmlns:xlink="http://www.w3.org/1999/xlink" x="0px" y="0px"
	 width="50px" height="50px" viewBox="244.5 104.5 50 50" enable-background="new 244.5 104.5 50 50" xml:space="preserve">
<path style="fill:white" d="M284.5,128.75h-2.18l1.368-1.368c0.293-0.293,0.293-0.768,0-1.061s-0.768-0.293-1.061,0l-2.429,2.429h-2.689l3.118-3.118
	c0.293-0.293,0.293-0.768,0-1.061s-0.768-0.293-1.061,0l-3.472,3.472c-0.227-1.026-0.687-1.965-1.322-2.758l6.267-6.265
	c0.293-0.293,0.293-0.768,0-1.061s-0.768-0.293-1.061,0l-6.267,6.265c-0.845-0.676-1.853-1.152-2.956-1.36l3.844-3.844
	c0.293-0.293,0.293-0.768,0-1.061s-0.768-0.293-1.061,0l-3.29,3.29v-2.199l2.429-2.429c0.293-0.293,0.293-0.768,0-1.061
	s-0.768-0.293-1.061,0l-1.368,1.368v-2.43c0-0.414-0.336-0.75-0.75-0.75s-0.75,0.336-0.75,0.75v2.43l-1.368-1.368
	c-0.293-0.293-0.768-0.293-1.061,0s-0.293,0.768,0,1.061l2.429,2.429v2.199l-3.29-3.29c-0.293-0.293-0.768-0.293-1.061,0
	s-0.293,0.768,0,1.061l3.844,3.844c-1.104,0.208-2.111,0.685-2.956,1.36l-6.267-6.265c-0.293-0.293-0.768-0.293-1.061,0
	s-0.293,0.768,0,1.061l6.267,6.265c-0.636,0.793-1.096,1.731-1.322,2.758l-3.472-3.472c-0.293-0.293-0.768-0.293-1.061,0
	s-0.293,0.768,0,1.061l3.118,3.118h-2.189l-2.429-2.429c-0.293-0.293-0.768-0.293-1.061,0s-0.293,0.768,0,1.061l1.368,1.368h-2.68
	c-0.414,0-0.75,0.336-0.75,0.75s0.336,0.75,0.75,0.75h2.68l-1.368,1.367c-0.293,0.293-0.293,0.768,0,1.061
	c0.146,0.146,0.338,0.22,0.53,0.22c0.191,0,0.384-0.073,0.53-0.22l2.429-2.428h2.189l-3.118,3.118c-0.293,0.293-0.293,0.768,0,1.061
	c0.146,0.146,0.338,0.22,0.53,0.22s0.384-0.073,0.53-0.22l3.472-3.472c0.227,1.025,0.687,1.964,1.321,2.758l-6.266,6.265
	c-0.293,0.293-0.293,0.768,0,1.061c0.146,0.146,0.338,0.22,0.53,0.22s0.384-0.073,0.53-0.22l6.266-6.266
	c0.845,0.677,1.854,1.153,2.957,1.361l-3.844,3.844c-0.293,0.293-0.293,0.768,0,1.061s0.768,0.293,1.061,0l3.29-3.29v2.199
	l-2.429,2.429c-0.293,0.293-0.293,0.768,0,1.061s0.768,0.293,1.061,0l1.368-1.368v2.43c0,0.414,0.336,0.75,0.75,0.75
	s0.75-0.336,0.75-0.75v-2.43l1.368,1.368c0.146,0.146,0.338,0.22,0.53,0.22s0.384-0.073,0.53-0.22c0.293-0.293,0.293-0.768,0-1.061
	l-2.429-2.429v-2.199l3.29,3.29c0.146,0.146,0.338,0.22,0.53,0.22s0.384-0.073,0.53-0.22c0.293-0.293,0.293-0.768,0-1.061
	l-3.844-3.844c1.104-0.208,2.112-0.685,2.957-1.361l6.266,6.266c0.146,0.146,0.338,0.22,0.53,0.22s0.384-0.073,0.53-0.22
	c0.293-0.293,0.293-0.768,0-1.061l-6.266-6.265c0.635-0.794,1.095-1.732,1.321-2.758l3.472,3.472c0.146,0.146,0.338,0.22,0.53,0.22
	s0.384-0.073,0.53-0.22c0.293-0.293,0.293-0.768,0-1.061l-3.118-3.118h2.689l2.429,2.429c0.146,0.146,0.338,0.22,0.53,0.22
	s0.384-0.073,0.53-0.22c0.293-0.293,0.293-0.768,0-1.061l-1.368-1.368h2.18c0.414,0,0.75-0.336,0.75-0.75
	S284.914,128.75,284.5,128.75z M273.648,132.691c-0.277,0.36-0.598,0.681-0.958,0.958c-0.698,0.539-1.528,0.9-2.44,1.032
	c-0.247,0.036-0.493,0.076-0.75,0.076s-0.503-0.04-0.75-0.076c-0.912-0.132-1.742-0.493-2.44-1.032
	c-0.36-0.277-0.681-0.598-0.958-0.958c-0.539-0.698-0.901-1.528-1.033-2.441c-0.031-0.211-0.061-0.423-0.065-0.642
	c-0.001-0.037-0.011-0.071-0.011-0.108s0.01-0.071,0.011-0.108c0.005-0.219,0.034-0.431,0.065-0.642
	c0.132-0.913,0.494-1.744,1.033-2.442c0.277-0.36,0.598-0.681,0.958-0.958c0.698-0.538,1.528-0.899,2.44-1.031
	c0.247-0.036,0.493-0.076,0.75-0.076s0.503,0.04,0.75,0.076c0.912,0.132,1.742,0.493,2.44,1.031c0.36,0.277,0.681,0.598,0.958,0.958
	c0.539,0.698,0.901,1.529,1.033,2.442c0.031,0.211,0.061,0.423,0.065,0.642c0.001,0.037,0.011,0.071,0.011,0.108
	s-0.01,0.071-0.011,0.108c-0.005,0.219-0.034,0.431-0.065,0.642C274.55,131.163,274.188,131.993,273.648,132.691z"/>
</svg>
