<?xml version="1.0" encoding="utf-8"?>
<!-- Generator: Adobe Illustrator 16.0.0, SVG Export Plug-In . SVG Version: 6.00 Build 0)  -->
<!DOCTYPE svg PUBLIC "-//W3C//DTD SVG 1.1//EN" "http://www.w3.org/Graphics/SVG/1.1/DTD/svg11.dtd">
<svg version="1.1" id="Layer_1" xmlns="http://www.w3.org/2000/svg" xmlns:xlink="http://www.w3.org/1999/xlink" x="0px" y="0px"
	 width="50px" height="50px" viewBox="-35.5 -175.5 50 50" enable-background="new -35.5 -175.5 50 50" xml:space="preserve">
<path style="fill:white" d="M4.75-142.272l-2.084-1.203v-2.234c0-0.179-0.095-0.344-0.25-0.433l-2.184-1.261c-0.154-0.089-0.346-0.089-0.5,0
	l-1.935,1.117l-2.387-1.378l4.005-1.072c0.267-0.071,0.425-0.346,0.354-0.612c-0.071-0.267-0.345-0.425-0.612-0.354l-4.971,1.331
	L-9.5-150.5l3.689-2.13l4.968,1.33c0.043,0.012,0.087,0.017,0.13,0.017c0.221,0,0.423-0.147,0.482-0.371
	c0.071-0.267-0.087-0.541-0.354-0.612l-4.002-1.071l2.383-1.376l1.934,1.116c0.078,0.044,0.164,0.067,0.25,0.067
	s0.172-0.022,0.25-0.067l2.186-1.261c0.155-0.089,0.25-0.255,0.25-0.434l-0.001-2.232l2.085-1.204
	c0.239-0.138,0.321-0.444,0.183-0.683c-0.139-0.24-0.446-0.321-0.683-0.183l-2.086,1.205l-1.933-1.117
	c-0.154-0.089-0.345-0.089-0.5,0l-2.184,1.26c-0.155,0.089-0.25,0.254-0.25,0.433v2.234l-2.385,1.377l1.073-4.003
	c0.072-0.267-0.087-0.541-0.354-0.612c-0.264-0.071-0.541,0.087-0.612,0.354l-1.332,4.969L-10-151.366v-4.257l3.637-3.639
	c0.195-0.195,0.195-0.512,0-0.707s-0.512-0.195-0.707,0l-2.93,2.931v-2.755l1.934-1.115c0.155-0.089,0.25-0.254,0.25-0.433v-2.522
	c0-0.179-0.095-0.344-0.25-0.433L-10-165.415v-2.408c0-0.276-0.224-0.5-0.5-0.5s-0.5,0.224-0.5,0.5v2.408l-1.934,1.117
	c-0.155,0.089-0.25,0.254-0.25,0.433v2.522c0,0.179,0.096,0.344,0.25,0.433l1.934,1.114v2.756l-2.93-2.931
	c-0.195-0.195-0.512-0.195-0.707,0s-0.195,0.512,0,0.707l3.637,3.639v4.257l-3.688-2.129l-1.332-4.969
	c-0.072-0.267-0.346-0.425-0.612-0.354c-0.267,0.071-0.425,0.346-0.354,0.612l1.073,4.003l-2.386-1.377v-2.233
	c0-0.179-0.095-0.344-0.25-0.433l-2.182-1.26c-0.154-0.089-0.346-0.089-0.5,0l-1.934,1.117l-2.086-1.205
	c-0.24-0.138-0.545-0.057-0.683,0.183c-0.138,0.239-0.056,0.545,0.183,0.683l2.086,1.204l-0.002,2.232
	c0,0.179,0.095,0.344,0.25,0.434l2.184,1.261c0.077,0.044,0.164,0.067,0.25,0.067s0.173-0.022,0.25-0.067l1.934-1.117l2.385,1.377
	l-4.002,1.071c-0.267,0.071-0.425,0.346-0.354,0.612c0.06,0.223,0.262,0.371,0.482,0.371c0.043,0,0.086-0.005,0.13-0.017l4.968-1.33
	l3.689,2.13l-3.686,2.128l-4.971-1.331c-0.266-0.071-0.541,0.087-0.612,0.354c-0.071,0.267,0.087,0.541,0.354,0.612l4.005,1.072
	l-2.387,1.378l-1.936-1.116c-0.155-0.089-0.346-0.089-0.5,0l-2.183,1.26c-0.155,0.089-0.25,0.254-0.25,0.433l-0.001,2.234
	l-2.083,1.203c-0.239,0.138-0.321,0.444-0.183,0.683c0.093,0.161,0.261,0.25,0.434,0.25c0.085,0,0.171-0.021,0.25-0.067l2.086-1.204
	l1.932,1.117c0.077,0.044,0.164,0.067,0.25,0.067s0.173-0.022,0.25-0.067l2.184-1.263c0.154-0.089,0.25-0.254,0.25-0.433v-2.23
	l2.385-1.377l-1.072,4c-0.071,0.267,0.087,0.541,0.354,0.612c0.043,0.012,0.087,0.017,0.13,0.017c0.221,0,0.423-0.147,0.482-0.371
	l1.331-4.966l3.688-2.13v4.257l-3.637,3.639c-0.195,0.195-0.195,0.512,0,0.707s0.512,0.195,0.707,0l2.93-2.931v2.756l-1.934,1.114
	c-0.155,0.089-0.25,0.254-0.25,0.433v2.522c0,0.179,0.095,0.344,0.25,0.433l1.934,1.117v2.408c0,0.276,0.224,0.5,0.5,0.5
	s0.5-0.224,0.5-0.5v-2.408l1.934-1.118c0.155-0.089,0.25-0.254,0.25-0.433v-2.522c0-0.179-0.095-0.344-0.25-0.433L-10-141.207
	v-2.755l2.93,2.931c0.098,0.098,0.226,0.146,0.354,0.146s0.256-0.049,0.354-0.146c0.195-0.195,0.195-0.512,0-0.707L-10-145.376
	v-4.257l3.688,2.13l1.331,4.966c0.06,0.224,0.262,0.371,0.482,0.371c0.043,0,0.086-0.005,0.13-0.017
	c0.267-0.071,0.425-0.346,0.354-0.612l-1.072-4l2.386,1.377v2.23c0,0.179,0.095,0.343,0.25,0.433l2.184,1.263
	c0.078,0.045,0.164,0.067,0.25,0.067s0.173-0.022,0.25-0.067l1.931-1.117l2.086,1.205c0.079,0.045,0.165,0.067,0.25,0.067
	c0.173,0,0.341-0.089,0.434-0.25C5.071-141.829,4.989-142.134,4.75-142.272z M-1.703-156.157v-1.368l1.684-0.971l1.183,0.684
	l0.5,0.289l0,0.577l0.001,1.367l-1.686,0.972l-1.184-0.683l-0.5-0.288V-156.157z M-19.299-156.158v0.578l-0.5,0.289l-1.184,0.684
	l-1.684-0.972l0.001-1.367l0-0.577l0.5-0.289l1.184-0.684l1.682,0.971V-156.158z M-19.298-144.843v1.365l-1.684,0.974l-1.183-0.684
	l-0.502-0.29l0-0.575l0-1.369l1.683-0.971l1.185,0.684l0.5,0.288V-144.843z M-8.816-139.37v1.945L-10-136.741l-0.5,0.289l-0.5-0.289
	l-1.184-0.684v-1.945l1.184-0.682l0.5-0.289l0.5,0.288L-8.816-139.37z M-10.5-160.66l-0.5-0.289l-1.184-0.682v-1.945l1.184-0.684
	l0.5-0.289l0.5,0.289l1.184,0.684v1.945L-10-160.948L-10.5-160.66z M1.666-144.053v0.575l-0.502,0.29l-1.182,0.684l-1.684-0.974
	v-1.364v-0.579l0.499-0.288l1.185-0.684l1.684,0.972V-144.053z"/>
</svg>
