<?xml version="1.0" encoding="utf-8"?>
<!-- Generator: Adobe Illustrator 16.0.0, SVG Export Plug-In . SVG Version: 6.00 Build 0)  -->
<!DOCTYPE svg PUBLIC "-//W3C//DTD SVG 1.1//EN" "http://www.w3.org/Graphics/SVG/1.1/DTD/svg11.dtd">
<svg version="1.1" id="Layer_1" xmlns="http://www.w3.org/2000/svg" xmlns:xlink="http://www.w3.org/1999/xlink" x="0px" y="0px"
	 width="50px" height="50px" viewBox="-175.5 34.5 50 50" enable-background="new -175.5 34.5 50 50" xml:space="preserve">
<path style="fill:white" d="M-135.688,67.825l-2.206-1.273l-0.414-1.751c-0.064-0.268-0.331-0.439-0.602-0.371c-0.269,0.063-0.435,0.333-0.372,0.602
	l0.197,0.833l-5.906-3.41l-2.176-2.538l2.402-2.802l6.036-3.485l-0.404,1.507c-0.072,0.268,0.087,0.541,0.354,0.613
	c0.043,0.011,0.087,0.017,0.13,0.017c0.221,0,0.422-0.147,0.482-0.37l0.663-2.474l1.815-1.048c0.239-0.138,0.321-0.443,0.183-0.683
	c-0.139-0.239-0.445-0.323-0.683-0.183l-1.915,1.105l-2.316-0.621c-0.265-0.064-0.541,0.088-0.612,0.354
	c-0.071,0.268,0.087,0.541,0.354,0.613l1.35,0.361l-6.222,3.593l-3.285,0.615L-150,53.713v-3.977l2.98,2.98
	c0.098,0.098,0.226,0.146,0.354,0.146s0.256-0.049,0.354-0.146c0.195-0.195,0.195-0.512,0-0.707L-150,48.322v-4.779l1.451,1.451
	c0.098,0.098,0.226,0.146,0.354,0.146s0.256-0.049,0.354-0.146c0.195-0.195,0.195-0.512,0-0.707l-2.658-2.658l-2.658,2.658
	c-0.195,0.195-0.195,0.512,0,0.707s0.512,0.195,0.707,0l1.451-1.451v4.779l-3.688,3.688c-0.195,0.195-0.195,0.512,0,0.707
	s0.512,0.195,0.707,0l2.98-2.98v3.978l-1.168,3.315l-3.283-0.615l-6.565-3.791l1.918-0.453c0.269-0.063,0.436-0.332,0.372-0.602
	c-0.064-0.268-0.334-0.439-0.602-0.371l-2.953,0.696l-1.533-0.885c-0.24-0.141-0.545-0.057-0.683,0.183
	c-0.138,0.239-0.056,0.545,0.183,0.683l2.167,1.251l0.45,1.904c0.055,0.229,0.26,0.385,0.486,0.385c0.038,0,0.077-0.004,0.116-0.014
	c0.269-0.063,0.435-0.333,0.372-0.602l-0.233-0.986l5.719,3.302l2.402,2.802l-2.176,2.538l-6.22,3.592l0.362-1.353
	c0.071-0.267-0.087-0.54-0.354-0.612c-0.266-0.065-0.541,0.088-0.612,0.354l-0.621,2.317l-1.857,1.072
	c-0.239,0.138-0.321,0.443-0.183,0.683c0.093,0.16,0.261,0.25,0.434,0.25c0.085,0,0.171-0.021,0.25-0.067l1.757-1.015l2.474,0.663
	c0.043,0.011,0.087,0.017,0.13,0.017c0.221,0,0.423-0.147,0.482-0.37c0.071-0.268-0.087-0.541-0.354-0.613l-1.507-0.403l6.039-3.486
	l3.624-0.68l1.168,3.315v3.978l-2.98-2.98c-0.195-0.195-0.512-0.195-0.707,0s-0.195,0.512,0,0.707L-151,71.51v5.154
	c0,0.276,0.224,0.5,0.5,0.5s0.5-0.224,0.5-0.5V71.51l3.688-3.688c0.195-0.195,0.195-0.512,0-0.707s-0.512-0.195-0.707,0l-2.98,2.98
	v-3.977l1.167-3.316l3.625,0.68l6.385,3.687l-2.083,0.493c-0.269,0.063-0.435,0.333-0.371,0.602
	c0.054,0.229,0.259,0.385,0.486,0.385c0.038,0,0.077-0.004,0.116-0.014l3.101-0.734l-0.003-0.013l1.39,0.803
	c0.079,0.046,0.165,0.067,0.25,0.067c0.173,0,0.341-0.09,0.434-0.25C-135.366,68.269-135.448,67.963-135.688,67.825z
	 M-147.816,61.977l-1.677-0.314L-150,63.104l-0.5,1.423l-0.5-1.418l-0.51-1.447l-1.674,0.313l-1.31,0.246l1.092-1.273l0.885-1.032
	l-1.11-1.295l-0.866-1.011l1.492,0.28l0.159,0.029l0.39,0.073l0.943,0.177l0.51-1.447l0.5-1.418l0.5,1.423l0.507,1.442l0.946-0.178
	l0.39-0.072l0.158-0.03l1.492-0.279l-0.866,1.011l-1.11,1.295l0.885,1.032l1.092,1.273L-147.816,61.977z"/>
</svg>
