<?xml version="1.0" encoding="utf-8"?>
<!-- Generator: Adobe Illustrator 16.0.0, SVG Export Plug-In . SVG Version: 6.00 Build 0)  -->
<!DOCTYPE svg PUBLIC "-//W3C//DTD SVG 1.1//EN" "http://www.w3.org/Graphics/SVG/1.1/DTD/svg11.dtd">
<svg version="1.1" id="Layer_1" xmlns="http://www.w3.org/2000/svg" xmlns:xlink="http://www.w3.org/1999/xlink" x="0px" y="0px"
	 width="50px" height="50px" viewBox="-35.5 -245.5 50 50" enable-background="new -35.5 -245.5 50 50" xml:space="preserve">
<path style="fill:white" d="M-7.275-224.644l4.895-4.895c0.254-0.254,0.665-0.254,0.919,0s0.254,0.665,0,0.919l-4.895,4.895
	c-0.127,0.127-0.293,0.19-0.459,0.19s-0.333-0.063-0.459-0.19C-7.529-223.979-7.529-224.39-7.275-224.644z M-14.896-223.978
	c0.127,0.127,0.293,0.19,0.459,0.19s0.333-0.063,0.459-0.19c0.254-0.253,0.254-0.665,0-0.919l-4.641-4.642
	c-0.254-0.254-0.665-0.254-0.919,0c-0.254,0.253-0.254,0.665,0,0.919L-14.896-223.978z M-13.723-217.276
	c-0.254-0.254-0.665-0.254-0.919,0l-4.895,4.895c-0.254,0.254-0.254,0.665,0,0.919c0.127,0.127,0.293,0.19,0.459,0.19
	s0.333-0.063,0.459-0.19l4.895-4.895C-13.469-216.611-13.469-217.022-13.723-217.276z M-6.495-217.414
	c-0.254-0.254-0.665-0.254-0.919,0s-0.254,0.666,0,0.919l5.033,5.032c0.127,0.127,0.293,0.19,0.459,0.19s0.333-0.063,0.459-0.19
	c0.254-0.254,0.254-0.666,0-0.919L-6.495-217.414z M-1.21-219.85h-2.51l2.586,2.587c0.254,0.254,0.254,0.665,0,0.919
	c-0.127,0.127-0.293,0.19-0.459,0.19s-0.333-0.063-0.459-0.19l-3.36-3.359l-2.964,1.327l-1.266,2.829l3.161,3.161
	c0.254,0.253,0.254,0.665,0,0.919c-0.253,0.254-0.665,0.254-0.919,0l-2.449-2.448v2.708l3.273,3.273l-3.925,3.925l-3.923-3.925
	l3.275-3.277v-2.705l-2.449,2.449c-0.127,0.127-0.293,0.19-0.459,0.19s-0.333-0.063-0.459-0.19c-0.254-0.254-0.254-0.665,0-0.919
	l3.161-3.161l-1.268-2.829l-2.963-1.327l-3.361,3.36c-0.127,0.126-0.293,0.19-0.459,0.19s-0.333-0.063-0.46-0.19
	c-0.253-0.254-0.253-0.666,0-0.919l2.589-2.587h-2.512l-3.275,3.275l-3.925-3.925l3.925-3.924l3.275,3.274h2.513l-2.587-2.588
	c-0.254-0.254-0.254-0.665,0-0.919s0.665-0.254,0.919,0l3.36,3.359l2.962-1.327l1.267-2.829l-3.161-3.161
	c-0.254-0.254-0.254-0.665,0-0.919s0.665-0.254,0.919,0l2.449,2.449v-2.705l-3.275-3.277l3.923-3.925l3.925,3.925l-3.273,3.273
	v2.708l2.449-2.449c0.254-0.254,0.665-0.254,0.919,0s0.254,0.665,0,0.919l-3.161,3.161l1.266,2.829l2.963,1.327l3.361-3.36
	c0.254-0.254,0.665-0.254,0.919,0s0.254,0.666,0,0.919l-2.588,2.588h2.512l3.275-3.274l3.925,3.924l-3.925,3.925L-1.21-219.85z
	 M-0.021-220.5l0.65,0.65l1.437,1.437l1.437-1.437l0.65-0.65l-0.65-0.65l-1.437-1.436l-1.437,1.436L-0.021-220.5z M-20.979-220.5
	l-0.65-0.65l-1.437-1.436l-1.437,1.436l-0.65,0.65l0.65,0.65l1.437,1.437l1.437-1.437L-20.979-220.5z M-11.149-231.627l0.648,0.648
	l0.652-0.652l1.435-1.435l-1.435-1.435l-0.652-0.652l-0.648,0.648l-1.437,1.438L-11.149-231.627z M-9.849-209.369l-0.652-0.652
	l-0.648,0.648l-1.437,1.438l1.437,1.438l0.648,0.648l0.652-0.652l1.435-1.435L-9.849-209.369z M-6.814-220.5l-1.451-0.65
	l-1.095-0.49l-0.489-1.092l-0.65-1.453l-0.649,1.45l-0.491,1.096l-1.094,0.49l-1.452,0.65l1.452,0.65l1.094,0.49l0.491,1.096
	l0.649,1.449l0.65-1.453l0.489-1.092l1.095-0.49L-6.814-220.5z"/>
</svg>
