<?xml version="1.0" encoding="utf-8"?>
<!-- Generator: Adobe Illustrator 16.0.0, SVG Export Plug-In . SVG Version: 6.00 Build 0)  -->
<!DOCTYPE svg PUBLIC "-//W3C//DTD SVG 1.1//EN" "http://www.w3.org/Graphics/SVG/1.1/DTD/svg11.dtd">
<svg version="1.1" id="Layer_1" xmlns="http://www.w3.org/2000/svg" xmlns:xlink="http://www.w3.org/1999/xlink" x="0px" y="0px"
	 width="50px" height="50px" viewBox="244.5 -315.5 50 50" enable-background="new 244.5 -315.5 50 50" xml:space="preserve">
<path style="fill:white" d="M284.5-291.25h-2.18l1.368-1.368c0.293-0.293,0.293-0.768,0-1.061s-0.768-0.293-1.061,0l-2.429,2.429h-2.689l3.118-3.119
	c0.293-0.293,0.293-0.768,0-1.061s-0.768-0.293-1.061,0l-4.108,4.109v-4.08l5.581-5.58c0.293-0.293,0.293-0.768,0-1.061
	s-0.768-0.293-1.061,0l-5.58,5.58h-4.149v-0.168l4.351-4.351c0.293-0.293,0.293-0.768,0-1.061s-0.768-0.293-1.061,0l-3.29,3.29
	v-2.199l2.429-2.429c0.293-0.293,0.293-0.768,0-1.061s-0.768-0.293-1.061,0l-1.368,1.368v-2.43c0-0.414-0.336-0.75-0.75-0.75
	s-0.75,0.336-0.75,0.75v2.43l-1.368-1.368c-0.293-0.293-0.768-0.293-1.061,0s-0.293,0.768,0,1.061l2.429,2.429v2.199l-3.29-3.29
	c-0.293-0.293-0.768-0.293-1.061,0s-0.293,0.768,0,1.061l4.351,4.351v0.168h-4.149l-5.58-5.58c-0.293-0.293-0.768-0.293-1.061,0
	s-0.293,0.768,0,1.061l5.579,5.578v4.08l-4.106-4.107c-0.293-0.293-0.768-0.293-1.061,0s-0.293,0.768,0,1.061l3.118,3.119h-2.189
	l-2.429-2.429c-0.293-0.293-0.768-0.293-1.061,0s-0.293,0.768,0,1.061l1.368,1.368h-2.68c-0.414,0-0.75,0.336-0.75,0.75
	s0.336,0.75,0.75,0.75h2.679l-1.367,1.367c-0.293,0.293-0.293,0.768,0,1.061c0.146,0.146,0.338,0.22,0.53,0.22
	s0.384-0.073,0.53-0.22l2.428-2.428h2.19l-3.118,3.119c-0.293,0.293-0.293,0.768,0,1.061c0.146,0.146,0.338,0.22,0.53,0.22
	s0.384-0.073,0.53-0.22l4.106-4.107v4.079l-5.579,5.579c-0.293,0.293-0.293,0.768,0,1.061c0.146,0.146,0.338,0.22,0.53,0.22
	s0.384-0.073,0.53-0.22l5.58-5.58h4.149v0.168l-4.351,4.351c-0.293,0.293-0.293,0.768,0,1.061s0.768,0.293,1.061,0l3.29-3.29v2.199
	l-2.429,2.429c-0.293,0.293-0.293,0.768,0,1.061s0.768,0.293,1.061,0l1.368-1.368v2.43c0,0.414,0.336,0.75,0.75,0.75
	s0.75-0.336,0.75-0.75v-2.43l1.368,1.368c0.146,0.146,0.338,0.22,0.53,0.22s0.384-0.073,0.53-0.22c0.293-0.293,0.293-0.768,0-1.061
	l-2.429-2.429v-2.199l3.29,3.291c0.146,0.146,0.338,0.22,0.53,0.22s0.384-0.073,0.53-0.22c0.293-0.293,0.293-0.768,0-1.061
	l-4.351-4.351v-0.168h4.149l5.58,5.58c0.146,0.146,0.338,0.22,0.53,0.22s0.384-0.073,0.53-0.22c0.293-0.293,0.293-0.768,0-1.061
	l-5.581-5.581v-4.079l4.108,4.109c0.146,0.146,0.338,0.22,0.53,0.22s0.384-0.073,0.53-0.22c0.293-0.293,0.293-0.768,0-1.061
	l-3.118-3.119h2.689l2.429,2.428c0.146,0.146,0.338,0.22,0.53,0.22s0.384-0.073,0.53-0.22c0.293-0.293,0.293-0.768,0-1.061
	l-1.368-1.368h2.18c0.414,0,0.75-0.336,0.75-0.75S284.914-291.25,284.5-291.25z M273.959-287.101v1.062h-1.06h-2.649h-1.5h-2.649
	h-1.062v-1.06v-2.651v-1.5v-2.652v-1.059h1.062h2.649h1.5h2.649h1.06v1.061v2.65v1.5V-287.101z"/>
</svg>
