<?xml version="1.0" encoding="utf-8"?>
<!-- Generator: Adobe Illustrator 16.0.0, SVG Export Plug-In . SVG Version: 6.00 Build 0)  -->
<!DOCTYPE svg PUBLIC "-//W3C//DTD SVG 1.1//EN" "http://www.w3.org/Graphics/SVG/1.1/DTD/svg11.dtd">
<svg version="1.1" id="Layer_1" xmlns="http://www.w3.org/2000/svg" xmlns:xlink="http://www.w3.org/1999/xlink" x="0px" y="0px"
	 width="50px" height="50px" viewBox="-245.5 -175.5 50 50" enable-background="new -245.5 -175.5 50 50" xml:space="preserve">
<path style="fill:white" d="M-205.023-143.87c-0.18-0.635-0.597-1.161-1.173-1.482c-1.061-0.592-2.461-0.25-3.178,0.697l-5.194-2.999l4.026-1.078
	c0.267-0.071,0.425-0.346,0.354-0.612c-0.071-0.267-0.345-0.426-0.612-0.354l-4.992,1.336l-3.707-2.14l3.71-2.142l4.989,1.336
	c0.043,0.012,0.087,0.017,0.13,0.017c0.221,0,0.423-0.147,0.482-0.371c0.071-0.267-0.087-0.541-0.354-0.612l-4.023-1.078
	l5.198-3.001c0.462,0.624,1.182,1.015,1.971,1.015h0c0.417,0,0.833-0.108,1.2-0.312c1.12-0.625,1.553-1.996,1.046-3.148
	c-0.031-0.071-0.053-0.143-0.091-0.212c-0.128-0.23-0.301-0.423-0.493-0.594c-0.765-0.68-1.943-0.874-2.867-0.36
	c-0.979,0.546-1.43,1.663-1.194,2.704l-5.272,3.044l1.079-4.026c0.071-0.267-0.087-0.541-0.354-0.612
	c-0.266-0.07-0.54,0.087-0.612,0.354l-1.338,4.992l-3.708,2.141v-4.282l3.653-3.652c0.195-0.195,0.195-0.512,0-0.707
	s-0.512-0.195-0.707,0l-2.946,2.945v-6.019c1.124-0.231,1.971-1.228,1.971-2.419c0-1.192-0.85-2.19-1.976-2.42
	c0,0.008,0.005,0.015,0.005,0.023v0.012c-0.16-0.042-0.326-0.072-0.499-0.072c-0.174,0-0.34,0.03-0.501,0.072v-0.013
	c0-0.008,0.004-0.015,0.005-0.023c-1.125,0.23-1.974,1.228-1.974,2.419c0,1.19,0.846,2.186,1.969,2.418v6.02l-2.946-2.945
	c-0.195-0.195-0.512-0.195-0.707,0s-0.195,0.512,0,0.707l3.653,3.652v4.282l-3.708-2.141l-1.338-4.992
	c-0.072-0.267-0.344-0.424-0.612-0.354c-0.267,0.071-0.425,0.346-0.354,0.612l1.079,4.026l-5.272-3.044
	c0.236-1.042-0.215-2.158-1.194-2.705c-0.92-0.512-2.1-0.319-2.865,0.361c-0.193,0.171-0.366,0.365-0.495,0.595
	c-0.038,0.068-0.06,0.141-0.091,0.211c-0.506,1.151-0.074,2.522,1.047,3.148c0.367,0.204,0.782,0.312,1.2,0.312
	c0.789,0,1.509-0.392,1.971-1.015l5.198,3.001l-4.023,1.078c-0.267,0.071-0.425,0.346-0.354,0.612
	c0.06,0.224,0.262,0.371,0.482,0.371c0.043,0,0.086-0.005,0.13-0.017l4.989-1.336l3.71,2.142l-3.707,2.14l-4.992-1.336
	c-0.265-0.072-0.541,0.087-0.612,0.354c-0.071,0.267,0.087,0.541,0.354,0.612l4.026,1.078l-5.194,2.999
	c-0.717-0.948-2.119-1.288-3.178-0.698c-0.576,0.321-0.993,0.848-1.173,1.482c-0.159,0.56-0.106,1.14,0.126,1.666
	c0.031,0.07,0.054,0.143,0.092,0.211c0.128,0.23,0.298,0.425,0.486,0.599c0.451,0.417,1.041,0.669,1.673,0.669
	c0.418,0,0.833-0.108,1.2-0.312c0.576-0.321,0.993-0.848,1.173-1.483c0.115-0.406,0.113-0.823,0.021-1.222l5.271-3.043l-1.077,4.022
	c-0.071,0.267,0.087,0.541,0.354,0.612c0.043,0.012,0.087,0.017,0.13,0.017c0.221,0,0.423-0.147,0.482-0.371l1.335-4.988
	l3.709-2.141v4.28l-3.653,3.653c-0.195,0.195-0.195,0.512,0,0.707s0.512,0.195,0.707,0l2.946-2.946v6.021
	c-1.124,0.231-1.971,1.228-1.971,2.419c0,1.192,0.85,2.19,1.976,2.42c0-0.008,0.995-0.023,0.995-0.023
	c0,0.008,1.969-0.662,1.969-2.396c0-1.19-0.846-2.186-1.969-2.418v-6.021l2.946,2.947c0.098,0.098,0.226,0.146,0.354,0.146
	s0.256-0.049,0.354-0.146c0.195-0.195,0.195-0.512,0-0.707l-3.653-3.654v-4.28l3.709,2.141l1.335,4.988
	c0.06,0.223,0.262,0.371,0.482,0.371c0.043,0,0.086-0.005,0.13-0.017c0.267-0.071,0.425-0.346,0.354-0.612l-1.077-4.022l5.271,3.043
	c-0.092,0.4-0.094,0.816,0.021,1.222c0.18,0.635,0.597,1.162,1.173,1.483c0.367,0.204,0.782,0.312,1.2,0.312
	c0.632,0,1.223-0.252,1.673-0.669c0.188-0.174,0.357-0.369,0.485-0.599c0.038-0.068,0.061-0.141,0.092-0.211
	C-204.917-142.729-204.865-143.311-205.023-143.87z M-208.115-159.088c0.219-0.122,0.465-0.186,0.713-0.186
	c0.268,0,0.524,0.073,0.747,0.203c0.222,0.131,0.41,0.319,0.539,0.551c0.042,0.076,0.074,0.155,0.101,0.234
	c0.23,0.661-0.038,1.413-0.669,1.765c-0.219,0.122-0.465,0.186-0.713,0.186h0c-0.432,0-0.83-0.196-1.106-0.514
	c-0.065-0.075-0.13-0.151-0.18-0.24c-0.125-0.224-0.178-0.467-0.179-0.708C-208.863-158.314-208.598-158.819-208.115-159.088z
	 M-232.317-157.089c-0.049,0.088-0.108,0.169-0.175,0.243c-0.443,0.497-1.225,0.659-1.824,0.326
	c-0.632-0.353-0.899-1.104-0.67-1.766c0.027-0.079,0.059-0.158,0.101-0.234c0.13-0.232,0.317-0.42,0.54-0.551
	c0.223-0.13,0.479-0.203,0.747-0.203c0.248,0,0.495,0.064,0.713,0.186c0.483,0.27,0.749,0.774,0.747,1.292
	C-232.139-157.557-232.192-157.313-232.317-157.089z M-232.188-142.793c-0.107,0.378-0.355,0.691-0.698,0.882
	c-0.219,0.122-0.466,0.187-0.714,0.187c-0.267,0-0.524-0.073-0.747-0.204c-0.222-0.13-0.409-0.319-0.539-0.551
	c-0.042-0.075-0.074-0.154-0.102-0.234c-0.099-0.283-0.111-0.588-0.028-0.883c0.107-0.377,0.355-0.69,0.698-0.882
	c0.219-0.122,0.465-0.187,0.714-0.187c0.431,0,0.829,0.196,1.105,0.514c0.065,0.075,0.13,0.151,0.18,0.24
	c0.123,0.22,0.178,0.462,0.18,0.707C-232.137-143.066-232.149-142.929-232.188-142.793z M-219.031-135.5
	c0,0.634-0.405,1.17-0.969,1.376l-1,0c-0.564-0.205-0.971-0.742-0.971-1.376s0.406-1.171,0.971-1.376
	c0.156-0.057,0.323-0.093,0.499-0.093c0.177,0,0.344,0.036,0.501,0.094C-219.437-136.67-219.031-136.134-219.031-135.5z
	 M-220.499-164.03c-0.177,0-0.344-0.036-0.501-0.094c-0.563-0.206-0.969-0.742-0.969-1.376s0.405-1.17,0.969-1.376
	c0.157-0.058,0.324-0.094,0.501-0.094c0.176,0,0.343,0.036,0.499,0.093c0.564,0.205,0.971,0.742,0.971,1.376
	s-0.406,1.171-0.971,1.376C-220.156-164.066-220.323-164.03-220.499-164.03z M-206.014-142.714c-0.028,0.08-0.06,0.159-0.102,0.234
	c-0.13,0.233-0.327,0.414-0.554,0.542c-0.437,0.244-0.992,0.279-1.445,0.026c-0.342-0.19-0.59-0.504-0.698-0.882
	c-0.038-0.135-0.05-0.273-0.049-0.41c0.001-0.245,0.057-0.488,0.18-0.708c0.049-0.089,0.114-0.165,0.179-0.24
	c0.276-0.318,0.674-0.514,1.105-0.514c0.249,0,0.495,0.064,0.714,0.187c0.343,0.191,0.59,0.504,0.698,0.881
	C-205.902-143.302-205.915-142.997-206.014-142.714z"/>
</svg>
