<?xml version="1.0" encoding="utf-8"?>
<!-- Generator: Adobe Illustrator 16.0.0, SVG Export Plug-In . SVG Version: 6.00 Build 0)  -->
<!DOCTYPE svg PUBLIC "-//W3C//DTD SVG 1.1//EN" "http://www.w3.org/Graphics/SVG/1.1/DTD/svg11.dtd">
<svg version="1.1" id="Layer_1" xmlns="http://www.w3.org/2000/svg" xmlns:xlink="http://www.w3.org/1999/xlink" x="0px" y="0px"
	 width="50px" height="50px" viewBox="-245.5 244.5 50 50" enable-background="new -245.5 244.5 50 50" xml:space="preserve">
<path style="fill:white" d="M-204.147,276.82c-0.18-0.671-0.609-1.231-1.21-1.578c-1.052-0.609-2.459-0.337-3.253,0.545l-4.438-2.562l5.727-1.532
	c0.267-0.072,0.425-0.346,0.354-0.612c-0.071-0.268-0.344-0.421-0.612-0.354l-6.693,1.792l-1.903-1.099l4.353-1.919l-4.354-1.919
	l1.906-1.1l6.689,1.794c0.043,0.011,0.087,0.017,0.13,0.017c0.221,0,0.422-0.147,0.482-0.37c0.072-0.267-0.087-0.541-0.354-0.613
	l-5.724-1.534l4.485-2.59c0.478,0.45,1.116,0.717,1.788,0.717c0.467,0,0.927-0.127,1.33-0.368c1.229-0.736,1.632-2.336,0.897-3.564
	c-0.707-1.181-2.376-1.604-3.562-0.897c-0.597,0.356-1.019,0.924-1.188,1.598c-0.145,0.574-0.08,1.163,0.16,1.693l-4.41,2.547
	l1.535-5.726c0.072-0.268-0.087-0.541-0.354-0.613c-0.266-0.063-0.541,0.088-0.612,0.354l-1.793,6.692l-1.905,1.1l0.514-4.729
	l-3.836,2.809v-2.201l4.896-4.896c0.195-0.195,0.195-0.512,0-0.707s-0.512-0.195-0.707,0l-4.189,4.189v-5.091
	c1.289-0.133,2.317-1.21,2.338-2.533c0.021-1.433-1.128-2.616-2.598-2.638c-1.411,0-2.578,1.148-2.6,2.561
	c-0.01,0.693,0.251,1.351,0.735,1.849c0.315,0.325,0.704,0.546,1.125,0.671v5.184l-4.192-4.192c-0.195-0.195-0.512-0.195-0.707,0
	s-0.195,0.512,0,0.707l4.899,4.899v2.2l-3.838-2.809l0.514,4.728l-1.905-1.1l-1.792-6.69c-0.071-0.267-0.344-0.419-0.612-0.354
	c-0.267,0.072-0.425,0.346-0.354,0.612l1.533,5.726l-4.432-2.56c0.394-1.15-0.065-2.462-1.158-3.094
	c-1.2-0.691-2.86-0.242-3.55,0.952c-0.347,0.601-0.439,1.301-0.259,1.972s0.61,1.231,1.211,1.579
	c0.395,0.228,0.844,0.348,1.297,0.348c0.755,0,1.456-0.343,1.945-0.899l4.447,2.567l-5.726,1.534
	c-0.267,0.072-0.425,0.346-0.354,0.613c0.06,0.223,0.262,0.37,0.482,0.37c0.043,0,0.086-0.006,0.13-0.017l6.691-1.794l1.905,1.1
	l-4.353,1.919l4.353,1.919l-1.905,1.1l-6.692-1.794c-0.265-0.064-0.54,0.088-0.612,0.354c-0.071,0.268,0.087,0.541,0.354,0.613
	l5.727,1.534l-4.499,2.598c-0.824-0.744-2.124-0.941-3.104-0.355c-1.228,0.734-1.63,2.333-0.897,3.563
	c0.467,0.78,1.324,1.266,2.235,1.266c0.467,0,0.926-0.127,1.329-0.367c1.141-0.682,1.558-2.106,1.026-3.292l4.408-2.546
	l-1.534,5.725c-0.071,0.268,0.087,0.541,0.354,0.613c0.043,0.011,0.087,0.017,0.13,0.017c0.221,0,0.423-0.147,0.482-0.37
	l1.793-6.691l1.906-1.101l-0.514,4.729l3.838-2.81v2.195l-4.899,4.902c-0.195,0.195-0.195,0.512,0,0.707
	c0.098,0.098,0.226,0.146,0.354,0.146s0.256-0.049,0.354-0.146l4.192-4.195v5.098c-1.291,0.132-2.318,1.211-2.337,2.533
	c-0.011,0.694,0.249,1.351,0.733,1.849c0.483,0.498,1.132,0.778,1.826,0.789h0.04c1.41,0,2.575-1.147,2.598-2.559
	c0.01-0.694-0.25-1.352-0.734-1.851c-0.312-0.321-0.698-0.54-1.125-0.666v-5.188l4.189,4.188c0.195,0.195,0.512,0.195,0.707,0
	s0.195-0.512,0-0.707l-4.896-4.895v-2.2l3.836,2.808l-0.514-4.728l1.904,1.099l1.793,6.692c0.06,0.223,0.262,0.37,0.482,0.37
	c0.043,0,0.086-0.006,0.13-0.017c0.267-0.072,0.425-0.346,0.354-0.613l-1.534-5.726l4.434,2.56
	c-0.168,0.485-0.188,1.009-0.053,1.516c0.18,0.671,0.61,1.231,1.211,1.579c0.395,0.228,0.843,0.348,1.297,0.348
	c0.927,0,1.791-0.498,2.253-1.3C-204.061,278.191-203.968,277.491-204.147,276.82z M-208.329,260.913
	c0.104-0.415,0.364-0.764,0.731-0.983c0.248-0.148,0.53-0.227,0.817-0.227c0.489,0,0.942,0.237,1.244,0.614
	c0.043,0.056,0.094,0.104,0.13,0.165c0.142,0.236,0.207,0.495,0.217,0.754c0.022,0.565-0.25,1.127-0.769,1.438
	c-0.512,0.307-1.165,0.264-1.661-0.035c-0.214-0.129-0.402-0.3-0.532-0.519c-0.05-0.083-0.089-0.17-0.122-0.258
	C-208.388,261.562-208.409,261.233-208.329,260.913z M-233.289,262.693c-0.502,0.427-1.262,0.539-1.852,0.198
	c-0.37-0.213-0.634-0.558-0.745-0.971c-0.067-0.252-0.065-0.51-0.01-0.758c0.035-0.157,0.087-0.312,0.17-0.455
	c0.083-0.144,0.19-0.265,0.31-0.373c0.292-0.267,0.672-0.427,1.078-0.427c0.279,0,0.554,0.074,0.796,0.214
	c0.612,0.354,0.895,1.053,0.76,1.709c-0.033,0.163-0.085,0.324-0.173,0.476C-233.043,262.457-233.16,262.583-233.289,262.693z
	 M-233.401,279.071c-0.675,0.403-1.595,0.204-2.075-0.397c-0.041-0.051-0.083-0.099-0.117-0.155
	c-0.142-0.237-0.207-0.497-0.217-0.756c-0.021-0.565,0.25-1.127,0.769-1.437c0.248-0.148,0.531-0.227,0.818-0.227
	c0.307,0,0.6,0.096,0.853,0.255c0.209,0.132,0.393,0.306,0.523,0.523c0.05,0.084,0.088,0.171,0.121,0.259
	C-232.461,277.847-232.729,278.669-233.401,279.071z M-217.403,274.865l-2.597-1.901l-0.5-0.366l-0.5,0.366l-2.599,1.902
	l0.348-3.201l0.067-0.616l-0.566-0.25l-2.946-1.299l2.946-1.299l0.566-0.25l-0.067-0.616l-0.348-3.2l2.599,1.902l0.5,0.365
	l0.5-0.366l2.597-1.902l-0.348,3.202l-0.067,0.615l0.566,0.25l2.947,1.299l-2.946,1.3l-0.568,0.25l0.067,0.614L-217.403,274.865z
	 M-221,252.114c0.228-0.12,0.485-0.195,0.763-0.195c0.07,0.001,0.137,0.014,0.205,0.023c0.782,0.114,1.382,0.789,1.371,1.6
	c-0.012,0.779-0.592,1.423-1.338,1.548c-0.085,0.015-0.171,0.026-0.261,0.026v0.497l-0.025-0.497
	c-0.254-0.004-0.495-0.072-0.714-0.188c-0.148-0.078-0.288-0.173-0.408-0.297c-0.298-0.307-0.458-0.711-0.452-1.138
	C-221.851,252.896-221.503,252.382-221,252.114z M-220,286.89c-0.222,0.118-0.471,0.191-0.738,0.191v0.245
	c-0.004-0.003-0.008-0.006-0.013-0.009l-0.012-0.236c-0.069-0.001-0.137-0.014-0.205-0.023c-0.348-0.05-0.67-0.205-0.919-0.462
	c-0.297-0.306-0.457-0.71-0.45-1.138c0.011-0.773,0.582-1.414,1.337-1.546c0.093-0.017,0.187-0.028,0.285-0.028
	c0.255,0.004,0.496,0.073,0.715,0.188c0.148,0.077,0.288,0.173,0.408,0.296c0.298,0.308,0.458,0.712,0.452,1.139
	C-219.149,286.107-219.5,286.625-220,286.89z M-208.202,277.906c-0.065-0.245-0.065-0.496-0.015-0.737
	c0.035-0.165,0.088-0.326,0.175-0.476c0.087-0.15,0.202-0.276,0.329-0.388c0.289-0.257,0.661-0.412,1.059-0.412
	c0.278,0,0.554,0.074,0.797,0.215c0.37,0.213,0.634,0.558,0.745,0.971c0.067,0.252,0.065,0.51,0.01,0.758
	c-0.035,0.157-0.087,0.312-0.17,0.455c-0.082,0.142-0.19,0.26-0.31,0.366c-0.501,0.443-1.277,0.563-1.874,0.22
	C-207.827,278.664-208.092,278.319-208.202,277.906z"/>
</svg>
