<?xml version="1.0" encoding="utf-8"?>
<!-- Generator: Adobe Illustrator 16.0.0, SVG Export Plug-In . SVG Version: 6.00 Build 0)  -->
<!DOCTYPE svg PUBLIC "-//W3C//DTD SVG 1.1//EN" "http://www.w3.org/Graphics/SVG/1.1/DTD/svg11.dtd">
<svg version="1.1" id="Layer_1" xmlns="http://www.w3.org/2000/svg" xmlns:xlink="http://www.w3.org/1999/xlink" x="0px" y="0px"
	 width="50px" height="50px" viewBox="-315.5 34.5 50 50" enable-background="new -315.5 34.5 50 50" xml:space="preserve">
<path style="fill:white" d="M-275.06,67.831l-2.678-1.546l1.465-0.847c0.358-0.207,0.481-0.666,0.274-1.024c-0.208-0.36-0.667-0.481-1.025-0.274
	l-2.213,1.279l-1.82-1.051l4.355-2.514c0.358-0.207,0.481-0.665,0.274-1.024c-0.208-0.358-0.667-0.483-1.024-0.274l-5.106,2.946
	l-1.189-0.687c0.417-0.927,0.656-1.951,0.656-3.032c0-1.082-0.239-2.106-0.657-3.034l1.189-0.687l5.106,2.948
	c0.118,0.068,0.247,0.101,0.375,0.101c0.259,0,0.511-0.135,0.65-0.375c0.207-0.358,0.084-0.817-0.274-1.024l-4.357-2.516
	l1.822-1.052l2.215,1.28c0.118,0.068,0.247,0.101,0.375,0.101c0.259,0,0.511-0.135,0.65-0.375c0.207-0.358,0.084-0.817-0.274-1.024
	l-1.466-0.847l2.677-1.546c0.359-0.207,0.481-0.666,0.274-1.024c-0.207-0.358-0.667-0.481-1.024-0.274l-2.676,1.545l0-1.688
	c0-0.414-0.336-0.75-0.75-0.75c-0.414,0-0.75,0.336-0.75,0.75l0.001,2.555l-1.82,1.051l0.001-5.026c0-0.414-0.335-0.75-0.75-0.75
	c-0.414,0-0.75,0.336-0.75,0.75l-0.001,5.893l-1.194,0.689c-1.209-1.67-3.091-2.822-5.249-3.04l0-1.369l5.104-2.948
	c0.359-0.207,0.481-0.666,0.274-1.024c-0.207-0.359-0.666-0.481-1.024-0.274l-4.354,2.515v-2.1l2.214-1.278
	c0.359-0.207,0.481-0.666,0.274-1.024c-0.208-0.358-0.667-0.482-1.024-0.274l-1.464,0.845v-3.092c0-0.414-0.336-0.75-0.75-0.75
	s-0.75,0.336-0.75,0.75v3.091l-1.463-0.846c-0.359-0.207-0.817-0.084-1.025,0.274c-0.207,0.358-0.084,0.817,0.274,1.024l2.214,1.279
	v2.1l-4.354-2.514c-0.357-0.207-0.817-0.085-1.024,0.274c-0.207,0.358-0.084,0.817,0.274,1.024l5.104,2.947l0,1.37
	c-2.158,0.218-4.039,1.371-5.248,3.041l-1.196-0.69v-5.894c0-0.414-0.336-0.75-0.75-0.75s-0.75,0.336-0.75,0.75v5.027l-1.818-1.05
	l-0.001-2.558c0-0.414-0.336-0.75-0.75-0.75c-0.414,0-0.75,0.336-0.75,0.75l0,1.691l-2.677-1.546
	c-0.358-0.207-0.817-0.084-1.024,0.274c-0.207,0.358-0.084,0.817,0.274,1.024l2.677,1.546l-1.464,0.845
	c-0.359,0.207-0.481,0.666-0.274,1.024c0.139,0.24,0.391,0.375,0.65,0.375c0.127,0,0.256-0.032,0.375-0.101l2.213-1.278l1.82,1.051
	l-4.355,2.515c-0.359,0.207-0.481,0.666-0.274,1.024c0.139,0.24,0.391,0.375,0.65,0.375c0.127,0,0.256-0.032,0.375-0.101
	l5.104-2.947l1.193,0.688c-0.418,0.927-0.656,1.952-0.656,3.033s0.238,2.104,0.656,3.031l-1.191,0.688l-5.107-2.944
	c-0.358-0.208-0.817-0.085-1.024,0.274c-0.207,0.359-0.083,0.817,0.275,1.024l4.355,2.513l-1.821,1.052l-2.212-1.279
	c-0.358-0.206-0.817-0.084-1.025,0.274c-0.207,0.358-0.084,0.817,0.274,1.024l1.464,0.846l-2.676,1.545
	c-0.359,0.207-0.481,0.666-0.274,1.024c0.139,0.24,0.391,0.375,0.65,0.375c0.127,0,0.256-0.032,0.375-0.101l2.677-1.546l0.001,1.692
	c0,0.414,0.336,0.749,0.75,0.749h0c0.414,0,0.75-0.336,0.75-0.75l-0.002-2.557l1.822-1.052l-0.001,5.03
	c0,0.414,0.335,0.75,0.75,0.75c0.414,0,0.75-0.336,0.75-0.75l0.002-5.896l1.193-0.689c1.208,1.671,3.09,2.824,5.249,3.042l0,1.369
	l-5.103,2.947c-0.359,0.207-0.481,0.666-0.274,1.024s0.666,0.481,1.024,0.274l4.353-2.514v2.1l-2.214,1.279
	c-0.359,0.207-0.481,0.666-0.274,1.024c0.208,0.358,0.666,0.482,1.024,0.274l1.464-0.846v3.091c0,0.414,0.336,0.75,0.75,0.75
	s0.75-0.336,0.75-0.75v-3.092l1.466,0.847c0.118,0.068,0.247,0.101,0.375,0.101c0.259,0,0.511-0.135,0.65-0.375
	c0.207-0.358,0.084-0.817-0.274-1.024l-2.216-1.28v-2.1l4.355,2.515c0.118,0.068,0.247,0.101,0.375,0.101
	c0.259,0,0.511-0.135,0.65-0.375c0.207-0.358,0.084-0.817-0.274-1.024l-5.105-2.948l0-1.368c2.159-0.218,4.041-1.37,5.25-3.041
	l1.194,0.689v5.894c0,0.414,0.336,0.75,0.75,0.75s0.75-0.336,0.75-0.75v-5.028l1.819,1.051l0.001,2.556
	c0,0.414,0.336,0.75,0.75,0.75c0.414,0,0.75-0.336,0.75-0.75l0-1.689l2.677,1.546c0.118,0.068,0.247,0.101,0.375,0.101
	c0.259,0,0.511-0.135,0.65-0.375C-274.578,68.497-274.701,68.038-275.06,67.831z M-289.75,65.639
	c-0.246,0.031-0.495,0.053-0.75,0.053c-0.255,0-0.504-0.021-0.75-0.053c-1.604-0.205-3.006-1.055-3.943-2.281
	c-0.303-0.396-0.561-0.829-0.756-1.295c-0.295-0.702-0.458-1.472-0.458-2.279c0-0.809,0.164-1.579,0.459-2.281
	c0.196-0.466,0.454-0.898,0.757-1.295c0.937-1.227,2.338-2.075,3.942-2.28c0.247-0.031,0.496-0.053,0.75-0.053
	c0.254,0,0.503,0.021,0.75,0.053c1.604,0.205,3.006,1.054,3.943,2.279c0.303,0.396,0.562,0.829,0.757,1.295
	c0.295,0.702,0.459,1.474,0.459,2.282c0,0.808-0.164,1.578-0.458,2.28c-0.196,0.466-0.454,0.897-0.757,1.295
	C-286.743,64.585-288.146,65.434-289.75,65.639z"/>
</svg>
