<?xml version="1.0" encoding="utf-8"?>
<!-- Generator: Adobe Illustrator 16.0.0, SVG Export Plug-In . SVG Version: 6.00 Build 0)  -->
<!DOCTYPE svg PUBLIC "-//W3C//DTD SVG 1.1//EN" "http://www.w3.org/Graphics/SVG/1.1/DTD/svg11.dtd">
<svg version="1.1" id="Layer_1" xmlns="http://www.w3.org/2000/svg" xmlns:xlink="http://www.w3.org/1999/xlink" x="0px" y="0px"
	 width="50px" height="50px" viewBox="174.5 244.5 50 50" enable-background="new 174.5 244.5 50 50" xml:space="preserve">
<path style="fill:white" d="M215.894,276.318c0-0.179-0.096-0.343-0.25-0.433l-2.041-1.179c-0.154-0.09-0.346-0.09-0.5,0l-1.792,1.035l-1.404-0.812
	l1.412-0.815c0.239-0.138,0.321-0.443,0.183-0.683c-0.138-0.239-0.443-0.322-0.683-0.183l-1.912,1.104l-1.771-1.022l3.825-2.21
	c0.239-0.138,0.321-0.443,0.183-0.683c-0.138-0.239-0.444-0.321-0.683-0.183l-4.266,2.463l-2.356-3.219l2.355-3.218l4.268,2.463
	c0.079,0.046,0.165,0.067,0.25,0.067c0.172,0,0.341-0.09,0.433-0.25c0.139-0.239,0.057-0.545-0.183-0.683l-3.827-2.21l1.771-1.023
	l1.913,1.104c0.079,0.046,0.165,0.067,0.25,0.067c0.172,0,0.34-0.09,0.433-0.25c0.139-0.239,0.057-0.545-0.183-0.683l-1.412-0.816
	l1.402-0.81l1.792,1.033c0.077,0.045,0.163,0.067,0.25,0.067c0.086,0,0.173-0.022,0.25-0.067l2.043-1.178
	c0.154-0.089,0.25-0.254,0.25-0.433l-0.002-1.253l0.002-1.105c0-0.179-0.095-0.345-0.25-0.435l-2.043-1.177
	c-0.155-0.091-0.347-0.089-0.5,0l-2.04,1.177c-0.155,0.089-0.251,0.255-0.251,0.434v2.07l-1.403,0.811v-1.632
	c0-0.276-0.224-0.5-0.5-0.5s-0.5,0.224-0.5,0.5v2.209l-1.771,1.022v-4.418c0-0.276-0.224-0.5-0.5-0.5s-0.5,0.224-0.5,0.5v4.927
	l-3.967,0.431l-1.608-3.648l4.268-2.464c0.239-0.138,0.321-0.443,0.183-0.683c-0.138-0.24-0.444-0.322-0.683-0.183L200,260.975
	v-2.046l1.913-1.106c0.239-0.138,0.321-0.444,0.183-0.683c-0.139-0.239-0.447-0.322-0.683-0.183L200,257.774v-1.626l1.791-1.033
	c0.155-0.089,0.25-0.254,0.25-0.433v-2.356c0-0.179-0.095-0.343-0.249-0.433l-2.042-1.18c-0.154-0.088-0.344-0.088-0.5,0
	l-2.043,1.18c-0.154,0.089-0.249,0.254-0.249,0.433v2.356c0,0.179,0.095,0.344,0.25,0.433l1.792,1.033v1.624l-1.41-0.815
	c-0.235-0.139-0.544-0.056-0.683,0.183c-0.139,0.239-0.057,0.545,0.183,0.683l1.91,1.104v2.045l-3.824-2.206
	c-0.24-0.141-0.546-0.057-0.683,0.183c-0.139,0.239-0.057,0.545,0.183,0.683l4.266,2.462l-1.609,3.65l-3.966-0.431l-0.001-4.927
	c0-0.276-0.224-0.5-0.5-0.5s-0.5,0.224-0.5,0.5l0.001,4.419l-1.773-1.024v-2.208c0-0.276-0.224-0.5-0.5-0.5s-0.5,0.224-0.5,0.5
	v1.631l-1.404-0.811l0.002-0.967l-0.002-1.104c0-0.179-0.096-0.343-0.25-0.432l-2.041-1.178c-0.153-0.089-0.343-0.089-0.5-0.001
	l-2.041,1.179c-0.154,0.089-0.25,0.254-0.25,0.433v2.357c0,0.179,0.096,0.344,0.25,0.434l2.041,1.179
	c0.077,0.045,0.164,0.067,0.25,0.067s0.173-0.022,0.25-0.067l1.792-1.035l1.405,0.812l-1.413,0.816
	c-0.239,0.138-0.321,0.443-0.183,0.683c0.093,0.16,0.261,0.25,0.433,0.25c0.085,0,0.172-0.021,0.25-0.067l1.911-1.104l1.774,1.023
	l-3.827,2.21c-0.239,0.138-0.321,0.443-0.183,0.683c0.092,0.16,0.261,0.25,0.433,0.25c0.085,0,0.171-0.021,0.25-0.067l4.267-2.463
	l2.355,3.218l-2.356,3.219l-4.265-2.463c-0.239-0.138-0.545-0.057-0.683,0.183c-0.139,0.239-0.057,0.545,0.183,0.683l3.824,2.21
	l-1.771,1.022l-1.913-1.104c-0.241-0.14-0.546-0.057-0.683,0.183c-0.139,0.239-0.057,0.545,0.183,0.683l1.412,0.815l-1.405,0.812
	l-1.794-1.033c-0.154-0.088-0.345-0.089-0.499,0.001l-2.038,1.176c-0.155,0.089-0.251,0.254-0.251,0.433l-0.002,1.111l0.002,0.143
	l-0.002,1.104c0,0.179,0.095,0.345,0.25,0.435l2.043,1.179c0.077,0.045,0.164,0.067,0.25,0.067c0.087,0,0.173-0.022,0.25-0.067
	l2.04-1.18c0.154-0.089,0.25-0.254,0.25-0.433l-0.001-1.254l0.001-0.814l1.407-0.812v1.633c0,0.276,0.224,0.5,0.5,0.5
	s0.5-0.224,0.5-0.5v-2.21l1.771-1.023v4.419c0,0.276,0.224,0.5,0.5,0.5s0.5-0.224,0.5-0.5v-4.927l3.966-0.431l1.609,3.65
	l-4.266,2.462c-0.239,0.138-0.321,0.443-0.183,0.683c0.137,0.238,0.442,0.321,0.683,0.183l3.824-2.206v2.045l-1.91,1.104
	c-0.239,0.138-0.321,0.443-0.183,0.683c0.138,0.239,0.446,0.32,0.683,0.183l1.41-0.815v1.624l-1.792,1.033
	c-0.155,0.089-0.25,0.254-0.25,0.433v2.356c0,0.179,0.095,0.344,0.249,0.433l2.043,1.18c0.078,0.044,0.164,0.066,0.25,0.066
	s0.173-0.022,0.25-0.066l2.042-1.18c0.154-0.089,0.249-0.254,0.249-0.433v-2.356c0-0.179-0.095-0.344-0.25-0.433L200,282.852v-1.626
	l1.413,0.817c0.078,0.046,0.165,0.067,0.25,0.067c0.172,0,0.34-0.09,0.433-0.25c0.139-0.238,0.057-0.545-0.183-0.683L200,280.071
	v-2.046l3.827,2.209c0.079,0.046,0.165,0.067,0.25,0.067c0.172,0,0.341-0.09,0.433-0.25c0.139-0.239,0.057-0.545-0.183-0.683
	l-4.268-2.464l1.608-3.648l3.966,0.431v4.927c0,0.276,0.224,0.5,0.5,0.5s0.5-0.224,0.5-0.5v-4.419l1.772,1.023v2.21
	c0,0.276,0.224,0.5,0.5,0.5s0.5-0.224,0.5-0.5v-1.633l1.405,0.812v2.069c0,0.179,0.096,0.344,0.25,0.433l2.041,1.18
	c0.077,0.045,0.163,0.067,0.25,0.067c0.086,0,0.173-0.022,0.25-0.067l2.041-1.18c0.154-0.089,0.25-0.254,0.25-0.433l0.002-1.255
	L215.894,276.318z M211.81,261.816v-1.203l1.541-0.891l1.063,0.613l0.479,0.276v0.554l0.001,1.229l-1.543,0.889l-1.041-0.602
	l-0.5-0.289V261.816z M184.106,261.166v-0.554l0.479-0.276l1.062-0.613l1.543,0.89l-0.001,1.203v0.576l-0.5,0.289l-1.041,0.603
	l-1.541-0.892V261.166z M187.188,278.388l-1.54,0.892l-1.072-0.62l-0.47-0.271l0.001-0.553v-0.269l-0.002-0.143l0.001-0.814
	l1.541-0.89l1.041,0.601l0.5,0.288v0.577V278.388z M200,274.562l-0.5,1.134l-0.5-1.134l-1.049-2.379l-2.585,0.281l-1.232,0.134
	l0.731-0.999l1.537-2.099l-1.537-2.099l-0.731-0.999l1.232,0.134l2.585,0.281l1.049-2.379l0.5-1.134l0.5,1.134l1.049,2.379
	l2.585-0.281l1.232-0.134l-0.731,0.999l-1.537,2.099l1.537,2.099l0.731,0.999l-1.232-0.134l-2.585-0.281L200,274.562z
	 M197.958,252.614l1.062-0.613l0.479-0.276l0.479,0.276l1.062,0.613v1.78L200,254.995l-0.5,0.288l-0.5-0.288l-1.042-0.601V252.614z
	 M201.041,286.386l-1.062,0.613l-0.479,0.276l-0.479-0.276l-1.062-0.613v-1.78l1.042-0.601l0.5-0.288l0.5,0.288l1.041,0.601V286.386
	z M211.812,277.423v-0.237l-0.001-0.577l0.5-0.289l1.041-0.603l1.542,0.892l-0.001,1.227v0.553l-0.47,0.271l-1.071,0.62
	l-1.541-0.892L211.812,277.423z"/>
</svg>
