<?xml version="1.0" encoding="utf-8"?>
<!-- Generator: Adobe Illustrator 16.0.0, SVG Export Plug-In . SVG Version: 6.00 Build 0)  -->
<!DOCTYPE svg PUBLIC "-//W3C//DTD SVG 1.1//EN" "http://www.w3.org/Graphics/SVG/1.1/DTD/svg11.dtd">
<svg version="1.1" id="Layer_1" xmlns="http://www.w3.org/2000/svg" xmlns:xlink="http://www.w3.org/1999/xlink" x="0px" y="0px"
	 width="50px" height="50px" viewBox="-245.5 -105.5 50 50" enable-background="new -245.5 -105.5 50 50" xml:space="preserve">
<path style="fill:white" d="M-204.556-83.347L-204.556-83.347c-0.695,0.01-1.343,0.291-1.827,0.789c-0.413,0.425-0.651,0.967-0.709,1.548h-5.093
	l4.193-4.192c0.195-0.195,0.195-0.512,0-0.707s-0.512-0.195-0.707,0l-4.9,4.899h-3.017l-1.509-2.614l1.511-2.616l6.689-1.792
	c0.267-0.071,0.425-0.346,0.354-0.612c-0.071-0.267-0.345-0.423-0.612-0.354l-5.723,1.533l2.55-4.417
	c0.333,0.149,0.687,0.249,1.053,0.249c0.91,0,1.766-0.485,2.233-1.266c0.734-1.23,0.331-2.829-0.898-3.564
	c-1.188-0.711-2.856-0.284-3.565,0.898c-0.608,1.021-0.426,2.288,0.352,3.111l-2.592,4.49l-1.535-5.727
	c-0.071-0.268-0.345-0.424-0.612-0.354c-0.267,0.071-0.425,0.346-0.354,0.612l1.793,6.693l-1.509,2.614h-3.02l-1.509-2.614
	l1.793-6.69c0.071-0.267-0.087-0.541-0.354-0.612c-0.265-0.069-0.54,0.087-0.612,0.354l-1.534,5.725l-2.559-4.432
	c0.917-0.8,1.175-2.165,0.544-3.258c-0.69-1.195-2.351-1.644-3.55-0.951c-0.601,0.347-1.031,0.907-1.21,1.578
	s-0.088,1.371,0.259,1.972c0.463,0.802,1.327,1.3,2.254,1.3c0.284,0,0.561-0.063,0.829-0.154l2.566,4.445l-5.724-1.534
	c-0.265-0.07-0.541,0.087-0.612,0.354c-0.071,0.267,0.087,0.541,0.354,0.612l6.69,1.792l1.51,2.615l-1.508,2.614h-3.019
	l-4.899-4.899c-0.195-0.195-0.512-0.195-0.707,0s-0.195,0.512,0,0.707l4.192,4.192h-5.187c-0.324-1.07-1.318-1.86-2.518-1.86h0
	c-1.431,0.022-2.579,1.206-2.559,2.638c0.021,1.411,1.188,2.56,2.599,2.56h0.039c1.33-0.021,2.402-1.045,2.534-2.338h5.09
	l-4.19,4.19c-0.195,0.195-0.195,0.512,0,0.707c0.098,0.098,0.226,0.146,0.354,0.146s0.256-0.049,0.354-0.146l4.897-4.897h3.021
	l1.508,2.615l-1.507,2.61l-6.694,1.795c-0.267,0.071-0.425,0.346-0.354,0.612c0.072,0.268,0.347,0.427,0.612,0.354l5.728-1.536
	l-2.549,4.416c-1.159-0.504-2.635-0.072-3.29,1.023c-0.356,0.596-0.459,1.294-0.289,1.968c0.17,0.673,0.591,1.24,1.188,1.596
	c0.403,0.241,0.862,0.368,1.33,0.368c0.91,0,1.766-0.485,2.234-1.266c0.356-0.596,0.458-1.295,0.289-1.969
	c-0.11-0.438-0.337-0.824-0.639-1.142l2.592-4.49l1.534,5.722c0.06,0.224,0.262,0.371,0.482,0.371c0.043,0,0.086-0.005,0.13-0.017
	c0.267-0.071,0.425-0.346,0.354-0.612l-1.793-6.687l1.51-2.615h3.018l1.509,2.613l-1.793,6.69c-0.071,0.267,0.087,0.541,0.354,0.612
	c0.043,0.012,0.087,0.017,0.13,0.017c0.221,0,0.423-0.147,0.482-0.371l1.534-5.724l2.559,4.432
	c-0.387,0.336-0.667,0.779-0.802,1.286c-0.18,0.67-0.087,1.371,0.259,1.972c0.463,0.802,1.327,1.299,2.253,1.299
	c0.454,0,0.903-0.12,1.297-0.348c0.601-0.347,1.031-0.907,1.211-1.578c0.18-0.671,0.088-1.372-0.259-1.973
	c-0.604-1.046-1.957-1.522-3.09-1.154l-2.562-4.438l5.726,1.536c0.268,0.074,0.541-0.086,0.612-0.354
	c0.072-0.267-0.087-0.541-0.354-0.612l-6.692-1.794l-1.508-2.612l1.509-2.615h3.02l4.895,4.898c0.098,0.098,0.226,0.146,0.354,0.146
	s0.256-0.049,0.354-0.146c0.195-0.195,0.195-0.512,0-0.707l-4.188-4.191h5.185c0.323,1.07,1.311,1.861,2.479,1.861l0.04,0
	c1.433-0.023,2.58-1.207,2.559-2.638C-201.941-82.199-203.105-83.347-204.556-83.347z M-213.675-95.052
	c0.292-0.488,0.807-0.779,1.376-0.779c0.021,0,0.041,0.008,0.062,0.008c0.265,0.011,0.526,0.081,0.755,0.218
	c0.061,0.036,0.112,0.081,0.166,0.123c0.621,0.49,0.803,1.374,0.388,2.07c-0.39,0.651-1.23,0.929-1.933,0.673
	c-0.089-0.033-0.177-0.071-0.261-0.121c-0.223-0.133-0.395-0.314-0.524-0.52C-213.958-93.873-213.994-94.517-213.675-95.052z
	 M-229.876-93.554c-0.213-0.369-0.27-0.8-0.159-1.213c0.068-0.252,0.198-0.474,0.369-0.66c0.109-0.119,0.231-0.228,0.375-0.311
	c0.142-0.082,0.296-0.134,0.454-0.169c0.113-0.025,0.228-0.045,0.343-0.045c0.571,0,1.103,0.306,1.387,0.799
	c0.353,0.612,0.249,1.358-0.197,1.859c-0.11,0.124-0.236,0.238-0.388,0.325c-0.151,0.088-0.315,0.139-0.482,0.169
	C-228.824-92.68-229.539-92.97-229.876-93.554z M-236.481-78.175v-0.497c-0.799,0-1.462-0.6-1.575-1.371
	c-0.01-0.068-0.023-0.134-0.024-0.204c-0.004-0.276,0.069-0.534,0.191-0.763c0.266-0.501,0.786-0.851,1.406-0.86
	c0.61,0,1.141,0.352,1.41,0.86c0.114,0.216,0.187,0.457,0.19,0.715c0.001,0.097-0.009,0.192-0.024,0.285
	c-0.125,0.748-0.767,1.326-1.55,1.338L-236.481-78.175L-236.481-78.175z M-227.148-67.18c0.105,0.415,0.042,0.845-0.177,1.211
	c-0.292,0.488-0.807,0.779-1.376,0.779c-0.021,0-0.041-0.008-0.062-0.008c-0.265-0.011-0.525-0.081-0.754-0.218
	c-0.06-0.036-0.112-0.08-0.166-0.123c-0.277-0.217-0.478-0.513-0.565-0.86c-0.104-0.414-0.042-0.844,0.178-1.21
	c0.292-0.488,0.806-0.779,1.375-0.779c0.191,0,0.376,0.047,0.554,0.114c0.09,0.034,0.181,0.063,0.264,0.113
	c0.218,0.13,0.393,0.311,0.525,0.521C-227.263-67.499-227.19-67.347-227.148-67.18z M-212.511-68.267
	c0.571,0,1.103,0.306,1.387,0.799c0.214,0.37,0.271,0.801,0.16,1.213c-0.068,0.252-0.199,0.474-0.371,0.662
	c-0.109,0.119-0.231,0.226-0.375,0.309c-0.142,0.082-0.296,0.13-0.452,0.162c-0.659,0.134-1.39-0.154-1.732-0.747
	c-0.353-0.611-0.249-1.357,0.196-1.858c0.111-0.125,0.237-0.238,0.389-0.326c0.149-0.086,0.312-0.138,0.479-0.172
	C-212.725-68.246-212.619-68.267-212.511-68.267z M-218.99-77.896h-0.579h-1.863h-0.578l-0.288-0.5l-0.932-1.615l-0.288-0.5
	l0.289-0.5l0.931-1.614l0.289-0.5h0.578h1.864h0.578l0.289,0.5l0.932,1.614l0.289,0.5l-0.289,0.5l-0.933,1.616L-218.99-77.896z
	 M-205.926-80.011c-0.114-0.216-0.187-0.457-0.19-0.715c-0.001-0.097,0.008-0.191,0.023-0.285c0.052-0.318,0.198-0.614,0.428-0.851
	c0.298-0.307,0.697-0.479,1.15-0.486c0.796,0,1.458,0.599,1.572,1.37c0.01,0.068,0.023,0.135,0.024,0.205
	c0.004,0.276-0.069,0.533-0.189,0.762c-0.264,0.501-0.78,0.851-1.385,0.86l-0.024,0.497v-0.497
	C-205.128-79.15-205.657-79.502-205.926-80.011z"/>
</svg>
