<?xml version="1.0" encoding="utf-8"?>
<!-- Generator: Adobe Illustrator 16.0.0, SVG Export Plug-In . SVG Version: 6.00 Build 0)  -->
<!DOCTYPE svg PUBLIC "-//W3C//DTD SVG 1.1//EN" "http://www.w3.org/Graphics/SVG/1.1/DTD/svg11.dtd">
<svg version="1.1" id="Layer_1" xmlns="http://www.w3.org/2000/svg" xmlns:xlink="http://www.w3.org/1999/xlink" x="0px" y="0px"
	 width="50px" height="50px" viewBox="-315.5 -175.5 50 50" enable-background="new -315.5 -175.5 50 50" xml:space="preserve">
<path style="fill:white" d="M-275.186-142.236l-9.383-5.417l4.026-1.078c0.267-0.071,0.425-0.346,0.354-0.612s-0.343-0.426-0.612-0.354l-4.992,1.336
	l-3.707-2.14l3.71-2.142l4.989,1.336c0.043,0.012,0.087,0.017,0.13,0.017c0.221,0,0.423-0.147,0.482-0.371
	c0.071-0.267-0.087-0.541-0.354-0.612l-4.023-1.078l9.38-5.416c0.239-0.138,0.321-0.444,0.183-0.683
	c-0.138-0.24-0.445-0.321-0.683-0.183l-9.382,5.417l1.079-4.026c0.071-0.267-0.087-0.541-0.354-0.612
	c-0.265-0.07-0.54,0.087-0.612,0.354l-1.338,4.992l-3.708,2.141v-4.282l3.653-3.652c0.195-0.195,0.195-0.512,0-0.707
	s-0.512-0.195-0.707,0l-2.946,2.945v-10.834c0-0.276-0.224-0.5-0.5-0.5s-0.5,0.224-0.5,0.5v10.834l-2.946-2.945
	c-0.195-0.195-0.512-0.195-0.707,0s-0.195,0.512,0,0.707l3.653,3.652v4.282l-3.708-2.141l-1.338-4.992
	c-0.071-0.267-0.346-0.424-0.612-0.354c-0.267,0.071-0.425,0.346-0.354,0.612l1.079,4.026l-9.382-5.417
	c-0.24-0.138-0.545-0.056-0.683,0.183c-0.138,0.239-0.056,0.545,0.183,0.683l9.38,5.416l-4.023,1.078
	c-0.267,0.071-0.425,0.346-0.354,0.612c0.06,0.224,0.262,0.371,0.482,0.371c0.043,0,0.086-0.005,0.13-0.017l4.989-1.336l3.71,2.142
	l-3.707,2.14l-4.992-1.336c-0.264-0.072-0.541,0.087-0.612,0.354s0.087,0.541,0.354,0.612l4.026,1.078l-9.383,5.417
	c-0.239,0.138-0.321,0.444-0.183,0.683c0.093,0.161,0.261,0.25,0.434,0.25c0.085,0,0.171-0.021,0.25-0.067l9.381-5.416l-1.077,4.022
	c-0.071,0.267,0.087,0.541,0.354,0.612c0.043,0.012,0.087,0.017,0.13,0.017c0.221,0,0.423-0.147,0.482-0.371l1.335-4.988
	l3.709-2.141v4.28l-3.653,3.653c-0.195,0.195-0.195,0.512,0,0.707s0.512,0.195,0.707,0l2.946-2.946v10.836
	c0,0.276,0.224,0.5,0.5,0.5s0.5-0.224,0.5-0.5v-10.836l2.946,2.947c0.098,0.098,0.226,0.146,0.354,0.146s0.256-0.049,0.354-0.146
	c0.195-0.195,0.195-0.512,0-0.707l-3.653-3.654v-4.28l3.709,2.141l1.335,4.988c0.06,0.223,0.262,0.371,0.482,0.371
	c0.043,0,0.086-0.005,0.13-0.017c0.267-0.071,0.425-0.346,0.354-0.612l-1.077-4.022l9.381,5.416c0.079,0.045,0.165,0.067,0.25,0.067
	c0.173,0,0.341-0.09,0.434-0.25C-274.864-141.792-274.946-142.098-275.186-142.236z"/>
</svg>
