<?xml version="1.0" encoding="utf-8"?>
<!-- Generator: Adobe Illustrator 16.0.0, SVG Export Plug-In . SVG Version: 6.00 Build 0)  -->
<!DOCTYPE svg PUBLIC "-//W3C//DTD SVG 1.1//EN" "http://www.w3.org/Graphics/SVG/1.1/DTD/svg11.dtd">
<svg version="1.1" id="Layer_1" xmlns="http://www.w3.org/2000/svg" xmlns:xlink="http://www.w3.org/1999/xlink" x="0px" y="0px"
	 width="50px" height="50px" viewBox="34.5 -105.5 50 50" enable-background="new 34.5 -105.5 50 50" xml:space="preserve">
<path style="fill:white" d="M74.371-79.019l-7.724,2.068l-2.464-1.422l2.627-0.704c0.268-0.071,0.426-0.346,0.354-0.612
	c-0.072-0.266-0.342-0.426-0.612-0.354l-3.594,0.962L60.5-80.5l2.46-1.42l3.592,0.963c0.044,0.012,0.087,0.017,0.13,0.017
	c0.221,0,0.423-0.147,0.483-0.371c0.071-0.267-0.087-0.541-0.354-0.612l-2.627-0.704l2.464-1.422l7.723,2.069
	c0.043,0.012,0.086,0.017,0.129,0.017c0.221,0,0.423-0.147,0.483-0.371c0.071-0.267-0.087-0.541-0.354-0.612l-6.756-1.81l2.736-1.58
	l1.436,0.829l1.938-1.117v-2.236l-1.938-1.118l-1.936,1.118v1.658l-2.735,1.58l1.811-6.755c0.071-0.267-0.087-0.541-0.354-0.612
	c-0.268-0.07-0.541,0.086-0.613,0.354l-2.068,7.721l-2.466,1.423l0.705-2.626c0.071-0.267-0.087-0.541-0.354-0.612
	c-0.269-0.07-0.541,0.087-0.613,0.354l-0.963,3.592L60-81.366v-2.839l2.63-2.631c0.195-0.195,0.195-0.512,0-0.707
	s-0.512-0.195-0.707,0L60-85.619v-2.847l5.652-5.653c0.195-0.195,0.195-0.512,0-0.707s-0.512-0.195-0.707,0L60-89.88v-3.159
	l1.437-0.83v-2.236L59.5-97.222l-1.937,1.117v2.236L59-93.039v3.159l-4.945-4.946c-0.195-0.195-0.512-0.195-0.707,0
	s-0.195,0.512,0,0.707L59-88.466v2.847l-1.923-1.924c-0.195-0.195-0.512-0.195-0.707,0s-0.195,0.512,0,0.707L59-84.205v2.839
	l-2.459-1.42l-0.963-3.592c-0.072-0.267-0.343-0.424-0.613-0.354c-0.267,0.071-0.425,0.346-0.354,0.612l0.705,2.626l-2.466-1.423
	l-2.068-7.721c-0.072-0.267-0.344-0.424-0.613-0.354c-0.267,0.071-0.425,0.346-0.354,0.612l1.811,6.755l-2.735-1.58v-1.658
	l-1.937-1.118l-1.937,1.118v2.236l1.937,1.117l1.437-0.829l2.736,1.58l-6.756,1.81c-0.268,0.071-0.426,0.346-0.354,0.612
	c0.061,0.224,0.263,0.371,0.483,0.371c0.043,0,0.086-0.005,0.129-0.017l7.723-2.069l2.464,1.422l-2.627,0.704
	c-0.267,0.071-0.425,0.346-0.354,0.612c0.061,0.224,0.263,0.371,0.483,0.371c0.043,0,0.086-0.005,0.13-0.017l3.592-0.963l2.46,1.42
	l-2.459,1.42l-3.594-0.962c-0.261-0.072-0.54,0.087-0.612,0.354c-0.071,0.267,0.087,0.541,0.354,0.612l2.627,0.704l-2.464,1.422
	l-7.724-2.068c-0.263-0.07-0.539,0.087-0.612,0.354c-0.071,0.267,0.087,0.541,0.354,0.612l6.757,1.81l-2.736,1.58l-1.437-0.829
	l-1.938,1.118l0.002,2.236l1.936,1.117l1.937-1.117v-1.659l2.735-1.579l-1.811,6.755c-0.071,0.267,0.087,0.541,0.354,0.612
	c0.044,0.012,0.087,0.017,0.13,0.017c0.221,0,0.423-0.147,0.483-0.371l2.069-7.722l2.464-1.422l-0.704,2.626
	c-0.071,0.267,0.087,0.541,0.354,0.612c0.043,0.012,0.086,0.017,0.129,0.017c0.221,0,0.423-0.147,0.483-0.371l0.962-3.592L59-79.634
	v2.839l-2.63,2.631c-0.195,0.195-0.195,0.512,0,0.707s0.512,0.195,0.707,0L59-75.381v2.846l-5.652,5.654
	c-0.195,0.195-0.195,0.512,0,0.707s0.512,0.195,0.707,0L59-71.121v3.16l-1.437,0.83v2.236l1.937,1.117l1.937-1.117v-2.236L60-67.961
	v-3.16l4.945,4.947c0.098,0.098,0.226,0.146,0.354,0.146s0.256-0.049,0.354-0.146c0.195-0.195,0.195-0.512,0-0.707L60-72.535v-2.846
	l1.923,1.924c0.098,0.098,0.226,0.146,0.354,0.146s0.256-0.049,0.354-0.146c0.195-0.195,0.195-0.512,0-0.707L60-76.795v-2.839
	l2.459,1.42l0.962,3.592c0.061,0.223,0.263,0.371,0.483,0.371c0.042,0,0.086-0.005,0.129-0.017c0.268-0.071,0.426-0.346,0.354-0.612
	l-0.704-2.626l2.464,1.422l2.069,7.722c0.061,0.224,0.263,0.371,0.483,0.371c0.043,0,0.086-0.005,0.13-0.017
	c0.267-0.071,0.425-0.346,0.354-0.612l-1.811-6.755l2.734,1.579v1.66l1.938,1.117l1.936-1.117l0.002-2.236l-1.938-1.118
	l-1.437,0.829l-2.736-1.58l6.757-1.81c0.268-0.071,0.426-0.346,0.354-0.612C74.911-78.932,74.637-79.09,74.371-79.019z"/>
</svg>
