<?xml version="1.0" encoding="utf-8"?>
<!-- Generator: Adobe Illustrator 16.0.0, SVG Export Plug-In . SVG Version: 6.00 Build 0)  -->
<!DOCTYPE svg PUBLIC "-//W3C//DTD SVG 1.1//EN" "http://www.w3.org/Graphics/SVG/1.1/DTD/svg11.dtd">
<svg version="1.1" id="Layer_1" xmlns="http://www.w3.org/2000/svg" xmlns:xlink="http://www.w3.org/1999/xlink" x="0px" y="0px"
	 width="50px" height="50px" viewBox="34.5 -245.5 50 50" enable-background="new 34.5 -245.5 50 50" xml:space="preserve">
<path style="fill:white" d="M74.5-221.25h-2.697l1.287-1.288c0.293-0.293,0.293-0.768,0-1.061s-0.768-0.293-1.061,0l-2.348,2.349H67.75l3.291-3.288
	c0.293-0.293,0.293-0.768,0-1.061c-0.291-0.293-0.766-0.294-1.061,0l-3.576,3.574l-5.258-5.259l3.283-3.282
	c0.293-0.293,0.293-0.768,0-1.061s-0.768-0.293-1.061,0l-3.119,3.119v-2.459l2.08-2.081c0.293-0.293,0.293-0.769,0-1.061
	c-0.293-0.293-0.768-0.293-1.061,0l-1.02,1.021v-2.413c0-0.414-0.336-0.75-0.75-0.75s-0.75,0.336-0.75,0.75v3.107l-1.715-1.714
	c-0.293-0.293-0.768-0.293-1.061,0s-0.293,0.768,0,1.061l2.775,2.774v1.763l-3.119-3.117c-0.293-0.293-0.768-0.293-1.061,0
	s-0.293,0.768,0,1.061l3.283,3.282l-5.258,5.259l-3.574-3.574c-0.293-0.293-0.768-0.293-1.061,0s-0.293,0.769,0,1.061l3.289,3.288
	h-2.627l-2.348-2.348c-0.293-0.292-0.768-0.294-1.061,0c-0.293,0.292-0.293,0.768,0,1.061l1.287,1.287H44.5
	c-0.414,0-0.75,0.336-0.75,0.75s0.336,0.75,0.75,0.75h2.164l-1.449,1.45c-0.293,0.293-0.293,0.768,0,1.061
	c0.146,0.146,0.338,0.22,0.529,0.22c0.193,0,0.385-0.073,0.531-0.22l2.51-2.511h2.465l-3.291,3.29c-0.293,0.293-0.293,0.768,0,1.061
	c0.146,0.146,0.338,0.22,0.531,0.22c0.191,0,0.383-0.073,0.529-0.22l3.576-3.575l5.26,5.259l-3.285,3.283
	c-0.293,0.293-0.293,0.768,0,1.061c0.146,0.146,0.338,0.22,0.531,0.22c0.191,0,0.383-0.073,0.529-0.22l3.119-3.117v2.423
	l-2.777,2.775c-0.293,0.293-0.293,0.768,0,1.061c0.146,0.146,0.338,0.22,0.531,0.22c0.191,0,0.383-0.073,0.529-0.22l1.717-1.715
	v2.445c0,0.414,0.336,0.75,0.75,0.75s0.75-0.336,0.75-0.75v-1.75l1.02,1.02c0.293,0.293,0.768,0.293,1.061,0s0.293-0.768,0-1.061
	l-2.08-2.08v-3.12l3.119,3.119c0.293,0.293,0.768,0.293,1.061,0s0.293-0.768,0-1.061l-3.283-3.282l5.258-5.259l3.576,3.575
	c0.146,0.146,0.338,0.22,0.531,0.22c0.191,0,0.383-0.073,0.529-0.22c0.293-0.293,0.293-0.768,0-1.061l-3.291-3.291h1.77l2.51,2.51
	c0.146,0.146,0.338,0.22,0.531,0.22c0.191,0,0.383-0.073,0.529-0.22c0.293-0.293,0.293-0.768,0-1.061l-1.449-1.449H74.5
	c0.414,0,0.75-0.336,0.75-0.75S74.914-221.25,74.5-221.25z M60.086-214.775L59.5-214.19l-0.584-0.586l-0.166-0.165l-4.809-4.809
	l-0.285-0.285l-0.465-0.464l0.465-0.465l0.287-0.286l4.807-4.807l0.164-0.166l0.586-0.585l0.586,0.585l0.164,0.164l4.809,4.809
	l0.285,0.286l0.465,0.465l-0.465,0.465l-0.283,0.284l-4.811,4.811L60.086-214.775z M51.633-212.631c0.293,0.293,0.293,0.768,0,1.061
	l-2.613,2.612c-0.146,0.146-0.338,0.22-0.529,0.22c-0.193,0-0.385-0.073-0.531-0.22c-0.293-0.293-0.293-0.768,0-1.061l2.613-2.612
	C50.865-212.924,51.34-212.924,51.633-212.631z M47.959-230.566c-0.293-0.293-0.293-0.768,0-1.061s0.768-0.293,1.061,0l2.613,2.613
	c0.293,0.293,0.293,0.768,0,1.061c-0.146,0.146-0.338,0.22-0.529,0.22c-0.193,0-0.385-0.073-0.531-0.22L47.959-230.566z
	 M66.674-227.955c-0.293-0.293-0.293-0.768,0-1.061l2.613-2.61c0.295-0.293,0.77-0.292,1.061,0c0.293,0.294,0.293,0.769,0,1.062
	l-2.613,2.61c-0.146,0.146-0.338,0.219-0.529,0.219C67.012-227.735,66.82-227.809,66.674-227.955z M70.34-210.018
	c0.293,0.293,0.293,0.768,0,1.061c-0.146,0.146-0.338,0.22-0.529,0.22c-0.193,0-0.385-0.073-0.531-0.22l-2.611-2.615
	c-0.293-0.293-0.293-0.768,0-1.061c0.295-0.293,0.77-0.291,1.061,0.001L70.34-210.018z"/>
</svg>
