<?xml version="1.0" encoding="utf-8"?>
<!-- Generator: Adobe Illustrator 16.0.0, SVG Export Plug-In . SVG Version: 6.00 Build 0)  -->
<!DOCTYPE svg PUBLIC "-//W3C//DTD SVG 1.1//EN" "http://www.w3.org/Graphics/SVG/1.1/DTD/svg11.dtd">
<svg version="1.1" id="Layer_1" xmlns="http://www.w3.org/2000/svg" xmlns:xlink="http://www.w3.org/1999/xlink" x="0px" y="0px"
	 width="50px" height="50px" viewBox="-315.5 -315.5 50 50" enable-background="new -315.5 -315.5 50 50" xml:space="preserve">
<path d="M-274.75-290.5c0,0.414-0.336,0.75-0.75,0.75h-6.991l3.118,3.119c0.293,0.293,0.293,0.768,0,1.061
	c-0.146,0.146-0.338,0.22-0.53,0.22s-0.384-0.073-0.53-0.22l-4.179-4.179h-5.138v5.379l4.35,4.351c0.293,0.293,0.293,0.768,0,1.061
	c-0.146,0.146-0.338,0.22-0.53,0.22s-0.384-0.073-0.53-0.22l-3.29-3.291v6.75c0,0.414-0.336,0.75-0.75,0.75s-0.75-0.336-0.75-0.75
	v-6.75l-3.29,3.29c-0.293,0.293-0.768,0.293-1.061,0s-0.293-0.768,0-1.061l4.35-4.351v-5.379h-5.138l-4.179,4.179
	c-0.146,0.146-0.338,0.22-0.53,0.22s-0.384-0.073-0.53-0.22c-0.293-0.293-0.293-0.768,0-1.061l3.118-3.119h-6.991
	c-0.414,0-0.75-0.336-0.75-0.75s0.336-0.75,0.75-0.75h6.991l-3.118-3.119c-0.293-0.293-0.293-0.768,0-1.061s0.768-0.293,1.061,0
	l4.179,4.179h5.138v-5.379l-4.35-4.351c-0.293-0.293-0.293-0.768,0-1.061s0.768-0.293,1.061,0l3.29,3.29v-6.75
	c0-0.414,0.336-0.75,0.75-0.75s0.75,0.336,0.75,0.75v6.75l3.29-3.29c0.293-0.293,0.768-0.293,1.061,0s0.293,0.768,0,1.061
	l-4.35,4.351v5.379h5.138l4.179-4.179c0.293-0.293,0.768-0.293,1.061,0s0.293,0.768,0,1.061l-3.118,3.119h6.991
	C-275.086-291.25-274.75-290.914-274.75-290.5z M-292.691-288.309c-0.293-0.293-0.768-0.293-1.061,0l-4.979,4.978
	c-0.293,0.293-0.293,0.768,0,1.061c0.146,0.146,0.338,0.22,0.53,0.22s0.384-0.073,0.53-0.22l4.979-4.978
	C-292.398-287.541-292.398-288.016-292.691-288.309z M-288.309-292.691c0.146,0.146,0.338,0.22,0.53,0.22s0.384-0.073,0.53-0.22
	l4.979-4.978c0.293-0.293,0.293-0.768,0-1.061s-0.768-0.293-1.061,0l-4.979,4.978C-288.602-293.459-288.602-292.984-288.309-292.691
	z M-293.751-292.691c0.146,0.146,0.338,0.22,0.53,0.22s0.384-0.073,0.53-0.22c0.293-0.293,0.293-0.768,0-1.061l-4.979-4.978
	c-0.293-0.293-0.768-0.293-1.061,0s-0.293,0.768,0,1.061L-293.751-292.691z M-287.249-288.309c-0.293-0.293-0.768-0.293-1.061,0
	s-0.293,0.768,0,1.061l4.979,4.978c0.146,0.146,0.338,0.22,0.53,0.22s0.384-0.073,0.53-0.22c0.293-0.293,0.293-0.768,0-1.061
	L-287.249-288.309z" style="fill:white"/>
</svg>
