<?xml version="1.0" encoding="utf-8"?>
<!-- Generator: Adobe Illustrator 16.0.0, SVG Export Plug-In . SVG Version: 6.00 Build 0)  -->
<!DOCTYPE svg PUBLIC "-//W3C//DTD SVG 1.1//EN" "http://www.w3.org/Graphics/SVG/1.1/DTD/svg11.dtd">
<svg version="1.1" id="Layer_1" xmlns="http://www.w3.org/2000/svg" xmlns:xlink="http://www.w3.org/1999/xlink" x="0px" y="0px"
	 width="50px" height="50px" viewBox="-315.5 -315.5 50 50" enable-background="new -315.5 -315.5 50 50" xml:space="preserve">
<path style="fill:white" d="M-275.5-291.25h-6.991l3.118-3.119c0.293-0.293,0.293-0.768,0-1.061s-0.768-0.293-1.061,0l-4.107,4.107v-4.079l5.581-5.58
	c0.293-0.293,0.293-0.768,0-1.061s-0.768-0.293-1.061,0l-5.581,5.58h-4.149v-0.168l4.35-4.351c0.293-0.293,0.293-0.768,0-1.061
	s-0.768-0.293-1.061,0l-3.29,3.29v-6.75c0-0.414-0.336-0.75-0.75-0.75s-0.75,0.336-0.75,0.75v6.75l-3.29-3.29
	c-0.293-0.293-0.768-0.293-1.061,0s-0.293,0.768,0,1.061l4.35,4.351v0.168h-4.149l-5.581-5.58c-0.293-0.293-0.768-0.293-1.061,0
	s-0.293,0.768,0,1.061l5.58,5.579v4.079l-4.106-4.106c-0.293-0.293-0.768-0.293-1.061,0s-0.293,0.768,0,1.061l3.118,3.119h-6.991
	c-0.414,0-0.75,0.336-0.75,0.75s0.336,0.75,0.75,0.75h6.991l-3.118,3.119c-0.293,0.293-0.293,0.768,0,1.061
	c0.146,0.146,0.338,0.22,0.53,0.22s0.384-0.073,0.53-0.22l4.106-4.106v4.078l-5.58,5.579c-0.293,0.293-0.293,0.768,0,1.061
	c0.146,0.146,0.338,0.22,0.53,0.22s0.384-0.073,0.53-0.22l5.58-5.58h4.15v0.168l-4.35,4.351c-0.293,0.293-0.293,0.768,0,1.061
	s0.768,0.293,1.061,0l3.29-3.29v6.75c0,0.414,0.336,0.75,0.75,0.75s0.75-0.336,0.75-0.75v-6.75l3.29,3.291
	c0.146,0.146,0.338,0.22,0.53,0.22s0.384-0.073,0.53-0.22c0.293-0.293,0.293-0.768,0-1.061l-4.35-4.351v-0.168h4.15l5.58,5.58
	c0.146,0.146,0.338,0.22,0.53,0.22s0.384-0.073,0.53-0.22c0.293-0.293,0.293-0.768,0-1.061l-5.581-5.58v-4.078l4.107,4.107
	c0.146,0.146,0.338,0.22,0.53,0.22s0.384-0.073,0.53-0.22c0.293-0.293,0.293-0.768,0-1.061l-3.118-3.119h6.991
	c0.414,0,0.75-0.336,0.75-0.75S-275.086-291.25-275.5-291.25z M-286.04-293.9v2.65v1.5v2.65v1.061h-1.06h-2.65h-1.5h-2.65h-1.061
	v-1.06v-2.651v-1.5v-2.651v-1.06h1.062h2.649h1.5h2.649h1.061V-293.9z"/>
</svg>
