<?xml version="1.0" encoding="utf-8"?>
<!-- Generator: Adobe Illustrator 16.0.0, SVG Export Plug-In . SVG Version: 6.00 Build 0)  -->
<!DOCTYPE svg PUBLIC "-//W3C//DTD SVG 1.1//EN" "http://www.w3.org/Graphics/SVG/1.1/DTD/svg11.dtd">
<svg version="1.1" id="Layer_1" xmlns="http://www.w3.org/2000/svg" xmlns:xlink="http://www.w3.org/1999/xlink" x="0px" y="0px"
	 width="50px" height="50px" viewBox="-105.5 -315.5 50 50" enable-background="new -105.5 -315.5 50 50" xml:space="preserve">
<path style="fill:white" d="M-65.5-291.25h-6.991l3.118-3.119c0.293-0.293,0.293-0.768,0-1.061s-0.768-0.293-1.061,0l-4.179,4.179h-1.008l-4.13-4.13
	v-1.249l4.35-4.351c0.293-0.293,0.293-0.768,0-1.061s-0.768-0.293-1.061,0l-3.29,3.29v-6.75c0-0.414-0.336-0.75-0.75-0.75
	s-0.75,0.336-0.75,0.75v6.75l-3.29-3.29c-0.293-0.293-0.768-0.293-1.061,0s-0.293,0.768,0,1.061l4.35,4.351v1.249l-4.13,4.13h-1.008
	l-4.179-4.179c-0.293-0.293-0.768-0.293-1.061,0s-0.293,0.768,0,1.061l3.118,3.119H-95.5c-0.414,0-0.75,0.336-0.75,0.75
	s0.336,0.75,0.75,0.75h6.991l-3.118,3.119c-0.293,0.293-0.293,0.768,0,1.061c0.146,0.146,0.338,0.22,0.53,0.22
	s0.384-0.073,0.53-0.22l4.179-4.179h1.008l4.13,4.13v1.249l-4.35,4.351c-0.293,0.293-0.293,0.768,0,1.061s0.768,0.293,1.061,0
	l3.29-3.29v6.75c0,0.414,0.336,0.75,0.75,0.75s0.75-0.336,0.75-0.75v-6.75l3.29,3.291c0.146,0.146,0.338,0.22,0.53,0.22
	s0.384-0.073,0.53-0.22c0.293-0.293,0.293-0.768,0-1.061l-4.35-4.351v-1.249l4.13-4.13h1.008l4.179,4.179
	c0.146,0.146,0.338,0.22,0.53,0.22s0.384-0.073,0.53-0.22c0.293-0.293,0.293-0.768,0-1.061l-3.118-3.119h6.991
	c0.414,0,0.75-0.336,0.75-0.75S-65.086-291.25-65.5-291.25z M-77.741-289.75l-2.009,2.009l-0.75,0.75l-0.75-0.75l-2.009-2.009
	l-0.75-0.75l0.75-0.75l2.009-2.009l0.75-0.75l0.75,0.75l2.009,2.009l0.75,0.75L-77.741-289.75z M-84.828-285.111l-2.321,2.321
	c-0.146,0.146-0.338,0.22-0.53,0.22s-0.384-0.073-0.53-0.22c-0.293-0.293-0.293-0.768,0-1.061l2.321-2.321
	c0.293-0.293,0.768-0.293,1.061,0S-84.535-285.404-84.828-285.111z M-76.477-295.412l2.61-2.781c0.283-0.302,0.759-0.317,1.06-0.034
	c0.302,0.284,0.317,0.758,0.034,1.06l-2.61,2.781c-0.147,0.157-0.347,0.237-0.547,0.237c-0.184,0-0.369-0.067-0.513-0.203
	C-76.746-294.636-76.761-295.11-76.477-295.412z M-88.21-297.149c-0.293-0.293-0.293-0.768,0-1.061s0.768-0.293,1.061,0l2.321,2.321
	c0.293,0.293,0.293,0.768,0,1.061c-0.146,0.146-0.338,0.22-0.53,0.22s-0.384-0.073-0.53-0.22L-88.21-297.149z M-72.807-283.867
	c0.302,0.284,0.317,0.758,0.034,1.06c-0.147,0.157-0.347,0.237-0.547,0.237c-0.184,0-0.369-0.067-0.513-0.203l-2.781-2.61
	c-0.302-0.284-0.317-0.758-0.034-1.06c0.283-0.302,0.758-0.316,1.06-0.034L-72.807-283.867z"/>
</svg>
