<?xml version="1.0" encoding="utf-8"?>
<!-- Generator: Adobe Illustrator 16.0.0, SVG Export Plug-In . SVG Version: 6.00 Build 0)  -->
<!DOCTYPE svg PUBLIC "-//W3C//DTD SVG 1.1//EN" "http://www.w3.org/Graphics/SVG/1.1/DTD/svg11.dtd">
<svg version="1.1" id="Layer_1" xmlns="http://www.w3.org/2000/svg" xmlns:xlink="http://www.w3.org/1999/xlink" x="0px" y="0px"
	 width="50px" height="50px" viewBox="-245.5 -245.5 50 50" enable-background="new -245.5 -245.5 50 50" xml:space="preserve">
<path style="fill:white" d="M-222.101-216.318l-4.979,4.978c-0.127,0.127-0.293,0.19-0.459,0.19s-0.333-0.063-0.459-0.19
	c-0.254-0.254-0.254-0.666,0-0.919l4.979-4.978c0.254-0.254,0.665-0.254,0.919,0S-221.847-216.572-222.101-216.318z
	 M-217.578-221.762c0.127,0.127,0.293,0.19,0.459,0.19s0.333-0.063,0.459-0.19l4.979-4.978c0.254-0.253,0.254-0.665,0-0.919
	s-0.665-0.254-0.919,0l-4.979,4.978C-217.832-222.427-217.832-222.016-217.578-221.762z M-223.02-221.762
	c0.127,0.127,0.293,0.19,0.459,0.19s0.333-0.063,0.459-0.19c0.254-0.254,0.254-0.665,0-0.919l-4.979-4.978
	c-0.254-0.254-0.665-0.254-0.919,0s-0.254,0.666,0,0.919L-223.02-221.762z M-216.659-217.237c-0.254-0.254-0.665-0.254-0.919,0
	s-0.254,0.665,0,0.919l4.979,4.978c0.127,0.127,0.293,0.19,0.459,0.19s0.333-0.063,0.459-0.19c0.254-0.254,0.254-0.666,0-0.919
	L-216.659-217.237z M-210.608-218.85h-3.884l4.673,4.674c0.254,0.254,0.254,0.665,0,0.919c-0.127,0.127-0.293,0.19-0.459,0.19
	s-0.333-0.063-0.459-0.19l-5.593-5.593h-2.858v2.388l5.828,5.828c0.254,0.253,0.254,0.665,0,0.919
	c-0.127,0.127-0.293,0.19-0.459,0.19s-0.333-0.063-0.459-0.19l-4.909-4.908v4.474l3.275,3.275l-3.925,3.925l-3.925-3.925
	l3.275-3.275v-4.003l-4.438,4.438c-0.254,0.254-0.665,0.254-0.919,0s-0.254-0.666,0-0.919l5.357-5.357v-2.858h-2.388l-5.592,5.592
	c-0.127,0.127-0.293,0.19-0.459,0.19s-0.333-0.063-0.459-0.19c-0.254-0.254-0.254-0.665,0-0.919l4.672-4.673h-4.353l-3.335,3.335
	l-3.925-3.925l3.925-3.925l3.215,3.215h4.474l-4.673-4.674c-0.254-0.254-0.254-0.665,0-0.919s0.665-0.254,0.919,0l5.593,5.593h2.387
	v-2.859l-5.356-5.357c-0.254-0.254-0.254-0.665,0-0.919s0.665-0.254,0.919,0l4.438,4.437v-3.883l-3.275-3.275l3.925-3.925
	l3.925,3.925l-3.275,3.275v4.354l4.909-4.908c0.254-0.254,0.665-0.254,0.919,0s0.254,0.666,0,0.919l-5.828,5.828v2.388h2.858
	l5.593-5.593c0.254-0.254,0.665-0.254,0.919,0s0.254,0.665,0,0.919l-4.673,4.674h4.004l3.215-3.215l3.925,3.925l-3.925,3.925
	L-210.608-218.85z M-209.359-219.439l0.59,0.59l1.496,1.496l1.497-1.496l0.59-0.59l-0.71-0.71l-1.376-1.376l-1.376,1.376
	L-209.359-219.439z M-230.318-219.439l-0.71-0.71l-1.376-1.376l-1.376,1.376l-0.71,0.71l0.59,0.59l1.496,1.496l1.497-1.496
	L-230.318-219.439z M-219.189-208.311l-0.65-0.65l-0.65,0.65l-1.436,1.437l1.436,1.436l0.65,0.65l0.65-0.65l1.436-1.436
	L-219.189-208.311z M-219.189-230.569l1.436-1.436l-1.436-1.437l-0.65-0.65l-0.65,0.65l-1.436,1.437l1.436,1.436l0.65,0.65
	L-219.189-230.569z"/>
</svg>
