<?xml version="1.0" encoding="utf-8"?>
<!-- Generator: Adobe Illustrator 16.0.0, SVG Export Plug-In . SVG Version: 6.00 Build 0)  -->
<!DOCTYPE svg PUBLIC "-//W3C//DTD SVG 1.1//EN" "http://www.w3.org/Graphics/SVG/1.1/DTD/svg11.dtd">
<svg version="1.1" id="Layer_1" xmlns="http://www.w3.org/2000/svg" xmlns:xlink="http://www.w3.org/1999/xlink" x="0px" y="0px"
	 width="50px" height="50px" viewBox="-175.5 34.5 50 50" enable-background="new -175.5 34.5 50 50" xml:space="preserve">
<path style="fill:white" d="M-137.554,66.109l-4.847-2.799l5.143-1.377c0.4-0.107,0.638-0.519,0.531-0.919c-0.107-0.4-0.52-0.638-0.918-0.53
	l-5.915,1.584c0.298-0.802,0.469-1.664,0.469-2.568s-0.171-1.768-0.469-2.568l5.913,1.586c0.065,0.018,0.13,0.025,0.195,0.025
	c0.331,0,0.634-0.221,0.724-0.556c0.107-0.4-0.13-0.812-0.53-0.919l-5.14-1.379l4.842-2.796l1.478,0.853l2.227-1.285l-0.001-2.57
	l-2.225-1.286l-2.227,1.285v1.704l-4.847,2.798l1.379-5.144c0.107-0.4-0.13-0.812-0.53-0.919c-0.4-0.106-0.812,0.13-0.919,0.53
	l-1.583,5.909c-1.107-1.33-2.673-2.262-4.451-2.563l4.331-4.33c0.293-0.293,0.293-0.768,0-1.061s-0.768-0.293-1.061,0l-3.763,3.762
	v-5.59l1.475-0.852l0.001-2.571l-2.226-1.285l-2.228,1.285l0.002,2.57l1.476,0.852v5.595l-3.767-3.767
	c-0.293-0.293-0.768-0.293-1.061,0s-0.293,0.768,0,1.061l4.331,4.331c-1.778,0.303-3.343,1.233-4.451,2.564l-1.583-5.908
	c-0.107-0.4-0.518-0.637-0.918-0.53c-0.4,0.107-0.638,0.519-0.531,0.919l1.377,5.141l-4.844-2.797l0-1.704l-2.227-1.286
	l-2.226,1.286v2.57l2.226,1.285l1.478-0.853l4.844,2.797l-5.143,1.378c-0.4,0.107-0.637,0.519-0.53,0.919
	c0.09,0.335,0.393,0.556,0.724,0.556c0.064,0,0.129-0.008,0.195-0.025l5.914-1.585c-0.298,0.802-0.469,1.664-0.469,2.568
	s0.171,1.768,0.469,2.57l-5.917-1.586c-0.399-0.106-0.812,0.13-0.919,0.53c-0.107,0.4,0.13,0.812,0.53,0.919l5.144,1.378
	l-4.844,2.798l-1.476-0.853l-2.227,1.284l0.001,2.571l2.226,1.285l2.227-1.285v-1.705l4.842-2.795l-1.378,5.14
	c-0.107,0.4,0.13,0.812,0.53,0.919c0.065,0.018,0.13,0.025,0.195,0.025c0.331,0,0.634-0.221,0.724-0.556l1.584-5.912
	c1.107,1.331,2.672,2.263,4.45,2.566l-4.329,4.33c-0.293,0.293-0.293,0.768,0,1.061c0.146,0.146,0.338,0.22,0.53,0.22
	s0.384-0.073,0.53-0.22l3.766-3.768v5.598l-1.476,0.851l0.001,2.572l2.227,1.283l2.226-1.285v-2.569l-1.478-0.854v-5.593
	l3.764,3.762c0.293,0.293,0.768,0.293,1.061,0s0.293-0.768,0-1.061l-4.33-4.327c1.778-0.303,3.343-1.233,4.451-2.564l1.583,5.909
	c0.09,0.335,0.393,0.556,0.724,0.556c0.064,0,0.129-0.008,0.195-0.025c0.4-0.107,0.637-0.519,0.53-0.919l-1.378-5.142l4.847,2.799
	v1.703l2.226,1.286l2.226-1.286v-2.57l-2.226-1.285L-137.554,66.109z M-149.75,65.355c-0.247,0.031-0.496,0.053-0.75,0.053
	c-0.254,0-0.503-0.021-0.75-0.053c-1.604-0.205-3.006-1.054-3.943-2.279c-0.303-0.396-0.561-0.829-0.757-1.295
	c-0.295-0.702-0.459-1.473-0.459-2.281c0-0.808,0.164-1.578,0.458-2.28c0.196-0.466,0.454-0.898,0.757-1.295
	c0.937-1.227,2.339-2.075,3.943-2.28c0.246-0.031,0.495-0.053,0.75-0.053c0.255,0,0.504,0.021,0.75,0.053
	c1.604,0.205,3.006,1.055,3.942,2.28c0.303,0.396,0.561,0.829,0.757,1.295c0.295,0.702,0.458,1.473,0.458,2.28
	c0,0.809-0.164,1.578-0.459,2.28c-0.196,0.467-0.454,0.898-0.757,1.295C-146.744,64.302-148.146,65.15-149.75,65.355z"/>
</svg>
