<?xml version="1.0" encoding="utf-8"?>
<!-- Generator: Adobe Illustrator 16.0.0, SVG Export Plug-In . SVG Version: 6.00 Build 0)  -->
<!DOCTYPE svg PUBLIC "-//W3C//DTD SVG 1.1//EN" "http://www.w3.org/Graphics/SVG/1.1/DTD/svg11.dtd">
<svg version="1.1" id="Layer_1" xmlns="http://www.w3.org/2000/svg" xmlns:xlink="http://www.w3.org/1999/xlink" x="0px" y="0px"
	 width="50px" height="50px" viewBox="-175.5 -245.5 50 50" enable-background="new -175.5 -245.5 50 50" xml:space="preserve">
<path style="fill:white" d="M-151.15-205.578v0.078c0,0.359,0.291,0.65,0.65,0.65s0.65-0.291,0.65-0.65v-0.08l-0.651,0.651L-151.15-205.578z"/>
<polygon points="-150.501,-205.848 -151.15,-206.497 -151.15,-205.578 -150.501,-204.929 -149.85,-205.58 -149.85,-206.499 "/>
<path style="fill:white" d="M-137.935-216.575l3.925-3.925l-3.925-3.924l-3.275,3.274h-2.875l4.355-4.354c0.254-0.253,0.254-0.665,0-0.919
	s-0.665-0.254-0.919,0l-5.275,5.273h-3.007l7.803-7.803c0.254-0.254,0.254-0.665,0-0.919s-0.665-0.254-0.919,0l-7.803,7.803v-3.008
	l5.273-5.275c0.254-0.254,0.254-0.666,0-0.919c-0.254-0.254-0.665-0.254-0.919,0l-4.354,4.355v-2.875l3.274-3.274l-3.925-3.925
	l-3.924,3.925l3.275,3.276v2.873l-4.354-4.355c-0.254-0.254-0.665-0.254-0.919,0c-0.254,0.253-0.254,0.665,0,0.919l5.273,5.275
	v3.008l-7.803-7.803c-0.254-0.254-0.665-0.254-0.919,0s-0.254,0.666,0,0.919l7.803,7.803h-3.008l-5.275-5.274
	c-0.254-0.254-0.665-0.254-0.919,0s-0.254,0.665,0,0.919l4.355,4.355h-2.874l-3.275-3.274l-3.925,3.924l3.925,3.925l3.275-3.275
	h2.872l-4.353,4.354c-0.254,0.254-0.254,0.665,0,0.919c0.127,0.127,0.293,0.19,0.459,0.19s0.333-0.063,0.459-0.19l5.273-5.272h3.01
	l-7.803,7.803c-0.254,0.254-0.254,0.665,0,0.919c0.127,0.127,0.293,0.19,0.459,0.19s0.333-0.063,0.459-0.19l7.803-7.803v3.008
	l-5.273,5.274c-0.254,0.254-0.254,0.665,0,0.919s0.665,0.254,0.919,0l4.354-4.354v2.873l-3.275,3.276l3.924,3.925l3.925-3.925
	l-3.274-3.274v-2.875l4.354,4.354c0.127,0.127,0.293,0.19,0.459,0.19s0.333-0.063,0.459-0.19c0.254-0.253,0.254-0.665,0-0.919
	l-5.272-5.274v-3.008l7.803,7.803c0.127,0.127,0.293,0.19,0.459,0.19s0.333-0.063,0.459-0.19c0.254-0.253,0.254-0.665,0-0.919
	l-7.803-7.803h3.007l5.275,5.273c0.127,0.127,0.293,0.19,0.459,0.19s0.333-0.063,0.459-0.19c0.254-0.254,0.254-0.666,0-0.919
	l-4.355-4.354h2.875L-137.935-216.575z M-160.979-220.5l-0.65,0.65l-1.437,1.437l-1.437-1.437l-0.65-0.65l0.65-0.65l1.437-1.436
	l1.437,1.436L-160.979-220.5z M-151.15-234.503l0.649-0.649l0.651,0.651l1.436,1.436l-1.436,1.436l-0.651,0.651l-0.649-0.649
	l-1.437-1.438L-151.15-234.503z M-149.85-205.5c0,0.359-0.291,0.65-0.65,0.65s-0.65-0.291-0.65-0.65v-0.078v-0.919l-1.437-1.438
	l1.437-1.438l0.649-0.649l0.651,0.651l1.436,1.436l-1.436,1.436v0.919V-205.5z M-140.021-220.5l0.65-0.65l1.437-1.436l1.437,1.436
	l0.65,0.65l-0.65,0.65l-1.437,1.437l-1.437-1.437L-140.021-220.5z"/>
</svg>
