<?xml version="1.0" encoding="utf-8"?>
<!-- Generator: Adobe Illustrator 16.0.0, SVG Export Plug-In . SVG Version: 6.00 Build 0)  -->
<!DOCTYPE svg PUBLIC "-//W3C//DTD SVG 1.1//EN" "http://www.w3.org/Graphics/SVG/1.1/DTD/svg11.dtd">
<svg version="1.1" id="Layer_1" xmlns="http://www.w3.org/2000/svg" xmlns:xlink="http://www.w3.org/1999/xlink" x="0px" y="0px"
	 width="50px" height="50px" viewBox="-245.5 244.5 50 50" enable-background="new -245.5 244.5 50 50" xml:space="preserve">
<path style="fill:white" d="M-205.5,269h-6.382l4.406-4.406c0.195-0.195,0.195-0.512,0-0.707s-0.512-0.195-0.707,0l-5.113,5.113h-3.098l-3.606-3.605
	v-3.387l5.317-5.318c0.195-0.195,0.195-0.512,0-0.707s-0.512-0.195-0.707,0l-4.61,4.611V254.5c0-0.276-0.224-0.5-0.5-0.5
	s-0.5,0.224-0.5,0.5v6.094l-4.61-4.611c-0.195-0.195-0.512-0.195-0.707,0s-0.195,0.512,0,0.707l5.317,5.318v3.387l-3.606,3.605
	h-3.098l-5.113-5.113c-0.195-0.195-0.512-0.195-0.707,0s-0.195,0.512,0,0.707l4.406,4.406h-6.382c-0.276,0-0.5,0.224-0.5,0.5
	s0.224,0.5,0.5,0.5h6.382l-4.406,4.406c-0.195,0.195-0.195,0.512,0,0.707c0.098,0.098,0.226,0.146,0.354,0.146
	s0.256-0.049,0.354-0.146l5.113-5.113h3.098l3.606,3.605v3.387l-5.317,5.318c-0.195,0.195-0.195,0.512,0,0.707s0.512,0.195,0.707,0
	l4.61-4.611v6.094c0,0.276,0.224,0.5,0.5,0.5s0.5-0.224,0.5-0.5v-6.094l4.61,4.611c0.098,0.098,0.226,0.146,0.354,0.146
	s0.256-0.049,0.354-0.146c0.195-0.195,0.195-0.512,0-0.707l-5.317-5.318v-3.387l3.606-3.605h3.098l5.113,5.113
	c0.098,0.098,0.226,0.146,0.354,0.146s0.256-0.049,0.354-0.146c0.195-0.195,0.195-0.512,0-0.707l-4.406-4.406h6.382
	c0.276,0,0.5-0.224,0.5-0.5S-205.224,269-205.5,269z M-221,272.191l-2.192-2.191H-221V272.191z M-221,269h-2.192l2.192-2.191V269z
	 M-220,272.191V270h2.192L-220,272.191z M-220,269v-2.191l2.192,2.191H-220z M-224.771,274.479l-4.594,4.594
	c-0.098,0.098-0.226,0.146-0.354,0.146s-0.256-0.049-0.354-0.146c-0.195-0.195-0.195-0.512,0-0.707l4.594-4.594
	c0.195-0.195,0.512-0.195,0.707,0S-224.576,274.283-224.771,274.479z M-216.229,264.521l4.5-4.5c0.195-0.195,0.512-0.195,0.707,0
	s0.195,0.512,0,0.707l-4.5,4.5c-0.098,0.098-0.226,0.146-0.354,0.146s-0.256-0.049-0.354-0.146
	C-216.424,265.033-216.424,264.717-216.229,264.521z M-230.069,260.732c-0.197-0.193-0.2-0.51-0.007-0.707s0.51-0.199,0.707-0.008
	l4.594,4.5c0.197,0.193,0.2,0.51,0.007,0.707c-0.098,0.101-0.227,0.15-0.357,0.15c-0.126,0-0.252-0.048-0.35-0.143L-230.069,260.732
	z M-210.928,278.365c0.195,0.195,0.195,0.512,0,0.707c-0.098,0.098-0.226,0.146-0.354,0.146s-0.256-0.049-0.354-0.146l-4.594-4.594
	c-0.195-0.195-0.195-0.512,0-0.707s0.512-0.195,0.707,0L-210.928,278.365z M-232.286,263.357c-0.195-0.195-0.195-0.512,0-0.707
	s0.512-0.195,0.707,0l4.6,4.6h2.002l2.228-2.227v-2.291l-4.805-4.806c-0.195-0.195-0.195-0.512,0-0.707s0.512-0.195,0.707,0
	l5.098,5.099v3.119l-2.813,2.812h-2.83L-232.286,263.357z M-221.75,276.682l-5.098,5.098c-0.098,0.098-0.226,0.146-0.354,0.146
	s-0.256-0.049-0.354-0.146c-0.195-0.195-0.195-0.512,0-0.707l4.805-4.805v-2.291l-2.228-2.227h-2.002l-4.6,4.6
	c-0.195,0.195-0.512,0.195-0.707,0s-0.195-0.512,0-0.707l4.893-4.893h2.83l2.813,2.812V276.682z M-208.714,275.643
	c0.195,0.195,0.195,0.512,0,0.707s-0.512,0.195-0.707,0l-4.6-4.6h-2.002l-2.228,2.227v2.291l4.805,4.806
	c0.195,0.195,0.195,0.512,0,0.707c-0.098,0.098-0.226,0.146-0.354,0.146s-0.256-0.049-0.354-0.146l-5.098-5.099v-3.119l2.813-2.812
	h2.83L-208.714,275.643z M-219.25,262.318l5.098-5.099c0.195-0.195,0.512-0.195,0.707,0s0.195,0.512,0,0.707l-4.805,4.806v2.291
	l2.228,2.227h2.002l4.6-4.6c0.195-0.195,0.512-0.195,0.707,0s0.195,0.512,0,0.707l-4.893,4.893h-2.83l-2.813-2.812V262.318z"/>
</svg>
