<?xml version="1.0" encoding="utf-8"?>
<!-- Generator: Adobe Illustrator 16.0.0, SVG Export Plug-In . SVG Version: 6.00 Build 0)  -->
<!DOCTYPE svg PUBLIC "-//W3C//DTD SVG 1.1//EN" "http://www.w3.org/Graphics/SVG/1.1/DTD/svg11.dtd">
<svg version="1.1" id="Layer_1" xmlns="http://www.w3.org/2000/svg" xmlns:xlink="http://www.w3.org/1999/xlink" x="0px" y="0px"
	 width="50px" height="50px" viewBox="-175.5 174.5 50 50" enable-background="new -175.5 174.5 50 50" xml:space="preserve">
<path style="fill:white" d="M-132.562,197.275l-2.571-0.001l-0.852,1.476h-5.596l3.767-3.766c0.293-0.293,0.293-0.768,0-1.061s-0.768-0.293-1.061,0
	l-4.827,4.826h-0.083c-0.213-1.918-1.234-3.591-2.711-4.683l0.048-0.083l6.59-1.766c0.4-0.107,0.637-0.519,0.53-0.919
	s-0.517-0.639-0.919-0.53l-5.14,1.377l2.795-4.841h1.704l1.286-2.227l-1.285-2.226l-2.571-0.001l-1.284,2.228l0.852,1.475
	l-2.797,4.845l-1.378-5.145c-0.107-0.399-0.516-0.637-0.919-0.53c-0.4,0.107-0.637,0.519-0.53,0.919l1.767,6.593l-0.043,0.076
	c-0.83-0.364-1.745-0.57-2.708-0.57c-0.962,0-1.876,0.205-2.706,0.569l-0.043-0.075l1.766-6.59c0.107-0.4-0.13-0.812-0.531-0.919
	c-0.397-0.105-0.811,0.131-0.918,0.53l-1.377,5.142l-2.797-4.844l0.852-1.477l-1.285-2.227l-2.57,0.001l-1.285,2.226l1.285,2.226
	l1.705,0.001l2.796,4.843l-5.141-1.377c-0.398-0.106-0.811,0.131-0.918,0.53c-0.107,0.4,0.13,0.812,0.531,0.919l6.59,1.766
	l0.046,0.08c-1.478,1.092-2.499,2.766-2.712,4.684h-0.084l-4.826-4.826c-0.293-0.293-0.768-0.293-1.061,0s-0.293,0.768,0,1.061
	l3.766,3.766h-5.594l-0.852-1.475l-2.57-0.002l-1.285,2.228l1.285,2.226h2.57l0.854-1.477h5.591l-3.764,3.763
	c-0.293,0.293-0.293,0.768,0,1.061c0.146,0.146,0.338,0.22,0.53,0.22s0.384-0.073,0.53-0.22l4.824-4.823h0.086
	c0.213,1.918,1.234,3.592,2.712,4.684l-0.044,0.076l-6.595,1.769c-0.4,0.107-0.637,0.519-0.53,0.919
	c0.107,0.4,0.522,0.639,0.919,0.53l5.145-1.38l-2.798,4.848l-1.704-0.001l-1.286,2.228l1.287,2.225h2.569l1.285-2.226l-0.852-1.477
	l2.795-4.843l1.379,5.139c0.09,0.335,0.393,0.556,0.724,0.556c0.064,0,0.13-0.008,0.195-0.025c0.4-0.107,0.637-0.519,0.53-0.919
	l-1.767-6.588l0.043-0.075c0.83,0.364,1.744,0.569,2.706,0.569c0.963,0,1.877-0.206,2.708-0.57l0.042,0.074l-1.766,6.591
	c-0.107,0.4,0.13,0.812,0.531,0.919c0.065,0.018,0.13,0.025,0.194,0.025c0.331,0,0.634-0.221,0.724-0.556l1.377-5.143l2.798,4.847
	l-0.852,1.476l1.285,2.227l2.57-0.001l1.285-2.226l-1.285-2.226h-1.705l-2.797-4.846l5.142,1.379c0.4,0.108,0.812-0.13,0.919-0.53
	s-0.13-0.812-0.53-0.919l-6.591-1.768l-0.046-0.079c1.478-1.092,2.499-2.765,2.711-4.683h0.087l4.822,4.824
	c0.146,0.146,0.338,0.22,0.53,0.22s0.384-0.073,0.53-0.22c0.293-0.293,0.293-0.768,0-1.061l-3.761-3.764h5.591l0.853,1.477h2.571
	l1.284-2.226L-132.562,197.275z M-145.242,199.5c0,0.257-0.04,0.503-0.076,0.75c-0.197,1.361-0.911,2.544-1.943,3.359
	c-0.393,0.311-0.82,0.575-1.291,0.765c-0.604,0.242-1.259,0.384-1.949,0.384c-0.689,0-1.344-0.142-1.947-0.384
	c-0.471-0.188-0.898-0.453-1.291-0.763c-1.033-0.816-1.747-2-1.944-3.361c-0.036-0.247-0.076-0.493-0.076-0.75
	s0.04-0.503,0.076-0.75c0.197-1.361,0.911-2.545,1.944-3.361c0.393-0.31,0.82-0.574,1.291-0.763
	c0.604-0.242,1.258-0.384,1.947-0.384c0.689,0,1.345,0.142,1.949,0.384c0.471,0.189,0.898,0.454,1.291,0.765
	c1.032,0.815,1.746,1.998,1.943,3.359C-145.282,198.997-145.242,199.243-145.242,199.5z"/>
</svg>
