<?xml version="1.0" encoding="utf-8"?>
<!-- Generator: Adobe Illustrator 16.0.0, SVG Export Plug-In . SVG Version: 6.00 Build 0)  -->
<!DOCTYPE svg PUBLIC "-//W3C//DTD SVG 1.1//EN" "http://www.w3.org/Graphics/SVG/1.1/DTD/svg11.dtd">
<svg version="1.1" id="Layer_1" xmlns="http://www.w3.org/2000/svg" xmlns:xlink="http://www.w3.org/1999/xlink" x="0px" y="0px"
	 width="50px" height="50px" viewBox="174.5 34.5 50 50" enable-background="new 174.5 34.5 50 50" xml:space="preserve">
<path style="fill:white" d="M216.144,66.318c0-0.268-0.144-0.515-0.375-0.648l-2.041-1.18c-0.232-0.135-0.518-0.135-0.75,0l-1.666,0.963l-0.905-0.522
	l1.037-0.599c0.358-0.207,0.481-0.666,0.274-1.024c-0.206-0.357-0.664-0.483-1.024-0.274l-1.787,1.031l-1.271-0.734l3.45-1.992
	c0.358-0.207,0.481-0.666,0.274-1.024c-0.207-0.357-0.664-0.483-1.024-0.274l-3.998,2.309c0.367-0.877,0.571-1.839,0.571-2.848
	c0-1.008-0.204-1.97-0.57-2.847l3.998,2.309c0.118,0.068,0.247,0.101,0.374,0.101c0.26,0,0.512-0.135,0.65-0.375
	c0.207-0.358,0.084-0.817-0.274-1.024l-3.453-1.993l1.273-0.734l1.787,1.032c0.118,0.068,0.247,0.101,0.374,0.101
	c0.26,0,0.512-0.135,0.65-0.375c0.207-0.358,0.084-0.817-0.274-1.024l-1.037-0.6l0.902-0.521l1.666,0.962
	c0.116,0.067,0.246,0.101,0.376,0.101s0.259-0.033,0.375-0.101l2.043-1.178c0.232-0.134,0.375-0.382,0.375-0.649l-0.002-1.253
	l0.002-1.105c0-0.269-0.143-0.517-0.375-0.65l-2.043-1.178c-0.232-0.135-0.519-0.135-0.751,0l-2.038,1.177
	c-0.233,0.134-0.377,0.382-0.377,0.65v1.926l-0.903,0.521v-1.198c0-0.414-0.336-0.75-0.75-0.75s-0.75,0.336-0.75,0.75v2.064
	l-1.271,0.734v-3.985c0-0.414-0.336-0.75-0.75-0.75s-0.75,0.336-0.75,0.75v4.632c-1.173-1.536-2.929-2.6-4.938-2.858l4.005-2.312
	c0.358-0.207,0.481-0.666,0.274-1.024c-0.206-0.357-0.665-0.483-1.024-0.274l-3.452,1.992v-1.468l1.789-1.034
	c0.358-0.208,0.48-0.666,0.273-1.025c-0.208-0.357-0.662-0.482-1.025-0.273l-1.037,0.601v-1.048l1.666-0.961
	c0.232-0.134,0.375-0.382,0.375-0.649v-2.356c0-0.268-0.143-0.515-0.374-0.648l-2.042-1.18c-0.232-0.135-0.519-0.135-0.749,0
	l-2.044,1.179c-0.231,0.135-0.374,0.382-0.374,0.649v2.356c0,0.268,0.143,0.516,0.375,0.649l1.667,0.961v1.046l-1.035-0.599
	c-0.36-0.209-0.818-0.085-1.024,0.274c-0.207,0.358-0.085,0.817,0.274,1.024l1.785,1.032v1.468l-3.449-1.99
	c-0.36-0.209-0.817-0.083-1.024,0.274c-0.207,0.359-0.084,0.817,0.274,1.024l4.005,2.312c-2.01,0.257-3.766,1.321-4.939,2.857
	l-0.001-4.631c0-0.414-0.336-0.75-0.75-0.75s-0.75,0.336-0.75,0.75l0.001,3.985l-1.273-0.735v-2.063c0-0.414-0.336-0.75-0.75-0.75
	s-0.75,0.336-0.75,0.75v1.197l-0.903-0.521l0.001-0.822l-0.002-1.104c0-0.268-0.144-0.515-0.375-0.648l-2.04-1.178
	c-0.231-0.134-0.519-0.136-0.75,0l-2.042,1.178c-0.232,0.134-0.375,0.382-0.375,0.649v2.357c0,0.269,0.144,0.516,0.375,0.649
	l2.041,1.18c0.116,0.067,0.245,0.101,0.375,0.101s0.259-0.033,0.375-0.101l1.666-0.963l0.905,0.522l-1.037,0.6
	c-0.359,0.207-0.481,0.666-0.274,1.024c0.139,0.241,0.391,0.375,0.65,0.375c0.127,0,0.256-0.032,0.374-0.101l1.787-1.032
	l1.273,0.735l-3.452,1.992c-0.358,0.207-0.481,0.666-0.274,1.024c0.139,0.24,0.391,0.375,0.65,0.375
	c0.127,0,0.256-0.032,0.374-0.101l3.997-2.308c-0.366,0.877-0.57,1.838-0.57,2.846c0,1.009,0.204,1.971,0.571,2.848l-3.997-2.309
	c-0.36-0.209-0.818-0.083-1.024,0.274c-0.207,0.358-0.084,0.817,0.274,1.024l3.45,1.992l-1.271,0.734l-1.788-1.031
	c-0.359-0.209-0.818-0.083-1.024,0.274c-0.207,0.359-0.084,0.817,0.274,1.024l1.037,0.599l-0.906,0.523l-1.668-0.962
	c-0.232-0.133-0.517-0.133-0.749,0.001l-2.038,1.176c-0.232,0.134-0.376,0.381-0.376,0.649l-0.002,1.114l0.002,0.14l-0.002,1.104
	c0,0.269,0.143,0.517,0.375,0.65l2.043,1.18c0.116,0.067,0.245,0.101,0.375,0.101s0.26-0.033,0.376-0.101l2.039-1.18
	c0.232-0.134,0.375-0.382,0.375-0.649l-0.001-1.253l0.001-0.671l0.907-0.524v1.2c0,0.414,0.336,0.75,0.75,0.75s0.75-0.336,0.75-0.75
	v-2.065l1.271-0.734v3.985c0,0.414,0.336,0.75,0.75,0.75s0.75-0.336,0.75-0.75v-4.631c1.174,1.536,2.93,2.601,4.939,2.857
	l-4.005,2.312c-0.358,0.207-0.481,0.665-0.274,1.024c0.139,0.24,0.391,0.375,0.65,0.375c0.127,0,0.256-0.032,0.374-0.101l3.449-1.99
	v1.468l-1.785,1.032c-0.359,0.207-0.481,0.666-0.274,1.024c0.139,0.241,0.391,0.375,0.65,0.375c0.127,0,0.256-0.032,0.374-0.101
	l1.035-0.599v1.046l-1.667,0.961c-0.232,0.134-0.375,0.382-0.375,0.649v2.356c0,0.268,0.143,0.515,0.374,0.649l2.044,1.179
	c0.115,0.067,0.245,0.101,0.374,0.101s0.259-0.033,0.375-0.101l2.042-1.179c0.231-0.135,0.374-0.382,0.374-0.649v-2.356
	c0-0.268-0.143-0.515-0.374-0.649l-1.667-0.961v-1.048l1.037,0.601c0.363,0.208,0.817,0.085,1.025-0.273
	c0.207-0.359,0.085-0.817-0.273-1.025l-1.789-1.034v-1.468l3.452,1.992c0.359,0.209,0.818,0.083,1.024-0.274
	c0.207-0.358,0.084-0.817-0.274-1.024l-4.005-2.312c2.009-0.258,3.764-1.321,4.937-2.857v4.631c0,0.414,0.336,0.75,0.75,0.75
	s0.75-0.336,0.75-0.75v-3.985l1.272,0.734v2.065c0,0.414,0.336,0.75,0.75,0.75s0.75-0.336,0.75-0.75v-1.199l0.905,0.522v1.925
	c0,0.268,0.143,0.516,0.375,0.649l2.04,1.18c0.116,0.067,0.246,0.101,0.376,0.101s0.259-0.033,0.375-0.101l2.041-1.18
	c0.232-0.134,0.375-0.382,0.375-0.649l0.002-1.255L216.144,66.318z M212.06,51.383v-0.625l1.292-0.746l0.542,0.312l0.749,0.432
	l0.001,0.867v0.627l-1.293,0.744l-0.541-0.312l-0.75-0.434V51.383z M185.647,52.994l-1.291-0.747v-0.624v-0.867l0.749-0.433
	l0.541-0.312l1.293,0.745v0.625l-0.001,0.865l-0.75,0.434L185.647,52.994z M186.938,68.244l-1.29,0.746l-0.543-0.313l-0.749-0.433
	l0.001-0.681l-0.002-0.14v-0.046l0.001-0.624l1.291-0.746l0.541,0.312l0.75,0.433v0.866V68.244z M200.25,65.355
	c-0.246,0.031-0.495,0.053-0.75,0.053s-0.504-0.021-0.75-0.053c-1.604-0.205-3.006-1.054-3.942-2.28
	c-0.303-0.396-0.562-0.829-0.757-1.295c-0.295-0.702-0.459-1.473-0.459-2.28s0.164-1.578,0.459-2.28
	c0.195-0.466,0.454-0.898,0.757-1.295c0.937-1.227,2.338-2.075,3.942-2.28c0.246-0.031,0.495-0.053,0.75-0.053
	s0.504,0.021,0.75,0.053c1.604,0.205,3.006,1.054,3.942,2.28c0.303,0.396,0.562,0.829,0.757,1.295
	c0.295,0.702,0.459,1.473,0.459,2.28s-0.164,1.578-0.459,2.28c-0.195,0.466-0.454,0.898-0.757,1.295
	C203.256,64.302,201.854,65.15,200.25,65.355z M198.208,42.759l0.542-0.313l0.75-0.433l0.75,0.433l0.541,0.312v1.492l-0.541,0.312
	l-0.75,0.433l-0.75-0.432l-0.542-0.312V42.759z M200.791,76.241l-0.541,0.312l-0.75,0.434l-0.75-0.433l-0.542-0.313V74.75
	l0.542-0.312l0.75-0.432l0.75,0.433l0.541,0.312V76.241z M212.062,67.618v-0.196l-0.001-0.669l0.75-0.434l0.541-0.313l1.292,0.747
	v0.624l-0.001,0.867l-0.748,0.433l-0.543,0.313l-1.291-0.746L212.062,67.618z"/>
</svg>
