<?xml version="1.0" encoding="utf-8"?>
<!-- Generator: Adobe Illustrator 16.0.0, SVG Export Plug-In . SVG Version: 6.00 Build 0)  -->
<!DOCTYPE svg PUBLIC "-//W3C//DTD SVG 1.1//EN" "http://www.w3.org/Graphics/SVG/1.1/DTD/svg11.dtd">
<svg version="1.1" id="Layer_1" xmlns="http://www.w3.org/2000/svg" xmlns:xlink="http://www.w3.org/1999/xlink" x="0px" y="0px"
	 width="50px" height="50px" viewBox="-175.5 -175.5 50 50" enable-background="new -175.5 -175.5 50 50" xml:space="preserve">
<path style="fill:white" d="M-136.08-156.255l2.227-1.285v-2.57l-2.227-1.287l-2.225,1.287v1.992l-5.243,3.027l1.535-5.727
	c0.071-0.267-0.087-0.541-0.354-0.612c-0.265-0.071-0.541,0.086-0.612,0.354l-1.793,6.693l-0.114,0.066l-5.114-2.953v-0.132
	l4.898-4.897c0.195-0.195,0.195-0.512,0-0.707s-0.512-0.195-0.707,0l-4.191,4.19v-6.052l1.726-0.997v-2.571l-2.226-1.284
	l-2.226,1.284v2.571l1.726,0.997v6.052l-4.191-4.19c-0.195-0.195-0.512-0.195-0.707,0s-0.195,0.512,0,0.707l4.898,4.897v0.132
	l-5.114,2.953l-0.114-0.066l-1.793-6.693c-0.072-0.267-0.344-0.425-0.612-0.354c-0.267,0.071-0.425,0.346-0.354,0.612l1.535,5.727
	l-5.243-3.027v-1.992l-2.226-1.287l-2.226,1.287v2.57l2.226,1.285l1.727-0.996l5.239,3.025l-5.723,1.534
	c-0.267,0.071-0.425,0.346-0.354,0.612c0.06,0.224,0.262,0.371,0.482,0.371c0.043,0,0.086-0.005,0.13-0.017l6.689-1.792l0.116,0.067
	v5.905l-0.112,0.064l-6.693-1.792c-0.267-0.07-0.541,0.087-0.612,0.354c-0.071,0.267,0.087,0.541,0.354,0.612l5.728,1.534
	l-5.245,3.028l-1.725-0.997l-2.227,1.287l0.002,2.569l2.225,1.285l2.226-1.285v-1.994l5.241-3.026l-1.532,5.723
	c-0.071,0.267,0.087,0.541,0.354,0.612c0.043,0.012,0.087,0.017,0.13,0.017c0.221,0,0.423-0.147,0.482-0.371l1.791-6.689
	l0.115-0.066l5.114,2.953v0.129l-4.898,4.898c-0.195,0.195-0.195,0.512,0,0.707s0.512,0.195,0.707,0l4.191-4.191v6.056l-1.726,0.996
	v2.571l2.226,1.284l2.226-1.284v-2.571l-1.726-0.996v-6.056l4.191,4.193c0.098,0.098,0.226,0.146,0.354,0.146
	s0.256-0.049,0.354-0.146c0.195-0.195,0.195-0.512,0-0.707l-4.898-4.9v-0.129l5.114-2.953l0.115,0.066l1.791,6.689
	c0.06,0.223,0.262,0.371,0.482,0.371c0.043,0,0.086-0.005,0.13-0.017c0.267-0.071,0.425-0.345,0.354-0.612l-1.532-5.723l5.24,3.025
	v1.994l2.227,1.285l2.225-1.285l0.002-2.569l-2.227-1.287l-1.725,0.997l-5.245-3.028l5.728-1.534
	c0.267-0.071,0.425-0.346,0.354-0.612c-0.071-0.267-0.345-0.425-0.612-0.354l-6.693,1.792l-0.112-0.064v-5.905l0.116-0.067
	l6.689,1.792c0.043,0.012,0.087,0.017,0.13,0.017c0.221,0,0.422-0.147,0.482-0.371c0.071-0.267-0.087-0.541-0.354-0.612
	l-5.723-1.534l5.239-3.025L-136.08-156.255z M-145.386-148.125v0.578l-0.5,0.289l-4.114,2.376l-0.5,0.289l-0.5-0.289l-4.114-2.376
	l-0.5-0.289v-0.578v-4.75v-0.578l0.5-0.289l4.114-2.376l0.5-0.289l0.5,0.289l4.114,2.376l0.5,0.289v0.578V-148.125z"/>
</svg>
