<?xml version="1.0" encoding="utf-8"?>
<!-- Generator: Adobe Illustrator 16.0.0, SVG Export Plug-In . SVG Version: 6.00 Build 0)  -->
<!DOCTYPE svg PUBLIC "-//W3C//DTD SVG 1.1//EN" "http://www.w3.org/Graphics/SVG/1.1/DTD/svg11.dtd">
<svg version="1.1" id="Layer_1" xmlns="http://www.w3.org/2000/svg" xmlns:xlink="http://www.w3.org/1999/xlink" x="0px" y="0px"
	 width="50px" height="50px" viewBox="-35.5 -105.5 50 50" enable-background="new -35.5 -105.5 50 50" xml:space="preserve">
<g>
	<path style="fill:white" d="M6.895-81H3.658l1.094-1.896c0.138-0.239,0.056-0.545-0.183-0.683c-0.241-0.139-0.545-0.056-0.683,0.183l-1.374,2.382
		l-0.946-1.637c-0.089-0.155-0.254-0.25-0.433-0.25h-2.194c-0.179,0-0.344,0.095-0.433,0.25L-2.448-81h-1.28l-2.953-5.114
		l0.64-1.109h1.906c0.179,0,0.344-0.095,0.433-0.25l1.098-1.902c0.089-0.155,0.089-0.346,0-0.5l-0.945-1.635l2.75,0.001
		c0.276,0,0.5-0.224,0.5-0.5c0-0.276-0.224-0.5-0.5-0.5l-2.189-0.001l1.619-2.803c0.138-0.239,0.056-0.545-0.183-0.683
		c-0.24-0.139-0.544-0.057-0.683,0.183l-1.618,2.803l-1.094-1.896c-0.139-0.239-0.444-0.322-0.683-0.183
		c-0.239,0.138-0.321,0.444-0.183,0.683l1.375,2.383l-1.892,0c-0.179,0-0.344,0.095-0.433,0.25l-1.098,1.9
		c-0.089,0.154-0.089,0.345,0,0.5l0.954,1.653l-0.64,1.108h-5.905l-0.642-1.111l0.954-1.648c0.09-0.155,0.09-0.346,0-0.5l-1.1-1.902
		c-0.089-0.155-0.254-0.25-0.433-0.25l-1.885,0l1.373-2.381c0.138-0.239,0.056-0.545-0.184-0.683
		c-0.24-0.139-0.545-0.056-0.683,0.183l-1.094,1.897l-1.62-2.805c-0.139-0.24-0.445-0.321-0.683-0.183
		c-0.239,0.138-0.321,0.444-0.183,0.683l1.619,2.803H-20.2c-0.276,0-0.5,0.224-0.5,0.5s0.224,0.5,0.5,0.5h2.747l-0.944,1.637
		c-0.089,0.155-0.089,0.345,0,0.5l1.099,1.902c0.089,0.155,0.254,0.25,0.433,0.25h0l1.905-0.001l0.642,1.111L-17.271-81h-1.283
		l-0.953-1.651c-0.089-0.155-0.254-0.25-0.433-0.25h-2.194c-0.179,0-0.344,0.095-0.433,0.25l-0.945,1.639l-1.375-2.383
		c-0.139-0.24-0.445-0.321-0.683-0.183c-0.239,0.138-0.321,0.444-0.183,0.683L-24.659-81h-3.236c-0.276,0-0.5,0.224-0.5,0.5
		s0.224,0.5,0.5,0.5h3.237l-1.094,1.897c-0.138,0.239-0.056,0.545,0.183,0.683c0.079,0.045,0.165,0.067,0.25,0.067
		c0.173,0,0.341-0.09,0.434-0.25l1.375-2.383l0.943,1.636c0.089,0.155,0.254,0.25,0.433,0.25l2.195,0
		c0.179,0,0.344-0.095,0.433-0.25L-18.554-80h1.283l2.953,5.113l-0.641,1.11l-1.908,0.001c-0.178,0-0.343,0.095-0.433,0.25
		l-1.098,1.899c-0.089,0.154-0.089,0.345,0,0.5l0.945,1.637h-2.749c-0.276,0-0.5,0.224-0.5,0.5s0.224,0.5,0.5,0.5h2.189
		l-1.619,2.803c-0.138,0.239-0.056,0.545,0.183,0.683c0.079,0.045,0.165,0.067,0.25,0.067c0.173,0,0.341-0.089,0.434-0.25
		l1.619-2.805l1.096,1.897c0.093,0.161,0.261,0.25,0.434,0.25c0.085,0,0.171-0.021,0.25-0.067c0.239-0.138,0.321-0.444,0.183-0.683
		l-1.376-2.382l1.888,0.001c0,0,0,0,0,0c0.179,0,0.344-0.096,0.433-0.25l1.096-1.903c0.089-0.155,0.089-0.345,0-0.5l-0.952-1.649
		l0.641-1.11h5.905l0.641,1.11l-0.955,1.649c-0.09,0.155-0.09,0.346,0,0.5l1.099,1.903c0.089,0.155,0.254,0.25,0.433,0.25l1.889,0
		l-1.373,2.379c-0.138,0.239-0.056,0.545,0.183,0.683c0.079,0.045,0.165,0.067,0.25,0.067c0.173,0,0.341-0.09,0.434-0.25
		l1.093-1.895l1.619,2.804c0.093,0.161,0.261,0.25,0.434,0.25c0.085,0,0.171-0.021,0.25-0.067c0.239-0.138,0.321-0.444,0.183-0.683
		l-1.62-2.805h2.19c0.276,0,0.5-0.224,0.5-0.5s-0.224-0.5-0.5-0.5h-2.749l0.943-1.635c0.089-0.154,0.089-0.345,0-0.5l-1.098-1.903
		c-0.089-0.155-0.254-0.25-0.433-0.25h0l-1.904,0.002l-0.641-1.11L-3.729-80h1.282l0.952,1.649c0.089,0.155,0.254,0.25,0.433,0.25
		l2.197,0.002h0c0.179,0,0.344-0.096,0.433-0.25l0.943-1.638l1.376,2.384c0.093,0.161,0.261,0.25,0.434,0.25
		c0.085,0,0.171-0.021,0.25-0.067c0.239-0.138,0.321-0.444,0.183-0.683L3.658-80h3.237c0.276,0,0.5-0.224,0.5-0.5S7.171-81,6.895-81
		z M1.654-80.501L1.365-80l-0.519,0.9l-1.619-0.001L-1.292-80l-0.289-0.501L-1.293-81l0.521-0.902h1.617L1.366-81L1.654-80.501z
		 M-4.594-80.5L-4.883-80l-2.375,4.114l-0.289,0.5h-0.578h-4.751h-0.577l-0.289-0.5L-16.117-80l-0.289-0.5l0.289-0.5l2.376-4.114
		l0.289-0.5h0.577h4.751h0.578l0.289,0.5L-4.883-81L-4.594-80.5z M-5-91.025h0.577l0.289,0.5l0.52,0.899l-0.809,1.402h-1.04h-0.579
		l-0.288-0.5l-0.521-0.903l0.809-1.4L-5-91.025z M-16.577-88.224l-0.81-1.402l0.521-0.902l0.288-0.5H-16l1.04,0l0.811,1.402
		l-0.521,0.899l-0.29,0.5l-0.576,0L-16.577-88.224z M-19.42-80.5l-0.289,0.5l-0.521,0.901l-1.618,0L-22.366-80l-0.288-0.5l0.289-0.5
		l0.52-0.901h1.617L-19.708-81L-19.42-80.5z M-16-69.975l-0.58,0l-0.288-0.498l-0.521-0.903l0.809-1.399l1.042-0.001l0.576,0
		l0.29,0.501l0.519,0.899l-0.808,1.402L-16-69.975z M-4.424-72.777l0.809,1.402l-0.519,0.9l-0.289,0.501H-5l-1.042,0l-0.81-1.402
		l0.521-0.9l0.289-0.5l0.578,0L-4.424-72.777z"/>
	<path style="fill:white" d="M-8.413-84.114h-0.578h-3.019h-0.577l-0.289,0.5L-14.385-81l-0.289,0.5l0.289,0.5l1.51,2.614l0.289,0.5h0.577h3.019h0.578
		l0.289-0.5L-6.615-80l0.289-0.5L-6.615-81l-1.509-2.614L-8.413-84.114z M-7.481-80.5L-7.77-80l-0.932,1.614l-0.289,0.5h-0.578
		h-1.864h-0.577l-0.289-0.5L-13.23-80l-0.289-0.5l0.289-0.5l0.932-1.614l0.289-0.5h0.577h1.864h0.578l0.289,0.5L-7.77-81
		L-7.481-80.5z"/>
</g>
</svg>
