<?xml version="1.0" encoding="utf-8"?>
<!-- Generator: Adobe Illustrator 16.0.0, SVG Export Plug-In . SVG Version: 6.00 Build 0)  -->
<!DOCTYPE svg PUBLIC "-//W3C//DTD SVG 1.1//EN" "http://www.w3.org/Graphics/SVG/1.1/DTD/svg11.dtd">
<svg version="1.1" id="Layer_1" xmlns="http://www.w3.org/2000/svg" xmlns:xlink="http://www.w3.org/1999/xlink" x="0px" y="0px"
	 width="50px" height="50px" viewBox="244.5 -245.5 50 50" enable-background="new 244.5 -245.5 50 50" xml:space="preserve">
<path style="fill:white" d="M285.07-221.25l-7.891,0l-2.935-2.934l0.119-0.119h6.152c0.414,0,0.75-0.336,0.75-0.75s-0.336-0.75-0.75-0.75h-4.652
	l1.555-1.555h3.435c0.414,0,0.75-0.336,0.75-0.75s-0.336-0.75-0.75-0.75h-1.935l1.718-1.718c0.293-0.293,0.293-0.768,0-1.061
	s-0.768-0.293-1.061,0l-1.718,1.718v-1.935c0-0.414-0.336-0.75-0.75-0.75s-0.75,0.336-0.75,0.75v3.435l-1.555,1.555v-4.653
	c0-0.414-0.336-0.75-0.75-0.75s-0.75,0.336-0.75,0.75v6.153l-0.119,0.119l-2.934-2.934l-0.001-7.892c0-0.414-0.336-0.75-0.75-0.75
	s-0.75,0.336-0.75,0.75l0.001,7.89l-2.885,2.885l0.001-5.808c0-0.414-0.336-0.75-0.75-0.75s-0.75,0.336-0.75,0.75l-0.001,4.41
	l-1.547-1.547l-0.001-3.436c0-0.415-0.336-0.75-0.75-0.75s-0.75,0.336-0.75,0.75l0.001,1.935l-1.896-1.895
	c-0.293-0.293-0.768-0.293-1.061,0s-0.293,0.768,0,1.061l1.895,1.895l-1.935,0c-0.414,0-0.75,0.336-0.75,0.75s0.336,0.75,0.75,0.75
	l3.435,0l1.548,1.548h-4.41c-0.414,0-0.75,0.336-0.75,0.75s0.336,0.75,0.75,0.75h5.809l-2.885,2.884l-7.89,0
	c-0.414,0-0.75,0.336-0.75,0.75s0.336,0.75,0.75,0.75l7.892,0l2.934,2.934l-0.119,0.119h-6.152c-0.414,0-0.75,0.336-0.75,0.75
	s0.336,0.75,0.75,0.75h4.652l-1.555,1.555h-3.435c-0.414,0-0.75,0.336-0.75,0.75s0.336,0.75,0.75,0.75h1.935l-1.718,1.718
	c-0.293,0.293-0.293,0.768,0,1.061c0.146,0.146,0.338,0.22,0.53,0.22s0.384-0.073,0.53-0.22l1.718-1.718v1.935
	c0,0.414,0.336,0.75,0.75,0.75s0.75-0.336,0.75-0.75v-3.435l1.555-1.555v4.653c0,0.414,0.336,0.75,0.75,0.75s0.75-0.336,0.75-0.75
	v-6.153l0.119-0.119l2.934,2.934l0.001,7.892c0,0.414,0.336,0.75,0.75,0.75s0.75-0.336,0.75-0.75l-0.001-7.892l2.885-2.885
	l-0.001,5.81c0,0.414,0.336,0.75,0.75,0.75s0.75-0.336,0.75-0.75l0.001-4.41l1.901,1.901v3.435c0,0.414,0.336,0.75,0.75,0.75
	s0.75-0.336,0.75-0.75v-1.935l1.541,1.541c0.146,0.146,0.338,0.22,0.53,0.22s0.384-0.073,0.53-0.22c0.293-0.293,0.293-0.768,0-1.061
	l-1.541-1.541h1.935c0.414,0,0.75-0.336,0.75-0.75s-0.336-0.75-0.75-0.75h-3.435l-1.901-1.902h4.41c0.414,0,0.75-0.336,0.75-0.75
	s-0.336-0.75-0.75-0.75h-5.811l2.884-2.884l7.893,0c0.414,0,0.75-0.336,0.75-0.75S285.484-221.25,285.07-221.25z M275.808-220.501
	l-0.75,0.75l-1.874,1.874l-1.061,1.061l-1.874,1.874l-0.75,0.75l-0.75-0.75l-1.873-1.873l-1.061-1.061l-1.873-1.873l-0.751-0.751
	l0.749-0.749l1.875-1.875l1.061-1.061l1.875-1.875l0.749-0.749l0.751,0.751l1.873,1.873l1.061,1.061l1.873,1.873L275.808-220.501z"
	/>
</svg>
