<?xml version="1.0" encoding="utf-8"?>
<!-- Generator: Adobe Illustrator 16.0.0, SVG Export Plug-In . SVG Version: 6.00 Build 0)  -->
<!DOCTYPE svg PUBLIC "-//W3C//DTD SVG 1.1//EN" "http://www.w3.org/Graphics/SVG/1.1/DTD/svg11.dtd">
<svg version="1.1" id="Layer_1" xmlns="http://www.w3.org/2000/svg" xmlns:xlink="http://www.w3.org/1999/xlink" x="0px" y="0px"
	 width="50px" height="50px" viewBox="-245.5 -315.5 50 50" enable-background="new -245.5 -315.5 50 50" xml:space="preserve">
<path style="fill:white" d="M-205.5-291.25h-6.991l3.118-3.119c0.293-0.293,0.293-0.768,0-1.061s-0.768-0.293-1.061,0l-4.107,4.107v-4.389
	c0-0.414-0.336-0.75-0.75-0.75h-4.46v-0.168l4.35-4.351c0.293-0.293,0.293-0.768,0-1.061s-0.768-0.293-1.061,0l-3.29,3.29v-6.75
	c0-0.414-0.336-0.75-0.75-0.75s-0.75,0.336-0.75,0.75v6.75l-3.29-3.29c-0.293-0.293-0.768-0.293-1.061,0s-0.293,0.768,0,1.061
	l4.35,4.351v0.168h-4.461c-0.414,0-0.75,0.336-0.75,0.75v4.388l-4.106-4.106c-0.293-0.293-0.768-0.293-1.061,0s-0.293,0.768,0,1.061
	l3.118,3.119h-6.991c-0.414,0-0.75,0.336-0.75,0.75s0.336,0.75,0.75,0.75h6.991l-3.118,3.119c-0.293,0.293-0.293,0.768,0,1.061
	c0.146,0.146,0.338,0.22,0.53,0.22s0.384-0.073,0.53-0.22l4.106-4.106v4.388c0,0.414,0.336,0.75,0.75,0.75h4.461v0.168l-4.35,4.351
	c-0.293,0.293-0.293,0.768,0,1.061s0.768,0.293,1.061,0l3.29-3.29v6.75c0,0.414,0.336,0.75,0.75,0.75s0.75-0.336,0.75-0.75v-6.75
	l3.29,3.291c0.146,0.146,0.338,0.22,0.53,0.22s0.384-0.073,0.53-0.22c0.293-0.293,0.293-0.768,0-1.061l-4.35-4.351v-0.168h4.46
	c0.414,0,0.75-0.336,0.75-0.75v-4.389l4.107,4.107c0.146,0.146,0.338,0.22,0.53,0.22s0.384-0.073,0.53-0.22
	c0.293-0.293,0.293-0.768,0-1.061l-3.118-3.119h6.991c0.414,0,0.75-0.336,0.75-0.75S-205.086-291.25-205.5-291.25z M-216.04-286.039
	h-3.71h-1.5h-3.711v-3.711v-1.5v-3.711h3.711h1.5h3.71v3.711v1.5V-286.039z M-208.959-280.02c0.293,0.293,0.293,0.768,0,1.061
	c-0.146,0.146-0.338,0.22-0.53,0.22s-0.384-0.073-0.53-0.22l-2.612-2.612c-0.293-0.293-0.293-0.768,0-1.061s0.768-0.293,1.061,0
	L-208.959-280.02z M-227.955-282.632c0.293,0.293,0.293,0.768,0,1.061l-2.612,2.612c-0.146,0.146-0.338,0.22-0.53,0.22
	s-0.384-0.073-0.53-0.22c-0.293-0.293-0.293-0.768,0-1.061l2.612-2.612C-228.722-282.925-228.248-282.925-227.955-282.632z
	 M-231.627-300.288c-0.292-0.293-0.292-0.768,0-1.061c0.293-0.292,0.768-0.292,1.061,0l2.611,2.614c0.292,0.293,0.292,0.768,0,1.061
	c-0.146,0.146-0.338,0.219-0.53,0.219s-0.384-0.073-0.531-0.22L-231.627-300.288z M-212.634-297.668
	c-0.292-0.293-0.292-0.768,0-1.061l2.615-2.611c0.292-0.292,0.768-0.292,1.061,0c0.292,0.293,0.292,0.768,0,1.061l-2.615,2.611
	c-0.146,0.146-0.338,0.219-0.53,0.219S-212.487-297.521-212.634-297.668z"/>
</svg>
