<?xml version="1.0" encoding="utf-8"?>
<!-- Generator: Adobe Illustrator 16.0.0, SVG Export Plug-In . SVG Version: 6.00 Build 0)  -->
<!DOCTYPE svg PUBLIC "-//W3C//DTD SVG 1.1//EN" "http://www.w3.org/Graphics/SVG/1.1/DTD/svg11.dtd">
<svg version="1.1" id="Layer_1" xmlns="http://www.w3.org/2000/svg" xmlns:xlink="http://www.w3.org/1999/xlink" x="0px" y="0px"
	 width="50px" height="50px" viewBox="174.5 314.5 50 50" enable-background="new 174.5 314.5 50 50" xml:space="preserve">
<path style="fill:white" d="M217.506,337.244l-2.58,0.003l-1.003,1.731l-2.749,0.004l0.794-1.376c0.139-0.239,0.057-0.545-0.183-0.683
	c-0.237-0.138-0.545-0.057-0.683,0.183l-1.084,1.878l-2.048,0.003l2.19-3.794c0.139-0.239,0.057-0.545-0.183-0.683
	c-0.238-0.139-0.545-0.056-0.683,0.183l-2.48,4.295l-2.606,0.004l2.803-3.83l-4.717,0.513l1.326-2.289h4.92
	c0.276,0,0.5-0.224,0.5-0.5s-0.224-0.5-0.5-0.5H204.2l1.026-1.772h2.127c0.276,0,0.5-0.224,0.5-0.5s-0.224-0.5-0.5-0.5h-1.547
	l1.356-2.342l2.001-0.004l1.293-2.231l-1.285-2.229l-2.582,0.002l-1.291,2.234l0.998,1.728l-1.398,2.413l-0.856-1.484
	c-0.137-0.239-0.443-0.323-0.683-0.183c-0.239,0.138-0.321,0.443-0.183,0.683l1.144,1.982l-1.024,1.769l-2.248-3.893
	c-0.138-0.24-0.444-0.322-0.683-0.183c-0.239,0.138-0.321,0.443-0.183,0.683l2.534,4.392l-1.294,2.234l-1.923-4.358l-1.919,4.349
	l-1.364-2.363l2.454-4.254c0.139-0.239,0.057-0.545-0.183-0.683c-0.241-0.14-0.546-0.057-0.683,0.183l-2.167,3.754l-1.021-1.771
	l1.061-1.84c0.138-0.239,0.056-0.545-0.184-0.684c-0.24-0.137-0.545-0.056-0.684,0.184l-0.771,1.34l-1.297-2.247l1.002-1.733
	l-1.285-2.229l-2.578,0.004l-1.295,2.232l1.287,2.229l2.004-0.003l1.339,2.319l-1.716-0.001c-0.276,0-0.5,0.224-0.5,0.5
	s0.224,0.5,0.5,0.5l2.293,0.001l1.022,1.771h-4.501c-0.276,0-0.5,0.224-0.5,0.5s0.224,0.5,0.5,0.5h5.079l1.324,2.294l-4.729-0.514
	l2.812,3.843l-2.75,0.004l-2.495-4.317c-0.139-0.239-0.447-0.322-0.683-0.183c-0.239,0.138-0.321,0.443-0.183,0.683l2.207,3.819
	l-2.047,0.003l-1.101-1.909c-0.139-0.239-0.443-0.321-0.684-0.184c-0.239,0.139-0.321,0.444-0.184,0.684l0.814,1.41l-2.617,0.004
	l-0.998-1.728l-2.58,0.002l-1.293,2.233l1.287,2.229l2.58-0.004l1.004-1.732l2.62-0.004l-0.816,1.415
	c-0.139,0.239-0.057,0.545,0.183,0.683c0.079,0.046,0.165,0.067,0.25,0.067c0.172,0,0.341-0.09,0.433-0.25l1.106-1.916l2.051-0.003
	l-2.214,3.833c-0.139,0.239-0.057,0.545,0.183,0.683c0.079,0.046,0.165,0.067,0.25,0.067c0.172,0,0.341-0.09,0.433-0.25l2.504-4.335
	l2.731-0.004l-2.805,3.831l4.719-0.513l-1.349,2.328h-5.046c-0.276,0-0.5,0.224-0.5,0.5s0.224,0.5,0.5,0.5h4.466l-1.025,1.771
	h-2.255c-0.276,0-0.5,0.224-0.5,0.5s0.224,0.5,0.5,0.5h1.675l-1.335,2.305l-2,0.002l-1.293,2.234l1.287,2.227l2.578-0.004
	l1.293-2.232l-0.998-1.729l1.312-2.265l0.794,1.374c0.092,0.16,0.26,0.25,0.433,0.25c0.085,0,0.171-0.021,0.25-0.067
	c0.239-0.138,0.321-0.443,0.183-0.683l-1.081-1.873l1.024-1.768l2.186,3.783c0.092,0.16,0.261,0.25,0.433,0.25
	c0.085,0,0.171-0.021,0.25-0.067c0.239-0.138,0.321-0.443,0.183-0.683l-2.472-4.282l1.379-2.381l1.922,4.358l1.92-4.353l1.303,2.256
	l-2.54,4.399c-0.139,0.239-0.057,0.545,0.183,0.683c0.079,0.046,0.165,0.067,0.25,0.067c0.172,0,0.341-0.09,0.433-0.25l2.253-3.898
	l1.022,1.771l-1.146,1.987c-0.138,0.239-0.056,0.546,0.184,0.684c0.079,0.045,0.165,0.066,0.25,0.066c0.173,0,0.341-0.09,0.434-0.25
	l0.855-1.486l1.361,2.356l-1.006,1.733l1.287,2.229l2.58-0.006l1.291-2.23l-1.285-2.229l-2.002,0.003l-1.318-2.283l1.545,0.001
	c0.276,0,0.5-0.224,0.5-0.5s-0.224-0.5-0.5-0.5l-2.122-0.001l-1.023-1.771h4.333c0.276,0,0.5-0.224,0.5-0.5s-0.224-0.5-0.5-0.5
	h-4.91l-1.346-2.33l4.727,0.514l-2.814-3.844l2.582-0.004l2.517,4.356c0.092,0.16,0.261,0.25,0.433,0.25
	c0.085,0,0.171-0.021,0.25-0.067c0.239-0.138,0.321-0.443,0.183-0.683l-2.228-3.857l2.045-0.003l1.126,1.947
	c0.093,0.16,0.261,0.25,0.433,0.25c0.085,0,0.172-0.021,0.25-0.067c0.239-0.138,0.321-0.443,0.183-0.683l-0.838-1.449l2.786-0.004
	l1,1.729l2.58-0.004l1.293-2.231L217.506,337.244z M201.051,342.184l-0.25,0.566l-1.301,2.946l-1.301-2.951l-0.248-0.562
	l-0.622,0.067l-3.194,0.348l1.898-2.593l0.368-0.504l-0.363-0.496l-1.903-2.603l3.202,0.348l0.612,0.066l0.251-0.569l1.3-2.944
	l1.302,2.953l0.248,0.562l0.622-0.067l3.193-0.348l-1.896,2.592l-0.37,0.507l0.361,0.493l1.905,2.604l-3.198-0.348L201.051,342.184z
	"/>
</svg>
