<?xml version="1.0" encoding="utf-8"?>
<!-- Generator: Adobe Illustrator 16.0.0, SVG Export Plug-In . SVG Version: 6.00 Build 0)  -->
<!DOCTYPE svg PUBLIC "-//W3C//DTD SVG 1.1//EN" "http://www.w3.org/Graphics/SVG/1.1/DTD/svg11.dtd">
<svg version="1.1" id="Layer_1" xmlns="http://www.w3.org/2000/svg" xmlns:xlink="http://www.w3.org/1999/xlink" x="0px" y="0px"
	 width="50px" height="50px" viewBox="34.5 -315.5 50 50" enable-background="new 34.5 -315.5 50 50" xml:space="preserve">
<path style="fill:white" d="M74.5-291.25h-3.289l1.8-1.799c0.293-0.292,0.293-0.768,0-1.061c-0.292-0.292-0.767-0.293-1.061,0l-2.86,2.859h-5.381
	l-1.185-1.185h3.471c0.414,0,0.75-0.336,0.75-0.75s-0.336-0.75-0.75-0.75h-1.999l3.732-3.734c0.293-0.293,0.293-0.768,0-1.061
	c-0.293-0.293-0.768-0.293-1.061,0l-3.733,3.734v-2c0-0.414-0.336-0.75-0.75-0.75s-0.75,0.336-0.75,0.75v3.47l-1.185-1.185v-5.38
	l2.86-2.86c0.293-0.293,0.293-0.768,0-1.061s-0.768-0.293-1.061,0l-1.8,1.8v-3.289c0-0.414-0.336-0.75-0.75-0.75
	s-0.75,0.336-0.75,0.75v3.289l-1.799-1.799c-0.293-0.293-0.768-0.293-1.061,0c-0.293,0.292-0.293,0.768,0,1.061l2.859,2.86v5.38
	l-1.084,1.084v-3.126c0-0.414-0.336-0.75-0.75-0.75s-0.75,0.336-0.75,0.75v1.858l-3.834-3.835c-0.293-0.293-0.768-0.293-1.061,0
	c-0.293,0.292-0.293,0.768,0,1.061l3.833,3.834h-1.856c-0.414,0-0.75,0.336-0.75,0.75s0.336,0.75,0.75,0.75h3.127l-1.084,1.084
	H49.91l-2.86-2.86c-0.293-0.293-0.768-0.293-1.061,0s-0.293,0.768,0,1.061l1.8,1.8H44.5c-0.414,0-0.75,0.336-0.75,0.75
	s0.336,0.75,0.75,0.75h3.289l-1.8,1.799c-0.293,0.292-0.293,0.768,0,1.061c0.146,0.146,0.338,0.22,0.53,0.22
	c0.191,0,0.384-0.073,0.53-0.22l2.86-2.859h5.381l1.185,1.185h-3.471c-0.414,0-0.75,0.336-0.75,0.75s0.336,0.75,0.75,0.75h1.999
	l-3.732,3.733c-0.293,0.293-0.293,0.768,0,1.061c0.146,0.146,0.338,0.22,0.53,0.22s0.384-0.073,0.53-0.22l3.733-3.734v2.001
	c0,0.414,0.336,0.75,0.75,0.75s0.75-0.336,0.75-0.75v-3.471l1.185,1.185v5.38l-2.86,2.86c-0.293,0.293-0.293,0.768,0,1.061
	s0.768,0.293,1.061,0l1.8-1.8v3.289c0,0.414,0.336,0.75,0.75,0.75s0.75-0.336,0.75-0.75v-3.289l1.799,1.799
	c0.146,0.146,0.338,0.22,0.53,0.22s0.384-0.073,0.53-0.22c0.293-0.292,0.293-0.768,0-1.061l-2.859-2.86v-5.38l1.084-1.084v3.126
	c0,0.414,0.336,0.75,0.75,0.75s0.75-0.336,0.75-0.75v-1.858l3.834,3.835c0.146,0.146,0.338,0.22,0.53,0.22s0.384-0.073,0.53-0.22
	c0.293-0.292,0.293-0.768,0-1.061l-3.833-3.834h1.856c0.414,0,0.75-0.336,0.75-0.75s-0.336-0.75-0.75-0.75h-3.127l1.084-1.084h5.381
	l2.86,2.86c0.146,0.146,0.338,0.22,0.53,0.22s0.384-0.073,0.53-0.22c0.293-0.293,0.293-0.768,0-1.061l-1.8-1.8H74.5
	c0.414,0,0.75-0.336,0.75-0.75S74.914-291.25,74.5-291.25z M61.588-289.75l-1.338,1.338l-0.75,0.75l-0.75-0.75l-1.338-1.338
	l-0.75-0.75l0.75-0.75l1.338-1.338l0.75-0.75l0.75,0.75l1.338,1.338l0.75,0.75L61.588-289.75z"/>
</svg>
