<?xml version="1.0" encoding="utf-8"?>
<!-- Generator: Adobe Illustrator 16.0.0, SVG Export Plug-In . SVG Version: 6.00 Build 0)  -->
<!DOCTYPE svg PUBLIC "-//W3C//DTD SVG 1.1//EN" "http://www.w3.org/Graphics/SVG/1.1/DTD/svg11.dtd">
<svg version="1.1" id="Layer_1" xmlns="http://www.w3.org/2000/svg" xmlns:xlink="http://www.w3.org/1999/xlink" x="0px" y="0px"
	 width="50px" height="50px" viewBox="314.5 -175.5 50 50" enable-background="new 314.5 -175.5 50 50" xml:space="preserve">
<path style="fill:white" d="M331.074-159.907c0-0.276,0.224-0.5,0.5-0.5l2.208,0.001l1.103-1.913c0.138-0.24,0.443-0.323,0.684-0.184
	c0.239,0.138,0.321,0.444,0.184,0.683l-1.392,2.414l-2.786-0.001C331.298-159.407,331.074-159.631,331.074-159.907z
	 M347.428-141.594l-2.785-0.001l-1.392,2.412c-0.138,0.239-0.056,0.545,0.184,0.683c0.079,0.045,0.165,0.067,0.25,0.067
	c0.173,0,0.341-0.09,0.434-0.25l1.103-1.912l2.207,0.001c0.276,0,0.5-0.224,0.5-0.5C347.928-141.37,347.704-141.594,347.428-141.594
	z M344.642-159.405h2.786c0.276,0,0.5-0.224,0.5-0.5s-0.224-0.5-0.5-0.5h-2.208l-1.105-1.913c-0.138-0.24-0.444-0.321-0.683-0.183
	c-0.239,0.138-0.321,0.444-0.183,0.683L344.642-159.405z M334.359-141.594h-2.787c-0.276,0-0.5,0.224-0.5,0.5s0.224,0.5,0.5,0.5
	h2.209l1.105,1.912c0.093,0.161,0.261,0.25,0.433,0.25c0.085,0,0.171-0.021,0.25-0.067c0.239-0.138,0.321-0.444,0.183-0.683
	L334.359-141.594z M327.141-147.904c0.079,0.045,0.165,0.067,0.25,0.067c0.173,0,0.341-0.09,0.434-0.25l1.391-2.412l-1.394-2.413
	c-0.137-0.24-0.444-0.321-0.683-0.183c-0.239,0.138-0.321,0.444-0.183,0.683l1.104,1.913l-1.104,1.912
	C326.819-148.348,326.901-148.042,327.141-147.904z M351.859-153.095c-0.239-0.137-0.546-0.056-0.683,0.183l-1.393,2.412
	l1.394,2.413c0.092,0.161,0.261,0.25,0.433,0.25c0.085,0,0.171-0.021,0.25-0.067c0.239-0.138,0.321-0.444,0.183-0.683l-1.104-1.913
	l1.104-1.912C352.181-152.651,352.099-152.957,351.859-153.095z M354.997-141.553c-0.092,0.16-0.261,0.25-0.433,0.25
	c-0.085,0-0.171-0.021-0.25-0.067l-0.98-0.566l-2.137,1.232c-0.077,0.044-0.164,0.067-0.25,0.067s-0.173-0.022-0.25-0.067
	l-2.384-1.376c-0.154-0.089-0.25-0.254-0.25-0.433v-0.854h-4.442l-2.225,3.85l0.738,0.426c0.154,0.089,0.25,0.254,0.25,0.433
	l0.001,2.754c0,0.179-0.096,0.344-0.25,0.433L340-134.24v1.134c0,0.276-0.224,0.5-0.5,0.5s-0.5-0.224-0.5-0.5v-1.135l-2.136-1.231
	c-0.154-0.089-0.25-0.254-0.25-0.433l0.001-2.753c0-0.179,0.096-0.344,0.25-0.433l0.738-0.426l-2.223-3.848l-4.442-0.001
	l0.001,0.851c0,0.179-0.095,0.344-0.25,0.434l-2.387,1.378c-0.077,0.044-0.164,0.067-0.25,0.067s-0.173-0.022-0.25-0.067
	l-2.136-1.233l-0.983,0.568c-0.079,0.045-0.165,0.067-0.25,0.067c-0.172,0-0.341-0.089-0.433-0.25
	c-0.139-0.239-0.057-0.545,0.183-0.683l0.983-0.568l0.001-2.464c0-0.179,0.096-0.344,0.25-0.433l2.387-1.378
	c0.154-0.089,0.346-0.089,0.5,0l0.737,0.426l2.221-3.848l-2.222-3.849l-0.738,0.426c-0.077,0.044-0.164,0.067-0.25,0.067
	s-0.173-0.022-0.25-0.067l-2.385-1.377c-0.155-0.089-0.25-0.255-0.25-0.434l0.002-2.464l-0.984-0.568
	c-0.239-0.138-0.321-0.444-0.183-0.683c0.138-0.239,0.444-0.319,0.683-0.183l0.984,0.568l2.133-1.233c0.153-0.089,0.345-0.09,0.5,0
	l2.386,1.379c0.155,0.089,0.25,0.255,0.25,0.433v0.85h4.443l2.222-3.846l-0.74-0.427c-0.154-0.089-0.25-0.254-0.25-0.434
	l0.002-2.755c0-0.178,0.096-0.343,0.25-0.433l2.135-1.233v-1.133c0-0.276,0.224-0.5,0.5-0.5s0.5,0.224,0.5,0.5v1.135l2.135,1.231
	c0.154,0.089,0.25,0.254,0.25,0.434l-0.002,2.755c0,0.178-0.096,0.343-0.25,0.433l-0.735,0.425l2.224,3.849h4.44l-0.001-0.851
	c0-0.179,0.095-0.344,0.25-0.434l2.387-1.378c0.154-0.089,0.346-0.089,0.5,0l2.136,1.233l0.983-0.568
	c0.238-0.138,0.545-0.057,0.683,0.183c0.139,0.239,0.057,0.545-0.183,0.683l-0.984,0.568v2.464c0,0.179-0.096,0.344-0.25,0.433
	l-2.387,1.378c-0.077,0.044-0.164,0.067-0.25,0.067c-0.087,0-0.173-0.022-0.25-0.067l-0.736-0.426l-2.222,3.849l2.223,3.849
	l0.735-0.424c0.154-0.089,0.344-0.089,0.5,0l2.388,1.375c0.154,0.089,0.25,0.254,0.25,0.434l-0.002,2.462l0.983,0.568
	C355.054-142.098,355.136-141.792,354.997-141.553z M349.061-158.197l0.001,0.847v0.432l0.001,0.32v0.577l0.5,0.289l0.28,0.162
	l0.369,0.213l0.733,0.424l1.887-1.089v-1.599v-0.578l-0.499-0.289l-1.386-0.8L349.061-158.197z M340.532-160.983L340-160.676v3.404
	l5.113,2.954l2.949-1.702l-0.001-0.613h-5.019L340.532-160.983z M344.613-152.875v-0.578l-0.5-0.289L340-156.117l-0.5-0.289
	l-0.5,0.289l-4.113,2.376l-0.5,0.289v0.578l-0.001,4.75v0.578l0.5,0.289l4.114,2.376l0.5,0.289l0.5-0.289l4.114-2.376l0.501-0.289
	v-0.577L344.613-152.875z M337.613-162.629l0.737,0.425l0.371,0.214l0.278,0.16l0.5,0.288l0.5-0.289l0.281-0.163l0.367-0.212
	l0.734-0.424l0.002-2.178L340-165.605l-0.502-0.289L339-165.607l-1.385,0.8L337.613-162.629z M330.938-156.021l2.949,1.703
	l5.113-2.954v-3.403l-0.531-0.306l-2.509,4.347h-5.022V-156.021z M329.438-155.731l0.499-0.289v-0.578v-0.326l0.001-0.422v-0.85
	l-1.886-1.09l-1.384,0.8l-0.499,0.289v0.578l-0.002,1.599l1.885,1.088l0.735-0.425l0.371-0.214L329.438-155.731z M329.939-142.803
	l-0.001-0.85v-0.426l-0.001-0.323v-0.577l-0.5-0.289l-0.293-0.169l-0.355-0.205l-0.734-0.424l-1.887,1.089l-0.001,1.598v0.578
	l0.5,0.289l1.386,0.8L329.939-142.803z M333.386-147.547l0.001-5.905l-2.948-1.702l-0.532,0.307l2.511,4.348l-2.51,4.348l0.53,0.306
	L333.386-147.547z M338.47-140.017l0.53-0.306v-3.405l-5.114-2.954l-2.948,1.702l0.001,0.613l5.021,0.001L338.47-140.017z
	 M341.386-136.192l-0.001-2.176l-0.763-0.44l-0.339-0.196L340-139.168l-0.5-0.289l-0.5,0.289l-0.279,0.161l-0.349,0.201
	l-0.757,0.437l-0.001,2.175l1.386,0.799l0.501,0.289l0.499-0.288L341.386-136.192z M348.062-144.979l-2.948-1.702L340-143.728v3.405
	l0.531,0.307l2.512-4.35h5.02V-144.979z M348.563-145.845l0.531-0.306l-2.512-4.348l2.512-4.349l-0.531-0.307l-2.95,1.703
	l0.002,5.905L348.563-145.845z M352.833-144.978l-1.888-1.087l-0.734,0.424l-0.348,0.201l-0.3,0.173l-0.501,0.289v0.577v0.321
	l0.001,0.428v0.851l1.884,1.087l1.386-0.8l0.498-0.287l0.001-0.58L352.833-144.978z"/>
</svg>
