<?xml version="1.0" encoding="utf-8"?>
<!-- Generator: Adobe Illustrator 16.0.0, SVG Export Plug-In . SVG Version: 6.00 Build 0)  -->
<!DOCTYPE svg PUBLIC "-//W3C//DTD SVG 1.1//EN" "http://www.w3.org/Graphics/SVG/1.1/DTD/svg11.dtd">
<svg version="1.1" id="Layer_1" xmlns="http://www.w3.org/2000/svg" xmlns:xlink="http://www.w3.org/1999/xlink" x="0px" y="0px"
	 width="50px" height="50px" viewBox="-105.5 244.5 50 50" enable-background="new -105.5 244.5 50 50" xml:space="preserve">
<path style="fill:white" d="M-85.776,273.645l-3.851,3.852l-0.707-0.707l3.383-3.383l-0.851-2.106h-2.444l-2.445,2.446l-2.446-2.446H-96.3v-1h3.377
	l-0.9,0.9l1.131,1.132l2.031-2.032h3.533L-85.776,273.645z M-93.823,267.803l1.132-1.131l2.03,2.028h3.5l1.409-3.321l-3.875-3.875
	l-0.707,0.707l3.398,3.398l-0.888,2.091h-2.424l-2.444-2.442l-2.443,2.442H-96.3v1h3.374L-93.823,267.803z M-81.3,262.872v-3.533
	l-2.031-2.03l1.131-1.132l0.899,0.899V253.7h-1v1.163l-2.445,2.445l2.445,2.444v2.445l-2.105,0.85l-3.384-3.382l-0.707,0.707
	l3.852,3.851L-81.3,262.872z M-72.504,260.372l-0.707-0.707l-3.398,3.399l-2.091-0.888v-2.424l2.442-2.444l-2.442-2.443V253.7h-1
	v3.374l0.897-0.897l1.131,1.132l-2.028,2.03v3.5l3.321,1.409L-72.504,260.372z M-79.7,276.128v3.533l2.031,2.03l-1.131,1.132
	l-0.899-0.899v3.376h1v-1.163l2.445-2.445l-2.445-2.444v-2.445l2.105-0.85l3.384,3.382l0.707-0.707l-3.852-3.851L-79.7,276.128z
	 M-65.863,267.7l-2.446-2.446l-2.445,2.446h-2.444l-0.852-2.106l3.384-3.383l-0.707-0.707l-3.852,3.852l1.352,3.345h3.533
	l2.031-2.032l1.131,1.132l-0.9,0.9h3.377v-1H-65.863z M-88.496,278.627l0.707,0.707l3.397-3.396l2.092,0.887v2.423l-2.442,2.444
	l2.442,2.443v1.165h1v-3.374l-0.897,0.897l-1.131-1.132l2.028-2.03v-3.499l-3.322-1.408L-88.496,278.627z M-67.177,271.197
	l-1.132,1.131l-2.03-2.028h-3.5l-1.409,3.321l3.875,3.875l0.707-0.707l-3.398-3.398l0.888-2.091h2.424l2.444,2.442l2.443-2.442
	h1.165v-1h-3.374L-67.177,271.197z M-76.824,273.239l-3.722,1.504l-3.695-1.566l-1.503-3.722l1.567-3.694l3.722-1.504l3.693,1.566
	l1.504,3.722L-76.824,273.239z M-77.583,272.468l1.244-2.933l-1.194-2.952l-2.932-1.244l-2.954,1.193l-1.244,2.933l1.193,2.952
	l2.932,1.244L-77.583,272.468z"/>
</svg>
