<?xml version="1.0" encoding="utf-8"?>
<!-- Generator: Adobe Illustrator 16.0.0, SVG Export Plug-In . SVG Version: 6.00 Build 0)  -->
<!DOCTYPE svg PUBLIC "-//W3C//DTD SVG 1.1//EN" "http://www.w3.org/Graphics/SVG/1.1/DTD/svg11.dtd">
<svg version="1.1" id="Layer_1" xmlns="http://www.w3.org/2000/svg" xmlns:xlink="http://www.w3.org/1999/xlink" x="0px" y="0px"
	 width="50px" height="50px" viewBox="104.5 104.5 50 50" enable-background="new 104.5 104.5 50 50" xml:space="preserve">
<path style="fill:white" d="M137.503,125.458l3.106-1.794l1.437,0.829l1.937-1.117v-2.236l-1.937-1.119l-1.937,1.119v1.659l-3.104,1.792L130,120.55
	v-3.588l1.437-0.83v-2.236l-1.937-1.117l-1.937,1.117v2.236l1.437,0.83v3.588l-7.006,4.041l-3.104-1.792v-1.659l-1.937-1.119
	l-1.937,1.119v2.236l1.937,1.117l1.437-0.829l3.106,1.794v8.086l-3.105,1.793l-1.437-0.83l-1.938,1.119l0.002,2.236l1.936,1.117
	l1.937-1.117v-1.66l3.106-1.794l7.002,4.043v3.588l-1.437,0.829v2.236l1.937,1.117l1.937-1.117v-2.236L130,142.039v-3.588
	l7.002-4.043l3.106,1.794v1.66l1.937,1.117l1.936-1.117l0.002-2.236l-1.938-1.119l-1.437,0.83l-3.105-1.793V125.458z
	 M136.503,132.967l-6.004-3.466l6.004-3.466V132.967z M136.005,125.169L130,128.636v-6.932L136.005,125.169z M129,121.704v6.932
	l-6.005-3.467L129,121.704z M122.497,126.035l6.004,3.466l-6.004,3.466V126.035z M122.997,133.832l6.003-3.466v6.931
	L122.997,133.832z M130,137.297v-6.931l6.003,3.466L130,137.297z"/>
</svg>
