<?xml version="1.0" encoding="utf-8"?>
<!-- Generator: Adobe Illustrator 16.0.0, SVG Export Plug-In . SVG Version: 6.00 Build 0)  -->
<!DOCTYPE svg PUBLIC "-//W3C//DTD SVG 1.1//EN" "http://www.w3.org/Graphics/SVG/1.1/DTD/svg11.dtd">
<svg version="1.1" id="Layer_1" xmlns="http://www.w3.org/2000/svg" xmlns:xlink="http://www.w3.org/1999/xlink" x="0px" y="0px"
	 width="50px" height="50px" viewBox="-245.5 -315.5 50 50" enable-background="new -245.5 -315.5 50 50" xml:space="preserve">
<path style="fill:white" d="M-204.75-290.5c0,0.414-0.336,0.75-0.75,0.75h-5.778l3.979,3.979c0.293,0.293,0.293,0.768,0,1.061
	c-0.146,0.146-0.338,0.22-0.53,0.22s-0.384-0.073-0.53-0.22l-5.039-5.04h-5.291l7.632,7.632c0.293,0.293,0.293,0.768,0,1.061
	c-0.146,0.146-0.338,0.22-0.53,0.22s-0.384-0.073-0.53-0.22l-7.632-7.632v5.578l5.244,5.246c0.293,0.293,0.293,0.768,0,1.061
	c-0.146,0.146-0.338,0.22-0.53,0.22s-0.384-0.073-0.53-0.22l-4.184-4.185v5.49c0,0.414-0.336,0.75-0.75,0.75s-0.75-0.336-0.75-0.75
	v-5.491l-4.184,4.185c-0.293,0.293-0.768,0.293-1.061,0s-0.293-0.768,0-1.061l5.244-5.245v-5.578l-7.632,7.632
	c-0.146,0.146-0.338,0.22-0.53,0.22s-0.384-0.073-0.53-0.22c-0.293-0.293-0.293-0.768,0-1.061l7.632-7.632h-5.291l-5.039,5.04
	c-0.146,0.146-0.338,0.22-0.53,0.22s-0.384-0.073-0.53-0.22c-0.293-0.293-0.293-0.768,0-1.061l3.979-3.979h-5.778
	c-0.414,0-0.75-0.336-0.75-0.75s0.336-0.75,0.75-0.75h5.778l-3.979-3.979c-0.293-0.293-0.293-0.768,0-1.061s0.768-0.293,1.061,0
	l5.039,5.04h5.291l-7.632-7.632c-0.293-0.293-0.293-0.768,0-1.061s0.768-0.293,1.061,0l7.632,7.632v-5.579l-5.244-5.245
	c-0.293-0.293-0.293-0.768,0-1.061s0.768-0.293,1.061,0l4.184,4.184v-5.49c0-0.414,0.336-0.75,0.75-0.75s0.75,0.336,0.75,0.75v5.49
	l4.184-4.184c0.293-0.293,0.768-0.293,1.061,0s0.293,0.768,0,1.061l-5.244,5.245v5.579l7.632-7.632c0.293-0.293,0.768-0.293,1.061,0
	s0.293,0.768,0,1.061l-7.632,7.632h5.291l5.039-5.04c0.293-0.293,0.768-0.293,1.061,0s0.293,0.768,0,1.061l-3.979,3.979h5.778
	C-205.086-291.25-204.75-290.914-204.75-290.5z"/>
</svg>
