<?xml version="1.0" encoding="utf-8"?>
<!-- Generator: Adobe Illustrator 16.0.0, SVG Export Plug-In . SVG Version: 6.00 Build 0)  -->
<!DOCTYPE svg PUBLIC "-//W3C//DTD SVG 1.1//EN" "http://www.w3.org/Graphics/SVG/1.1/DTD/svg11.dtd">
<svg version="1.1" id="Layer_1" xmlns="http://www.w3.org/2000/svg" xmlns:xlink="http://www.w3.org/1999/xlink" x="0px" y="0px"
	 width="50px" height="50px" viewBox="34.5 314.5 50 50" enable-background="new 34.5 314.5 50 50" xml:space="preserve">
<path style="fill:white" d="M67.225,343.671l7.34-1.965c0.134-0.035,0.213-0.173,0.177-0.306c-0.035-0.134-0.174-0.213-0.306-0.177l-7.823,2.094
	l-2.16-1.247v-5.141l2.16-1.247l7.823,2.096c0.021,0.006,0.043,0.009,0.064,0.009c0.11,0,0.212-0.073,0.241-0.186
	c0.036-0.133-0.043-0.271-0.177-0.306l-7.339-1.968l6.962-4.02c0.119-0.069,0.16-0.223,0.092-0.342
	c-0.071-0.121-0.225-0.16-0.342-0.092l-6.961,4.02l1.966-7.338c0.036-0.133-0.043-0.271-0.177-0.306
	c-0.13-0.034-0.271,0.043-0.306,0.177l-2.097,7.82l-2.161,1.248l-4.452-2.57v-2.494l5.726-5.728c0.098-0.098,0.098-0.256,0-0.354
	s-0.256-0.098-0.354,0l-5.372,5.374v-8.039c0-0.138-0.112-0.25-0.25-0.25s-0.25,0.112-0.25,0.25v8.039l-5.372-5.374
	c-0.098-0.098-0.256-0.098-0.354,0s-0.098,0.256,0,0.354l5.726,5.728v2.494l-4.452,2.57l-2.161-1.248l-2.097-7.82
	c-0.035-0.134-0.173-0.212-0.306-0.177c-0.134,0.035-0.213,0.173-0.177,0.306l1.966,7.338l-6.961-4.02
	c-0.117-0.068-0.272-0.029-0.342,0.092c-0.068,0.119-0.027,0.272,0.092,0.342l6.962,4.02l-7.339,1.968
	c-0.134,0.035-0.213,0.173-0.177,0.306c0.029,0.112,0.131,0.186,0.241,0.186c0.021,0,0.043-0.003,0.064-0.009l7.823-2.096
	l2.16,1.247v5.141l-2.16,1.247l-7.823-2.094c-0.13-0.035-0.271,0.043-0.306,0.177c-0.036,0.133,0.043,0.271,0.177,0.306l7.34,1.965
	l-6.963,4.021c-0.119,0.069-0.16,0.223-0.092,0.342c0.047,0.08,0.131,0.125,0.217,0.125c0.043,0,0.086-0.011,0.125-0.033l6.962-4.02
	l-1.966,7.338c-0.036,0.133,0.043,0.271,0.177,0.306c0.021,0.006,0.043,0.009,0.064,0.009c0.11,0,0.212-0.073,0.241-0.186
	l2.097-7.821l2.16-1.247l4.452,2.57v2.494l-5.726,5.728c-0.098,0.098-0.098,0.256,0,0.354s0.256,0.098,0.354,0l5.372-5.374v8.039
	c0,0.138,0.112,0.25,0.25,0.25s0.25-0.112,0.25-0.25v-8.039l5.372,5.374c0.049,0.049,0.112,0.073,0.177,0.073
	s0.128-0.024,0.177-0.073c0.098-0.098,0.098-0.256,0-0.354l-5.726-5.728v-2.494l4.452-2.57l2.16,1.247l2.097,7.821
	c0.029,0.112,0.131,0.186,0.241,0.186c0.021,0,0.043-0.003,0.064-0.009c0.134-0.035,0.213-0.173,0.177-0.306l-1.966-7.338
	l6.962,4.02c0.039,0.022,0.082,0.033,0.125,0.033c0.086,0,0.17-0.045,0.217-0.125c0.068-0.119,0.027-0.272-0.092-0.342
	L67.225,343.671z M63.952,341.781l-0.75-0.433v-3.697l0.75-0.433V341.781z M59.75,336.524l2.202,1.271l-2.202,1.271V336.524z
	 M59.25,339.066l-2.202-1.271l2.202-1.271V339.066z M59,339.5l-2.202,1.271v-2.543L59,339.5z M59.25,339.934v2.542l-2.201-1.271
	L59.25,339.934z M59.75,339.934l2.201,1.271l-2.201,1.271V339.934z M60,339.5l2.202-1.271v2.543L60,339.5z M63.701,336.785
	l-0.748,0.433l-3.203-1.848v-0.866L63.701,336.785z M59.25,334.504v0.866l-3.203,1.848l-0.748-0.433L59.25,334.504z M55.048,337.219
	l0.75,0.433v3.697l-0.75,0.433V337.219z M55.299,342.215l0.751-0.434l3.2,1.849v0.866L55.299,342.215z M59.75,344.496v-0.866
	l3.2-1.849l0.751,0.434L59.75,344.496z M54.408,324.82c-0.195-0.195-0.195-0.512,0-0.707s0.512-0.195,0.707,0l2.385,2.385v-3.812
	c0-0.276,0.224-0.5,0.5-0.5s0.5,0.224,0.5,0.5v6.227L54.408,324.82z M45.255,329.543c0.138-0.239,0.444-0.32,0.683-0.183
	l3.302,1.906l-0.873-3.257c-0.071-0.268,0.087-0.541,0.354-0.613c0.271-0.066,0.541,0.088,0.613,0.354l1.498,5.591l-5.394-3.115
	C45.198,330.088,45.116,329.782,45.255,329.543z M54.797,335.63l3.703-2.136v-1.752l-5.777-5.779l-1.557,0.899l2.114,7.893
	L54.797,335.63z M52.559,327.213l4.941,4.943v0.76l-2.703,1.56l-0.657-0.379l-1.81-6.752L52.559,327.213z M64.592,324.82
	l-4.092,4.092v-6.227c0-0.276,0.224-0.5,0.5-0.5s0.5,0.224,0.5,0.5v3.812l2.385-2.385c0.195-0.195,0.512-0.195,0.707,0
	S64.787,324.625,64.592,324.82z M75.018,343.396l-3.26,0.873l3.305,1.908c0.239,0.138,0.321,0.443,0.183,0.683
	c-0.092,0.16-0.261,0.25-0.433,0.25c-0.085,0-0.171-0.021-0.25-0.067l-5.395-3.115l5.592-1.498c0.264-0.066,0.54,0.087,0.612,0.354
	C75.443,343.05,75.285,343.323,75.018,343.396z M60.5,333.494l3.703,2.136l1.517-0.875l2.114-7.893l-1.557-0.899l-5.777,5.779
	V333.494z M61.5,332.156l4.941-4.943l0.229,0.132l-1.81,6.752l-0.657,0.379l-2.703-1.56V332.156z M69.168,335.073l5.395-3.115
	c0.239-0.139,0.546-0.057,0.683,0.183c0.139,0.239,0.057,0.545-0.183,0.683l-3.305,1.908l3.26,0.873
	c0.268,0.072,0.426,0.346,0.354,0.612c-0.061,0.224-0.263,0.371-0.483,0.371c-0.043,0-0.086-0.006-0.129-0.017L69.168,335.073z
	 M68.169,333.341l1.498-5.591c0.072-0.266,0.344-0.419,0.613-0.354c0.267,0.072,0.425,0.346,0.354,0.613l-0.873,3.257l3.302-1.906
	c0.237-0.14,0.545-0.057,0.683,0.183c0.139,0.239,0.057,0.545-0.183,0.683L68.169,333.341z M73.745,349.457
	c-0.137,0.24-0.443,0.322-0.683,0.183l-3.305-1.907l0.874,3.258c0.071,0.268-0.087,0.541-0.354,0.613
	c-0.044,0.011-0.087,0.017-0.13,0.017c-0.221,0-0.423-0.147-0.483-0.37l-1.497-5.592l5.395,3.116
	C73.802,348.912,73.884,349.218,73.745,349.457z M43.982,335.604l3.26-0.873l-3.305-1.908c-0.239-0.138-0.321-0.443-0.183-0.683
	c0.138-0.239,0.444-0.32,0.683-0.183l5.395,3.115l-5.592,1.498c-0.043,0.011-0.086,0.017-0.129,0.017
	c-0.221,0-0.423-0.147-0.483-0.371C43.557,335.95,43.715,335.677,43.982,335.604z M64.592,354.18c0.195,0.195,0.195,0.512,0,0.707
	s-0.512,0.195-0.707,0l-2.385-2.386v3.813c0,0.276-0.224,0.5-0.5,0.5s-0.5-0.224-0.5-0.5v-6.228L64.592,354.18z M64.201,343.369
	l-3.701,2.137v1.752l5.778,5.779l1.556-0.899l-2.115-7.893L64.201,343.369z M66.442,351.787l-4.942-4.943v-0.76l2.701-1.561
	l0.658,0.38l1.811,6.752L66.442,351.787z M53.798,341.639v-4.277l-1.517-0.874l-7.893,2.113v1.799l7.893,2.113L53.798,341.639z
	 M45.389,339.632v-0.264l6.752-1.809l0.657,0.38v3.121l-0.657,0.38L45.389,339.632z M54.408,354.18l4.092-4.095v6.229
	c0,0.276-0.224,0.5-0.5,0.5s-0.5-0.224-0.5-0.5v-3.813l-2.385,2.386c-0.195,0.195-0.512,0.195-0.707,0S54.213,354.375,54.408,354.18
	z M50.832,345.658l-1.497,5.592c-0.061,0.223-0.263,0.37-0.483,0.37c-0.043,0-0.086-0.006-0.13-0.017
	c-0.267-0.072-0.425-0.346-0.354-0.613l0.874-3.258l-3.305,1.907c-0.239,0.139-0.546,0.057-0.683-0.183
	c-0.139-0.239-0.057-0.545,0.183-0.683L50.832,345.658z M49.832,343.927l-5.395,3.115c-0.079,0.046-0.165,0.067-0.25,0.067
	c-0.172,0-0.341-0.09-0.433-0.25c-0.139-0.239-0.057-0.545,0.183-0.683l3.305-1.908l-3.26-0.873
	c-0.268-0.072-0.426-0.346-0.354-0.612c0.072-0.267,0.352-0.42,0.612-0.354L49.832,343.927z M65.202,337.361v4.277l1.517,0.874
	l7.893-2.113v-1.799l-7.893-2.113L65.202,337.361z M73.611,339.368v0.264l-6.752,1.809l-0.657-0.38v-3.121l0.657-0.38
	L73.611,339.368z M58.5,345.506l-3.701-2.137l-1.518,0.876l-2.115,7.893l1.557,0.899l5.777-5.779V345.506z M57.5,346.844
	l-4.941,4.943l-0.229-0.132l1.811-6.752l0.658-0.38l2.701,1.561V346.844z"/>
</svg>
