<?xml version="1.0" encoding="utf-8"?>
<!-- Generator: Adobe Illustrator 16.0.0, SVG Export Plug-In . SVG Version: 6.00 Build 0)  -->
<!DOCTYPE svg PUBLIC "-//W3C//DTD SVG 1.1//EN" "http://www.w3.org/Graphics/SVG/1.1/DTD/svg11.dtd">
<svg version="1.1" id="Layer_1" xmlns="http://www.w3.org/2000/svg" xmlns:xlink="http://www.w3.org/1999/xlink" x="0px" y="0px"
	 width="50px" height="50px" viewBox="-245.5 -175.5 50 50" enable-background="new -245.5 -175.5 50 50" xml:space="preserve">
<path style="fill:white" d="M-204.04-143.426c-0.189-0.668-0.628-1.222-1.234-1.559c-1.125-0.629-2.613-0.259-3.361,0.757l-4.414-2.548l5.728-1.534
	c0.267-0.071,0.425-0.346,0.354-0.612c-0.071-0.267-0.345-0.425-0.612-0.354l-6.693,1.792l-0.112-0.064v-5.905l0.116-0.067
	l6.689,1.792c0.043,0.012,0.087,0.017,0.13,0.017c0.221,0,0.422-0.147,0.482-0.371c0.071-0.267-0.087-0.541-0.354-0.612
	l-5.723-1.534l4.417-2.55c0.485,0.67,1.251,1.092,2.092,1.092c0.44,0,0.876-0.114,1.263-0.329c1.251-0.698,1.702-2.284,1.004-3.536
	c-0.672-1.206-2.319-1.683-3.535-1.004c-1.038,0.579-1.513,1.768-1.251,2.87l-4.491,2.593l1.535-5.727
	c0.071-0.267-0.087-0.541-0.354-0.612c-0.265-0.071-0.541,0.086-0.612,0.354l-1.793,6.693l-0.114,0.066l-5.114-2.953v-0.132
	l4.898-4.897c0.195-0.195,0.195-0.512,0-0.707s-0.512-0.195-0.707,0l-4.191,4.19v-5.118c1.195-0.234,2.1-1.287,2.1-2.549
	c0-1.433-1.166-2.599-2.599-2.599s-2.599,1.166-2.599,2.599c0,1.262,0.904,2.314,2.098,2.548v5.118l-4.191-4.19
	c-0.195-0.195-0.512-0.195-0.707,0s-0.195,0.512,0,0.707l4.898,4.897v0.132l-5.114,2.953l-0.114-0.066l-1.793-6.693
	c-0.072-0.267-0.344-0.425-0.612-0.354c-0.267,0.071-0.425,0.346-0.354,0.612l1.535,5.727l-4.491-2.593
	c0.262-1.103-0.214-2.291-1.252-2.871c-1.216-0.676-2.863-0.201-3.535,1.005c-0.697,1.251-0.247,2.837,1.005,3.536
	c0.386,0.215,0.822,0.329,1.262,0.329c0.841,0,1.607-0.421,2.092-1.092l4.417,2.55l-5.723,1.534
	c-0.267,0.071-0.425,0.346-0.354,0.612c0.06,0.224,0.262,0.371,0.482,0.371c0.043,0,0.086-0.005,0.13-0.017l6.689-1.792l0.116,0.067
	v5.905l-0.112,0.064l-6.693-1.792c-0.267-0.07-0.541,0.087-0.612,0.354c-0.071,0.267,0.087,0.541,0.354,0.612l5.728,1.534
	l-4.421,2.552c-0.485-0.67-1.25-1.091-2.09-1.091c-0.44,0-0.877,0.114-1.264,0.329c-0.606,0.338-1.045,0.892-1.234,1.56
	c-0.189,0.667-0.108,1.369,0.23,1.976c0.458,0.822,1.329,1.333,2.272,1.333c0.44,0,0.876-0.113,1.263-0.329
	c0.606-0.338,1.044-0.892,1.234-1.561c0.124-0.435,0.12-0.882,0.018-1.31l4.489-2.592l-1.532,5.723
	c-0.071,0.267,0.087,0.541,0.354,0.612c0.043,0.012,0.087,0.017,0.13,0.017c0.221,0,0.423-0.147,0.482-0.371l1.791-6.689
	l0.115-0.066l5.114,2.953v0.129l-4.898,4.898c-0.195,0.195-0.195,0.512,0,0.707s0.512,0.195,0.707,0l4.191-4.191v5.12
	c-1.195,0.234-2.1,1.287-2.1,2.549c0,1.433,1.166,2.599,2.599,2.599s2.599-1.166,2.599-2.599c0-1.262-0.904-2.314-2.098-2.548
	v-5.121l4.191,4.193c0.098,0.098,0.226,0.146,0.354,0.146s0.256-0.049,0.354-0.146c0.195-0.195,0.195-0.512,0-0.707l-4.898-4.9
	v-0.129l5.114-2.953l0.115,0.066l1.791,6.689c0.06,0.223,0.262,0.371,0.482,0.371c0.043,0,0.086-0.005,0.13-0.017
	c0.267-0.071,0.425-0.345,0.354-0.612l-1.532-5.723l4.489,2.592c-0.103,0.428-0.106,0.875,0.018,1.31
	c0.19,0.668,0.628,1.223,1.235,1.561c0.386,0.215,0.823,0.328,1.263,0.328c0.943,0,1.813-0.511,2.272-1.333
	C-203.932-142.057-203.851-142.758-204.04-143.426z M-206.542-159.883c0.309,0,0.603,0.094,0.854,0.254
	c0.222,0.14,0.413,0.33,0.544,0.566c0.034,0.062,0.057,0.126,0.082,0.189c0.292,0.735,0.009,1.591-0.699,1.986
	c-0.238,0.132-0.506,0.203-0.776,0.203c-0.483,0-0.926-0.226-1.227-0.591c-0.061-0.074-0.125-0.145-0.172-0.23
	c-0.126-0.227-0.185-0.471-0.194-0.713c-0.022-0.583,0.269-1.159,0.812-1.462C-207.081-159.813-206.812-159.883-206.542-159.883z
	 M-233.064-157.505c-0.047,0.084-0.104,0.161-0.166,0.234c-0.477,0.563-1.347,0.753-2.009,0.385c-0.708-0.396-0.992-1.252-0.7-1.987
	c0.025-0.063,0.047-0.127,0.082-0.189c0.132-0.236,0.323-0.426,0.545-0.566c0.252-0.16,0.545-0.254,0.854-0.254
	c0.27,0,0.538,0.07,0.775,0.202c0.544,0.304,0.835,0.879,0.812,1.462C-232.879-157.976-232.938-157.732-233.064-157.505z
	 M-233.682-141.319c-0.238,0.132-0.506,0.202-0.776,0.202c-0.309,0-0.602-0.094-0.854-0.254c-0.221-0.14-0.412-0.33-0.544-0.566
	c-0.034-0.061-0.057-0.125-0.083-0.189c-0.131-0.327-0.157-0.683-0.059-1.027c0.117-0.411,0.386-0.751,0.759-0.959
	c0.238-0.133,0.506-0.203,0.777-0.203c0.483,0,0.925,0.226,1.226,0.59c0.061,0.074,0.125,0.145,0.172,0.23
	c0.124,0.222,0.185,0.466,0.195,0.713c0.006,0.167-0.006,0.336-0.053,0.502C-233.039-141.868-233.309-141.527-233.682-141.319z
	 M-220-144.883l-0.5,0.289l-0.5-0.289l-4.114-2.376l-0.5-0.289v-0.578v-4.75v-0.578l0.5-0.289l4.114-2.376l0.5-0.289l0.5,0.289
	l4.114,2.376l0.5,0.289v0.578v4.75v0.578l-0.5,0.289L-220-144.883z M-220.979-168.001c0.152-0.048,0.312-0.082,0.48-0.082
	c0.167,0,0.326,0.033,0.478,0.081c0.647,0.205,1.121,0.804,1.121,1.518c0,0.707-0.463,1.3-1.1,1.511
	c-0.158,0.053-0.324,0.088-0.499,0.088c-0.176,0-0.342-0.036-0.501-0.088c-0.636-0.211-1.098-0.805-1.098-1.511
	C-222.098-167.197-221.625-167.795-220.979-168.001z M-220.021-132.999c-0.152,0.048-0.312,0.082-0.48,0.082
	c-0.167,0-0.326-0.033-0.478-0.081c-0.647-0.205-1.121-0.804-1.121-1.518c0-0.707,0.463-1.3,1.1-1.511
	c0.158-0.053,0.324-0.088,0.499-0.088c0.176,0,0.342,0.036,0.501,0.088c0.636,0.211,1.098,0.805,1.098,1.511
	C-218.902-133.803-219.375-133.205-220.021-132.999z M-207.318-141.319c-0.373-0.208-0.643-0.549-0.76-0.96
	c-0.047-0.166-0.06-0.334-0.053-0.502c0.01-0.248,0.071-0.491,0.195-0.714c0.047-0.085,0.111-0.156,0.172-0.229
	c0.3-0.364,0.743-0.59,1.226-0.59c0.271,0,0.539,0.07,0.777,0.203c0.373,0.208,0.642,0.548,0.759,0.958
	c0.098,0.344,0.072,0.701-0.059,1.027c-0.025,0.063-0.048,0.128-0.082,0.188c-0.132,0.237-0.33,0.423-0.557,0.56
	C-206.182-141.088-206.81-141.037-207.318-141.319z"/>
</svg>
