<?xml version="1.0" encoding="utf-8"?>
<!-- Generator: Adobe Illustrator 16.0.0, SVG Export Plug-In . SVG Version: 6.00 Build 0)  -->
<!DOCTYPE svg PUBLIC "-//W3C//DTD SVG 1.1//EN" "http://www.w3.org/Graphics/SVG/1.1/DTD/svg11.dtd">
<svg version="1.1" id="Layer_1" xmlns="http://www.w3.org/2000/svg" xmlns:xlink="http://www.w3.org/1999/xlink" x="0px" y="0px"
	 width="50px" height="50px" viewBox="-175.5 -315.5 50 50" enable-background="new -175.5 -315.5 50 50" xml:space="preserve">
<path style="fill:white" d="M-134.75-290.5c0,0.414-0.336,0.75-0.75,0.75h-3.289l1.8,1.8c0.293,0.293,0.293,0.768,0,1.061
	c-0.146,0.146-0.338,0.22-0.53,0.22s-0.384-0.073-0.53-0.22l-2.86-2.86h-8.84v8.84l2.859,2.86c0.293,0.293,0.293,0.768,0,1.061
	c-0.146,0.146-0.338,0.22-0.53,0.22s-0.384-0.073-0.53-0.22l-1.799-1.799v3.289c0,0.414-0.336,0.75-0.75,0.75s-0.75-0.336-0.75-0.75
	v-3.289l-1.8,1.8c-0.293,0.293-0.768,0.293-1.061,0s-0.293-0.768,0-1.061l2.86-2.86v-8.84h-8.84l-2.86,2.859
	c-0.146,0.146-0.338,0.22-0.53,0.22s-0.384-0.073-0.53-0.22c-0.293-0.293-0.293-0.768,0-1.061l1.799-1.799h-3.289
	c-0.414,0-0.75-0.336-0.75-0.75s0.336-0.75,0.75-0.75h3.289l-1.8-1.8c-0.293-0.293-0.293-0.768,0-1.061s0.768-0.293,1.061,0
	l2.86,2.86h8.84v-8.84l-2.859-2.86c-0.293-0.293-0.293-0.768,0-1.061c0.293-0.293,0.768-0.293,1.061,0l1.799,1.799v-3.289
	c0-0.414,0.336-0.75,0.75-0.75s0.75,0.336,0.75,0.75v3.289l1.8-1.8c0.293-0.293,0.768-0.293,1.061,0s0.293,0.768,0,1.061l-2.86,2.86
	v8.84h8.84l2.86-2.859c0.293-0.293,0.768-0.293,1.061,0s0.293,0.768,0,1.061l-1.799,1.799h3.289
	C-135.086-291.25-134.75-290.914-134.75-290.5z M-141.171-286.954c0-0.414-0.336-0.75-0.75-0.75h-5.783v5.783
	c0,0.414,0.336,0.75,0.75,0.75s0.75-0.336,0.75-0.75v-3.222l3.752,3.752c0.146,0.146,0.338,0.22,0.53,0.22s0.384-0.073,0.53-0.22
	c0.293-0.293,0.293-0.768,0-1.061l-3.752-3.752h3.222C-141.507-286.204-141.171-286.54-141.171-286.954z M-159.829-294.045
	c0,0.414,0.336,0.75,0.75,0.75l5.783,0v-5.783c0-0.414-0.336-0.75-0.75-0.75s-0.75,0.336-0.75,0.75v3.222l-3.752-3.752
	c-0.293-0.293-0.768-0.293-1.061,0s-0.293,0.768,0,1.061l3.752,3.752l-3.222,0C-159.493-294.795-159.829-294.459-159.829-294.045z
	 M-153.434-281.587l0-5.229c0,0,0,0,0,0v-0.75h-5.979c-0.414,0-0.75,0.336-0.75,0.75s0.336,0.75,0.75,0.75h3.418l-3.615,3.614
	c-0.293,0.293-0.293,0.768,0,1.061c0.146,0.146,0.338,0.22,0.53,0.22s0.384-0.073,0.53-0.22l3.615-3.614l0,3.418
	c0,0.414,0.336,0.75,0.75,0.75S-153.434-281.173-153.434-281.587z M-147.566-299.412v5.978h5.979c0.414,0,0.75-0.336,0.75-0.75
	s-0.336-0.75-0.75-0.75h-3.418l3.614-3.614c0.293-0.293,0.293-0.768,0-1.061s-0.768-0.293-1.061,0l-3.614,3.614v-3.417
	c0-0.414-0.336-0.75-0.75-0.75S-147.566-299.826-147.566-299.412z"/>
</svg>
