<?xml version="1.0" encoding="utf-8"?>
<!-- Generator: Adobe Illustrator 16.0.0, SVG Export Plug-In . SVG Version: 6.00 Build 0)  -->
<!DOCTYPE svg PUBLIC "-//W3C//DTD SVG 1.1//EN" "http://www.w3.org/Graphics/SVG/1.1/DTD/svg11.dtd">
<svg version="1.1" id="Layer_1" xmlns="http://www.w3.org/2000/svg" xmlns:xlink="http://www.w3.org/1999/xlink" x="0px" y="0px"
	 width="50px" height="50px" viewBox="174.5 104.5 50 50" enable-background="new 174.5 104.5 50 50" xml:space="preserve">
<path style="fill:white" d="M214.312,137.476l-6.723-3.882v-8.188l6.723-3.882c0.239-0.138,0.321-0.443,0.183-0.683
	c-0.138-0.239-0.445-0.322-0.683-0.183l-6.72,3.88l-6.402-3.693l4.964-4.965c0.195-0.195,0.195-0.512,0-0.707s-0.512-0.195-0.707,0
	L200,120.121v-7.436c0-0.276-0.224-0.5-0.5-0.5s-0.5,0.224-0.5,0.5v7.436l-4.946-4.947c-0.195-0.195-0.512-0.195-0.707,0
	s-0.195,0.512,0,0.707l4.964,4.965l-6.402,3.693l-6.72-3.88c-0.238-0.138-0.545-0.057-0.683,0.183
	c-0.139,0.239-0.057,0.545,0.183,0.683l6.723,3.882v8.188l-6.723,3.882c-0.239,0.138-0.321,0.443-0.183,0.683
	c0.092,0.16,0.261,0.25,0.433,0.25c0.085,0,0.171-0.021,0.25-0.067l6.724-3.883l6.398,3.696l-4.964,4.965
	c-0.195,0.195-0.195,0.512,0,0.707s0.512,0.195,0.707,0l4.946-4.947v7.436c0,0.276,0.224,0.5,0.5,0.5s0.5-0.224,0.5-0.5v-7.436
	l4.946,4.947c0.098,0.098,0.226,0.146,0.354,0.146s0.256-0.049,0.354-0.146c0.195-0.195,0.195-0.512,0-0.707l-4.964-4.965
	l6.398-3.696l6.724,3.883c0.079,0.046,0.165,0.067,0.25,0.067c0.172,0,0.341-0.09,0.433-0.25
	C214.633,137.919,214.551,137.613,214.312,137.476z M204.184,131.628l2.405-0.644v2.032L204.184,131.628z M203.422,135.38
	c0.004,0.013,0.016,0.019,0.021,0.03l-0.792,0.457c-0.008-0.01-0.012-0.022-0.021-0.031l-2.63-2.631v-2.84l2.458,1.42
	L203.422,135.38z M192.411,129.049c0.013-0.002,0.025-0.002,0.038-0.005l3.592-0.964l2.46,1.42l-2.46,1.42l-3.593-0.962
	c-0.013-0.003-0.024,0-0.037-0.002V129.049z M195.578,123.622c-0.004-0.014-0.013-0.022-0.018-0.035l0.788-0.455
	c0.009,0.01,0.012,0.022,0.021,0.032l2.63,2.631v2.84l-2.459-1.421L195.578,123.622z M206.589,129.956
	c-0.013,0.002-0.024-0.001-0.037,0.002l-3.593,0.962l-2.46-1.42l2.46-1.42l3.592,0.964c0.013,0.003,0.025,0.003,0.038,0.005V129.956
	z M202.459,127.214L200,128.635v-2.84l2.63-2.631c0.01-0.01,0.013-0.022,0.021-0.032l0.788,0.455
	c-0.005,0.013-0.014,0.021-0.018,0.035L202.459,127.214z M200,124.381v-2.779l1.762,1.017L200,124.381z M199,124.381l-1.762-1.763
	l1.762-1.017V124.381z M196.542,131.785l2.458-1.42v2.84l-2.63,2.631c-0.009,0.009-0.013,0.021-0.021,0.031l-0.792-0.457
	c0.005-0.012,0.017-0.018,0.021-0.03L196.542,131.785z M199,134.619v2.778l-1.761-1.017L199,134.619z M200,134.619l1.761,1.762
	L200,137.397V134.619z M206.589,128.018l-2.405-0.645l2.405-1.39V128.018z M203.685,126.507l0.646-2.406l1.761,1.017
	L203.685,126.507z M194.67,124.101l0.646,2.406l-2.406-1.39L194.67,124.101z M194.816,127.373l-2.405,0.645v-2.034L194.816,127.373z
	 M192.411,130.984l2.405,0.644l-2.405,1.389V130.984z M195.316,132.492l-0.646,2.405l-1.76-1.016L195.316,132.492z M204.329,134.897
	l-0.646-2.405l2.405,1.39L204.329,134.897z"/>
</svg>
