<?xml version="1.0" encoding="utf-8"?>
<!-- Generator: Adobe Illustrator 16.0.0, SVG Export Plug-In . SVG Version: 6.00 Build 0)  -->
<!DOCTYPE svg PUBLIC "-//W3C//DTD SVG 1.1//EN" "http://www.w3.org/Graphics/SVG/1.1/DTD/svg11.dtd">
<svg version="1.1" id="Layer_1" xmlns="http://www.w3.org/2000/svg" xmlns:xlink="http://www.w3.org/1999/xlink" x="0px" y="0px"
	 width="50px" height="50px" viewBox="104.5 244.5 50 50" enable-background="new 104.5 244.5 50 50" xml:space="preserve">
<path style="fill:white" d="M145,269.5c0,0.276-0.224,0.5-0.5,0.5h-6.382l4.406,4.406c0.195,0.195,0.195,0.512,0,0.707
	c-0.098,0.098-0.226,0.146-0.354,0.146s-0.256-0.049-0.354-0.146L136.704,270H130v6.992l5.317,5.318
	c0.195,0.195,0.195,0.512,0,0.707c-0.098,0.098-0.226,0.146-0.354,0.146s-0.256-0.049-0.354-0.146l-4.61-4.611v6.094
	c0,0.276-0.224,0.5-0.5,0.5s-0.5-0.224-0.5-0.5v-6.094l-4.61,4.611c-0.195,0.195-0.512,0.195-0.707,0s-0.195-0.512,0-0.707
	l5.317-5.318V270h-6.704l-5.113,5.113c-0.098,0.098-0.226,0.146-0.354,0.146s-0.256-0.049-0.354-0.146
	c-0.195-0.195-0.195-0.512,0-0.707l4.406-4.406H114.5c-0.276,0-0.5-0.224-0.5-0.5s0.224-0.5,0.5-0.5h6.382l-4.406-4.406
	c-0.195-0.195-0.195-0.512,0-0.707s0.512-0.195,0.707,0l5.113,5.113H129v-6.992l-5.317-5.318c-0.195-0.195-0.195-0.512,0-0.707
	s0.512-0.195,0.707,0l4.61,4.611V254.5c0-0.276,0.224-0.5,0.5-0.5s0.5,0.224,0.5,0.5v6.094l4.61-4.611
	c0.195-0.195,0.512-0.195,0.707,0s0.195,0.512,0,0.707L130,262.008V269h6.704l5.113-5.113c0.195-0.195,0.512-0.195,0.707,0
	s0.195,0.512,0,0.707L138.118,269h6.382C144.776,269,145,269.224,145,269.5z M125.443,273.557c-0.195-0.195-0.512-0.195-0.707,0
	l-3.84,3.84c-0.195,0.195-0.195,0.512,0,0.707c0.098,0.098,0.226,0.146,0.354,0.146s0.256-0.049,0.354-0.146l3.84-3.84
	C125.639,274.068,125.639,273.752,125.443,273.557z M124.736,265.443c0.098,0.098,0.226,0.146,0.354,0.146s0.256-0.049,0.354-0.146
	c0.195-0.195,0.195-0.512,0-0.707l-3.84-3.84c-0.195-0.195-0.512-0.195-0.707,0s-0.195,0.512,0,0.707L124.736,265.443z
	 M134.264,273.557c-0.195-0.195-0.512-0.195-0.707,0s-0.195,0.512,0,0.707l3.84,3.84c0.098,0.098,0.226,0.146,0.354,0.146
	s0.256-0.049,0.354-0.146c0.195-0.195,0.195-0.512,0-0.707L134.264,273.557z M132.683,256.143c-0.195-0.195-0.512-0.195-0.707,0
	l-0.226,0.226v-0.952c0-0.276-0.224-0.5-0.5-0.5s-0.5,0.224-0.5,0.5v3.366l1.933-1.933
	C132.878,256.654,132.878,256.338,132.683,256.143z M131.75,267.25v-4.518l3.407-3.408c0.195-0.195,0.195-0.512,0-0.707
	s-0.512-0.195-0.707,0l-3.7,3.701v5.932h5.644l3.846-3.845c0.195-0.195,0.195-0.512,0-0.707s-0.512-0.195-0.707,0l-3.553,3.552
	H131.75z M142.007,266.173l-2.079,2.077h3.655c0.276,0,0.5-0.224,0.5-0.5s-0.224-0.5-0.5-0.5h-1.239l0.37-0.37
	c0.195-0.195,0.195-0.512,0-0.707S142.202,265.978,142.007,266.173z M143.583,270.75h-3.655l2.079,2.077
	c0.098,0.098,0.226,0.146,0.354,0.146s0.256-0.049,0.354-0.146c0.195-0.195,0.195-0.512,0-0.707l-0.37-0.37h1.239
	c0.276,0,0.5-0.224,0.5-0.5S143.859,270.75,143.583,270.75z M136.394,270.75h-5.644v5.932l3.7,3.701
	c0.098,0.098,0.226,0.146,0.354,0.146s0.256-0.049,0.354-0.146c0.195-0.195,0.195-0.512,0-0.707l-3.407-3.408v-4.518h4.229
	l3.553,3.552c0.195,0.195,0.512,0.195,0.707,0s0.195-0.512,0-0.707L136.394,270.75z M130.75,280.216v3.368
	c0,0.276,0.224,0.5,0.5,0.5s0.5-0.224,0.5-0.5v-0.952l0.226,0.226c0.195,0.195,0.512,0.195,0.707,0s0.195-0.512,0-0.707
	L130.75,280.216z M126.317,282.857c0.195,0.195,0.512,0.195,0.707,0l0.226-0.226v0.952c0,0.276,0.224,0.5,0.5,0.5s0.5-0.224,0.5-0.5
	v-3.368l-1.933,1.935C126.122,282.346,126.122,282.662,126.317,282.857z M127.25,271.75v4.518l-3.407,3.408
	c-0.195,0.195-0.195,0.512,0,0.707c0.098,0.098,0.226,0.146,0.354,0.146s0.256-0.049,0.354-0.146l3.7-3.701v-5.932h-5.644
	l-3.846,3.845c-0.195,0.195-0.195,0.512,0,0.707s0.512,0.195,0.707,0l3.553-3.552H127.25z M116.993,272.827l2.079-2.077h-3.655
	c-0.276,0-0.5,0.224-0.5,0.5s0.224,0.5,0.5,0.5h1.239l-0.37,0.37c-0.195,0.195-0.195,0.512,0,0.707
	c0.098,0.098,0.226,0.146,0.354,0.146S116.896,272.925,116.993,272.827z M115.417,268.25h3.655l-2.079-2.077
	c-0.195-0.195-0.512-0.195-0.707,0s-0.195,0.512,0,0.707l0.37,0.37h-1.239c-0.276,0-0.5,0.224-0.5,0.5
	S115.141,268.25,115.417,268.25z M122.606,268.25h5.644v-5.932l-3.7-3.701c-0.195-0.195-0.512-0.195-0.707,0s-0.195,0.512,0,0.707
	l3.407,3.408v4.518h-4.229l-3.553-3.552c-0.195-0.195-0.512-0.195-0.707,0s-0.195,0.512,0,0.707L122.606,268.25z M128.25,258.782
	v-3.366c0-0.276-0.224-0.5-0.5-0.5s-0.5,0.224-0.5,0.5v0.952l-0.226-0.226c-0.195-0.195-0.512-0.195-0.707,0s-0.195,0.512,0,0.707
	L128.25,258.782z M133.549,265.436c0.099,0.103,0.229,0.154,0.361,0.154c0.124,0,0.249-0.046,0.346-0.139l4.007-3.84
	c0.199-0.191,0.206-0.508,0.016-0.707c-0.191-0.198-0.508-0.207-0.707-0.016l-4.007,3.84
	C133.365,264.92,133.358,265.236,133.549,265.436z"/>
</svg>
