<?xml version="1.0" encoding="utf-8"?>
<!-- Generator: Adobe Illustrator 16.0.0, SVG Export Plug-In . SVG Version: 6.00 Build 0)  -->
<!DOCTYPE svg PUBLIC "-//W3C//DTD SVG 1.1//EN" "http://www.w3.org/Graphics/SVG/1.1/DTD/svg11.dtd">
<svg version="1.1" id="Layer_1" xmlns="http://www.w3.org/2000/svg" xmlns:xlink="http://www.w3.org/1999/xlink" x="0px" y="0px"
	 width="50px" height="50px" viewBox="104.5 -175.5 50 50" enable-background="new 104.5 -175.5 50 50" xml:space="preserve">
<path style="fill:white" d="M145.338-149.135c-0.08-0.265-0.359-0.414-0.623-0.334l-7.814,2.363l-0.291-0.156l-3.079-3.368l2.857-3.559l0.284-0.177
	l7.945,1.856c0.038,0.009,0.076,0.013,0.113,0.013c0.228,0,0.433-0.156,0.487-0.386c0.062-0.269-0.104-0.538-0.374-0.601
	l-6.971-1.628l2.543-1.579l1.463,0.783l1.9-1.18l-0.071-2.234l-1.973-1.057l-1.898,1.181l0.053,1.657l-2.546,1.581l1.633-6.975
	c0.062-0.269-0.104-0.538-0.373-0.601c-0.279-0.06-0.538,0.105-0.602,0.373l-1.859,7.948l-0.28,0.174l-4.46,0.984l-1.652-4.255
	l-0.011-0.331l5.582-5.953c0.188-0.201,0.178-0.518-0.023-0.707c-0.201-0.188-0.518-0.179-0.707,0.023l-4.896,5.223l-0.096-2.993
	l1.409-0.876l-0.071-2.235l-1.972-1.054l-1.899,1.179l0.071,2.235l1.462,0.783l0.096,2.994l-5.223-4.9
	c-0.199-0.188-0.518-0.178-0.706,0.022c-0.189,0.202-0.18,0.518,0.022,0.707l5.951,5.585l0.011,0.331l-1.377,4.352l-4.512-0.696
	l-0.293-0.157l-2.364-7.812c-0.08-0.264-0.361-0.415-0.623-0.333c-0.265,0.08-0.414,0.359-0.334,0.624l2.076,6.855l-2.641-1.414
	l-0.054-1.658l-1.972-1.056l-1.899,1.181l0.072,2.234l1.971,1.056l1.409-0.875l2.638,1.412l-6.852,2.072
	c-0.265,0.08-0.414,0.359-0.334,0.623c0.065,0.216,0.264,0.355,0.479,0.355c0.048,0,0.097-0.007,0.145-0.021l7.81-2.361l0.296,0.159
	l3.079,3.368l-2.857,3.559l-0.279,0.173l-7.95-1.857c-0.27-0.062-0.537,0.105-0.601,0.373c-0.062,0.269,0.104,0.538,0.374,0.601
	l6.976,1.629l-2.548,1.582l-1.461-0.783l-1.9,1.181l0.073,2.234l1.971,1.056l1.899-1.18l-0.053-1.659l2.542-1.579l-1.631,6.97
	c-0.062,0.269,0.104,0.538,0.373,0.601c0.039,0.009,0.077,0.013,0.114,0.013c0.228,0,0.433-0.156,0.487-0.386l1.857-7.943
	l0.281-0.174l4.46-0.984l1.652,4.255l0.011,0.331l-5.582,5.953c-0.188,0.201-0.178,0.518,0.023,0.707
	c0.097,0.09,0.219,0.135,0.342,0.135c0.133,0,0.267-0.053,0.365-0.158l4.896-5.223l0.096,2.995l-1.407,0.874l0.071,2.235
	l1.972,1.054l1.899-1.179l-0.071-2.235l-1.464-0.783l-0.096-2.995l5.223,4.9c0.199,0.188,0.518,0.179,0.706-0.022
	c0.189-0.202,0.18-0.518-0.022-0.707l-5.951-5.585l-0.011-0.331l1.377-4.352l4.512,0.696l0.294,0.158l2.362,7.807
	c0.065,0.216,0.264,0.355,0.479,0.355c0.048,0,0.097-0.007,0.145-0.021c0.265-0.08,0.414-0.359,0.334-0.624l-2.073-6.85l2.64,1.413
	l0.053,1.658l1.973,1.055l1.898-1.18l-0.07-2.234l-1.972-1.057l-1.409,0.875l-2.644-1.416l6.856-2.073
	C145.269-148.591,145.418-148.871,145.338-149.135z M133.483-147.8l-2.552-0.394l-0.778,2.461l-0.454,1.436l-0.546-1.405
	l-0.935-2.405l-2.522,0.557l-1.469,0.324l0.943-1.175l1.615-2.012l-1.741-1.905l-1.017-1.112l1.488,0.229l2.552,0.394l0.778-2.461
	l0.454-1.436l0.546,1.405l0.935,2.405l2.522-0.557l1.469-0.324l-0.943,1.175l-1.615,2.012l1.741,1.905l1.017,1.112L133.483-147.8z"
	/>
</svg>
