<?xml version="1.0" encoding="utf-8"?>
<!-- Generator: Adobe Illustrator 16.0.0, SVG Export Plug-In . SVG Version: 6.00 Build 0)  -->
<!DOCTYPE svg PUBLIC "-//W3C//DTD SVG 1.1//EN" "http://www.w3.org/Graphics/SVG/1.1/DTD/svg11.dtd">
<svg version="1.1" id="Layer_1" xmlns="http://www.w3.org/2000/svg" xmlns:xlink="http://www.w3.org/1999/xlink" x="0px" y="0px"
	 width="50px" height="50px" viewBox="174.5 -245.5 50 50" enable-background="new 174.5 -245.5 50 50" xml:space="preserve">
<path style="fill:white" d="M188.146-213.642l4.494,0v4.494c0,0.414-0.336,0.75-0.75,0.75s-0.75-0.336-0.75-0.75v-2.994l-2.994,0
	c-0.414,0-0.75-0.336-0.75-0.75S187.732-213.642,188.146-213.642z M211.604-228.108c0-0.414-0.336-0.75-0.75-0.75h-2.995
	l0.001-2.993c0-0.414-0.336-0.75-0.75-0.75s-0.75,0.335-0.75,0.75l-0.001,4.493h4.495
	C211.268-227.358,211.604-227.694,211.604-228.108z M188.322-227.534l4.496-0.001v-4.496c0-0.414-0.336-0.75-0.75-0.75
	s-0.75,0.336-0.75,0.75v2.996l-2.996,0.001c-0.414,0-0.75,0.336-0.75,0.75C187.572-227.87,187.908-227.534,188.322-227.534z
	 M211.031-213.819l-4.497,0l0.001,4.497c0,0.415,0.336,0.75,0.75,0.75s0.75-0.336,0.75-0.75l-0.001-2.997l2.997,0
	c0.414,0,0.75-0.336,0.75-0.75S211.445-213.819,211.031-213.819z M215.25-220.5c0,0.414-0.336,0.75-0.75,0.75h-3.289l1.8,1.8
	c0.293,0.293,0.293,0.768,0,1.061c-0.146,0.146-0.338,0.22-0.53,0.22s-0.384-0.073-0.53-0.22l-2.86-2.86h-1.908l-6.932,6.932v1.908
	l2.859,2.86c0.293,0.293,0.293,0.768,0,1.061c-0.146,0.146-0.338,0.22-0.53,0.22s-0.384-0.073-0.53-0.22l-1.799-1.799v3.289
	c0,0.414-0.336,0.75-0.75,0.75s-0.75-0.336-0.75-0.75v-3.289l-1.8,1.8c-0.293,0.293-0.768,0.293-1.061,0s-0.293-0.768,0-1.061
	l2.86-2.86v-1.91l-6.93-6.93h-1.91l-2.86,2.86c-0.146,0.146-0.338,0.22-0.53,0.22s-0.384-0.073-0.53-0.22
	c-0.293-0.293-0.293-0.768,0-1.061l1.8-1.799H184.5c-0.414,0-0.75-0.336-0.75-0.75s0.336-0.75,0.75-0.75h3.289l-1.8-1.8
	c-0.293-0.293-0.293-0.768,0-1.061s0.768-0.293,1.061,0l2.86,2.86h1.91l6.93-6.929v-1.911l-2.859-2.86
	c-0.293-0.293-0.293-0.768,0-1.061c0.293-0.293,0.768-0.293,1.061,0l1.799,1.799v-3.289c0-0.414,0.336-0.75,0.75-0.75
	s0.75,0.336,0.75,0.75v3.289l1.8-1.8c0.293-0.293,0.768-0.293,1.061,0s0.293,0.768,0,1.061l-2.86,2.86v1.911l6.928,6.929h1.912
	l2.86-2.86c0.293-0.293,0.768-0.293,1.061,0s0.293,0.768,0,1.061l-1.8,1.799h3.289C214.914-221.25,215.25-220.914,215.25-220.5z
	 M205.061-219.75l0.748-0.749l-0.751-0.751l-4.808-4.808l-0.75-0.75l-0.75,0.75l-4.809,4.808l-0.75,0.75l0.75,0.75l4.809,4.809
	l0.751,0.751l0.749-0.749L205.061-219.75z M210.689-215.289c0-0.414-0.336-0.75-0.75-0.75h-5.979v5.979
	c0,0.414,0.336,0.75,0.75,0.75s0.75-0.336,0.75-0.75v-4.479h4.479C210.354-214.539,210.689-214.875,210.689-215.289z
	 M210.688-225.71c0-0.414-0.336-0.75-0.75-0.75h-4.478v-4.479c0-0.414-0.336-0.75-0.75-0.75s-0.75,0.336-0.75,0.75v5.979h5.978
	C210.353-224.96,210.688-225.296,210.688-225.71z M188.303-225.71c0,0.414,0.336,0.75,0.75,0.75h5.978v-5.979
	c0-0.414-0.336-0.75-0.75-0.75s-0.75,0.336-0.75,0.75v4.479h-4.478C188.639-226.46,188.303-226.124,188.303-225.71z
	 M188.304-215.289c0,0.414,0.336,0.75,0.75,0.75h4.477v4.478c0,0.414,0.336,0.75,0.75,0.75s0.75-0.336,0.75-0.75v-5.978h-5.977
	C188.64-216.039,188.304-215.703,188.304-215.289z"/>
</svg>
