<?xml version="1.0" encoding="utf-8"?>
<!-- Generator: Adobe Illustrator 16.0.0, SVG Export Plug-In . SVG Version: 6.00 Build 0)  -->
<!DOCTYPE svg PUBLIC "-//W3C//DTD SVG 1.1//EN" "http://www.w3.org/Graphics/SVG/1.1/DTD/svg11.dtd">
<svg version="1.1" id="Layer_1" xmlns="http://www.w3.org/2000/svg" xmlns:xlink="http://www.w3.org/1999/xlink" x="0px" y="0px"
	 width="50px" height="50px" viewBox="-175.5 104.5 50 50" enable-background="new -175.5 104.5 50 50" xml:space="preserve">
<path style="fill:white" d="M-137.955,124.493l1.938-1.119v-2.234l-1.938-1.119l-1.936,1.119v1.659l-0.11,0.063c-2.123-3.346-5.792-5.605-9.999-5.773
	v-0.127l1.436-0.83v-2.236l-1.936-1.117l-1.938,1.117v2.236l1.438,0.83v0.127c-4.207,0.168-7.876,2.428-9.999,5.773l-0.11-0.063
	v-1.659l-1.938-1.119l-1.936,1.119v2.234l1.936,1.119l1.438-0.829l0.104,0.061c-0.911,1.728-1.433,3.691-1.433,5.776
	s0.521,4.049,1.433,5.776l-0.104,0.061l-1.437-0.831l-1.938,1.119l0.002,2.234l1.936,1.119l1.936-1.119v-1.657l0.11-0.063
	c2.123,3.346,5.792,5.605,9.999,5.773v0.126l-1.438,0.829v2.236l1.938,1.117l1.936-1.117v-2.236l-1.436-0.829v-0.126
	c4.207-0.168,7.876-2.428,9.999-5.773l0.108,0.062v1.658l1.938,1.119l1.936-1.119l0.002-2.234l-1.938-1.119l-1.438,0.83l-0.103-0.06
	c0.911-1.728,1.433-3.691,1.433-5.776s-0.521-4.049-1.433-5.776l0.104-0.061L-137.955,124.493z M-140.866,123.361l-0.86,0.497
	c-1.775-2.751-4.804-4.61-8.274-4.775v-0.994C-146.163,118.256-142.814,120.314-140.866,123.361z M-151,124.38l-1.924-1.922
	c-0.195-0.195-0.512-0.195-0.707,0s-0.195,0.512,0,0.707l2.631,2.629v2.842l-2.459-1.42l-0.964-3.595
	c-0.072-0.266-0.344-0.418-0.612-0.354c-0.267,0.072-0.425,0.347-0.354,0.613l0.705,2.627l-4.158-2.4
	c1.688-2.602,4.556-4.359,7.842-4.524V124.38z M-155.185,127.373l-2.626,0.703c-0.267,0.072-0.425,0.346-0.354,0.612
	c0.06,0.224,0.262,0.371,0.482,0.371c0.043,0,0.086-0.006,0.13-0.017l3.593-0.963l2.46,1.421l-2.458,1.419l-3.595-0.963
	c-0.264-0.065-0.541,0.088-0.612,0.354s0.087,0.54,0.354,0.612l2.629,0.703l-4.16,2.402c-0.699-1.36-1.102-2.896-1.102-4.528
	s0.402-3.168,1.102-4.528L-155.185,127.373z M-154.684,132.494l-0.703,2.626c-0.071,0.267,0.087,0.54,0.354,0.612
	c0.043,0.011,0.087,0.017,0.13,0.017c0.221,0,0.423-0.147,0.482-0.371l0.962-3.591l2.459-1.421v2.84l-2.631,2.629
	c-0.195,0.195-0.195,0.512,0,0.707s0.512,0.195,0.707,0l1.924-1.923v4.8c-3.286-0.165-6.153-1.923-7.842-4.524L-154.684,132.494z
	 M-150,134.621l1.922,1.923c0.098,0.098,0.226,0.146,0.354,0.146s0.256-0.049,0.354-0.146c0.195-0.195,0.195-0.512,0-0.707
	l-2.629-2.631v-2.84l2.459,1.421l0.962,3.591c0.06,0.224,0.262,0.371,0.482,0.371c0.043,0,0.086-0.006,0.13-0.017
	c0.267-0.072,0.425-0.346,0.354-0.612l-0.703-2.626l4.158,2.4c-1.688,2.602-4.556,4.359-7.842,4.524V134.621z M-145.818,131.627
	l2.629-0.703c0.267-0.072,0.425-0.346,0.354-0.612c-0.071-0.268-0.345-0.421-0.612-0.354l-3.595,0.963l-2.458-1.419l2.46-1.421
	l3.593,0.963c0.043,0.011,0.087,0.017,0.13,0.017c0.221,0,0.423-0.147,0.482-0.371c0.071-0.267-0.087-0.54-0.354-0.612l-2.626-0.703
	l4.157-2.4c0.699,1.36,1.102,2.896,1.102,4.528s-0.402,3.168-1.102,4.528L-145.818,131.627z M-146.316,126.509l0.704-2.629
	c0.071-0.267-0.087-0.54-0.354-0.612c-0.267-0.063-0.541,0.088-0.612,0.354l-0.962,3.594l-2.459,1.42v-2.842l2.629-2.629
	c0.195-0.195,0.195-0.512,0-0.707s-0.512-0.195-0.707,0L-150,124.38v-4.797c3.286,0.165,6.153,1.923,7.842,4.524L-146.316,126.509z
	 M-151,118.089v0.994c-3.47,0.165-6.499,2.024-8.274,4.775l-0.86-0.497C-158.186,120.314-154.837,118.256-151,118.089z
	 M-161.938,129.501c0-1.903,0.474-3.695,1.3-5.276l0.862,0.498c-0.742,1.434-1.168,3.056-1.168,4.778s0.426,3.345,1.168,4.778
	l-0.862,0.498C-161.463,133.196-161.938,131.404-161.938,129.501z M-160.134,135.641l0.86-0.497c1.775,2.751,4.804,4.61,8.274,4.775
	v0.994C-154.837,140.746-158.186,138.688-160.134,135.641z M-150,140.913v-0.994c3.47-0.165,6.499-2.024,8.274-4.775l0.86,0.497
	C-142.814,138.688-146.163,140.746-150,140.913z M-139.062,129.501c0,1.903-0.474,3.695-1.3,5.276l-0.862-0.498
	c0.742-1.434,1.168-3.056,1.168-4.778s-0.426-3.345-1.168-4.778l0.862-0.498C-139.537,125.806-139.062,127.598-139.062,129.501z"/>
</svg>
