<?xml version="1.0" encoding="utf-8"?>
<!-- Generator: Adobe Illustrator 16.0.0, SVG Export Plug-In . SVG Version: 6.00 Build 0)  -->
<!DOCTYPE svg PUBLIC "-//W3C//DTD SVG 1.1//EN" "http://www.w3.org/Graphics/SVG/1.1/DTD/svg11.dtd">
<svg version="1.1" id="Layer_1" xmlns="http://www.w3.org/2000/svg" xmlns:xlink="http://www.w3.org/1999/xlink" x="0px" y="0px"
	 width="50px" height="50px" viewBox="174.5 -175.5 50 50" enable-background="new 174.5 -175.5 50 50" xml:space="preserve">
<path style="fill:white" d="M212.047-155.504l1.938-1.117v-2.236l-1.938-1.119l-1.936,1.118v0.19l-8.839-5.103l0.167-0.097l0.002-2.236l-1.938-1.118
	l-1.936,1.117l-0.002,2.236l0.168,0.097l-8.842,5.097v-0.19l-1.936-1.119l-1.938,1.118v2.236l1.936,1.118l0.168-0.097l-0.002,10.208
	l-0.168-0.097l-1.938,1.118v2.236l1.936,1.118l1.938-1.117v-0.193l8.839,5.106l-0.169,0.097v2.236l1.936,1.118l1.938-1.117v-2.236
	l-0.167-0.097l8.839-5.098v0.191l1.938,1.118l1.936-1.117l0.004-2.236l-1.938-1.119l-0.166,0.096l0.002-10.208L212.047-155.504z
	 M188.39-144.667l-0.27-0.155l0.004-11.363l0.269-0.155l6.424,3.711l-2.627,0.703c-0.268,0.071-0.426,0.345-0.354,0.612
	c0.061,0.223,0.263,0.371,0.483,0.371c0.042,0,0.086-0.005,0.129-0.017l3.593-0.961l2.46,1.421l-2.46,1.419l-3.592-0.964
	c-0.268-0.071-0.54,0.086-0.613,0.354c-0.071,0.267,0.087,0.541,0.354,0.612l2.627,0.705L188.39-144.667z M198.999-146.796
	l-2.632,2.631c-0.195,0.195-0.195,0.512,0,0.707s0.512,0.195,0.707,0l1.924-1.923l-0.002,7.42l-0.269,0.155l-9.839-5.684v-0.31
	l6.425-3.707l-0.703,2.625c-0.071,0.267,0.087,0.541,0.354,0.612c0.043,0.012,0.086,0.017,0.129,0.017
	c0.221,0,0.423-0.147,0.483-0.371l0.961-3.591l2.462-1.42L198.999-146.796z M199.002-155.618l-1.924-1.926
	c-0.195-0.195-0.512-0.195-0.707,0c-0.195,0.195-0.195,0.512,0,0.707l2.63,2.632L199-151.366l-2.459-1.421l-0.962-3.593
	c-0.072-0.267-0.349-0.424-0.612-0.354c-0.268,0.071-0.426,0.346-0.354,0.612l0.704,2.626l-6.424-3.711v-0.314l9.842-5.674
	l0.27,0.156L199.002-155.618z M200.001-154.206l2.63-2.629c0.195-0.195,0.195-0.512,0-0.707s-0.512-0.195-0.707,0l-1.922,1.921
	l0.002-7.418l0.269-0.155l9.839,5.68v0.314l-6.428,3.708l0.705-2.627c0.072-0.267-0.086-0.541-0.353-0.612
	c-0.269-0.07-0.541,0.086-0.613,0.354l-0.964,3.592L200-151.366L200.001-154.206z M210.104-143.482l-9.84,5.676l-0.269-0.155
	l0.002-7.419l1.922,1.924c0.098,0.098,0.226,0.146,0.354,0.146s0.256-0.049,0.354-0.146c0.195-0.195,0.195-0.512,0-0.707
	l-2.628-2.63l0.001-2.84l2.457,1.42l0.962,3.594c0.061,0.223,0.263,0.371,0.483,0.371c0.043,0,0.086-0.005,0.129-0.017
	c0.268-0.071,0.426-0.346,0.354-0.612l-0.704-2.627l6.424,3.711L210.104-143.482z M210.876-144.816l-0.27,0.156l-6.424-3.711
	l2.628-0.702c0.267-0.071,0.426-0.345,0.354-0.612c-0.072-0.266-0.342-0.429-0.612-0.354l-3.595,0.96l-2.458-1.42l2.46-1.419
	l3.592,0.964c0.044,0.012,0.087,0.017,0.13,0.017c0.221,0,0.423-0.147,0.482-0.371c0.072-0.267-0.086-0.541-0.353-0.612
	l-2.626-0.705l6.426-3.707l0.269,0.155L210.876-144.816z"/>
</svg>
