<?xml version="1.0" encoding="utf-8"?>
<!-- Generator: Adobe Illustrator 16.0.0, SVG Export Plug-In . SVG Version: 6.00 Build 0)  -->
<!DOCTYPE svg PUBLIC "-//W3C//DTD SVG 1.1//EN" "http://www.w3.org/Graphics/SVG/1.1/DTD/svg11.dtd">
<svg version="1.1" id="Layer_1" xmlns="http://www.w3.org/2000/svg" xmlns:xlink="http://www.w3.org/1999/xlink" x="0px" y="0px"
	 width="50px" height="50px" viewBox="34.5 -105.5 50 50" enable-background="new 34.5 -105.5 50 50" xml:space="preserve">
<path style="fill:white" d="M61.588-84.114H61.01h-3.021h-0.577l-0.288,0.5L55.615-81l-0.288,0.5l0.289,0.5l1.509,2.614l0.289,0.5h0.577l3.018,0.001
	h0.579l0.287-0.498L63.384-80l0.289-0.501L63.385-81l-1.509-2.616L61.588-84.114z M62.519-80.501L62.229-80l-0.932,1.616
	l-0.288,0.499h-0.578l-1.863-0.001h-0.576l-0.289-0.5L56.771-80l-0.289-0.5L56.77-81l0.932-1.614l0.289-0.5h0.576h1.866h0.577
	l0.288,0.499L62.23-81L62.519-80.501z M78.195-80.752l-1.574-2.726c-0.089-0.155-0.254-0.25-0.433-0.25h-3.147
	c-0.179,0-0.344,0.095-0.433,0.25L71.178-81h-3.93l1.794-3.106c0.139-0.239,0.057-0.545-0.183-0.683
	c-0.238-0.136-0.545-0.057-0.683,0.183l-1.994,3.453l-2.601-4.506l3.989,0c0.276,0,0.5-0.224,0.5-0.5c0-0.276-0.224-0.5-0.5-0.5
	l-3.938,0l2.138-3.702h2.86c0.179,0,0.344-0.095,0.433-0.25l1.575-2.729c0.09-0.155,0.09-0.345,0-0.5l-1.575-2.726
	c-0.089-0.155-0.254-0.25-0.433-0.25h-3.149c-0.179,0-0.344,0.095-0.433,0.25l-1.575,2.726c-0.09,0.155-0.09,0.345,0,0.5l1.431,2.48
	l-2.049,3.549l-1.792-3.104c-0.138-0.239-0.444-0.321-0.683-0.183c-0.239,0.138-0.321,0.444-0.183,0.683l1.905,3.302h-5.028
	l1.905-3.302c0.139-0.239,0.057-0.545-0.183-0.683c-0.239-0.137-0.546-0.056-0.683,0.183l-1.882,3.26l-2.142-3.708l1.433-2.475
	c0.09-0.155,0.09-0.346,0-0.501l-1.577-2.728c-0.089-0.154-0.254-0.25-0.433-0.25l-3.148-0.001c-0.179,0-0.344,0.095-0.433,0.25
	l-1.575,2.728c-0.09,0.155-0.09,0.345,0,0.5l1.576,2.729c0.089,0.155,0.254,0.25,0.433,0.25c0,0,0,0,0.001,0l2.858-0.003
	l2.139,3.705h-3.756c-0.276,0-0.5,0.224-0.5,0.5s0.224,0.5,0.5,0.5h3.809l-2.512,4.353l-1.907-3.299
	c-0.139-0.241-0.446-0.321-0.683-0.183c-0.239,0.138-0.321,0.444-0.183,0.683L51.929-81h-4.109l-1.431-2.478
	c-0.089-0.155-0.254-0.25-0.433-0.25h-3.147c-0.179,0-0.344,0.096-0.434,0.25l-1.571,2.728c-0.089,0.154-0.089,0.344,0,0.499
	l1.569,2.727c0.09,0.155,0.255,0.25,0.434,0.25l3.149,0.001c0.179,0,0.344-0.095,0.433-0.25L47.819-80h4.283l-1.968,3.407
	c-0.139,0.239-0.057,0.545,0.183,0.683c0.079,0.045,0.165,0.067,0.25,0.067c0.172,0,0.341-0.089,0.433-0.25l1.993-3.45l2.6,4.502
	h-3.983c-0.276,0-0.5,0.224-0.5,0.5s0.224,0.5,0.5,0.5h3.585l-1.966,3.404l-2.862,0.002c-0.179,0-0.344,0.095-0.433,0.25
	l-1.575,2.725c-0.09,0.155-0.09,0.346-0.001,0.5l1.572,2.727c0.09,0.155,0.255,0.25,0.434,0.25l3.152,0.002
	c0.179,0,0.344-0.096,0.434-0.25l1.572-2.73c0.089-0.155,0.089-0.345-0.001-0.5l-1.428-2.473l2.055-3.559l1.97,3.41
	c0.092,0.161,0.261,0.25,0.433,0.25c0.085,0,0.171-0.021,0.25-0.067c0.239-0.138,0.321-0.444,0.183-0.683l-2.08-3.603l5.373,0.001
	l-2.079,3.602c-0.139,0.239-0.057,0.545,0.183,0.683c0.079,0.045,0.165,0.067,0.25,0.067c0.172,0,0.341-0.089,0.433-0.25l1.88-3.254
	l1.965,3.403l-1.433,2.473c-0.09,0.155-0.09,0.346,0,0.5l1.576,2.73c0.089,0.155,0.254,0.25,0.433,0.25h3.15
	c0.179,0,0.344-0.095,0.433-0.25l1.573-2.727c0.09-0.155,0.09-0.345,0-0.5l-1.575-2.73c-0.089-0.155-0.254-0.25-0.433-0.25
	c0,0,0,0-0.001,0l-2.858,0.003l-1.967-3.407l3.765,0.001c0.276,0,0.5-0.224,0.5-0.5c0-0.276-0.224-0.5-0.5-0.5l-4.159-0.001
	l2.686-4.655l2.081,3.604c0.092,0.161,0.261,0.25,0.433,0.25c0.085,0,0.171-0.021,0.25-0.067c0.239-0.138,0.321-0.444,0.183-0.683
	L67.075-80h4.103l1.427,2.474c0.09,0.155,0.255,0.25,0.434,0.25l3.151,0.002c0.179,0,0.344-0.095,0.434-0.25l1.573-2.729
	C78.285-80.407,78.285-80.597,78.195-80.752z M67.767-95.817h0.576l0.288,0.499l0.998,1.727l-1.287,2.229h-1.994h-0.577l-0.288-0.5
	l-0.999-1.73l1.286-2.226H67.767z M50.655-91.362l-1.287-2.229l0.999-1.729l0.288-0.5l0.575,0l1.996,0l1.287,2.228l-0.999,1.727
	l-0.288,0.499l-0.577,0L50.655-91.362z M46.954-80.5L46.665-80l-0.998,1.728l-2.571-0.001l-0.994-1.728L41.814-80.5l0.287-0.5
	l0.996-1.729h2.569L46.665-81L46.954-80.5z M51.232-65.183l-0.58,0l-0.285-0.494l-0.999-1.732l1.287-2.225l1.996-0.001l0.574,0
	l0.29,0.502l0.995,1.724l-1.284,2.23L51.232-65.183z M68.342-69.638l1.287,2.23l-0.997,1.729l-0.288,0.499h-0.576h-1.996
	l-1.288-2.23l1-1.725l0.289-0.499l0.576,0L68.342-69.638z M65.405-80.501L65.116-80l-2.375,4.116l-0.288,0.499h-0.578l-4.75-0.001
	h-0.576l-0.289-0.5L53.884-80l-0.289-0.5l0.289-0.5l2.374-4.114l0.289-0.5h0.576h4.753h0.577l0.288,0.499L65.117-81L65.405-80.501z
	 M73.327-78.275L72.333-80l-0.289-0.501L72.332-81l0.998-1.728h2.569l0.999,1.729l0.287,0.497L76.896-80L75.9-78.273L73.327-78.275z
	"/>
</svg>
