<?xml version="1.0" encoding="utf-8"?>
<!-- Generator: Adobe Illustrator 16.0.0, SVG Export Plug-In . SVG Version: 6.00 Build 0)  -->
<!DOCTYPE svg PUBLIC "-//W3C//DTD SVG 1.1//EN" "http://www.w3.org/Graphics/SVG/1.1/DTD/svg11.dtd">
<svg version="1.1" id="Layer_1" xmlns="http://www.w3.org/2000/svg" xmlns:xlink="http://www.w3.org/1999/xlink" x="0px" y="0px"
	 width="50px" height="50px" viewBox="314.5 174.5 50 50" enable-background="new 314.5 174.5 50 50" xml:space="preserve">
<path style="fill:white" d="M327.283,195.691c-0.207-0.359-0.084-0.817,0.274-1.024l1.788-1.031l-0.002-2.062c0-0.415,0.335-0.751,0.749-0.751h0.001
	c0.414,0,0.75,0.335,0.75,0.749l0.002,2.93l-2.538,1.465c-0.118,0.068-0.247,0.101-0.374,0.101
	C327.674,196.066,327.422,195.932,327.283,195.691z M350.694,203.034l-2.538,1.462l0.002,2.931c0,0.414,0.336,0.749,0.75,0.749
	c0,0,0,0,0.001,0c0.414,0,0.749-0.336,0.749-0.751l-0.002-2.062l1.786-1.03c0.359-0.206,0.482-0.665,0.275-1.023
	C351.511,202.95,351.052,202.825,350.694,203.034z M336.963,188.04l2.538,1.467l2.537-1.467c0.359-0.207,0.481-0.666,0.274-1.024
	c-0.206-0.358-0.664-0.483-1.024-0.274l-1.787,1.033l-1.788-1.033c-0.36-0.209-0.817-0.083-1.024,0.274
	C336.481,187.374,336.604,187.833,336.963,188.04z M342.039,210.96l-2.538-1.465l-2.538,1.467c-0.359,0.207-0.481,0.666-0.274,1.024
	c0.139,0.241,0.391,0.375,0.65,0.375c0.127,0,0.256-0.032,0.374-0.101l1.788-1.033l1.788,1.031c0.359,0.208,0.818,0.083,1.024-0.274
	C342.521,211.625,342.397,211.167,342.039,210.96z M330.095,208.178c0.414,0,0.75-0.336,0.75-0.75l-0.001-2.93l-2.538-1.464
	c-0.36-0.209-0.817-0.083-1.024,0.274c-0.207,0.359-0.084,0.817,0.274,1.024l1.788,1.032l0.001,2.062
	C329.345,207.842,329.681,208.178,330.095,208.178z M348.906,190.824c-0.414,0-0.75,0.336-0.75,0.75v2.93l2.539,1.464
	c0.118,0.068,0.247,0.101,0.374,0.101c0.26,0,0.512-0.135,0.65-0.375c0.207-0.359,0.084-0.817-0.274-1.024l-1.789-1.032v-2.062
	C349.656,191.16,349.32,190.824,348.906,190.824z M357.645,199.5c0,0.414-0.336,0.75-0.75,0.75h-0.987l-1.162,2.012
	c-0.134,0.232-0.382,0.375-0.649,0.375h-2.752c-0.268,0-0.516-0.143-0.649-0.375l-0.303-0.523l-3.506,2.024l-0.001,4.052h0.602
	c0.268,0,0.516,0.143,0.649,0.375l1.379,2.385c0.134,0.231,0.134,0.519,0,0.751l-1.162,2.008l0.494,0.856
	c0.207,0.358,0.084,0.817-0.274,1.024c-0.118,0.068-0.247,0.101-0.374,0.101c-0.26,0-0.512-0.135-0.65-0.375l-0.495-0.857h-2.321
	c-0.268,0-0.516-0.143-0.649-0.375l-1.376-2.383c-0.134-0.232-0.134-0.519,0-0.75l0.302-0.522l-3.507-2.023l-3.507,2.022
	l0.302,0.521c0.134,0.231,0.134,0.518,0,0.75l-1.378,2.387c-0.134,0.232-0.382,0.375-0.649,0.375h-2.322l-0.495,0.857
	c-0.139,0.24-0.391,0.375-0.65,0.375c-0.127,0-0.256-0.032-0.374-0.101c-0.358-0.207-0.481-0.666-0.274-1.024l0.495-0.858
	l-1.158-2.009c-0.134-0.232-0.134-0.518,0-0.75l1.377-2.387c0.134-0.232,0.382-0.375,0.649-0.375h0.602v-4.048l-3.507-2.024
	l-0.301,0.521c-0.134,0.232-0.382,0.375-0.649,0.375h-2.754c-0.269,0-0.516-0.144-0.649-0.375l-1.16-2.012h-0.991
	c-0.414,0-0.75-0.336-0.75-0.75s0.336-0.75,0.75-0.75h0.991l1.159-2.01c0.134-0.231,0.381-0.375,0.649-0.375h0.001l2.755,0.002
	c0.268,0,0.515,0.144,0.648,0.375l0.3,0.519l3.508-2.024v-4.047h-0.603c-0.001,0-0.001,0-0.001,0c-0.268,0-0.516-0.143-0.649-0.375
	l-1.377-2.387c-0.134-0.232-0.134-0.519,0-0.75l1.161-2.01l-0.495-0.857c-0.207-0.358-0.084-0.817,0.274-1.024
	c0.36-0.209,0.818-0.083,1.024,0.274l0.496,0.859l2.318-0.002h0.001c0.269,0,0.516,0.144,0.649,0.375l1.376,2.387
	c0.134,0.232,0.134,0.519,0,0.75l-0.299,0.519l3.508,2.025l3.504-2.023l-0.301-0.521c-0.134-0.231-0.134-0.518,0-0.75l1.378-2.387
	c0.134-0.232,0.382-0.375,0.649-0.375h2.321l0.496-0.859c0.206-0.357,0.664-0.482,1.024-0.274c0.358,0.207,0.481,0.666,0.274,1.024
	l-0.496,0.859l1.16,2.01c0.134,0.232,0.134,0.519,0,0.75l-1.379,2.387c-0.134,0.232-0.382,0.375-0.649,0.375h-0.001h-0.599v4.049
	l3.508,2.024l0.3-0.519c0.134-0.232,0.381-0.375,0.648-0.375l2.755-0.002c0.001,0,0.001,0,0.001,0c0.269,0,0.516,0.144,0.649,0.375
	l1.157,2.008h0.991C357.309,198.75,357.645,199.086,357.645,199.5z M353.663,201.137l0.513-0.887l0.431-0.746l-0.435-0.754
	l-0.509-0.883l-1.889,0.002l-0.333,0.576l-0.176,0.305l-0.043,0.074l-0.392,0.678l0.354,0.611l0.079,0.137l0.181,0.312l0.332,0.574
	H353.663z M345.385,196.105v-4.918h-0.219l-1.663,2.88c1.478,1.092,2.498,2.765,2.711,4.683h3.319l0.109-0.188L345.385,196.105z
	 M344.682,198.75c-0.196-1.361-0.91-2.544-1.942-3.359c-0.393-0.311-0.819-0.575-1.291-0.765c-0.604-0.242-1.259-0.384-1.948-0.384
	s-1.345,0.142-1.948,0.384c-0.471,0.189-0.898,0.454-1.291,0.764c-1.032,0.815-1.746,1.999-1.942,3.36
	c-0.036,0.247-0.076,0.493-0.076,0.75s0.04,0.503,0.076,0.75c0.196,1.361,0.91,2.545,1.943,3.36
	c0.393,0.311,0.819,0.575,1.291,0.764c0.604,0.242,1.258,0.384,1.947,0.384s1.345-0.142,1.948-0.384
	c0.471-0.189,0.898-0.454,1.291-0.764c1.032-0.815,1.746-1.999,1.942-3.36c0.036-0.247,0.076-0.493,0.076-0.75
	S344.718,198.997,344.682,198.75z M345.165,186.418l-0.944,1.637l0.323,0.559l0.188,0.325l0.082,0.144l0.351,0.605l0.715,0.001
	h0.151h0.361l0.659,0.001l0.945-1.637l-0.511-0.885l-0.433-0.75h-0.866H345.165z M335.244,190.247l-0.11,0.19l1.659,2.874
	c0.83-0.364,1.744-0.569,2.707-0.569s1.877,0.205,2.707,0.57l1.659-2.874l-0.109-0.189l-4.255,2.457L335.244,190.247z
	 M331.515,187.168l-0.512,0.885l0.943,1.637l0.663-0.001h0.36h0.152l0.712-0.001l0.362-0.627l0.071-0.123l0.177-0.306l0.333-0.577
	l-0.943-1.637l-1.021,0.001l-0.867,0.001L331.515,187.168z M329.358,198.561l0.109,0.189h3.318c0.213-1.918,1.234-3.591,2.712-4.683
	l-1.663-2.88h-0.218v4.916L329.358,198.561z M327.738,200.25l0.076-0.131l0.355-0.617l-0.395-0.684l-0.039-0.068l-0.174-0.302
	l-0.336-0.581l-1.888-0.002l-0.511,0.885l-0.433,0.75l0.433,0.75l0.512,0.887h1.887l0.332-0.575L327.738,200.25z M333.617,202.899
	v4.913h0.218l1.663-2.88c-1.478-1.091-2.499-2.765-2.712-4.683h-3.315l-0.11,0.191L333.617,202.899z M333.836,212.584l0.944-1.637
	l-0.331-0.571l-0.181-0.313l-0.076-0.132l-0.357-0.618h-0.707h-0.159h-0.362h-0.657l-0.944,1.637l0.509,0.884l0.434,0.751h0.865
	H333.836z M343.759,208.753l0.108-0.188l-1.66-2.876c-0.83,0.364-1.744,0.569-2.707,0.569s-1.877-0.205-2.706-0.569l-1.66,2.874
	l0.11,0.19l4.257-2.457L343.759,208.753z M347.486,211.834l0.513-0.885l-0.945-1.635h-0.677h-0.345h-0.14h-0.727l-0.357,0.618
	l-0.075,0.132l-0.146,0.251l-0.366,0.634l0.942,1.633h1.022h0.867L347.486,211.834z M349.641,200.439l-0.109-0.189h-3.317
	c-0.213,1.918-1.234,3.591-2.712,4.683l1.664,2.882h0.219l0.001-4.917L349.641,200.439z"/>
</svg>
