<?xml version="1.0" encoding="utf-8"?>
<!-- Generator: Adobe Illustrator 16.0.0, SVG Export Plug-In . SVG Version: 6.00 Build 0)  -->
<!DOCTYPE svg PUBLIC "-//W3C//DTD SVG 1.1//EN" "http://www.w3.org/Graphics/SVG/1.1/DTD/svg11.dtd">
<svg version="1.1" id="Layer_1" xmlns="http://www.w3.org/2000/svg" xmlns:xlink="http://www.w3.org/1999/xlink" x="0px" y="0px"
	 width="50px" height="50px" viewBox="34.5 244.5 50 50" enable-background="new 34.5 244.5 50 50" xml:space="preserve">
<path style="fill:white" d="M75.959,276.572c-0.189-0.667-0.628-1.221-1.233-1.557c-0.387-0.216-0.823-0.33-1.265-0.33c-0.839,0-1.604,0.421-2.09,1.091
	l-1.465-0.846l1.412-0.815c0.239-0.138,0.321-0.443,0.183-0.683c-0.138-0.239-0.443-0.322-0.683-0.183l-1.912,1.104l-1.771-1.022
	l3.825-2.21c0.239-0.138,0.321-0.443,0.183-0.683c-0.138-0.239-0.444-0.321-0.683-0.183l-4.326,2.497l-2.311-1.334l4.352-1.919
	l-4.352-1.919l2.31-1.334l4.328,2.498c0.079,0.046,0.165,0.067,0.25,0.067c0.172,0,0.341-0.09,0.433-0.25
	c0.139-0.239,0.057-0.545-0.183-0.683l-3.827-2.21l1.771-1.023l1.913,1.104c0.079,0.046,0.165,0.067,0.25,0.067
	c0.172,0,0.34-0.09,0.433-0.25c0.139-0.239,0.057-0.545-0.183-0.683l-1.412-0.816l1.465-0.846c0.485,0.67,1.252,1.092,2.092,1.092
	c0.44,0,0.877-0.113,1.263-0.329c1.252-0.698,1.702-2.284,1.004-3.535c-0.672-1.206-2.314-1.683-3.536-1.006
	c-1.037,0.58-1.512,1.769-1.25,2.871l-1.537,0.888v-1.632c0-0.276-0.224-0.5-0.5-0.5s-0.5,0.224-0.5,0.5v2.209l-1.771,1.022v-4.418
	c0-0.276-0.224-0.5-0.5-0.5s-0.5,0.224-0.5,0.5v4.995l-2.31,1.334l0.513-4.728L60,264.797v-2.668l4.327-2.498
	c0.239-0.138,0.321-0.443,0.183-0.683c-0.138-0.24-0.443-0.322-0.683-0.183L60,260.975v-2.046l1.913-1.106
	c0.239-0.138,0.321-0.444,0.183-0.683c-0.139-0.239-0.447-0.322-0.683-0.183L60,257.774v-1.71c1.195-0.233,2.1-1.286,2.1-2.548
	c0-1.434-1.166-2.6-2.6-2.6c-1.433,0-2.598,1.166-2.598,2.6c0,1.262,0.904,2.314,2.098,2.548v1.708l-1.41-0.815
	c-0.235-0.139-0.544-0.056-0.683,0.183c-0.139,0.239-0.057,0.545,0.183,0.683l1.91,1.104v2.045l-3.824-2.206
	c-0.241-0.141-0.547-0.057-0.683,0.183c-0.139,0.239-0.057,0.545,0.183,0.683L59,262.126v2.671l-3.837-2.809l0.514,4.728
	l-2.311-1.334l-0.001-4.996c0-0.276-0.224-0.5-0.5-0.5s-0.5,0.224-0.5,0.5l0.001,4.419l-1.773-1.024v-2.208
	c0-0.276-0.224-0.5-0.5-0.5s-0.5,0.224-0.5,0.5v1.631l-1.536-0.887c0.262-1.103-0.214-2.291-1.253-2.871
	c-1.215-0.678-2.863-0.201-3.533,1.006c-0.698,1.251-0.248,2.837,1.004,3.535c0.386,0.215,0.821,0.329,1.262,0.329
	c0.841,0,1.607-0.422,2.093-1.092l1.466,0.846l-1.413,0.816c-0.239,0.138-0.321,0.443-0.183,0.683c0.093,0.16,0.261,0.25,0.433,0.25
	c0.085,0,0.172-0.021,0.25-0.067l1.912-1.104l1.773,1.023l-3.827,2.21c-0.239,0.138-0.321,0.443-0.183,0.683
	c0.092,0.16,0.261,0.25,0.433,0.25c0.085,0,0.171-0.021,0.25-0.067l4.327-2.497l2.311,1.334l-4.354,1.918l4.354,1.918l-2.312,1.335
	l-4.325-2.497c-0.238-0.138-0.545-0.057-0.683,0.183c-0.139,0.239-0.057,0.545,0.183,0.683l3.824,2.21l-1.771,1.022l-1.913-1.104
	c-0.241-0.14-0.546-0.057-0.683,0.183c-0.139,0.239-0.057,0.545,0.183,0.683l1.412,0.815l-1.465,0.846
	c-0.485-0.67-1.251-1.091-2.091-1.091c-0.441,0-0.878,0.114-1.264,0.33c-0.605,0.336-1.044,0.89-1.233,1.557
	c-0.19,0.669-0.109,1.37,0.229,1.977c0.457,0.822,1.328,1.334,2.271,1.334c0.001,0,0.001,0,0.001,0c0.438,0,0.875-0.113,1.261-0.328
	c0.607-0.338,1.046-0.893,1.236-1.562c0.123-0.435,0.12-0.882,0.018-1.31l1.537-0.888v1.633c0,0.276,0.224,0.5,0.5,0.5
	s0.5-0.224,0.5-0.5v-2.21l1.771-1.023v4.419c0,0.276,0.224,0.5,0.5,0.5s0.5-0.224,0.5-0.5v-4.996l2.311-1.334l-0.514,4.729
	L59,274.204v2.67l-4.324,2.495c-0.239,0.138-0.321,0.443-0.183,0.683c0.136,0.238,0.441,0.321,0.683,0.183L59,278.028v2.045
	l-1.91,1.104c-0.239,0.138-0.321,0.443-0.183,0.683s0.445,0.32,0.683,0.183l1.41-0.815v1.708c-1.194,0.233-2.1,1.286-2.1,2.548
	c0,1.434,1.165,2.6,2.598,2.6c1.434,0,2.6-1.166,2.6-2.6c0-1.261-0.903-2.313-2.098-2.548v-1.71l1.413,0.817
	c0.078,0.046,0.165,0.067,0.25,0.067c0.172,0,0.34-0.09,0.433-0.25c0.139-0.238,0.057-0.545-0.183-0.683L60,280.071v-2.046
	l3.827,2.209c0.079,0.046,0.165,0.067,0.25,0.067c0.172,0,0.341-0.09,0.433-0.25c0.139-0.239,0.057-0.545-0.183-0.683L60,276.871
	v-2.668l3.838,2.809l-0.514-4.728l2.31,1.334v4.996c0,0.276,0.224,0.5,0.5,0.5s0.5-0.224,0.5-0.5v-4.419l1.772,1.023v2.21
	c0,0.276,0.224,0.5,0.5,0.5s0.5-0.224,0.5-0.5v-1.633l1.536,0.888c-0.103,0.428-0.105,0.875,0.018,1.311
	c0.189,0.668,0.628,1.223,1.235,1.562c0.386,0.214,0.822,0.327,1.261,0.327c0.943,0,1.814-0.511,2.273-1.334
	C76.068,277.942,76.149,277.241,75.959,276.572z M73.456,260.117c0.31,0,0.604,0.095,0.855,0.255
	c0.222,0.14,0.413,0.329,0.545,0.565c0.034,0.062,0.057,0.126,0.082,0.189c0.293,0.734,0.009,1.591-0.699,1.986
	c-0.664,0.367-1.532,0.179-2.01-0.386c-0.062-0.072-0.119-0.148-0.166-0.233c-0.126-0.226-0.185-0.47-0.194-0.712
	c-0.023-0.583,0.268-1.159,0.811-1.463C72.918,260.187,73.187,260.117,73.456,260.117z M46.937,262.494
	c-0.047,0.085-0.104,0.161-0.166,0.233c-0.479,0.563-1.346,0.754-2.01,0.386c-0.708-0.396-0.992-1.252-0.699-1.986
	c0.025-0.063,0.048-0.128,0.082-0.189c0.132-0.236,0.322-0.426,0.544-0.566c0.252-0.159,0.545-0.254,0.854-0.254
	c0.271,0,0.538,0.069,0.774,0.201c0.545,0.304,0.837,0.881,0.814,1.463C47.121,262.024,47.062,262.269,46.937,262.494z
	 M46.317,278.682c-0.237,0.132-0.505,0.201-0.774,0.201c-0.31,0-0.604-0.095-0.855-0.254c-0.222-0.141-0.412-0.33-0.544-0.566
	c-0.034-0.061-0.057-0.125-0.082-0.188c-0.131-0.326-0.157-0.684-0.06-1.027c0.117-0.411,0.387-0.751,0.76-0.958
	c0.237-0.133,0.506-0.203,0.776-0.203c0.482,0,0.925,0.227,1.227,0.591c0.061,0.073,0.124,0.145,0.172,0.229
	c0.124,0.222,0.185,0.465,0.194,0.712c0.007,0.168-0.006,0.337-0.053,0.503C46.961,278.132,46.69,278.474,46.317,278.682z
	 M62.598,274.865L60,272.963l-0.499-0.365L59,272.965l-2.598,1.901l0.349-3.202l0.067-0.615l-0.567-0.25l-2.946-1.299l2.946-1.299
	l0.567-0.25l-0.066-0.615l-0.349-3.201l2.597,1.9l0.5,0.366l0.5-0.366l2.6-1.901l-0.349,3.201l-0.067,0.616l0.566,0.25l2.946,1.299
	l-2.946,1.3l-0.567,0.25l0.066,0.614L62.598,274.865z M59.021,251.999c0.152-0.049,0.311-0.082,0.479-0.082s0.326,0.033,0.479,0.081
	c0.647,0.205,1.121,0.805,1.121,1.519c0,0.706-0.463,1.3-1.1,1.511c-0.158,0.053-0.324,0.088-0.5,0.088s-0.342-0.035-0.5-0.088
	c-0.635-0.212-1.098-0.805-1.098-1.511C57.902,252.803,58.375,252.204,59.021,251.999z M59.979,287.001
	c-0.152,0.049-0.312,0.082-0.48,0.082c-0.167,0-0.325-0.033-0.477-0.081c-0.647-0.204-1.121-0.804-1.121-1.519
	c0-0.707,0.464-1.301,1.1-1.511c0.158-0.053,0.323-0.088,0.498-0.088c0.177,0,0.343,0.035,0.502,0.089
	c0.635,0.211,1.098,0.805,1.098,1.51C61.098,286.196,60.625,286.795,59.979,287.001z M72.681,278.682
	c-0.372-0.208-0.642-0.549-0.759-0.961c-0.047-0.166-0.06-0.335-0.053-0.503c0.01-0.247,0.07-0.49,0.194-0.712
	c0.048-0.085,0.111-0.156,0.172-0.229c0.302-0.364,0.744-0.591,1.226-0.591c0.271,0,0.54,0.07,0.778,0.203
	c0.372,0.207,0.642,0.547,0.759,0.958c0.098,0.344,0.071,0.701-0.06,1.027c-0.025,0.063-0.048,0.128-0.082,0.188
	c-0.132,0.236-0.33,0.422-0.557,0.559C73.817,278.912,73.189,278.965,72.681,278.682z"/>
</svg>
