<?xml version="1.0" encoding="utf-8"?>
<!-- Generator: Adobe Illustrator 16.0.0, SVG Export Plug-In . SVG Version: 6.00 Build 0)  -->
<!DOCTYPE svg PUBLIC "-//W3C//DTD SVG 1.1//EN" "http://www.w3.org/Graphics/SVG/1.1/DTD/svg11.dtd">
<svg version="1.1" id="Layer_1" xmlns="http://www.w3.org/2000/svg" xmlns:xlink="http://www.w3.org/1999/xlink" x="0px" y="0px"
	 width="50px" height="50px" viewBox="-315.5 -35.5 50 50" enable-background="new -315.5 -35.5 50 50" xml:space="preserve">
<path style="fill:white" d="M-275.185-2.235l-3.053-1.762l1.839-1.062c0.239-0.138,0.321-0.444,0.183-0.683c-0.139-0.24-0.445-0.322-0.683-0.183
	l-2.339,1.351l-2.32-1.339l4.73-2.729c0.239-0.138,0.321-0.444,0.183-0.683s-0.446-0.321-0.683-0.183l-5.229,3.018l-1.164-0.671
	l-2.442-3.337l2.443-3.338l1.16-0.67l5.232,3.021c0.079,0.045,0.165,0.067,0.25,0.067c0.173,0,0.341-0.09,0.434-0.25
	c0.138-0.239,0.056-0.545-0.183-0.683l-4.732-2.732l2.321-1.34l2.34,1.352c0.079,0.045,0.165,0.067,0.25,0.067
	c0.173,0,0.341-0.09,0.434-0.25c0.138-0.239,0.056-0.545-0.183-0.683l-1.841-1.062l3.052-1.762c0.239-0.138,0.321-0.444,0.183-0.683
	c-0.139-0.24-0.446-0.321-0.683-0.183l-3.051,1.762l-0.001-2.123c0-0.276-0.224-0.5-0.5-0.5c-0.276,0-0.5,0.224-0.5,0.5l0.001,2.7
	l-2.32,1.339l0.001-5.459c0-0.276-0.224-0.5-0.5-0.5c-0.276,0-0.5,0.224-0.5,0.5l-0.001,6.037l-1.164,0.672l-4.11,0.447L-290-18.041
	l0-1.344l5.229-3.02c0.239-0.138,0.321-0.444,0.183-0.683c-0.139-0.24-0.445-0.322-0.683-0.183L-290-20.539v-2.677l2.339-1.349
	c0.239-0.138,0.321-0.444,0.183-0.683c-0.139-0.239-0.446-0.321-0.683-0.183L-290-24.371v-3.524c0-0.276-0.224-0.5-0.5-0.5
	s-0.5,0.224-0.5,0.5v3.524l-1.839-1.062c-0.24-0.139-0.545-0.057-0.683,0.183c-0.138,0.239-0.056,0.545,0.183,0.683l2.339,1.351
	v2.678l-4.729-2.73c-0.24-0.139-0.545-0.056-0.683,0.183c-0.138,0.239-0.056,0.545,0.183,0.683l5.229,3.019l0,1.346l-1.668,3.783
	l-4.112-0.447l-1.164-0.672v-6.038c0-0.276-0.224-0.5-0.5-0.5s-0.5,0.224-0.5,0.5v5.46l-2.318-1.338l-0.001-2.702
	c0-0.276-0.224-0.5-0.5-0.5c-0.276,0-0.5,0.224-0.5,0.5l0.001,2.124l-3.053-1.762c-0.239-0.138-0.545-0.056-0.683,0.183
	s-0.056,0.545,0.183,0.683l3.051,1.762l-1.838,1.061c-0.239,0.138-0.321,0.444-0.183,0.683c0.093,0.16,0.261,0.25,0.434,0.25
	c0.085,0,0.171-0.021,0.25-0.067l2.338-1.35l2.319,1.339l-4.729,2.73c-0.239,0.138-0.321,0.444-0.183,0.683
	c0.093,0.161,0.261,0.25,0.434,0.25c0.085,0,0.171-0.021,0.25-0.067l5.229-3.02l1.166,0.673l2.442,3.337l-2.442,3.336l-1.165,0.673
	l-5.231-3.017c-0.241-0.138-0.545-0.056-0.683,0.183s-0.056,0.545,0.183,0.683l4.731,2.728l-2.322,1.34l-2.338-1.35
	c-0.239-0.138-0.545-0.057-0.683,0.183c-0.138,0.239-0.056,0.545,0.183,0.683l1.838,1.062l-3.05,1.761
	c-0.239,0.138-0.321,0.444-0.183,0.683c0.093,0.161,0.261,0.25,0.434,0.25c0.085,0,0.171-0.021,0.25-0.067l3.051-1.762l0.001,2.125
	c0,0.276,0.224,0.5,0.5,0.5h0c0.276,0,0.5-0.224,0.5-0.5l-0.001-2.701l2.322-1.341l-0.002,5.463c0,0.276,0.224,0.5,0.5,0.5
	c0.276,0,0.5-0.224,0.5-0.5l0.002-6.041l1.161-0.67l4.113-0.448L-291-2.962l0,1.347l-5.228,3.018
	c-0.239,0.138-0.321,0.444-0.183,0.683c0.138,0.239,0.444,0.321,0.683,0.183l4.728-2.73v2.678l-2.339,1.351
	c-0.239,0.138-0.321,0.444-0.183,0.683c0.093,0.161,0.261,0.25,0.434,0.25c0.085,0,0.171-0.021,0.25-0.067l1.839-1.062v3.523
	c0,0.276,0.224,0.5,0.5,0.5s0.5-0.224,0.5-0.5V3.371l1.841,1.063c0.238,0.137,0.544,0.055,0.683-0.183
	c0.138-0.239,0.056-0.545-0.183-0.683l-2.341-1.351v-2.678l4.73,2.731c0.079,0.045,0.165,0.067,0.25,0.067
	c0.173,0,0.341-0.09,0.434-0.25c0.138-0.239,0.056-0.545-0.183-0.683l-5.23-3.019l0-1.343l1.669-3.786l4.112,0.447l1.163,0.672
	v6.039c0,0.276,0.224,0.5,0.5,0.5s0.5-0.224,0.5-0.5v-5.461l2.319,1.339l0.001,2.7c0,0.276,0.224,0.5,0.5,0.5
	c0.276,0,0.5-0.224,0.5-0.5l-0.001-2.123l3.053,1.762c0.079,0.045,0.165,0.067,0.25,0.067c0.173,0,0.341-0.09,0.434-0.25
	C-274.863-1.792-274.945-2.097-275.185-2.235z M-290-5.438l-0.5,1.133L-291-5.44l-1.048-2.377l-2.586,0.282l-1.231,0.134
	l0.733-1.001l1.535-2.097l-1.535-2.098l-0.732-1l1.232,0.134l2.585,0.281L-291-15.56l0.5-1.135l0.5,1.134l1.049,2.379l2.584-0.281
	l1.233-0.134l-0.731,1l-1.536,2.099l1.535,2.098l0.732,1l-1.232-0.134l-2.585-0.281L-290-5.438z"/>
</svg>
