<?xml version="1.0" encoding="utf-8"?>
<!-- Generator: Adobe Illustrator 16.0.0, SVG Export Plug-In . SVG Version: 6.00 Build 0)  -->
<!DOCTYPE svg PUBLIC "-//W3C//DTD SVG 1.1//EN" "http://www.w3.org/Graphics/SVG/1.1/DTD/svg11.dtd">
<svg version="1.1" id="Layer_1" xmlns="http://www.w3.org/2000/svg" xmlns:xlink="http://www.w3.org/1999/xlink" x="0px" y="0px"
	 width="50px" height="50px" viewBox="-105.5 -175.5 50 50" enable-background="new -105.5 -175.5 50 50" xml:space="preserve">
<path style="fill:white" d="M-64.106-143.681c0-0.178-0.096-0.343-0.25-0.433l-2.041-1.18c-0.154-0.089-0.345-0.089-0.5,0l-1.792,1.035l-4.361-2.518
	l5.728-1.534c0.267-0.071,0.425-0.346,0.354-0.612s-0.343-0.425-0.612-0.354l-6.693,1.792l-0.112-0.064v-5.905l0.116-0.067
	l6.689,1.792c0.043,0.012,0.087,0.017,0.13,0.017c0.221,0,0.422-0.147,0.482-0.371c0.071-0.267-0.087-0.541-0.354-0.612
	l-5.723-1.534l4.354-2.514l1.792,1.034c0.078,0.044,0.164,0.067,0.25,0.067s0.172-0.022,0.25-0.067l2.043-1.177
	c0.155-0.089,0.25-0.254,0.25-0.433l-0.002-1.253l0.001-1.106c0-0.179-0.095-0.344-0.25-0.434l-2.042-1.177
	c-0.154-0.089-0.345-0.089-0.5,0l-2.04,1.177c-0.155,0.089-0.251,0.254-0.251,0.433v2.07l-4.357,2.516l1.535-5.727
	c0.071-0.267-0.087-0.541-0.354-0.612c-0.266-0.071-0.541,0.086-0.612,0.354l-1.793,6.693l-0.114,0.066L-80-157.271v-0.132
	l4.898-4.897c0.195-0.195,0.195-0.512,0-0.707s-0.512-0.195-0.707,0l-4.191,4.19v-5.033l1.791-1.033
	c0.155-0.089,0.25-0.254,0.25-0.433v-2.357c0-0.178-0.095-0.343-0.249-0.433l-2.042-1.18c-0.154-0.089-0.345-0.089-0.5,0
	l-2.042,1.18c-0.154,0.089-0.25,0.254-0.25,0.433v2.357c0,0.179,0.095,0.344,0.25,0.433l1.792,1.033v5.033l-4.191-4.19
	c-0.195-0.195-0.512-0.195-0.707,0s-0.195,0.512,0,0.707l4.898,4.897v0.132l-5.114,2.953l-0.114-0.066l-1.793-6.693
	c-0.071-0.267-0.345-0.425-0.612-0.354c-0.267,0.071-0.425,0.346-0.354,0.612l1.535,5.727l-4.358-2.517l0.001-0.965l-0.001-1.104
	c0-0.179-0.096-0.343-0.25-0.433l-2.041-1.177c-0.154-0.089-0.345-0.09-0.499,0l-2.042,1.178c-0.155,0.089-0.25,0.254-0.25,0.433
	l-0.001,2.357c0,0.179,0.095,0.344,0.25,0.433l2.042,1.18c0.078,0.044,0.164,0.067,0.25,0.067s0.172-0.022,0.25-0.067l1.79-1.035
	l4.357,2.516l-5.723,1.534c-0.267,0.071-0.425,0.346-0.354,0.612c0.06,0.224,0.262,0.371,0.482,0.371
	c0.043,0,0.086-0.005,0.13-0.017l6.689-1.792l0.116,0.067v5.905l-0.112,0.064l-6.693-1.792c-0.265-0.07-0.541,0.087-0.612,0.354
	c-0.071,0.267,0.087,0.541,0.354,0.612l5.728,1.534l-4.362,2.519l-1.793-1.034c-0.155-0.089-0.345-0.088-0.499,0l-2.039,1.177
	c-0.155,0.089-0.251,0.254-0.251,0.433l-0.001,1.107l0.001,0.146l-0.001,1.104c0,0.179,0.095,0.344,0.25,0.434l2.042,1.179
	c0.078,0.044,0.164,0.067,0.25,0.067s0.172-0.022,0.25-0.067l2.041-1.179c0.155-0.089,0.25-0.254,0.25-0.433l-0.001-1.253
	l0.001-0.815l4.359-2.517l-1.532,5.723c-0.071,0.267,0.087,0.541,0.354,0.612c0.043,0.012,0.087,0.017,0.13,0.017
	c0.221,0,0.423-0.147,0.482-0.371l1.791-6.689l0.115-0.066l5.114,2.953v0.129l-4.898,4.898c-0.195,0.195-0.195,0.512,0,0.707
	s0.512,0.195,0.707,0l4.191-4.191v5.036l-1.792,1.033c-0.155,0.089-0.25,0.254-0.25,0.433v2.357c0,0.178,0.095,0.343,0.25,0.433
	l2.042,1.18c0.078,0.044,0.164,0.067,0.25,0.067s0.173-0.022,0.25-0.067l2.042-1.18c0.154-0.089,0.25-0.254,0.25-0.433v-2.357
	c0-0.179-0.095-0.344-0.25-0.433L-80-137.149v-5.036l4.191,4.193c0.098,0.098,0.226,0.146,0.354,0.146s0.256-0.049,0.354-0.146
	c0.195-0.195,0.195-0.512,0-0.707l-4.898-4.9v-0.129l5.114-2.953l0.115,0.066l1.791,6.689c0.06,0.223,0.262,0.371,0.482,0.371
	c0.043,0,0.086-0.005,0.13-0.017c0.267-0.071,0.425-0.345,0.354-0.612l-1.532-5.723l4.358,2.516v2.069
	c0,0.179,0.095,0.344,0.25,0.433l2.042,1.179c0.078,0.044,0.164,0.067,0.25,0.067s0.172-0.022,0.25-0.067l2.041-1.179
	c0.155-0.089,0.25-0.254,0.25-0.433l0.001-1.254L-64.106-143.681z M-68.191-158.57l0-0.817l1.542-0.89l1.062,0.613l0.479,0.276
	l0,0.555l0.001,1.228l-1.543,0.889l-1.041-0.601l-0.5-0.289l0-0.577L-68.191-158.57z M-95.894-158.834l0-0.554l0.479-0.276
	l1.062-0.613l1.542,0.889l0,1.203v0.577l-0.5,0.289l-1.041,0.602l-1.542-0.891L-95.894-158.834z M-92.812-141.612l-1.541,0.891
	l-1.071-0.619l-0.47-0.271l0-0.554v-0.265l-0.001-0.146l0-0.814l1.541-0.89l1.041,0.6l0.5,0.289v0.578L-92.812-141.612z
	 M-80-144.883l-0.5,0.289l-0.5-0.289l-4.114-2.376l-0.5-0.289v-0.578v-4.75v-0.578l0.5-0.289l4.114-2.376l0.5-0.289l0.5,0.289
	l4.114,2.376l0.5,0.289v0.578v4.75v0.578l-0.5,0.289L-80-144.883z M-82.042-167.386l1.062-0.613l0.479-0.277l0.479,0.277
	l1.062,0.613v1.78L-80-165.005l-0.5,0.288l-0.5-0.288l-1.042-0.601V-167.386z M-78.959-133.614l-1.062,0.613l-0.479,0.277
	l-0.479-0.277l-1.062-0.613v-1.78l1.042-0.601l0.5-0.288l0.5,0.288l1.041,0.601V-133.614z M-68.188-142.577v-0.237l0-0.577
	l0.5-0.289l1.041-0.602l1.542,0.892l0,1.226v0.554l-0.47,0.271l-1.071,0.619l-1.542-0.891L-68.188-142.577z"/>
</svg>
