<?xml version="1.0" encoding="utf-8"?>
<!-- Generator: Adobe Illustrator 16.0.0, SVG Export Plug-In . SVG Version: 6.00 Build 0)  -->
<!DOCTYPE svg PUBLIC "-//W3C//DTD SVG 1.1//EN" "http://www.w3.org/Graphics/SVG/1.1/DTD/svg11.dtd">
<svg version="1.1" id="Layer_1" xmlns="http://www.w3.org/2000/svg" xmlns:xlink="http://www.w3.org/1999/xlink" x="0px" y="0px"
	 width="50px" height="50px" viewBox="244.5 -105.5 50 50" enable-background="new 244.5 -105.5 50 50" xml:space="preserve">
<path style="fill:white" d="M271.588-84.114h-0.577l-3.021,0h-0.577l-0.288,0.5L265.616-81l-0.288,0.5l0.288,0.5l1.509,2.615l0.288,0.499h0.578l3.019,0
	h0.578l0.288-0.499L273.385-80l0.289-0.5l-0.288-0.5l-1.51-2.614L271.588-84.114z M272.52-80.5L272.23-80l-0.933,1.615l-0.288,0.5
	h-0.577l-1.864,0h-0.577l-0.288-0.499L266.771-80l-0.288-0.5l0.289-0.5l0.931-1.614l0.289-0.5h0.576l1.866,0h0.576l0.289,0.5
	L272.23-81L272.52-80.5z M288.285-80.75l-1.178-2.042c-0.09-0.154-0.254-0.249-0.433-0.249l-2.357-0.001
	c-0.179,0-0.344,0.095-0.433,0.25L282.852-81h-1.623l0.814-1.412c0.139-0.239,0.057-0.545-0.183-0.683
	c-0.238-0.136-0.545-0.056-0.683,0.183L280.074-81h-2.047l2.208-3.825c0.139-0.239,0.057-0.545-0.183-0.683
	c-0.237-0.136-0.545-0.056-0.683,0.183L276.873-81h-0.601l-2.953-5.114l0.3-0.519h4.997c0.276,0,0.5-0.224,0.5-0.5
	s-0.224-0.5-0.5-0.5h-4.42l1.023-1.772h2.209c0.276,0,0.5-0.224,0.5-0.5s-0.224-0.5-0.5-0.5h-1.632l0.811-1.403l2.068-0.001
	c0.179,0,0.344-0.095,0.433-0.25l1.181-2.042c0.09-0.155,0.09-0.346,0-0.5l-1.179-2.042c-0.089-0.155-0.255-0.251-0.434-0.251
	l-2.359,0.002c-0.178,0-0.343,0.096-0.433,0.25l-1.178,2.039c-0.09,0.155-0.09,0.346,0,0.501l1.035,1.792l-0.811,1.404l-0.816-1.413
	c-0.138-0.241-0.443-0.321-0.683-0.183s-0.321,0.444-0.183,0.683l1.104,1.913l-1.022,1.771l-2.21-3.826
	c-0.138-0.24-0.444-0.321-0.683-0.183c-0.239,0.138-0.321,0.444-0.183,0.683l2.497,4.326l-0.3,0.52l-5.907,0l-0.299-0.518
	l2.498-4.329c0.139-0.239,0.057-0.545-0.183-0.683c-0.238-0.136-0.545-0.056-0.683,0.183l-2.211,3.828l-1.022-1.771l1.105-1.916
	c0.138-0.239,0.056-0.545-0.184-0.683c-0.241-0.139-0.545-0.056-0.684,0.183l-0.815,1.415l-0.812-1.407l1.034-1.792
	c0.09-0.155,0.09-0.345,0-0.5l-1.179-2.042c-0.089-0.154-0.254-0.249-0.432-0.25l-1.109-0.002l-0.146,0.001l-1.103,0
	c-0.179,0-0.344,0.095-0.433,0.25l-1.18,2.043c-0.089,0.155-0.089,0.345,0.001,0.5l1.179,2.041c0.089,0.155,0.254,0.25,0.433,0.25
	h1.104h0.003l0.961-0.001l0.812,1.405l-1.628,0c-0.276,0-0.5,0.224-0.5,0.5c0,0.276,0.224,0.5,0.5,0.5l2.205,0.001l1.023,1.771
	h-4.416c-0.276,0-0.5,0.224-0.5,0.5s0.224,0.5,0.5,0.5h4.993l0.301,0.52L262.729-81h-0.601l-2.498-4.326
	c-0.137-0.241-0.444-0.321-0.683-0.183c-0.239,0.138-0.321,0.444-0.183,0.683L260.975-81h-2.048l-1.104-1.912
	c-0.138-0.241-0.445-0.321-0.683-0.183c-0.239,0.138-0.321,0.444-0.183,0.683L257.772-81h-1.623l-1.034-1.792
	c-0.09-0.154-0.255-0.249-0.433-0.249l-2.355,0.001c-0.179,0-0.343,0.095-0.433,0.249l-1.18,2.041c-0.09,0.155-0.09,0.346,0,0.5
	l1.179,2.041c0.089,0.155,0.254,0.25,0.433,0.25l1.251,0.001h0.003l1.104,0c0.179,0,0.344-0.095,0.433-0.25L256.149-80h1.624
	l-0.814,1.413c-0.139,0.239-0.057,0.545,0.183,0.683c0.079,0.045,0.165,0.067,0.25,0.067c0.173,0,0.341-0.09,0.433-0.25L258.928-80
	h2.048l-2.21,3.827c-0.139,0.239-0.057,0.545,0.183,0.683c0.079,0.045,0.165,0.067,0.25,0.067c0.172,0,0.341-0.089,0.433-0.25
	L262.13-80h0.6l2.952,5.115l-0.3,0.519l-4.994,0c-0.276,0-0.5,0.224-0.5,0.5c0,0.276,0.224,0.5,0.5,0.5l4.417,0l-1.022,1.771h-2.209
	c-0.276,0-0.5,0.224-0.5,0.5s0.224,0.5,0.5,0.5h1.632l-0.812,1.406l-0.811,0l-0.156-0.001l-1.104,0.002
	c-0.179,0-0.343,0.096-0.433,0.25l-1.176,2.038c-0.09,0.154-0.09,0.345-0.001,0.5l1.177,2.043c0.09,0.155,0.255,0.25,0.434,0.25
	l1.1-0.001l0.149,0.001c0.002,0,0.004,0,0.004,0l1.105-0.001c0.179,0,0.344-0.095,0.433-0.25l1.178-2.042
	c0.089-0.154,0.089-0.345-0.001-0.5l-1.033-1.792l0.812-1.407l0.816,1.414c0.092,0.16,0.26,0.25,0.433,0.25
	c0.085,0,0.171-0.021,0.25-0.067c0.239-0.138,0.321-0.444,0.183-0.683l-1.104-1.914l1.021-1.771l2.21,3.826
	c0.092,0.16,0.261,0.25,0.433,0.25c0.085,0,0.171-0.021,0.25-0.067c0.239-0.138,0.321-0.444,0.183-0.683l-2.497-4.327l0.3-0.52
	l5.905,0l0.301,0.521l-2.496,4.324c-0.139,0.239-0.057,0.545,0.183,0.683c0.079,0.045,0.165,0.067,0.25,0.067
	c0.172,0,0.341-0.089,0.433-0.25l2.209-3.823l1.022,1.771l-1.103,1.911c-0.139,0.239-0.057,0.545,0.183,0.683
	c0.079,0.045,0.165,0.067,0.25,0.067c0.173,0,0.341-0.09,0.433-0.25l0.814-1.411l0.812,1.406l-1.035,1.79
	c-0.09,0.155-0.09,0.345,0,0.5l1.178,2.042c0.09,0.154,0.255,0.25,0.433,0.25l1.104,0.001c0.002,0,0.004,0,0.006,0l1.248-0.001
	c0.179,0,0.344-0.095,0.433-0.25l1.179-2.042c0.089-0.155,0.089-0.345,0-0.5l-1.179-2.042c-0.089-0.155-0.254-0.25-0.433-0.25
	l-1.254,0.001l-0.814,0l-0.812-1.407l1.633,0c0.276,0,0.5-0.224,0.5-0.5c0-0.276-0.224-0.5-0.5-0.5l-2.21-0.001l-1.023-1.771h4.42
	c0.276,0,0.5-0.224,0.5-0.5s-0.224-0.5-0.5-0.5h-4.997l-0.299-0.518L276.271-80h0.601l2.498,4.327
	c0.092,0.161,0.261,0.25,0.433,0.25c0.085,0,0.171-0.021,0.25-0.067c0.239-0.138,0.321-0.444,0.183-0.683L278.026-80h2.047
	l1.104,1.913c0.092,0.16,0.26,0.25,0.433,0.25c0.085,0,0.171-0.021,0.25-0.067c0.239-0.138,0.321-0.444,0.183-0.683L281.228-80
	h1.623l1.034,1.792c0.089,0.155,0.254,0.25,0.433,0.25l2.357,0c0.179,0,0.344-0.095,0.433-0.25l1.179-2.042
	C288.375-80.404,288.375-80.595,288.285-80.75z M275.718-94.352l0.89-1.541l1.229-0.001l0.552,0l0.277,0.479l0.614,1.063
	l-0.892,1.541l-0.966-0.001l-0.236,0l-0.578,0.001l-0.288-0.5L275.718-94.352z M260.613-95.895l0.553,0h0.266l0.145-0.001
	l0.815,0.001l0.891,1.542l-0.602,1.041l-0.289,0.499l-0.577,0l-1.201,0.001l-0.891-1.542l0.613-1.062L260.613-95.895z M255.284-80.5
	l-0.288,0.5l-0.601,1.042l-0.813,0l-0.967-0.001l-0.613-1.062l-0.277-0.479l0.276-0.478l0.614-1.062l1.779-0.001L254.996-81
	L255.284-80.5z M263.281-66.646l-0.889,1.542l-0.812,0l-0.152-0.001h-0.272l-0.543,0l-0.275-0.478l-0.613-1.063l0.889-1.541
	l0.81-0.002l0.155,0.001h0.238l0.576,0l0.289,0.5L263.281-66.646z M278.388-65.106l-0.542,0.001l-0.424,0l-0.813-0.001l-0.891-1.542
	l0.603-1.041l0.289-0.5l0.576,0l1.202,0l0.89,1.542l-0.613,1.062L278.388-65.106z M275.406-80.5l-0.289,0.5l-2.376,4.115l-0.288,0.5
	h-0.577l-4.751,0h-0.577l-0.288-0.499L263.884-80l-0.288-0.5l0.289-0.5l2.374-4.114l0.289-0.5h0.576l4.753,0h0.576l0.289,0.5
	L275.117-81L275.406-80.5z M283.717-80.5l0.288-0.5l0.601-1.042l1.781,0.001l0.612,1.062l0.276,0.48L287-80.021l-0.613,1.063
	l-0.965-0.001l-0.815,0L284.005-80L283.717-80.5z"/>
</svg>
