<?xml version="1.0" encoding="utf-8"?>
<!-- Generator: Adobe Illustrator 16.0.0, SVG Export Plug-In . SVG Version: 6.00 Build 0)  -->
<!DOCTYPE svg PUBLIC "-//W3C//DTD SVG 1.1//EN" "http://www.w3.org/Graphics/SVG/1.1/DTD/svg11.dtd">
<svg version="1.1" id="Layer_1" xmlns="http://www.w3.org/2000/svg" xmlns:xlink="http://www.w3.org/1999/xlink" x="0px" y="0px"
	 width="50px" height="50px" viewBox="-315.5 104.5 50 50" enable-background="new -315.5 104.5 50 50" xml:space="preserve">
<path style="fill:white" d="M-275.5,128.75h-6.991l3.118-3.118c0.293-0.293,0.293-0.768,0-1.061s-0.768-0.293-1.061,0l-3.471,3.472
	c-0.227-1.026-0.687-1.965-1.322-2.758l6.267-6.265c0.293-0.293,0.293-0.768,0-1.061s-0.768-0.293-1.061,0l-6.267,6.265
	c-0.845-0.676-1.853-1.152-2.957-1.36l3.843-3.844c0.293-0.293,0.293-0.768,0-1.061s-0.768-0.293-1.061,0l-3.29,3.29v-6.75
	c0-0.414-0.336-0.75-0.75-0.75s-0.75,0.336-0.75,0.75v6.75l-3.29-3.29c-0.293-0.293-0.768-0.293-1.061,0s-0.293,0.768,0,1.061
	l3.843,3.844c-1.104,0.208-2.112,0.685-2.957,1.36l-6.267-6.265c-0.293-0.293-0.768-0.293-1.061,0s-0.293,0.768,0,1.061l6.267,6.265
	c-0.635,0.793-1.095,1.731-1.322,2.758l-3.471-3.472c-0.293-0.293-0.768-0.293-1.061,0s-0.293,0.768,0,1.061l3.118,3.118h-6.991
	c-0.414,0-0.75,0.336-0.75,0.75s0.336,0.75,0.75,0.75h6.991l-3.118,3.118c-0.293,0.293-0.293,0.768,0,1.061
	c0.146,0.146,0.338,0.22,0.53,0.22s0.384-0.073,0.53-0.22l3.471-3.472c0.227,1.026,0.686,1.964,1.321,2.757l-6.266,6.266
	c-0.293,0.293-0.293,0.768,0,1.061c0.146,0.146,0.338,0.22,0.53,0.22s0.384-0.073,0.53-0.22l6.266-6.266
	c0.845,0.676,1.853,1.153,2.957,1.361l-3.843,3.844c-0.293,0.293-0.293,0.768,0,1.061s0.768,0.293,1.061,0l3.29-3.29v6.75
	c0,0.414,0.336,0.75,0.75,0.75s0.75-0.336,0.75-0.75v-6.75l3.29,3.29c0.146,0.146,0.338,0.22,0.53,0.22s0.384-0.073,0.53-0.22
	c0.293-0.293,0.293-0.768,0-1.061l-3.843-3.844c1.104-0.208,2.112-0.686,2.957-1.361l6.266,6.266c0.146,0.146,0.338,0.22,0.53,0.22
	s0.384-0.073,0.53-0.22c0.293-0.293,0.293-0.768,0-1.061l-6.266-6.266c0.635-0.793,1.095-1.73,1.321-2.757l3.471,3.472
	c0.146,0.146,0.338,0.22,0.53,0.22s0.384-0.073,0.53-0.22c0.293-0.293,0.293-0.768,0-1.061l-3.118-3.118h6.991
	c0.414,0,0.75-0.336,0.75-0.75S-275.086,128.75-275.5,128.75z M-286.351,132.691c-0.278,0.36-0.598,0.681-0.958,0.958
	c-0.699,0.539-1.529,0.9-2.441,1.032c-0.247,0.036-0.493,0.076-0.75,0.076s-0.503-0.04-0.75-0.076
	c-0.913-0.132-1.743-0.493-2.441-1.032c-0.36-0.277-0.68-0.598-0.958-0.958c-0.539-0.698-0.901-1.528-1.033-2.441
	c-0.03-0.211-0.06-0.423-0.064-0.641c-0.001-0.037-0.011-0.072-0.011-0.109s0.01-0.072,0.011-0.109
	c0.004-0.218,0.034-0.43,0.064-0.641c0.132-0.913,0.495-1.744,1.034-2.442c0.277-0.36,0.598-0.68,0.957-0.957
	c0.699-0.539,1.529-0.9,2.441-1.032c0.247-0.036,0.493-0.076,0.75-0.076s0.503,0.04,0.75,0.076c0.912,0.132,1.743,0.493,2.441,1.032
	c0.359,0.277,0.68,0.597,0.957,0.957c0.54,0.698,0.902,1.529,1.034,2.442c0.03,0.211,0.06,0.423,0.064,0.641
	c0.001,0.037,0.011,0.072,0.011,0.109s-0.01,0.072-0.011,0.109c-0.004,0.218-0.034,0.43-0.064,0.641
	C-285.45,131.163-285.812,131.993-286.351,132.691z"/>
</svg>
