<?xml version="1.0" encoding="utf-8"?>
<!-- Generator: Adobe Illustrator 16.0.0, SVG Export Plug-In . SVG Version: 6.00 Build 0)  -->
<!DOCTYPE svg PUBLIC "-//W3C//DTD SVG 1.1//EN" "http://www.w3.org/Graphics/SVG/1.1/DTD/svg11.dtd">
<svg version="1.1" id="Layer_1" xmlns="http://www.w3.org/2000/svg" xmlns:xlink="http://www.w3.org/1999/xlink" x="0px" y="0px"
	 width="50px" height="50px" viewBox="-105.5 -245.5 50 50" enable-background="new -105.5 -245.5 50 50" xml:space="preserve">
<path style="fill:white" d="M-84.184-210.937c-0.359,0-0.65-0.291-0.65-0.65v-3.66l-3.785,3.785c-0.127,0.127-0.293,0.19-0.459,0.19
	s-0.333-0.063-0.459-0.19c-0.254-0.254-0.254-0.665,0-0.919l3.785-3.785h-3.66c-0.359,0-0.65-0.291-0.65-0.65s0.291-0.65,0.65-0.65
	h5.229h0.65v0.65v5.229C-83.534-211.228-83.825-210.937-84.184-210.937z M-77.465-229.412v5.229v0.65h0.65h5.229
	c0.359,0,0.65-0.291,0.65-0.65s-0.291-0.65-0.65-0.65h-3.66l3.785-3.785c0.254-0.254,0.254-0.665,0-0.919s-0.665-0.254-0.919,0
	l-3.785,3.785v-3.66c0-0.359-0.291-0.65-0.65-0.65S-77.465-229.771-77.465-229.412z M-89.728-224.045c0,0.359,0.291,0.65,0.65,0.65
	l5.682-0.001v-5.682c0-0.359-0.291-0.65-0.65-0.65s-0.65,0.291-0.65,0.65v3.463l-3.923-3.923c-0.254-0.254-0.665-0.254-0.919,0
	s-0.254,0.665,0,0.919l3.923,3.923l-3.463,0.001C-89.437-224.695-89.728-224.404-89.728-224.045z M-71.271-216.954
	c0-0.359-0.291-0.65-0.65-0.65h-5.033h-0.65v0.65v5.033c0,0.359,0.291,0.65,0.65,0.65s0.65-0.291,0.65-0.65v-3.464l3.924,3.924
	c0.127,0.127,0.293,0.19,0.459,0.19s0.333-0.063,0.459-0.19c0.254-0.254,0.254-0.665,0-0.919l-3.924-3.924h3.464
	C-71.562-216.304-71.271-216.595-71.271-216.954z M-64.009-220.5l-3.925,3.925l-3.275-3.275h-8.64v8.641l3.274,3.274l-3.925,3.925
	l-3.924-3.925l3.275-3.276v-8.639h-8.64l-3.275,3.275l-3.925-3.925l3.925-3.924l3.275,3.274h8.64v-8.639l-3.275-3.276l3.924-3.925
	l3.925,3.925l-3.274,3.274v8.641h8.64l3.275-3.274L-64.009-220.5z M-90.979-220.5l-0.65-0.65l-1.437-1.436l-1.437,1.436l-0.65,0.65
	l0.65,0.65l1.437,1.437l1.437-1.437L-90.979-220.5z M-79.85-209.37l-0.651-0.651l-0.649,0.649l-1.437,1.438l1.437,1.438l0.649,0.649
	l0.651-0.651l1.436-1.436L-79.85-209.37z M-79.85-231.63l1.436-1.436l-1.436-1.436l-0.651-0.651l-0.649,0.649l-1.437,1.438
	l1.437,1.438l0.649,0.649L-79.85-231.63z M-66.498-219.85l0.65-0.65l-0.65-0.65l-1.437-1.436l-1.437,1.436l-0.65,0.65l0.65,0.65
	l1.437,1.437L-66.498-219.85z"/>
</svg>
