<?xml version="1.0" encoding="utf-8"?>
<!-- Generator: Adobe Illustrator 16.0.0, SVG Export Plug-In . SVG Version: 6.00 Build 0)  -->
<!DOCTYPE svg PUBLIC "-//W3C//DTD SVG 1.1//EN" "http://www.w3.org/Graphics/SVG/1.1/DTD/svg11.dtd">
<svg version="1.1" id="Layer_1" xmlns="http://www.w3.org/2000/svg" xmlns:xlink="http://www.w3.org/1999/xlink" x="0px" y="0px"
	 width="50px" height="50px" viewBox="34.5 34.5 50 50" enable-background="new 34.5 34.5 50 50" xml:space="preserve">
<path style="fill:white" d="M74.5,59h-3.187l1.602-1.602c0.195-0.195,0.195-0.512,0-0.707s-0.512-0.195-0.707,0L69.899,59h-3.487
	c-0.11-1.537-0.721-2.935-1.673-4.033l5.721-5.721c0.195-0.195,0.195-0.512,0-0.707s-0.512-0.195-0.707,0l-5.721,5.721
	c-1.099-0.951-2.496-1.562-4.032-1.672v-3.229l2.306-2.307c0.195-0.195,0.195-0.512,0-0.707s-0.512-0.195-0.707,0L60,47.945V44.5
	c0-0.276-0.224-0.5-0.5-0.5S59,44.224,59,44.5v3.445l-1.602-1.6c-0.195-0.195-0.512-0.195-0.707,0s-0.195,0.512,0,0.707L59,49.359
	v3.229c-1.536,0.11-2.934,0.721-4.032,1.672l-5.721-5.721c-0.195-0.195-0.512-0.195-0.707,0s-0.195,0.512,0,0.707l5.721,5.721
	c-0.952,1.099-1.562,2.496-1.673,4.033h-2.972l-2.309-2.307c-0.195-0.195-0.512-0.195-0.707,0s-0.195,0.512,0,0.707l1.601,1.6H44.5
	c-0.276,0-0.5,0.224-0.5,0.5s0.224,0.5,0.5,0.5h3.702l-1.602,1.602c-0.195,0.195-0.195,0.512,0,0.707
	c0.098,0.098,0.226,0.146,0.354,0.146s0.256-0.049,0.354-0.146L49.616,60h2.972c0.11,1.536,0.721,2.934,1.672,4.032l-5.72,5.72
	c-0.195,0.195-0.195,0.512,0,0.707c0.098,0.098,0.226,0.146,0.354,0.146s0.256-0.049,0.354-0.146l5.72-5.72
	c1.099,0.952,2.496,1.562,4.033,1.673v3.231l-2.306,2.308c-0.195,0.195-0.195,0.512,0,0.707c0.098,0.098,0.226,0.146,0.354,0.146
	s0.256-0.049,0.354-0.146L59,71.058V74.5c0,0.276,0.224,0.5,0.5,0.5s0.5-0.224,0.5-0.5v-3.443l1.602,1.602
	c0.195,0.195,0.512,0.195,0.707,0s0.195-0.512,0-0.707L60,69.643v-3.23c1.537-0.11,2.935-0.721,4.033-1.673l5.72,5.72
	c0.098,0.098,0.226,0.146,0.354,0.146s0.256-0.049,0.354-0.146c0.195-0.195,0.195-0.512,0-0.707l-5.72-5.72
	c0.951-1.099,1.562-2.496,1.672-4.032H69.9l2.308,2.305c0.098,0.098,0.226,0.146,0.354,0.146s0.256-0.049,0.354-0.146
	c0.195-0.195,0.195-0.513,0-0.707L71.314,60H74.5c0.276,0,0.5-0.224,0.5-0.5S74.776,59,74.5,59z M65.412,60
	c-0.105,1.262-0.605,2.411-1.378,3.326c-0.216,0.255-0.452,0.491-0.707,0.707c-0.915,0.773-2.065,1.273-3.327,1.379
	c-0.165,0.014-0.331,0.025-0.5,0.025s-0.335-0.012-0.5-0.025c-1.262-0.105-2.412-0.605-3.327-1.379
	c-0.255-0.216-0.491-0.452-0.707-0.707c-0.772-0.915-1.272-2.064-1.378-3.326c-0.014-0.165-0.025-0.331-0.025-0.5
	s0.012-0.335,0.025-0.5c0.105-1.262,0.605-2.412,1.379-3.327c0.216-0.255,0.452-0.491,0.707-0.707
	c0.915-0.772,2.064-1.272,3.326-1.378c0.165-0.014,0.331-0.025,0.5-0.025s0.335,0.012,0.5,0.025
	c1.262,0.105,2.411,0.605,3.326,1.378c0.255,0.216,0.491,0.452,0.707,0.707c0.773,0.915,1.273,2.065,1.379,3.327V60z"/>
<path style="fill:white" d="M64.146,59c-0.099-0.918-0.456-1.75-1.007-2.433c-0.211-0.261-0.446-0.496-0.708-0.706
	c-0.682-0.551-1.514-0.907-2.431-1.006c-0.166-0.019-0.329-0.051-0.5-0.051s-0.334,0.032-0.5,0.051
	c-0.917,0.099-1.749,0.455-2.431,1.006c-0.262,0.21-0.497,0.445-0.708,0.706c-0.551,0.683-0.908,1.515-1.007,2.433
	c-0.019,0.166-0.051,0.329-0.051,0.5s0.032,0.334,0.051,0.5c0.099,0.917,0.455,1.749,1.006,2.432
	c0.211,0.261,0.446,0.496,0.707,0.707c0.683,0.552,1.515,0.909,2.433,1.008c0.166,0.019,0.329,0.051,0.5,0.051
	s0.334-0.032,0.5-0.051c0.918-0.099,1.75-0.456,2.433-1.008c0.261-0.211,0.496-0.446,0.707-0.707
	c0.551-0.683,0.907-1.515,1.006-2.432V59z M63.146,60c-0.088,0.644-0.337,1.23-0.713,1.725c-0.203,0.268-0.439,0.504-0.706,0.708
	c-0.495,0.376-1.082,0.626-1.727,0.714c-0.165,0.022-0.329,0.051-0.5,0.051s-0.335-0.028-0.5-0.051
	c-0.645-0.088-1.231-0.338-1.727-0.714c-0.267-0.204-0.503-0.44-0.706-0.708c-0.376-0.494-0.625-1.081-0.713-1.725
	c-0.022-0.165-0.051-0.329-0.051-0.5s0.028-0.335,0.051-0.5c0.088-0.644,0.338-1.231,0.714-1.726
	c0.203-0.267,0.44-0.504,0.707-0.707c0.494-0.375,1.081-0.624,1.725-0.712c0.165-0.022,0.329-0.051,0.5-0.051s0.335,0.028,0.5,0.051
	c0.644,0.088,1.23,0.337,1.725,0.712c0.267,0.203,0.504,0.44,0.707,0.707c0.376,0.494,0.626,1.082,0.714,1.726
	c0.022,0.165,0.051,0.329,0.051,0.5S63.168,59.835,63.146,60z"/>
</svg>
