<?xml version="1.0" encoding="utf-8"?>
<!-- Generator: Adobe Illustrator 16.0.0, SVG Export Plug-In . SVG Version: 6.00 Build 0)  -->
<!DOCTYPE svg PUBLIC "-//W3C//DTD SVG 1.1//EN" "http://www.w3.org/Graphics/SVG/1.1/DTD/svg11.dtd">
<svg version="1.1" id="Layer_1" xmlns="http://www.w3.org/2000/svg" xmlns:xlink="http://www.w3.org/1999/xlink" x="0px" y="0px"
	 width="50px" height="50px" viewBox="244.5 34.5 50 50" enable-background="new 244.5 34.5 50 50" xml:space="preserve">
<path style="fill:white" d="M285,59.5c0-0.276-0.224-0.5-0.5-0.5h-1.247l1.601-1.602c0.195-0.195,0.195-0.512,0-0.707s-0.512-0.195-0.707,0L281.839,59
	h-0.887l1.151-1.152c0.195-0.195,0.195-0.512,0-0.707s-0.512-0.195-0.707,0L279.539,59h-3.127c-0.11-1.537-0.721-2.935-1.673-4.033
	l5.721-5.721c0.195-0.195,0.195-0.512,0-0.707s-0.512-0.195-0.707,0l-5.721,5.721c-1.099-0.951-2.496-1.562-4.032-1.672V49.46
	l1.856-1.856c0.195-0.195,0.195-0.512,0-0.707s-0.512-0.195-0.707,0L270,48.046v-0.885l2.306-2.308c0.195-0.195,0.195-0.512,0-0.707
	s-0.512-0.195-0.707,0l-1.599,1.6V44.5c0-0.276-0.224-0.5-0.5-0.5s-0.5,0.224-0.5,0.5v1.248l-1.601-1.602
	c-0.195-0.195-0.512-0.195-0.707,0s-0.195,0.512,0,0.707l2.308,2.31v0.885l-1.151-1.151c-0.195-0.195-0.512-0.195-0.707,0
	s-0.195,0.512,0,0.707L269,49.462v3.126c-1.536,0.11-2.934,0.721-4.032,1.672l-5.721-5.721c-0.195-0.195-0.512-0.195-0.707,0
	s-0.195,0.512,0,0.707l5.721,5.721c-0.952,1.099-1.562,2.496-1.673,4.033h-3.125l-1.859-1.857c-0.195-0.195-0.512-0.195-0.707,0
	s-0.195,0.512,0,0.707l1.151,1.15h-0.886l-2.309-2.307c-0.195-0.195-0.512-0.195-0.707,0s-0.195,0.512,0,0.707l1.602,1.6H254.5
	c-0.276,0-0.5,0.224-0.5,0.5s0.224,0.5,0.5,0.5h1.248l-1.602,1.602c-0.195,0.195-0.195,0.512,0,0.707
	c0.098,0.098,0.226,0.146,0.354,0.146s0.256-0.049,0.354-0.146L257.162,60h0.886l-1.151,1.15c-0.195,0.195-0.195,0.512,0,0.707
	c0.098,0.098,0.226,0.146,0.354,0.146s0.256-0.049,0.354-0.146L259.463,60h3.125c0.11,1.536,0.721,2.934,1.672,4.032l-5.72,5.72
	c-0.195,0.195-0.195,0.512,0,0.707c0.098,0.098,0.226,0.146,0.354,0.146s0.256-0.049,0.354-0.146l5.72-5.72
	c1.099,0.952,2.496,1.562,4.033,1.673v3.125l-1.856,1.859c-0.195,0.195-0.195,0.513,0,0.707c0.195,0.195,0.512,0.195,0.707,0
	L269,70.951v0.887l-2.306,2.309c-0.195,0.195-0.195,0.513,0,0.707c0.098,0.098,0.226,0.146,0.354,0.146s0.256-0.049,0.354-0.146
	L269,73.252V74.5c0,0.276,0.224,0.5,0.5,0.5s0.5-0.224,0.5-0.5v-1.247l1.601,1.601c0.195,0.195,0.512,0.195,0.707,0
	s0.195-0.512,0-0.707L270,71.839v-0.887l1.151,1.151c0.098,0.098,0.226,0.146,0.354,0.146s0.256-0.049,0.354-0.146
	c0.195-0.195,0.195-0.512,0-0.707L270,69.538v-3.126c1.537-0.11,2.935-0.721,4.033-1.673l5.72,5.72
	c0.098,0.098,0.226,0.146,0.354,0.146s0.256-0.049,0.354-0.146c0.195-0.195,0.195-0.512,0-0.707l-5.72-5.72
	c0.951-1.099,1.562-2.496,1.672-4.032h3.127l1.857,1.855c0.098,0.098,0.226,0.146,0.354,0.146s0.256-0.049,0.354-0.146
	c0.195-0.195,0.195-0.512,0-0.707L280.954,60h0.886l2.307,2.305c0.098,0.098,0.226,0.146,0.354,0.146s0.256-0.049,0.354-0.146
	c0.195-0.195,0.195-0.512,0-0.707l-1.6-1.598h1.246C284.776,60,285,59.776,285,59.5z M275.412,60
	c-0.105,1.262-0.605,2.411-1.378,3.326c-0.216,0.255-0.452,0.491-0.707,0.707c-0.915,0.773-2.065,1.273-3.327,1.379
	c-0.165,0.014-0.331,0.025-0.5,0.025s-0.335-0.012-0.5-0.025c-1.262-0.105-2.412-0.605-3.327-1.379
	c-0.255-0.216-0.491-0.452-0.707-0.707c-0.772-0.915-1.272-2.064-1.378-3.326c-0.014-0.165-0.025-0.331-0.025-0.5
	s0.012-0.335,0.025-0.5c0.105-1.262,0.605-2.412,1.379-3.327c0.216-0.255,0.452-0.491,0.707-0.707
	c0.915-0.772,2.064-1.272,3.326-1.378c0.165-0.014,0.331-0.025,0.5-0.025s0.335,0.012,0.5,0.025
	c1.262,0.105,2.411,0.605,3.326,1.378c0.255,0.216,0.491,0.452,0.707,0.707c0.773,0.915,1.273,2.065,1.379,3.327
	c0.014,0.165,0.025,0.331,0.025,0.5S275.426,59.835,275.412,60z M273.139,56.567c-0.211-0.261-0.446-0.496-0.707-0.707
	c-0.682-0.551-1.515-0.908-2.432-1.007c-0.166-0.019-0.329-0.051-0.5-0.051s-0.334,0.032-0.5,0.051
	c-0.917,0.099-1.75,0.456-2.432,1.007c-0.261,0.211-0.496,0.446-0.707,0.707c-0.551,0.683-0.908,1.515-1.007,2.433
	c-0.019,0.166-0.051,0.329-0.051,0.5s0.032,0.334,0.051,0.5c0.099,0.917,0.456,1.749,1.007,2.431
	c0.21,0.262,0.445,0.497,0.707,0.707c0.682,0.552,1.514,0.908,2.432,1.007c0.166,0.019,0.329,0.051,0.5,0.051s0.334-0.032,0.5-0.051
	c0.918-0.099,1.75-0.455,2.432-1.007c0.262-0.21,0.497-0.445,0.707-0.707c0.551-0.682,0.908-1.514,1.007-2.431
	c0.019-0.166,0.051-0.329,0.051-0.5s-0.032-0.334-0.051-0.5C274.047,58.082,273.689,57.25,273.139,56.567z M273.146,60
	c-0.088,0.644-0.337,1.23-0.713,1.725c-0.203,0.267-0.44,0.504-0.707,0.707c-0.494,0.376-1.082,0.625-1.726,0.713
	c-0.165,0.022-0.329,0.051-0.5,0.051s-0.335-0.028-0.5-0.051c-0.644-0.088-1.231-0.337-1.726-0.713
	c-0.267-0.203-0.504-0.44-0.707-0.707c-0.376-0.494-0.625-1.081-0.713-1.725c-0.022-0.165-0.051-0.329-0.051-0.5
	s0.028-0.335,0.051-0.5c0.088-0.645,0.337-1.231,0.714-1.726c0.203-0.268,0.439-0.504,0.707-0.707
	c0.494-0.377,1.081-0.626,1.725-0.714c0.165-0.022,0.329-0.051,0.5-0.051s0.335,0.028,0.5,0.051c0.644,0.088,1.23,0.337,1.725,0.714
	c0.268,0.203,0.504,0.439,0.707,0.707c0.377,0.494,0.626,1.081,0.714,1.726c0.022,0.165,0.051,0.329,0.051,0.5
	S273.168,59.835,273.146,60z"/>
</svg>
