<?xml version="1.0" encoding="utf-8"?>
<!-- Generator: Adobe Illustrator 16.0.0, SVG Export Plug-In . SVG Version: 6.00 Build 0)  -->
<!DOCTYPE svg PUBLIC "-//W3C//DTD SVG 1.1//EN" "http://www.w3.org/Graphics/SVG/1.1/DTD/svg11.dtd">
<svg version="1.1" id="Layer_1" xmlns="http://www.w3.org/2000/svg" xmlns:xlink="http://www.w3.org/1999/xlink" x="0px" y="0px"
	 width="50px" height="50px" viewBox="-175.5 244.5 50 50" enable-background="new -175.5 244.5 50 50" xml:space="preserve">
<path style="fill:white" d="M-137.804,276.253l-5.245-3.027l5.726-1.533c0.267-0.072,0.425-0.346,0.354-0.612c-0.071-0.268-0.344-0.421-0.612-0.354
	l-6.692,1.793l-1.904-1.1l4.352-1.919l-4.352-1.919l1.905-1.1l6.689,1.795c0.043,0.011,0.087,0.017,0.13,0.017
	c0.221,0,0.422-0.147,0.482-0.37c0.072-0.267-0.086-0.541-0.354-0.613l-5.723-1.535l5.24-3.025l1.728,0.997l2.227-1.285l-0.001-2.57
	l-2.225-1.286l-2.227,1.285v1.993l-5.244,3.027l1.535-5.727c0.071-0.268-0.087-0.541-0.354-0.613
	c-0.267-0.063-0.541,0.088-0.612,0.354l-1.794,6.693l-1.902,1.099l0.513-4.729l-3.836,2.809v-2.202l4.897-4.896
	c0.195-0.195,0.195-0.512,0-0.707s-0.512-0.195-0.707,0l-4.189,4.188v-6.049l1.725-0.996l0.001-2.571l-2.226-1.285l-2.228,1.285
	l0.002,2.57l1.726,0.996v6.054l-4.193-4.193c-0.195-0.195-0.512-0.195-0.707,0s-0.195,0.512,0,0.707l4.9,4.9v2.199l-3.837-2.809
	l0.514,4.728l-1.906-1.1l-1.792-6.689c-0.071-0.267-0.345-0.42-0.612-0.354c-0.267,0.072-0.425,0.346-0.354,0.612l1.534,5.725
	l-5.241-3.026l-0.001-1.993l-2.227-1.286l-2.226,1.286v2.57l2.226,1.285l1.728-0.997l5.241,3.026l-5.725,1.534
	c-0.267,0.072-0.425,0.346-0.354,0.613c0.06,0.223,0.262,0.37,0.482,0.37c0.043,0,0.086-0.006,0.13-0.017l6.691-1.794l1.905,1.101
	l-4.353,1.918l4.354,1.919l-1.907,1.101l-6.693-1.794c-0.266-0.065-0.54,0.088-0.612,0.354c-0.071,0.268,0.087,0.541,0.354,0.613
	l5.727,1.534l-5.242,3.026l-1.727-0.996l-2.227,1.284l0.001,2.571l2.226,1.285l2.227-1.285v-1.994l5.239-3.024l-1.534,5.723
	c-0.071,0.268,0.087,0.541,0.354,0.613c0.043,0.011,0.087,0.017,0.13,0.017c0.221,0,0.422-0.147,0.482-0.37l1.792-6.689l1.908-1.102
	l-0.514,4.728l3.837-2.809v2.196l-4.9,4.901c-0.195,0.195-0.195,0.512,0,0.707c0.098,0.098,0.226,0.146,0.354,0.146
	s0.256-0.049,0.354-0.146l4.192-4.194v6.057l-1.726,0.995l0.001,2.572l2.227,1.283l2.226-1.285v-2.569L-150,283.87v-6.052
	l4.19,4.188c0.195,0.195,0.512,0.195,0.707,0s0.195-0.512,0-0.707l-4.897-4.895v-2.201l3.837,2.809l-0.514-4.728l1.904,1.1
	l1.793,6.691c0.06,0.223,0.262,0.37,0.482,0.37c0.043,0,0.086-0.006,0.13-0.017c0.267-0.072,0.425-0.346,0.354-0.613l-1.534-5.725
	l5.245,3.028v1.992l2.226,1.286l2.226-1.286v-2.57l-2.226-1.285L-137.804,276.253z M-147.402,274.865l-2.598-1.902l-0.5-0.365
	l-0.5,0.366l-2.598,1.902l0.348-3.201l0.067-0.616l-0.566-0.25l-2.947-1.299l2.946-1.299l0.567-0.25l-0.067-0.615l-0.348-3.201
	l2.598,1.902l0.5,0.365l0.5-0.366l2.598-1.902l-0.348,3.201l-0.067,0.616l0.566,0.25l2.946,1.299l-2.946,1.3l-0.567,0.25
	l0.067,0.615L-147.402,274.865z"/>
</svg>
