<?xml version="1.0" encoding="utf-8"?>
<!-- Generator: Adobe Illustrator 16.0.0, SVG Export Plug-In . SVG Version: 6.00 Build 0)  -->
<!DOCTYPE svg PUBLIC "-//W3C//DTD SVG 1.1//EN" "http://www.w3.org/Graphics/SVG/1.1/DTD/svg11.dtd">
<svg version="1.1" id="Layer_1" xmlns="http://www.w3.org/2000/svg" xmlns:xlink="http://www.w3.org/1999/xlink" x="0px" y="0px"
	 width="50px" height="50px" viewBox="314.5 -35.5 50 50" enable-background="new 314.5 -35.5 50 50" xml:space="preserve">
<g>
	<path style="fill:white" d="M356-11h-3.752l1.406-1.406c0.195-0.195,0.195-0.512,0-0.707s-0.512-0.195-0.707,0L350.834-11h-3.59l-1.882-4.656
		l2.624-2.625c0.195-0.195,0.195-0.512,0-0.707s-0.512-0.195-0.707,0l-2.657,2.658L340-18.29v-3.545l2.109-2.111
		c0.195-0.195,0.195-0.512,0-0.707c-0.195-0.195-0.512-0.195-0.707,0L340-23.249V-27c0-0.276-0.224-0.5-0.5-0.5S339-27.276,339-27
		v3.751l-1.404-1.404c-0.195-0.195-0.512-0.195-0.707,0s-0.195,0.512,0,0.707L339-21.834v3.59l-4.654,1.882l-2.625-2.625
		c-0.195-0.195-0.512-0.195-0.707,0s-0.195,0.512,0,0.707l2.657,2.657L331.708-11h-3.544l-2.111-2.109
		c-0.195-0.195-0.512-0.195-0.707,0s-0.195,0.512,0,0.707L326.749-11H323c-0.276,0-0.5,0.224-0.5,0.5s0.224,0.5,0.5,0.5h3.751
		l-1.405,1.406c-0.195,0.195-0.195,0.512,0,0.707c0.098,0.098,0.226,0.146,0.354,0.146s0.256-0.049,0.354-0.146L328.164-10h3.592
		l1.882,4.656l-2.624,2.624c-0.195,0.195-0.195,0.512,0,0.707c0.098,0.098,0.226,0.146,0.354,0.146s0.256-0.049,0.354-0.146
		l2.656-2.657L339-2.71v3.544l-2.111,2.111c-0.195,0.195-0.195,0.512,0,0.707s0.512,0.195,0.707,0L339,2.249V6
		c0,0.276,0.224,0.5,0.5,0.5S340,6.276,340,6V2.249l1.404,1.404c0.098,0.098,0.226,0.146,0.354,0.146s0.256-0.049,0.354-0.146
		c0.195-0.195,0.195-0.512,0-0.707L340,0.834v-3.59l4.654-1.882l2.625,2.625c0.098,0.098,0.226,0.146,0.354,0.146
		s0.256-0.049,0.354-0.146c0.195-0.195,0.195-0.512,0-0.707l-2.658-2.659L347.292-10h3.542l2.113,2.11
		c0.098,0.097,0.226,0.146,0.354,0.146s0.256-0.049,0.354-0.147c0.195-0.195,0.195-0.512,0-0.707L352.25-10H356
		c0.276,0,0.5-0.224,0.5-0.5S356.276-11,356-11z M346.205-10l-1.639,3.859l-0.236,0.556l-0.443,0.179L340-3.834l-0.558,0.226
		L339-3.796l-3.86-1.636l-0.555-0.235l-0.18-0.444L332.834-10l-0.227-0.56l0.187-0.44l1.639-3.861l0.235-0.554l0.444-0.18
		L339-17.166l0.558-0.226L340-17.204l3.859,1.637l0.556,0.236l0.18,0.444L346.166-11l0.227,0.56L346.205-10z"/>
	<path style="fill:white" d="M343.716-14.01l-0.184-0.455l-0.544-0.231L340-15.962l-0.452-0.192L339-15.933l-3.01,1.216l-0.455,0.184l-0.231,0.544
		L334.035-11l-0.191,0.452L334.065-10l1.218,3.01l0.185,0.456l0.544,0.23L339-5.037l0.452,0.191L340-5.067l3.009-1.216l0.454-0.184
		l0.231-0.545L344.963-10l0.191-0.451L344.933-11L343.716-14.01z M343.877-10l-0.944,2.226l-0.228,0.536l-0.464,0.188L340-6.145
		l-0.538,0.217L339-6.124l-2.226-0.943l-0.535-0.227l-0.188-0.464L335.145-10l-0.219-0.54l0.195-0.46l0.945-2.227l0.227-0.534
		l0.465-0.188L339-14.855l0.538-0.217L340-14.876l2.226,0.944l0.535,0.227l0.188,0.464L343.854-11l0.218,0.539L343.877-10z"/>
</g>
</svg>
