<?xml version="1.0" encoding="utf-8"?>
<!-- Generator: Adobe Illustrator 16.0.0, SVG Export Plug-In . SVG Version: 6.00 Build 0)  -->
<!DOCTYPE svg PUBLIC "-//W3C//DTD SVG 1.1//EN" "http://www.w3.org/Graphics/SVG/1.1/DTD/svg11.dtd">
<svg version="1.1" id="Layer_1" xmlns="http://www.w3.org/2000/svg" xmlns:xlink="http://www.w3.org/1999/xlink" x="0px" y="0px"
	 width="50px" height="50px" viewBox="34.5 -35.5 50 50" enable-background="new 34.5 -35.5 50 50" xml:space="preserve">
<path style="fill:white" d="M71.814-14.597c-0.195-0.194-0.512-0.195-0.707,0c-0.195,0.196-0.195,0.512,0,0.708L74.001-11H60.707l2.489-2.489
	l3.854-0.003c0.276,0,0.5-0.224,0.5-0.5c0-0.276-0.224-0.5-0.5-0.5l-2.854,0.002l4.699-4.7c0.195-0.195,0.195-0.512,0-0.707
	s-0.512-0.195-0.707,0l-4.699,4.699v-2.853c0-0.276-0.224-0.5-0.5-0.5s-0.5,0.224-0.5,0.5v3.853L60-11.708v-13.293l2.891,2.894
	c0.195,0.195,0.512,0.195,0.707,0c0.195-0.195,0.195-0.512,0-0.707L59.5-26.917l-4.096,4.104c-0.195,0.195-0.195,0.512,0,0.707
	c0.098,0.097,0.226,0.146,0.354,0.146s0.256-0.049,0.354-0.147L59-25.001v13.294l-2.489-2.489l-0.003-3.855
	c0-0.276-0.224-0.5-0.5-0.5c-0.276,0-0.5,0.224-0.5,0.5l0.003,2.854l-4.701-4.701c-0.195-0.195-0.512-0.195-0.707,0
	s-0.195,0.512,0,0.707l4.7,4.7h-2.854c-0.276,0-0.5,0.224-0.5,0.5s0.224,0.5,0.5,0.5h3.854l2.49,2.49H44.999l2.892-2.891
	c0.195-0.195,0.195-0.512,0-0.707s-0.512-0.195-0.707,0l-4.1,4.099l4.102,4.095c0.098,0.097,0.226,0.146,0.354,0.146
	s0.256-0.049,0.354-0.147c0.195-0.195,0.195-0.512,0-0.707L44.999-10h13.294l-2.49,2.489l-3.854,0.003c-0.276,0-0.5,0.224-0.5,0.5
	c0,0.276,0.224,0.5,0.5,0.5l2.854-0.002l-4.7,4.7c-0.195,0.195-0.195,0.512,0,0.707c0.098,0.098,0.226,0.146,0.354,0.146
	s0.256-0.049,0.354-0.146l4.7-4.7v2.854c0,0.276,0.224,0.5,0.5,0.5s0.5-0.224,0.5-0.5v-3.854L59-9.294V4.002L56.109,1.11
	c-0.195-0.195-0.512-0.195-0.707,0s-0.195,0.512,0,0.707l4.098,4.1l4.096-4.104c0.195-0.195,0.195-0.512,0-0.707
	c-0.195-0.194-0.512-0.195-0.707,0.001L60,4.001V-9.293l2.488,2.489L62.49-2.95c0,0.276,0.224,0.5,0.5,0.5s0.5-0.224,0.5-0.5
	l-0.002-2.853l4.701,4.701c0.098,0.098,0.226,0.146,0.354,0.146s0.256-0.049,0.354-0.146c0.195-0.195,0.195-0.512,0-0.707
	l-4.699-4.7h2.854c0.276,0,0.5-0.224,0.5-0.5s-0.224-0.5-0.5-0.5h-3.854L60.707-10h13.295l-2.893,2.892
	c-0.195,0.195-0.195,0.512,0,0.707c0.098,0.098,0.226,0.146,0.354,0.146s0.256-0.049,0.354-0.146l4.1-4.099L71.814-14.597z"/>
</svg>
