<?xml version="1.0" encoding="utf-8"?>
<!-- Generator: Adobe Illustrator 16.0.0, SVG Export Plug-In . SVG Version: 6.00 Build 0)  -->
<!DOCTYPE svg PUBLIC "-//W3C//DTD SVG 1.1//EN" "http://www.w3.org/Graphics/SVG/1.1/DTD/svg11.dtd">
<svg version="1.1" id="Layer_1" xmlns="http://www.w3.org/2000/svg" xmlns:xlink="http://www.w3.org/1999/xlink" x="0px" y="0px"
	 width="50px" height="50px" viewBox="34.5 -315.5 50 50" enable-background="new 34.5 -315.5 50 50" xml:space="preserve">
<path style="fill:white" d="M70.941-283.553H68l-2.205-2.206h4.41c0.414,0,0.75-0.336,0.75-0.75s-0.336-0.75-0.75-0.75h-4.643v-7.437h5.057
	c0.414,0,0.75-0.336,0.75-0.75s-0.336-0.75-0.75-0.75h-4.654l1.251-1.251h3.55c0.414,0,0.75-0.336,0.75-0.75s-0.336-0.75-0.75-0.75
	h-2.05l2.021-2.021c0.293-0.293,0.293-0.768,0-1.061s-0.768-0.293-1.061,0l-1.907,1.907v-1.821c0-0.414-0.336-0.75-0.75-0.75
	s-0.75,0.336-0.75,0.75v3.321l-1.365,1.365l0.002-4.652c0-0.414-0.336-0.75-0.75-0.75s-0.75,0.335-0.75,0.75l-0.001,5.056l-7.437,0
	v-4.643c0-0.414-0.336-0.75-0.75-0.75s-0.75,0.336-0.75,0.75v4.411l-1.738-1.738v-2.943c0-0.414-0.336-0.75-0.75-0.75
	s-0.75,0.336-0.75,0.75v1.443l-1.706-1.706c-0.293-0.293-0.768-0.293-1.061,0s-0.293,0.768,0,1.061l2.197,2.197h-2.425
	c-0.414,0-0.75,0.336-0.75,0.75s0.336,0.75,0.75,0.75h3.925l1.246,1.246l-4.409,0c-0.414,0-0.75,0.336-0.75,0.75
	s0.336,0.75,0.75,0.75l4.643,0v7.437l-5.055,0c-0.414,0-0.75,0.336-0.75,0.75c0,0.415,0.336,0.75,0.75,0.75l4.65-0.001l-1.857,1.858
	h-3.32c-0.414,0-0.75,0.336-0.75,0.75s0.336,0.75,0.75,0.75h1.82l-1.415,1.415c-0.293,0.293-0.293,0.768,0,1.061
	c0.146,0.146,0.338,0.22,0.53,0.22s0.384-0.073,0.53-0.22l1.53-1.53v2.051c0,0.414,0.336,0.75,0.75,0.75s0.75-0.336,0.75-0.75
	v-3.551l1.742-1.742v4.653c0,0.414,0.336,0.75,0.75,0.75s0.75-0.336,0.75-0.75v-5.056l7.438,0v4.644c0,0.414,0.336,0.75,0.75,0.75
	s0.75-0.336,0.75-0.75v-4.41l1.713,1.713v3.927c0,0.414,0.336,0.75,0.75,0.75s0.75-0.336,0.75-0.75v-2.427l1.729,1.729
	c0.146,0.146,0.338,0.22,0.53,0.22s0.384-0.073,0.53-0.22c0.293-0.293,0.293-0.768,0-1.061l-1.237-1.237h1.441
	c0.414,0,0.75-0.336,0.75-0.75S71.355-283.553,70.941-283.553z M56.2-286.431h-0.403h-0.656v-0.658v-0.404v-6.799v-0.233v-0.828
	h0.828H56.2l6.801,0h0.403h0.658v0.657v0.402v6.803v0.232v0.827h-0.828h-0.233L56.2-286.431z M60.352-279.015v3.694
	c0,0.414-0.336,0.75-0.75,0.75s-0.75-0.336-0.75-0.75v-3.694c0-0.414,0.336-0.75,0.75-0.75S60.352-279.429,60.352-279.015z
	 M48.018-289.849h-3.695c-0.414,0-0.75-0.336-0.75-0.75s0.336-0.75,0.75-0.75h3.695c0.414,0,0.75,0.336,0.75,0.75
	S48.432-289.849,48.018-289.849z M58.652-301.986l0.002-3.694c0-0.414,0.336-0.75,0.75-0.75c0.415,0,0.75,0.336,0.75,0.75
	l-0.002,3.694c0,0.414-0.336,0.75-0.75,0.75C58.987-301.236,58.652-301.572,58.652-301.986z M75.428-290.395
	c0,0.414-0.336,0.75-0.75,0.75l-3.695-0.002c-0.415,0-0.75-0.336-0.75-0.75s0.336-0.75,0.75-0.75l3.695,0.002
	C75.093-291.145,75.428-290.809,75.428-290.395z"/>
</svg>
