<?xml version="1.0" encoding="utf-8"?>
<!-- Generator: Adobe Illustrator 16.0.0, SVG Export Plug-In . SVG Version: 6.00 Build 0)  -->
<!DOCTYPE svg PUBLIC "-//W3C//DTD SVG 1.1//EN" "http://www.w3.org/Graphics/SVG/1.1/DTD/svg11.dtd">
<svg version="1.1" id="Layer_1" xmlns="http://www.w3.org/2000/svg" xmlns:xlink="http://www.w3.org/1999/xlink" x="0px" y="0px"
	 width="50px" height="50px" viewBox="174.5 34.5 50 50" enable-background="new 174.5 34.5 50 50" xml:space="preserve">
<path style="fill:white" d="M214.503,59.125l-5.925-0.05l3.754-3.691c0.197-0.193,0.199-0.51,0.006-0.707c-0.194-0.198-0.511-0.198-0.707-0.006
	l-4.467,4.393l-0.748-0.006c-0.098-1.536-0.695-2.938-1.643-4.044l5.771-5.676c0.197-0.193,0.199-0.51,0.006-0.707
	c-0.194-0.197-0.51-0.199-0.707-0.006l-5.772,5.678c-1.087-0.953-2.475-1.574-4.014-1.708l0.006-0.747l4.465-4.396
	c0.197-0.194,0.199-0.511,0.006-0.707c-0.194-0.198-0.513-0.198-0.707-0.006l-3.752,3.694l0.05-5.928
	c0.002-0.275-0.22-0.502-0.496-0.504c-0.001,0-0.003,0-0.004,0c-0.274,0-0.498,0.221-0.5,0.496l-0.05,5.925l-3.691-3.754
	c-0.193-0.198-0.51-0.198-0.707-0.006c-0.197,0.193-0.199,0.51-0.006,0.707l4.393,4.467l-0.006,0.749
	c-1.534,0.098-2.937,0.696-4.043,1.64l-5.676-5.771c-0.193-0.197-0.51-0.198-0.707-0.006c-0.197,0.193-0.199,0.51-0.006,0.707
	l5.677,5.771c-0.963,1.092-1.587,2.483-1.711,4.016l-0.744-0.006l-4.396-4.465c-0.193-0.198-0.512-0.198-0.707-0.006
	c-0.197,0.194-0.199,0.511-0.006,0.707l3.694,3.752l-5.928-0.05c-0.309,0.019-0.502,0.219-0.504,0.496
	c-0.002,0.275,0.22,0.502,0.496,0.504l5.925,0.05l-3.754,3.691c-0.197,0.193-0.199,0.51-0.006,0.707
	c0.098,0.1,0.228,0.149,0.356,0.149c0.127,0,0.253-0.048,0.351-0.144l4.467-4.393l0.748,0.006c0.098,1.537,0.696,2.939,1.639,4.046
	l-5.768,5.672c-0.197,0.193-0.199,0.51-0.006,0.707c0.098,0.1,0.228,0.149,0.356,0.149c0.127,0,0.253-0.048,0.351-0.144l5.768-5.672
	c1.09,0.961,2.482,1.583,4.019,1.707l-0.006,0.744l-4.465,4.396c-0.197,0.194-0.199,0.511-0.006,0.707
	c0.194,0.197,0.513,0.198,0.707,0.006l3.752-3.694l-0.05,5.928c-0.002,0.275,0.22,0.502,0.496,0.504c0.001,0,0.003,0,0.004,0
	c0.274,0,0.498-0.221,0.5-0.496l0.05-5.925l3.691,3.754c0.098,0.1,0.228,0.149,0.356,0.149c0.127,0,0.253-0.048,0.351-0.144
	c0.197-0.193,0.199-0.51,0.006-0.707l-4.393-4.467l0.006-0.749c1.535-0.099,2.938-0.697,4.044-1.641l5.675,5.77
	c0.098,0.1,0.228,0.149,0.356,0.149c0.127,0,0.253-0.048,0.351-0.144c0.197-0.193,0.199-0.51,0.006-0.707l-5.676-5.771
	c0.962-1.092,1.586-2.483,1.71-4.015l0.744,0.006l4.396,4.465c0.098,0.1,0.228,0.149,0.356,0.149c0.127,0,0.253-0.048,0.351-0.144
	c0.197-0.194,0.199-0.511,0.006-0.707l-3.694-3.752l5.929,0.05c0.001,0,0.003,0,0.004,0c0.274,0,0.498-0.221,0.5-0.496
	S214.779,59.127,214.503,59.125z M205.408,60.049c-0.117,1.258-0.629,2.402-1.41,3.311c-0.218,0.254-0.455,0.489-0.712,0.703
	c-0.921,0.766-2.075,1.256-3.335,1.353c-0.149,0.011-0.299,0.022-0.451,0.022v0.498l-0.05-0.498
	c-0.169-0.002-0.334-0.015-0.499-0.029c-1.261-0.117-2.407-0.627-3.315-1.408c-0.253-0.217-0.487-0.456-0.701-0.713
	c-0.765-0.921-1.256-2.074-1.351-3.336c-0.013-0.166-0.022-0.332-0.021-0.501s0.014-0.334,0.029-0.499
	c0.117-1.257,0.629-2.401,1.413-3.31c0.219-0.252,0.456-0.487,0.714-0.7c0.917-0.76,2.067-1.25,3.33-1.354
	c0.166-0.014,0.332-0.025,0.501-0.025c0.169,0.002,0.334,0.015,0.499,0.029c1.261,0.117,2.406,0.626,3.314,1.407
	c0.253,0.217,0.487,0.456,0.701,0.713c0.766,0.921,1.256,2.075,1.352,3.337c0.013,0.166,0.022,0.332,0.021,0.501
	S205.424,59.884,205.408,60.049z M203.161,56.6c-0.209-0.262-0.442-0.499-0.702-0.712c-0.676-0.552-1.502-0.915-2.42-1.026
	c-0.18-0.022-0.354-0.057-0.54-0.059c-0.157,0-0.307,0.031-0.46,0.047c-0.917,0.091-1.752,0.442-2.438,0.988
	c-0.263,0.208-0.5,0.442-0.713,0.701c-0.558,0.679-0.922,1.508-1.029,2.422c-0.02,0.167-0.054,0.329-0.055,0.5s0.03,0.334,0.046,0.5
	c0.092,0.918,0.441,1.753,0.986,2.439c0.209,0.263,0.442,0.5,0.701,0.713c0.678,0.557,1.508,0.921,2.424,1.027
	c0.167,0.02,0.329,0.054,0.5,0.055h0.04c0.157,0,0.307-0.031,0.46-0.047c0.917-0.091,1.752-0.442,2.439-0.987
	c0.262-0.209,0.499-0.443,0.712-0.702c0.558-0.678,0.922-1.506,1.029-2.42c0.02-0.167,0.054-0.329,0.055-0.5s-0.03-0.334-0.047-0.5
	C204.059,58.121,203.709,57.286,203.161,56.6z M203.142,60.03c-0.094,0.642-0.349,1.226-0.729,1.717
	c-0.205,0.265-0.443,0.501-0.712,0.702c-0.497,0.372-1.087,0.615-1.73,0.699c-0.155,0.02-0.309,0.047-0.469,0.047v0.497
	l-0.032-0.497c-0.171-0.002-0.334-0.031-0.499-0.055c-0.644-0.094-1.229-0.348-1.72-0.728c-0.265-0.206-0.5-0.444-0.701-0.713
	c-0.372-0.497-0.616-1.086-0.699-1.73c-0.021-0.165-0.047-0.329-0.046-0.501c0.001-0.171,0.03-0.334,0.055-0.499
	c0.094-0.642,0.35-1.226,0.731-1.717c0.205-0.265,0.444-0.5,0.714-0.7c0.495-0.369,1.083-0.613,1.727-0.7
	c0.165-0.022,0.329-0.05,0.501-0.05c0.171,0.002,0.334,0.031,0.499,0.055c0.643,0.094,1.229,0.348,1.72,0.729
	c0.265,0.205,0.5,0.443,0.7,0.713c0.373,0.497,0.617,1.087,0.7,1.731c0.021,0.165,0.047,0.329,0.046,0.501
	C203.195,59.702,203.166,59.865,203.142,60.03z"/>
</svg>
