<?xml version="1.0" encoding="utf-8"?>
<!-- Generator: Adobe Illustrator 16.0.0, SVG Export Plug-In . SVG Version: 6.00 Build 0)  -->
<!DOCTYPE svg PUBLIC "-//W3C//DTD SVG 1.1//EN" "http://www.w3.org/Graphics/SVG/1.1/DTD/svg11.dtd">
<svg version="1.1" id="Layer_1" xmlns="http://www.w3.org/2000/svg" xmlns:xlink="http://www.w3.org/1999/xlink" x="0px" y="0px"
	 width="50px" height="50px" viewBox="-175.5 -175.5 50 50" enable-background="new -175.5 -175.5 50 50" xml:space="preserve">
<path style="fill:white" d="M-137.955-155.507l1.938-1.118v-2.235l-1.938-1.119l-1.936,1.119v1.658l-6.425,3.71l0.704-2.627
	c0.071-0.267-0.087-0.541-0.354-0.612c-0.265-0.072-0.541,0.086-0.612,0.354l-0.963,3.593l-2.459,1.42v-2.84l2.63-2.63
	c0.195-0.195,0.195-0.512,0-0.707s-0.512-0.195-0.707,0l-1.923,1.923v-7.419l1.437-0.83v-2.236l-1.937-1.117l-1.937,1.117v2.236
	l1.437,0.83v7.419l-1.923-1.923c-0.195-0.195-0.512-0.195-0.707,0s-0.195,0.512,0,0.707l2.63,2.63v2.84l-2.459-1.42l-0.963-3.593
	c-0.072-0.267-0.345-0.426-0.612-0.354c-0.267,0.071-0.425,0.346-0.354,0.612l0.704,2.627l-6.425-3.71v-1.658l-1.937-1.119
	l-1.937,1.119v2.235l1.937,1.118l1.437-0.829l6.424,3.709l-2.626,0.703c-0.267,0.071-0.425,0.346-0.354,0.612
	c0.06,0.223,0.262,0.371,0.482,0.371c0.043,0,0.086-0.005,0.13-0.017l3.592-0.962l2.46,1.42l-2.458,1.419l-3.594-0.962
	c-0.264-0.07-0.541,0.087-0.612,0.354s0.087,0.541,0.354,0.612l2.628,0.704l-6.426,3.71l-1.437-0.83l-1.938,1.119l0.002,2.235
	l1.936,1.118l1.937-1.118v-1.658l6.424-3.709l-0.703,2.625c-0.071,0.267,0.087,0.541,0.354,0.612
	c0.043,0.012,0.087,0.017,0.13,0.017c0.221,0,0.423-0.147,0.482-0.371l0.961-3.591l2.46-1.42v2.839l-2.63,2.63
	c-0.195,0.195-0.195,0.512,0,0.707s0.512,0.195,0.707,0l1.923-1.923v7.419l-1.437,0.829v2.236l1.937,1.117l1.937-1.117v-2.236
	L-150-137.96v-7.419l1.923,1.924c0.098,0.098,0.226,0.146,0.354,0.146s0.256-0.049,0.354-0.146c0.195-0.195,0.195-0.512,0-0.707
	l-2.63-2.631v-2.839l2.46,1.42l0.961,3.591c0.06,0.223,0.262,0.371,0.482,0.371c0.043,0,0.086-0.005,0.13-0.017
	c0.267-0.071,0.425-0.346,0.354-0.612l-0.703-2.625l6.423,3.708v1.659l1.938,1.118l1.936-1.118l0.002-2.235l-1.938-1.119
	l-1.437,0.83l-6.425-3.71l2.628-0.704c0.267-0.071,0.425-0.346,0.354-0.612c-0.071-0.267-0.345-0.425-0.612-0.354l-3.594,0.962
	l-2.458-1.419l2.46-1.42l3.592,0.962c0.043,0.012,0.087,0.017,0.13,0.017c0.221,0,0.423-0.147,0.482-0.371
	c0.071-0.267-0.087-0.541-0.354-0.612l-2.626-0.703l6.424-3.709L-137.955-155.507z"/>
</svg>
