<?xml version="1.0" encoding="utf-8"?>
<!-- Generator: Adobe Illustrator 16.0.0, SVG Export Plug-In . SVG Version: 6.00 Build 0)  -->
<!DOCTYPE svg PUBLIC "-//W3C//DTD SVG 1.1//EN" "http://www.w3.org/Graphics/SVG/1.1/DTD/svg11.dtd">
<svg version="1.1" id="Layer_1" xmlns="http://www.w3.org/2000/svg" xmlns:xlink="http://www.w3.org/1999/xlink" x="0px" y="0px"
	 width="50px" height="50px" viewBox="104.5 174.5 50 50" enable-background="new 104.5 174.5 50 50" xml:space="preserve">
<path style="fill:white" d="M144.5,199h-2.172l-5.779-5.72c-0.021-0.021-0.049-0.031-0.073-0.049l3.984-3.984c0.195-0.195,0.195-0.512,0-0.707
	s-0.512-0.195-0.707,0L130,198.293v-6.45l4.428-4.433c0.195-0.195,0.195-0.512,0-0.707s-0.512-0.195-0.707,0L130,190.429V184.5
	c0-0.276-0.224-0.5-0.5-0.5s-0.5,0.224-0.5,0.5v5.926l-3.723-3.723c-0.195-0.195-0.512-0.195-0.707,0s-0.195,0.512,0,0.707
	l4.43,4.43v6.453l-9.753-9.753c-0.195-0.195-0.512-0.195-0.707,0s-0.195,0.512,0,0.707l4.043,4.043l-5.708,5.71H114.5
	c-0.276,0-0.5,0.224-0.5,0.5s0.224,0.5,0.5,0.5h2.369l5.715,5.709l-4.044,4.044c-0.195,0.195-0.195,0.512,0,0.707
	c0.098,0.098,0.226,0.146,0.354,0.146s0.256-0.049,0.354-0.146l9.753-9.753v6.45l-4.428,4.433c-0.195,0.195-0.195,0.512,0,0.707
	s0.512,0.195,0.707,0l3.721-3.726v5.929c0,0.276,0.224,0.5,0.5,0.5s0.5-0.224,0.5-0.5v-5.926l3.723,3.723
	c0.098,0.098,0.226,0.146,0.354,0.146s0.256-0.049,0.354-0.146c0.195-0.195,0.195-0.512,0-0.707l-4.43-4.43v-6.453l9.753,9.753
	c0.098,0.098,0.226,0.146,0.354,0.146s0.256-0.049,0.354-0.146c0.195-0.195,0.195-0.512,0-0.707l-3.963-3.963
	c0.037-0.021,0.076-0.04,0.108-0.072L142.27,200h2.23c0.276,0,0.5-0.224,0.5-0.5S144.776,199,144.5,199z M135.846,193.991
	l5.061,5.009h-4.192l-3.02-2.987l2.1-2.1C135.812,193.939,135.822,193.969,135.846,193.991z M130.707,200h4.569l-2.274,2.295
	L130.707,200z M126.091,202.202L123.887,200h4.406L126.091,202.202z M128.293,199h-4.405l2.202-2.203L128.293,199z M130.707,199
	l2.28-2.28l2.305,2.28H130.707z M123.29,193.997l2.093,2.093l-2.909,2.91h-4.185L123.29,193.997z M118.284,200h4.188l2.911,2.909
	l-2.093,2.093L118.284,200z M135.895,205.015c-0.03,0.031-0.048,0.068-0.068,0.104l-2.117-2.117l2.974-3.002h4.181L135.895,205.015z
	"/>
</svg>
