<?xml version="1.0" encoding="utf-8"?>
<!-- Generator: Adobe Illustrator 16.0.0, SVG Export Plug-In . SVG Version: 6.00 Build 0)  -->
<!DOCTYPE svg PUBLIC "-//W3C//DTD SVG 1.1//EN" "http://www.w3.org/Graphics/SVG/1.1/DTD/svg11.dtd">
<svg version="1.1" id="Layer_1" xmlns="http://www.w3.org/2000/svg" xmlns:xlink="http://www.w3.org/1999/xlink" x="0px" y="0px"
	 width="50px" height="50px" viewBox="174.5 244.5 50 50" enable-background="new 174.5 244.5 50 50" xml:space="preserve">
<path style="fill:white" d="M215,269.5c0,0.276-0.224,0.5-0.5,0.5H200v14.5c0,0.276-0.224,0.5-0.5,0.5s-0.5-0.224-0.5-0.5V270h-14.5
	c-0.276,0-0.5-0.224-0.5-0.5s0.224-0.5,0.5-0.5H199v-14.5c0-0.276,0.224-0.5,0.5-0.5s0.5,0.224,0.5,0.5V269h14.5
	C214.776,269,215,269.224,215,269.5z M195.443,273.557c-0.195-0.195-0.512-0.195-0.707,0l-3.84,3.84
	c-0.195,0.195-0.195,0.512,0,0.707c0.098,0.098,0.226,0.146,0.354,0.146s0.256-0.049,0.354-0.146l3.84-3.84
	C195.639,274.068,195.639,273.752,195.443,273.557z M194.736,265.443c0.098,0.098,0.226,0.146,0.354,0.146s0.256-0.049,0.354-0.146
	c0.195-0.195,0.195-0.512,0-0.707l-3.84-3.84c-0.195-0.195-0.512-0.195-0.707,0s-0.195,0.512,0,0.707L194.736,265.443z
	 M204.264,273.557c-0.195-0.195-0.512-0.195-0.707,0s-0.195,0.512,0,0.707l3.84,3.84c0.098,0.098,0.226,0.146,0.354,0.146
	s0.256-0.049,0.354-0.146c0.195-0.195,0.195-0.512,0-0.707L204.264,273.557z M202.683,256.143c-0.195-0.195-0.512-0.195-0.707,0
	l-0.226,0.226v-0.952c0-0.276-0.224-0.5-0.5-0.5s-0.5,0.224-0.5,0.5v3.366l1.933-1.933
	C202.878,256.654,202.878,256.338,202.683,256.143z M210.239,264.405c0.195-0.195,0.195-0.512,0-0.707s-0.512-0.195-0.707,0
	l-3.553,3.552h-4.229v-4.518l3.407-3.408c0.195-0.195,0.195-0.512,0-0.707s-0.512-0.195-0.707,0l-3.7,3.701v5.932h5.644
	L210.239,264.405z M213.583,268.25c0.276,0,0.5-0.224,0.5-0.5s-0.224-0.5-0.5-0.5h-1.239l0.37-0.37c0.195-0.195,0.195-0.512,0-0.707
	s-0.512-0.195-0.707,0l-2.079,2.077H213.583z M213.583,270.75h-3.655l2.079,2.077c0.098,0.098,0.226,0.146,0.354,0.146
	s0.256-0.049,0.354-0.146c0.195-0.195,0.195-0.512,0-0.707l-0.37-0.37h1.239c0.276,0,0.5-0.224,0.5-0.5
	S213.859,270.75,213.583,270.75z M206.394,270.75h-5.644v5.932l3.7,3.701c0.098,0.098,0.226,0.146,0.354,0.146
	s0.256-0.049,0.354-0.146c0.195-0.195,0.195-0.512,0-0.707l-3.407-3.408v-4.518h4.229l3.553,3.552c0.195,0.195,0.512,0.195,0.707,0
	s0.195-0.512,0-0.707L206.394,270.75z M200.75,280.216v3.368c0,0.276,0.224,0.5,0.5,0.5s0.5-0.224,0.5-0.5v-0.952l0.226,0.226
	c0.195,0.195,0.512,0.195,0.707,0s0.195-0.512,0-0.707L200.75,280.216z M196.317,282.857c0.195,0.195,0.512,0.195,0.707,0
	l0.226-0.226v0.952c0,0.276,0.224,0.5,0.5,0.5s0.5-0.224,0.5-0.5v-3.368l-1.933,1.935
	C196.122,282.346,196.122,282.662,196.317,282.857z M188.761,274.595c-0.195,0.195-0.195,0.512,0,0.707s0.512,0.195,0.707,0
	l3.553-3.552h4.229v4.518l-3.407,3.408c-0.195,0.195-0.195,0.512,0,0.707c0.098,0.098,0.226,0.146,0.354,0.146
	s0.256-0.049,0.354-0.146l3.7-3.701v-5.932h-5.644L188.761,274.595z M185.417,270.75c-0.276,0-0.5,0.224-0.5,0.5s0.224,0.5,0.5,0.5
	h1.239l-0.37,0.37c-0.195,0.195-0.195,0.512,0,0.707c0.098,0.098,0.226,0.146,0.354,0.146s0.256-0.049,0.354-0.146l2.079-2.077
	H185.417z M185.417,268.25h3.655l-2.079-2.077c-0.195-0.195-0.512-0.195-0.707,0s-0.195,0.512,0,0.707l0.37,0.37h-1.239
	c-0.276,0-0.5,0.224-0.5,0.5S185.141,268.25,185.417,268.25z M192.606,268.25h5.644v-5.932l-3.7-3.701
	c-0.195-0.195-0.512-0.195-0.707,0s-0.195,0.512,0,0.707l3.407,3.408v4.518h-4.229l-3.553-3.552c-0.195-0.195-0.512-0.195-0.707,0
	s-0.195,0.512,0,0.707L192.606,268.25z M198.25,258.782v-3.366c0-0.276-0.224-0.5-0.5-0.5s-0.5,0.224-0.5,0.5v0.952l-0.226-0.226
	c-0.195-0.195-0.512-0.195-0.707,0s-0.195,0.512,0,0.707L198.25,258.782z M203.549,265.436c0.099,0.103,0.229,0.154,0.361,0.154
	c0.124,0,0.249-0.046,0.346-0.139l4.007-3.84c0.199-0.191,0.206-0.508,0.016-0.707c-0.191-0.198-0.508-0.207-0.707-0.016
	l-4.007,3.84C203.365,264.92,203.358,265.236,203.549,265.436z"/>
</svg>
