<?xml version="1.0" encoding="utf-8"?>
<!-- Generator: Adobe Illustrator 16.0.0, SVG Export Plug-In . SVG Version: 6.00 Build 0)  -->
<!DOCTYPE svg PUBLIC "-//W3C//DTD SVG 1.1//EN" "http://www.w3.org/Graphics/SVG/1.1/DTD/svg11.dtd">
<svg version="1.1" id="Layer_1" xmlns="http://www.w3.org/2000/svg" xmlns:xlink="http://www.w3.org/1999/xlink" x="0px" y="0px"
	 width="50px" height="50px" viewBox="-175.5 -35.5 50 50" enable-background="new -175.5 -35.5 50 50" xml:space="preserve">
<path style="fill:white" d="M-137.804-3.747l-5.245-3.028l5.726-1.533c0.267-0.071,0.425-0.346,0.354-0.612s-0.344-0.425-0.612-0.354l-6.424,1.721
	l-2.157-2.947l2.157-2.947l6.423,1.723c0.043,0.012,0.087,0.017,0.13,0.017c0.221,0,0.422-0.147,0.482-0.371
	c0.072-0.267-0.086-0.541-0.354-0.612l-5.723-1.536l5.24-3.025l1.728,0.997l2.227-1.285l-0.001-2.57l-2.225-1.286l-2.227,1.285
	v1.992l-5.244,3.028l1.535-5.727c0.071-0.267-0.087-0.541-0.354-0.612c-0.267-0.072-0.541,0.086-0.612,0.354l-1.722,6.425
	l-3.63,0.395l-1.474-3.344l4.703-4.702c0.195-0.195,0.195-0.512,0-0.707s-0.512-0.195-0.707,0l-4.189,4.189v-6.049l1.725-0.996
	l0.001-2.571l-2.226-1.285l-2.228,1.285l0.002,2.57l1.726,0.996v6.054l-4.193-4.193c-0.195-0.195-0.512-0.195-0.707,0
	s-0.195,0.512,0,0.707l4.705,4.705l-1.474,3.342l-3.631-0.395l-1.721-6.423c-0.071-0.267-0.345-0.425-0.612-0.354
	c-0.267,0.071-0.425,0.346-0.354,0.612l1.533,5.724l-5.241-3.026l-0.001-1.993l-2.227-1.286l-2.226,1.286v2.57l2.226,1.285
	l1.727-0.997l5.242,3.026l-5.725,1.534c-0.267,0.071-0.425,0.346-0.354,0.612c0.06,0.224,0.262,0.371,0.482,0.371
	c0.043,0,0.086-0.005,0.13-0.017l6.424-1.722l2.157,2.947l-2.158,2.948l-6.425-1.722c-0.266-0.071-0.54,0.086-0.612,0.354
	c-0.071,0.267,0.087,0.541,0.354,0.612l5.726,1.535l-5.242,3.026l-1.726-0.996l-2.227,1.284l0.001,2.571l2.226,1.285l2.227-1.285
	v-1.993l5.239-3.025l-1.534,5.723c-0.071,0.267,0.087,0.541,0.354,0.612c0.043,0.012,0.087,0.017,0.13,0.017
	c0.221,0,0.422-0.147,0.482-0.371l1.722-6.424l3.633-0.396l1.473,3.34l-4.704,4.706c-0.195,0.195-0.195,0.512,0,0.707
	c0.098,0.098,0.226,0.146,0.354,0.146s0.256-0.049,0.354-0.146L-151-2.186v6.057l-1.726,0.995l0.001,2.572l2.227,1.283l2.226-1.285
	V4.867L-150,3.87v-6.051l4.19,4.188c0.195,0.195,0.512,0.195,0.707,0s0.195-0.512,0-0.707l-4.703-4.7l1.474-3.343l3.63,0.395
	l1.722,6.424c0.06,0.224,0.262,0.371,0.482,0.371c0.043,0,0.086-0.005,0.13-0.017c0.267-0.071,0.425-0.346,0.354-0.612l-1.534-5.725
	l5.245,3.028v1.992l2.226,1.286l2.226-1.286v-2.57l-2.226-1.285L-137.804-3.747z M-150-5.44l-0.5,1.135l-0.5-1.134l-1.049-2.379
	l-2.583,0.281l-1.234,0.134l0.731-0.999l1.537-2.099l-1.535-2.098l-0.732-1l1.232,0.134l2.585,0.281l1.049-2.38l0.5-1.133l0.5,1.136
	l1.048,2.377l2.586-0.282l1.231-0.134l-0.733,1.001l-1.535,2.097l1.536,2.098l0.732,1l-1.233-0.134l-2.584-0.281L-150-5.44z"/>
</svg>
