<?xml version="1.0" encoding="utf-8"?>
<!-- Generator: Adobe Illustrator 16.0.0, SVG Export Plug-In . SVG Version: 6.00 Build 0)  -->
<!DOCTYPE svg PUBLIC "-//W3C//DTD SVG 1.1//EN" "http://www.w3.org/Graphics/SVG/1.1/DTD/svg11.dtd">
<svg version="1.1" id="Layer_1" xmlns="http://www.w3.org/2000/svg" xmlns:xlink="http://www.w3.org/1999/xlink" x="0px" y="0px"
	 width="50px" height="50px" viewBox="244.5 174.5 50 50" enable-background="new 244.5 174.5 50 50" xml:space="preserve">
<path style="fill:white" d="M288.502,199.126l-1.179-2.043c-0.134-0.231-0.381-0.374-0.648-0.374l-2.357-0.001c-0.268,0-0.516,0.143-0.649,0.375
	l-0.961,1.666h-1.046l0.599-1.037c0.207-0.359,0.084-0.817-0.274-1.024c-0.36-0.209-0.817-0.083-1.024,0.274l-1.031,1.787h-1.469
	l1.991-3.449c0.207-0.358,0.084-0.817-0.274-1.024c-0.359-0.208-0.818-0.083-1.024,0.274l-2.425,4.199h-0.515
	c-0.214-1.917-1.233-3.59-2.711-4.682l0.261-0.451h4.853c0.414,0,0.75-0.336,0.75-0.75s-0.336-0.75-0.75-0.75h-3.986l0.733-1.271
	h2.065c0.414,0,0.75-0.336,0.75-0.75s-0.336-0.75-0.75-0.75h-1.199l0.522-0.904h1.924c0.268,0,0.516-0.143,0.649-0.375l1.181-2.041
	c0.134-0.232,0.134-0.518,0-0.75l-1.179-2.042c-0.134-0.232-0.382-0.376-0.65-0.376l-2.359,0.002c-0.268,0-0.515,0.144-0.648,0.375
	l-1.178,2.038c-0.135,0.231-0.136,0.519-0.001,0.751l0.963,1.668l-0.521,0.903l-0.6-1.038c-0.207-0.357-0.664-0.483-1.024-0.274
	c-0.358,0.207-0.481,0.666-0.274,1.024l1.032,1.788l-0.734,1.271l-1.992-3.45c-0.206-0.358-0.665-0.482-1.024-0.274
	c-0.358,0.207-0.481,0.666-0.274,1.024l2.426,4.2l-0.259,0.447c-0.829-0.364-1.744-0.57-2.707-0.57s-1.877,0.205-2.707,0.57
	l-0.257-0.445l2.427-4.203c0.207-0.358,0.084-0.817-0.274-1.024c-0.36-0.209-0.817-0.083-1.024,0.274l-1.994,3.453l-0.733-1.271
	l1.032-1.79c0.207-0.359,0.084-0.817-0.274-1.024c-0.36-0.209-0.818-0.083-1.024,0.274l-0.6,1.04l-0.524-0.907l0.963-1.666
	c0.134-0.232,0.134-0.519,0-0.75l-1.179-2.041c-0.134-0.231-0.381-0.375-0.648-0.375l-1.114-0.002l-0.14,0.002l-1.103-0.001
	c-0.001,0-0.001,0-0.001,0c-0.268,0-0.516,0.143-0.649,0.375l-1.18,2.043c-0.133,0.231-0.133,0.517,0.001,0.749l1.179,2.041
	c0.134,0.232,0.382,0.375,0.649,0.375h1.253h0.001l0.669-0.001l0.522,0.905h-1.194c-0.414,0-0.75,0.336-0.75,0.75
	s0.336,0.75,0.75,0.75h2.061l0.734,1.271h-3.982c-0.414,0-0.75,0.336-0.75,0.75s0.336,0.75,0.75,0.75h4.849l0.261,0.453
	c-1.477,1.092-2.498,2.765-2.711,4.683h-0.513l-2.426-4.2c-0.207-0.357-0.664-0.482-1.024-0.274
	c-0.358,0.207-0.481,0.666-0.274,1.024l1.992,3.45h-1.47l-1.032-1.787c-0.207-0.357-0.664-0.482-1.024-0.274
	c-0.358,0.207-0.481,0.666-0.274,1.024l0.599,1.037h-1.044l-0.964-1.669c-0.134-0.23-0.381-0.373-0.648-0.373l-2.355,0.002
	c-0.268,0-0.515,0.143-0.648,0.373l-1.181,2.041c-0.134,0.232-0.134,0.518,0,0.75l1.179,2.041c0.134,0.231,0.381,0.375,0.648,0.375
	l2.358,0.002c0.268,0,0.515-0.143,0.649-0.374l0.961-1.668h1.047l-0.599,1.038c-0.207,0.359-0.084,0.817,0.274,1.024
	c0.118,0.068,0.247,0.101,0.374,0.101c0.26,0,0.512-0.135,0.65-0.375l1.032-1.788h1.469l-1.993,3.452
	c-0.207,0.358-0.084,0.817,0.274,1.024c0.118,0.068,0.247,0.101,0.374,0.101c0.26,0,0.512-0.135,0.65-0.375l2.427-4.202h0.512
	c0.213,1.918,1.234,3.592,2.712,4.683l-0.261,0.451h-4.85c-0.414,0-0.75,0.336-0.75,0.75s0.336,0.75,0.75,0.75h3.984l-0.734,1.271
	h-2.064c-0.414,0-0.75,0.336-0.75,0.75s0.336,0.75,0.75,0.75h1.198l-0.523,0.906l-0.666,0.001l-0.156-0.001l-1.104,0.002
	c-0.268,0-0.515,0.144-0.648,0.375l-1.177,2.038c-0.134,0.231-0.134,0.518-0.001,0.75l1.177,2.043
	c0.134,0.232,0.382,0.376,0.65,0.376h0.001l1.094-0.002l0.149,0.002c0.004,0,0.007,0,0.011,0l1.104-0.001
	c0.268,0,0.515-0.144,0.648-0.375l1.177-2.042c0.134-0.231,0.134-0.518,0-0.749l-0.961-1.667l0.523-0.906l0.6,1.038
	c0.139,0.24,0.391,0.375,0.65,0.375c0.127,0,0.256-0.032,0.374-0.101c0.358-0.207,0.481-0.665,0.274-1.024l-1.032-1.789l0.734-1.271
	l1.992,3.452c0.139,0.24,0.391,0.375,0.65,0.375c0.127,0,0.256-0.032,0.374-0.101c0.358-0.207,0.481-0.666,0.274-1.024l-2.426-4.201
	l0.258-0.445c0.829,0.364,1.743,0.569,2.706,0.569s1.877-0.205,2.707-0.57l0.259,0.449l-2.425,4.197
	c-0.207,0.358-0.084,0.817,0.274,1.024c0.118,0.068,0.247,0.101,0.374,0.101c0.26,0,0.512-0.135,0.65-0.375l1.991-3.448l0.734,1.271
	l-1.03,1.785c-0.207,0.358-0.084,0.817,0.274,1.024c0.118,0.068,0.247,0.101,0.374,0.101c0.26,0,0.512-0.135,0.65-0.375l0.598-1.035
	l0.522,0.904l-0.963,1.666c-0.134,0.232-0.134,0.518,0,0.75l1.179,2.041c0.134,0.231,0.381,0.375,0.648,0.375l1.104,0.002h0.001
	c0.003,0,0.007,0,0.01,0l1.243-0.002c0.268,0,0.516-0.143,0.649-0.375l1.179-2.042c0.133-0.231,0.133-0.517-0.001-0.749
	l-1.178-2.041c-0.134-0.232-0.382-0.375-0.649-0.375l-1.253,0.001l-0.671-0.001l-0.523-0.906h1.199c0.414,0,0.75-0.336,0.75-0.75
	s-0.336-0.75-0.75-0.75h-2.065l-0.734-1.271h3.986c0.414,0,0.75-0.336,0.75-0.75s-0.336-0.75-0.75-0.75h-4.853l-0.26-0.451
	c1.478-1.092,2.498-2.765,2.711-4.684h0.513l2.427,4.202c0.139,0.24,0.391,0.375,0.65,0.375c0.127,0,0.256-0.032,0.374-0.101
	c0.358-0.207,0.481-0.666,0.274-1.024l-1.993-3.452h1.47l1.032,1.789c0.139,0.24,0.391,0.375,0.65,0.375
	c0.127,0,0.256-0.032,0.374-0.101c0.358-0.207,0.481-0.665,0.274-1.024l-0.6-1.039h1.046l0.962,1.668
	c0.134,0.231,0.381,0.375,0.649,0.375h0.001h2.356c0.268,0,0.515-0.143,0.649-0.374l1.178-2.042
	C288.636,199.644,288.636,199.358,288.502,199.126z M276.006,185.648l0.746-1.291h0.626l0.865-0.001l0.434,0.75l0.313,0.543
	l-0.747,1.291l-0.624-0.001l-0.197-0.001l-0.67,0.001l-0.433-0.749L276.006,185.648z M260.757,186.938l-0.746-1.291l0.312-0.542
	l0.434-0.75l0.68,0.001l0.14-0.002h0.045l0.626,0.001l0.746,1.292l-0.312,0.541l-0.434,0.749l-0.866,0.001H260.757z
	 M254.995,199.499l-0.433,0.751l-0.312,0.542l-1.491-0.002l-0.312-0.54l-0.434-0.751l0.433-0.749l0.312-0.54l1.492-0.002
	l0.312,0.542L254.995,199.499z M262.992,213.354l-0.743,1.291l-0.627,0.001h-0.04l-0.155-0.002l-0.67,0.001l-0.433-0.75
	l-0.312-0.541l0.744-1.291l0.625-0.001h0.04l0.156,0.001l0.669-0.001l0.434,0.751L262.992,213.354z M278.244,212.062l0.745,1.291
	l-0.312,0.542l-0.433,0.749l-0.825,0.002h-0.04l-0.626-0.001l-0.746-1.292l0.312-0.541l0.435-0.75h0.864H278.244z M274.758,199.5
	c0,0.257-0.04,0.503-0.076,0.749c-0.196,1.362-0.91,2.545-1.942,3.361c-0.393,0.31-0.819,0.574-1.291,0.764
	c-0.604,0.242-1.259,0.384-1.948,0.384s-1.344-0.142-1.947-0.384c-0.472-0.188-0.898-0.453-1.291-0.764
	c-1.033-0.815-1.747-1.999-1.943-3.36c-0.036-0.247-0.076-0.493-0.076-0.75s0.04-0.503,0.076-0.75
	c0.196-1.361,0.91-2.545,1.942-3.36c0.393-0.31,0.819-0.574,1.291-0.764c0.604-0.242,1.259-0.384,1.948-0.384
	s1.345,0.142,1.949,0.384c0.471,0.189,0.897,0.454,1.29,0.765c1.032,0.815,1.746,1.998,1.942,3.358
	C274.718,198.997,274.758,199.243,274.758,199.5z M286.242,200.792l-0.821-0.001l-0.671,0.001l-0.312-0.543l-0.432-0.749
	l0.433-0.751l0.312-0.541l1.493,0.001l0.311,0.54l0.433,0.752l-0.432,0.748L286.242,200.792z"/>
</svg>
