<?xml version="1.0" encoding="utf-8"?>
<!-- Generator: Adobe Illustrator 16.0.0, SVG Export Plug-In . SVG Version: 6.00 Build 0)  -->
<!DOCTYPE svg PUBLIC "-//W3C//DTD SVG 1.1//EN" "http://www.w3.org/Graphics/SVG/1.1/DTD/svg11.dtd">
<svg version="1.1" id="Layer_1" xmlns="http://www.w3.org/2000/svg" xmlns:xlink="http://www.w3.org/1999/xlink" x="0px" y="0px"
	 width="50px" height="50px" viewBox="-35.5 104.5 50 50" enable-background="new -35.5 104.5 50 50" xml:space="preserve">
<path style="fill:white" d="M5,129.5c0-0.276-0.224-0.5-0.5-0.5H3.252l1.601-1.602c0.195-0.195,0.195-0.512,0-0.707s-0.512-0.195-0.707,0L1.837,129
	H1.35c-0.122-2.896-1.281-5.523-3.121-7.523l0.348-0.348l3.264-0.002c0.276,0,0.5-0.225,0.5-0.5c0-0.276-0.224-0.5-0.5-0.5h0
	l-2.263,0.002l0.882-0.883c0.195-0.195,0.195-0.512,0-0.707s-0.512-0.195-0.707,0l-0.881,0.881v-2.262c0-0.276-0.224-0.5-0.5-0.5
	s-0.5,0.224-0.5,0.5v3.262l-0.35,0.35c-2-1.839-4.626-2.998-7.521-3.119v-0.488l2.307-2.309c0.195-0.195,0.195-0.512,0-0.707
	s-0.512-0.195-0.707,0l-1.6,1.602V114.5c0-0.276-0.224-0.5-0.5-0.5s-0.5,0.224-0.5,0.5v1.248l-1.602-1.602
	c-0.195-0.195-0.512-0.195-0.707,0s-0.195,0.512,0,0.707l2.309,2.309v0.488c-2.896,0.121-5.522,1.28-7.522,3.12l-0.349-0.349
	l-0.002-3.264c0-0.276-0.224-0.5-0.5-0.5h0c-0.276,0-0.5,0.225-0.5,0.5l0.001,2.263l-0.882-0.882c-0.195-0.195-0.512-0.195-0.707,0
	s-0.195,0.512,0,0.707l0.883,0.883h-2.266c-0.276,0-0.5,0.224-0.5,0.5s0.224,0.5,0.5,0.5h3.266l0.349,0.349
	c-1.84,2-2.999,4.626-3.12,7.522h-0.489l-2.308-2.307c-0.195-0.195-0.512-0.195-0.707,0s-0.195,0.512,0,0.707l1.601,1.6H-25.5
	c-0.276,0-0.5,0.224-0.5,0.5s0.224,0.5,0.5,0.5h1.248l-1.602,1.602c-0.195,0.195-0.195,0.512,0,0.707
	c0.098,0.098,0.226,0.146,0.354,0.146s0.256-0.049,0.354-0.146l2.309-2.309h0.488c0.122,2.896,1.28,5.521,3.119,7.521l-0.348,0.348
	l-3.264,0.002c-0.276,0-0.5,0.225-0.5,0.5c0,0.276,0.224,0.5,0.5,0.5c0,0,0,0,0,0l2.263-0.002l-0.882,0.883
	c-0.195,0.195-0.195,0.512,0,0.707c0.098,0.098,0.226,0.146,0.354,0.146s0.256-0.049,0.354-0.146l0.883-0.883v2.266
	c0,0.276,0.224,0.5,0.5,0.5s0.5-0.224,0.5-0.5v-3.266l0.348-0.348c2,1.841,4.627,3,7.523,3.121v0.488l-2.307,2.309
	c-0.195,0.195-0.195,0.512,0,0.707c0.098,0.098,0.226,0.146,0.354,0.146s0.256-0.049,0.354-0.146l1.6-1.602v1.248
	c0,0.276,0.224,0.5,0.5,0.5s0.5-0.224,0.5-0.5v-1.248l1.602,1.602c0.195,0.195,0.512,0.195,0.707,0s0.195-0.512,0-0.707L-10,141.838
	v-0.488c2.896-0.121,5.522-1.28,7.522-3.12l0.349,0.349l0.002,3.262c0,0.276,0.224,0.5,0.5,0.5c0,0,0,0,0,0
	c0.276,0,0.5-0.225,0.5-0.5l-0.001-2.261l0.88,0.88c0.098,0.098,0.226,0.146,0.354,0.146s0.256-0.049,0.354-0.146
	c0.195-0.195,0.195-0.512,0-0.707l-0.881-0.881l2.265-0.002c0.276,0,0.5-0.225,0.5-0.5c0-0.276-0.224-0.5-0.5-0.5h0l-3.264,0.002
	l-0.348-0.349c1.84-2,2.999-4.626,3.12-7.522h0.489l2.309,2.305c0.097,0.098,0.225,0.146,0.353,0.146s0.256-0.049,0.354-0.146
	c0.195-0.195,0.195-0.513-0.001-0.707L3.253,130H4.5C4.776,130,5,129.776,5,129.5z M-1.403,129l-4.702-1.321l2.392-4.261
	l0.237-0.236c1.406,1.561,2.296,3.586,2.414,5.818H-1.403z M-3.322,129.5l-1.782,0.5l-2.495,0.7l1.271,2.266l0.903,1.609
	l-1.614-0.906l-2.262-1.27l-0.7,2.494l-0.5,1.781l-0.5-1.781l-0.7-2.494l-2.267,1.272l-1.609,0.903l0.906-1.613l1.269-2.262
	l-2.495-0.7l-1.782-0.5l1.779-0.5l2.498-0.702l-1.27-2.262l-0.905-1.612l1.611,0.904l2.265,1.271l0.7-2.494l0.5-1.781l0.5,1.781
	l0.7,2.494l2.261-1.269l1.615-0.906l-0.902,1.607l-1.272,2.267L-5.101,129L-3.322,129.5z M-4.426,122.717l-4.255,2.388L-10,120.403
	v-0.341c2.231,0.117,4.256,1.007,5.817,2.412L-4.426,122.717z M-11,120.403l-1.319,4.701l-4.259-2.39l-0.24-0.239
	c1.561-1.405,3.586-2.296,5.818-2.413V120.403z M-17.285,123.422l2.389,4.257L-19.597,129h-0.34
	c0.117-2.231,1.008-4.257,2.413-5.817L-17.285,123.422z M-19.595,130l4.7,1.319l-2.387,4.254l-0.244,0.243
	c-1.404-1.561-2.294-3.585-2.412-5.816H-19.595z M-16.583,136.288l4.264-2.395l1.319,4.701v0.343
	c-2.232-0.117-4.258-1.008-5.819-2.414L-16.583,136.288z M-10,138.595l1.319-4.701l4.259,2.393l0.239,0.238
	c-1.561,1.405-3.586,2.296-5.818,2.413V138.595z M-3.715,135.577l-2.389-4.258l4.7-1.319h0.342
	c-0.117,2.231-1.008,4.257-2.413,5.817L-3.715,135.577z M0.35,129h-0.912c-0.118-2.37-1.064-4.52-2.561-6.172l0.645-0.645
	C-0.818,124.002,0.229,126.379,0.35,129z M-3.185,121.477l-0.645,0.645c-1.652-1.495-3.801-2.44-6.17-2.559v-0.912
	C-7.38,118.771-5.003,119.817-3.185,121.477z M-11,118.65v0.912c-2.37,0.118-4.519,1.064-6.171,2.56l-0.645-0.645
	C-15.998,119.817-13.621,118.771-11,118.65z M-18.523,122.185l0.645,0.645c-1.496,1.651-2.441,3.802-2.56,6.171h-0.912
	C-21.229,126.379-20.182,124.003-18.523,122.185z M-21.35,130h0.912c0.118,2.369,1.064,4.519,2.559,6.17l-0.645,0.645
	C-20.183,134.997-21.229,132.62-21.35,130z M-17.817,137.521l0.645-0.645c1.652,1.496,3.802,2.442,6.172,2.561v0.912
	C-13.621,140.229-15.999,139.182-17.817,137.521z M-10,140.35v-0.912c2.37-0.118,4.519-1.064,6.171-2.56l0.645,0.645
	C-5.002,139.183-7.379,140.229-10,140.35z M-2.477,136.815l-0.645-0.645c1.496-1.651,2.441-3.802,2.56-6.171H0.35
	C0.229,132.621-0.818,134.997-2.477,136.815z"/>
</svg>
