<?xml version="1.0" encoding="utf-8"?>
<!-- Generator: Adobe Illustrator 16.0.0, SVG Export Plug-In . SVG Version: 6.00 Build 0)  -->
<!DOCTYPE svg PUBLIC "-//W3C//DTD SVG 1.1//EN" "http://www.w3.org/Graphics/SVG/1.1/DTD/svg11.dtd">
<svg version="1.1" id="Layer_1" xmlns="http://www.w3.org/2000/svg" xmlns:xlink="http://www.w3.org/1999/xlink" x="0px" y="0px"
	 width="50px" height="50px" viewBox="-35.5 314.5 50 50" enable-background="new -35.5 314.5 50 50" xml:space="preserve">
<path style="fill:white" d="M-3.025,344.104l1.967,7.339c0.036,0.133-0.043,0.271-0.177,0.306c-0.022,0.006-0.043,0.009-0.065,0.009
	c-0.11,0-0.211-0.073-0.242-0.186l-2.096-7.821l-6.613-3.817v7.635l5.726,5.728c0.098,0.098,0.098,0.256,0,0.354
	c-0.049,0.049-0.113,0.073-0.177,0.073s-0.128-0.024-0.177-0.073l-5.372-5.374v3.937c0,0.138-0.112,0.25-0.25,0.25
	s-0.25-0.112-0.25-0.25v-3.937l-5.372,5.374c-0.098,0.098-0.256,0.098-0.354,0s-0.098-0.256,0-0.354l5.726-5.728v-7.635
	l-6.613,3.817l-2.096,7.821c-0.03,0.112-0.131,0.186-0.242,0.186c-0.021,0-0.043-0.003-0.065-0.009
	c-0.133-0.035-0.212-0.173-0.177-0.306l1.967-7.339l-3.408,1.968c-0.04,0.022-0.083,0.033-0.125,0.033
	c-0.086,0-0.17-0.045-0.216-0.125c-0.069-0.119-0.028-0.272,0.091-0.342l3.408-1.968l-7.339-1.966
	c-0.134-0.035-0.213-0.173-0.177-0.306c0.036-0.134,0.175-0.211,0.306-0.177l7.823,2.095L-11,339.5l-6.613-3.817l-7.822,2.095
	c-0.021,0.006-0.043,0.009-0.064,0.009c-0.11,0-0.211-0.073-0.242-0.186c-0.036-0.133,0.043-0.271,0.177-0.306l7.339-1.966
	l-3.407-1.968c-0.12-0.069-0.161-0.223-0.091-0.342c0.068-0.119,0.222-0.158,0.341-0.092l3.407,1.967l-1.967-7.338
	c-0.036-0.133,0.043-0.271,0.177-0.306c0.137-0.035,0.271,0.043,0.307,0.177l2.096,7.82l6.614,3.818v-7.636l-5.726-5.727
	c-0.098-0.098-0.098-0.256,0-0.354s0.256-0.098,0.354,0l5.372,5.373v-3.936c0-0.138,0.112-0.25,0.25-0.25s0.25,0.112,0.25,0.25
	v3.936l5.372-5.373c0.098-0.098,0.256-0.098,0.354,0s0.098,0.256,0,0.354l-5.726,5.727v7.636l6.614-3.818l2.096-7.82
	c0.036-0.134,0.174-0.211,0.307-0.177c0.133,0.035,0.212,0.173,0.177,0.306l-1.967,7.338l3.407-1.967
	c0.119-0.068,0.272-0.028,0.341,0.092c0.069,0.119,0.028,0.272-0.091,0.342l-3.407,1.968l7.339,1.966
	c0.134,0.035,0.213,0.173,0.177,0.306c-0.03,0.112-0.131,0.186-0.242,0.186c-0.021,0-0.043-0.003-0.064-0.009l-7.822-2.095
	L-10,339.5l6.612,3.817l7.823-2.095c0.133-0.035,0.27,0.043,0.306,0.177c0.036,0.133-0.043,0.271-0.177,0.306l-7.339,1.966
	l3.408,1.968c0.12,0.069,0.161,0.223,0.091,0.342c-0.046,0.08-0.13,0.125-0.216,0.125c-0.042,0-0.085-0.011-0.125-0.033
	L-3.025,344.104z M-11.5,328.912v-2.24l-0.937-0.541v-2.234l1.937-1.118l1.937,1.118v2.234l-0.937,0.541v2.24l4.092-4.092
	c0.195-0.195,0.195-0.512,0-0.707s-0.512-0.195-0.707,0l-1.448,1.448v-2.243l-2.937-1.694l-2.937,1.694v2.243l-1.448-1.448
	c-0.195-0.195-0.512-0.195-0.707,0s-0.195,0.512,0,0.707L-11.5,328.912z M-9.5,331.742l5.777-5.779l1.557,0.899l-2.115,7.893
	l-5.219,3.014V331.742z M-8.5,336.036l3.361-1.939l1.809-6.752l-0.229-0.132l-4.941,4.943V336.036z M0.109,332.22v-1.081
	l1.937-1.118l1.937,1.119v2.235l-1.937,1.118l-0.937-0.541l-1.94,1.121l5.59,1.498c0.043,0.011,0.087,0.017,0.13,0.017
	c0.221,0,0.423-0.147,0.482-0.37c0.071-0.268-0.087-0.541-0.354-0.613l-1.979-0.53l1.944-1.121v-3.39l-2.937-1.697l-1.942,1.121
	l0.53-1.977c0.071-0.268-0.087-0.541-0.354-0.613c-0.265-0.063-0.541,0.088-0.612,0.354l-1.499,5.592L0.109,332.22z M-3.281,336.487
	l7.892,2.113v1.799l-7.893,2.113L-8.5,339.5L-3.281,336.487z M-3.139,337.56L-6.5,339.5l3.36,1.94l6.751-1.809v-0.264L-3.139,337.56
	z M4.759,342.429l-5.589,1.498l1.938,1.121l0.937-0.541l1.938,1.118l-0.002,2.236l-1.936,1.118l-1.937-1.118v-1.081l-1.941-1.122
	l1.498,5.592c0.06,0.224,0.262,0.371,0.482,0.371c0.043,0,0.086-0.006,0.13-0.017c0.267-0.072,0.425-0.346,0.354-0.612l-0.53-1.98
	l1.944,1.122l2.936-1.694l0.002-3.393l-1.944-1.121l1.98-0.53c0.267-0.072,0.425-0.346,0.354-0.613
	C5.3,342.517,5.027,342.362,4.759,342.429z M-4.282,344.245l2.116,7.893l-1.556,0.899l-5.778-5.779v-6.026L-4.282,344.245z
	 M-3.33,351.655l-1.81-6.752l-3.36-1.939v3.88l4.942,4.943L-3.33,351.655z M-9.5,350.088v2.24l0.937,0.541v2.234l-1.937,1.118
	l-1.937-1.118v-2.234l0.937-0.541v-2.243l-4.092,4.095c-0.195,0.195-0.195,0.512,0,0.707s0.512,0.195,0.707,0l1.448-1.449v2.244
	l2.937,1.694l2.937-1.694v-2.243l1.448,1.448c0.195,0.195,0.512,0.195,0.707,0s0.195-0.512,0-0.707L-9.5,350.088z M-11.5,347.258
	l-5.777,5.779l-1.557-0.899l2.116-7.893l5.218-3.014V347.258z M-12.5,342.964l-3.36,1.939l-1.81,6.752l0.229,0.132l4.941-4.943
	V342.964z M-21.108,346.78v1.081l-1.937,1.118l-1.936-1.118l-0.002-2.236l1.938-1.118l0.937,0.541l1.938-1.121l-5.589-1.498
	c-0.266-0.065-0.541,0.088-0.612,0.354c-0.071,0.268,0.087,0.541,0.354,0.613l1.98,0.53l-1.944,1.121l0.002,3.393l2.936,1.694
	l1.944-1.122l-0.53,1.98c-0.071,0.267,0.087,0.54,0.354,0.612c0.043,0.011,0.087,0.017,0.13,0.017c0.221,0,0.423-0.147,0.482-0.371
	l1.498-5.592L-21.108,346.78z M-17.718,342.513l-7.893-2.113v-1.799l7.892-2.113l5.219,3.013L-17.718,342.513z M-17.86,341.44
	l3.36-1.94l-3.361-1.94l-6.75,1.809v0.264L-17.86,341.44z M-25.889,336.588c0.043,0,0.086-0.006,0.13-0.017l5.59-1.498l-1.94-1.121
	l-0.937,0.541l-1.937-1.118v-2.235l1.937-1.119l1.937,1.118v1.081l1.94,1.123l-1.499-5.592c-0.071-0.266-0.346-0.418-0.612-0.354
	c-0.267,0.072-0.425,0.346-0.354,0.613l0.53,1.977l-1.942-1.121l-2.937,1.697v3.39l1.944,1.121l-1.979,0.53
	c-0.267,0.072-0.425,0.346-0.354,0.613C-26.312,336.44-26.11,336.588-25.889,336.588z M-16.719,334.755l-2.115-7.893l1.557-0.899
	l5.777,5.779v6.026L-16.719,334.755z M-17.67,327.345l1.809,6.752l3.361,1.939v-3.88l-4.941-4.943L-17.67,327.345z"/>
</svg>
