<?xml version="1.0" encoding="utf-8"?>
<!-- Generator: Adobe Illustrator 16.0.0, SVG Export Plug-In . SVG Version: 6.00 Build 0)  -->
<!DOCTYPE svg PUBLIC "-//W3C//DTD SVG 1.1//EN" "http://www.w3.org/Graphics/SVG/1.1/DTD/svg11.dtd">
<svg version="1.1" id="Layer_1" xmlns="http://www.w3.org/2000/svg" xmlns:xlink="http://www.w3.org/1999/xlink" x="0px" y="0px"
	 width="50px" height="50px" viewBox="104.5 34.5 50 50" enable-background="new 104.5 34.5 50 50" xml:space="preserve">
<path style="fill:white" d="M143.984,53.738l2.236-1.286V49.88l-2.236-1.289l-2.234,1.289v1.706l-2.168,1.247v-1.281c0-0.414-0.336-0.75-0.75-0.75
	s-0.75,0.336-0.75,0.75v2.145l-1.271,0.731v-4.062c0-0.414-0.336-0.75-0.75-0.75s-0.75,0.336-0.75,0.75v4.553
	c-1.189-1.506-2.947-2.539-4.949-2.772l4.018-2.32c0.358-0.207,0.481-0.666,0.274-1.024c-0.206-0.357-0.664-0.482-1.024-0.274
	l-3.379,1.951V49.01l1.715-0.99c0.358-0.207,0.481-0.666,0.274-1.024c-0.207-0.357-0.664-0.482-1.024-0.274l-0.965,0.557v-2.305
	l1.486-0.856v-2.572l-2.236-1.286l-2.236,1.286v2.572l1.486,0.856v2.389l-1.109-0.641c-0.359-0.208-0.818-0.083-1.024,0.274
	c-0.207,0.358-0.084,0.817,0.274,1.024l1.859,1.073v1.469l-3.523-2.034c-0.36-0.208-0.818-0.083-1.024,0.274
	c-0.207,0.358-0.084,0.817,0.274,1.024l4.048,2.338c-2.039,0.27-3.814,1.37-4.981,2.951l-0.002-4.749c0-0.414-0.336-0.75-0.75-0.75
	s-0.75,0.336-0.75,0.75l0.002,3.978l-1.273-0.732v-2.06c0-0.414-0.336-0.75-0.75-0.75s-0.75,0.336-0.75,0.75v1.196l-2.02-1.162
	V49.88l-2.234-1.289l-2.236,1.289v2.572l2.236,1.286l1.483-0.854l2.022,1.164l-1.039,0.6c-0.358,0.207-0.481,0.666-0.274,1.024
	c0.139,0.24,0.391,0.375,0.65,0.375c0.127,0,0.256-0.032,0.374-0.101l1.791-1.034l1.275,0.734l-3.457,1.995
	c-0.358,0.207-0.481,0.666-0.274,1.024c0.139,0.24,0.391,0.375,0.65,0.375c0.127,0,0.256-0.032,0.374-0.101l4.106-2.371
	c-0.389,0.899-0.606,1.89-0.606,2.93c0,1.019,0.207,1.99,0.581,2.874l-4.081-2.355c-0.359-0.208-0.818-0.083-1.024,0.274
	c-0.207,0.358-0.084,0.817,0.274,1.024l3.492,2.016l-1.274,0.733l-1.827-1.055c-0.36-0.208-0.818-0.083-1.024,0.274
	c-0.207,0.358-0.084,0.817,0.274,1.024l1.075,0.62l-2.06,1.185l-1.482-0.854l-2.236,1.288l0.002,2.572l2.234,1.286l2.236-1.286
	v-1.709l2.02-1.162v1.156c0,0.414,0.336,0.75,0.75,0.75s0.75-0.336,0.75-0.75v-2.02l1.271-0.731v3.938c0,0.414,0.336,0.75,0.75,0.75
	s0.75-0.336,0.75-0.75v-4.708c1.156,1.565,2.91,2.659,4.925,2.942l-3.991,2.305c-0.358,0.207-0.481,0.666-0.274,1.024
	c0.206,0.357,0.664,0.483,1.024,0.274l3.523-2.034v1.469l-1.859,1.073c-0.358,0.207-0.481,0.666-0.274,1.024
	c0.206,0.358,0.665,0.482,1.024,0.274l1.109-0.641v2.432l-1.486,0.854v2.572l2.236,1.286l2.236-1.286v-2.572l-1.486-0.854v-2.348
	l0.965,0.557c0.118,0.068,0.247,0.101,0.374,0.101c0.26,0,0.512-0.135,0.65-0.375c0.207-0.358,0.084-0.817-0.274-1.024l-1.715-0.99
	V68.48l3.379,1.951c0.118,0.068,0.247,0.101,0.374,0.101c0.26,0,0.512-0.135,0.65-0.375c0.207-0.358,0.084-0.817-0.274-1.024
	l-3.961-2.287c1.979-0.246,3.714-1.273,4.893-2.765v4.513c0,0.414,0.336,0.75,0.75,0.75s0.75-0.336,0.75-0.75v-4.021l1.271,0.731
	v2.104c0,0.414,0.336,0.75,0.75,0.75s0.75-0.336,0.75-0.75v-1.24l2.166,1.246v1.709l2.236,1.286l2.234-1.286l0.002-2.572
	l-2.236-1.288l-1.482,0.854l-2.133-1.227l1-0.578c0.358-0.207,0.481-0.666,0.274-1.024c-0.206-0.357-0.665-0.482-1.024-0.274
	l-1.752,1.013l-1.274-0.733l3.419-1.974c0.358-0.207,0.481-0.666,0.274-1.024c-0.207-0.357-0.664-0.482-1.024-0.274l-3.895,2.249
	c0.346-0.856,0.541-1.789,0.541-2.768c0-0.998-0.201-1.948-0.56-2.818l3.913,2.26c0.118,0.068,0.247,0.101,0.374,0.101
	c0.26,0,0.512-0.135,0.65-0.375c0.207-0.358,0.084-0.817-0.274-1.024l-3.385-1.953l1.275-0.733l1.717,0.991
	c0.118,0.068,0.247,0.101,0.374,0.101c0.26,0,0.512-0.135,0.65-0.375c0.207-0.358,0.084-0.817-0.274-1.024l-0.965-0.557l2.097-1.207
	L143.984,53.738z M130.25,65.355c-0.246,0.031-0.495,0.053-0.75,0.053s-0.504-0.021-0.75-0.053
	c-1.607-0.205-3.011-1.057-3.947-2.287c-0.303-0.397-0.561-0.83-0.756-1.297c-0.292-0.699-0.455-1.467-0.455-2.271
	s0.163-1.572,0.455-2.271c0.195-0.467,0.453-0.899,0.756-1.297c0.937-1.23,2.34-2.082,3.947-2.287
	c0.246-0.031,0.495-0.053,0.75-0.053s0.504,0.021,0.75,0.053c1.607,0.205,3.011,1.057,3.947,2.287
	c0.303,0.397,0.561,0.83,0.756,1.297c0.292,0.699,0.455,1.467,0.455,2.271s-0.163,1.572-0.455,2.271
	c-0.195,0.467-0.453,0.899-0.756,1.297C133.261,64.299,131.857,65.15,130.25,65.355z"/>
</svg>
