<?xml version="1.0" encoding="utf-8"?>
<!-- Generator: Adobe Illustrator 16.0.0, SVG Export Plug-In . SVG Version: 6.00 Build 0)  -->
<!DOCTYPE svg PUBLIC "-//W3C//DTD SVG 1.1//EN" "http://www.w3.org/Graphics/SVG/1.1/DTD/svg11.dtd">
<svg version="1.1" id="Layer_1" xmlns="http://www.w3.org/2000/svg" xmlns:xlink="http://www.w3.org/1999/xlink" x="0px" y="0px"
	 width="50px" height="50px" viewBox="-35.5 -245.5 50 50" enable-background="new -35.5 -245.5 50 50" xml:space="preserve">
<path style="fill:white" d="M4.5-221.25H1.945l1.494-1.493c0.293-0.293,0.293-0.768,0-1.061s-0.768-0.293-1.061,0l-2.554,2.554H-2.25l3.29-3.289
	c0.293-0.293,0.293-0.768,0-1.061s-0.768-0.293-1.061,0l-3.575,3.574l-2.159-2.158l6.795-6.796c0.293-0.293,0.293-0.768,0-1.061
	s-0.768-0.293-1.061,0l-6.795,6.796l-2.039-2.039l3.283-3.283c0.293-0.293,0.293-0.768,0-1.061s-0.768-0.293-1.061,0l-3.119,3.118
	v-2.314l2.429-2.43c0.293-0.293,0.293-0.768,0-1.061s-0.768-0.293-1.061,0l-1.369,1.369v-2.556c0-0.414-0.336-0.75-0.75-0.75
	s-0.75,0.336-0.75,0.75v2.554l-1.367-1.366c-0.293-0.293-0.768-0.293-1.061,0s-0.293,0.768,0,1.061l2.427,2.427v2.316l-3.119-3.118
	c-0.293-0.293-0.768-0.293-1.061,0s-0.293,0.768,0,1.061l3.283,3.282l-2.039,2.039l-6.794-6.795c-0.293-0.293-0.768-0.293-1.061,0
	s-0.293,0.768,0,1.061l6.794,6.795l-2.159,2.159l-3.575-3.574c-0.293-0.293-0.768-0.293-1.061,0s-0.293,0.768,0,1.061l3.29,3.289
	h-2.073l-2.554-2.554c-0.293-0.293-0.768-0.293-1.061,0s-0.293,0.768,0,1.061l1.493,1.493H-25.5c-0.414,0-0.75,0.336-0.75,0.75
	s0.336,0.75,0.75,0.75h2.307l-1.244,1.244c-0.293,0.293-0.293,0.768,0,1.061c0.146,0.146,0.338,0.22,0.53,0.22
	s0.384-0.073,0.53-0.22l2.305-2.305h2.322l-3.291,3.289c-0.293,0.293-0.293,0.768,0,1.061c0.146,0.146,0.338,0.22,0.53,0.22
	s0.384-0.073,0.53-0.22l3.576-3.575l2.159,2.159l-6.796,6.797c-0.293,0.293-0.293,0.768,0,1.061c0.146,0.146,0.338,0.22,0.53,0.22
	s0.384-0.073,0.53-0.22l6.796-6.797l2.039,2.039l-3.284,3.284c-0.293,0.293-0.293,0.768,0,1.061s0.768,0.293,1.061,0l3.119-3.118
	v2.565l-2.428,2.429c-0.293,0.293-0.293,0.768,0,1.061c0.146,0.146,0.338,0.22,0.53,0.22s0.384-0.073,0.53-0.22l1.368-1.368v2.304
	c0,0.414,0.336,0.75,0.75,0.75s0.75-0.336,0.75-0.75v-2.304l1.367,1.367c0.293,0.293,0.768,0.293,1.061,0s0.293-0.768,0-1.061
	l-2.428-2.428v-2.565l3.119,3.118c0.146,0.146,0.338,0.22,0.53,0.22s0.384-0.073,0.53-0.22c0.293-0.293,0.293-0.768,0-1.061
	l-3.283-3.283l2.04-2.039l6.794,6.796c0.146,0.146,0.338,0.22,0.53,0.22s0.384-0.073,0.53-0.22c0.293-0.293,0.293-0.768,0-1.061
	l-6.794-6.796l2.159-2.159l3.575,3.574c0.146,0.146,0.338,0.22,0.53,0.22s0.384-0.073,0.53-0.22c0.293-0.293,0.293-0.768,0-1.061
	l-3.29-3.289h2.323l2.304,2.305c0.146,0.146,0.338,0.22,0.53,0.22s0.384-0.073,0.53-0.22c0.293-0.293,0.293-0.768,0-1.061
	l-1.244-1.244H4.5c0.414,0,0.75-0.336,0.75-0.75S4.914-221.25,4.5-221.25z M-9.915-214.776l-0.584,0.585l-0.585-0.586l-0.166-0.165
	l-4.808-4.808l-0.286-0.285l-0.465-0.466l0.464-0.464l0.285-0.285l4.81-4.81l0.164-0.164l0.585-0.585l0.586,0.585l0.165,0.165
	l4.809,4.809l0.285,0.285l0.465,0.465l-0.465,0.465l-0.285,0.285l-4.809,4.81L-9.915-214.776z"/>
</svg>
