<?xml version="1.0" encoding="utf-8"?>
<!-- Generator: Adobe Illustrator 16.0.0, SVG Export Plug-In . SVG Version: 6.00 Build 0)  -->
<!DOCTYPE svg PUBLIC "-//W3C//DTD SVG 1.1//EN" "http://www.w3.org/Graphics/SVG/1.1/DTD/svg11.dtd">
<svg version="1.1" id="Layer_1" xmlns="http://www.w3.org/2000/svg" xmlns:xlink="http://www.w3.org/1999/xlink" x="0px" y="0px"
	 width="50px" height="50px" viewBox="244.5 -35.5 50 50" enable-background="new 244.5 -35.5 50 50" xml:space="preserve">
<path style="fill:white" d="M258.766-6.173l0.026-0.046l0.865,0.5l-0.026,0.046c-0.092,0.16-0.261,0.25-0.433,0.25c-0.019,0-0.035-0.012-0.054-0.015
	l-0.355-0.205C258.684-5.796,258.666-6.001,258.766-6.173z M261.574-19.407l2.786,0.001l1.392-2.414
	c0.138-0.239,0.056-0.545-0.184-0.683c-0.241-0.138-0.545-0.056-0.684,0.184l-1.103,1.913l-2.208-0.001c-0.276,0-0.5,0.224-0.5,0.5
	C261.074-19.631,261.298-19.407,261.574-19.407z M277.428-1.594l-2.785-0.001l-1.392,2.412c-0.138,0.239-0.056,0.545,0.184,0.683
	c0.079,0.045,0.165,0.067,0.25,0.067c0.173,0,0.341-0.09,0.434-0.25l1.103-1.912l2.207,0.001c0.276,0,0.5-0.224,0.5-0.5
	C277.928-1.37,277.704-1.594,277.428-1.594z M274.642-19.405h2.786c0.276,0,0.5-0.224,0.5-0.5s-0.224-0.5-0.5-0.5h-2.208
	l-1.105-1.913c-0.138-0.24-0.443-0.321-0.683-0.183s-0.321,0.444-0.183,0.683L274.642-19.405z M264.359-1.594h-2.787
	c-0.276,0-0.5,0.224-0.5,0.5s0.224,0.5,0.5,0.5h2.209l1.105,1.912c0.093,0.161,0.261,0.25,0.433,0.25
	c0.085,0,0.171-0.021,0.25-0.067c0.239-0.138,0.321-0.444,0.183-0.683L264.359-1.594z M257.141-7.904
	c0.079,0.045,0.165,0.067,0.25,0.067c0.173,0,0.341-0.09,0.434-0.25l1.391-2.412l-1.394-2.413c-0.138-0.24-0.445-0.321-0.683-0.183
	c-0.239,0.138-0.321,0.444-0.183,0.683l1.104,1.913l-1.104,1.912C256.819-8.348,256.901-8.042,257.141-7.904z M281.859-13.095
	c-0.238-0.136-0.545-0.056-0.683,0.183l-1.393,2.412l1.394,2.413c0.092,0.161,0.261,0.25,0.433,0.25c0.085,0,0.171-0.021,0.25-0.067
	c0.239-0.138,0.321-0.444,0.183-0.683l-1.104-1.913l1.104-1.912C282.181-12.651,282.099-12.957,281.859-13.095z M284.997-1.553
	c-0.092,0.16-0.261,0.25-0.433,0.25c-0.085,0-0.171-0.021-0.25-0.067l-0.98-0.566l-2.137,1.232c-0.077,0.044-0.164,0.067-0.25,0.067
	s-0.173-0.022-0.25-0.067l-2.384-1.376c-0.154-0.089-0.25-0.254-0.25-0.433v-0.854h-4.442l-2.225,3.85l0.738,0.426
	c0.154,0.089,0.25,0.254,0.25,0.433l0.001,2.754c0,0.179-0.096,0.344-0.25,0.433L270,5.76v1.134c0,0.276-0.224,0.5-0.5,0.5
	s-0.5-0.224-0.5-0.5V5.759l-2.136-1.231c-0.154-0.089-0.25-0.254-0.25-0.433l0.001-2.753c0-0.179,0.096-0.344,0.25-0.433
	l0.738-0.426l-2.223-3.848l-4.442-0.001l0.001,0.851c0,0.179-0.095,0.344-0.25,0.434l-2.387,1.378
	c-0.077,0.044-0.164,0.067-0.25,0.067s-0.173-0.022-0.25-0.067l-2.136-1.233l-0.983,0.568c-0.079,0.045-0.165,0.067-0.25,0.067
	c-0.172,0-0.341-0.089-0.433-0.25c-0.139-0.239-0.057-0.545,0.183-0.683l0.983-0.568l0.001-2.464c0-0.179,0.096-0.344,0.25-0.433
	l2.387-1.378c0.154-0.089,0.346-0.089,0.5,0l0.737,0.426l2.221-3.848l-2.222-3.849l-0.738,0.426
	c-0.077,0.044-0.164,0.067-0.25,0.067s-0.173-0.022-0.25-0.067l-2.385-1.377c-0.155-0.089-0.25-0.255-0.25-0.434l0.002-2.464
	l-0.984-0.568c-0.239-0.138-0.321-0.444-0.183-0.683c0.138-0.239,0.445-0.32,0.683-0.183l0.984,0.568l2.133-1.233
	c0.153-0.089,0.345-0.09,0.5,0l2.386,1.379c0.155,0.089,0.25,0.255,0.25,0.433v0.85h4.443l2.222-3.846l-0.74-0.427
	c-0.154-0.089-0.25-0.254-0.25-0.434l0.002-2.755c0-0.178,0.096-0.343,0.25-0.433L269-26.762v-1.133c0-0.276,0.224-0.5,0.5-0.5
	s0.5,0.224,0.5,0.5v1.135l2.135,1.231c0.154,0.089,0.25,0.254,0.25,0.434l-0.002,2.755c0,0.178-0.096,0.343-0.25,0.433l-0.735,0.425
	l2.224,3.849h4.44l-0.001-0.851c0-0.179,0.095-0.344,0.25-0.434l2.387-1.378c0.154-0.089,0.346-0.089,0.5,0l2.136,1.233l0.983-0.568
	c0.239-0.138,0.545-0.057,0.683,0.183c0.139,0.239,0.057,0.545-0.183,0.683l-0.984,0.568v2.464c0,0.179-0.096,0.344-0.25,0.433
	l-2.387,1.378c-0.077,0.044-0.164,0.067-0.25,0.067c-0.087,0-0.173-0.022-0.25-0.067l-0.736-0.426l-2.222,3.849l2.223,3.849
	l0.735-0.424c0.154-0.089,0.344-0.089,0.5,0l2.388,1.375c0.154,0.089,0.25,0.254,0.25,0.434l-0.002,2.462l0.983,0.568
	C285.054-2.098,285.136-1.792,284.997-1.553z M282.832-3.381l0.001-1.597l-1.888-1.087l-0.734,0.424l-0.348,0.201l-0.3,0.173
	l-0.501,0.289v0.577v0.321l0.001,0.428v0.851l1.884,1.087l1.386-0.8l0.498-0.287L282.832-3.381z M279.095-14.848l-0.531-0.307
	l-2.283,1.318l-2.442,3.337l2.442,3.337l2.283,1.318l0.531-0.306l-2.512-4.348L279.095-14.848z M271.385,1.631l-0.763-0.44
	l-0.339-0.196L270,0.832l-0.5-0.289L269,0.832l-0.279,0.161l-0.349,0.201l-0.757,0.437l-0.001,2.175L269,4.604l0.501,0.289
	L270,4.606l1.386-0.798L271.385,1.631z M267.613-22.629l0.737,0.425l0.371,0.214L269-21.83l0.5,0.288l0.5-0.289l0.281-0.163
	l0.367-0.212l0.734-0.424l0.002-2.178L270-25.605l-0.502-0.289L269-25.607l-1.385,0.8L267.613-22.629z M274.134-8.402l-1.536-2.098
	l1.536-2.098l0.732-1l-1.232,0.134l-2.585,0.281L270-15.562l-0.5-1.134l-0.5,1.134l-1.049,2.379l-2.585-0.281l-1.232-0.134l0.732,1
	l1.536,2.098l-1.536,2.098l-0.732,1l1.232-0.134l2.585-0.281L269-5.438l0.5,1.134l0.5-1.134l1.049-2.379l2.585,0.281l1.232,0.134
	L274.134-8.402z M282.333-18.486l-1.386-0.8l-1.887,1.089l0.001,0.847v0.432l0.001,0.32v0.577l0.5,0.289l0.281,0.163l0.368,0.213
	l0.733,0.424l1.887-1.089v-1.599v-0.578L282.333-18.486z M270.532-20.983L270-20.676v2.637l1.668,3.784l4.112-0.447l2.282-1.317
	l-0.001-0.613h-5.019L270.532-20.983z M260.938-16.635v0.614l2.282,1.318l4.112,0.447L269-18.04v-2.636l-0.531-0.306l-2.509,4.347
	H260.938z M258.788-15.356l0.37-0.213l0.28-0.162l0.499-0.289v-0.578v-0.326l0.001-0.422v-0.85l-1.886-1.09l-1.384,0.8l-0.499,0.289
	v0.578l-0.002,1.599l1.885,1.088L258.788-15.356z M259.907-6.151l0.53,0.306l2.282-1.318l2.442-3.337l-2.442-3.337l-2.281-1.317
	l-0.532,0.307l2.511,4.348L259.907-6.151z M258.792-6.219l-0.026,0.046c-0.1,0.172-0.082,0.376,0.023,0.53l-0.734-0.424
	l-1.887,1.089l-0.001,1.598v0.578l0.5,0.289l1.386,0.8l1.887-1.089l-0.001-0.85v-0.426l-0.001-0.323v-0.577l-0.5-0.289l-0.293-0.169
	c0.019,0.002,0.035,0.015,0.054,0.015c0.172,0,0.341-0.09,0.433-0.25l0.026-0.046L258.792-6.219z M268.47-0.017L269-0.323V-2.96
	l-1.668-3.784l-4.112,0.447l-2.282,1.317l0.001,0.613l5.021,0.001L268.47-0.017z M278.062-4.366v-0.613l-2.282-1.318l-4.112-0.447
	L270-2.96v2.638l0.531,0.307l2.512-4.35H278.062z"/>
</svg>
