<?xml version="1.0" encoding="utf-8"?>
<!-- Generator: Adobe Illustrator 16.0.0, SVG Export Plug-In . SVG Version: 6.00 Build 0)  -->
<!DOCTYPE svg PUBLIC "-//W3C//DTD SVG 1.1//EN" "http://www.w3.org/Graphics/SVG/1.1/DTD/svg11.dtd">
<svg version="1.1" id="Layer_1" xmlns="http://www.w3.org/2000/svg" xmlns:xlink="http://www.w3.org/1999/xlink" x="0px" y="0px"
	 width="50px" height="50px" viewBox="-175.5 -35.5 50 50" enable-background="new -175.5 -35.5 50 50" xml:space="preserve">
<path style="fill:white" d="M-135.5-11h-5.925l3.722-3.723c0.195-0.195,0.195-0.512,0-0.707s-0.512-0.195-0.707,0l-4.43,4.43h-6.453l9.753-9.753
	c0.195-0.195,0.195-0.512,0-0.707s-0.512-0.195-0.707,0L-150-11.707v-6.449l4.428-4.434c0.195-0.196,0.195-0.512,0-0.708
	c-0.195-0.194-0.512-0.195-0.708,0l-3.72,3.726V-25.5c0-0.276-0.224-0.5-0.5-0.5s-0.5,0.224-0.5,0.5v5.925l-3.723-3.722
	c-0.195-0.195-0.512-0.195-0.707,0s-0.195,0.512,0,0.707l4.43,4.43v6.453l-9.753-9.753c-0.195-0.195-0.512-0.195-0.707,0
	s-0.195,0.512,0,0.707l9.753,9.753h-6.449l-4.434-4.428c-0.195-0.194-0.512-0.195-0.708,0c-0.195,0.196-0.195,0.512,0,0.708
	l3.726,3.72h-5.929c-0.276,0-0.5,0.224-0.5,0.5s0.224,0.5,0.5,0.5h5.925l-3.722,3.723c-0.195,0.195-0.195,0.512,0,0.707
	c0.098,0.098,0.226,0.146,0.354,0.146s0.256-0.049,0.354-0.146l4.43-4.43h6.453l-9.753,9.753c-0.195,0.195-0.195,0.512,0,0.707
	c0.098,0.098,0.226,0.146,0.354,0.146s0.256-0.049,0.354-0.146L-151-9.293v6.449l-4.428,4.434c-0.195,0.196-0.195,0.512,0,0.708
	c0.195,0.194,0.512,0.195,0.708,0l3.72-3.726V4.5c0,0.276,0.224,0.5,0.5,0.5s0.5-0.224,0.5-0.5v-5.925l3.723,3.722
	c0.098,0.098,0.226,0.146,0.354,0.146s0.256-0.049,0.354-0.146c0.195-0.195,0.195-0.512,0-0.707L-150-2.84v-6.453l9.753,9.753
	c0.098,0.098,0.226,0.146,0.354,0.146s0.256-0.049,0.354-0.146c0.195-0.195,0.195-0.512,0-0.707L-149.293-10h6.449l4.434,4.428
	c0.098,0.097,0.226,0.146,0.354,0.146s0.256-0.049,0.354-0.146c0.195-0.196,0.195-0.512,0-0.708l-3.726-3.72h5.929
	c0.276,0,0.5-0.224,0.5-0.5S-135.224-11-135.5-11z"/>
</svg>
