<?xml version="1.0" encoding="utf-8"?>
<!-- Generator: Adobe Illustrator 16.0.0, SVG Export Plug-In . SVG Version: 6.00 Build 0)  -->
<!DOCTYPE svg PUBLIC "-//W3C//DTD SVG 1.1//EN" "http://www.w3.org/Graphics/SVG/1.1/DTD/svg11.dtd">
<svg version="1.1" id="Layer_1" xmlns="http://www.w3.org/2000/svg" xmlns:xlink="http://www.w3.org/1999/xlink" x="0px" y="0px"
	 width="50px" height="50px" viewBox="34.5 104.5 50 50" enable-background="new 34.5 104.5 50 50" xml:space="preserve">
<path style="fill:white" d="M70.941,136.447H68l-2.205-2.205h4.41c0.414,0,0.75-0.336,0.75-0.75s-0.336-0.75-0.75-0.75h-4.778
	c0.529-0.963,0.831-2.067,0.831-3.242c0-1.585-0.553-3.042-1.47-4.195h5.831c0.414,0,0.75-0.336,0.75-0.75s-0.336-0.75-0.75-0.75
	h-4.654l1.251-1.251h3.55c0.414,0,0.75-0.336,0.75-0.75s-0.336-0.75-0.75-0.75h-2.05l2.021-2.021c0.293-0.293,0.293-0.768,0-1.061
	s-0.768-0.293-1.061,0l-1.907,1.907v-1.821c0-0.414-0.336-0.75-0.75-0.75s-0.75,0.336-0.75,0.75v3.321l-1.365,1.365l0.002-4.652
	c0-0.414-0.336-0.75-0.75-0.75s-0.75,0.336-0.75,0.75l-0.002,5.902c-1.104-0.785-2.449-1.252-3.904-1.252
	c-1.295,0-2.502,0.373-3.531,1.007v-5.244c0-0.414-0.336-0.75-0.75-0.75s-0.75,0.336-0.75,0.75v4.411l-1.738-1.738v-2.943
	c0-0.414-0.336-0.75-0.75-0.75s-0.75,0.336-0.75,0.75v1.443l-1.706-1.706c-0.293-0.293-0.768-0.293-1.061,0s-0.293,0.768,0,1.061
	l2.197,2.197h-2.425c-0.414,0-0.75,0.336-0.75,0.75s0.336,0.75,0.75,0.75h3.925l1.246,1.246l-4.409,0.001
	c-0.414,0-0.75,0.336-0.75,0.75s0.336,0.75,0.75,0.75l5.086-0.001c-0.839,1.126-1.342,2.516-1.342,4.024
	c0,1.245,0.345,2.409,0.935,3.412h-5.091c-0.414,0-0.75,0.336-0.75,0.75s0.336,0.75,0.75,0.75h4.65l-1.857,1.857h-3.32
	c-0.414,0-0.75,0.336-0.75,0.75s0.336,0.75,0.75,0.75h1.82l-1.415,1.415c-0.293,0.293-0.293,0.768,0,1.061
	c0.146,0.146,0.338,0.22,0.53,0.22s0.384-0.073,0.53-0.22l1.53-1.53v2.051c0,0.414,0.336,0.75,0.75,0.75s0.75-0.336,0.75-0.75
	v-3.551l1.742-1.742v4.652c0,0.414,0.336,0.75,0.75,0.75s0.75-0.336,0.75-0.75v-4.979c1.064,0.7,2.336,1.111,3.703,1.111
	c1.38,0,2.664-0.418,3.734-1.131v4.586c0,0.414,0.336,0.75,0.75,0.75s0.75-0.336,0.75-0.75v-4.41l1.713,1.713v3.927
	c0,0.414,0.336,0.75,0.75,0.75s0.75-0.336,0.75-0.75v-2.427l1.729,1.729c0.146,0.146,0.338,0.22,0.53,0.22s0.384-0.073,0.53-0.22
	c0.293-0.293,0.293-0.768,0-1.061l-1.237-1.237h1.441c0.414,0,0.75-0.336,0.75-0.75S71.355,136.447,70.941,136.447z M59.5,134.758
	c-1.254,0-2.391-0.459-3.295-1.193c-0.137-0.111-0.283-0.213-0.408-0.338c-0.098-0.096-0.175-0.211-0.264-0.314
	c-0.123-0.143-0.253-0.28-0.36-0.437c-0.585-0.847-0.931-1.87-0.931-2.976c0-1.305,0.495-2.484,1.284-3.405
	c0.328-0.382,0.697-0.725,1.121-1c0.823-0.534,1.8-0.853,2.853-0.853c1.105,0,2.129,0.346,2.976,0.931
	c0.415,0.286,0.771,0.643,1.089,1.032c0.734,0.904,1.193,2.041,1.193,3.295c0,1.053-0.318,2.029-0.853,2.853
	c-0.09,0.138-0.196,0.261-0.298,0.39c-0.121,0.153-0.235,0.313-0.373,0.452c-0.102,0.103-0.22,0.185-0.329,0.279
	C61.984,134.263,60.805,134.758,59.5,134.758z M60.352,140.985v3.694c0,0.414-0.336,0.75-0.75,0.75s-0.75-0.336-0.75-0.75v-3.694
	c0-0.414,0.336-0.75,0.75-0.75S60.352,140.571,60.352,140.985z M48.018,130.15h-3.695c-0.414,0-0.75-0.336-0.75-0.75
	s0.336-0.75,0.75-0.75h3.695c0.414,0,0.75,0.336,0.75,0.75S48.432,130.15,48.018,130.15z M58.652,118.014l0.002-3.693
	c0-0.414,0.336-0.75,0.75-0.75c0.415,0,0.75,0.336,0.75,0.75l-0.002,3.693c0,0.414-0.336,0.75-0.75,0.75
	C58.987,118.764,58.652,118.428,58.652,118.014z M75.428,129.605c0,0.414-0.336,0.75-0.75,0.75l-3.695-0.002
	c-0.415,0-0.75-0.336-0.75-0.75s0.336-0.75,0.75-0.75l3.695,0.002C75.093,128.855,75.428,129.191,75.428,129.605z"/>
</svg>
