<?xml version="1.0" encoding="utf-8"?>
<!-- Generator: Adobe Illustrator 16.0.0, SVG Export Plug-In . SVG Version: 6.00 Build 0)  -->
<!DOCTYPE svg PUBLIC "-//W3C//DTD SVG 1.1//EN" "http://www.w3.org/Graphics/SVG/1.1/DTD/svg11.dtd">
<svg version="1.1" id="Layer_1" xmlns="http://www.w3.org/2000/svg" xmlns:xlink="http://www.w3.org/1999/xlink" x="0px" y="0px"
	 width="50px" height="50px" viewBox="244.5 104.5 50 50" enable-background="new 244.5 104.5 50 50" xml:space="preserve">
<path style="fill:white" d="M280.608,123.664l1.437,0.829l1.938-1.117v-2.236l-1.938-1.119l-1.936,1.119v1.659l-3.018,1.742l-6.403-3.695l4.964-4.964
	c0.195-0.195,0.195-0.512,0-0.707s-0.512-0.195-0.707,0L270,120.12v-3.158l1.437-0.83v-2.236l-1.937-1.117l-1.937,1.117v2.236
	l1.437,0.83v3.158l-4.945-4.945c-0.195-0.195-0.512-0.195-0.707,0s-0.195,0.512,0,0.707l4.964,4.964l-6.403,3.695l-3.018-1.742
	v-1.659l-1.937-1.119l-1.937,1.119v2.236l1.937,1.117l1.438-0.829l3.02,1.744v8.186l-3.019,1.743l-1.438-0.83l-1.938,1.119
	l0.002,2.236l1.936,1.117l1.937-1.117v-1.659l3.02-1.743l6.399,3.695l-4.963,4.965c-0.195,0.195-0.195,0.512,0,0.707
	s0.512,0.195,0.707,0L269,138.88v3.159l-1.437,0.829v2.236l1.937,1.117l1.937-1.117v-2.236L270,142.039v-3.159l4.945,4.947
	c0.098,0.098,0.226,0.146,0.354,0.146s0.256-0.049,0.354-0.146c0.195-0.195,0.195-0.512,0-0.707l-4.963-4.965l6.399-3.695
	l3.019,1.742v1.66l1.938,1.117l1.936-1.117l0.002-2.236l-1.938-1.119l-1.438,0.83l-3.019-1.743v-8.186L280.608,123.664z
	 M276.589,132.941l-2.949-3.44l2.949-3.44V132.941z M262.411,126.061l2.949,3.44l-2.949,3.44V126.061z M269.5,135.952l-0.5-1.419
	l-0.912-2.589l-2.695,0.505l-1.48,0.277l0.978-1.141l1.787-2.085l-1.787-2.085l-0.978-1.141l1.48,0.277l2.695,0.505l0.912-2.59
	l0.5-1.42l0.5,1.422l0.91,2.588l2.697-0.505l1.48-0.277l-0.978,1.141l-1.787,2.085l1.787,2.085l0.978,1.141l-1.48-0.277
	l-2.697-0.505l-0.91,2.587L269.5,135.952z M276.028,125.082l-4.46,0.835l-1.504-4.277L276.028,125.082z M268.936,121.641
	l-1.506,4.276l-4.458-0.835L268.936,121.641z M262.977,133.919l4.453-0.834l1.506,4.276L262.977,133.919z M270.063,137.362
	l1.505-4.277l4.455,0.834L270.063,137.362z"/>
</svg>
