<?xml version="1.0" encoding="utf-8"?>
<!-- Generator: Adobe Illustrator 16.0.0, SVG Export Plug-In . SVG Version: 6.00 Build 0)  -->
<!DOCTYPE svg PUBLIC "-//W3C//DTD SVG 1.1//EN" "http://www.w3.org/Graphics/SVG/1.1/DTD/svg11.dtd">
<svg version="1.1" id="Layer_1" xmlns="http://www.w3.org/2000/svg" xmlns:xlink="http://www.w3.org/1999/xlink" x="0px" y="0px"
	 width="50px" height="50px" viewBox="244.5 -35.5 50 50" enable-background="new 244.5 -35.5 50 50" xml:space="preserve">
<g>
	<path style="fill:white" d="M284.5-11h-5.926l3.723-3.723c0.195-0.195,0.195-0.512,0-0.707s-0.512-0.195-0.707,0l-4.368,4.368l-1.857-4.595
		l5.097-5.097c0.195-0.195,0.195-0.512,0-0.707s-0.512-0.195-0.707,0l-5.13,5.13l-4.53-1.921l4.334-4.339
		c0.195-0.196,0.195-0.512,0-0.708c-0.195-0.194-0.512-0.195-0.707,0L270-19.571V-25.5c0-0.276-0.224-0.5-0.5-0.5
		s-0.5,0.224-0.5,0.5v5.925l-3.723-3.722c-0.195-0.195-0.512-0.195-0.707,0s-0.195,0.512,0,0.707l4.369,4.37l-4.594,1.858
		l-5.098-5.098c-0.195-0.195-0.512-0.195-0.707,0s-0.195,0.512,0,0.707l5.131,5.131l-1.924,4.527l-4.338-4.333
		c-0.195-0.194-0.512-0.195-0.707,0c-0.195,0.196-0.195,0.512,0,0.708l3.726,3.72H254.5c-0.276,0-0.5,0.224-0.5,0.5
		s0.224,0.5,0.5,0.5h5.926l-3.723,3.723c-0.195,0.195-0.195,0.512,0,0.707c0.098,0.098,0.226,0.146,0.354,0.146
		s0.256-0.049,0.354-0.146l4.37-4.37l1.858,4.595l-5.098,5.098c-0.195,0.195-0.195,0.512,0,0.707
		c0.098,0.098,0.226,0.146,0.354,0.146s0.256-0.049,0.354-0.146l5.13-5.13l4.528,1.92l-4.334,4.339
		c-0.195,0.196-0.195,0.512,0,0.708c0.195,0.194,0.512,0.195,0.707,0L269-1.429V4.5c0,0.276,0.224,0.5,0.5,0.5s0.5-0.224,0.5-0.5
		v-5.925l3.723,3.722c0.098,0.098,0.226,0.146,0.354,0.146s0.256-0.049,0.354-0.146c0.195-0.195,0.195-0.512,0-0.707l-4.369-4.37
		l4.595-1.858l5.099,5.098c0.098,0.098,0.226,0.146,0.354,0.146s0.256-0.049,0.354-0.146c0.195-0.195,0.195-0.512,0-0.707
		l-5.132-5.132l1.924-4.525l4.337,4.333c0.098,0.097,0.226,0.146,0.354,0.146s0.256-0.049,0.354-0.146
		c0.195-0.196,0.195-0.512,0-0.708L278.571-10h5.929c0.276,0,0.5-0.224,0.5-0.5S284.776-11,284.5-11z M276.207-10l-1.641,3.858
		l-0.236,0.556l-0.442,0.179L270-3.834l-0.558,0.226L269-3.796l-3.859-1.637l-0.554-0.235l-0.181-0.445L262.834-10l-0.227-0.56
		l0.188-0.44l1.639-3.86l0.236-0.555l0.443-0.179L269-17.166l0.558-0.226L270-17.204l3.861,1.637l0.556,0.236l0.18,0.443L276.168-11
		l0.227,0.56L276.207-10z"/>
	<path style="fill:white" d="M273.718-14.01l-0.184-0.455l-0.545-0.231L270-15.962l-0.452-0.192L269-15.933l-3.009,1.216l-0.454,0.184l-0.231,0.545
		L264.037-11l-0.191,0.452L264.067-10l1.218,3.009l0.185,0.457l0.543,0.23L269-5.038l0.452,0.192L270-5.067l3.011-1.216l0.454-0.183
		l0.231-0.545L274.965-10l0.191-0.451L274.935-11L273.718-14.01z M273.879-10l-0.945,2.226l-0.227,0.535l-0.464,0.188L270-6.145
		l-0.538,0.217L269-6.124l-2.225-0.943l-0.534-0.227l-0.188-0.465L265.146-10l-0.219-0.54l0.195-0.46l0.944-2.226l0.228-0.536
		l0.464-0.188L269-14.855l0.538-0.217L270-14.876l2.227,0.944l0.536,0.227l0.188,0.463L273.856-11l0.218,0.539L273.879-10z"/>
</g>
</svg>
