<?xml version="1.0" encoding="utf-8"?>
<!-- Generator: Adobe Illustrator 16.0.0, SVG Export Plug-In . SVG Version: 6.00 Build 0)  -->
<!DOCTYPE svg PUBLIC "-//W3C//DTD SVG 1.1//EN" "http://www.w3.org/Graphics/SVG/1.1/DTD/svg11.dtd">
<svg version="1.1" id="Layer_1" xmlns="http://www.w3.org/2000/svg" xmlns:xlink="http://www.w3.org/1999/xlink" x="0px" y="0px"
	 width="50px" height="50px" viewBox="-105.5 104.5 50 50" enable-background="new -105.5 104.5 50 50" xml:space="preserve">
<path style="fill:white" d="M-68.309,137.197c0,0.414-0.336,0.75-0.75,0.75h-2.994v2.995c0,0.414-0.336,0.75-0.75,0.75s-0.75-0.336-0.75-0.75v-4.495
	h4.494C-68.645,136.447-68.309,136.783-68.309,137.197z M-91.764,122.729h4.494v-4.495c0-0.414-0.336-0.75-0.75-0.75
	s-0.75,0.336-0.75,0.75v2.995h-2.994c-0.414,0-0.75,0.336-0.75,0.75S-92.178,122.729-91.764,122.729z M-92.691,137.02
	c0,0.414,0.336,0.75,0.75,0.75h2.996v2.996c0,0.414,0.336,0.75,0.75,0.75s0.75-0.336,0.75-0.75v-4.496h-4.496
	C-92.355,136.27-92.691,136.605-92.691,137.02z M-68.484,121.804c0-0.414-0.336-0.75-0.75-0.75h-2.996v-2.996
	c0-0.414-0.336-0.75-0.75-0.75s-0.75,0.336-0.75,0.75v4.496h4.496C-68.82,122.554-68.484,122.218-68.484,121.804z M-64.75,129.5
	c0,0.414-0.336,0.75-0.75,0.75h-3.289l1.8,1.8c0.293,0.293,0.293,0.768,0,1.061c-0.146,0.146-0.338,0.22-0.53,0.22
	s-0.384-0.073-0.53-0.22l-2.86-2.86h-2.875c-0.158,1.419-0.759,2.703-1.659,3.72h5.384c0.414,0,0.75,0.336,0.75,0.75
	s-0.336,0.75-0.75,0.75h-4.479v4.478c0,0.414-0.336,0.75-0.75,0.75s-0.75-0.336-0.75-0.75v-5.384
	c-1.015,0.895-2.296,1.493-3.711,1.65v2.876l2.859,2.86c0.293,0.293,0.293,0.768,0,1.061c-0.146,0.146-0.338,0.22-0.53,0.22
	s-0.384-0.073-0.53-0.22l-1.799-1.8v3.289c0,0.414-0.336,0.75-0.75,0.75s-0.75-0.336-0.75-0.75v-3.289l-1.8,1.8
	c-0.293,0.293-0.768,0.293-1.061,0s-0.293-0.768,0-1.061l2.86-2.86v-2.876c-1.415-0.157-2.695-0.755-3.71-1.649v5.383
	c0,0.414-0.336,0.75-0.75,0.75s-0.75-0.336-0.75-0.75v-4.478h-4.479c-0.414,0-0.75-0.336-0.75-0.75s0.336-0.75,0.75-0.75h5.383
	c-0.899-1.017-1.501-2.301-1.659-3.72h-2.875l-2.86,2.859c-0.146,0.146-0.338,0.22-0.53,0.22s-0.384-0.073-0.53-0.22
	c-0.293-0.293-0.293-0.768,0-1.061l1.799-1.799H-95.5c-0.414,0-0.75-0.336-0.75-0.75s0.336-0.75,0.75-0.75h3.289l-1.8-1.8
	c-0.293-0.293-0.293-0.768,0-1.061s0.768-0.293,1.061,0l2.86,2.86h2.875c0.157-1.415,0.756-2.696,1.651-3.711h-5.375
	c-0.414,0-0.75-0.336-0.75-0.75s0.336-0.75,0.75-0.75h4.479v-4.479c0-0.414,0.336-0.75,0.75-0.75s0.75,0.336,0.75,0.75v5.375
	c1.015-0.895,2.295-1.492,3.71-1.649v-2.876l-2.859-2.86c-0.293-0.293-0.293-0.768,0-1.061s0.768-0.293,1.061,0l1.799,1.8V114.5
	c0-0.414,0.336-0.75,0.75-0.75s0.75,0.336,0.75,0.75v3.289l1.8-1.8c0.293-0.293,0.768-0.293,1.061,0s0.293,0.768,0,1.061l-2.86,2.86
	v2.876c1.415,0.157,2.696,0.756,3.711,1.65v-5.376c0-0.414,0.336-0.75,0.75-0.75s0.75,0.336,0.75,0.75v4.479h4.479
	c0.414,0,0.75,0.336,0.75,0.75s-0.336,0.75-0.75,0.75h-5.376c0.895,1.015,1.494,2.296,1.651,3.711h2.875l2.86-2.859
	c0.293-0.293,0.768-0.293,1.061,0s0.293,0.768,0,1.061l-1.799,1.799h3.289C-65.086,128.75-64.75,129.086-64.75,129.5z
	 M-75.317,128.75c-0.332-2.295-2.137-4.1-4.433-4.432c-0.247-0.036-0.493-0.076-0.75-0.076s-0.503,0.04-0.75,0.076
	c-2.295,0.332-4.101,2.137-4.433,4.432c-0.036,0.247-0.076,0.493-0.076,0.75s0.04,0.503,0.076,0.75
	c0.332,2.295,2.137,4.1,4.433,4.432c0.247,0.036,0.493,0.076,0.75,0.076s0.503-0.04,0.75-0.076c2.295-0.332,4.101-2.137,4.433-4.432
	c0.036-0.247,0.076-0.493,0.076-0.75S-75.282,128.997-75.317,128.75z"/>
</svg>
