<?xml version="1.0" encoding="utf-8"?>
<!-- Generator: Adobe Illustrator 16.0.0, SVG Export Plug-In . SVG Version: 6.00 Build 0)  -->
<!DOCTYPE svg PUBLIC "-//W3C//DTD SVG 1.1//EN" "http://www.w3.org/Graphics/SVG/1.1/DTD/svg11.dtd">
<svg version="1.1" id="Layer_1" xmlns="http://www.w3.org/2000/svg" xmlns:xlink="http://www.w3.org/1999/xlink" x="0px" y="0px"
	 width="50px" height="50px" viewBox="-245.5 -105.5 50 50" enable-background="new -245.5 -105.5 50 50" xml:space="preserve">
<path style="fill:white" d="M-205.629-79.019l-7.723,2.068L-219.5-80.5l6.148-3.55l7.723,2.069c0.043,0.012,0.087,0.017,0.13,0.017
	c0.221,0,0.423-0.147,0.482-0.371c0.071-0.267-0.087-0.541-0.354-0.612l-6.757-1.81l6.44-3.718c0.239-0.138,0.321-0.444,0.183-0.683
	c-0.139-0.24-0.445-0.321-0.683-0.183l-6.438,3.718l1.81-6.755c0.071-0.267-0.087-0.541-0.354-0.612
	c-0.265-0.07-0.54,0.086-0.612,0.354l-2.069,7.721l-6.149,3.55v-7.1l5.652-5.653c0.195-0.195,0.195-0.512,0-0.707
	s-0.512-0.195-0.707,0L-220-89.88v-7.435c0-0.276-0.224-0.5-0.5-0.5s-0.5,0.224-0.5,0.5v7.435l-4.945-4.946
	c-0.195-0.195-0.512-0.195-0.707,0s-0.195,0.512,0,0.707l5.652,5.653v7.1l-6.149-3.55l-2.069-7.721
	c-0.072-0.267-0.345-0.424-0.612-0.354c-0.267,0.071-0.425,0.346-0.354,0.612l1.81,6.755l-6.438-3.718
	c-0.239-0.138-0.545-0.057-0.683,0.183c-0.138,0.239-0.056,0.545,0.183,0.683l6.44,3.718l-6.757,1.81
	c-0.267,0.071-0.425,0.346-0.354,0.612c0.06,0.224,0.262,0.371,0.482,0.371c0.043,0,0.086-0.005,0.13-0.017l7.723-2.069l6.148,3.55
	l-6.147,3.549l-7.723-2.068c-0.265-0.07-0.541,0.087-0.612,0.354s0.087,0.541,0.354,0.612l6.757,1.81l-6.44,3.718
	c-0.239,0.138-0.321,0.444-0.183,0.683c0.093,0.161,0.261,0.25,0.434,0.25c0.085,0,0.171-0.021,0.25-0.067l6.44-3.718l-1.811,6.755
	c-0.071,0.267,0.087,0.541,0.354,0.612c0.043,0.012,0.087,0.017,0.13,0.017c0.221,0,0.422-0.147,0.482-0.371l2.069-7.721l6.148-3.55
	v7.099l-5.652,5.654c-0.195,0.195-0.195,0.512,0,0.707s0.512,0.195,0.707,0l4.945-4.947v7.436c0,0.276,0.224,0.5,0.5,0.5
	s0.5-0.224,0.5-0.5v-7.436l4.945,4.947c0.098,0.098,0.226,0.146,0.354,0.146s0.256-0.049,0.354-0.146
	c0.195-0.195,0.195-0.512,0-0.707L-220-72.535v-7.099l6.148,3.55l2.069,7.721c0.06,0.224,0.262,0.371,0.482,0.371
	c0.043,0,0.086-0.005,0.13-0.017c0.267-0.071,0.425-0.346,0.354-0.612l-1.811-6.755l6.44,3.718c0.079,0.045,0.165,0.067,0.25,0.067
	c0.173,0,0.341-0.089,0.434-0.25c0.138-0.239,0.056-0.545-0.183-0.683l-6.44-3.718l6.757-1.81c0.267-0.071,0.425-0.346,0.354-0.612
	C-205.088-78.932-205.362-79.09-205.629-79.019z"/>
</svg>
