<?xml version="1.0" encoding="utf-8"?>
<!-- Generator: Adobe Illustrator 16.0.0, SVG Export Plug-In . SVG Version: 6.00 Build 0)  -->
<!DOCTYPE svg PUBLIC "-//W3C//DTD SVG 1.1//EN" "http://www.w3.org/Graphics/SVG/1.1/DTD/svg11.dtd">
<svg version="1.1" id="Layer_1" xmlns="http://www.w3.org/2000/svg" xmlns:xlink="http://www.w3.org/1999/xlink" x="0px" y="0px"
	 width="50px" height="50px" viewBox="-315.5 244.5 50 50" enable-background="new -315.5 244.5 50 50" xml:space="preserve">
<path style="fill:white" d="M-275.185,277.766l-3.054-1.763l1.84-1.063c0.239-0.138,0.321-0.443,0.183-0.683c-0.139-0.239-0.445-0.323-0.683-0.183
	l-2.339,1.352l-2.32-1.34l4.73-2.73c0.239-0.138,0.321-0.443,0.183-0.683s-0.446-0.323-0.683-0.183l-5.231,3.019l-3.619-2.09
	l4.351-1.919l-4.353-1.919l3.619-2.09l5.232,3.021c0.079,0.046,0.165,0.067,0.25,0.067c0.173,0,0.341-0.09,0.434-0.25
	c0.138-0.239,0.056-0.545-0.183-0.683l-4.732-2.732l2.32-1.34l2.341,1.352c0.079,0.046,0.165,0.067,0.25,0.067
	c0.173,0,0.341-0.09,0.434-0.25c0.138-0.239,0.056-0.545-0.183-0.683l-1.841-1.064l3.052-1.762c0.239-0.138,0.321-0.443,0.183-0.683
	c-0.139-0.239-0.446-0.323-0.683-0.183l-3.051,1.762l-0.001-2.122c0-0.276-0.224-0.5-0.5-0.5c-0.276,0-0.5,0.224-0.5,0.5
	l0.001,2.699l-2.32,1.34l0.001-5.46c0-0.276-0.224-0.5-0.5-0.5c-0.276,0-0.5,0.224-0.5,0.5l-0.001,6.037l-3.619,2.09l0.514-4.728
	l-3.838,2.81l0-4.181l5.229-3.021c0.239-0.138,0.321-0.443,0.183-0.683c-0.139-0.239-0.445-0.322-0.683-0.183l-4.729,2.731v-2.678
	l2.339-1.351c0.239-0.138,0.321-0.443,0.183-0.683c-0.139-0.239-0.446-0.323-0.683-0.183L-290,255.63v-3.525
	c0-0.276-0.224-0.5-0.5-0.5s-0.5,0.224-0.5,0.5v3.524l-1.839-1.062c-0.24-0.141-0.545-0.057-0.683,0.183
	c-0.138,0.239-0.056,0.545,0.183,0.683l2.339,1.352v2.678l-4.729-2.73c-0.24-0.14-0.545-0.057-0.683,0.183
	c-0.138,0.239-0.056,0.545,0.183,0.683l5.229,3.02l0,4.183l-3.837-2.81l0.514,4.728l-3.621-2.091v-6.038c0-0.276-0.224-0.5-0.5-0.5
	s-0.5,0.224-0.5,0.5v5.461l-2.318-1.339l-0.001-2.702c0-0.276-0.224-0.5-0.5-0.5c-0.276,0-0.5,0.224-0.5,0.5l0.001,2.125
	l-3.053-1.763c-0.239-0.141-0.545-0.057-0.683,0.183s-0.056,0.545,0.183,0.683l3.052,1.762l-1.839,1.062
	c-0.239,0.138-0.321,0.443-0.183,0.683c0.093,0.16,0.261,0.25,0.434,0.25c0.085,0,0.171-0.021,0.25-0.067l2.339-1.35l2.319,1.339
	l-4.729,2.731c-0.239,0.138-0.321,0.443-0.183,0.683c0.093,0.16,0.261,0.25,0.434,0.25c0.085,0,0.171-0.021,0.25-0.067l5.23-3.02
	l3.622,2.091l-4.352,1.919l4.351,1.918l-3.621,2.091l-5.231-3.018c-0.241-0.137-0.545-0.056-0.683,0.184s-0.056,0.545,0.183,0.684
	l4.731,2.729l-2.321,1.34l-2.338-1.351c-0.239-0.141-0.545-0.057-0.683,0.183s-0.056,0.545,0.183,0.683l1.838,1.063l-3.05,1.761
	c-0.239,0.138-0.321,0.443-0.183,0.683c0.093,0.16,0.261,0.25,0.434,0.25c0.085,0,0.171-0.021,0.25-0.067l3.051-1.762l0.001,2.124
	c0,0.276,0.224,0.5,0.5,0.5h0c0.276,0,0.5-0.225,0.5-0.5l-0.001-2.701l2.322-1.341l-0.002,5.464c0,0.276,0.224,0.5,0.5,0.5
	c0.276,0,0.5-0.224,0.5-0.5l0.002-6.041l3.619-2.09l-0.514,4.729l3.837-2.809l0,4.181l-5.228,3.02
	c-0.239,0.138-0.321,0.443-0.183,0.683c0.138,0.238,0.444,0.32,0.683,0.183l4.728-2.73v2.678l-2.339,1.352
	c-0.239,0.138-0.321,0.443-0.183,0.683c0.138,0.238,0.444,0.321,0.683,0.183l1.839-1.062v3.524c0,0.276,0.224,0.5,0.5,0.5
	s0.5-0.224,0.5-0.5v-3.525l1.841,1.063c0.079,0.046,0.165,0.067,0.25,0.067c0.173,0,0.341-0.09,0.434-0.25
	c0.138-0.239,0.056-0.545-0.183-0.683l-2.341-1.353v-2.678l4.73,2.731c0.079,0.046,0.165,0.067,0.25,0.067
	c0.173,0,0.341-0.09,0.434-0.25c0.138-0.239,0.056-0.545-0.183-0.683l-5.23-3.021l0-4.182l3.838,2.81l-0.514-4.728l3.62,2.09v6.039
	c0,0.276,0.224,0.5,0.5,0.5s0.5-0.224,0.5-0.5v-5.461l2.319,1.339l0.001,2.7c0,0.276,0.224,0.5,0.5,0.5c0.276,0,0.5-0.224,0.5-0.5
	l-0.001-2.123l3.053,1.763c0.079,0.046,0.165,0.067,0.25,0.067c0.173,0,0.341-0.09,0.434-0.25
	C-274.863,278.209-274.945,277.903-275.185,277.766z M-287.402,274.865l-2.599-1.901l-0.499-0.365l-0.501,0.367l-2.598,1.9
	l0.348-3.202l0.067-0.615l-0.567-0.25l-2.945-1.299l2.946-1.299l0.566-0.25l-0.067-0.616l-0.348-3.2l2.598,1.901l0.5,0.365
	l0.5-0.366l2.599-1.901l-0.348,3.201l-0.067,0.616l0.565,0.249l2.947,1.3l-2.945,1.3l-0.567,0.25l0.067,0.615L-287.402,274.865z"/>
</svg>
