<?xml version="1.0" encoding="utf-8"?>
<!-- Generator: Adobe Illustrator 16.0.0, SVG Export Plug-In . SVG Version: 6.00 Build 0)  -->
<!DOCTYPE svg PUBLIC "-//W3C//DTD SVG 1.1//EN" "http://www.w3.org/Graphics/SVG/1.1/DTD/svg11.dtd">
<svg version="1.1" id="Layer_1" xmlns="http://www.w3.org/2000/svg" xmlns:xlink="http://www.w3.org/1999/xlink" x="0px" y="0px"
	 width="50px" height="50px" viewBox="-105.5 -315.5 50 50" enable-background="new -105.5 -315.5 50 50" xml:space="preserve">
<path style="fill:white" d="M-68.309-282.803c0,0.414-0.336,0.75-0.75,0.75h-2.994v2.995c0,0.414-0.336,0.75-0.75,0.75s-0.75-0.336-0.75-0.75v-4.495
	h4.494C-68.645-283.553-68.309-283.217-68.309-282.803z M-91.764-297.271h4.494v-4.495c0-0.414-0.336-0.75-0.75-0.75
	s-0.75,0.336-0.75,0.75v2.995h-2.994c-0.414,0-0.75,0.336-0.75,0.75S-92.178-297.271-91.764-297.271z M-92.691-282.98
	c0,0.414,0.336,0.75,0.75,0.75h2.996v2.996c0,0.414,0.336,0.75,0.75,0.75s0.75-0.336,0.75-0.75v-4.496h-4.496
	C-92.355-283.73-92.691-283.395-92.691-282.98z M-68.484-298.196c0-0.414-0.336-0.75-0.75-0.75h-2.996v-2.996
	c0-0.414-0.336-0.75-0.75-0.75s-0.75,0.336-0.75,0.75v4.496h4.496C-68.82-297.446-68.484-297.782-68.484-298.196z M-64.75-290.5
	c0,0.414-0.336,0.75-0.75,0.75h-3.289l1.8,1.8c0.293,0.293,0.293,0.768,0,1.061c-0.146,0.146-0.338,0.22-0.53,0.22
	s-0.384-0.073-0.53-0.22l-2.86-2.86h-3.629v3.72h4.479c0.414,0,0.75,0.336,0.75,0.75s-0.336,0.75-0.75,0.75h-4.479v4.478
	c0,0.414-0.336,0.75-0.75,0.75s-0.75-0.336-0.75-0.75v-4.486h-3.711v3.629l2.859,2.86c0.293,0.293,0.293,0.768,0,1.061
	c-0.146,0.146-0.338,0.22-0.53,0.22s-0.384-0.073-0.53-0.22l-1.799-1.799v3.289c0,0.414-0.336,0.75-0.75,0.75s-0.75-0.336-0.75-0.75
	v-3.289l-1.8,1.8c-0.293,0.293-0.768,0.293-1.061,0s-0.293-0.768,0-1.061l2.86-2.86v-3.629h-3.71v4.486
	c0,0.414-0.336,0.75-0.75,0.75s-0.75-0.336-0.75-0.75v-4.478h-4.479c-0.414,0-0.75-0.336-0.75-0.75s0.336-0.75,0.75-0.75h4.479
	v-3.72h-3.63l-2.86,2.859c-0.146,0.146-0.338,0.22-0.53,0.22s-0.384-0.073-0.53-0.22c-0.293-0.293-0.293-0.768,0-1.061l1.799-1.799
	H-95.5c-0.414,0-0.75-0.336-0.75-0.75s0.336-0.75,0.75-0.75h3.289l-1.8-1.8c-0.293-0.293-0.293-0.768,0-1.061s0.768-0.293,1.061,0
	l2.86,2.86h3.63v-3.711h-4.479c-0.414,0-0.75-0.336-0.75-0.75s0.336-0.75,0.75-0.75h4.479v-4.478c0-0.414,0.336-0.75,0.75-0.75
	s0.75,0.336,0.75,0.75v4.478h3.71v-3.629l-2.859-2.86c-0.293-0.293-0.293-0.768,0-1.061c0.293-0.293,0.768-0.293,1.061,0
	l1.799,1.799v-3.289c0-0.414,0.336-0.75,0.75-0.75s0.75,0.336,0.75,0.75v3.289l1.8-1.8c0.293-0.293,0.768-0.293,1.061,0
	s0.293,0.768,0,1.061l-2.86,2.86v3.629h3.711v-4.478c0-0.414,0.336-0.75,0.75-0.75s0.75,0.336,0.75,0.75v4.478h4.479
	c0.414,0,0.75,0.336,0.75,0.75s-0.336,0.75-0.75,0.75h-4.479v3.711h3.629l2.86-2.859c0.293-0.293,0.768-0.293,1.061,0
	s0.293,0.768,0,1.061l-1.799,1.799h3.289C-65.086-291.25-64.75-290.914-64.75-290.5z M-76.039-291.25v-3.711h-3.711h-1.5h-3.71
	v3.711v1.5v3.711h3.71h1.5h3.711v-3.711V-291.25z"/>
</svg>
