<?xml version="1.0" encoding="utf-8"?>
<!-- Generator: Adobe Illustrator 16.0.0, SVG Export Plug-In . SVG Version: 6.00 Build 0)  -->
<!DOCTYPE svg PUBLIC "-//W3C//DTD SVG 1.1//EN" "http://www.w3.org/Graphics/SVG/1.1/DTD/svg11.dtd">
<svg version="1.1" id="Layer_1" xmlns="http://www.w3.org/2000/svg" xmlns:xlink="http://www.w3.org/1999/xlink" x="0px" y="0px"
	 width="50px" height="50px" viewBox="-315.5 314.5 50 50" enable-background="new -315.5 314.5 50 50" xml:space="preserve">
<path style="fill:white" d="M-305.244,338.614v1.771l7.709,2.064l1.489-0.858v-4.184l-1.49-0.858L-305.244,338.614z M-297.046,341.014l-0.63,0.364
	l-6.568-1.76v-0.236l6.567-1.76l0.631,0.364V341.014z M-281.107,335.188l5.283-3.051c0.238-0.14,0.544-0.057,0.683,0.183
	c0.138,0.239,0.056,0.545-0.183,0.683l-3.193,1.844l3.147,0.844c0.267,0.072,0.425,0.346,0.354,0.613
	c-0.06,0.223-0.262,0.37-0.482,0.37c-0.043,0-0.086-0.006-0.13-0.017L-281.107,335.188z M-295.474,325.199
	c-0.195-0.195-0.195-0.512,0-0.707s0.512-0.195,0.707,0l2.305,2.303v-3.686c0-0.276,0.224-0.5,0.5-0.5s0.5,0.224,0.5,0.5v6.1
	L-295.474,325.199z M-285.526,325.199l-4.012,4.01v-6.1c0-0.276,0.224-0.5,0.5-0.5s0.5,0.224,0.5,0.5v3.686l2.305-2.303
	c0.195-0.195,0.512-0.195,0.707,0S-285.331,325.004-285.526,325.199z M-276.786,330.47l-5.282,3.051l1.466-5.478
	c0.072-0.267,0.346-0.418,0.612-0.354c0.267,0.072,0.425,0.346,0.354,0.612l-0.842,3.147l3.192-1.844
	c0.238-0.14,0.545-0.057,0.683,0.183S-276.547,330.332-276.786,330.47z M-284.954,337.408v4.184l1.489,0.858l7.709-2.064v-1.771
	l-7.708-2.064L-284.954,337.408z M-276.756,339.382v0.236l-6.568,1.76l-0.63-0.364v-3.027l0.631-0.364L-276.756,339.382z
	 M-284.427,334.882l2.067-7.707l-1.535-0.886l-5.643,5.643v1.721l3.624,2.091L-284.427,334.882z M-288.538,333.074v-0.729
	l4.808-4.807l0.205,0.118l-1.761,6.566l-0.63,0.365L-288.538,333.074z M-295.085,335.743l3.624-2.091v-1.721l-5.643-5.643
	l-1.535,0.886l2.067,7.707L-295.085,335.743z M-297.27,327.539l4.808,4.807v0.729l-2.623,1.515l-0.63-0.365l-1.761-6.566
	L-297.27,327.539z M-285.917,343.257l-3.621,2.091v1.721l5.644,5.646l1.532-0.89l-2.065-7.706L-285.917,343.257z M-283.731,351.462
	l-4.807-4.808v-0.729l2.621-1.515l0.631,0.365l1.759,6.567L-283.731,351.462z M-285.527,353.801c0.195,0.195,0.195,0.512,0,0.707
	s-0.512,0.195-0.707,0l-2.304-2.305v3.688c0,0.276-0.224,0.5-0.5,0.5s-0.5-0.224-0.5-0.5v-6.102L-285.527,353.801z M-275.371,343.31
	l-3.147,0.844l3.193,1.844c0.239,0.138,0.321,0.443,0.183,0.683c-0.093,0.16-0.261,0.25-0.434,0.25c-0.085,0-0.171-0.021-0.25-0.067
	l-5.283-3.051l5.478-1.469c0.269-0.064,0.541,0.088,0.612,0.354C-274.945,342.964-275.104,343.237-275.371,343.31z
	 M-276.603,349.213c-0.138,0.238-0.445,0.321-0.683,0.183l-3.193-1.845l0.843,3.146c0.071,0.267-0.087,0.54-0.354,0.612
	c-0.043,0.011-0.087,0.017-0.13,0.017c-0.221,0-0.423-0.147-0.482-0.371l-1.468-5.479l5.284,3.054
	C-276.547,348.668-276.465,348.974-276.603,349.213z M-286.878,337.408l-3.622-2.089l-3.622,2.089v4.181l3.622,2.094l3.622-2.094
	V337.408z M-287.878,341.013l-2.622,1.516l-2.622-1.516v-3.026l2.622-1.513l2.622,1.513V341.013z M-305.629,335.69l3.147-0.844
	l-3.193-1.844c-0.239-0.138-0.321-0.443-0.183-0.683c0.138-0.239,0.444-0.322,0.683-0.183l5.283,3.051l-5.478,1.469
	c-0.043,0.011-0.087,0.017-0.13,0.017c-0.221,0-0.422-0.147-0.482-0.37C-306.055,336.036-305.896,335.763-305.629,335.69z
	 M-304.397,329.787c0.138-0.239,0.444-0.322,0.683-0.183l3.192,1.844l-0.842-3.147c-0.071-0.267,0.087-0.54,0.354-0.612
	c0.268-0.064,0.541,0.088,0.612,0.354l1.466,5.478l-5.282-3.051C-304.453,330.332-304.535,330.026-304.397,329.787z
	 M-299.893,343.812l-5.283,3.051c-0.079,0.046-0.165,0.067-0.25,0.067c-0.173,0-0.341-0.09-0.434-0.25
	c-0.138-0.239-0.056-0.545,0.183-0.683l3.193-1.844l-3.147-0.844c-0.267-0.072-0.425-0.346-0.354-0.613
	c0.072-0.266,0.349-0.417,0.612-0.354L-299.893,343.812z M-304.214,348.53l5.284-3.054l-1.468,5.479
	c-0.06,0.224-0.262,0.371-0.482,0.371c-0.043,0-0.086-0.006-0.13-0.017c-0.267-0.072-0.425-0.346-0.354-0.612l0.843-3.146
	l-3.193,1.845c-0.239,0.139-0.545,0.056-0.683-0.183C-304.535,348.974-304.453,348.668-304.214,348.53z M-295.474,353.801
	l4.012-4.012v6.102c0,0.276-0.224,0.5-0.5,0.5s-0.5-0.224-0.5-0.5v-3.688l-2.305,2.305c-0.195,0.195-0.512,0.195-0.707,0
	S-295.669,353.996-295.474,353.801z M-296.573,344.118l-2.065,7.707l1.532,0.886l5.644-5.643v-1.721l-3.621-2.091L-296.573,344.118z
	 M-292.462,346.654l-4.808,4.807l-0.204-0.118l1.759-6.566l0.631-0.365l2.621,1.515V346.654z"/>
</svg>
