<?xml version="1.0" encoding="utf-8"?>
<!-- Generator: Adobe Illustrator 16.0.0, SVG Export Plug-In . SVG Version: 6.00 Build 0)  -->
<!DOCTYPE svg PUBLIC "-//W3C//DTD SVG 1.1//EN" "http://www.w3.org/Graphics/SVG/1.1/DTD/svg11.dtd">
<svg version="1.1" id="Layer_1" xmlns="http://www.w3.org/2000/svg" xmlns:xlink="http://www.w3.org/1999/xlink" x="0px" y="0px"
	 width="50px" height="50px" viewBox="-35.5 244.5 50 50" enable-background="new -35.5 244.5 50 50" xml:space="preserve">
<path style="fill:white" d="M-20.929,270.75l-3.125,3.126c-0.098,0.098-0.226,0.146-0.354,0.146s-0.256-0.049-0.354-0.146
	c-0.195-0.195-0.195-0.512,0-0.707l1.418-1.419H-25.5c-0.276,0-0.5-0.224-0.5-0.5s0.224-0.5,0.5-0.5H-20.929z M-15.475,265.232
	c0.098,0.095,0.224,0.143,0.35,0.143c0.13,0,0.259-0.05,0.357-0.15c0.193-0.197,0.19-0.514-0.007-0.707l-4.594-4.5
	c-0.198-0.191-0.515-0.189-0.707,0.008c-0.193,0.197-0.19,0.514,0.007,0.707L-15.475,265.232z M-14.771,273.771
	c-0.195-0.195-0.512-0.195-0.707,0l-4.594,4.594c-0.195,0.195-0.195,0.512,0,0.707c0.098,0.098,0.226,0.146,0.354,0.146
	s0.256-0.049,0.354-0.146l4.594-4.594C-14.576,274.283-14.576,273.967-14.771,273.771z M-3.605,268.25l4.893-4.893
	c0.195-0.195,0.195-0.512,0-0.707s-0.512-0.195-0.707,0l-4.6,4.6h-2.003l-2.228-2.227v-2.291l4.805-4.805
	c0.195-0.195,0.195-0.512,0-0.707s-0.512-0.195-0.707,0l-5.098,5.098v3.119l2.813,2.812H-3.605z M-5.92,254.746
	c-0.195-0.195-0.512-0.195-0.707,0l-1.623,1.623V254.5c0-0.276-0.224-0.5-0.5-0.5s-0.5,0.224-0.5,0.5v4.283l3.33-3.33
	C-5.725,255.258-5.725,254.941-5.92,254.746z M4.5,268.25c0.276,0,0.5-0.224,0.5-0.5s-0.224-0.5-0.5-0.5H2.344l1.418-1.418
	c0.195-0.195,0.195-0.512,0-0.707s-0.512-0.195-0.707,0l-3.125,3.125H4.5z M-6.229,265.229c0.098,0.098,0.226,0.146,0.354,0.146
	s0.256-0.049,0.354-0.146l4.5-4.5c0.195-0.195,0.195-0.512,0-0.707s-0.512-0.195-0.707,0l-4.5,4.5
	C-6.424,264.717-6.424,265.033-6.229,265.229z M-25.5,268.25h4.571l-3.125-3.125c-0.195-0.195-0.512-0.195-0.707,0
	s-0.195,0.512,0,0.707l1.418,1.418H-25.5c-0.276,0-0.5,0.224-0.5,0.5S-25.776,268.25-25.5,268.25z M-5.521,273.771
	c-0.195-0.195-0.512-0.195-0.707,0s-0.195,0.512,0,0.707l4.594,4.594c0.098,0.098,0.226,0.146,0.354,0.146s0.256-0.049,0.354-0.146
	c0.195-0.195,0.195-0.512,0-0.707L-5.521,273.771z M-3.605,270.75h-2.831l-2.813,2.813v3.118l5.098,5.1
	c0.098,0.098,0.226,0.146,0.354,0.146s0.256-0.049,0.354-0.146c0.195-0.195,0.195-0.512,0-0.707l-4.805-4.807v-2.29l2.228-2.228
	h2.003l4.6,4.601c0.195,0.195,0.512,0.195,0.707,0s0.195-0.512,0-0.707L-3.605,270.75z M-9.25,280.218v4.282
	c0,0.276,0.224,0.5,0.5,0.5s0.5-0.224,0.5-0.5v-1.868l1.623,1.624c0.195,0.195,0.512,0.195,0.707,0s0.195-0.512,0-0.707
	L-9.25,280.218z M-15.08,284.255c0.195,0.195,0.512,0.195,0.707,0l1.623-1.624v1.869c0,0.276,0.224,0.5,0.5,0.5s0.5-0.224,0.5-0.5
	v-4.283l-3.33,3.331C-15.275,283.743-15.275,284.06-15.08,284.255z M4.5,270.75h-4.57l3.125,3.126
	c0.098,0.098,0.226,0.146,0.354,0.146s0.256-0.049,0.354-0.146c0.195-0.195,0.195-0.512,0-0.707l-1.418-1.419H4.5
	c0.276,0,0.5-0.224,0.5-0.5S4.776,270.75,4.5,270.75z M-17.394,270.75l-4.893,4.894c-0.195,0.195-0.195,0.512,0,0.707
	s0.512,0.195,0.707,0l4.6-4.601h2.003l2.227,2.228v2.29l-4.805,4.806c-0.195,0.195-0.195,0.512,0,0.707
	c0.098,0.098,0.226,0.146,0.354,0.146s0.256-0.049,0.354-0.146l5.098-5.099v-3.118l-2.812-2.813H-17.394z M-17.555,257.221
	c-0.195,0.195-0.195,0.512,0,0.707l4.805,4.805v2.291l-2.227,2.227h-2.003l-4.6-4.6c-0.195-0.195-0.512-0.195-0.707,0
	s-0.195,0.512,0,0.707l4.893,4.893h2.831l2.812-2.812v-3.119l-5.098-5.098C-17.043,257.025-17.359,257.025-17.555,257.221z
	 M-12.25,254c-0.276,0-0.5,0.224-0.5,0.5v1.869l-1.623-1.623c-0.195-0.195-0.512-0.195-0.707,0s-0.195,0.512,0,0.707l3.33,3.33
	V254.5C-11.75,254.224-11.974,254-12.25,254z"/>
</svg>
