<?xml version="1.0" encoding="utf-8"?>
<!-- Generator: Adobe Illustrator 16.0.0, SVG Export Plug-In . SVG Version: 6.00 Build 0)  -->
<!DOCTYPE svg PUBLIC "-//W3C//DTD SVG 1.1//EN" "http://www.w3.org/Graphics/SVG/1.1/DTD/svg11.dtd">
<svg version="1.1" id="Layer_1" xmlns="http://www.w3.org/2000/svg" xmlns:xlink="http://www.w3.org/1999/xlink" x="0px" y="0px"
	 width="50px" height="50px" viewBox="104.5 -35.5 50 50" enable-background="new 104.5 -35.5 50 50" xml:space="preserve">
<path style="fill:white" d="M143.984-16.262l2.236-1.286v-2.573l-2.236-1.288l-2.234,1.288v1.995l-2.418,1.392v-1.714c0-0.276-0.224-0.5-0.5-0.5
	s-0.5,0.224-0.5,0.5v2.289l-1.771,1.02v-4.495c0-0.276-0.224-0.5-0.5-0.5s-0.5,0.224-0.5,0.5v4.955l-3.893,0.423l-1.631-3.7
	l4.217-2.434c0.239-0.138,0.321-0.444,0.183-0.683c-0.138-0.24-0.442-0.322-0.683-0.183L130-19.089v-2.045l1.84-1.063
	c0.239-0.138,0.321-0.444,0.183-0.683c-0.139-0.24-0.444-0.322-0.683-0.183L130-22.29v-2.594l1.736-1v-2.573l-2.236-1.286
	l-2.236,1.286v2.573l1.736,1v2.678l-1.484-0.857c-0.238-0.137-0.544-0.057-0.683,0.183c-0.139,0.239-0.057,0.545,0.183,0.683
	L129-21.051v2.045l-3.898-2.25c-0.237-0.137-0.545-0.055-0.683,0.183c-0.139,0.239-0.057,0.545,0.183,0.683l4.332,2.5l-1.602,3.633
	l-4.039-0.439l-0.002-4.939c0-0.276-0.224-0.5-0.5-0.5s-0.5,0.224-0.5,0.5l0.002,4.41l-1.773-1.02v-2.204c0-0.276-0.224-0.5-0.5-0.5
	s-0.5,0.224-0.5,0.5v1.628l-2.27-1.306v-1.995l-2.234-1.288l-2.236,1.288v2.573l2.236,1.286l1.734-0.998l2.272,1.307l-1.415,0.817
	c-0.239,0.138-0.321,0.444-0.183,0.683c0.092,0.161,0.261,0.25,0.433,0.25c0.085,0,0.171-0.021,0.25-0.067l1.916-1.107l1.776,1.022
	l-3.833,2.212c-0.239,0.138-0.321,0.444-0.183,0.683c0.092,0.161,0.261,0.25,0.433,0.25c0.085,0,0.171-0.021,0.25-0.067l4.308-2.487
	l2.388,3.262l-2.367,3.234l-4.328-2.499c-0.238-0.136-0.545-0.057-0.683,0.183c-0.139,0.239-0.057,0.545,0.183,0.683l3.868,2.233
	l-1.775,1.021l-1.952-1.126c-0.24-0.138-0.546-0.056-0.683,0.183c-0.139,0.239-0.057,0.545,0.183,0.683l1.451,0.837l-2.31,1.328
	l-1.733-0.998l-2.236,1.288l0.002,2.572l2.234,1.287l2.236-1.287v-1.997l2.27-1.306v1.589c0,0.276,0.224,0.5,0.5,0.5
	s0.5-0.224,0.5-0.5v-2.165l1.771-1.019v4.37c0,0.276,0.224,0.5,0.5,0.5s0.5-0.224,0.5-0.5v-4.898l4.039-0.439l1.587,3.601
	l-4.317,2.492c-0.239,0.138-0.321,0.444-0.183,0.683c0.137,0.24,0.441,0.32,0.683,0.183L129-2.036V0.01l-1.984,1.146
	c-0.239,0.138-0.321,0.444-0.183,0.683c0.139,0.24,0.442,0.32,0.683,0.183L129,1.165v2.72l-1.736,0.998v2.573l2.236,1.286
	l2.236-1.286V4.883L130,3.885V1.249l1.34,0.774c0.079,0.045,0.165,0.067,0.25,0.067c0.172,0,0.34-0.089,0.433-0.25
	c0.139-0.239,0.057-0.545-0.183-0.683L130,0.093v-2.045l3.754,2.167c0.079,0.045,0.165,0.067,0.25,0.067
	c0.172,0,0.341-0.09,0.433-0.25c0.139-0.239,0.057-0.545-0.183-0.683l-4.202-2.426l1.616-3.667l3.893,0.423v4.915
	c0,0.276,0.224,0.5,0.5,0.5s0.5-0.224,0.5-0.5V-5.86l1.771,1.02v2.249c0,0.276,0.224,0.5,0.5,0.5s0.5-0.224,0.5-0.5v-1.673
	l2.416,1.39v1.997l2.236,1.287l2.234-1.287l0.002-2.572l-2.236-1.288l-1.733,0.998l-2.383-1.371l1.376-0.794
	c0.239-0.138,0.321-0.444,0.183-0.683c-0.138-0.24-0.444-0.321-0.683-0.183l-1.878,1.084l-1.774-1.021l3.795-2.191
	c0.239-0.138,0.321-0.444,0.183-0.683c-0.138-0.241-0.444-0.321-0.683-0.183l-4.226,2.439l-2.323-3.174l2.344-3.202l4.205,2.427
	c0.079,0.045,0.165,0.067,0.25,0.067c0.172,0,0.341-0.09,0.433-0.25c0.139-0.239,0.057-0.545-0.183-0.683l-3.76-2.17l1.774-1.021
	l1.843,1.064c0.079,0.045,0.165,0.067,0.25,0.067c0.172,0,0.341-0.089,0.433-0.25c0.139-0.239,0.057-0.545-0.183-0.683l-1.341-0.774
	l2.347-1.35L143.984-16.262z M134.123-12.583l-1.525,2.083l1.525,2.083l0.743,1.015l-1.214-0.132l-2.604-0.283L130-5.438l-0.5,1.134
	L129-5.438l-1.049-2.379l-2.604,0.283l-1.214,0.132l0.743-1.015l1.525-2.083l-1.525-2.083l-0.743-1.015l1.214,0.132l2.604,0.283
	L129-15.562l0.5-1.134l0.5,1.134l1.049,2.379l2.604-0.283l1.214-0.132L134.123-12.583z"/>
</svg>
