<?xml version="1.0" encoding="utf-8"?>
<!-- Generator: Adobe Illustrator 16.0.0, SVG Export Plug-In . SVG Version: 6.00 Build 0)  -->
<!DOCTYPE svg PUBLIC "-//W3C//DTD SVG 1.1//EN" "http://www.w3.org/Graphics/SVG/1.1/DTD/svg11.dtd">
<svg version="1.1" id="Layer_1" xmlns="http://www.w3.org/2000/svg" xmlns:xlink="http://www.w3.org/1999/xlink" x="0px" y="0px"
	 width="50px" height="50px" viewBox="104.5 -105.5 50 50" enable-background="new 104.5 -105.5 50 50" xml:space="preserve">
<path style="fill:white" d="M144.371-79.019l-7.724,2.068l-2.464-1.422l2.627-0.704c0.268-0.071,0.426-0.346,0.354-0.612
	c-0.072-0.266-0.343-0.426-0.612-0.354l-3.594,0.962L130.5-80.5l2.46-1.42l3.592,0.963c0.044,0.012,0.087,0.017,0.13,0.017
	c0.221,0,0.423-0.147,0.483-0.371c0.071-0.267-0.087-0.541-0.354-0.612l-2.627-0.704l2.464-1.422l7.723,2.069
	c0.043,0.012,0.086,0.017,0.129,0.017c0.221,0,0.423-0.147,0.483-0.371c0.071-0.267-0.087-0.541-0.354-0.612l-6.757-1.81
	l3.018-1.742l2.949,0.791c0.044,0.012,0.087,0.017,0.13,0.017c0.221,0,0.423-0.147,0.483-0.371c0.071-0.267-0.087-0.541-0.354-0.612
	l-1.984-0.532l2.198-1.269c0.239-0.138,0.321-0.444,0.183-0.683c-0.138-0.24-0.444-0.321-0.683-0.183l-2.196,1.268l0.531-1.981
	c0.071-0.267-0.087-0.541-0.354-0.612c-0.268-0.069-0.541,0.087-0.613,0.354l-0.789,2.947l-3.018,1.743l1.811-6.755
	c0.071-0.267-0.087-0.541-0.354-0.612c-0.269-0.07-0.541,0.086-0.613,0.354l-2.068,7.721l-2.465,1.423l0.704-2.626
	c0.071-0.267-0.087-0.541-0.354-0.612c-0.27-0.07-0.54,0.087-0.613,0.354l-0.963,3.592L130-81.366v-2.839l2.63-2.631
	c0.195-0.195,0.195-0.512,0-0.707s-0.512-0.195-0.707,0L130-85.619v-2.847l5.652-5.653c0.195-0.195,0.195-0.512,0-0.707
	s-0.512-0.195-0.707,0L130-89.88v-3.484l2.158-2.158c0.195-0.195,0.195-0.512,0-0.707s-0.512-0.195-0.707,0L130-94.778v-2.536
	c0-0.276-0.224-0.5-0.5-0.5s-0.5,0.224-0.5,0.5v2.536l-1.451-1.451c-0.195-0.195-0.512-0.195-0.707,0s-0.195,0.512,0,0.707
	L129-93.364v3.484l-4.945-4.946c-0.195-0.195-0.512-0.195-0.707,0s-0.195,0.512,0,0.707L129-88.466v2.847l-1.923-1.924
	c-0.195-0.195-0.512-0.195-0.707,0s-0.195,0.512,0,0.707l2.63,2.631v2.839l-2.459-1.42l-0.963-3.592
	c-0.072-0.267-0.344-0.424-0.613-0.354c-0.267,0.071-0.425,0.346-0.354,0.612l0.704,2.626l-2.465-1.423l-2.068-7.721
	c-0.072-0.267-0.342-0.424-0.613-0.354c-0.267,0.071-0.425,0.346-0.354,0.612l1.811,6.755l-3.018-1.743l-0.789-2.947
	c-0.072-0.268-0.342-0.424-0.613-0.354c-0.267,0.071-0.425,0.346-0.354,0.612l0.531,1.981l-2.196-1.268
	c-0.238-0.136-0.545-0.056-0.683,0.183c-0.139,0.239-0.057,0.545,0.183,0.683l2.198,1.269l-1.984,0.532
	c-0.267,0.071-0.425,0.346-0.354,0.612c0.061,0.224,0.263,0.371,0.483,0.371c0.043,0,0.086-0.005,0.13-0.017l2.949-0.791
	l3.018,1.742l-6.757,1.81c-0.268,0.071-0.426,0.346-0.354,0.612c0.061,0.224,0.263,0.371,0.483,0.371
	c0.043,0,0.086-0.005,0.129-0.017l7.723-2.069l2.464,1.422l-2.627,0.704c-0.267,0.071-0.425,0.346-0.354,0.612
	c0.061,0.224,0.263,0.371,0.483,0.371c0.043,0,0.086-0.005,0.13-0.017l3.592-0.963l2.46,1.42l-2.459,1.42l-3.594-0.962
	c-0.262-0.072-0.54,0.087-0.612,0.354c-0.071,0.267,0.087,0.541,0.354,0.612l2.627,0.704l-2.465,1.423l-7.723-2.069
	c-0.261-0.07-0.54,0.087-0.612,0.354c-0.071,0.267,0.087,0.541,0.354,0.612l6.757,1.81l-3.019,1.743l-2.947-0.79
	c-0.267-0.071-0.54,0.086-0.613,0.354c-0.071,0.267,0.087,0.541,0.354,0.612l1.982,0.531l-2.197,1.269
	c-0.239,0.138-0.321,0.444-0.183,0.683c0.092,0.161,0.261,0.25,0.433,0.25c0.085,0,0.171-0.021,0.25-0.067l2.197-1.269l-0.531,1.981
	c-0.071,0.267,0.087,0.541,0.354,0.612c0.043,0.012,0.086,0.017,0.129,0.017c0.221,0,0.423-0.147,0.483-0.371l0.789-2.947
	l3.017-1.742l-1.811,6.755c-0.071,0.267,0.087,0.541,0.354,0.612c0.044,0.012,0.087,0.017,0.13,0.017
	c0.221,0,0.423-0.147,0.483-0.371l2.068-7.721l2.465-1.423l-0.703,2.626c-0.071,0.267,0.087,0.541,0.354,0.612
	c0.043,0.012,0.086,0.017,0.129,0.017c0.221,0,0.423-0.147,0.483-0.371l0.962-3.592l2.459-1.42v2.839l-2.63,2.631
	c-0.195,0.195-0.195,0.512,0,0.707s0.512,0.195,0.707,0L129-75.381v2.846l-5.652,5.654c-0.195,0.195-0.195,0.512,0,0.707
	s0.512,0.195,0.707,0L129-71.121v3.485l-2.158,2.158c-0.195,0.195-0.195,0.512,0,0.707s0.512,0.195,0.707,0L129-66.222v2.536
	c0,0.276,0.224,0.5,0.5,0.5s0.5-0.224,0.5-0.5v-2.536l1.451,1.451c0.098,0.098,0.226,0.146,0.354,0.146s0.256-0.049,0.354-0.146
	c0.195-0.195,0.195-0.512,0-0.707L130-67.636v-3.485l4.945,4.947c0.098,0.098,0.226,0.146,0.354,0.146s0.256-0.049,0.354-0.146
	c0.195-0.195,0.195-0.512,0-0.707L130-72.535v-2.846l1.923,1.924c0.098,0.098,0.226,0.146,0.354,0.146s0.256-0.049,0.354-0.146
	c0.195-0.195,0.195-0.512,0-0.707L130-76.795v-2.839l2.459,1.42l0.962,3.592c0.061,0.223,0.263,0.371,0.483,0.371
	c0.042,0,0.086-0.005,0.129-0.017c0.268-0.071,0.426-0.346,0.354-0.612l-0.703-2.626l2.462,1.422l2.069,7.722
	c0.061,0.224,0.263,0.371,0.483,0.371c0.043,0,0.086-0.005,0.13-0.017c0.267-0.071,0.425-0.346,0.354-0.612l-1.812-6.756l3.02,1.743
	l0.789,2.947c0.061,0.223,0.263,0.371,0.483,0.371c0.042,0,0.086-0.005,0.129-0.017c0.268-0.071,0.426-0.346,0.354-0.612
	l-0.531-1.981l2.197,1.269c0.079,0.045,0.165,0.067,0.25,0.067c0.172,0,0.341-0.089,0.433-0.25c0.139-0.239,0.057-0.545-0.183-0.683
	l-2.197-1.269l1.982-0.531c0.267-0.071,0.425-0.346,0.354-0.612c-0.072-0.267-0.343-0.426-0.613-0.354l-2.947,0.79l-3.019-1.743
	l6.757-1.81c0.268-0.071,0.426-0.346,0.354-0.612C144.911-78.932,144.636-79.09,144.371-79.019z"/>
</svg>
