<?xml version="1.0" encoding="utf-8"?>
<!-- Generator: Adobe Illustrator 16.0.0, SVG Export Plug-In . SVG Version: 6.00 Build 0)  -->
<!DOCTYPE svg PUBLIC "-//W3C//DTD SVG 1.1//EN" "http://www.w3.org/Graphics/SVG/1.1/DTD/svg11.dtd">
<svg version="1.1" id="Layer_1" xmlns="http://www.w3.org/2000/svg" xmlns:xlink="http://www.w3.org/1999/xlink" x="0px" y="0px"
	 width="50px" height="50px" viewBox="-105.5 314.5 50 50" enable-background="new -105.5 314.5 50 50" xml:space="preserve">
<path style="fill:white" d="M-65.812,347.691c0.12,0.069,0.161,0.223,0.091,0.342c-0.046,0.08-0.13,0.125-0.216,0.125c-0.042,0-0.085-0.011-0.125-0.033
	l-6.962-4.02l1.967,7.338c0.036,0.133-0.043,0.271-0.177,0.306c-0.022,0.006-0.043,0.009-0.065,0.009
	c-0.11,0-0.211-0.073-0.242-0.186l-2.096-7.821l-6.613-3.817v7.635l5.726,5.728c0.098,0.098,0.098,0.256,0,0.354
	c-0.049,0.049-0.113,0.073-0.177,0.073s-0.128-0.024-0.177-0.073l-5.372-5.374v8.039c0,0.138-0.112,0.25-0.25,0.25
	s-0.25-0.112-0.25-0.25v-8.039l-5.372,5.374c-0.098,0.098-0.256,0.098-0.354,0s-0.098-0.256,0-0.354l5.726-5.728v-7.635
	l-6.613,3.817l-2.096,7.821c-0.03,0.112-0.131,0.186-0.242,0.186c-0.021,0-0.043-0.003-0.065-0.009
	c-0.133-0.035-0.212-0.173-0.177-0.306l1.967-7.338l-6.962,4.02c-0.04,0.022-0.083,0.033-0.125,0.033
	c-0.086,0-0.17-0.045-0.216-0.125c-0.069-0.119-0.028-0.272,0.091-0.342l6.963-4.021l-7.34-1.966
	c-0.134-0.035-0.213-0.173-0.177-0.306c0.037-0.134,0.176-0.211,0.306-0.177l7.823,2.095L-81,339.5l-6.612-3.818l-7.823,2.096
	c-0.021,0.006-0.043,0.009-0.064,0.009c-0.11,0-0.211-0.073-0.242-0.186c-0.036-0.133,0.043-0.271,0.177-0.306l7.339-1.967
	l-6.962-4.02c-0.12-0.069-0.161-0.223-0.091-0.342c0.069-0.119,0.223-0.159,0.341-0.092l6.961,4.02l-1.967-7.338
	c-0.036-0.133,0.043-0.271,0.177-0.306c0.135-0.035,0.271,0.043,0.307,0.177l2.096,7.82l6.614,3.818v-7.636l-5.726-5.727
	c-0.098-0.098-0.098-0.256,0-0.354s0.256-0.098,0.354,0l5.372,5.373v-8.038c0-0.138,0.112-0.25,0.25-0.25s0.25,0.112,0.25,0.25
	v8.038l5.372-5.373c0.098-0.098,0.256-0.098,0.354,0s0.098,0.256,0,0.354l-5.726,5.727v7.636l6.614-3.818l2.096-7.82
	c0.037-0.134,0.172-0.211,0.307-0.177c0.133,0.035,0.212,0.173,0.177,0.306l-1.967,7.338l6.961-4.02
	c0.119-0.068,0.272-0.028,0.341,0.092c0.069,0.119,0.028,0.272-0.091,0.342l-6.962,4.02l7.339,1.967
	c0.134,0.035,0.213,0.173,0.177,0.306c-0.03,0.112-0.131,0.186-0.242,0.186c-0.021,0-0.043-0.003-0.064-0.009l-7.823-2.096
	L-80,339.5l6.612,3.817l7.823-2.095c0.131-0.035,0.271,0.043,0.306,0.177c0.036,0.133-0.043,0.271-0.177,0.306l-7.34,1.966
	L-65.812,347.691z M-79.191,328.167c0.062,0.025,0.127,0.038,0.191,0.038c0.13,0,0.258-0.051,0.354-0.146l3.238-3.238
	c0.195-0.195,0.195-0.512,0-0.707s-0.512-0.195-0.707,0l-2.385,2.385v-3.812c0-0.276-0.224-0.5-0.5-0.5s-0.5,0.224-0.5,0.5v5.02
	C-79.5,327.907-79.378,328.09-79.191,328.167z M-79.354,331.596l5.359-5.361c0.16-0.161,0.407-0.194,0.604-0.079l0.893,0.516
	c0.196,0.113,0.292,0.344,0.233,0.562l-1.962,7.322c-0.034,0.128-0.118,0.237-0.233,0.303l-4.29,2.477
	c-0.077,0.045-0.164,0.067-0.25,0.067s-0.173-0.022-0.25-0.067c-0.155-0.089-0.25-0.254-0.25-0.433v-4.953
	C-79.5,331.816-79.447,331.689-79.354,331.596z M-78.5,336.036l3.361-1.939l1.809-6.752l-0.229-0.132l-4.941,4.943V336.036z
	 M-71.339,332.7c0.089,0.068,0.196,0.104,0.304,0.104c0.086,0,0.172-0.022,0.25-0.067l4.348-2.511
	c0.239-0.138,0.321-0.443,0.183-0.683s-0.445-0.323-0.683-0.183l-3.302,1.906l0.873-3.257c0.071-0.268-0.087-0.541-0.354-0.613
	c-0.267-0.065-0.541,0.088-0.612,0.354l-1.186,4.424C-71.57,332.37-71.5,332.577-71.339,332.7z M-70.033,334.968
	c0.026,0.2,0.171,0.365,0.366,0.418l4.426,1.186c0.043,0.011,0.087,0.017,0.13,0.017c0.221,0,0.423-0.147,0.482-0.371
	c0.071-0.267-0.087-0.54-0.354-0.612l-3.26-0.873l3.304-1.908c0.239-0.138,0.321-0.443,0.183-0.683
	c-0.139-0.239-0.446-0.323-0.683-0.183l-4.35,2.512C-69.962,334.57-70.059,334.768-70.033,334.968z M-65.759,338.501
	c0.219,0.059,0.371,0.257,0.371,0.483v1.031c0,0.227-0.152,0.425-0.371,0.483l-7.322,1.961c-0.042,0.011-0.086,0.017-0.129,0.017
	c-0.087,0-0.173-0.022-0.25-0.067l-4.289-2.477c-0.155-0.089-0.25-0.254-0.25-0.433s0.095-0.344,0.25-0.433l4.289-2.477
	c0.115-0.068,0.252-0.083,0.379-0.051L-65.759,338.501z M-66.389,339.368l-6.751-1.809l-3.36,1.94l3.36,1.94l6.751-1.809V339.368z
	 M-64.628,342.783c-0.071-0.268-0.346-0.421-0.612-0.354l-4.426,1.186c-0.195,0.053-0.34,0.218-0.366,0.418s0.07,0.397,0.246,0.498
	l4.35,2.512c0.079,0.046,0.165,0.067,0.25,0.067c0.173,0,0.341-0.09,0.434-0.25c0.138-0.239,0.056-0.545-0.183-0.683l-3.304-1.908
	l3.26-0.873C-64.715,343.323-64.557,343.05-64.628,342.783z M-66.438,348.774l-4.35-2.512c-0.176-0.102-0.395-0.087-0.554,0.036
	c-0.161,0.123-0.231,0.33-0.179,0.526l1.186,4.425c0.06,0.223,0.262,0.37,0.482,0.37c0.043,0,0.086-0.006,0.13-0.017
	c0.267-0.072,0.425-0.346,0.354-0.613l-0.873-3.258l3.304,1.907c0.238,0.139,0.545,0.056,0.683-0.183
	C-66.116,349.218-66.198,348.912-66.438,348.774z M-72.265,351.767c0.059,0.219-0.037,0.449-0.232,0.562l-0.892,0.516
	c-0.078,0.045-0.165,0.067-0.25,0.067c-0.129,0-0.257-0.05-0.354-0.146l-5.36-5.361c-0.094-0.094-0.146-0.221-0.146-0.354v-4.953
	c0-0.179,0.095-0.344,0.25-0.433c0.154-0.09,0.346-0.09,0.5,0l4.289,2.477c0.115,0.065,0.199,0.175,0.233,0.303L-72.265,351.767z
	 M-73.33,351.655l-1.81-6.752l-3.36-1.939v3.88l4.942,4.943L-73.33,351.655z M-78.646,350.94c-0.143-0.144-0.357-0.185-0.545-0.108
	c-0.187,0.077-0.309,0.26-0.309,0.462v5.021c0,0.276,0.224,0.5,0.5,0.5s0.5-0.224,0.5-0.5v-3.813l2.385,2.386
	c0.195,0.195,0.512,0.195,0.707,0s0.195-0.512,0-0.707L-78.646,350.94z M-81.809,350.831c-0.187-0.076-0.402-0.035-0.545,0.108
	l-3.238,3.24c-0.195,0.195-0.195,0.512,0,0.707s0.512,0.195,0.707,0l2.385-2.386v3.813c0,0.276,0.224,0.5,0.5,0.5s0.5-0.224,0.5-0.5
	v-5.021C-81.5,351.091-81.622,350.908-81.809,350.831z M-81.646,347.404l-5.359,5.361c-0.096,0.097-0.224,0.146-0.354,0.146
	c-0.086,0-0.172-0.021-0.25-0.067l-0.893-0.516c-0.196-0.113-0.292-0.344-0.233-0.562l1.963-7.322
	c0.034-0.128,0.118-0.237,0.233-0.303l4.289-2.477c0.154-0.09,0.346-0.09,0.5,0c0.155,0.089,0.25,0.254,0.25,0.433v4.953
	C-81.5,347.184-81.553,347.311-81.646,347.404z M-82.5,342.964l-3.36,1.939l-1.81,6.752l0.229,0.132l4.941-4.943V342.964z
	 M-89.659,346.299c-0.161-0.123-0.379-0.138-0.554-0.036l-4.35,2.512c-0.239,0.138-0.321,0.443-0.183,0.683
	c0.138,0.238,0.443,0.321,0.683,0.183l3.304-1.907l-0.873,3.258c-0.071,0.268,0.087,0.541,0.354,0.613
	c0.043,0.011,0.087,0.017,0.13,0.017c0.221,0,0.423-0.147,0.482-0.37l1.186-4.425C-89.428,346.629-89.498,346.422-89.659,346.299z
	 M-90.967,344.032c-0.026-0.2-0.171-0.365-0.366-0.418l-4.426-1.186c-0.265-0.065-0.541,0.088-0.612,0.354s0.087,0.54,0.354,0.612
	l3.26,0.873l-3.304,1.908c-0.239,0.138-0.321,0.443-0.183,0.683c0.093,0.16,0.261,0.25,0.434,0.25c0.085,0,0.171-0.021,0.25-0.067
	l4.35-2.512C-91.038,344.43-90.941,344.232-90.967,344.032z M-95.241,340.499c-0.219-0.059-0.371-0.257-0.371-0.483v-1.031
	c0-0.227,0.152-0.425,0.371-0.483l7.322-1.961c0.127-0.032,0.265-0.018,0.379,0.051l4.289,2.477c0.155,0.089,0.25,0.254,0.25,0.433
	s-0.095,0.344-0.25,0.433l-4.289,2.477c-0.077,0.045-0.163,0.067-0.25,0.067c-0.043,0-0.087-0.006-0.129-0.017L-95.241,340.499z
	 M-94.611,339.632l6.751,1.809l3.36-1.94l-3.36-1.94l-6.751,1.809V339.632z M-96.372,336.217c0.06,0.224,0.262,0.371,0.482,0.371
	c0.043,0,0.086-0.006,0.13-0.017l4.426-1.186c0.195-0.053,0.34-0.218,0.366-0.418s-0.07-0.397-0.246-0.498l-4.35-2.512
	c-0.239-0.141-0.545-0.057-0.683,0.183c-0.138,0.239-0.056,0.545,0.183,0.683l3.304,1.908l-3.26,0.873
	C-96.285,335.677-96.443,335.95-96.372,336.217z M-94.562,330.226l4.348,2.511c0.078,0.045,0.164,0.067,0.25,0.067
	c0.108,0,0.215-0.035,0.304-0.104c0.161-0.123,0.231-0.33,0.179-0.526l-1.186-4.424c-0.072-0.266-0.345-0.42-0.612-0.354
	c-0.267,0.072-0.425,0.346-0.354,0.613l0.873,3.257l-3.302-1.906c-0.24-0.141-0.545-0.057-0.683,0.183
	C-94.884,329.782-94.802,330.088-94.562,330.226z M-88.735,327.233c-0.059-0.219,0.037-0.449,0.233-0.562l0.893-0.516
	c0.196-0.115,0.443-0.082,0.604,0.079l5.359,5.361c0.094,0.094,0.146,0.221,0.146,0.354v4.953c0,0.179-0.095,0.344-0.25,0.433
	c-0.077,0.045-0.164,0.067-0.25,0.067s-0.173-0.022-0.25-0.067l-4.29-2.477c-0.115-0.065-0.199-0.175-0.233-0.303L-88.735,327.233z
	 M-87.67,327.345l1.809,6.752l3.361,1.939v-3.88l-4.941-4.943L-87.67,327.345z M-82.354,328.059
	c0.096,0.096,0.224,0.146,0.354,0.146c0.064,0,0.129-0.013,0.191-0.038c0.187-0.077,0.309-0.26,0.309-0.462v-5.02
	c0-0.276-0.224-0.5-0.5-0.5s-0.5,0.224-0.5,0.5v3.812l-2.385-2.385c-0.195-0.195-0.512-0.195-0.707,0s-0.195,0.512,0,0.707
	L-82.354,328.059z"/>
</svg>
