<?xml version="1.0" encoding="utf-8"?>
<!-- Generator: Adobe Illustrator 16.0.0, SVG Export Plug-In . SVG Version: 6.00 Build 0)  -->
<!DOCTYPE svg PUBLIC "-//W3C//DTD SVG 1.1//EN" "http://www.w3.org/Graphics/SVG/1.1/DTD/svg11.dtd">
<svg version="1.1" id="Layer_1" xmlns="http://www.w3.org/2000/svg" xmlns:xlink="http://www.w3.org/1999/xlink" x="0px" y="0px"
	 width="50px" height="50px" viewBox="244.5 314.5 50 50" enable-background="new 244.5 314.5 50 50" xml:space="preserve">
<path style="fill:white" d="M288.285,339.25l-1.178-2.042c-0.09-0.154-0.254-0.249-0.433-0.249l-2.357-0.002c-0.179,0-0.344,0.096-0.433,0.25
	l-1.033,1.792h-1.623l0.814-1.412c0.139-0.239,0.057-0.545-0.183-0.683c-0.24-0.141-0.546-0.057-0.683,0.183l-1.104,1.912h-2.047
	l2.208-3.825c0.139-0.239,0.057-0.545-0.183-0.683c-0.238-0.138-0.545-0.057-0.683,0.183l-2.497,4.325h-0.601l-0.913-1.58
	l1.652-2.258l-2.78,0.303l-0.912-1.579l0.3-0.52h4.997c0.276,0,0.5-0.224,0.5-0.5s-0.224-0.5-0.5-0.5h-4.419l1.022-1.771h2.209
	c0.276,0,0.5-0.224,0.5-0.5s-0.224-0.5-0.5-0.5h-1.632l0.811-1.403l2.068-0.001c0.179,0,0.344-0.095,0.433-0.25l1.181-2.041
	c0.09-0.154,0.09-0.346,0-0.5l-1.179-2.042c-0.089-0.155-0.255-0.251-0.434-0.251l-2.359,0.002c-0.179,0-0.343,0.096-0.433,0.25
	l-1.178,2.039c-0.09,0.155-0.09,0.346,0,0.501l1.035,1.793l-0.811,1.403l-0.816-1.413c-0.138-0.239-0.444-0.322-0.683-0.183
	c-0.239,0.138-0.321,0.443-0.183,0.683l1.104,1.913l-1.022,1.771l-2.21-3.825c-0.138-0.24-0.445-0.321-0.683-0.183
	c-0.239,0.138-0.321,0.443-0.183,0.683l2.497,4.326l-0.3,0.52h-1.825l-1.129-2.56l-1.129,2.56h-1.824l-0.299-0.518l2.498-4.328
	c0.139-0.239,0.057-0.545-0.183-0.683c-0.237-0.138-0.545-0.057-0.683,0.183l-2.211,3.827l-1.022-1.771l1.105-1.916
	c0.138-0.239,0.056-0.545-0.184-0.684c-0.241-0.137-0.546-0.056-0.684,0.184l-0.815,1.415l-0.812-1.406l1.035-1.792
	c0.089-0.155,0.089-0.346-0.001-0.5l-1.179-2.041c-0.089-0.154-0.254-0.25-0.432-0.25h-2.357c-0.179,0-0.344,0.096-0.433,0.25
	l-1.18,2.043c-0.089,0.154-0.089,0.345,0.001,0.499l1.179,2.041c0.089,0.154,0.254,0.25,0.433,0.25h1.104c0.001,0,0.002,0,0.003,0
	l0.962-0.001l0.811,1.405l-1.628-0.001c-0.276,0-0.5,0.224-0.5,0.5s0.224,0.5,0.5,0.5l2.206,0.001l1.022,1.771h-4.416
	c-0.276,0-0.5,0.224-0.5,0.5s0.224,0.5,0.5,0.5h4.993l0.301,0.521l-0.912,1.58l-2.781-0.302l1.652,2.258L262.73,339h-0.602
	l-2.498-4.326c-0.138-0.24-0.445-0.321-0.683-0.183c-0.239,0.138-0.321,0.443-0.183,0.683l2.209,3.826h-2.048l-1.104-1.912
	c-0.139-0.24-0.444-0.322-0.683-0.183c-0.239,0.138-0.321,0.443-0.183,0.683l0.815,1.412h-1.622l-1.035-1.793
	c-0.09-0.154-0.255-0.249-0.433-0.249l-2.355,0.001c-0.179,0-0.343,0.095-0.433,0.249l-1.18,2.041c-0.09,0.155-0.09,0.346,0,0.5
	l1.179,2.041c0.089,0.154,0.254,0.25,0.433,0.25l2.357,0.001c0.179,0,0.344-0.095,0.433-0.249l1.033-1.792h1.624l-0.815,1.412
	c-0.138,0.239-0.056,0.545,0.184,0.684c0.079,0.045,0.165,0.066,0.25,0.066c0.173,0,0.341-0.09,0.434-0.25l1.103-1.912h2.047
	l-2.209,3.826c-0.139,0.239-0.057,0.545,0.183,0.683c0.079,0.046,0.165,0.067,0.25,0.067c0.172,0,0.341-0.09,0.433-0.25l2.498-4.326
	h0.601l0.912,1.579l-1.653,2.258l2.781-0.303l0.912,1.581l-0.299,0.519l-4.995-0.001c-0.276,0-0.5,0.224-0.5,0.5s0.224,0.5,0.5,0.5
	l4.417,0.001l-1.022,1.771h-2.209c-0.276,0-0.5,0.224-0.5,0.5s0.224,0.5,0.5,0.5h1.632l-0.812,1.406l-0.809,0.001l-0.158-0.002
	l-1.104,0.002c-0.179,0-0.343,0.096-0.433,0.25l-1.176,2.038c-0.09,0.155-0.09,0.346-0.001,0.5l1.177,2.043
	c0.09,0.155,0.255,0.251,0.434,0.251h2.358c0.179,0,0.344-0.096,0.433-0.25l1.178-2.041c0.089-0.154,0.089-0.345,0-0.5l-1.034-1.792
	l0.812-1.407l0.816,1.414c0.092,0.16,0.26,0.25,0.433,0.25c0.085,0,0.171-0.021,0.25-0.067c0.239-0.138,0.321-0.443,0.183-0.683
	l-1.104-1.914l1.021-1.771l2.21,3.825c0.092,0.16,0.261,0.25,0.433,0.25c0.085,0,0.171-0.021,0.25-0.067
	c0.239-0.138,0.321-0.443,0.183-0.683l-2.497-4.326l0.3-0.52h1.823l1.129,2.561l1.13-2.561h1.823l0.301,0.521l-2.496,4.324
	c-0.139,0.239-0.057,0.545,0.183,0.683c0.079,0.046,0.165,0.067,0.25,0.067c0.172,0,0.341-0.09,0.433-0.25l2.209-3.824l1.022,1.771
	l-1.103,1.91c-0.139,0.239-0.057,0.545,0.183,0.683c0.079,0.046,0.165,0.067,0.25,0.067c0.172,0,0.341-0.09,0.433-0.25l0.814-1.41
	l0.812,1.405l-1.035,1.79c-0.09,0.154-0.09,0.345,0,0.5l1.179,2.042c0.089,0.154,0.254,0.25,0.433,0.25l1.104,0.001
	c0.001,0,0.002,0,0.003,0l1.25-0.001c0.179,0,0.344-0.096,0.433-0.25l1.179-2.043c0.089-0.154,0.089-0.345-0.001-0.499l-1.178-2.041
	c-0.089-0.154-0.254-0.25-0.433-0.25l-1.254,0.002l-0.814-0.001l-0.812-1.407l1.633,0.001c0.276,0,0.5-0.224,0.5-0.5
	s-0.224-0.5-0.5-0.5l-2.21-0.001l-1.023-1.771h4.42c0.276,0,0.5-0.224,0.5-0.5s-0.224-0.5-0.5-0.5h-4.997l-0.299-0.519l0.913-1.581
	l2.779,0.302l-1.652-2.256l0.912-1.58h0.601l2.498,4.327c0.092,0.16,0.26,0.25,0.433,0.25c0.085,0,0.171-0.021,0.25-0.067
	c0.239-0.138,0.321-0.443,0.183-0.683l-2.209-3.827h2.047l1.104,1.913c0.092,0.16,0.261,0.25,0.433,0.25
	c0.085,0,0.171-0.021,0.25-0.067c0.239-0.138,0.321-0.443,0.183-0.683l-0.815-1.413h1.623l1.034,1.792
	c0.089,0.154,0.254,0.25,0.433,0.25h2.357c0.179,0,0.343-0.095,0.433-0.249l1.179-2.042
	C288.375,339.595,288.375,339.404,288.285,339.25z M275.718,325.648l0.89-1.542l1.229-0.001h0.552l0.277,0.479l0.614,1.063
	l-0.892,1.541l-0.966-0.002l-0.236,0.001l-0.578,0.001l-0.288-0.499L275.718,325.648z M260.613,324.105l0.552-0.001l0.411-0.001
	l0.815,0.001l0.891,1.542l-0.602,1.042l-0.289,0.499h-0.576l-1.202,0.001l-0.891-1.541l0.613-1.062L260.613,324.105z
	 M255.284,339.499L254.995,340l-0.6,1.041l-1.78-0.001l-0.613-1.062l-0.277-0.479l0.276-0.478l0.614-1.062l1.779-0.001l0.602,1.042
	L255.284,339.499z M263.281,353.354l-0.889,1.541l-0.965-0.001h-0.272l-0.543,0.001l-0.275-0.479l-0.613-1.063l0.889-1.541
	l0.808-0.001l0.157,0.002h0.238l0.576-0.001l0.289,0.501L263.281,353.354z M278.388,354.894l-0.542,0.001h-0.423l-0.814-0.001
	l-0.891-1.542l0.603-1.041l0.289-0.499h0.576l1.202-0.001l0.89,1.541l-0.613,1.062L278.388,354.894z M275.406,339.499l-0.289,0.5
	l-0.403,0.698l-0.511-0.698l-0.366-0.499l0.366-0.501l0.512-0.698l0.403,0.698L275.406,339.499z M274.778,342.587l-0.544-0.059
	l-0.543-0.059l-2.026-0.221l-0.614-0.066l-0.251,0.567l-0.822,1.863l-0.221,0.5l-0.221,0.5h-0.072l-0.221-0.5l-0.22-0.5
	l-0.822-1.863l-0.25-0.568l-0.614,0.066l-2.027,0.221l-0.543,0.06l-0.544,0.059l-0.035-0.062l0.322-0.441l0.323-0.441l1.203-1.643
	l0.365-0.5l-0.366-0.5l-1.202-1.644l-0.322-0.441l-0.323-0.441l0.036-0.062l0.543,0.059l0.544,0.06l2.024,0.22l0.614,0.066
	l0.251-0.567l0.822-1.863l0.22-0.5l0.221-0.5h0.074l0.22,0.5l0.221,0.5l0.822,1.865l0.25,0.566l0.616-0.067l2.025-0.22l0.543-0.06
	l0.544-0.059l0.035,0.062l-0.323,0.44l-0.322,0.441l-1.203,1.645l-0.366,0.501l0.365,0.499l1.204,1.645l0.322,0.441l0.323,0.441
	L274.778,342.587z M272.453,344.613h-0.577h-0.806l0.35-0.79l0.25-0.568l0.614,0.066l0.86,0.094l-0.403,0.699L272.453,344.613z
	 M267.125,344.613h-0.577l-0.288-0.499l-0.403-0.698l0.86-0.093l0.615-0.067l0.25,0.566l0.349,0.791H267.125z M263.596,339.5
	l0.289-0.5l0.402-0.697l0.51,0.697l0.366,0.5l-0.366,0.5l-0.51,0.697L263.884,340L263.596,339.5z M266.548,334.385h0.576h0.806
	l-0.349,0.791l-0.251,0.567l-0.614-0.066l-0.859-0.094l0.402-0.698L266.548,334.385z M271.877,334.385h0.576l0.289,0.5l0.402,0.697
	l-0.858,0.093l-0.617,0.067l-0.249-0.565l-0.35-0.792H271.877z M283.717,339.5l0.289-0.501l0.601-1.042l1.78,0.002l0.611,1.061
	l0.277,0.48L287,339.978l-0.613,1.063h-1.78l-0.602-1.042L283.717,339.5z"/>
</svg>
