<?xml version="1.0" encoding="utf-8"?>
<!-- Generator: Adobe Illustrator 16.0.0, SVG Export Plug-In . SVG Version: 6.00 Build 0)  -->
<!DOCTYPE svg PUBLIC "-//W3C//DTD SVG 1.1//EN" "http://www.w3.org/Graphics/SVG/1.1/DTD/svg11.dtd">
<svg version="1.1" id="Layer_1" xmlns="http://www.w3.org/2000/svg" xmlns:xlink="http://www.w3.org/1999/xlink" x="0px" y="0px"
	 width="50px" height="50px" viewBox="104.5 34.5 50 50" enable-background="new 104.5 34.5 50 50" xml:space="preserve">
<g>
	<path style="fill:white" d="M145,59.5c0-0.276-0.224-0.5-0.5-0.5h-1.247l1.601-1.602c0.195-0.195,0.195-0.512,0-0.707s-0.512-0.195-0.707,0L141.839,59
		h-5.427c-0.11-1.537-0.721-2.935-1.673-4.033l2.102-2.102l3.266-0.002c0.276,0,0.5-0.225,0.5-0.5c0-0.276-0.224-0.5-0.5-0.5
		l-2.265,0.002l2.618-2.619c0.195-0.195,0.195-0.512,0-0.707s-0.512-0.195-0.707,0l-2.617,2.617v-2.264c0-0.276-0.224-0.5-0.5-0.5
		s-0.5,0.224-0.5,0.5v3.264l-2.104,2.104c-1.099-0.951-2.496-1.562-4.032-1.672v-5.427l2.306-2.308c0.195-0.195,0.195-0.512,0-0.707
		s-0.512-0.195-0.707,0L130,45.747V44.5c0-0.276-0.224-0.5-0.5-0.5s-0.5,0.224-0.5,0.5v1.248l-1.601-1.602
		c-0.195-0.195-0.512-0.195-0.707,0s-0.195,0.512,0,0.707L129,47.162v5.426c-1.536,0.11-2.934,0.721-4.032,1.672l-2.108-2.108
		l-0.04-3.265c-0.004-0.276-0.199-0.484-0.506-0.494c-0.276,0.004-0.497,0.23-0.494,0.506l0.028,2.241l-2.601-2.601
		c-0.195-0.195-0.512-0.195-0.707,0s-0.195,0.512,0,0.707l2.633,2.633l-2.285,0.027c-0.276,0.003-0.497,0.229-0.494,0.506
		c0.003,0.274,0.227,0.494,0.5,0.494c0.002,0,0.004,0,0.006,0l3.263-0.038l2.099,2.099c-0.952,1.099-1.562,2.496-1.673,4.033h-5.427
		l-2.308-2.307c-0.195-0.195-0.512-0.195-0.707,0s-0.195,0.512,0,0.707l1.601,1.6H114.5c-0.276,0-0.5,0.224-0.5,0.5
		s0.224,0.5,0.5,0.5h1.247l-1.601,1.602c-0.195,0.195-0.195,0.512,0,0.707c0.098,0.098,0.226,0.146,0.354,0.146
		s0.256-0.049,0.354-0.146L117.161,60h5.427c0.11,1.536,0.721,2.934,1.672,4.032l-2.503,2.503l-3.311,0.002
		c-0.276,0-0.5,0.225-0.5,0.5c0,0.276,0.224,0.5,0.5,0.5l2.311-0.002l-2.217,2.217c-0.195,0.195-0.195,0.512,0,0.707
		c0.098,0.098,0.226,0.146,0.354,0.146s0.256-0.049,0.354-0.146l2.17-2.17v2.219c0,0.276,0.224,0.5,0.5,0.5s0.5-0.224,0.5-0.5
		v-3.219l2.55-2.55c1.099,0.952,2.496,1.562,4.033,1.673v5.427l-2.306,2.308c-0.195,0.195-0.195,0.512,0,0.707
		c0.098,0.098,0.226,0.146,0.354,0.146s0.256-0.049,0.354-0.146L129,73.253V74.5c0,0.276,0.224,0.5,0.5,0.5s0.5-0.224,0.5-0.5
		v-1.248l1.601,1.602c0.195,0.195,0.512,0.195,0.707,0s0.195-0.512,0-0.707L130,71.838v-5.426c1.537-0.11,2.935-0.721,4.033-1.673
		l2.706,2.706l0.041,3.332c0.004,0.274,0.227,0.494,0.5,0.494c0.002,0,0.004,0,0.006,0c0.276-0.004,0.497-0.23,0.494-0.506
		l-0.028-2.309l2.001,2.002c0.098,0.098,0.226,0.146,0.354,0.146s0.256-0.049,0.354-0.146c0.195-0.195,0.195-0.512,0-0.707
		l-1.966-1.966l2.218-0.026c0.276-0.003,0.497-0.229,0.494-0.506c-0.003-0.274-0.227-0.494-0.5-0.494c-0.002,0-0.004,0-0.006,0
		l-3.194,0.038l-2.766-2.766c0.951-1.099,1.562-2.496,1.672-4.032h5.428l2.307,2.305c0.098,0.098,0.226,0.146,0.354,0.146
		s0.256-0.049,0.354-0.146c0.195-0.195,0.195-0.512,0-0.707l-1.6-1.598h1.246C144.776,60,145,59.776,145,59.5z M135.438,59.5
		c0,0.169-0.012,0.335-0.025,0.5c-0.105,1.262-0.605,2.411-1.378,3.326c-0.216,0.255-0.452,0.491-0.707,0.707
		c-0.915,0.773-2.065,1.273-3.327,1.379c-0.165,0.014-0.331,0.025-0.5,0.025s-0.335-0.012-0.5-0.025
		c-1.262-0.105-2.412-0.605-3.327-1.379c-0.255-0.216-0.491-0.452-0.707-0.707c-0.772-0.915-1.272-2.064-1.378-3.326
		c-0.014-0.165-0.025-0.331-0.025-0.5s0.012-0.335,0.025-0.5c0.105-1.262,0.605-2.412,1.379-3.327
		c0.216-0.255,0.452-0.491,0.707-0.707c0.915-0.772,2.064-1.272,3.326-1.378c0.165-0.014,0.331-0.025,0.5-0.025
		s0.335,0.012,0.5,0.025c1.262,0.105,2.411,0.605,3.326,1.378c0.255,0.216,0.491,0.452,0.707,0.707
		c0.773,0.915,1.273,2.065,1.379,3.327C135.426,59.165,135.438,59.331,135.438,59.5z"/>
	<path style="fill:white" d="M132.432,55.86c-0.682-0.551-1.515-0.908-2.432-1.007c-0.166-0.019-0.329-0.051-0.5-0.051s-0.334,0.032-0.5,0.051
		c-0.917,0.099-1.75,0.456-2.432,1.007c-0.261,0.211-0.496,0.446-0.707,0.707c-0.551,0.683-0.908,1.515-1.007,2.433
		c-0.019,0.166-0.051,0.329-0.051,0.5s0.032,0.334,0.051,0.5c0.099,0.917,0.456,1.749,1.007,2.431
		c0.21,0.262,0.445,0.497,0.707,0.707c0.682,0.552,1.514,0.908,2.432,1.007c0.166,0.019,0.329,0.051,0.5,0.051
		s0.334-0.032,0.5-0.051c0.918-0.099,1.75-0.455,2.432-1.007c0.262-0.21,0.497-0.445,0.707-0.707
		c0.551-0.682,0.908-1.514,1.007-2.431c0.019-0.166,0.051-0.329,0.051-0.5s-0.032-0.334-0.051-0.5
		c-0.099-0.918-0.456-1.75-1.007-2.433C132.928,56.307,132.692,56.071,132.432,55.86z M133.196,59.5c0,0.171-0.028,0.335-0.051,0.5
		c-0.088,0.644-0.337,1.23-0.713,1.725c-0.203,0.267-0.44,0.504-0.707,0.707c-0.494,0.376-1.082,0.625-1.726,0.713
		c-0.165,0.022-0.329,0.051-0.5,0.051s-0.335-0.028-0.5-0.051c-0.644-0.088-1.231-0.337-1.726-0.713
		c-0.267-0.203-0.504-0.44-0.707-0.707c-0.376-0.494-0.625-1.081-0.713-1.725c-0.022-0.165-0.051-0.329-0.051-0.5
		s0.028-0.335,0.051-0.5c0.088-0.645,0.337-1.231,0.714-1.726c0.203-0.268,0.439-0.504,0.707-0.707
		c0.494-0.377,1.081-0.626,1.725-0.714c0.165-0.022,0.329-0.051,0.5-0.051s0.335,0.028,0.5,0.051
		c0.644,0.088,1.23,0.337,1.725,0.714c0.268,0.203,0.504,0.439,0.707,0.707c0.377,0.494,0.626,1.081,0.714,1.726
		C133.168,59.165,133.196,59.329,133.196,59.5z"/>
</g>
</svg>
