<?xml version="1.0" encoding="utf-8"?>
<!-- Generator: Adobe Illustrator 16.0.0, SVG Export Plug-In . SVG Version: 6.00 Build 0)  -->
<!DOCTYPE svg PUBLIC "-//W3C//DTD SVG 1.1//EN" "http://www.w3.org/Graphics/SVG/1.1/DTD/svg11.dtd">
<svg version="1.1" id="Layer_1" xmlns="http://www.w3.org/2000/svg" xmlns:xlink="http://www.w3.org/1999/xlink" x="0px" y="0px"
	 width="50px" height="50px" viewBox="174.5 104.5 50 50" enable-background="new 174.5 104.5 50 50" xml:space="preserve">
<path style="fill:white" d="M202.677,142.378c0.293,0.293,0.293,0.768,0,1.061c-0.146,0.146-0.339,0.22-0.53,0.22c-0.192,0-0.384-0.073-0.53-0.22
	l-2.116-2.117l-2.118,2.117c-0.294,0.294-0.769,0.292-1.061,0c-0.293-0.293-0.293-0.768,0-1.061l3.179-3.178L202.677,142.378z
	 M199.5,119.801l3.179-3.179c0.293-0.293,0.293-0.768,0-1.061s-0.768-0.293-1.061,0l-2.118,2.118l-2.116-2.117
	c-0.292-0.292-0.767-0.294-1.061,0c-0.293,0.293-0.293,0.768,0,1.061L199.5,119.801z M186.622,126.071
	c-0.293-0.293-0.768-0.293-1.061,0s-0.293,0.768,0,1.061l2.118,2.118l-2.118,2.119c-0.293,0.293-0.293,0.768,0,1.061
	c0.146,0.146,0.338,0.22,0.53,0.22s0.384-0.073,0.53-0.22l3.179-3.18L186.622,126.071z M211.318,129.25l2.12-2.119
	c0.293-0.293,0.293-0.768,0-1.061s-0.768-0.293-1.061,0l-3.181,3.18l3.181,3.179c0.146,0.146,0.339,0.22,0.53,0.22
	c0.192,0,0.384-0.073,0.53-0.22c0.293-0.293,0.293-0.768,0-1.061L211.318,129.25z M211.605,136.502c0,0.414-0.336,0.75-0.75,0.75
	l-2.544-0.001l2.325,2.325c0.293,0.293,0.293,0.768,0,1.061c-0.146,0.146-0.338,0.22-0.53,0.22s-0.384-0.073-0.53-0.22l-2.325-2.325
	v2.545c0,0.414-0.336,0.75-0.75,0.75s-0.75-0.336-0.75-0.75v-4.045l-2.037-2.037c-1.055,0.845-2.366,1.374-3.798,1.462l3.805,3.806
	c0.293,0.293,0.293,0.768,0,1.061c-0.146,0.146-0.338,0.22-0.53,0.22s-0.384-0.073-0.53-0.22l-3.166-3.167l-3.166,3.167
	c-0.293,0.293-0.768,0.293-1.061,0s-0.293-0.768,0-1.061l3.805-3.806c-1.427-0.09-2.734-0.62-3.786-1.462l-2.037,2.037v4.044
	c0,0.414-0.336,0.75-0.75,0.75s-0.75-0.336-0.75-0.75v-2.544l-2.325,2.325c-0.146,0.146-0.338,0.22-0.53,0.22
	s-0.384-0.073-0.53-0.22c-0.293-0.293-0.293-0.768,0-1.061l2.326-2.326h-2.546c-0.414,0-0.75-0.336-0.75-0.75s0.336-0.75,0.75-0.75
	h4.046l2.036-2.036c-0.842-1.052-1.371-2.358-1.462-3.785l-3.805,3.805c-0.146,0.146-0.338,0.22-0.53,0.22s-0.384-0.073-0.53-0.22
	c-0.293-0.293-0.293-0.768,0-1.061l3.166-3.166l-3.167-3.167c-0.293-0.293-0.293-0.768,0-1.061s0.768-0.293,1.061,0l3.806,3.806
	c0.087-1.432,0.617-2.744,1.462-3.799l-2.036-2.036l-4.045-0.002c-0.414,0-0.75-0.336-0.75-0.75s0.336-0.75,0.75-0.75l2.544,0.001
	l-2.325-2.325c-0.293-0.293-0.293-0.768,0-1.061s0.768-0.293,1.061,0l2.325,2.325v-2.545c0-0.414,0.336-0.75,0.75-0.75
	s0.75,0.336,0.75,0.75v4.045l2.037,2.037c1.052-0.843,2.36-1.372,3.787-1.462l-3.8-3.8c-0.293-0.293-0.293-0.768,0-1.061
	s0.768-0.293,1.061,0l3.167,3.167l3.166-3.166c0.293-0.293,0.768-0.293,1.061,0s0.293,0.768,0,1.061l-3.799,3.799
	c1.427,0.091,2.733,0.62,3.785,1.462l2.037-2.037v-4.044c0-0.414,0.336-0.75,0.75-0.75s0.75,0.336,0.75,0.75v2.544l2.325-2.325
	c0.293-0.293,0.768-0.293,1.061,0s0.293,0.768,0,1.061l-2.326,2.326h2.546c0.414,0,0.75,0.336,0.75,0.75s-0.336,0.75-0.75,0.75
	h-4.046l-2.036,2.036c0.842,1.052,1.372,2.359,1.462,3.786l3.8-3.8c0.293-0.293,0.768-0.293,1.061,0s0.293,0.768,0,1.061
	l-3.167,3.167l3.167,3.167c0.293,0.293,0.293,0.768,0,1.061c-0.146,0.146-0.338,0.22-0.53,0.22s-0.384-0.073-0.53-0.22l-3.8-3.8
	c-0.09,1.427-0.62,2.734-1.462,3.786l2.036,2.036l4.045,0.002C211.27,135.752,211.605,136.088,211.605,136.502z M202.635,133.695
	c0.403-0.302,0.759-0.657,1.061-1.061c0.658-0.878,1.062-1.955,1.062-3.135s-0.404-2.257-1.062-3.135
	c-0.302-0.403-0.657-0.759-1.061-1.061c-0.878-0.658-1.955-1.062-3.135-1.062s-2.257,0.404-3.135,1.062
	c-0.403,0.302-0.759,0.657-1.061,1.061c-0.658,0.878-1.062,1.955-1.062,3.135s0.404,2.257,1.062,3.135
	c0.302,0.403,0.657,0.759,1.061,1.061c0.878,0.658,1.955,1.062,3.135,1.062S201.757,134.354,202.635,133.695z"/>
</svg>
