<?xml version="1.0" encoding="utf-8"?>
<!-- Generator: Adobe Illustrator 16.0.0, SVG Export Plug-In . SVG Version: 6.00 Build 0)  -->
<!DOCTYPE svg PUBLIC "-//W3C//DTD SVG 1.1//EN" "http://www.w3.org/Graphics/SVG/1.1/DTD/svg11.dtd">
<svg version="1.1" id="Layer_1" xmlns="http://www.w3.org/2000/svg" xmlns:xlink="http://www.w3.org/1999/xlink" x="0px" y="0px"
	 width="50px" height="50px" viewBox="-105.5 -105.5 50 50" enable-background="new -105.5 -105.5 50 50" xml:space="preserve">
<path style="fill:white" d="M-65.629-79.019l-7.723,2.068L-79.5-80.5l6.148-3.55l7.723,2.069c0.043,0.012,0.087,0.017,0.13,0.017
	c0.221,0,0.423-0.147,0.482-0.371c0.071-0.267-0.087-0.541-0.354-0.612l-6.757-1.81l3.017-1.742l2.95,0.791
	c0.043,0.012,0.087,0.017,0.13,0.017c0.221,0,0.423-0.147,0.482-0.371c0.071-0.267-0.087-0.541-0.354-0.612l-1.984-0.532
	l2.198-1.269c0.239-0.138,0.321-0.444,0.183-0.683c-0.139-0.24-0.446-0.321-0.683-0.183l-2.196,1.268l0.531-1.981
	c0.071-0.267-0.087-0.541-0.354-0.612c-0.264-0.069-0.541,0.087-0.612,0.354l-0.79,2.947l-3.018,1.743l1.81-6.755
	c0.071-0.267-0.087-0.541-0.354-0.612c-0.265-0.07-0.541,0.086-0.612,0.354l-2.069,7.721L-80-81.366v-7.1l5.652-5.653
	c0.195-0.195,0.195-0.512,0-0.707s-0.512-0.195-0.707,0L-80-89.88v-3.484l2.158-2.158c0.195-0.195,0.195-0.512,0-0.707
	s-0.512-0.195-0.707,0L-80-94.778v-2.536c0-0.276-0.224-0.5-0.5-0.5s-0.5,0.224-0.5,0.5v2.536l-1.451-1.451
	c-0.195-0.195-0.512-0.195-0.707,0s-0.195,0.512,0,0.707L-81-93.364v3.484l-4.945-4.946c-0.195-0.195-0.512-0.195-0.707,0
	s-0.195,0.512,0,0.707L-81-88.466v7.1l-6.149-3.55l-2.069-7.721c-0.072-0.267-0.344-0.424-0.612-0.354
	c-0.267,0.071-0.425,0.346-0.354,0.612l1.81,6.755l-3.018-1.743l-0.79-2.947c-0.072-0.268-0.344-0.424-0.612-0.354
	c-0.267,0.071-0.425,0.346-0.354,0.612l0.531,1.981l-2.196-1.268c-0.239-0.138-0.545-0.057-0.683,0.183
	c-0.138,0.239-0.056,0.545,0.183,0.683l2.198,1.269l-1.984,0.532c-0.267,0.071-0.425,0.346-0.354,0.612
	c0.06,0.224,0.262,0.371,0.482,0.371c0.043,0,0.086-0.005,0.13-0.017l2.95-0.791l3.017,1.742l-6.757,1.81
	c-0.267,0.071-0.425,0.346-0.354,0.612c0.06,0.224,0.262,0.371,0.482,0.371c0.043,0,0.086-0.005,0.13-0.017l7.723-2.069l6.148,3.55
	l-6.148,3.55l-7.723-2.069c-0.264-0.07-0.541,0.087-0.612,0.354s0.087,0.541,0.354,0.612l6.757,1.81l-3.019,1.743l-2.947-0.79
	c-0.266-0.071-0.541,0.086-0.612,0.354c-0.072,0.267,0.087,0.541,0.354,0.612l1.982,0.531l-2.197,1.269
	c-0.239,0.138-0.321,0.444-0.183,0.683c0.093,0.161,0.261,0.25,0.434,0.25c0.085,0,0.171-0.021,0.25-0.067l2.197-1.269l-0.53,1.981
	c-0.071,0.267,0.087,0.541,0.354,0.612c0.043,0.012,0.087,0.017,0.13,0.017c0.221,0,0.423-0.147,0.482-0.371l0.789-2.947
	l3.017-1.742l-1.81,6.755c-0.071,0.267,0.087,0.541,0.354,0.612c0.043,0.012,0.087,0.017,0.13,0.017
	c0.221,0,0.422-0.147,0.482-0.371l2.069-7.721l6.149-3.55v7.099l-5.652,5.654c-0.195,0.195-0.195,0.512,0,0.707s0.512,0.195,0.707,0
	L-81-71.121v3.485l-2.158,2.158c-0.195,0.195-0.195,0.512,0,0.707s0.512,0.195,0.707,0L-81-66.222v2.536c0,0.276,0.224,0.5,0.5,0.5
	s0.5-0.224,0.5-0.5v-2.536l1.451,1.451c0.098,0.098,0.226,0.146,0.354,0.146s0.256-0.049,0.354-0.146
	c0.195-0.195,0.195-0.512,0-0.707L-80-67.636v-3.485l4.945,4.947c0.098,0.098,0.226,0.146,0.354,0.146s0.256-0.049,0.354-0.146
	c0.195-0.195,0.195-0.512,0-0.707L-80-72.535v-7.099l6.147,3.549l2.069,7.722c0.06,0.224,0.262,0.371,0.482,0.371
	c0.043,0,0.086-0.005,0.13-0.017c0.267-0.071,0.425-0.346,0.354-0.612l-1.811-6.756l3.02,1.743l0.789,2.947
	c0.06,0.223,0.262,0.371,0.482,0.371c0.043,0,0.086-0.005,0.13-0.017c0.267-0.071,0.425-0.346,0.354-0.612l-0.53-1.981l2.197,1.269
	c0.079,0.045,0.165,0.067,0.25,0.067c0.173,0,0.341-0.089,0.434-0.25c0.138-0.239,0.056-0.545-0.183-0.683l-2.197-1.269l1.982-0.531
	c0.267-0.071,0.425-0.346,0.354-0.612c-0.071-0.267-0.345-0.426-0.612-0.354l-2.947,0.79l-3.019-1.743l6.757-1.81
	c0.267-0.071,0.425-0.346,0.354-0.612S-65.361-79.09-65.629-79.019z"/>
</svg>
