<?xml version="1.0" encoding="utf-8"?>
<!-- Generator: Adobe Illustrator 16.0.0, SVG Export Plug-In . SVG Version: 6.00 Build 0)  -->
<!DOCTYPE svg PUBLIC "-//W3C//DTD SVG 1.1//EN" "http://www.w3.org/Graphics/SVG/1.1/DTD/svg11.dtd">
<svg version="1.1" id="Layer_1" xmlns="http://www.w3.org/2000/svg" xmlns:xlink="http://www.w3.org/1999/xlink" x="0px" y="0px"
	 width="50px" height="50px" viewBox="-35.5 174.5 50 50" enable-background="new -35.5 174.5 50 50" xml:space="preserve">
<path style="fill:white" d="M4.739,205.822c0-0.179-0.096-0.344-0.25-0.433l-1.893-1.092c-0.154-0.09-0.345-0.09-0.5,0l-1.643,0.949l-3.122-1.802
	v-7.891l3.121-1.802l1.644,0.949c0.078,0.045,0.164,0.067,0.25,0.067s0.173-0.022,0.25-0.067l1.893-1.092
	c0.154-0.089,0.25-0.254,0.25-0.433v-2.188c0-0.179-0.095-0.344-0.25-0.433l-1.895-1.095c-0.155-0.089-0.346-0.088-0.5,0.001
	l-1.893,1.094c-0.155,0.089-0.25,0.254-0.25,0.433l0.002,1.162l0,0.735l-3.119,1.801l-6.334-3.655l5.152-5.152
	c0.195-0.195,0.195-0.512,0-0.707s-0.512-0.195-0.707,0L-10,190.119v-2.979l1.644-0.948c0.155-0.089,0.25-0.254,0.25-0.433v-2.186
	c0-0.179-0.095-0.343-0.25-0.433l-1.893-1.094c-0.155-0.09-0.345-0.09-0.5,0l-1.895,1.094c-0.154,0.09-0.25,0.254-0.25,0.433v2.186
	c0,0.179,0.095,0.344,0.25,0.433L-11,187.14v2.979l-4.945-4.945c-0.195-0.195-0.512-0.195-0.707,0s-0.195,0.512,0,0.707l5.152,5.152
	l-6.334,3.655l-3.119-1.801l0.001-1.897c0-0.179-0.095-0.344-0.25-0.433l-1.893-1.094c-0.154-0.09-0.345-0.09-0.5-0.001
	l-1.895,1.095c-0.155,0.089-0.25,0.254-0.25,0.433l-0.001,1.162l0.001,1.025c0,0.179,0.096,0.344,0.25,0.433l1.893,1.092
	c0.077,0.045,0.164,0.067,0.25,0.067s0.172-0.022,0.25-0.067l1.644-0.949l3.121,1.802v7.891l-3.122,1.802l-1.643-0.949
	c-0.155-0.09-0.346-0.09-0.5,0l-1.893,1.092c-0.154,0.089-0.25,0.254-0.25,0.433v2.188c0,0.179,0.095,0.344,0.25,0.433l1.895,1.095
	c0.077,0.044,0.164,0.066,0.25,0.066c0.086,0,0.173-0.022,0.25-0.067l1.893-1.094c0.155-0.089,0.25-0.254,0.25-0.433l-0.002-1.896
	l3.123-1.804l6.331,3.655l-5.152,5.154c-0.195,0.195-0.195,0.512,0,0.707s0.512,0.195,0.707,0l4.945-4.947v2.981l-1.644,0.947
	c-0.155,0.089-0.25,0.254-0.25,0.433v2.186c0,0.179,0.095,0.343,0.25,0.433l1.895,1.094c0.078,0.045,0.164,0.067,0.25,0.067
	s0.173-0.022,0.25-0.067l1.893-1.094c0.154-0.09,0.25-0.254,0.25-0.433v-2.186c0-0.179-0.095-0.344-0.25-0.433L-10,211.859v-2.98
	l4.945,4.947c0.098,0.098,0.226,0.146,0.354,0.146s0.256-0.049,0.354-0.146c0.195-0.195,0.195-0.512,0-0.707l-5.152-5.154
	l6.331-3.655l3.123,1.804l-0.002,1.896c0,0.179,0.095,0.344,0.25,0.433l1.893,1.094c0.077,0.045,0.164,0.067,0.25,0.067
	c0.086,0,0.172-0.022,0.25-0.066l1.895-1.095c0.155-0.089,0.25-0.254,0.25-0.433l0.001-1.162L4.739,205.822z M-21.954,192.887
	l-0.5,0.289l-0.894,0.517l-1.393-0.804l0-1.033v-0.576l0.5-0.289l0.894-0.517l1.393,0.806l-0.002,0.873v0.157L-21.954,192.887z
	 M-3.668,202.868l-5.833-3.368l5.833-3.368V202.868z M-9.106,215.138L-10,215.654l-0.5,0.288l-0.5-0.289l-0.894-0.516v-1.608
	l0.894-0.516l0.5-0.288l0.5,0.288l0.894,0.516V215.138z M-11.894,183.862l0.894-0.516l0.5-0.289l0.5,0.288l0.894,0.517v1.608
	L-10,185.986l-0.5,0.288l-0.5-0.288l-0.894-0.516V183.862z M2.345,190.474l1.394,0.806l0.001,0.873l0,0.736l-1.393,0.804
	l-1.393-0.806l-0.001-1.607L2.345,190.474z M-4.166,195.266L-10,198.635v-6.736L-4.166,195.266z M-11,191.898v6.736l-5.834-3.369
	L-11,191.898z M-17.332,196.132l5.833,3.368l-5.833,3.368V196.132z M-21.952,207.721l-1.393,0.806l-0.894-0.517l-0.5-0.289l0-0.576
	l0-0.297l0-0.736l1.393-0.804l0.894,0.517l0.499,0.289l0,0.577L-21.952,207.721z M-16.832,203.732l5.832-3.367v6.734
	L-16.832,203.732z M-10,207.1v-6.734l5.832,3.368L-10,207.1z M0.954,206.69l0-0.577l0.499-0.289l0.894-0.517l1.393,0.804l0,1.033
	v0.576l-0.5,0.289l-0.894,0.517l-1.393-0.806L0.954,206.69z"/>
</svg>
