<?xml version="1.0" encoding="utf-8"?>
<!-- Generator: Adobe Illustrator 16.0.0, SVG Export Plug-In . SVG Version: 6.00 Build 0)  -->
<!DOCTYPE svg PUBLIC "-//W3C//DTD SVG 1.1//EN" "http://www.w3.org/Graphics/SVG/1.1/DTD/svg11.dtd">
<svg version="1.1" id="Layer_1" xmlns="http://www.w3.org/2000/svg" xmlns:xlink="http://www.w3.org/1999/xlink" x="0px" y="0px"
	 width="50px" height="50px" viewBox="-245.5 104.5 50 50" enable-background="new -245.5 104.5 50 50" xml:space="preserve">
<path style="fill:white" d="M-205.5,128.75h-6.991l3.118-3.118c0.293-0.293,0.293-0.768,0-1.061s-0.768-0.293-1.061,0l-3.471,3.472
	c-0.58-2.624-2.687-4.678-5.339-5.179l3.843-3.844c0.293-0.293,0.293-0.768,0-1.061s-0.768-0.293-1.061,0l-3.29,3.29v-6.75
	c0-0.414-0.336-0.75-0.75-0.75s-0.75,0.336-0.75,0.75v6.75l-3.29-3.29c-0.293-0.293-0.768-0.293-1.061,0s-0.293,0.768,0,1.061
	l3.843,3.844c-2.652,0.501-4.759,2.555-5.339,5.179l-3.471-3.472c-0.293-0.293-0.768-0.293-1.061,0s-0.293,0.768,0,1.061
	l3.118,3.118h-6.991c-0.414,0-0.75,0.336-0.75,0.75s0.336,0.75,0.75,0.75h6.991l-3.118,3.118c-0.293,0.293-0.293,0.768,0,1.061
	c0.146,0.146,0.338,0.22,0.53,0.22s0.384-0.073,0.53-0.22l3.471-3.472c0.58,2.624,2.687,4.678,5.339,5.179l-3.843,3.844
	c-0.293,0.293-0.293,0.768,0,1.061s0.768,0.293,1.061,0l3.29-3.29v6.75c0,0.414,0.336,0.75,0.75,0.75s0.75-0.336,0.75-0.75v-6.75
	l3.29,3.29c0.146,0.146,0.338,0.22,0.53,0.22s0.384-0.073,0.53-0.22c0.293-0.293,0.293-0.768,0-1.061l-3.843-3.844
	c2.652-0.501,4.759-2.555,5.339-5.179l3.471,3.472c0.146,0.146,0.338,0.22,0.53,0.22s0.384-0.073,0.53-0.22
	c0.293-0.293,0.293-0.768,0-1.061l-3.118-3.118h6.991c0.414,0,0.75-0.336,0.75-0.75S-205.086,128.75-205.5,128.75z M-219.75,134.682
	c-0.247,0.036-0.493,0.076-0.75,0.076s-0.503-0.04-0.75-0.076c-2.295-0.332-4.101-2.137-4.433-4.432
	c-0.03-0.211-0.06-0.423-0.064-0.641c-0.001-0.037-0.011-0.072-0.011-0.109s0.01-0.072,0.011-0.109
	c0.004-0.218,0.034-0.43,0.064-0.641c0.332-2.295,2.137-4.1,4.433-4.432c0.247-0.036,0.493-0.076,0.75-0.076s0.503,0.04,0.75,0.076
	c2.295,0.332,4.101,2.137,4.433,4.432c0.03,0.211,0.06,0.423,0.064,0.641c0.001,0.037,0.011,0.072,0.011,0.109
	s-0.01,0.072-0.011,0.109c-0.004,0.218-0.034,0.43-0.064,0.641C-215.649,132.545-217.455,134.35-219.75,134.682z M-208.959,139.979
	c0.293,0.293,0.293,0.768,0,1.061c-0.146,0.146-0.338,0.22-0.53,0.22s-0.384-0.073-0.53-0.22l-2.612-2.611
	c-0.293-0.293-0.293-0.768,0-1.061s0.768-0.293,1.061,0L-208.959,139.979z M-227.955,137.368c0.293,0.293,0.293,0.768,0,1.061
	l-2.612,2.611c-0.146,0.146-0.338,0.22-0.53,0.22s-0.384-0.073-0.53-0.22c-0.293-0.293-0.293-0.768,0-1.061l2.612-2.611
	C-228.722,137.075-228.248,137.075-227.955,137.368z M-231.627,119.712c-0.292-0.293-0.292-0.769,0.001-1.061
	c0.292-0.293,0.768-0.293,1.061,0l2.611,2.614c0.292,0.293,0.292,0.769-0.001,1.061c-0.146,0.146-0.338,0.22-0.53,0.22
	s-0.384-0.073-0.531-0.22L-231.627,119.712z M-212.634,122.332c-0.292-0.293-0.292-0.769,0-1.061l2.615-2.611
	c0.292-0.293,0.768-0.293,1.061,0c0.292,0.293,0.292,0.769,0,1.061l-2.615,2.611c-0.146,0.146-0.338,0.22-0.53,0.22
	S-212.487,122.479-212.634,122.332z"/>
</svg>
