<?xml version="1.0" encoding="utf-8"?>
<!-- Generator: Adobe Illustrator 16.0.0, SVG Export Plug-In . SVG Version: 6.00 Build 0)  -->
<!DOCTYPE svg PUBLIC "-//W3C//DTD SVG 1.1//EN" "http://www.w3.org/Graphics/SVG/1.1/DTD/svg11.dtd">
<svg version="1.1" id="Layer_1" xmlns="http://www.w3.org/2000/svg" xmlns:xlink="http://www.w3.org/1999/xlink" x="0px" y="0px"
	 width="50px" height="50px" viewBox="-105.5 174.5 50 50" enable-background="new -105.5 174.5 50 50" xml:space="preserve">
<path style="fill:white" d="M-61.498,199.125l-1.179-2.042c-0.134-0.231-0.381-0.374-0.649-0.374l-2.357-0.001c-0.268,0-0.515,0.143-0.649,0.375
	l-0.961,1.667h-4.288l3.767-3.766c0.293-0.293,0.293-0.768,0-1.061s-0.768-0.293-1.061,0l-4.828,4.826h-0.082
	c-0.213-1.918-1.234-3.592-2.712-4.683l0.047-0.083l6.59-1.766c0.4-0.107,0.637-0.519,0.53-0.919c-0.107-0.4-0.517-0.639-0.919-0.53
	l-5.14,1.377l2.141-3.707l0.661-0.001l0.149,0.002c0.003,0,0.007,0,0.01,0l1.104-0.001c0.268,0,0.515-0.143,0.648-0.374l1.181-2.042
	c0.134-0.232,0.134-0.518,0-0.75l-1.181-2.042c-0.134-0.232-0.381-0.375-0.649-0.375l-2.357,0.001c-0.268,0-0.515,0.144-0.649,0.375
	l-1.178,2.039c-0.134,0.232-0.135,0.518-0.001,0.75l0.963,1.668l-2.142,3.711l-1.378-5.146c-0.107-0.399-0.52-0.637-0.918-0.53
	c-0.4,0.107-0.638,0.519-0.531,0.919l1.766,6.594l-0.043,0.074c-0.83-0.364-1.744-0.569-2.707-0.569s-1.877,0.205-2.707,0.569
	l-0.044-0.076l1.766-6.589c0.107-0.4-0.13-0.812-0.53-0.919c-0.4-0.105-0.812,0.131-0.919,0.53l-1.378,5.141l-2.143-3.711
	l0.962-1.665c0.134-0.232,0.134-0.518,0-0.75l-1.178-2.041c-0.134-0.231-0.38-0.375-0.648-0.375l-2.359-0.001
	c-0.268,0-0.516,0.143-0.649,0.375l-1.18,2.044c-0.133,0.232-0.133,0.518,0.001,0.749l1.179,2.041
	c0.134,0.232,0.381,0.375,0.649,0.375h1.104c0.003,0,0.006,0,0.01,0l0.812-0.001l2.142,3.71l-5.142-1.377
	c-0.397-0.106-0.811,0.131-0.918,0.53c-0.107,0.4,0.13,0.812,0.531,0.919l6.591,1.766l0.046,0.081
	c-1.478,1.091-2.499,2.765-2.712,4.683H-87.3l-4.826-4.826c-0.293-0.293-0.768-0.293-1.061,0s-0.293,0.768,0,1.061l3.766,3.766
	h-4.286l-0.962-1.667c-0.134-0.231-0.381-0.374-0.649-0.374h-2.356c-0.268,0-0.515,0.143-0.649,0.374l-1.18,2.041
	c-0.134,0.232-0.133,0.518,0,0.75l1.178,2.042c0.134,0.232,0.381,0.375,0.649,0.375l1.249,0.001c0.002,0,0.004,0,0.005,0
	l1.104-0.001c0.268,0,0.515-0.144,0.649-0.375l0.96-1.666h4.284l-3.763,3.763c-0.293,0.293-0.293,0.768,0,1.061
	c0.146,0.146,0.338,0.22,0.53,0.22s0.384-0.073,0.53-0.22l4.823-4.823h0.087c0.213,1.918,1.234,3.591,2.711,4.683l-0.045,0.077
	l-6.594,1.769c-0.4,0.107-0.637,0.519-0.53,0.919c0.107,0.4,0.522,0.639,0.919,0.53l5.144-1.379l-2.144,3.713l-0.823-0.001
	l-1.104,0.004c-0.267,0.001-0.514,0.144-0.647,0.375l-1.178,2.038c-0.134,0.232-0.135,0.519,0,0.751l1.179,2.041
	c0.134,0.232,0.381,0.375,0.649,0.375l1.248,0.001c0.002,0,0.004,0,0.005,0l1.104-0.001c0.268,0,0.515-0.144,0.649-0.375
	l1.178-2.041c0.134-0.231,0.134-0.519,0-0.75l-0.962-1.666l2.143-3.712l1.379,5.14c0.09,0.335,0.393,0.556,0.724,0.556
	c0.064,0,0.13-0.008,0.195-0.025c0.4-0.107,0.637-0.519,0.53-0.919l-1.768-6.588l0.044-0.076c0.83,0.365,1.744,0.57,2.707,0.57
	c0.962,0,1.877-0.205,2.707-0.569l0.042,0.073l-1.767,6.591c-0.107,0.4,0.13,0.812,0.53,0.919c0.065,0.018,0.13,0.025,0.195,0.025
	c0.331,0,0.634-0.221,0.724-0.556l1.378-5.143l2.144,3.713l-0.963,1.666c-0.134,0.232-0.134,0.518,0,0.75l1.178,2.042
	c0.134,0.231,0.381,0.375,0.649,0.375l1.104,0.001c0.001,0,0.003,0,0.005,0l1.248-0.001c0.268,0,0.516-0.143,0.649-0.375
	l1.179-2.043c0.134-0.231,0.133-0.518,0-0.749l-1.178-2.042c-0.134-0.231-0.382-0.375-0.65-0.375l-1.923,0.002l-2.143-3.713
	l5.142,1.379c0.4,0.108,0.812-0.13,0.919-0.53s-0.13-0.812-0.53-0.919l-6.591-1.768l-0.046-0.079
	c1.478-1.091,2.499-2.765,2.712-4.683h0.085l4.822,4.824c0.146,0.146,0.338,0.22,0.53,0.22s0.384-0.073,0.53-0.22
	c0.293-0.293,0.293-0.768,0-1.061l-3.762-3.764h4.285l0.963,1.667c0.134,0.231,0.381,0.374,0.649,0.374l2.357,0.001
	c0.268,0,0.515-0.143,0.649-0.375l1.178-2.042C-61.364,199.643-61.364,199.357-61.498,199.125z M-73.994,185.648l0.746-1.291h0.625
	l0.865-0.001l0.434,0.75l0.314,0.542l-0.748,1.291l-0.625,0.001h-0.042l-0.155-0.002l-0.669,0.001l-0.433-0.75L-73.994,185.648z
	 M-89.244,186.939l-0.746-1.292l0.313-0.542l0.433-0.75l0.818-0.001h0.047l0.625,0.001l0.746,1.292l-0.312,0.54l-0.434,0.75
	l-0.865,0.001L-89.244,186.939z M-95.006,199.5l-0.432,0.75l-0.312,0.541h-1.492l-0.312-0.541l-0.433-0.751l0.433-0.749l0.312-0.541
	h1.492l0.312,0.541L-95.006,199.5z M-87.008,213.354l-0.745,1.291h-0.626h-0.865l-0.434-0.75l-0.312-0.54l0.746-1.292h0.624h0.866
	l0.433,0.75L-87.008,213.354z M-71.757,212.061l0.746,1.293l-0.312,0.541l-0.434,0.75l-0.821,0.001h-0.043l-0.626-0.001
	l-0.747-1.292l0.313-0.541l0.434-0.749l0.866-0.001L-71.757,212.061z M-75.242,199.5c0,0.257-0.04,0.503-0.076,0.75
	c-0.197,1.361-0.911,2.545-1.944,3.36c-0.393,0.31-0.819,0.575-1.291,0.764c-0.604,0.242-1.259,0.384-1.948,0.384
	s-1.345-0.142-1.949-0.384c-0.471-0.189-0.898-0.454-1.291-0.764c-1.033-0.816-1.746-1.999-1.943-3.36
	c-0.036-0.247-0.076-0.493-0.076-0.75s0.04-0.503,0.076-0.75c0.197-1.361,0.911-2.545,1.944-3.36
	c0.393-0.31,0.819-0.575,1.291-0.764c0.604-0.242,1.259-0.384,1.948-0.384s1.344,0.142,1.948,0.384
	c0.471,0.188,0.898,0.453,1.291,0.764c1.033,0.815,1.747,1.999,1.944,3.36C-75.282,198.997-75.242,199.243-75.242,199.5z
	 M-63.758,200.792l-1.492-0.001l-0.312-0.541l-0.433-0.75l0.432-0.75l0.312-0.542l1.492,0.001l0.312,0.541l0.433,0.75l-0.432,0.75
	L-63.758,200.792z"/>
</svg>
