<?xml version="1.0" encoding="utf-8"?>
<!-- Generator: Adobe Illustrator 16.0.0, SVG Export Plug-In . SVG Version: 6.00 Build 0)  -->
<!DOCTYPE svg PUBLIC "-//W3C//DTD SVG 1.1//EN" "http://www.w3.org/Graphics/SVG/1.1/DTD/svg11.dtd">
<svg version="1.1" id="Layer_1" xmlns="http://www.w3.org/2000/svg" xmlns:xlink="http://www.w3.org/1999/xlink" x="0px" y="0px"
	 width="50px" height="50px" viewBox="314.5 314.5 50 50" enable-background="new 314.5 314.5 50 50" xml:space="preserve">
<path style="fill:white" d="M340.5,333.494l3.703,2.136l1.517-0.875l2.114-7.893l-1.557-0.899l-5.777,5.779V333.494z M341.5,332.156l4.941-4.943
	l0.229,0.132l-1.81,6.752l-0.657,0.379l-2.703-1.56V332.156z M334.797,335.63l3.703-2.136v-1.752l-5.777-5.779l-1.557,0.899
	l2.114,7.893L334.797,335.63z M332.559,327.213l4.941,4.943v0.76l-2.703,1.56l-0.657-0.379l-1.81-6.752L332.559,327.213z
	 M333.798,341.639v-4.277l-1.518-0.874l-7.892,2.113l-0.001,1.799l7.894,2.113L333.798,341.639z M325.388,339.632l0.001-0.264
	l6.751-1.809l0.658,0.38v3.121l-0.657,0.38L325.388,339.632z M354.071,343.648l0.946-0.253l-0.26-0.967l-5.592,1.499l1.796,1.034
	l2.264-0.605l0.607,2.264l0.297,0.172l-0.375,0.648l-6.529-3.77l7.339-1.966c0.134-0.035,0.213-0.173,0.177-0.306
	c-0.034-0.134-0.172-0.212-0.306-0.177l-7.823,2.095l-2.16-1.247v-5.141l2.162-1.248l7.821,2.096
	c0.021,0.006,0.043,0.009,0.064,0.009c0.11,0,0.212-0.073,0.241-0.186c0.036-0.133-0.043-0.271-0.177-0.306l-7.338-1.967
	l6.528-3.769l0.375,0.648l-0.297,0.172l-0.605,2.266l-2.268-0.608l-1.79,1.036l5.589,1.498l0.26-0.967l-0.945-0.253l0.619-2.313
	l0.803-0.465l-2-3.464l-0.804,0.465l-2.312-0.62l0.254-0.943l-0.967-0.26l-1.498,5.592l1.793-1.037l0.606-2.266l2.266,0.608
	l0.296-0.172l0.375,0.649l-6.528,3.769l1.966-7.339c0.036-0.133-0.043-0.271-0.177-0.306c-0.131-0.033-0.271,0.043-0.306,0.177
	l-2.097,7.822l-2.16,1.247l-4.453-2.569v-2.496l5.726-5.727c0.098-0.098,0.098-0.256,0-0.354s-0.256-0.098-0.354,0l-5.372,5.373
	v-7.538h0.75v0.342l1.658,1.658l-1.658,1.658v2.068l4.092-4.092l-0.707-0.707l-0.692,0.692l-1.692-1.692v-0.928h-4v0.928
	l-1.692,1.692l-0.692-0.692l-0.707,0.707l4.092,4.092v-2.068l-1.658-1.658l1.658-1.658v-0.342h0.75v7.538l-5.372-5.373
	c-0.098-0.098-0.256-0.098-0.354,0s-0.098,0.256,0,0.354l5.726,5.727v2.496l-4.453,2.569l-2.16-1.247l-2.097-7.822
	c-0.035-0.134-0.172-0.211-0.306-0.177c-0.134,0.035-0.213,0.173-0.177,0.306l1.966,7.339l-6.528-3.769l0.375-0.649l0.296,0.172
	l2.266-0.608l0.606,2.266l1.793,1.037l-1.498-5.592l-0.967,0.26l0.254,0.943l-2.312,0.62l-0.804-0.465l-2,3.464l0.803,0.465
	l0.619,2.313l-0.945,0.253l0.26,0.967l5.589-1.498l-1.79-1.036l-2.268,0.608l-0.605-2.266l-0.297-0.172l0.375-0.648l6.528,3.769
	l-7.338,1.967c-0.134,0.035-0.213,0.173-0.177,0.306c0.029,0.112,0.131,0.186,0.241,0.186c0.021,0,0.043-0.003,0.064-0.009
	l7.821-2.096l2.162,1.248v5.141l-2.161,1.247l-7.822-2.095c-0.131-0.034-0.271,0.043-0.306,0.177
	c-0.036,0.133,0.043,0.271,0.177,0.306l7.339,1.966l-6.529,3.77l-0.375-0.648l0.297-0.172l0.607-2.264l2.264,0.605l1.796-1.034
	l-5.592-1.499l-0.26,0.967l0.946,0.253l-0.621,2.313l-0.803,0.465l1.999,3.463l0.803-0.463l2.313,0.619l-0.254,0.945l0.967,0.26
	l1.497-5.589l-1.791,1.031l-0.606,2.267l-2.267-0.605l-0.295,0.17l-0.376-0.65l6.528-3.769l-1.966,7.339
	c-0.036,0.133,0.043,0.271,0.177,0.306c0.021,0.006,0.043,0.009,0.064,0.009c0.11,0,0.212-0.073,0.241-0.186l2.097-7.822
	l2.162-1.248l4.451,2.57v2.495l-5.726,5.727c-0.098,0.098-0.098,0.256,0,0.354s0.256,0.098,0.354,0l5.372-5.373v7.539h-0.75v-0.34
	l-1.658-1.658l1.658-1.658v-2.07l-4.092,4.092l0.707,0.707l0.691-0.691l1.693,1.693v0.926h4v-0.926l1.693-1.693l0.691,0.691
	l0.707-0.707l-4.092-4.092v2.07l1.658,1.658l-1.658,1.658v0.34h-0.75v-7.539l5.372,5.374c0.049,0.049,0.112,0.073,0.177,0.073
	s0.128-0.024,0.177-0.073c0.098-0.098,0.098-0.256,0-0.354l-5.726-5.728v-2.495l4.451-2.57l2.16,1.247l2.097,7.823
	c0.029,0.112,0.131,0.186,0.241,0.186c0.021,0,0.043-0.003,0.064-0.009c0.134-0.035,0.213-0.173,0.177-0.306l-1.966-7.341
	l6.53,3.771l-0.376,0.65l-0.295-0.17l-2.267,0.605l-0.606-2.267l-1.794-1.033l1.498,5.591l0.967-0.26l-0.254-0.945l2.315-0.619
	l0.803,0.463l1.999-3.463l-0.803-0.465L354.071,343.648z M335.048,337.219l0.75,0.433v3.697l-0.75,0.433V337.219z M339.25,344.495
	l-3.951-2.281l0.751-0.433l3.2,1.849V344.495z M339.25,342.476l-2.201-1.271l2.201-1.271V342.476z M336.798,340.771v-2.543
	l2.201,1.271L336.798,340.771z M339.25,339.066l-2.202-1.271l2.202-1.271V339.066z M339.25,335.37l-3.203,1.848l-0.75-0.433
	l3.953-2.28V335.37z M339.75,334.505l3.953,2.28l-0.75,0.433l-3.203-1.848V334.505z M339.75,336.524l2.202,1.271l-2.202,1.271
	V336.524z M342.202,338.229v2.543l-2.201-1.271L342.202,338.229z M339.75,339.934l2.201,1.271l-2.201,1.271V339.934z
	 M339.75,344.495v-0.865l3.2-1.849l0.751,0.433L339.75,344.495z M343.952,341.781l-0.75-0.433v-3.697l0.75-0.433V341.781z
	 M345.202,337.361v4.277l1.516,0.874l7.895-2.113l-0.001-1.799l-7.892-2.113L345.202,337.361z M353.611,339.368l0.001,0.264
	l-6.754,1.809l-0.656-0.38v-3.121l0.658-0.38L353.611,339.368z M338.5,345.506l-3.702-2.136l-1.518,0.874l-2.114,7.894l1.557,0.899
	l5.777-5.779V345.506z M337.5,346.844l-4.941,4.943l-0.229-0.132l1.81-6.751l0.658-0.38l2.702,1.56V346.844z M344.202,343.37
	l-3.702,2.136v1.752l5.777,5.779l1.555-0.899l-2.114-7.893L344.202,343.37z M346.441,351.787l-4.941-4.943v-0.76l2.702-1.56
	l0.656,0.379l1.81,6.752L346.441,351.787z"/>
</svg>
