<?xml version="1.0" encoding="utf-8"?>
<!-- Generator: Adobe Illustrator 16.0.0, SVG Export Plug-In . SVG Version: 6.00 Build 0)  -->
<!DOCTYPE svg PUBLIC "-//W3C//DTD SVG 1.1//EN" "http://www.w3.org/Graphics/SVG/1.1/DTD/svg11.dtd">
<svg version="1.1" id="Layer_1" xmlns="http://www.w3.org/2000/svg" xmlns:xlink="http://www.w3.org/1999/xlink" x="0px" y="0px"
	 width="50px" height="50px" viewBox="-315.5 -175.5 50 50" enable-background="new -315.5 -175.5 50 50" xml:space="preserve">
<path style="fill:white" d="M-275.186-142.236l-7.864-4.54l5.728-1.534c0.267-0.071,0.425-0.346,0.354-0.612s-0.346-0.425-0.612-0.354l-6.693,1.792
	l-0.112-0.064v-5.905l0.116-0.067l6.689,1.792c0.043,0.012,0.087,0.017,0.13,0.017c0.221,0,0.422-0.147,0.482-0.371
	c0.071-0.267-0.087-0.541-0.354-0.612l-5.723-1.534l7.859-4.538c0.239-0.138,0.321-0.444,0.183-0.683
	c-0.138-0.24-0.445-0.321-0.683-0.183l-7.862,4.539l1.535-5.727c0.071-0.267-0.087-0.541-0.354-0.612
	c-0.266-0.071-0.541,0.086-0.612,0.354l-1.793,6.693l-0.114,0.066l-5.114-2.953v-0.132l4.898-4.897c0.195-0.195,0.195-0.512,0-0.707
	s-0.512-0.195-0.707,0l-4.191,4.19v-9.079c0-0.276-0.224-0.5-0.5-0.5s-0.5,0.224-0.5,0.5v9.079l-4.191-4.19
	c-0.195-0.195-0.512-0.195-0.707,0s-0.195,0.512,0,0.707l4.898,4.897v0.132l-5.114,2.953l-0.114-0.066l-1.793-6.693
	c-0.072-0.267-0.345-0.425-0.612-0.354c-0.267,0.071-0.425,0.346-0.354,0.612l1.535,5.727l-7.862-4.539
	c-0.24-0.138-0.545-0.056-0.683,0.183c-0.138,0.239-0.056,0.545,0.183,0.683l7.859,4.538l-5.723,1.534
	c-0.267,0.071-0.425,0.346-0.354,0.612c0.06,0.224,0.262,0.371,0.482,0.371c0.043,0,0.086-0.005,0.13-0.017l6.689-1.792l0.116,0.067
	v5.905l-0.112,0.064l-6.693-1.792c-0.265-0.07-0.541,0.087-0.612,0.354c-0.071,0.267,0.087,0.541,0.354,0.612l5.728,1.534
	l-7.864,4.54c-0.239,0.138-0.321,0.444-0.183,0.683c0.093,0.161,0.261,0.25,0.434,0.25c0.085,0,0.171-0.021,0.25-0.067l7.861-4.539
	l-1.532,5.723c-0.071,0.267,0.087,0.541,0.354,0.612c0.043,0.012,0.087,0.017,0.13,0.017c0.221,0,0.423-0.147,0.482-0.371
	l1.791-6.689l0.115-0.066l5.114,2.953v0.129l-4.898,4.898c-0.195,0.195-0.195,0.512,0,0.707s0.512,0.195,0.707,0l4.191-4.191v9.082
	c0,0.276,0.224,0.5,0.5,0.5s0.5-0.224,0.5-0.5v-9.082l4.191,4.193c0.098,0.098,0.226,0.146,0.354,0.146s0.256-0.049,0.354-0.146
	c0.195-0.195,0.195-0.512,0-0.707l-4.898-4.9v-0.129l5.114-2.953l0.115,0.066l1.791,6.689c0.06,0.223,0.262,0.371,0.482,0.371
	c0.043,0,0.086-0.005,0.13-0.017c0.267-0.071,0.425-0.345,0.354-0.612l-1.532-5.723l7.861,4.539c0.079,0.045,0.165,0.067,0.25,0.067
	c0.173,0,0.341-0.09,0.434-0.25C-274.864-141.792-274.946-142.098-275.186-142.236z M-290-144.883l-0.5,0.289l-0.5-0.289
	l-4.114-2.376l-0.5-0.289v-0.578v-4.75v-0.578l0.5-0.289l4.114-2.376l0.5-0.289l0.5,0.289l4.114,2.376l0.5,0.289v0.578v4.75v0.578
	l-0.5,0.289L-290-144.883z"/>
</svg>
