<?xml version="1.0" encoding="utf-8"?>
<!-- Generator: Adobe Illustrator 16.0.0, SVG Export Plug-In . SVG Version: 6.00 Build 0)  -->
<!DOCTYPE svg PUBLIC "-//W3C//DTD SVG 1.1//EN" "http://www.w3.org/Graphics/SVG/1.1/DTD/svg11.dtd">
<svg version="1.1" id="Layer_1" xmlns="http://www.w3.org/2000/svg" xmlns:xlink="http://www.w3.org/1999/xlink" x="0px" y="0px"
	 width="50px" height="50px" viewBox="314.5 244.5 50 50" enable-background="new 314.5 244.5 50 50" xml:space="preserve">
<path style="fill:white" d="M332.046,261.245c0-0.276,0.224-0.5,0.5-0.5l1.901,0.002l0.95-1.648c0.139-0.239,0.442-0.32,0.684-0.184
	c0.239,0.139,0.321,0.444,0.184,0.684l-1.239,2.148l-2.479-0.002C332.27,261.745,332.046,261.521,332.046,261.245z M346.456,277.253
	h-2.479l-1.238,2.146c-0.138,0.239-0.056,0.545,0.184,0.684c0.079,0.045,0.165,0.066,0.25,0.066c0.173,0,0.341-0.09,0.434-0.25
	l0.949-1.646h1.901c0.276,0,0.5-0.224,0.5-0.5S346.732,277.253,346.456,277.253z M343.976,261.747h2.48c0.276,0,0.5-0.224,0.5-0.5
	s-0.224-0.5-0.5-0.5h-1.902l-0.952-1.647c-0.138-0.239-0.444-0.322-0.683-0.183c-0.239,0.138-0.321,0.443-0.183,0.683
	L343.976,261.747z M335.023,277.253h-2.479c-0.276,0-0.5,0.224-0.5,0.5s0.224,0.5,0.5,0.5h1.903l0.952,1.647
	c0.093,0.16,0.261,0.25,0.433,0.25c0.085,0,0.172-0.021,0.25-0.067c0.239-0.138,0.321-0.443,0.183-0.683L335.023,277.253z
	 M328.625,271.831c0.079,0.045,0.165,0.066,0.25,0.066c0.173,0,0.341-0.09,0.434-0.25l1.237-2.146l-1.24-2.148
	c-0.138-0.239-0.443-0.323-0.683-0.183c-0.239,0.138-0.321,0.443-0.183,0.683l0.951,1.648l-0.95,1.646
	C328.304,271.387,328.386,271.692,328.625,271.831z M350.375,267.17c-0.241-0.141-0.546-0.057-0.683,0.183l-1.239,2.147l1.24,2.147
	c0.092,0.16,0.261,0.25,0.433,0.25c0.085,0,0.171-0.021,0.25-0.067c0.239-0.138,0.321-0.443,0.183-0.683l-0.951-1.647l0.95-1.647
	C350.696,267.613,350.614,267.308,350.375,267.17z M354.997,278.447c-0.092,0.16-0.261,0.25-0.433,0.25
	c-0.085,0-0.171-0.021-0.25-0.067l-0.98-0.565l-2.137,1.232c-0.077,0.044-0.164,0.066-0.25,0.066s-0.173-0.022-0.25-0.067
	l-2.384-1.376c-0.154-0.089-0.25-0.254-0.25-0.433l-0.001-2.467l-2.281-1.317l-4.113-0.446L340,277.04v2.638l2.135,1.232
	c0.154,0.089,0.25,0.254,0.25,0.433l0.001,2.754c0,0.179-0.096,0.344-0.25,0.434l-2.136,1.23v1.134c0,0.276-0.224,0.5-0.5,0.5
	s-0.5-0.224-0.5-0.5v-1.135l-2.136-1.231c-0.154-0.09-0.25-0.255-0.25-0.434l0.001-2.753c0-0.179,0.096-0.344,0.25-0.433
	l2.135-1.231v-2.638l-1.668-3.783l-4.113,0.446l-2.281,1.317l0.002,2.465c0,0.179-0.095,0.344-0.25,0.433l-2.387,1.378
	c-0.077,0.045-0.164,0.067-0.25,0.067s-0.173-0.022-0.25-0.067l-2.136-1.232l-0.983,0.567c-0.079,0.046-0.165,0.067-0.25,0.067
	c-0.172,0-0.341-0.09-0.433-0.25c-0.139-0.239-0.057-0.545,0.183-0.683l0.983-0.567l0.001-2.465c0-0.179,0.096-0.344,0.25-0.433
	l2.387-1.378c0.154-0.09,0.346-0.09,0.5,0l2.133,1.232l2.281-1.317l2.443-3.338l-2.443-3.339l-2.28-1.316l-2.136,1.233
	c-0.077,0.045-0.164,0.067-0.25,0.067s-0.173-0.022-0.25-0.067l-2.385-1.377c-0.155-0.089-0.25-0.254-0.25-0.433l0.002-2.465
	l-0.984-0.568c-0.239-0.138-0.321-0.443-0.183-0.683c0.138-0.238,0.445-0.321,0.683-0.183l0.983,0.567l2.134-1.233
	c0.153-0.09,0.345-0.09,0.5,0l2.386,1.379c0.155,0.089,0.25,0.254,0.25,0.433l-0.001,2.464l2.281,1.317l4.113,0.446L339,261.96
	v-2.636l-2.137-1.231c-0.154-0.09-0.25-0.255-0.25-0.434l0.002-2.755c0-0.179,0.096-0.344,0.25-0.433l2.135-1.232v-1.134
	c0-0.276,0.224-0.5,0.5-0.5s0.5,0.224,0.5,0.5v1.135l2.135,1.23c0.154,0.09,0.25,0.255,0.25,0.434l-0.002,2.755
	c0,0.179-0.096,0.344-0.25,0.433L340,259.323v2.637l1.668,3.783l4.113-0.446l2.281-1.317l-0.002-2.465
	c0-0.179,0.095-0.344,0.25-0.433l2.387-1.378c0.154-0.09,0.346-0.09,0.5,0l2.136,1.233l0.983-0.568
	c0.238-0.139,0.545-0.057,0.683,0.183c0.139,0.239,0.057,0.545-0.183,0.683l-0.984,0.568v2.465c0,0.179-0.096,0.344-0.25,0.433
	l-2.387,1.378c-0.077,0.045-0.164,0.067-0.25,0.067c-0.087,0-0.173-0.022-0.25-0.067l-2.133-1.233l-2.281,1.317l-2.443,3.338
	l2.443,3.339l2.282,1.317l2.132-1.23c0.154-0.09,0.344-0.089,0.5-0.001l2.388,1.375c0.154,0.09,0.25,0.255,0.25,0.434l-0.002,2.464
	l0.983,0.567C355.054,277.902,355.136,278.208,354.997,278.447z M349.061,261.803l0.002,1.6v0.577l0.499,0.289l1.384,0.8l1.887-1.09
	v-1.599v-0.577l-0.499-0.288l-1.386-0.801L349.061,261.803z M329.938,261.804l-1.886-1.09l-1.385,0.801l-0.498,0.288v0.578
	l-0.002,1.6l1.885,1.088l1.386-0.801l0.499-0.288v-0.577L329.938,261.804z M329.939,277.197l-0.002-1.6v-0.576l-0.5-0.289
	l-1.383-0.8l-1.887,1.09l-0.001,1.598v0.577l0.5,0.289l1.386,0.8L329.939,277.197z M339,258.17l0.5,0.288l0.5-0.289l1.383-0.799
	l0.002-2.177L340,254.395l-0.502-0.289L339,254.394l-1.385,0.8l-0.002,2.177L339,258.17z M340,280.832l-0.5-0.289l-0.5,0.288
	l-1.385,0.8l-0.001,2.175l1.386,0.799l0.501,0.289l0.499-0.287l1.386-0.799l-0.001-2.176L340,280.832z M344.866,272.598
	l-0.731-0.999l-1.537-2.099l1.537-2.099l0.731-0.999l-1.232,0.134l-2.585,0.281L340,264.438l-0.5-1.134l-0.5,1.134l-1.049,2.379
	l-2.585-0.281l-1.232-0.134l0.731,0.999l1.537,2.099l-1.537,2.099l-0.731,0.999l1.232-0.134l2.585-0.281l1.049,2.379l0.5,1.134
	l0.5-1.134l1.049-2.379l2.585,0.281L344.866,272.598z M352.833,275.022l-1.888-1.087l-1.382,0.798l-0.501,0.289v0.575l0.001,1.601
	l1.884,1.088l1.387-0.8l0.497-0.287l0.001-0.579L352.833,275.022z"/>
</svg>
