<?xml version="1.0" encoding="utf-8"?>
<!-- Generator: Adobe Illustrator 16.0.0, SVG Export Plug-In . SVG Version: 6.00 Build 0)  -->
<!DOCTYPE svg PUBLIC "-//W3C//DTD SVG 1.1//EN" "http://www.w3.org/Graphics/SVG/1.1/DTD/svg11.dtd">
<svg version="1.1" id="Layer_1" xmlns="http://www.w3.org/2000/svg" xmlns:xlink="http://www.w3.org/1999/xlink" x="0px" y="0px"
	 width="50px" height="50px" viewBox="104.5 -245.5 50 50" enable-background="new 104.5 -245.5 50 50" xml:space="preserve">
<path style="fill:white" d="M144.5-221.25h-3.289l1.8-1.8c0.293-0.293,0.293-0.768,0-1.061s-0.768-0.293-1.061,0l-2.86,2.86h-1.911l-6.929-6.929v-1.911
	l2.86-2.861c0.293-0.293,0.293-0.768,0-1.061s-0.768-0.293-1.061,0l-1.8,1.799v-3.289c0-0.414-0.336-0.75-0.75-0.75
	s-0.75,0.336-0.75,0.75v3.288l-1.798-1.799c-0.293-0.292-0.768-0.294-1.061,0c-0.293,0.292-0.293,0.768,0,1.061l2.858,2.86v1.911
	l-6.93,6.929h-1.91l-2.86-2.86c-0.293-0.293-0.768-0.293-1.061,0s-0.293,0.768,0,1.061l1.8,1.8H114.5c-0.414,0-0.75,0.336-0.75,0.75
	s0.336,0.75,0.75,0.75h3.289l-1.8,1.799c-0.293,0.292-0.293,0.768,0,1.061c0.146,0.146,0.338,0.22,0.53,0.22
	c0.191,0,0.384-0.073,0.53-0.22l2.86-2.859h1.91l6.93,6.931v1.909l-2.86,2.861c-0.293,0.293-0.293,0.768,0,1.061
	s0.768,0.293,1.061,0l1.8-1.799v3.289c0,0.414,0.336,0.75,0.75,0.75s0.75-0.336,0.75-0.75v-3.288l1.798,1.799
	c0.146,0.146,0.338,0.22,0.53,0.22c0.191,0,0.384-0.073,0.53-0.22c0.293-0.292,0.293-0.768,0-1.061l-2.858-2.86v-1.909l6.931-6.931
	h1.909l2.86,2.86c0.146,0.146,0.338,0.22,0.53,0.22s0.384-0.073,0.53-0.22c0.293-0.293,0.293-0.768,0-1.061l-1.8-1.8h3.289
	c0.414,0,0.75-0.336,0.75-0.75S144.914-221.25,144.5-221.25z M130.25-214.94l-0.75,0.75l-0.75-0.75l-4.809-4.81l-0.75-0.75
	l0.75-0.75l4.809-4.808l0.75-0.75l0.75,0.75l4.808,4.808l0.751,0.751l-0.749,0.749L130.25-214.94z M140.689-215.289
	c0,0.414-0.336,0.75-0.75,0.75h-3.418l3.614,3.614c0.293,0.293,0.293,0.768,0,1.061c-0.146,0.146-0.338,0.22-0.53,0.22
	s-0.384-0.073-0.53-0.22l-3.614-3.614v3.418c0,0.414-0.336,0.75-0.75,0.75s-0.75-0.336-0.75-0.75v-5.229v-0.75h0.75h5.229
	C140.354-216.039,140.689-215.703,140.689-215.289z M134.711-224.96h-0.75v-0.75v-5.229c0-0.414,0.336-0.75,0.75-0.75
	s0.75,0.336,0.75,0.75v3.418l3.614-3.614c0.293-0.293,0.768-0.293,1.061,0s0.293,0.768,0,1.061l-3.614,3.614h3.418
	c0.414,0,0.75,0.336,0.75,0.75s-0.336,0.75-0.75,0.75H134.711z M118.303-225.71c0-0.414,0.336-0.75,0.75-0.75h3.418l-3.614-3.614
	c-0.293-0.293-0.293-0.768,0-1.061s0.768-0.293,1.061,0l3.614,3.614v-3.418c0-0.414,0.336-0.75,0.75-0.75s0.75,0.336,0.75,0.75
	v5.229v0.75h-0.75h-5.229C118.639-224.96,118.303-225.296,118.303-225.71z M124.281-216.039h0.75v0.749v0.003l-0.002,5.228
	c0,0.414-0.336,0.75-0.75,0.75s-0.75-0.336-0.75-0.75l0.002-3.417l-3.614,3.614c-0.146,0.146-0.338,0.22-0.53,0.22
	s-0.384-0.073-0.53-0.22c-0.293-0.293-0.293-0.768,0-1.061l3.614-3.614h-3.418c-0.414,0-0.75-0.336-0.75-0.75s0.336-0.75,0.75-0.75
	H124.281z"/>
</svg>
