<?xml version="1.0" encoding="utf-8"?>
<!-- Generator: Adobe Illustrator 16.0.0, SVG Export Plug-In . SVG Version: 6.00 Build 0)  -->
<!DOCTYPE svg PUBLIC "-//W3C//DTD SVG 1.1//EN" "http://www.w3.org/Graphics/SVG/1.1/DTD/svg11.dtd">
<svg version="1.1" id="Layer_1" xmlns="http://www.w3.org/2000/svg" xmlns:xlink="http://www.w3.org/1999/xlink" x="0px" y="0px"
	 width="50px" height="50px" viewBox="-105.5 -245.5 50 50" enable-background="new -105.5 -245.5 50 50" xml:space="preserve">
<path style="fill:white" d="M-77.323-207.622c0.293,0.293,0.293,0.768,0,1.061s-0.768,0.293-1.061,0l-2.117-2.117l-2.118,2.117
	c-0.146,0.146-0.338,0.22-0.53,0.22s-0.384-0.073-0.53-0.22c-0.293-0.293-0.293-0.768,0-1.061l3.179-3.178L-77.323-207.622z
	 M-80.5-230.199l3.179-3.179c0.293-0.293,0.293-0.768,0-1.061s-0.768-0.293-1.061,0l-2.118,2.118l-2.117-2.117
	c-0.293-0.293-0.768-0.293-1.061,0s-0.293,0.768,0,1.061L-80.5-230.199z M-93.377-223.929c-0.293-0.293-0.768-0.293-1.061,0
	s-0.293,0.768,0,1.061l2.119,2.118l-2.119,2.119c-0.293,0.293-0.293,0.768,0,1.061c0.146,0.146,0.338,0.22,0.53,0.22
	s0.384-0.073,0.53-0.22l3.179-3.18L-93.377-223.929z M-68.681-220.75l2.119-2.119c0.293-0.293,0.293-0.768,0-1.061
	s-0.768-0.293-1.061,0l-3.179,3.18l3.179,3.179c0.146,0.146,0.338,0.22,0.53,0.22s0.384-0.073,0.53-0.22
	c0.293-0.293,0.293-0.768,0-1.061L-68.681-220.75z M-68.394-213.499c0,0.415-0.336,0.75-0.75,0.75l-2.544,0l2.325,2.325
	c0.293,0.293,0.293,0.768,0,1.061c-0.146,0.146-0.338,0.22-0.53,0.22s-0.384-0.073-0.53-0.22l-2.326-2.326v2.545
	c0,0.414-0.336,0.75-0.75,0.75s-0.75-0.336-0.75-0.75v-4.045l-2.566-2.566l-2.63,2.63l3.167,3.167c0.293,0.293,0.293,0.768,0,1.061
	c-0.146,0.146-0.338,0.22-0.53,0.22s-0.384-0.073-0.53-0.22l-3.167-3.167l-3.166,3.167c-0.293,0.293-0.768,0.293-1.061,0
	s-0.293-0.768,0-1.061l3.172-3.173l-2.624-2.624l-2.566,2.566l-0.001,4.045c0,0.415-0.336,0.75-0.75,0.75
	c-0.415,0-0.75-0.336-0.75-0.75l0-2.544l-2.325,2.325c-0.146,0.146-0.338,0.22-0.53,0.22s-0.384-0.073-0.53-0.22
	c-0.293-0.293-0.293-0.768,0-1.061l2.326-2.326h-2.545c-0.414,0-0.75-0.336-0.75-0.75s0.336-0.75,0.75-0.75h4.045l2.566-2.566
	l-2.624-2.624l-3.172,3.172c-0.146,0.146-0.338,0.22-0.53,0.22s-0.384-0.073-0.53-0.22c-0.293-0.293-0.293-0.768,0-1.061
	l3.166-3.166l-3.167-3.167c-0.293-0.293-0.293-0.768,0-1.061s0.768-0.293,1.061,0l3.167,3.167l2.63-2.63l-2.566-2.566l-4.045-0.001
	c-0.415,0-0.75-0.336-0.75-0.75c0-0.415,0.336-0.75,0.75-0.75l2.544,0l-2.325-2.325c-0.293-0.293-0.293-0.768,0-1.061
	s0.768-0.293,1.061,0l2.326,2.326v-2.545c0-0.414,0.336-0.75,0.75-0.75s0.75,0.336,0.75,0.75v4.045l2.566,2.566l2.624-2.624
	l-3.167-3.167c-0.293-0.293-0.293-0.768,0-1.061s0.768-0.293,1.061,0l3.167,3.167l3.167-3.167c0.293-0.293,0.768-0.293,1.061,0
	s0.293,0.768,0,1.061l-3.167,3.167l2.624,2.624l2.566-2.566l0.001-4.045c0-0.415,0.336-0.75,0.75-0.75c0.415,0,0.75,0.336,0.75,0.75
	l0,2.544l2.325-2.325c0.293-0.293,0.768-0.293,1.061,0s0.293,0.768,0,1.061l-2.326,2.326h2.545c0.414,0,0.75,0.336,0.75,0.75
	s-0.336,0.75-0.75,0.75h-4.045l-2.566,2.566l2.624,2.624l3.167-3.167c0.293-0.293,0.768-0.293,1.061,0s0.293,0.768,0,1.061
	l-3.167,3.167l3.167,3.167c0.293,0.293,0.293,0.768,0,1.061c-0.146,0.146-0.338,0.22-0.53,0.22s-0.384-0.073-0.53-0.22l-3.167-3.167
	l-2.624,2.624l2.566,2.566l4.045,0.001C-68.729-214.249-68.394-213.913-68.394-213.499z M-80.5-214.191l2.624-2.624l1.061-1.061
	l2.624-2.624l-2.624-2.624l-1.061-1.061l-2.624-2.624l-2.624,2.624l-1.061,1.061l-2.624,2.624l2.624,2.624l1.061,1.061
	L-80.5-214.191z"/>
</svg>
