<?xml version="1.0" encoding="utf-8"?>
<!-- Generator: Adobe Illustrator 16.0.0, SVG Export Plug-In . SVG Version: 6.00 Build 0)  -->
<!DOCTYPE svg PUBLIC "-//W3C//DTD SVG 1.1//EN" "http://www.w3.org/Graphics/SVG/1.1/DTD/svg11.dtd">
<svg version="1.1" id="Layer_1" xmlns="http://www.w3.org/2000/svg" xmlns:xlink="http://www.w3.org/1999/xlink" x="0px" y="0px"
	 width="50px" height="50px" viewBox="104.5 174.5 50 50" enable-background="new 104.5 174.5 50 50" xml:space="preserve">
<path style="fill:white" d="M145.44,196.412C145.44,196.412,145.44,196.412,145.44,196.412c-1.382,0.021-2.52,1.027-2.759,2.338h-1.021l0.598-1.037
	c0.207-0.359,0.084-0.818-0.274-1.025c-0.36-0.207-0.817-0.082-1.024,0.275l-1.031,1.787h-1.47l1.993-3.451
	c0.207-0.359,0.084-0.818-0.274-1.025c-0.359-0.207-0.818-0.084-1.024,0.275l-2.426,4.201h-0.514
	c-0.213-1.918-1.233-3.592-2.711-4.684l0.261-0.451h4.852c0.414,0,0.75-0.336,0.75-0.75s-0.336-0.75-0.75-0.75h-3.985l0.734-1.271
	h2.063c0.414,0,0.75-0.336,0.75-0.75s-0.336-0.75-0.75-0.75h-1.197l0.52-0.9c0.306,0.107,0.621,0.184,0.946,0.184
	c0.997,0,1.936-0.531,2.449-1.389c0.804-1.348,0.361-3.102-0.986-3.906c-0.441-0.264-0.946-0.402-1.458-0.402
	c-0.998,0-1.936,0.531-2.449,1.387c-0.634,1.062-0.484,2.369,0.261,3.271l-0.581,1.006l-0.6-1.037
	c-0.206-0.357-0.664-0.482-1.024-0.275c-0.358,0.207-0.481,0.666-0.274,1.025l1.032,1.787l-0.734,1.271l-1.992-3.451
	c-0.206-0.357-0.665-0.484-1.024-0.275c-0.358,0.207-0.481,0.666-0.274,1.025l2.426,4.201l-0.259,0.447
	c-0.829-0.365-1.744-0.57-2.707-0.57c-0.962,0-1.876,0.205-2.706,0.568l-0.257-0.445l2.426-4.201
	c0.207-0.359,0.084-0.818-0.274-1.025c-0.36-0.209-0.818-0.082-1.024,0.275l-1.993,3.451l-0.733-1.271l1.03-1.789
	c0.207-0.359,0.084-0.818-0.275-1.023c-0.356-0.209-0.817-0.084-1.023,0.275l-0.599,1.037l-0.543-0.941
	c0.344-0.348,0.604-0.771,0.733-1.258c0.197-0.736,0.096-1.504-0.285-2.162c-0.507-0.879-1.452-1.424-2.469-1.424
	c-0.497,0-0.989,0.131-1.423,0.381c-1.359,0.785-1.827,2.531-1.042,3.891c0.508,0.879,1.454,1.426,2.47,1.426
	c0.244,0,0.486-0.033,0.721-0.096l0.539,0.932h-1.196c-0.001,0-0.001,0-0.001,0c-0.414,0-0.75,0.334-0.75,0.748
	c0,0.416,0.335,0.752,0.749,0.752h2.064l0.733,1.271l-3.982,0.002c-0.414,0-0.75,0.336-0.75,0.75s0.336,0.75,0.75,0.75l4.849-0.002
	l0.261,0.453c-1.478,1.092-2.499,2.766-2.712,4.684h-0.513l-2.427-4.201c-0.207-0.359-0.664-0.482-1.024-0.275
	c-0.358,0.207-0.481,0.666-0.274,1.025l1.993,3.451h-1.47l-1.032-1.787c-0.206-0.357-0.665-0.482-1.024-0.275
	c-0.358,0.207-0.481,0.666-0.274,1.025l0.599,1.037h-1.162c-0.407-1.08-1.452-1.859-2.701-1.859c0,0,0,0-0.001,0
	c-0.76,0.012-1.471,0.318-2.001,0.865c-0.53,0.545-0.815,1.266-0.804,2.025c0.023,1.547,1.302,2.807,2.85,2.807h0.042
	c0.761-0.012,1.472-0.32,2.002-0.865c0.398-0.412,0.658-0.922,0.758-1.473h1.019l-0.598,1.037c-0.207,0.359-0.084,0.816,0.274,1.023
	c0.118,0.068,0.247,0.102,0.374,0.102c0.26,0,0.512-0.135,0.65-0.375l1.031-1.787h1.47l-1.993,3.451
	c-0.207,0.357-0.084,0.816,0.274,1.023c0.118,0.068,0.247,0.102,0.374,0.102c0.26,0,0.512-0.135,0.65-0.375l2.426-4.201h0.513
	c0.213,1.918,1.234,3.592,2.712,4.682l-0.261,0.451h-4.85c-0.414,0-0.75,0.336-0.75,0.75s0.336,0.75,0.75,0.75h3.983l-0.734,1.271
	l-2.063,0.002c-0.414,0-0.75,0.336-0.75,0.75s0.336,0.75,0.75,0.75l1.198-0.002l-0.521,0.902c-0.305-0.109-0.62-0.184-0.945-0.184
	c-0.999,0-1.938,0.531-2.448,1.387c-0.391,0.652-0.503,1.418-0.317,2.156c0.187,0.738,0.648,1.359,1.301,1.75
	c0.441,0.264,0.946,0.404,1.459,0.404c0.998,0,1.936-0.531,2.447-1.387c0.391-0.654,0.504-1.42,0.317-2.16
	c-0.105-0.418-0.308-0.791-0.574-1.113l0.58-1.006l0.6,1.039c0.139,0.24,0.391,0.375,0.65,0.375c0.127,0,0.256-0.033,0.374-0.102
	c0.358-0.207,0.481-0.666,0.274-1.023l-1.032-1.789l0.734-1.271l1.992,3.451c0.139,0.24,0.391,0.375,0.65,0.375
	c0.127,0,0.256-0.031,0.374-0.1c0.358-0.207,0.481-0.666,0.274-1.025l-2.426-4.201l0.258-0.445c0.829,0.365,1.743,0.57,2.706,0.57
	s1.878-0.207,2.708-0.57l0.258,0.447l-2.425,4.199c-0.207,0.357-0.084,0.816,0.274,1.023c0.118,0.068,0.247,0.102,0.374,0.102
	c0.26,0,0.512-0.135,0.65-0.375l1.991-3.451l0.735,1.273l-1.031,1.785c-0.207,0.359-0.084,0.818,0.274,1.025
	c0.118,0.068,0.247,0.1,0.374,0.1c0.26,0,0.512-0.135,0.65-0.375l0.598-1.035l0.544,0.939c-0.88,0.891-1.106,2.285-0.451,3.422
	c0.508,0.879,1.453,1.424,2.469,1.424c0.497,0,0.989-0.133,1.422-0.383c0.658-0.379,1.13-0.994,1.327-1.729
	c0.197-0.736,0.097-1.504-0.284-2.162c-0.507-0.879-1.453-1.424-2.469-1.424c-0.243,0-0.485,0.033-0.72,0.094l-0.539-0.934
	l1.197,0.002c0.001,0,0.001,0,0.001,0c0.414,0,0.75-0.336,0.75-0.75s-0.335-0.75-0.749-0.75l-2.065-0.002l-0.734-1.271h3.985
	c0.414,0,0.75-0.336,0.75-0.75s-0.336-0.75-0.75-0.75h-4.852l-0.261-0.451c1.478-1.092,2.498-2.764,2.711-4.682h0.514l2.426,4.201
	c0.139,0.24,0.391,0.375,0.65,0.375c0.127,0,0.256-0.033,0.374-0.102c0.358-0.207,0.481-0.666,0.274-1.023l-1.993-3.451h1.471
	l1.032,1.787c0.139,0.24,0.391,0.375,0.65,0.375c0.127,0,0.256-0.033,0.374-0.102c0.358-0.207,0.481-0.666,0.274-1.023l-0.599-1.037
	h1.161c0.407,1.08,1.445,1.859,2.66,1.859h0.042c1.57-0.025,2.828-1.322,2.805-2.891
	C148.308,197.672,147.032,196.412,145.44,196.412z M136.54,185.086c0.174-0.291,0.444-0.492,0.757-0.59
	c0.129-0.039,0.264-0.066,0.404-0.066c0.241,0,0.479,0.064,0.688,0.189c0.15,0.09,0.271,0.209,0.372,0.34
	c0.327,0.426,0.387,1.023,0.096,1.51c-0.275,0.461-0.818,0.699-1.336,0.639c-0.179-0.021-0.354-0.076-0.515-0.172
	c-0.331-0.197-0.54-0.518-0.618-0.867C136.316,185.744,136.356,185.393,136.54,185.086z M120.341,186.33
	c-0.229-0.398-0.21-0.855-0.026-1.242c0.113-0.24,0.274-0.457,0.52-0.6c0.205-0.117,0.438-0.18,0.673-0.18
	c0.033,0,0.064,0.01,0.097,0.012c0.443,0.033,0.85,0.273,1.073,0.662c0.181,0.312,0.229,0.676,0.135,1.023
	c-0.021,0.082-0.073,0.146-0.108,0.221c-0.116,0.244-0.28,0.461-0.52,0.598c-0.242,0.141-0.517,0.166-0.786,0.139
	C120.971,186.922,120.562,186.709,120.341,186.33z M112.276,200.25c-0.063-0.152-0.104-0.318-0.106-0.492
	c-0.006-0.359,0.129-0.699,0.38-0.957c0.021-0.021,0.052-0.031,0.074-0.051c0.242-0.219,0.546-0.354,0.895-0.359
	c0.348,0,0.66,0.141,0.9,0.359c0.267,0.242,0.442,0.582,0.448,0.969c0.003,0.186-0.034,0.363-0.104,0.531
	c-0.064,0.156-0.156,0.303-0.277,0.428c-0.251,0.258-0.588,0.404-0.947,0.41l-0.02,0.746v-0.746
	C112.961,201.088,112.48,200.738,112.276,200.25z M122.46,213.914c-0.168,0.279-0.44,0.465-0.741,0.562
	c-0.361,0.119-0.767,0.105-1.107-0.098c-0.147-0.09-0.271-0.205-0.373-0.338c-0.112-0.145-0.197-0.309-0.243-0.492
	c-0.088-0.348-0.035-0.711,0.15-1.02c0.245-0.412,0.679-0.656,1.16-0.656c0.059,0,0.114,0.016,0.172,0.023
	c0.182,0.023,0.358,0.072,0.517,0.166c0.31,0.184,0.528,0.479,0.616,0.828c0.003,0.014-0.001,0.025,0.002,0.039
	C122.688,213.268,122.638,213.615,122.46,213.914z M137.588,212.006c0.442,0.035,0.848,0.275,1.071,0.662
	c0.18,0.311,0.228,0.676,0.135,1.023c-0.021,0.08-0.072,0.145-0.107,0.219c-0.116,0.244-0.281,0.463-0.522,0.6
	c-0.24,0.141-0.513,0.168-0.781,0.143c-0.428-0.041-0.84-0.254-1.06-0.635c-0.229-0.4-0.21-0.859-0.025-1.246
	c0.113-0.238,0.273-0.455,0.519-0.598c0.205-0.117,0.438-0.18,0.673-0.18C137.523,211.994,137.555,212.004,137.588,212.006z
	 M137.48,215.438c0.24,0,0.482-0.039,0.717-0.123l0,0C137.964,215.398,137.721,215.439,137.48,215.438z M134.758,199.5
	c0,0.256-0.04,0.502-0.076,0.75c-0.196,1.361-0.91,2.543-1.941,3.359c-0.394,0.311-0.819,0.574-1.291,0.764
	c-0.604,0.242-1.26,0.385-1.949,0.385s-1.344-0.143-1.947-0.385c-0.472-0.188-0.898-0.453-1.291-0.764
	c-1.033-0.814-1.747-1.998-1.943-3.359c-0.036-0.248-0.076-0.494-0.076-0.75c0-0.258,0.04-0.504,0.076-0.75
	c0.196-1.361,0.91-2.545,1.943-3.361c0.393-0.311,0.82-0.574,1.291-0.764c0.604-0.242,1.258-0.383,1.947-0.383
	s1.345,0.141,1.948,0.383c0.472,0.189,0.898,0.455,1.291,0.766c1.032,0.814,1.746,1.998,1.942,3.359
	C134.718,198.996,134.758,199.242,134.758,199.5z M145.451,197.162c1.146-0.018,2.088,0.889,2.125,2.029l-0.002-0.002
	C147.529,198.047,146.592,197.145,145.451,197.162c-0.969,0.016-1.764,0.689-1.993,1.588h-0.003
	C143.682,197.852,144.479,197.178,145.451,197.162z M144.581,200.25c-0.267-0.244-0.441-0.584-0.447-0.969
	c-0.003-0.186,0.034-0.361,0.099-0.523h0.003c0.2-0.484,0.678-0.834,1.25-0.842c0.558,0,1.036,0.35,1.238,0.842h0.002
	c0.062,0.15,0.102,0.312,0.104,0.482c0.006,0.4-0.166,0.758-0.439,1.01c-0.235,0.217-0.544,0.354-0.888,0.359l-0.02,0.748v-0.748
	C145.136,200.609,144.822,200.469,144.581,200.25z"/>
</svg>
