<?xml version="1.0" encoding="utf-8"?>
<!-- Generator: Adobe Illustrator 16.0.0, SVG Export Plug-In . SVG Version: 6.00 Build 0)  -->
<!DOCTYPE svg PUBLIC "-//W3C//DTD SVG 1.1//EN" "http://www.w3.org/Graphics/SVG/1.1/DTD/svg11.dtd">
<svg version="1.1" id="Layer_1" xmlns="http://www.w3.org/2000/svg" xmlns:xlink="http://www.w3.org/1999/xlink" x="0px" y="0px"
	 width="50px" height="50px" viewBox="314.5 34.5 50 50" enable-background="new 314.5 34.5 50 50" xml:space="preserve">
<path style="fill:white" d="M355,59.5c0-0.276-0.224-0.5-0.5-0.5h-1.248l1.602-1.602c0.195-0.195,0.195-0.512,0-0.707s-0.512-0.195-0.707,0L351.838,59
	h-5.426c-0.246-3.426-2.986-6.166-6.412-6.412v-5.427l2.305-2.308c0.195-0.195,0.195-0.513,0-0.707
	c-0.195-0.195-0.512-0.195-0.707,0L340,45.747V44.5c0-0.276-0.224-0.5-0.5-0.5s-0.5,0.224-0.5,0.5v1.248l-1.602-1.602
	c-0.195-0.195-0.512-0.195-0.707,0s-0.195,0.512,0,0.707L339,47.162v5.426c-3.426,0.246-6.166,2.986-6.412,6.412h-5.428
	l-2.307-2.306c-0.195-0.195-0.512-0.195-0.707,0s-0.195,0.512,0,0.707l1.6,1.599H324.5c-0.276,0-0.5,0.224-0.5,0.5
	s0.224,0.5,0.5,0.5h1.246l-1.6,1.602c-0.195,0.195-0.195,0.512,0,0.707c0.098,0.098,0.226,0.146,0.354,0.146
	s0.256-0.049,0.354-0.146L327.16,60h5.428c0.246,3.426,2.986,6.166,6.412,6.412v5.426l-2.307,2.309
	c-0.195,0.195-0.195,0.512,0,0.707s0.512,0.195,0.707,0l1.6-1.602V74.5c0,0.276,0.224,0.5,0.5,0.5s0.5-0.224,0.5-0.5v-1.248
	l1.6,1.602c0.098,0.098,0.226,0.146,0.354,0.146s0.256-0.049,0.354-0.146c0.195-0.195,0.195-0.512,0-0.707L340,71.838v-5.426
	c3.426-0.246,6.166-2.986,6.412-6.412h5.427l2.308,2.306c0.098,0.098,0.226,0.146,0.354,0.146s0.256-0.049,0.354-0.146
	c0.195-0.195,0.195-0.512,0-0.707L353.253,60h1.247C354.776,60,355,59.776,355,59.5z M345.412,60
	c-0.241,2.875-2.537,5.171-5.412,5.412c-0.165,0.014-0.331,0.025-0.5,0.025s-0.335-0.012-0.5-0.025
	c-2.875-0.241-5.171-2.537-5.412-5.412c-0.014-0.165-0.025-0.331-0.025-0.5s0.012-0.335,0.025-0.5
	c0.241-2.875,2.537-5.171,5.412-5.412c0.165-0.014,0.331-0.025,0.5-0.025s0.335,0.012,0.5,0.025
	c2.875,0.241,5.171,2.537,5.412,5.412c0.014,0.165,0.025,0.331,0.025,0.5S345.426,59.835,345.412,60z M331.02,65.097l2.885-0.001
	v0.505v0.003l-0.002,2.378c0,0.276-0.224,0.5-0.5,0.5s-0.5-0.225-0.5-0.5l0.001-1.2l-3.779,3.684
	c-0.097,0.095-0.223,0.142-0.349,0.142c-0.13,0-0.26-0.051-0.358-0.151c-0.192-0.197-0.188-0.514,0.01-0.707l3.748-3.652
	l-1.155,0.001c-0.276,0-0.5-0.224-0.5-0.5S330.743,65.097,331.02,65.097z M347.98,53.903l-2.885,0.001v-2.886
	c0-0.276,0.224-0.5,0.5-0.5s0.5,0.224,0.5,0.5v1.155l3.78-3.64c0.198-0.189,0.515-0.185,0.707,0.014
	c0.191,0.199,0.186,0.516-0.014,0.707l-3.79,3.649l1.201-0.001c0.276,0,0.5,0.224,0.5,0.5S348.257,53.903,347.98,53.903z
	 M328.429,49.255c-0.199-0.191-0.205-0.508-0.014-0.707c0.193-0.198,0.51-0.203,0.707-0.014l3.78,3.64V51.02
	c0-0.276,0.224-0.5,0.5-0.5s0.5,0.224,0.5,0.5v2.884l-2.885,0.001c-0.276,0-0.5-0.224-0.5-0.5s0.224-0.5,0.5-0.5l1.201-0.001
	L328.429,49.255z M350.573,69.748c0.198,0.193,0.202,0.51,0.01,0.707c-0.099,0.101-0.229,0.151-0.358,0.151
	c-0.126,0-0.252-0.047-0.349-0.142l-3.78-3.683v1.198c0,0.276-0.224,0.5-0.5,0.5s-0.5-0.224-0.5-0.5v-2.377v-0.507l2.887-0.001
	c0.276,0,0.5,0.224,0.5,0.5s-0.224,0.5-0.5,0.5l-1.157,0.001L350.573,69.748z M340,54.854c-0.166-0.019-0.329-0.051-0.5-0.051
	s-0.334,0.032-0.5,0.051c-2.186,0.235-3.91,1.96-4.146,4.146c-0.019,0.166-0.051,0.329-0.051,0.5s0.032,0.334,0.051,0.5
	c0.235,2.186,1.96,3.91,4.146,4.146c0.166,0.019,0.329,0.051,0.5,0.051s0.334-0.032,0.5-0.051c2.186-0.235,3.91-1.96,4.146-4.146
	c0.019-0.166,0.051-0.329,0.051-0.5s-0.032-0.334-0.051-0.5C343.91,56.814,342.186,55.09,340,54.854z M343.146,60
	c-0.224,1.635-1.511,2.922-3.146,3.146c-0.165,0.022-0.329,0.051-0.5,0.051s-0.335-0.028-0.5-0.051
	c-1.635-0.224-2.922-1.511-3.146-3.146c-0.022-0.165-0.051-0.329-0.051-0.5s0.028-0.335,0.051-0.5
	c0.224-1.635,1.511-2.922,3.146-3.146c0.165-0.022,0.329-0.051,0.5-0.051s0.335,0.028,0.5,0.051
	c1.635,0.224,2.922,1.511,3.146,3.146c0.022,0.165,0.051,0.329,0.051,0.5S343.168,59.835,343.146,60z"/>
</svg>
