<?xml version="1.0" encoding="utf-8"?>
<!-- Generator: Adobe Illustrator 16.0.0, SVG Export Plug-In . SVG Version: 6.00 Build 0)  -->
<!DOCTYPE svg PUBLIC "-//W3C//DTD SVG 1.1//EN" "http://www.w3.org/Graphics/SVG/1.1/DTD/svg11.dtd">
<svg version="1.1" id="Layer_1" xmlns="http://www.w3.org/2000/svg" xmlns:xlink="http://www.w3.org/1999/xlink" x="0px" y="0px"
	 width="50px" height="50px" viewBox="104.5 104.5 50 50" enable-background="new 104.5 104.5 50 50" xml:space="preserve">
<path style="fill:white" d="M143.794,128.747h-5.111l2.417-2.417c0.293-0.293,0.293-0.768,0-1.061s-0.768-0.293-1.061,0l-3.697,3.697l-0.105,0.105
	c-0.09-1.427-0.62-2.734-1.462-3.786l2.039-2.039h4.046c0.414,0,0.75-0.336,0.75-0.75s-0.336-0.75-0.75-0.75h-2.546l2.326-2.326
	c0.293-0.293,0.293-0.768,0-1.061s-0.768-0.293-1.061,0l-2.325,2.325v-2.544c0-0.414-0.336-0.75-0.75-0.75s-0.75,0.336-0.75,0.75
	v4.044l-2.04,2.04c-1.052-0.842-2.358-1.371-3.785-1.462l0.105-0.105l3.696-3.696c0.293-0.293,0.293-0.768,0-1.061
	s-0.768-0.293-1.061,0l-2.416,2.416v-5.111c0-0.414-0.336-0.75-0.75-0.75s-0.75,0.336-0.75,0.75v5.111l-2.417-2.417
	c-0.293-0.293-0.768-0.293-1.061,0s-0.293,0.768,0,1.061l3.697,3.697l0.105,0.105c-1.428,0.089-2.737,0.617-3.79,1.459l-2.037-2.037
	v-4.045c0-0.414-0.336-0.75-0.75-0.75s-0.75,0.336-0.75,0.75v2.545l-2.325-2.325c-0.293-0.293-0.768-0.293-1.061,0
	s-0.293,0.768,0,1.061l2.325,2.325l-2.544-0.001c-0.414,0-0.75,0.336-0.75,0.75s0.335,0.75,0.75,0.75l4.045,0.002l2.036,2.036
	c-0.846,1.054-1.376,2.365-1.465,3.796l-0.105-0.105l-3.697-3.697c-0.293-0.293-0.768-0.293-1.061,0s-0.293,0.768,0,1.061
	l2.417,2.417h-5.111c-0.414,0-0.75,0.336-0.75,0.75s0.336,0.75,0.75,0.75h5.111l-2.416,2.416c-0.293,0.293-0.293,0.768,0,1.061
	c0.146,0.146,0.338,0.22,0.53,0.22s0.384-0.073,0.53-0.22l3.696-3.696l0.105-0.105c0.091,1.427,0.62,2.733,1.462,3.785l-2.033,2.033
	h-4.046c-0.414,0-0.75,0.336-0.75,0.75s0.336,0.75,0.75,0.75h2.546l-2.326,2.326c-0.293,0.293-0.293,0.768,0,1.061
	c0.146,0.146,0.338,0.22,0.53,0.22s0.384-0.073,0.53-0.22l2.325-2.325v2.544c0,0.414,0.336,0.75,0.75,0.75s0.75-0.336,0.75-0.75
	v-4.044l2.034-2.034c1.052,0.842,2.359,1.372,3.786,1.462l-0.105,0.105l-3.696,3.697c-0.293,0.293-0.293,0.768,0,1.061
	s0.768,0.293,1.061,0l2.416-2.417v5.111c0,0.414,0.336,0.75,0.75,0.75s0.75-0.336,0.75-0.75v-5.111l2.416,2.417
	c0.146,0.146,0.338,0.22,0.53,0.22s0.384-0.073,0.53-0.22c0.293-0.293,0.293-0.768,0-1.061l-3.696-3.697l-0.105-0.105
	c1.431-0.089,2.741-0.62,3.795-1.465l2.037,2.037v4.045c0,0.414,0.336,0.75,0.75,0.75s0.75-0.336,0.75-0.75v-2.545l2.325,2.325
	c0.146,0.146,0.338,0.22,0.53,0.22s0.384-0.073,0.53-0.22c0.293-0.293,0.293-0.768,0-1.061l-2.325-2.325l2.544,0.001
	c0.414,0,0.75-0.336,0.75-0.75s-0.335-0.75-0.75-0.75l-4.045-0.002l-2.036-2.036c0.841-1.053,1.37-2.361,1.459-3.789l0.105,0.105
	l3.697,3.697c0.146,0.146,0.338,0.22,0.53,0.22s0.384-0.073,0.53-0.22c0.293-0.293,0.293-0.768,0-1.061l-2.417-2.417h5.111
	c0.414,0,0.75-0.336,0.75-0.75S144.208,128.747,143.794,128.747z M132.639,133.693c-0.879,0.659-1.958,1.064-3.139,1.064
	c-1.18,0-2.257-0.404-3.135-1.062c-0.403-0.302-0.759-0.657-1.061-1.061c-0.658-0.878-1.062-1.955-1.062-3.135
	c0-1.181,0.405-2.26,1.064-3.139c0.303-0.402,0.658-0.758,1.062-1.06c0.877-0.656,1.954-1.06,3.132-1.06
	c1.18,0,2.257,0.404,3.135,1.062c0.403,0.302,0.759,0.657,1.061,1.061c0.658,0.878,1.062,1.955,1.062,3.135
	c0,1.178-0.403,2.255-1.06,3.132C133.396,133.035,133.041,133.391,132.639,133.693z"/>
</svg>
