<?xml version="1.0" encoding="utf-8"?>
<!-- Generator: Adobe Illustrator 16.0.0, SVG Export Plug-In . SVG Version: 6.00 Build 0)  -->
<!DOCTYPE svg PUBLIC "-//W3C//DTD SVG 1.1//EN" "http://www.w3.org/Graphics/SVG/1.1/DTD/svg11.dtd">
<svg version="1.1" id="Layer_1" xmlns="http://www.w3.org/2000/svg" xmlns:xlink="http://www.w3.org/1999/xlink" x="0px" y="0px"
	 width="50px" height="50px" viewBox="174.5 -35.5 50 50" enable-background="new 174.5 -35.5 50 50" xml:space="preserve">
<path style="fill:white" d="M215.894-3.681c0-0.178-0.096-0.343-0.25-0.432l-2.041-1.18c-0.154-0.089-0.346-0.089-0.5,0l-1.791,1.035l-1.405-0.812
	l1.412-0.815c0.239-0.138,0.321-0.444,0.183-0.683c-0.138-0.24-0.444-0.321-0.683-0.183l-1.912,1.104l-1.771-1.023l3.825-2.208
	c0.239-0.138,0.321-0.444,0.183-0.683c-0.138-0.24-0.444-0.321-0.683-0.183l-4.267,2.463l-2.355-3.219l2.355-3.218l4.268,2.463
	c0.079,0.045,0.165,0.067,0.25,0.067c0.172,0,0.341-0.09,0.433-0.25c0.139-0.239,0.057-0.545-0.183-0.683l-3.827-2.209l1.772-1.023
	l1.912,1.104c0.079,0.045,0.165,0.067,0.25,0.067c0.172,0,0.341-0.089,0.433-0.25c0.139-0.239,0.057-0.545-0.183-0.683l-1.412-0.815
	l1.403-0.81l1.791,1.033c0.077,0.044,0.164,0.067,0.25,0.067s0.173-0.022,0.25-0.067l2.043-1.177c0.154-0.089,0.25-0.254,0.25-0.433
	l-0.002-1.252l0.002-1.106c0-0.179-0.095-0.345-0.25-0.434l-2.043-1.177c-0.156-0.089-0.346-0.089-0.5,0l-2.04,1.177
	c-0.155,0.089-0.251,0.254-0.251,0.434v2.07l-1.403,0.81v-1.631c0-0.276-0.224-0.5-0.5-0.5s-0.5,0.224-0.5,0.5v2.208l-1.771,1.022
	v-4.417c0-0.276-0.224-0.5-0.5-0.5s-0.5,0.224-0.5,0.5v4.926l-3.967,0.432l-1.608-3.649l4.268-2.464
	c0.239-0.138,0.321-0.444,0.183-0.683c-0.138-0.241-0.444-0.321-0.683-0.183L200-19.025v-2.046l1.913-1.105
	c0.239-0.138,0.321-0.444,0.183-0.683c-0.139-0.241-0.447-0.322-0.683-0.183L200-22.227v-1.624l1.791-1.033
	c0.154-0.089,0.25-0.254,0.25-0.433v-2.357c0-0.178-0.095-0.343-0.249-0.433l-2.042-1.18c-0.154-0.089-0.346-0.089-0.5,0
	l-2.043,1.18c-0.154,0.089-0.249,0.254-0.249,0.433v2.357c0,0.179,0.096,0.344,0.25,0.433L199-23.851v1.622l-1.41-0.814
	c-0.238-0.137-0.544-0.057-0.683,0.183c-0.139,0.239-0.057,0.545,0.183,0.683l1.91,1.104v2.046l-3.824-2.208
	c-0.239-0.136-0.546-0.056-0.683,0.183c-0.139,0.239-0.057,0.545,0.183,0.683l4.266,2.462l-1.609,3.651l-3.966-0.432l-0.001-4.926
	c0-0.276-0.224-0.5-0.5-0.5s-0.5,0.224-0.5,0.5l0.001,4.417l-1.773-1.023v-2.208c0-0.276-0.224-0.5-0.5-0.5s-0.5,0.224-0.5,0.5v1.63
	l-1.404-0.811l0.002-0.966l-0.002-1.104c0-0.178-0.096-0.343-0.25-0.432l-2.041-1.177c-0.154-0.089-0.345-0.089-0.499,0
	l-2.042,1.178c-0.154,0.089-0.25,0.254-0.25,0.433v2.357c0,0.179,0.096,0.344,0.25,0.433l2.041,1.18
	c0.077,0.044,0.164,0.067,0.25,0.067s0.173-0.022,0.25-0.067l1.791-1.035l1.405,0.812l-1.412,0.816
	c-0.239,0.138-0.321,0.444-0.183,0.683c0.093,0.161,0.261,0.25,0.433,0.25c0.085,0,0.171-0.021,0.25-0.067l1.912-1.104l1.773,1.023
	l-3.827,2.209c-0.239,0.138-0.321,0.444-0.183,0.683c0.092,0.161,0.261,0.25,0.433,0.25c0.085,0,0.171-0.021,0.25-0.067l4.267-2.463
	l2.355,3.218l-2.355,3.219l-4.266-2.463c-0.239-0.136-0.545-0.057-0.683,0.183c-0.139,0.239-0.057,0.545,0.183,0.683l3.825,2.208
	l-1.772,1.023l-1.912-1.104c-0.238-0.136-0.545-0.056-0.683,0.183c-0.139,0.239-0.057,0.545,0.183,0.683l1.412,0.815l-1.406,0.812
	l-1.793-1.034c-0.154-0.089-0.345-0.088-0.499,0l-2.038,1.177c-0.155,0.089-0.251,0.254-0.251,0.432l-0.002,1.111l0.002,0.142
	l-0.002,1.104c0,0.179,0.095,0.345,0.25,0.434l2.043,1.179c0.077,0.044,0.164,0.067,0.25,0.067s0.173-0.022,0.25-0.067l2.04-1.179
	c0.154-0.089,0.25-0.254,0.25-0.433l-0.001-1.253l0.001-0.815l1.407-0.813v1.632c0,0.276,0.224,0.5,0.5,0.5s0.5-0.224,0.5-0.5
	v-2.209l1.771-1.022v4.418c0,0.276,0.224,0.5,0.5,0.5s0.5-0.224,0.5-0.5v-4.927l3.966-0.432l1.609,3.651l-4.266,2.462
	c-0.239,0.138-0.321,0.444-0.183,0.683c0.092,0.161,0.261,0.25,0.433,0.25c0.085,0,0.171-0.021,0.25-0.067L199-1.973v2.046
	l-1.91,1.104c-0.239,0.138-0.321,0.444-0.183,0.683c0.138,0.24,0.443,0.319,0.683,0.183L199,1.229v1.622l-1.792,1.033
	c-0.154,0.089-0.25,0.254-0.25,0.433v2.357c0,0.178,0.095,0.343,0.249,0.433l2.043,1.18c0.077,0.044,0.164,0.067,0.25,0.067
	s0.173-0.022,0.25-0.067l2.042-1.18c0.154-0.089,0.249-0.254,0.249-0.433V4.317c0-0.179-0.096-0.344-0.25-0.433L200,2.851V1.227
	l1.413,0.816c0.078,0.045,0.165,0.067,0.25,0.067c0.172,0,0.34-0.089,0.433-0.25c0.139-0.239,0.057-0.545-0.183-0.683L200,0.071
	v-2.046l3.827,2.21c0.239,0.138,0.545,0.057,0.683-0.183c0.139-0.239,0.057-0.545-0.183-0.683l-4.268-2.464l1.608-3.649l3.966,0.432
	v4.927c0,0.276,0.224,0.5,0.5,0.5s0.5-0.224,0.5-0.5v-4.418l1.772,1.023v2.209c0,0.276,0.224,0.5,0.5,0.5s0.5-0.224,0.5-0.5v-1.631
	l1.405,0.811v2.069c0,0.179,0.096,0.344,0.25,0.433l2.041,1.179c0.077,0.044,0.164,0.067,0.25,0.067s0.173-0.022,0.25-0.067
	l2.041-1.179c0.154-0.089,0.25-0.254,0.25-0.433l0.002-1.254L215.894-3.681z M211.81-18.184v-1.203l1.541-0.89l1.063,0.613
	l0.479,0.276v0.555l0.001,1.228l-1.543,0.889l-1.041-0.601l-0.5-0.289V-18.184z M184.106-18.834v-0.554l0.479-0.276l1.062-0.613
	l1.543,0.889l-0.001,1.203v0.577l-0.5,0.289l-1.041,0.602l-1.541-0.891V-18.834z M187.188-1.612l-1.54,0.891l-1.072-0.619
	l-0.47-0.271l0.001-0.554v-0.268l-0.002-0.142l0.001-0.815l1.541-0.89l1.041,0.6l0.5,0.289v0.578V-1.612z M200-5.438l-0.5,1.134
	L199-5.438l-1.049-2.379l-2.585,0.281l-1.232,0.134l0.732-1l1.536-2.098l-1.536-2.098l-0.732-1l1.232,0.134l2.585,0.281L199-15.562
	l0.5-1.134l0.5,1.134l1.049,2.379l2.585-0.281l1.232-0.134l-0.732,1l-1.536,2.098l1.536,2.098l0.732,1l-1.232-0.134l-2.585-0.281
	L200-5.438z M197.958-27.386l1.062-0.613l0.479-0.277l0.479,0.277l1.062,0.613v1.78L200-25.005l-0.5,0.288l-0.5-0.288l-1.042-0.601
	V-27.386z M201.041,6.386l-1.062,0.613L199.5,7.276l-0.479-0.277l-1.062-0.613v-1.78L199,4.005l0.5-0.288l0.5,0.288l1.041,0.601
	V6.386z M211.812-2.577v-0.237l-0.001-0.577l0.5-0.289l1.041-0.602l1.542,0.892l-0.001,1.225v0.554l-0.47,0.271l-1.071,0.619
	l-1.541-0.891L211.812-2.577z"/>
</svg>
