<?xml version="1.0" encoding="utf-8"?>
<!-- Generator: Adobe Illustrator 16.0.0, SVG Export Plug-In . SVG Version: 6.00 Build 0)  -->
<!DOCTYPE svg PUBLIC "-//W3C//DTD SVG 1.1//EN" "http://www.w3.org/Graphics/SVG/1.1/DTD/svg11.dtd">
<svg version="1.1" id="Layer_1" xmlns="http://www.w3.org/2000/svg" xmlns:xlink="http://www.w3.org/1999/xlink" x="0px" y="0px"
	 width="50px" height="50px" viewBox="-315.5 244.5 50 50" enable-background="new -315.5 244.5 50 50" xml:space="preserve">
<path style="fill:white" d="M-277.476,274.406c0.195,0.195,0.195,0.512,0,0.707c-0.098,0.098-0.226,0.146-0.354,0.146s-0.256-0.049-0.354-0.146
	l-5.613-5.613l5.613-5.613c0.195-0.195,0.512-0.195,0.707,0s0.195,0.512,0,0.707l-4.906,4.906L-277.476,274.406z M-302.817,263.887
	c-0.195-0.195-0.512-0.195-0.707,0s-0.195,0.512,0,0.707l4.906,4.906l-4.906,4.906c-0.195,0.195-0.195,0.512,0,0.707
	c0.098,0.098,0.226,0.146,0.354,0.146s0.256-0.049,0.354-0.146l5.613-5.613L-302.817,263.887z M-290.5,276.492l-5.817,5.818
	c-0.195,0.195-0.195,0.512,0,0.707s0.512,0.195,0.707,0l5.11-5.111l5.11,5.111c0.098,0.098,0.226,0.146,0.354,0.146
	s0.256-0.049,0.354-0.146c0.195-0.195,0.195-0.512,0-0.707L-290.5,276.492z M-290.5,262.508l5.817-5.818
	c0.195-0.195,0.195-0.512,0-0.707s-0.512-0.195-0.707,0l-5.11,5.111l-5.11-5.111c-0.195-0.195-0.512-0.195-0.707,0
	s-0.195,0.512,0,0.707L-290.5,262.508z M-278.714,275.643c0.195,0.195,0.195,0.512,0,0.707s-0.512,0.195-0.707,0l-4.6-4.6h-2.002
	l-0.76,0.76l7.243,7.243c0.195,0.195,0.195,0.512,0,0.707c-0.098,0.098-0.226,0.146-0.354,0.146s-0.256-0.049-0.354-0.146
	l-7.243-7.243l-0.76,0.76v2.291l4.805,4.806c0.195,0.195,0.195,0.512,0,0.707c-0.098,0.098-0.226,0.146-0.354,0.146
	s-0.256-0.049-0.354-0.146l-5.098-5.099v-3.119l1.053-1.053l-0.354-0.354l-1.949,1.949l-1.949-1.949l-0.354,0.354l1.053,1.053v3.119
	l-5.098,5.098c-0.098,0.098-0.226,0.146-0.354,0.146s-0.256-0.049-0.354-0.146c-0.195-0.195-0.195-0.512,0-0.707l4.805-4.805v-2.291
	l-0.76-0.76l-7.243,7.243c-0.098,0.098-0.226,0.146-0.354,0.146s-0.256-0.049-0.354-0.146c-0.195-0.195-0.195-0.512,0-0.707
	l7.243-7.243l-0.76-0.76h-2.002l-4.6,4.6c-0.195,0.195-0.512,0.195-0.707,0s-0.195-0.512,0-0.707l4.893-4.893h2.83l1.053,1.053
	l0.354-0.354l-1.95-1.949l1.95-1.949l-0.354-0.354l-1.053,1.053h-2.83l-4.893-4.893c-0.195-0.195-0.195-0.512,0-0.707
	s0.512-0.195,0.707,0l4.6,4.6h2.002l0.76-0.76l-7.243-7.243c-0.195-0.195-0.195-0.512,0-0.707s0.512-0.195,0.707,0l7.243,7.243
	l0.76-0.76v-2.291l-4.805-4.806c-0.195-0.195-0.195-0.512,0-0.707s0.512-0.195,0.707,0l5.098,5.099v3.119l-1.053,1.053l0.354,0.354
	l1.949-1.949l1.949,1.949l0.354-0.354l-1.053-1.053v-3.119l5.098-5.099c0.195-0.195,0.512-0.195,0.707,0s0.195,0.512,0,0.707
	l-4.805,4.806v2.291l0.76,0.76l7.243-7.243c0.195-0.195,0.512-0.195,0.707,0s0.195,0.512,0,0.707l-7.243,7.243l0.76,0.76h2.002
	l4.6-4.6c0.195-0.195,0.512-0.195,0.707,0s0.195,0.512,0,0.707l-4.893,4.893h-2.83l-1.053-1.053l-0.354,0.354l1.95,1.949
	l-1.95,1.949l0.354,0.354l1.053-1.053h2.83L-278.714,275.643z M-287.308,269.5l-1.243-1.242l-0.708-0.707l-1.242-1.242l-1.242,1.242
	l-0.708,0.707l-1.243,1.242l1.243,1.242l0.708,0.707l1.242,1.242l1.242-1.242l0.708-0.707L-287.308,269.5z"/>
</svg>
