<?xml version="1.0" encoding="utf-8"?>
<!-- Generator: Adobe Illustrator 16.0.0, SVG Export Plug-In . SVG Version: 6.00 Build 0)  -->
<!DOCTYPE svg PUBLIC "-//W3C//DTD SVG 1.1//EN" "http://www.w3.org/Graphics/SVG/1.1/DTD/svg11.dtd">
<svg version="1.1" id="Layer_1" xmlns="http://www.w3.org/2000/svg" xmlns:xlink="http://www.w3.org/1999/xlink" x="0px" y="0px"
	 width="50px" height="50px" viewBox="-315.5 -245.5 50 50" enable-background="new -315.5 -245.5 50 50" xml:space="preserve">
<path style="fill:white" d="M-275.5-221.25h-6.99l3.118-3.119c0.293-0.293,0.293-0.768,0-1.061s-0.768-0.293-1.061,0l-3.283,3.283l-2.04-2.04
	l6.795-6.794c0.293-0.293,0.293-0.768,0-1.061s-0.768-0.293-1.061,0l-6.795,6.794l-2.159-2.159l3.575-3.575
	c0.293-0.293,0.293-0.768,0-1.061s-0.768-0.293-1.061,0l-3.29,3.29v-6.75c0-0.414-0.336-0.75-0.75-0.75s-0.75,0.336-0.75,0.75v6.75
	l-3.29-3.29c-0.293-0.293-0.768-0.293-1.061,0s-0.293,0.768,0,1.061l3.576,3.576l-2.159,2.159l-6.796-6.795
	c-0.293-0.293-0.768-0.293-1.061,0s-0.293,0.768,0,1.061l6.796,6.795l-2.04,2.04l-3.284-3.284c-0.293-0.293-0.768-0.293-1.061,0
	s-0.293,0.768,0,1.061l3.118,3.119h-6.99c-0.414,0-0.75,0.336-0.75,0.75s0.336,0.75,0.75,0.75h6.99l-3.118,3.119
	c-0.293,0.293-0.293,0.768,0,1.061c0.146,0.146,0.338,0.22,0.53,0.22s0.384-0.073,0.53-0.22l3.283-3.283l2.039,2.04l-6.795,6.794
	c-0.293,0.293-0.293,0.768,0,1.061c0.146,0.146,0.338,0.22,0.53,0.22s0.384-0.073,0.53-0.22l6.795-6.794l2.159,2.159l-3.575,3.575
	c-0.293,0.293-0.293,0.768,0,1.061s0.768,0.293,1.061,0l3.29-3.29v6.75c0,0.414,0.336,0.75,0.75,0.75s0.75-0.336,0.75-0.75v-6.75
	l3.29,3.291c0.146,0.146,0.338,0.22,0.53,0.22s0.384-0.073,0.53-0.22c0.293-0.293,0.293-0.768,0-1.061l-3.576-3.576l2.159-2.159
	l6.796,6.795c0.146,0.146,0.338,0.22,0.53,0.22s0.384-0.073,0.53-0.22c0.293-0.293,0.293-0.768,0-1.061l-6.796-6.795l2.04-2.039
	l3.284,3.284c0.146,0.146,0.338,0.22,0.53,0.22s0.384-0.073,0.53-0.22c0.293-0.293,0.293-0.768,0-1.061l-3.118-3.119h6.99
	c0.414,0,0.75-0.336,0.75-0.75S-275.086-221.25-275.5-221.25z M-290.036-214.657l-0.465,0.465l-0.464-0.464l-0.285-0.285
	l-4.809-4.81l-0.165-0.165l-0.585-0.585l0.585-0.585l0.166-0.165l4.808-4.809l0.285-0.285l0.465-0.465l0.465,0.465l0.285,0.285
	l4.809,4.809l0.165,0.165l0.585,0.584l-0.585,0.585l-0.165,0.165l-4.808,4.808L-290.036-214.657z"/>
</svg>
