<?xml version="1.0" encoding="utf-8"?>
<!-- Generator: Adobe Illustrator 16.0.0, SVG Export Plug-In . SVG Version: 6.00 Build 0)  -->
<!DOCTYPE svg PUBLIC "-//W3C//DTD SVG 1.1//EN" "http://www.w3.org/Graphics/SVG/1.1/DTD/svg11.dtd">
<svg version="1.1" id="Layer_1" xmlns="http://www.w3.org/2000/svg" xmlns:xlink="http://www.w3.org/1999/xlink" x="0px" y="0px"
	 width="50px" height="50px" viewBox="-175.5 174.5 50 50" enable-background="new -175.5 174.5 50 50" xml:space="preserve">
<path style="fill:white" d="M-135.262,205.823c0-0.179-0.096-0.343-0.25-0.432l-1.893-1.094c-0.155-0.09-0.345-0.09-0.5,0l-1.698,0.981l-1.404-0.811
	v-9.809l1.513-0.873l1.587,0.915c0.078,0.045,0.164,0.067,0.25,0.067s0.172-0.022,0.25-0.067l1.895-1.092
	c0.155-0.089,0.25-0.254,0.25-0.433l-0.002-1.161l0.002-1.025c0-0.179-0.095-0.345-0.25-0.434l-1.895-1.093
	c-0.155-0.089-0.345-0.088-0.5,0.001l-1.891,1.091c-0.155,0.089-0.251,0.255-0.251,0.434v1.963l-1.397,0.807l-8.554-4.934v-1.686
	l1.643-0.948c0.155-0.089,0.25-0.254,0.25-0.433v-2.186c0-0.179-0.095-0.343-0.25-0.433l-1.893-1.094c-0.155-0.09-0.345-0.09-0.5,0
	l-1.895,1.094c-0.154,0.09-0.25,0.254-0.25,0.433v2.186c0,0.179,0.095,0.344,0.25,0.433l1.645,0.948v1.687l-8.554,4.933
	l-1.399-0.808v-1.962c0-0.179-0.095-0.344-0.25-0.433l-1.892-1.092c-0.155-0.09-0.345-0.09-0.5-0.001l-1.894,1.093
	c-0.154,0.089-0.25,0.254-0.25,0.433l-0.002,2.186c0,0.179,0.095,0.344,0.25,0.433l1.895,1.094c0.078,0.045,0.164,0.067,0.25,0.067
	s0.172-0.022,0.25-0.067l1.586-0.917l1.516,0.875v9.809l-1.405,0.812l-1.7-0.981c-0.155-0.089-0.344-0.088-0.499,0.001l-1.892,1.091
	c-0.155,0.089-0.251,0.255-0.251,0.434v2.186c0,0.179,0.095,0.344,0.25,0.433l1.893,1.094c0.078,0.045,0.164,0.067,0.25,0.067
	s0.172-0.022,0.25-0.067l1.893-1.094c0.155-0.089,0.25-0.254,0.25-0.433v-1.832l1.518-0.876l8.438,4.871v1.687l-1.645,0.948
	c-0.155,0.089-0.25,0.254-0.25,0.433v2.186c0,0.179,0.095,0.343,0.25,0.433l1.895,1.094c0.078,0.045,0.164,0.067,0.25,0.067
	s0.173-0.022,0.25-0.067l1.893-1.094c0.154-0.09,0.25-0.254,0.25-0.433v-2.186c0-0.179-0.095-0.344-0.25-0.433l-1.643-0.948v-1.686
	l8.438-4.872l1.516,0.875v1.833c0,0.179,0.095,0.344,0.25,0.433l1.893,1.094c0.078,0.045,0.164,0.067,0.25,0.067
	s0.172-0.022,0.25-0.067l1.893-1.094c0.155-0.089,0.25-0.254,0.25-0.433l0.002-1.163L-135.262,205.823z M-163.346,193.692
	l-1.395-0.806l0.002-1.608l1.392-0.803l1.394,0.804v1.607L-163.346,193.692z M-142.007,203.891l-3.811-2.2l2.629-0.703
	c0.267-0.072,0.425-0.346,0.354-0.612c-0.071-0.267-0.345-0.419-0.612-0.354l-3.595,0.963l-2.458-1.419l2.46-1.421l3.593,0.963
	c0.043,0.011,0.087,0.017,0.13,0.017c0.221,0,0.423-0.147,0.482-0.371c0.071-0.267-0.087-0.54-0.354-0.612l-2.626-0.703l3.809-2.198
	V203.891z M-139.049,191.279l1.393-0.804l1.394,0.803l0,1.61l-1.395,0.804l-1.393-0.804V191.279z M-142.447,194.338l-3.87,2.234
	l0.704-2.629c0.071-0.267-0.087-0.54-0.354-0.612c-0.267-0.065-0.541,0.088-0.612,0.354l-0.962,3.594l-2.459,1.42v-2.84l2.629-2.631
	c0.195-0.195,0.195-0.512,0-0.707s-0.512-0.195-0.707,0l-1.922,1.924v-4.465L-142.447,194.338z M-151.895,185.471v-1.608
	l1.394-0.805l1.393,0.805v1.608l-1.393,0.804L-151.895,185.471z M-151,189.981v4.464l-1.924-1.924c-0.195-0.195-0.512-0.195-0.707,0
	s-0.195,0.512,0,0.707l2.631,2.631v2.84l-2.459-1.42l-0.964-3.595c-0.072-0.266-0.344-0.42-0.612-0.354
	c-0.267,0.072-0.425,0.347-0.354,0.613l0.705,2.628l-3.869-2.234L-151,189.981z M-158.993,195.238l3.809,2.198l-2.626,0.703
	c-0.267,0.072-0.425,0.346-0.354,0.612c0.06,0.224,0.262,0.371,0.482,0.371c0.043,0,0.086-0.006,0.13-0.017l3.593-0.963l2.46,1.421
	l-2.458,1.419l-3.595-0.963c-0.264-0.064-0.541,0.088-0.612,0.354s0.087,0.54,0.354,0.612l2.629,0.703l-3.811,2.2V195.238z
	 M-161.955,207.721l-1.393,0.806l-1.393-0.806v-1.607l1.393-0.804l1.386,0.8c0.002,0.006,0.003,0.013,0.006,0.019V207.721z
	 M-158.437,204.724l3.752-2.167l-0.703,2.627c-0.071,0.267,0.087,0.54,0.354,0.612c0.043,0.011,0.087,0.017,0.13,0.017
	c0.221,0,0.423-0.147,0.482-0.371l0.962-3.591l2.459-1.421v2.84l-2.631,2.631c-0.195,0.195-0.195,0.512,0,0.707
	c0.098,0.098,0.226,0.146,0.354,0.146s0.256-0.049,0.354-0.146l1.924-1.924v4.335L-158.437,204.724z M-149.107,213.529v1.608
	l-1.393,0.805l-1.394-0.805v-1.608l1.33-0.767c0.022,0.003,0.042,0.013,0.064,0.013c0.022,0,0.042-0.01,0.063-0.013
	L-149.107,213.529z M-150,209.02v-4.336l1.922,1.924c0.195,0.195,0.512,0.195,0.707,0s0.195-0.512,0-0.707L-150,203.27v-2.84
	l2.459,1.421l0.962,3.591c0.06,0.224,0.262,0.371,0.482,0.371c0.043,0,0.086-0.006,0.13-0.017c0.267-0.072,0.425-0.346,0.354-0.612
	l-0.703-2.627l3.752,2.167L-150,209.02z M-136.262,207.721l-1.393,0.806l-1.393-0.806v-1.587c0.004-0.009,0.005-0.017,0.009-0.025
	l1.384-0.801l1.393,0.806L-136.262,207.721z"/>
</svg>
