<?xml version="1.0" encoding="utf-8"?>
<!-- Generator: Adobe Illustrator 16.0.0, SVG Export Plug-In . SVG Version: 6.00 Build 0)  -->
<!DOCTYPE svg PUBLIC "-//W3C//DTD SVG 1.1//EN" "http://www.w3.org/Graphics/SVG/1.1/DTD/svg11.dtd">
<svg version="1.1" id="Layer_1" xmlns="http://www.w3.org/2000/svg" xmlns:xlink="http://www.w3.org/1999/xlink" x="0px" y="0px"
	 width="50px" height="50px" viewBox="244.5 -245.5 50 50" enable-background="new 244.5 -245.5 50 50" xml:space="preserve">
<path style="fill:white" d="M285-220.5c0-0.276-0.224-0.5-0.5-0.5h-1.248l1.602-1.602c0.195-0.195,0.195-0.512,0-0.707s-0.512-0.195-0.707,0
	L281.839-221h-0.887l1.151-1.152c0.195-0.195,0.195-0.512,0-0.707c-0.195-0.195-0.512-0.195-0.707,0L279.539-221h-3.127
	c-0.11-1.537-0.721-2.935-1.673-4.033l1.144-1.143c0.39,0.257,0.854,0.409,1.354,0.409c1.361,0,2.47-1.108,2.47-2.47
	c0-0.5-0.152-0.965-0.409-1.355l1.162-1.162c0.195-0.195,0.195-0.512,0-0.707s-0.512-0.195-0.707,0l-1.162,1.162
	c-0.39-0.256-0.854-0.408-1.354-0.408c-1.361,0-2.47,1.108-2.47,2.47c0,0.5,0.151,0.964,0.408,1.354l-1.144,1.144
	c-1.099-0.952-2.496-1.562-4.032-1.672v-3.128l1.856-1.856c0.195-0.195,0.195-0.512,0-0.707s-0.512-0.195-0.707,0L270-231.954
	v-0.885l2.306-2.308c0.195-0.195,0.195-0.512,0-0.707c-0.195-0.195-0.512-0.195-0.707,0l-1.599,1.6v-1.246
	c0-0.276-0.224-0.5-0.5-0.5s-0.5,0.224-0.5,0.5v1.248l-1.601-1.602c-0.195-0.195-0.512-0.195-0.707,0
	c-0.195,0.195-0.195,0.512,0,0.707l2.308,2.31v0.885l-1.151-1.151c-0.195-0.195-0.512-0.195-0.707,0s-0.195,0.512,0,0.707
	l1.858,1.858v3.126c-1.536,0.11-2.934,0.72-4.032,1.672l-1.144-1.144c0.257-0.389,0.408-0.854,0.408-1.354
	c0-1.362-1.108-2.47-2.47-2.47c-0.5,0-0.964,0.152-1.354,0.408l-1.162-1.162c-0.195-0.195-0.512-0.195-0.707,0s-0.195,0.512,0,0.707
	l1.162,1.162c-0.257,0.39-0.409,0.854-0.409,1.355c0,1.362,1.108,2.47,2.47,2.47c0.5,0,0.965-0.152,1.354-0.409l1.144,1.143
	c-0.952,1.099-1.562,2.497-1.673,4.033h-3.125l-1.859-1.857c-0.195-0.195-0.512-0.195-0.707,0s-0.195,0.512,0,0.707l1.151,1.15
	h-0.886l-2.309-2.307c-0.195-0.195-0.512-0.195-0.707,0s-0.195,0.512,0,0.707l1.602,1.6H254.5c-0.276,0-0.5,0.224-0.5,0.5
	s0.224,0.5,0.5,0.5h1.248l-1.602,1.602c-0.195,0.195-0.195,0.512,0,0.707c0.098,0.098,0.226,0.146,0.354,0.146
	s0.256-0.049,0.354-0.146l2.309-2.309h0.886l-1.151,1.15c-0.195,0.195-0.195,0.512,0,0.707c0.098,0.098,0.226,0.146,0.354,0.146
	s0.256-0.049,0.354-0.146l1.859-1.857h3.125c0.11,1.536,0.721,2.934,1.672,4.032l-1.144,1.144c-0.39-0.256-0.854-0.408-1.354-0.408
	c-1.361,0-2.47,1.108-2.47,2.47c0,0.5,0.151,0.964,0.408,1.354l-1.161,1.161c-0.195,0.195-0.195,0.512,0,0.707
	c0.098,0.098,0.226,0.146,0.354,0.146s0.256-0.049,0.354-0.146l1.161-1.161c0.39,0.257,0.854,0.409,1.354,0.409
	c1.361,0,2.47-1.108,2.47-2.47c0-0.5-0.152-0.965-0.409-1.355l1.144-1.143c1.099,0.952,2.496,1.562,4.033,1.673v3.125l-1.856,1.86
	c-0.195,0.195-0.195,0.512,0,0.707c0.195,0.194,0.512,0.195,0.707-0.001l1.149-1.151v0.886l-2.306,2.31
	c-0.195,0.195-0.195,0.512,0,0.707c0.098,0.097,0.226,0.146,0.354,0.146s0.256-0.049,0.354-0.147l1.599-1.601v1.248
	c0,0.276,0.224,0.5,0.5,0.5s0.5-0.224,0.5-0.5v-1.247l1.601,1.6c0.195,0.195,0.512,0.195,0.707,0s0.195-0.512,0-0.707L270-208.162
	v-0.886l1.151,1.151c0.098,0.098,0.226,0.146,0.354,0.146s0.256-0.049,0.354-0.146c0.195-0.195,0.195-0.512,0-0.707L270-210.462
	v-3.125c1.537-0.11,2.935-0.721,4.033-1.673l1.144,1.143c-0.257,0.39-0.409,0.854-0.409,1.355c0,1.362,1.108,2.47,2.47,2.47
	c0.5,0,0.965-0.152,1.354-0.409l1.161,1.161c0.098,0.098,0.226,0.146,0.354,0.146s0.256-0.049,0.354-0.146
	c0.195-0.195,0.195-0.512,0-0.707l-1.161-1.161c0.257-0.389,0.408-0.854,0.408-1.354c0-1.362-1.108-2.47-2.47-2.47
	c-0.5,0-0.964,0.152-1.354,0.408l-1.144-1.144c0.951-1.099,1.562-2.496,1.672-4.032h3.127l1.857,1.855
	c0.098,0.098,0.226,0.146,0.354,0.146s0.256-0.049,0.354-0.146c0.195-0.195,0.195-0.512,0-0.707L280.954-220h0.885l2.308,2.305
	c0.098,0.097,0.226,0.146,0.354,0.146s0.256-0.049,0.354-0.146c0.195-0.195,0.195-0.512,0-0.708l-1.6-1.597h1.246
	C284.776-220,285-220.224,285-220.5z M277.237-229.707c0.223,0,0.431,0.053,0.62,0.142c0.311,0.146,0.561,0.396,0.707,0.707
	c0.089,0.189,0.143,0.398,0.143,0.621c0,0.811-0.659,1.47-1.47,1.47c-0.223,0-0.432-0.054-0.621-0.143
	c-0.311-0.146-0.561-0.396-0.707-0.708c-0.088-0.189-0.142-0.397-0.142-0.62C275.768-229.048,276.427-229.707,277.237-229.707z
	 M263.091-227.617c-0.146,0.311-0.396,0.561-0.707,0.707c-0.189,0.089-0.398,0.143-0.621,0.143c-0.811,0-1.47-0.659-1.47-1.47
	c0-0.223,0.054-0.432,0.143-0.621c0.146-0.311,0.396-0.561,0.707-0.707c0.189-0.088,0.397-0.142,0.62-0.142
	c0.811,0,1.47,0.659,1.47,1.47C263.232-228.015,263.18-227.807,263.091-227.617z M261.763-211.293c-0.223,0-0.432-0.054-0.621-0.143
	c-0.311-0.146-0.561-0.396-0.707-0.708c-0.088-0.189-0.142-0.397-0.142-0.62c0-0.811,0.659-1.47,1.47-1.47
	c0.223,0,0.431,0.053,0.62,0.142c0.311,0.146,0.561,0.396,0.707,0.707c0.089,0.189,0.143,0.398,0.143,0.621
	C263.232-211.952,262.573-211.293,261.763-211.293z M275.91-213.384c0.146-0.311,0.396-0.561,0.707-0.707
	c0.189-0.088,0.397-0.142,0.62-0.142c0.811,0,1.47,0.659,1.47,1.47c0,0.222-0.053,0.431-0.142,0.62
	c-0.146,0.311-0.396,0.561-0.707,0.707c-0.189,0.089-0.398,0.143-0.621,0.143c-0.811,0-1.47-0.659-1.47-1.47
	C275.768-212.985,275.821-213.194,275.91-213.384z M275.412-220c-0.105,1.262-0.605,2.411-1.379,3.326
	c-0.215,0.255-0.451,0.492-0.706,0.707c-0.915,0.773-2.065,1.273-3.327,1.379c-0.165,0.014-0.331,0.025-0.5,0.025
	s-0.335-0.012-0.5-0.025c-1.262-0.106-2.412-0.606-3.327-1.379c-0.255-0.215-0.491-0.452-0.706-0.707
	c-0.773-0.915-1.273-2.064-1.379-3.326c-0.014-0.165-0.025-0.331-0.025-0.5s0.012-0.335,0.025-0.5
	c0.105-1.262,0.605-2.412,1.379-3.327c0.216-0.255,0.452-0.492,0.707-0.707c0.915-0.773,2.064-1.272,3.326-1.378
	c0.165-0.014,0.331-0.025,0.5-0.025s0.335,0.012,0.5,0.025c1.262,0.106,2.411,0.605,3.326,1.378
	c0.255,0.215,0.491,0.452,0.707,0.707c0.773,0.915,1.273,2.065,1.379,3.327c0.014,0.165,0.025,0.331,0.025,0.5
	S275.426-220.165,275.412-220z M273.139-223.433c-0.211-0.261-0.446-0.496-0.707-0.707c-0.683-0.55-1.515-0.907-2.432-1.006
	c-0.166-0.018-0.329-0.051-0.5-0.051s-0.334,0.033-0.5,0.051c-0.917,0.099-1.749,0.456-2.432,1.006
	c-0.261,0.211-0.496,0.446-0.707,0.707c-0.551,0.683-0.908,1.515-1.007,2.433c-0.019,0.167-0.051,0.329-0.051,0.5
	s0.032,0.333,0.051,0.5c0.099,0.917,0.455,1.749,1.006,2.432c0.211,0.261,0.446,0.496,0.707,0.707
	c0.683,0.551,1.515,0.908,2.433,1.007c0.166,0.018,0.329,0.051,0.5,0.051s0.334-0.033,0.5-0.051c0.918-0.099,1.75-0.456,2.433-1.007
	c0.261-0.211,0.496-0.446,0.707-0.707c0.551-0.683,0.907-1.515,1.006-2.432c0.019-0.167,0.051-0.329,0.051-0.5
	s-0.032-0.333-0.051-0.5C274.047-221.917,273.689-222.75,273.139-223.433z M273.146-220c-0.088,0.644-0.337,1.23-0.713,1.725
	c-0.203,0.267-0.44,0.504-0.707,0.707c-0.494,0.376-1.082,0.626-1.726,0.714c-0.165,0.023-0.329,0.051-0.5,0.051
	s-0.335-0.028-0.5-0.051c-0.644-0.088-1.231-0.337-1.726-0.714c-0.267-0.203-0.504-0.44-0.707-0.707
	c-0.376-0.494-0.625-1.081-0.713-1.725c-0.022-0.165-0.051-0.329-0.051-0.5s0.028-0.335,0.051-0.5
	c0.088-0.644,0.338-1.231,0.714-1.726c0.203-0.267,0.44-0.504,0.707-0.707c0.494-0.376,1.081-0.625,1.725-0.713
	c0.165-0.023,0.329-0.051,0.5-0.051s0.335,0.028,0.5,0.051c0.644,0.088,1.23,0.337,1.725,0.713c0.267,0.203,0.504,0.44,0.707,0.707
	c0.376,0.494,0.626,1.082,0.714,1.726c0.022,0.165,0.051,0.329,0.051,0.5S273.168-220.165,273.146-220z"/>
</svg>
