<?xml version="1.0" encoding="utf-8"?>
<!-- Generator: Adobe Illustrator 16.0.0, SVG Export Plug-In . SVG Version: 6.00 Build 0)  -->
<!DOCTYPE svg PUBLIC "-//W3C//DTD SVG 1.1//EN" "http://www.w3.org/Graphics/SVG/1.1/DTD/svg11.dtd">
<svg version="1.1" id="Layer_1" xmlns="http://www.w3.org/2000/svg" xmlns:xlink="http://www.w3.org/1999/xlink" x="0px" y="0px"
	 width="50px" height="50px" viewBox="314.5 244.5 50 50" enable-background="new 314.5 244.5 50 50" xml:space="preserve">
<path style="fill:white" d="M350.317,264.534l4.312,1.156c0.267,0.072,0.425,0.346,0.354,0.613c-0.061,0.223-0.263,0.37-0.483,0.37
	c-0.043,0-0.086-0.006-0.13-0.017l-4.312-1.156c-0.267-0.072-0.425-0.346-0.354-0.613
	C349.776,264.622,350.049,264.469,350.317,264.534z M340.462,266.967v-4.828c0-0.133,0.053-0.26,0.146-0.354l5.226-5.225
	c0.161-0.161,0.408-0.193,0.604-0.079l0.87,0.502c0.196,0.112,0.292,0.344,0.233,0.562l-1.914,7.137
	c-0.035,0.128-0.118,0.237-0.233,0.303l-4.182,2.414c-0.077,0.045-0.164,0.067-0.25,0.067s-0.173-0.022-0.25-0.067
	C340.558,267.311,340.462,267.146,340.462,266.967z M341.462,266.101l3.252-1.877l1.762-6.566l-0.206-0.118l-4.808,4.807V266.101z
	 M354.37,272.343l-4.312,1.156c-0.267,0.072-0.425,0.346-0.354,0.613c0.061,0.223,0.263,0.37,0.483,0.37
	c0.043,0,0.086-0.006,0.13-0.017l4.312-1.156c0.267-0.072,0.425-0.346,0.354-0.613C354.911,272.431,354.642,272.276,354.37,272.343z
	 M329.79,262.613c0.061,0.224,0.263,0.371,0.483,0.371c0.042,0,0.086-0.006,0.129-0.017c0.268-0.072,0.426-0.346,0.354-0.612
	l-1.154-4.312c-0.072-0.266-0.344-0.42-0.612-0.354c-0.268,0.072-0.426,0.346-0.354,0.612L329.79,262.613z M340.962,258.502
	c0.128,0,0.256-0.049,0.354-0.146l3.158-3.156c0.195-0.195,0.195-0.512,0-0.707s-0.512-0.195-0.707,0l-3.158,3.156
	c-0.195,0.195-0.195,0.512,0,0.707C340.706,258.453,340.834,258.502,340.962,258.502z M349.209,276.385
	c-0.072-0.267-0.348-0.42-0.612-0.354c-0.268,0.072-0.426,0.346-0.354,0.612l1.155,4.312c0.061,0.224,0.263,0.371,0.483,0.371
	c0.043,0,0.086-0.006,0.129-0.017c0.268-0.072,0.426-0.346,0.354-0.612L349.209,276.385z M341.315,280.643
	c-0.195-0.195-0.512-0.195-0.707,0s-0.195,0.512,0,0.707l3.157,3.158c0.098,0.098,0.226,0.146,0.354,0.146s0.256-0.049,0.354-0.146
	c0.195-0.195,0.195-0.512,0-0.707L341.315,280.643z M348.598,262.968c0.043,0.011,0.086,0.017,0.129,0.017
	c0.221,0,0.423-0.147,0.483-0.371l1.154-4.312c0.071-0.267-0.087-0.54-0.354-0.612c-0.261-0.065-0.54,0.088-0.612,0.354
	l-1.154,4.312C348.172,262.622,348.33,262.896,348.598,262.968z M353.873,268.515c0.219,0.059,0.371,0.257,0.371,0.483v1.004
	c0,0.227-0.152,0.425-0.371,0.483l-7.14,1.912c-0.042,0.011-0.086,0.017-0.129,0.017c-0.087,0-0.173-0.022-0.25-0.067l-4.182-2.414
	c-0.154-0.089-0.25-0.254-0.25-0.433s0.096-0.344,0.25-0.433l4.184-2.414c0.115-0.066,0.252-0.083,0.379-0.051L353.873,268.515z
	 M353.244,269.382l-6.567-1.76l-3.254,1.878l3.252,1.878l6.569-1.76V269.382z M338.392,261.785c0.094,0.094,0.146,0.221,0.146,0.354
	v4.828c0,0.179-0.096,0.344-0.25,0.433c-0.077,0.045-0.164,0.067-0.25,0.067s-0.173-0.022-0.25-0.067l-4.182-2.414
	c-0.115-0.065-0.198-0.175-0.233-0.303l-1.914-7.137c-0.059-0.219,0.037-0.45,0.233-0.562l0.87-0.502
	c0.195-0.115,0.442-0.083,0.604,0.079L338.392,261.785z M337.538,262.346l-4.808-4.807l-0.206,0.118l1.762,6.566l3.252,1.877
	V262.346z M347.539,281.454c0.058,0.219-0.037,0.449-0.232,0.562l-0.868,0.504c-0.078,0.045-0.165,0.067-0.251,0.067
	c-0.129,0-0.257-0.05-0.354-0.146l-5.226-5.227c-0.094-0.094-0.146-0.221-0.146-0.354v-4.828c0-0.179,0.096-0.344,0.25-0.433
	c0.154-0.09,0.346-0.09,0.5,0l4.182,2.414c0.115,0.065,0.198,0.175,0.233,0.303L347.539,281.454z M346.474,281.344l-1.76-6.567
	l-3.252-1.877v3.755l4.808,4.808L346.474,281.344z M338.538,272.033v4.828c0,0.133-0.053,0.26-0.146,0.354l-5.226,5.225
	c-0.097,0.097-0.225,0.146-0.354,0.146c-0.086,0-0.172-0.022-0.25-0.067l-0.868-0.502c-0.196-0.113-0.291-0.344-0.233-0.562
	l1.912-7.137c0.035-0.128,0.118-0.237,0.233-0.303l4.182-2.414c0.154-0.09,0.346-0.09,0.5,0
	C338.442,271.689,338.538,271.854,338.538,272.033z M337.538,272.899l-3.252,1.877l-1.76,6.566l0.204,0.118l4.808-4.807V272.899z
	 M325.127,268.515l7.138-1.912c0.126-0.032,0.264-0.016,0.379,0.051l4.184,2.414c0.154,0.089,0.25,0.254,0.25,0.433
	s-0.096,0.344-0.25,0.433l-4.182,2.414c-0.077,0.045-0.163,0.067-0.25,0.067c-0.043,0-0.087-0.006-0.129-0.017l-7.14-1.912
	c-0.219-0.059-0.371-0.257-0.371-0.483v-1.004C324.756,268.771,324.908,268.573,325.127,268.515z M325.756,269.618l6.569,1.76
	l3.252-1.878l-3.254-1.878l-6.567,1.76V269.618z M335.233,254.492c-0.195-0.195-0.512-0.195-0.707,0s-0.195,0.512,0,0.707
	l3.158,3.156c0.098,0.098,0.226,0.146,0.354,0.146s0.256-0.049,0.354-0.146c0.195-0.195,0.195-0.512,0-0.707L335.233,254.492z
	 M337.685,280.643l-3.158,3.158c-0.195,0.195-0.195,0.512,0,0.707c0.098,0.098,0.226,0.146,0.354,0.146s0.256-0.049,0.354-0.146
	l3.158-3.158c0.195-0.195,0.195-0.512,0-0.707S337.88,280.447,337.685,280.643z M328.812,274.482c0.221,0,0.423-0.147,0.483-0.37
	c0.071-0.268-0.087-0.541-0.354-0.613l-4.312-1.156c-0.269-0.065-0.541,0.088-0.613,0.354c-0.071,0.268,0.087,0.541,0.354,0.613
	l4.312,1.156C328.727,274.477,328.77,274.482,328.812,274.482z M324.5,266.674c0.043,0,0.086-0.006,0.13-0.017l4.312-1.156
	c0.267-0.072,0.425-0.346,0.354-0.613c-0.072-0.266-0.342-0.419-0.613-0.354l-4.312,1.156c-0.267,0.072-0.425,0.346-0.354,0.613
	C324.077,266.526,324.279,266.674,324.5,266.674z M330.403,276.03c-0.262-0.064-0.54,0.088-0.612,0.354l-1.155,4.312
	c-0.071,0.267,0.087,0.54,0.354,0.612c0.043,0.011,0.086,0.017,0.129,0.017c0.221,0,0.423-0.147,0.483-0.371l1.155-4.312
	C330.829,276.376,330.671,276.103,330.403,276.03z"/>
</svg>
