<?xml version="1.0" encoding="utf-8"?>
<!-- Generator: Adobe Illustrator 16.0.0, SVG Export Plug-In . SVG Version: 6.00 Build 0)  -->
<!DOCTYPE svg PUBLIC "-//W3C//DTD SVG 1.1//EN" "http://www.w3.org/Graphics/SVG/1.1/DTD/svg11.dtd">
<svg version="1.1" id="Layer_1" xmlns="http://www.w3.org/2000/svg" xmlns:xlink="http://www.w3.org/1999/xlink" x="0px" y="0px"
	 width="50px" height="50px" viewBox="-35.5 -315.5 50 50" enable-background="new -35.5 -315.5 50 50" xml:space="preserve">
<path style="fill:white" d="M5.071-291.25l-9.61,0v-3.053l5.056,0c0.414,0,0.75-0.336,0.75-0.75s-0.336-0.75-0.75-0.75l-4.652,0l1.643-1.643h3.259
	c0.414,0,0.75-0.336,0.75-0.75s-0.336-0.75-0.75-0.75h-1.759l1.63-1.63c0.293-0.293,0.293-0.768,0-1.061s-0.768-0.293-1.061,0
	l-1.807,1.807v-2.112c0-0.414-0.336-0.75-0.75-0.75s-0.75,0.336-0.75,0.75v3.612l-1.466,1.466l0-4.652c0-0.414-0.336-0.75-0.75-0.75
	s-0.75,0.336-0.75,0.75l0,5.056H-9.75l0-9.61c0-0.414-0.336-0.75-0.75-0.75s-0.75,0.336-0.75,0.75l0,9.61h-2.884l0-4.643
	c0-0.414-0.336-0.75-0.75-0.75s-0.75,0.336-0.75,0.75l0,4.41l-1.636-1.636v-3.436c0-0.414-0.336-0.75-0.75-0.75
	s-0.75,0.336-0.75,0.75v1.936l-1.807-1.807c-0.293-0.293-0.768-0.293-1.061,0s-0.293,0.768,0,1.061l1.806,1.806h-1.933
	c-0.414,0-0.75,0.336-0.75,0.75s0.336,0.75,0.75,0.75h3.433l1.637,1.637l-4.41,0c-0.414,0-0.75,0.336-0.75,0.75
	s0.336,0.75,0.75,0.75l4.643,0v2.884l-9.609,0c-0.414,0-0.75,0.336-0.75,0.75s0.336,0.75,0.75,0.75l9.609,0v3.053l-5.055,0
	c-0.414,0-0.75,0.336-0.75,0.75s0.336,0.75,0.75,0.75l4.653,0l-1.466,1.466h-3.611c-0.414,0-0.75,0.336-0.75,0.75
	s0.336,0.75,0.75,0.75h2.111l-1.807,1.807c-0.293,0.293-0.293,0.768,0,1.061c0.146,0.146,0.338,0.22,0.53,0.22
	s0.384-0.073,0.53-0.22l1.631-1.631v1.76c0,0.414,0.336,0.75,0.75,0.75s0.75-0.336,0.75-0.75v-3.26l1.642-1.642l-0.001,4.653
	c0,0.414,0.335,0.75,0.75,0.75c0.414,0,0.75-0.336,0.75-0.75l0-5.057h3.053l0,9.611c0,0.414,0.336,0.75,0.75,0.75
	s0.75-0.336,0.75-0.75l0-9.611h2.884l0,4.644c0,0.414,0.336,0.75,0.75,0.75s0.75-0.336,0.75-0.75l0-4.41l1.814,1.814v3.435
	c0,0.414,0.336,0.75,0.75,0.75s0.75-0.336,0.75-0.75v-1.935l1.629,1.629c0.146,0.146,0.338,0.22,0.53,0.22s0.384-0.073,0.53-0.22
	c0.293-0.293,0.293-0.768,0-1.061l-1.629-1.629h1.934c0.414,0,0.75-0.336,0.75-0.75s-0.336-0.75-0.75-0.75h-3.434l-1.814-1.814
	l4.41,0c0.414,0,0.75-0.336,0.75-0.75s-0.336-0.75-0.75-0.75l-4.643,0v-2.884l9.61,0c0.414,0,0.75-0.336,0.75-0.75
	S5.485-291.25,5.071-291.25z M-13.899-286.04h-0.404h-0.658v-0.657v-0.402v-6.802v-0.232v-0.828h0.828h0.233H-7.1h0.403h0.657v0.657
	v0.403v6.801v0.233v0.827h-0.828h-0.234H-13.899z"/>
</svg>
