<?xml version="1.0" encoding="utf-8"?>
<!-- Generator: Adobe Illustrator 16.0.0, SVG Export Plug-In . SVG Version: 6.00 Build 0)  -->
<!DOCTYPE svg PUBLIC "-//W3C//DTD SVG 1.1//EN" "http://www.w3.org/Graphics/SVG/1.1/DTD/svg11.dtd">
<svg version="1.1" id="Layer_1" xmlns="http://www.w3.org/2000/svg" xmlns:xlink="http://www.w3.org/1999/xlink" x="0px" y="0px"
	 width="50px" height="50px" viewBox="174.5 174.5 50 50" enable-background="new 174.5 174.5 50 50" xml:space="preserve">
<path style="fill:white" d="M217.506,197.244l-2.58,0.004l-0.859,1.48l-2.459,0.004l0.577-1c0.207-0.358,0.084-0.817-0.274-1.024
	c-0.359-0.208-0.817-0.084-1.024,0.274l-1.012,1.753l-1.47,0.002l1.974-3.419c0.207-0.358,0.084-0.817-0.274-1.024
	c-0.36-0.208-0.817-0.083-1.024,0.274l-2.409,4.171l-0.458,0.001c-0.215-1.91-1.23-3.576-2.7-4.666l0.254-0.439h4.775
	c0.414,0,0.75-0.336,0.75-0.75s-0.336-0.75-0.75-0.75h-3.906l0.737-1.271h1.981c0.414,0,0.75-0.336,0.75-0.75s-0.336-0.75-0.75-0.75
	h-1.113l1.212-2.092l1.712-0.004l1.293-2.232l-1.285-2.227l-2.582,0.002l-1.291,2.232l0.854,1.479l-1.254,2.164l-0.64-1.109
	c-0.207-0.358-0.664-0.482-1.024-0.274c-0.358,0.207-0.481,0.666-0.274,1.024l1.071,1.856l-0.735,1.27l-2.031-3.519
	c-0.206-0.357-0.664-0.483-1.024-0.274c-0.358,0.207-0.481,0.666-0.274,1.024l2.463,4.266l-0.213,0.367
	c-0.832-0.367-1.749-0.574-2.716-0.574c-0.963,0-1.877,0.205-2.706,0.569l-0.288-0.499l2.382-4.129
	c0.207-0.359,0.084-0.817-0.274-1.024c-0.36-0.209-0.818-0.083-1.024,0.274l-1.95,3.378l-0.733-1.271l0.989-1.718
	c0.206-0.358,0.083-0.817-0.276-1.024c-0.36-0.205-0.816-0.083-1.024,0.276l-0.555,0.964l-1.152-1.995l0.857-1.483l-1.285-2.229
	l-2.578,0.004l-1.295,2.23l1.287,2.229l1.715-0.001l1.194,2.068l-1.281-0.001c-0.001,0-0.001,0-0.001,0
	c-0.414,0-0.75,0.335-0.75,0.749c0,0.415,0.335,0.751,0.749,0.751l2.149,0.001l0.734,1.272h-4.068c-0.414,0-0.75,0.336-0.75,0.75
	s0.336,0.75,0.75,0.75h4.935l0.249,0.432c-1.48,1.094-2.503,2.771-2.713,4.693l-0.59,0.001l-2.423-4.192
	c-0.206-0.358-0.665-0.482-1.024-0.274c-0.359,0.207-0.481,0.666-0.274,1.024l1.99,3.444l-1.469,0.003l-1.029-1.783
	c-0.207-0.358-0.664-0.482-1.024-0.274c-0.358,0.207-0.481,0.666-0.274,1.024l0.598,1.035l-2.329,0.004l-0.854-1.479l-2.58,0.002
	l-1.293,2.234l1.287,2.229l2.58-0.006l0.858-1.48l2.332-0.004l-0.6,1.039c-0.207,0.358-0.084,0.817,0.274,1.024
	c0.118,0.068,0.247,0.101,0.374,0.101c0.26,0,0.512-0.135,0.65-0.375l1.034-1.791l1.472-0.003l-1.996,3.458
	c-0.207,0.358-0.084,0.817,0.274,1.024c0.118,0.068,0.247,0.101,0.374,0.101c0.26,0,0.512-0.135,0.65-0.375l2.432-4.21l0.582-0.001
	c0.215,1.91,1.231,3.577,2.702,4.667l-0.277,0.478l-4.9-0.002c-0.414,0-0.75,0.336-0.75,0.75s0.336,0.75,0.75,0.75l4.032,0.002
	l-0.737,1.271h-2.109c-0.414,0-0.75,0.336-0.75,0.75s0.336,0.75,0.75,0.75h1.24l-1.189,2.054l-1.711,0.003l-1.293,2.232l1.287,2.227
	l2.578-0.002l1.293-2.232l-0.854-1.479l1.168-2.015l0.577,1c0.139,0.24,0.391,0.375,0.65,0.375c0.127,0,0.256-0.032,0.374-0.101
	c0.358-0.207,0.481-0.666,0.274-1.024l-1.009-1.747l0.735-1.271l1.969,3.408c0.139,0.24,0.391,0.375,0.65,0.375
	c0.127,0,0.256-0.032,0.374-0.101c0.358-0.207,0.481-0.666,0.274-1.024l-2.4-4.154l0.298-0.515c0.832,0.366,1.749,0.573,2.715,0.573
	c0.963,0,1.878-0.206,2.708-0.57l0.226,0.393l-2.468,4.273c-0.207,0.358-0.084,0.817,0.274,1.024
	c0.118,0.068,0.247,0.101,0.374,0.101c0.26,0,0.512-0.135,0.65-0.375l2.035-3.524l0.734,1.271l-1.072,1.861
	c-0.207,0.358-0.084,0.817,0.275,1.023c0.117,0.068,0.246,0.101,0.373,0.101c0.26,0,0.512-0.135,0.65-0.376l0.64-1.108l1.216,2.105
	l-0.86,1.482l1.287,2.229l2.58-0.004l1.291-2.23l-1.285-2.229l-1.714,0.003l-1.174-2.033l1.111,0.001c0.001,0,0.001,0,0.001,0
	c0.414,0,0.75-0.335,0.75-0.749c0-0.415-0.335-0.751-0.749-0.751l-1.979-0.001l-0.734-1.272h3.9c0.414,0,0.75-0.336,0.75-0.75
	s-0.336-0.75-0.75-0.75h-4.767l-0.271-0.471c1.479-1.093,2.502-2.77,2.712-4.691l0.421-0.001l2.443,4.231
	c0.139,0.24,0.391,0.375,0.65,0.375c0.127,0,0.256-0.032,0.374-0.101c0.358-0.207,0.481-0.666,0.274-1.024l-2.012-3.483l1.469-0.002
	l1.053,1.821c0.139,0.241,0.391,0.375,0.65,0.375c0.127,0,0.256-0.032,0.374-0.101c0.359-0.207,0.481-0.666,0.274-1.024
	l-0.621-1.074l2.498-0.004l0.854,1.48l2.58-0.004l1.293-2.232L217.506,197.244z M199.5,204.758c-0.691,0-1.349-0.142-1.954-0.386
	c-0.472-0.189-0.898-0.456-1.29-0.767c-1.028-0.814-1.739-1.992-1.938-3.348c-0.036-0.25-0.076-0.498-0.076-0.758
	c0-0.254,0.04-0.498,0.075-0.742c0.195-1.365,0.909-2.552,1.944-3.368c0.393-0.311,0.819-0.575,1.291-0.764
	c0.604-0.242,1.258-0.384,1.947-0.384c0.692,0,1.351,0.143,1.956,0.387c0.472,0.189,0.897,0.456,1.29,0.767
	c1.026,0.814,1.737,1.992,1.936,3.347c0.036,0.25,0.076,0.498,0.076,0.758c0,0.254-0.04,0.498-0.075,0.742
	c-0.195,1.364-0.909,2.55-1.943,3.367c-0.393,0.311-0.819,0.575-1.29,0.765C200.845,204.616,200.189,204.758,199.5,204.758z"/>
</svg>
