<?xml version="1.0" encoding="utf-8"?>
<!-- Generator: Adobe Illustrator 16.0.0, SVG Export Plug-In . SVG Version: 6.00 Build 0)  -->
<!DOCTYPE svg PUBLIC "-//W3C//DTD SVG 1.1//EN" "http://www.w3.org/Graphics/SVG/1.1/DTD/svg11.dtd">
<svg version="1.1" id="Layer_1" xmlns="http://www.w3.org/2000/svg" xmlns:xlink="http://www.w3.org/1999/xlink" x="0px" y="0px"
	 width="50px" height="50px" viewBox="104.5 -315.5 50 50" enable-background="new 104.5 -315.5 50 50" xml:space="preserve">
<path style="fill:white" d="M140.858-284.252l-4.044-0.001l-1.35-1.349v-9.803l1.349-1.349h4.046c0.414,0,0.75-0.336,0.75-0.75s-0.336-0.75-0.75-0.75
	h-2.546l2.326-2.326c0.293-0.293,0.293-0.768,0-1.061s-0.768-0.293-1.061,0l-2.325,2.325v-2.544c0-0.414-0.336-0.75-0.75-0.75
	s-0.75,0.336-0.75,0.75v4.044l-1.352,1.352h-9.799l-1.352-1.352v-4.045c0-0.414-0.336-0.75-0.75-0.75s-0.75,0.336-0.75,0.75v2.545
	l-2.325-2.325c-0.293-0.293-0.768-0.293-1.061,0s-0.293,0.768,0,1.061l2.325,2.325l-2.544,0c-0.414,0-0.75,0.335-0.75,0.75
	c0,0.414,0.336,0.75,0.75,0.75l4.044,0.001l1.352,1.351l-0.001,9.8l-1.35,1.35h-4.046c-0.414,0-0.75,0.336-0.75,0.75
	s0.336,0.75,0.75,0.75h2.546l-2.326,2.326c-0.293,0.293-0.293,0.768,0,1.061c0.146,0.146,0.338,0.22,0.53,0.22
	s0.384-0.073,0.53-0.22l2.325-2.325v2.544c0,0.414,0.336,0.75,0.75,0.75s0.75-0.336,0.75-0.75v-4.044l1.351-1.351h9.801l1.351,1.351
	v4.045c0,0.414,0.336,0.75,0.75,0.75s0.75-0.336,0.75-0.75v-2.545l2.325,2.325c0.146,0.146,0.338,0.22,0.53,0.22
	s0.384-0.073,0.53-0.22c0.293-0.293,0.293-0.768,0-1.061l-2.325-2.325l2.544,0c0.414,0,0.75-0.335,0.75-0.75
	C141.608-283.916,141.272-284.252,140.858-284.252z M126.103-286.042h-1.061v-1.061l0.001-6.8v-1.061h1.061h6.799h1.062v1.059v6.803
	v1.06h-1.062H126.103z M144.544-290.503c0,0.414-0.336,0.75-0.75,0.75h-5.111l2.417,2.417c0.293,0.293,0.293,0.768,0,1.061
	c-0.146,0.146-0.338,0.22-0.53,0.22s-0.384-0.073-0.53-0.22l-3.697-3.697l-0.53-0.53l0.53-0.53l3.697-3.697
	c0.293-0.293,0.768-0.293,1.061,0s0.293,0.768,0,1.061l-2.417,2.417h5.111C144.208-291.253,144.544-290.917,144.544-290.503z
	 M125.276-301.039c-0.293-0.293-0.293-0.768,0-1.061s0.768-0.293,1.061,0l2.417,2.417v-5.111c0-0.414,0.336-0.75,0.75-0.75
	s0.75,0.336,0.75,0.75v5.111l2.416-2.417c0.293-0.293,0.768-0.293,1.061,0s0.293,0.768,0,1.061l-3.696,3.697l-0.53,0.53l-0.53-0.53
	L125.276-301.039z M120.317-289.747h-5.111c-0.414,0-0.75-0.336-0.75-0.75s0.336-0.75,0.75-0.75h5.111l-2.417-2.417
	c-0.293-0.293-0.293-0.768,0-1.061s0.768-0.293,1.061,0l3.697,3.697l0.53,0.53l-0.53,0.53l-3.696,3.696
	c-0.146,0.146-0.338,0.22-0.53,0.22s-0.384-0.073-0.53-0.22c-0.293-0.293-0.293-0.768,0-1.061L120.317-289.747z M133.724-279.961
	c0.293,0.293,0.293,0.768,0,1.061c-0.146,0.146-0.338,0.22-0.53,0.22s-0.384-0.073-0.53-0.22l-2.416-2.417v5.111
	c0,0.414-0.336,0.75-0.75,0.75s-0.75-0.336-0.75-0.75v-5.111l-2.416,2.417c-0.293,0.293-0.768,0.293-1.061,0s-0.293-0.768,0-1.061
	l3.696-3.697l0.53-0.53l0.53,0.53v0.001L133.724-279.961z"/>
</svg>
