<?xml version="1.0" encoding="utf-8"?>
<!-- Generator: Adobe Illustrator 16.0.0, SVG Export Plug-In . SVG Version: 6.00 Build 0)  -->
<!DOCTYPE svg PUBLIC "-//W3C//DTD SVG 1.1//EN" "http://www.w3.org/Graphics/SVG/1.1/DTD/svg11.dtd">
<svg version="1.1" id="Layer_1" xmlns="http://www.w3.org/2000/svg" xmlns:xlink="http://www.w3.org/1999/xlink" x="0px" y="0px"
	 width="50px" height="50px" viewBox="-105.5 174.5 50 50" enable-background="new -105.5 174.5 50 50" xml:space="preserve">
<path style="fill:white" d="M-65.262,205.821c0-0.179-0.096-0.343-0.25-0.432l-1.893-1.094c-0.155-0.09-0.345-0.09-0.5,0l-1.644,0.95l-1.066-0.615
	l1.223-0.327c0.267-0.071,0.425-0.346,0.354-0.612c-0.071-0.268-0.344-0.419-0.612-0.354l-1.356,0.363v-8.401l1.358,0.364
	c0.043,0.011,0.087,0.017,0.13,0.017c0.221,0,0.422-0.147,0.482-0.37c0.072-0.267-0.087-0.541-0.354-0.613l-1.223-0.328l1.065-0.615
	l1.642,0.947c0.078,0.045,0.164,0.067,0.25,0.067s0.172-0.022,0.25-0.067l1.895-1.092c0.155-0.089,0.25-0.254,0.25-0.433
	l-0.002-1.161l0.002-1.025c0-0.179-0.095-0.345-0.25-0.434l-1.895-1.093c-0.155-0.089-0.345-0.088-0.5,0.001l-1.891,1.091
	c-0.155,0.089-0.251,0.255-0.251,0.434v1.9l-1.066,0.615l0.327-1.225c0.071-0.267-0.087-0.541-0.354-0.612
	c-0.264-0.064-0.541,0.088-0.612,0.354l-0.362,1.354l-7.277-4.198l0.993-0.993c0.195-0.195,0.195-0.512,0-0.707
	s-0.513-0.195-0.707,0L-80,188.372v-1.231l1.644-0.948c0.155-0.089,0.25-0.254,0.25-0.433v-2.186c0-0.179-0.095-0.343-0.25-0.433
	l-1.893-1.094c-0.155-0.09-0.345-0.09-0.5,0l-1.895,1.094c-0.154,0.09-0.25,0.254-0.25,0.433v2.186c0,0.179,0.095,0.344,0.25,0.433
	L-81,187.14v1.233l-0.896-0.896c-0.195-0.195-0.512-0.195-0.707,0s-0.195,0.512,0,0.707l0.995,0.994l-7.277,4.197l-0.363-1.354
	c-0.071-0.266-0.346-0.419-0.612-0.354c-0.267,0.072-0.425,0.347-0.354,0.613l0.328,1.223l-1.066-0.615v-1.899
	c0-0.179-0.095-0.344-0.25-0.433l-1.892-1.092c-0.155-0.09-0.345-0.09-0.5-0.001l-1.894,1.093c-0.154,0.089-0.25,0.254-0.25,0.433
	l-0.002,2.186c0,0.179,0.095,0.344,0.25,0.433l1.895,1.094c0.078,0.045,0.164,0.067,0.25,0.067s0.172-0.022,0.25-0.067l1.641-0.948
	l1.068,0.616l-1.223,0.328c-0.267,0.072-0.425,0.347-0.354,0.613c0.06,0.223,0.262,0.37,0.482,0.37c0.043,0,0.086-0.006,0.13-0.017
	l1.358-0.364v8.401l-1.358-0.363c-0.262-0.063-0.54,0.087-0.612,0.354c-0.071,0.267,0.087,0.541,0.354,0.612l1.224,0.327
	l-1.066,0.615l-1.646-0.949c-0.155-0.089-0.344-0.088-0.499,0.001l-1.892,1.091c-0.155,0.089-0.251,0.255-0.251,0.434v2.186
	c0,0.179,0.095,0.344,0.25,0.433l1.893,1.094c0.078,0.045,0.164,0.067,0.25,0.067s0.172-0.022,0.25-0.067l1.893-1.094
	c0.155-0.089,0.25-0.254,0.25-0.433v-1.896l1.067-0.616l-0.327,1.223c-0.071,0.267,0.087,0.541,0.354,0.612
	c0.043,0.011,0.087,0.017,0.13,0.017c0.221,0,0.423-0.147,0.482-0.371l0.363-1.356l7.275,4.201l-0.994,0.993
	c-0.195,0.195-0.195,0.512,0,0.707s0.512,0.195,0.707,0l0.896-0.896v1.234l-1.644,0.947c-0.155,0.089-0.25,0.254-0.25,0.433v2.186
	c0,0.179,0.095,0.343,0.25,0.433l1.895,1.094c0.078,0.045,0.164,0.067,0.25,0.067s0.173-0.022,0.25-0.067l1.893-1.094
	c0.154-0.09,0.25-0.254,0.25-0.433v-2.186c0-0.179-0.095-0.344-0.25-0.433L-80,211.859v-1.232l0.895,0.895
	c0.098,0.098,0.226,0.146,0.354,0.146s0.256-0.049,0.354-0.146c0.195-0.195,0.195-0.512,0-0.707l-0.992-0.992l7.275-4.202
	l0.363,1.356c0.06,0.224,0.262,0.371,0.482,0.371c0.043,0,0.086-0.006,0.129-0.017c0.267-0.071,0.425-0.346,0.354-0.612
	l-0.327-1.223l1.066,0.616v1.896c0,0.179,0.095,0.344,0.25,0.433l1.893,1.094c0.078,0.045,0.164,0.067,0.25,0.067
	s0.172-0.022,0.25-0.067l1.893-1.094c0.155-0.089,0.25-0.254,0.25-0.433l0.002-1.163L-65.262,205.821z M-69.048,191.277l1.393-0.804
	l1.394,0.803l0,1.61l-1.395,0.804l-1.393-0.804V191.277z M-93.346,193.69l-1.395-0.806l0.002-1.608l1.392-0.803l1.394,0.804v1.607
	L-93.346,193.69z M-91.954,207.719l-1.393,0.806l-1.393-0.806v-1.607l1.393-0.804l1.392,0.804V207.719z M-88.993,195.174
	l1.276,0.736l3.077,3.59l-3.077,3.59l-1.276,0.736V195.174z M-72.007,203.826l-1.276-0.736l-3.077-3.59l3.077-3.59l1.276-0.736
	V203.826z M-74.912,202.726l-1.48-0.277l-2.698-0.505l-0.91,2.585l-0.5,1.423l-0.5-1.418l-0.912-2.59l-2.695,0.505l-1.481,0.277
	l0.978-1.142l1.787-2.084l-1.787-2.084l-0.978-1.142l1.481,0.277l2.695,0.505l0.912-2.591l0.5-1.419l0.5,1.423l0.91,2.587
	l2.698-0.505l1.48-0.277l-0.978,1.142l-1.787,2.084l1.787,2.084L-74.912,202.726z M-72.503,194.306l-1.281,0.74l-4.647,0.87
	L-80,191.455v-1.475L-72.503,194.306z M-81.894,185.471v-1.608l1.394-0.805l1.393,0.805v1.608l-1.393,0.804L-81.894,185.471z
	 M-81,189.981v1.475l-1.57,4.46l-4.645-0.87l-1.282-0.74L-81,189.981z M-88.493,204.691l1.277-0.737l4.645-0.87l1.57,4.458v1.477
	L-88.493,204.691z M-79.106,213.529v1.608l-1.393,0.805l-1.394-0.805v-1.608l1.394-0.804L-79.106,213.529z M-80,209.02v-1.477
	l1.569-4.459l4.647,0.87l1.277,0.737L-80,209.02z M-66.262,207.719l-1.393,0.806l-1.393-0.806v-1.607l1.393-0.806l1.393,0.806
	L-66.262,207.719z"/>
</svg>
