<?xml version="1.0" encoding="utf-8"?>
<!-- Generator: Adobe Illustrator 16.0.0, SVG Export Plug-In . SVG Version: 6.00 Build 0)  -->
<!DOCTYPE svg PUBLIC "-//W3C//DTD SVG 1.1//EN" "http://www.w3.org/Graphics/SVG/1.1/DTD/svg11.dtd">
<svg version="1.1" id="Layer_1" xmlns="http://www.w3.org/2000/svg" xmlns:xlink="http://www.w3.org/1999/xlink" x="0px" y="0px"
	 width="50px" height="50px" viewBox="244.5 314.5 50 50" enable-background="new 244.5 314.5 50 50" xml:space="preserve">
<path style="fill:white" d="M270.429,341.109v4.12l5.626,5.626l-2.059-7.686L270.429,341.109z M271.429,344.815v-1.974l1.708,0.986l0.986,3.682
	L271.429,344.815z M283.99,345.638l1.192,0.69l-0.88,1.525c0.013,0.06,0.009,0.123-0.023,0.179s-0.084,0.086-0.141,0.104
	l-0.885,1.534l-1.19-0.688l-3.051,0.813l-0.817-3.048l-0.333-0.192l0.506,1.889c0.071,0.267-0.087,0.54-0.354,0.612
	c-0.263,0.065-0.54-0.087-0.612-0.354l-1.131-4.221l2.784,1.608l0.665,2.483l1.803-0.481l-0.167-0.667l1.533,0.879l0.34-0.589
	l-7.866-4.542l1.482,5.536c0.036,0.133-0.043,0.271-0.177,0.306c-0.021,0.006-0.043,0.009-0.064,0.009
	c-0.11,0-0.212-0.073-0.241-0.186l-1.614-6.019l-4.998-2.886v5.773l4.404,4.406c0.098,0.098,0.098,0.256,0,0.354
	c-0.049,0.049-0.113,0.073-0.177,0.073c-0.064,0-0.128-0.024-0.177-0.073l-4.051-4.053v9.081h0.679v-1.973l0.538,0.646l1.28-1.28
	l-1.818-1.818v-3.211l3.089,3.088c0.195,0.195,0.195,0.512,0,0.707s-0.512,0.195-0.707,0l-1.382-1.381v0.383l2.232,2.232
	l-2.232,2.233v1.374h-1.76c-0.044,0.042-0.103,0.07-0.169,0.07s-0.125-0.028-0.169-0.07h-1.76v-1.374l-2.232-2.233l2.232-2.232
	v-0.385l-1.382,1.383c-0.195,0.195-0.512,0.195-0.707,0s-0.195-0.512,0-0.707l3.089-3.09v3.213l-1.818,1.818l1.28,1.28l0.533-0.64
	l0.005,1.967h0.679v-9.081l-4.051,4.052c-0.098,0.098-0.256,0.098-0.354,0s-0.098-0.256,0-0.354l4.404-4.405v-5.773l-5.001,2.887
	l-1.613,6.018c-0.029,0.112-0.131,0.186-0.241,0.186c-0.021,0-0.043-0.003-0.064-0.009c-0.134-0.035-0.213-0.173-0.177-0.306
	l1.482-5.534l-7.864,4.54l0.34,0.589l1.535-0.887l-0.169,0.675l1.803,0.481l0.665-2.483l2.783-1.605l-1.133,4.219
	c-0.071,0.267-0.342,0.426-0.612,0.353c-0.267-0.071-0.425-0.346-0.354-0.612l0.507-1.887l-0.332,0.191l-0.817,3.048l-3.051-0.813
	l-1.19,0.688l-0.885-1.534c-0.057-0.019-0.108-0.049-0.141-0.104s-0.036-0.119-0.023-0.179l-0.88-1.525l1.192-0.69l0.816-3.048
	l3.049,0.817l0.333-0.192l-1.887-0.504c-0.267-0.071-0.426-0.346-0.354-0.612c0.072-0.267,0.344-0.421,0.612-0.354l4.219,1.129
	l-2.782,1.608l-2.482-0.667l-0.441,1.649h1.211l-2.12,1.229l0.339,0.588l7.865-4.541l-5.534-1.482
	c-0.134-0.035-0.213-0.173-0.177-0.306c0.035-0.134,0.175-0.21,0.306-0.177l6.018,1.611l5-2.887l-5.001-2.888l-6.017,1.612
	c-0.021,0.006-0.043,0.009-0.064,0.009c-0.11,0-0.212-0.073-0.241-0.186c-0.036-0.133,0.043-0.271,0.177-0.306l5.532-1.483
	l-7.862-4.539l-0.339,0.588l1.587,0.913l-0.717,0.179l0.479,1.788l2.485-0.666l2.782,1.605l-4.22,1.131
	c-0.044,0.011-0.087,0.017-0.13,0.017c-0.221,0-0.423-0.147-0.483-0.37c-0.071-0.268,0.087-0.541,0.354-0.613l1.888-0.506
	l-0.331-0.191l-3.052,0.818l-0.817-3.052l-1.191-0.686l0.881-1.526c-0.014-0.06-0.009-0.124,0.023-0.181
	c0.033-0.057,0.086-0.092,0.145-0.11l0.881-1.526l1.191,0.689l3.049-0.817l0.818,3.049l0.331,0.191l-0.506-1.885
	c-0.071-0.268,0.087-0.541,0.354-0.613c0.27-0.065,0.541,0.088,0.613,0.354l1.131,4.221l-2.782-1.609l-0.666-2.482l-1.906,0.512
	v0.483l-1.262-0.725l-0.339,0.588l7.863,4.54l-1.482-5.535c-0.036-0.133,0.043-0.271,0.177-0.306
	c0.134-0.036,0.271,0.043,0.306,0.177l1.613,6.018l5.001,2.887v-5.774l-4.404-4.405c-0.098-0.098-0.098-0.256,0-0.354
	c0.099-0.099,0.257-0.097,0.354,0l4.051,4.052v-9.08h-0.679v1.975l-0.538-0.646l-1.28,1.28l1.818,1.818v3.211l-3.089-3.088
	c-0.195-0.195-0.195-0.512,0-0.707s0.512-0.195,0.707,0l1.382,1.381v-0.383l-2.232-2.232l2.232-2.233v-1.376h1.76
	c0.044-0.042,0.103-0.07,0.169-0.07s0.125,0.028,0.169,0.07h1.76v1.376l2.232,2.233l-2.232,2.232v0.383l1.382-1.381
	c0.195-0.195,0.512-0.195,0.707,0s0.195,0.512,0,0.707l-3.089,3.088v-3.211l1.818-1.818l-1.28-1.28l-0.533,0.64l-0.005-1.969h-0.679
	v9.08l4.051-4.052c0.098-0.098,0.256-0.098,0.354,0s0.098,0.256,0,0.354l-4.404,4.405v5.774l5.001-2.887l1.613-6.018
	c0.035-0.134,0.177-0.213,0.306-0.177c0.134,0.035,0.213,0.173,0.177,0.306l-1.482,5.535l7.863-4.54l-0.339-0.588l-1.262,0.73
	v-0.489l-1.906-0.511l-0.666,2.481l-2.782,1.609l1.131-4.221c0.072-0.266,0.346-0.418,0.613-0.354
	c0.267,0.072,0.425,0.346,0.354,0.613l-0.506,1.885l0.331-0.191l0.818-3.05l3.049,0.818l1.191-0.689l0.882,1.527
	c0.057,0.019,0.11,0.053,0.144,0.109c0.032,0.057,0.037,0.121,0.023,0.181l0.881,1.526l-1.191,0.686l-0.817,3.052l-3.052-0.818
	l-0.331,0.191l1.888,0.506c0.267,0.072,0.425,0.346,0.354,0.613c-0.061,0.223-0.263,0.37-0.483,0.37
	c-0.043,0-0.086-0.006-0.13-0.017l-4.22-1.131l2.782-1.605l2.485,0.666l0.479-1.788l-0.709-0.177l1.579-0.915l-0.339-0.588
	l-7.862,4.539l5.532,1.483c0.134,0.035,0.213,0.173,0.177,0.306c-0.029,0.112-0.131,0.186-0.241,0.186
	c-0.021,0-0.043-0.003-0.064-0.009l-6.017-1.612l-5.001,2.888l5,2.887l6.018-1.611c0.133-0.034,0.271,0.043,0.306,0.177
	c0.036,0.133-0.043,0.271-0.177,0.306l-5.534,1.482l7.865,4.541l0.339-0.588l-2.125-1.229h1.216l-0.441-1.649l-2.482,0.667
	l-2.782-1.608l4.219-1.129c0.269-0.065,0.541,0.089,0.612,0.354c0.071,0.267-0.088,0.541-0.354,0.612l-1.887,0.504l0.333,0.192
	l3.049-0.817L283.99,345.638z M271.358,339.501l3.566,2.06l7.688-2.06l-7.687-2.06L271.358,339.501z M278.75,339.501l-3.685,0.987
	l-1.707-0.987l1.709-0.987L278.75,339.501z M268.571,341.109l-3.568,2.061l-2.061,7.688l5.629-5.628V341.109z M267.571,344.815
	l-2.697,2.696l0.988-3.684l1.709-0.986V344.815z M267.642,339.501l-3.567-2.06l-7.688,2.06l7.688,2.06L267.642,339.501z
	 M260.25,339.501l3.684-0.987l1.708,0.987l-1.708,0.987L260.25,339.501z M270.429,337.891l3.569-2.061l2.06-7.688l-5.629,5.631
	V337.891z M271.429,334.187l2.697-2.697l-0.987,3.683l-1.71,0.986V334.187z M268.571,337.893v-4.12l-5.629-5.631l2.061,7.69
	L268.571,337.893z M267.571,334.187v1.974l-1.709-0.986l-0.988-3.685L267.571,334.187z"/>
</svg>
