<?xml version="1.0" encoding="utf-8"?>
<!-- Generator: Adobe Illustrator 16.0.0, SVG Export Plug-In . SVG Version: 6.00 Build 0)  -->
<!DOCTYPE svg PUBLIC "-//W3C//DTD SVG 1.1//EN" "http://www.w3.org/Graphics/SVG/1.1/DTD/svg11.dtd">
<svg version="1.1" id="Layer_1" xmlns="http://www.w3.org/2000/svg" xmlns:xlink="http://www.w3.org/1999/xlink" x="0px" y="0px"
	 width="50px" height="50px" viewBox="-245.5 34.5 50 50" enable-background="new -245.5 34.5 50 50" xml:space="preserve">
<path style="fill:white" d="M-203.906,67.038c-0.197-0.736-0.668-1.351-1.327-1.73c-0.432-0.25-0.924-0.382-1.422-0.382
	c-0.759,0-1.479,0.306-2.006,0.826l-3.74-2.16l5.144-1.376c0.4-0.107,0.638-0.519,0.531-0.919c-0.107-0.4-0.519-0.641-0.918-0.53
	l-6.593,1.765L-219,59.782l4.764-2.751l6.589,1.768c0.065,0.018,0.13,0.025,0.195,0.025c0.331,0,0.634-0.221,0.724-0.556
	c0.107-0.4-0.13-0.812-0.53-0.919l-5.141-1.379l3.822-2.206c0.504,0.414,1.134,0.669,1.803,0.669c0.512,0,1.016-0.14,1.459-0.403
	c1.348-0.808,1.788-2.561,0.982-3.907c-0.512-0.856-1.45-1.388-2.447-1.388c-0.513,0-1.018,0.14-1.458,0.404
	c-0.654,0.39-1.117,1.012-1.303,1.751c-0.14,0.555-0.11,1.126,0.079,1.652l-3.688,2.129l1.378-5.142
	c0.107-0.4-0.13-0.812-0.53-0.919s-0.812,0.13-0.919,0.53l-1.766,6.592l-4.762,2.749V52.98l4.823-4.823
	c0.293-0.293,0.293-0.768,0-1.061s-0.768-0.293-1.061,0l-3.763,3.763v-4.263c1.306-0.241,2.316-1.381,2.338-2.754
	c0.022-1.57-1.236-2.868-2.848-2.892c-1.547,0-2.825,1.259-2.85,2.807c-0.011,0.761,0.275,1.48,0.805,2.027
	c0.301,0.31,0.663,0.531,1.055,0.677v4.399l-3.766-3.766c-0.293-0.293-0.768-0.293-1.061,0s-0.293,0.768,0,1.061l4.826,4.826v5.501
	l-4.764-2.75l-1.765-6.591c-0.107-0.4-0.52-0.637-0.918-0.53c-0.4,0.107-0.638,0.519-0.531,0.919l1.377,5.142l-3.746-2.163
	c0.315-1.21-0.187-2.532-1.321-3.188c-0.432-0.25-0.924-0.382-1.421-0.382c-1.016,0-1.962,0.546-2.47,1.425
	c-0.38,0.658-0.481,1.427-0.284,2.161c0.197,0.736,0.668,1.351,1.328,1.73c0.433,0.25,0.924,0.382,1.422,0.382
	c0.759,0,1.478-0.306,2.005-0.825l3.738,2.158l-5.143,1.378c-0.4,0.107-0.637,0.519-0.53,0.919c0.09,0.335,0.393,0.556,0.724,0.556
	c0.064,0,0.129-0.008,0.195-0.025l6.591-1.767l4.763,2.75l-4.763,2.75l-6.592-1.767c-0.399-0.105-0.811,0.131-0.919,0.53
	c-0.107,0.4,0.13,0.812,0.53,0.919l5.144,1.378l-3.823,2.208c-0.907-0.715-2.241-0.876-3.26-0.266
	c-1.346,0.806-1.788,2.558-0.983,3.906c0.512,0.856,1.451,1.388,2.449,1.388c0.512,0,1.016-0.139,1.457-0.402
	c1.186-0.709,1.668-2.149,1.221-3.404l3.688-2.129l-1.378,5.141c-0.107,0.4,0.13,0.812,0.53,0.919
	c0.065,0.018,0.13,0.025,0.195,0.025c0.331,0,0.634-0.221,0.724-0.556l1.766-6.591l4.766-2.751v5.496l-4.826,4.829
	c-0.293,0.293-0.293,0.768,0,1.061c0.146,0.146,0.338,0.22,0.53,0.22s0.384-0.073,0.53-0.22l3.766-3.768v4.269
	c-1.308,0.24-2.317,1.381-2.337,2.754c-0.012,0.761,0.273,1.48,0.803,2.027c0.53,0.546,1.241,0.853,2.002,0.864h0.043c0,0,0,0,0,0
	c1.545,0,2.822-1.258,2.847-2.805c0.011-0.762-0.274-1.481-0.805-2.028c-0.298-0.307-0.658-0.529-1.055-0.675v-4.402l3.763,3.762
	c0.293,0.293,0.768,0.293,1.061,0s0.293-0.768,0-1.061l-4.823-4.821v-5.502l4.761,2.749l1.766,6.592
	c0.09,0.335,0.393,0.556,0.724,0.556c0.064,0,0.129-0.008,0.195-0.025c0.4-0.107,0.637-0.519,0.53-0.919l-1.378-5.143l3.749,2.164
	c-0.125,0.474-0.137,0.972-0.007,1.457c0.197,0.735,0.668,1.35,1.328,1.73c0.432,0.25,0.924,0.382,1.421,0.382
	c1.016,0,1.962-0.546,2.47-1.425C-203.811,68.541-203.709,67.773-203.906,67.038z M-208.086,51.257
	c0.088-0.351,0.307-0.645,0.618-0.83c0.208-0.125,0.446-0.191,0.688-0.191c0.306,0,0.585,0.108,0.817,0.287
	c0.132,0.102,0.253,0.221,0.343,0.37c0.207,0.346,0.227,0.742,0.113,1.099c-0.096,0.302-0.286,0.576-0.578,0.751
	c-0.292,0.174-0.639,0.207-0.962,0.139c-0.362-0.076-0.695-0.282-0.889-0.605c-0.095-0.159-0.152-0.333-0.176-0.512
	C-208.135,51.597-208.129,51.426-208.086,51.257z M-233.785,52.978c-0.389,0.177-0.849,0.2-1.231-0.02
	c-0.312-0.18-0.535-0.471-0.628-0.819c-0.021-0.081-0.01-0.162-0.016-0.243c-0.022-0.271,0.012-0.541,0.15-0.78
	c0.136-0.236,0.343-0.413,0.582-0.529c0.182-0.089,0.381-0.146,0.589-0.146c0.235,0,0.467,0.062,0.671,0.181
	c0.399,0.23,0.611,0.638,0.646,1.065c0.021,0.264-0.009,0.532-0.15,0.777C-233.312,52.704-233.537,52.865-233.785,52.978z
	 M-233.529,69.139c-0.474,0.285-1.08,0.221-1.507-0.097c-0.134-0.101-0.254-0.222-0.342-0.369c-0.207-0.347-0.227-0.744-0.112-1.101
	c0.097-0.302,0.286-0.575,0.577-0.75c0.209-0.125,0.448-0.19,0.69-0.19c0.102,0,0.199,0.017,0.295,0.038
	c0.359,0.078,0.672,0.294,0.866,0.618c0.096,0.161,0.154,0.335,0.177,0.512C-232.816,68.318-233.053,68.854-233.529,69.139z
	 M-220.241,42.451L-220.241,42.451c0.174,0.003,0.339,0.041,0.491,0.104c0.497,0.205,0.846,0.696,0.838,1.266
	c-0.009,0.552-0.355,1.024-0.838,1.225c-0.158,0.066-0.33,0.104-0.511,0.104v0.747l-0.022-0.747
	c-0.359-0.005-0.695-0.149-0.946-0.408c-0.009-0.01-0.012-0.023-0.021-0.033c-0.234-0.255-0.366-0.581-0.36-0.927
	c0.005-0.337,0.147-0.638,0.36-0.872C-221,42.633-220.646,42.451-220.241,42.451z M-220.738,77.113v0.747l-0.021-0.747
	c-0.172-0.003-0.336-0.041-0.491-0.104c-0.169-0.069-0.326-0.169-0.457-0.305c-0.251-0.259-0.386-0.599-0.38-0.96
	c0.008-0.549,0.349-1.021,0.837-1.224c0.163-0.067,0.342-0.104,0.531-0.104c0,0,0,0,0,0c0.36,0.005,0.696,0.15,0.947,0.409
	c0.009,0.01,0.012,0.023,0.021,0.033c0.233,0.255,0.365,0.58,0.359,0.927c-0.005,0.338-0.147,0.64-0.359,0.874
	C-219.997,76.933-220.344,77.113-220.738,77.113z M-207.333,68.943c-0.312-0.181-0.535-0.472-0.628-0.819
	c-0.022-0.082-0.01-0.164-0.016-0.246c-0.021-0.27,0.014-0.538,0.152-0.777c0.136-0.237,0.344-0.414,0.583-0.53
	c0.181-0.088,0.379-0.145,0.588-0.145c0.234,0,0.467,0.062,0.672,0.181c0.312,0.18,0.534,0.471,0.627,0.819
	c0.021,0.081,0.01,0.162,0.016,0.244c0.022,0.27-0.013,0.54-0.151,0.779c-0.138,0.24-0.363,0.4-0.61,0.513
	C-206.489,69.14-206.95,69.164-207.333,68.943z"/>
</svg>
