<?xml version="1.0" encoding="utf-8"?>
<!-- Generator: Adobe Illustrator 16.0.0, SVG Export Plug-In . SVG Version: 6.00 Build 0)  -->
<!DOCTYPE svg PUBLIC "-//W3C//DTD SVG 1.1//EN" "http://www.w3.org/Graphics/SVG/1.1/DTD/svg11.dtd">
<svg version="1.1" id="Layer_1" xmlns="http://www.w3.org/2000/svg" xmlns:xlink="http://www.w3.org/1999/xlink" x="0px" y="0px"
	 width="50px" height="50px" viewBox="-315.5 314.5 50 50" enable-background="new -315.5 314.5 50 50" xml:space="preserve">
<path style="fill:white" d="M-273.105,338.999h-3.522l1.06-1.838c0.138-0.239,0.056-0.545-0.183-0.684c-0.241-0.138-0.545-0.056-0.683,0.184
	l-1.348,2.338h-2.68l2.73-4.729c0.138-0.239,0.056-0.545-0.183-0.683c-0.239-0.141-0.545-0.057-0.683,0.183l-3.019,5.229h-4.149
	l2.777-3.796l-4.752,0.517l2.116-3.664h6.04c0.276,0,0.5-0.224,0.5-0.5s-0.224-0.5-0.5-0.5h-5.462l1.339-2.318h2.701
	c0.276,0,0.5-0.224,0.5-0.5s-0.224-0.5-0.5-0.5h-2.124l1.763-3.053c0.138-0.239,0.056-0.545-0.183-0.683
	c-0.239-0.14-0.545-0.057-0.683,0.183l-1.762,3.052l-1.061-1.839c-0.138-0.239-0.445-0.323-0.683-0.183
	c-0.239,0.138-0.321,0.443-0.183,0.683l1.35,2.339l-1.338,2.318l-2.73-4.728c-0.138-0.239-0.445-0.323-0.683-0.183
	c-0.239,0.138-0.321,0.443-0.183,0.683l3.019,5.228l-2.101,3.639l-1.908-4.326l-1.909,4.326l-2.1-3.638l3.019-5.229
	c0.138-0.239,0.056-0.545-0.183-0.683c-0.24-0.141-0.544-0.057-0.683,0.183l-2.73,4.73l-1.339-2.319l1.351-2.34
	c0.138-0.239,0.056-0.545-0.183-0.683c-0.239-0.141-0.545-0.057-0.683,0.183l-1.062,1.84l-1.763-3.053
	c-0.139-0.239-0.445-0.322-0.683-0.183c-0.239,0.138-0.321,0.443-0.183,0.683l1.761,3.051h-2.122c-0.276,0-0.5,0.224-0.5,0.5
	s0.224,0.5,0.5,0.5h2.699l1.34,2.32h-5.46c-0.276,0-0.5,0.224-0.5,0.5s0.224,0.5,0.5,0.5h6.038l2.116,3.666l-4.752-0.517
	l2.776,3.794h-4.148l-3.021-5.228c-0.138-0.239-0.445-0.322-0.683-0.183c-0.239,0.138-0.321,0.443-0.183,0.683l2.732,4.728h-2.681
	l-1.349-2.338c-0.139-0.239-0.445-0.322-0.683-0.183c-0.239,0.138-0.321,0.443-0.183,0.683l1.061,1.838h-3.521
	c-0.276,0-0.5,0.224-0.5,0.5s0.224,0.5,0.5,0.5h3.524l-1.062,1.841c-0.138,0.239-0.056,0.545,0.183,0.684
	c0.079,0.045,0.165,0.066,0.25,0.066c0.173,0,0.341-0.09,0.434-0.25l1.35-2.341h2.68l-2.733,4.73
	c-0.138,0.239-0.056,0.545,0.183,0.683c0.079,0.046,0.165,0.067,0.25,0.067c0.173,0,0.341-0.09,0.434-0.25l3.022-5.23h4.21
	l-2.84,3.88l4.701-0.511l-2.065,3.576h-6.036c-0.276,0-0.5,0.224-0.5,0.5s0.224,0.5,0.5,0.5h5.458l-1.338,2.318h-2.701
	c-0.276,0-0.5,0.224-0.5,0.5s0.224,0.5,0.5,0.5h2.123l-1.761,3.051c-0.138,0.239-0.056,0.545,0.183,0.683
	c0.079,0.046,0.165,0.067,0.25,0.067c0.173,0,0.341-0.09,0.434-0.25l1.762-3.052l1.062,1.841c0.093,0.16,0.261,0.25,0.434,0.25
	c0.085,0,0.171-0.021,0.25-0.067c0.239-0.138,0.321-0.443,0.183-0.683l-1.352-2.341l1.339-2.319l2.731,4.73
	c0.093,0.16,0.261,0.25,0.434,0.25c0.085,0,0.171-0.021,0.25-0.067c0.239-0.138,0.321-0.443,0.183-0.683l-3.02-5.23l2.08-3.602
	l1.929,4.375l1.93-4.374l2.08,3.602l-3.02,5.229c-0.138,0.239-0.056,0.545,0.183,0.683c0.079,0.046,0.165,0.067,0.25,0.067
	c0.173,0,0.341-0.09,0.434-0.25l2.731-4.729l1.339,2.319l-1.349,2.338c-0.138,0.239-0.056,0.545,0.183,0.683
	c0.079,0.046,0.165,0.067,0.25,0.067c0.173,0,0.341-0.09,0.434-0.25l1.061-1.838l1.762,3.053c0.093,0.16,0.261,0.25,0.434,0.25
	c0.085,0,0.171-0.021,0.25-0.067c0.239-0.138,0.321-0.443,0.183-0.683l-1.763-3.053h2.124c0.276,0,0.5-0.224,0.5-0.5
	s-0.224-0.5-0.5-0.5h-2.701l-1.34-2.32l5.462,0.002c0.276,0,0.5-0.224,0.5-0.5s-0.224-0.5-0.5-0.5l-6.039-0.002l-2.065-3.576
	l4.702,0.511l-2.84-3.878h4.21l3.02,5.231c0.093,0.16,0.261,0.25,0.434,0.25c0.085,0,0.171-0.021,0.25-0.067
	c0.239-0.138,0.321-0.443,0.183-0.683l-2.732-4.731h2.681l1.351,2.34c0.093,0.16,0.261,0.25,0.434,0.25
	c0.085,0,0.171-0.021,0.25-0.067c0.239-0.138,0.321-0.443,0.183-0.683l-1.063-1.84h3.523c0.276,0,0.5-0.224,0.5-0.5
	S-272.829,338.999-273.105,338.999z M-288.949,342.225l-0.24,0.544l-1.311,2.969l-1.309-2.971l-0.239-0.543l-0.643,0.07
	l-3.174,0.345l1.933-2.64l0.334-0.457l-0.397-0.543l-1.87-2.556l3.226,0.351l0.589,0.063l0.261-0.592l1.29-2.922l1.289,2.923
	l0.261,0.592l0.589-0.064l3.227-0.351l-1.87,2.556l-0.397,0.543l0.334,0.457l1.933,2.64l-3.174-0.345L-288.949,342.225z"/>
</svg>
