<?xml version="1.0" encoding="utf-8"?>
<!-- Generator: Adobe Illustrator 16.0.0, SVG Export Plug-In . SVG Version: 6.00 Build 0)  -->
<!DOCTYPE svg PUBLIC "-//W3C//DTD SVG 1.1//EN" "http://www.w3.org/Graphics/SVG/1.1/DTD/svg11.dtd">
<svg version="1.1" id="Layer_1" xmlns="http://www.w3.org/2000/svg" xmlns:xlink="http://www.w3.org/1999/xlink" x="0px" y="0px"
	 width="50px" height="50px" viewBox="104.5 -315.5 50 50" enable-background="new 104.5 -315.5 50 50" xml:space="preserve">
<path style="fill:white" d="M133.184-300.162c0.414,0,0.75,0.336,0.75,0.75v3.417l3.761-3.761c0.293-0.293,0.768-0.293,1.061,0s0.293,0.768,0,1.061
	l-3.761,3.761h3.418c0.414,0,0.75,0.336,0.75,0.75s-0.336,0.75-0.75,0.75h-5.229h-0.75v-0.75v-5.228
	C132.434-299.826,132.77-300.162,133.184-300.162z M123.977-294.796l-3.055,0c-0.414,0-0.75,0.336-0.75,0.75s0.336,0.75,0.75,0.75
	l5.782,0v-5.783c0-0.414-0.336-0.75-0.75-0.75s-0.75,0.336-0.75,0.75v3.396l-3.887-4.061c-0.287-0.3-0.762-0.31-1.061-0.023
	c-0.299,0.287-0.31,0.761-0.023,1.061L123.977-294.796z M145.25-290.5c0,0.414-0.336,0.75-0.75,0.75h-3.289l1.8,1.8
	c0.293,0.293,0.293,0.768,0,1.061c-0.146,0.146-0.338,0.22-0.53,0.22s-0.384-0.073-0.53-0.22l-2.86-2.86h-4.153l-3.237,1.449
	l-1.449,3.237v4.154l2.859,2.86c0.293,0.293,0.293,0.768,0,1.061c-0.146,0.146-0.338,0.22-0.53,0.22s-0.384-0.073-0.53-0.22
	l-1.799-1.799v3.289c0,0.414-0.336,0.75-0.75,0.75s-0.75-0.336-0.75-0.75v-3.289l-1.8,1.8c-0.293,0.293-0.768,0.293-1.061,0
	s-0.293-0.768,0-1.061l2.86-2.86v-4.154l-1.449-3.237l-3.237-1.449h-4.153l-2.86,2.859c-0.146,0.146-0.339,0.22-0.53,0.22
	c-0.192,0-0.384-0.073-0.53-0.22c-0.293-0.293-0.293-0.768,0-1.061l1.8-1.799H114.5c-0.414,0-0.75-0.336-0.75-0.75
	s0.336-0.75,0.75-0.75h3.289l-1.8-1.8c-0.293-0.293-0.293-0.768,0-1.061s0.768-0.293,1.061,0l2.86,2.86h4.153l3.237-1.449
	l1.449-3.237v-4.154l-2.859-2.86c-0.293-0.293-0.293-0.768,0-1.061c0.293-0.293,0.768-0.293,1.061,0l1.799,1.799v-3.289
	c0-0.414,0.336-0.75,0.75-0.75s0.75,0.336,0.75,0.75v3.289l1.8-1.8c0.293-0.293,0.768-0.293,1.061,0s0.293,0.768,0,1.061l-2.86,2.86
	v4.154l1.449,3.237l3.237,1.449h4.153l2.86-2.859c0.294-0.293,0.769-0.292,1.061,0c0.293,0.293,0.293,0.768,0,1.061l-1.8,1.799
	h3.289C144.914-291.25,145.25-290.914,145.25-290.5z M132.941-290.5l-1.675-0.75l-0.702-0.314l-0.314-0.702l-0.75-1.674l-0.75,1.674
	l-0.314,0.702l-0.702,0.314l-1.675,0.75l1.675,0.75l0.702,0.314l0.314,0.702l0.75,1.674l0.75-1.674l0.314-0.702l0.702-0.314
	L132.941-290.5z M135.023-286.204h3.055c0.414,0,0.75-0.336,0.75-0.75s-0.336-0.75-0.75-0.75h-5.782v5.783
	c0,0.414,0.336,0.75,0.75,0.75s0.75-0.336,0.75-0.75v-3.396l3.887,4.061c0.147,0.154,0.345,0.231,0.542,0.231
	c0.187,0,0.373-0.069,0.519-0.208c0.299-0.287,0.31-0.761,0.023-1.061L135.023-286.204z M126.566-281.587v-5.229v-0.75h-0.75h-5.229
	c-0.414,0-0.75,0.336-0.75,0.75s0.336,0.75,0.75,0.75h3.418l-3.761,3.761c-0.293,0.293-0.293,0.768,0,1.061
	c0.146,0.146,0.338,0.22,0.53,0.22s0.384-0.073,0.53-0.22l3.761-3.761v3.418c0,0.414,0.336,0.75,0.75,0.75
	S126.566-281.173,126.566-281.587z"/>
</svg>
