<?xml version="1.0" encoding="utf-8"?>
<!-- Generator: Adobe Illustrator 16.0.0, SVG Export Plug-In . SVG Version: 6.00 Build 0)  -->
<!DOCTYPE svg PUBLIC "-//W3C//DTD SVG 1.1//EN" "http://www.w3.org/Graphics/SVG/1.1/DTD/svg11.dtd">
<svg version="1.1" id="Layer_1" xmlns="http://www.w3.org/2000/svg" xmlns:xlink="http://www.w3.org/1999/xlink" x="0px" y="0px"
	 width="50px" height="50px" viewBox="-105.5 -35.5 50 50" enable-background="new -105.5 -35.5 50 50" xml:space="preserve">
<path style="fill:white" d="M-65.5-11h-1.665l1.519-1.52c0.195-0.195,0.195-0.512,0-0.707s-0.512-0.195-0.707,0L-68.579-11h-1.842l0.882-0.882
	c0.195-0.195,0.195-0.512,0-0.707s-0.512-0.195-0.707,0L-71.835-11h-7.457l9.753-9.753c0.195-0.195,0.195-0.512,0-0.707
	s-0.512-0.195-0.707,0L-80-11.706v-7.458l1.588-1.59c0.195-0.196,0.195-0.512,0-0.708c-0.195-0.194-0.512-0.195-0.708,0L-80-20.579
	v-1.841l2.225-2.227c0.195-0.195,0.195-0.512,0-0.707c-0.195-0.195-0.512-0.195-0.707,0L-80-23.835V-25.5c0-0.276-0.224-0.5-0.5-0.5
	s-0.5,0.224-0.5,0.5v1.666l-1.519-1.519c-0.195-0.195-0.512-0.195-0.707,0s-0.195,0.512,0,0.707L-81-22.42v1.842l-0.882-0.883
	c-0.195-0.195-0.512-0.195-0.707,0s-0.195,0.512,0,0.707l1.589,1.59v7.456l-9.752-9.752c-0.195-0.195-0.512-0.195-0.707,0
	s-0.195,0.512,0,0.707L-81.706-11h-7.458l-1.59-1.588c-0.195-0.194-0.512-0.195-0.708,0c-0.195,0.196-0.195,0.512,0,0.708
	l0.882,0.88h-1.841l-2.227-2.224c-0.195-0.195-0.512-0.195-0.707,0s-0.195,0.512,0,0.707L-93.835-11H-95.5
	c-0.276,0-0.5,0.224-0.5,0.5s0.224,0.5,0.5,0.5h1.666l-1.519,1.52c-0.195,0.195-0.195,0.512,0,0.707
	c0.098,0.098,0.226,0.146,0.354,0.146s0.256-0.049,0.354-0.146L-92.419-10h1.841l-0.883,0.882c-0.195,0.195-0.195,0.512,0,0.707
	c0.098,0.098,0.226,0.146,0.354,0.146s0.256-0.049,0.354-0.146l1.59-1.589h7.458l-9.753,9.753c-0.195,0.195-0.195,0.512,0,0.707
	c0.098,0.098,0.226,0.146,0.354,0.146s0.256-0.049,0.354-0.146L-81-9.292v7.457l-1.588,1.589c-0.195,0.195-0.195,0.512,0,0.707
	c0.098,0.098,0.226,0.146,0.354,0.146s0.256-0.049,0.354-0.146L-81-0.42v1.84l-2.224,2.227c-0.195,0.195-0.195,0.512,0,0.707
	c0.195,0.195,0.512,0.195,0.707,0L-81,2.835V4.5c0,0.276,0.224,0.5,0.5,0.5S-80,4.776-80,4.5V2.834l1.52,1.519
	c0.098,0.098,0.226,0.146,0.354,0.146s0.256-0.049,0.354-0.146c0.195-0.195,0.195-0.512,0-0.707L-80,1.419v-1.84l0.882,0.882
	c0.195,0.195,0.512,0.195,0.707,0s0.195-0.512,0-0.707L-80-1.835v-7.459l9.754,9.754c0.098,0.098,0.226,0.146,0.354,0.146
	s0.256-0.049,0.354-0.146c0.195-0.195,0.195-0.512,0-0.707L-79.292-10h7.457l1.589,1.588c0.098,0.098,0.226,0.146,0.354,0.146
	s0.256-0.049,0.354-0.146c0.195-0.195,0.195-0.512,0-0.707L-70.42-10h1.841l2.226,2.224c0.098,0.098,0.226,0.146,0.354,0.146
	s0.256-0.049,0.354-0.146c0.195-0.195,0.195-0.512,0-0.707L-67.165-10h1.665c0.276,0,0.5-0.224,0.5-0.5S-65.224-11-65.5-11z"/>
</svg>
