<?xml version="1.0" encoding="utf-8"?>
<!-- Generator: Adobe Illustrator 16.0.0, SVG Export Plug-In . SVG Version: 6.00 Build 0)  -->
<!DOCTYPE svg PUBLIC "-//W3C//DTD SVG 1.1//EN" "http://www.w3.org/Graphics/SVG/1.1/DTD/svg11.dtd">
<svg version="1.1" id="Layer_1" xmlns="http://www.w3.org/2000/svg" xmlns:xlink="http://www.w3.org/1999/xlink" x="0px" y="0px"
	 width="50px" height="50px" viewBox="-105.5 -175.5 50 50" enable-background="new -105.5 -175.5 50 50" xml:space="preserve">
<path style="fill:white" d="M-65.261-144.176c0-0.179-0.096-0.343-0.25-0.433l-1.893-1.094c-0.154-0.089-0.345-0.089-0.5,0l-1.7,0.981l-6.215-3.588
	l2.628-0.704c0.267-0.071,0.425-0.346,0.354-0.612c-0.071-0.267-0.346-0.425-0.612-0.354l-3.594,0.962l-2.458-1.419l2.46-1.42
	l3.592,0.962c0.043,0.012,0.087,0.017,0.13,0.017c0.221,0,0.423-0.147,0.482-0.371c0.071-0.267-0.087-0.541-0.354-0.612
	l-2.626-0.703l6.322-3.65l1.587,0.916c0.078,0.044,0.164,0.067,0.25,0.067s0.172-0.022,0.25-0.067l1.895-1.092
	c0.155-0.089,0.25-0.254,0.25-0.433l-0.002-1.162l0.001-1.025c0-0.179-0.095-0.344-0.25-0.434l-1.894-1.092
	c-0.154-0.089-0.345-0.089-0.5,0l-1.892,1.091c-0.155,0.089-0.251,0.254-0.251,0.433v1.962l-6.268,3.619l0.704-2.627
	c0.071-0.267-0.087-0.541-0.354-0.612c-0.266-0.069-0.54,0.087-0.612,0.354l-0.963,3.593l-2.459,1.42v-2.839l2.63-2.631
	c0.195-0.195,0.195-0.512,0-0.707s-0.512-0.195-0.707,0L-80-155.555v-7.305l1.643-0.948c0.155-0.089,0.25-0.254,0.25-0.433v-2.186
	c0-0.178-0.095-0.343-0.249-0.433l-1.894-1.094c-0.154-0.089-0.345-0.089-0.5,0l-1.894,1.094c-0.154,0.089-0.25,0.254-0.25,0.433
	v2.186c0,0.179,0.095,0.344,0.25,0.433l1.644,0.948v7.305l-1.923-1.924c-0.195-0.195-0.512-0.195-0.707,0s-0.195,0.512,0,0.707
	l2.63,2.631v2.839l-2.459-1.42l-0.963-3.593c-0.071-0.267-0.346-0.423-0.612-0.354c-0.267,0.071-0.425,0.346-0.354,0.612
	l0.704,2.627l-6.269-3.619l0.001-0.939l-0.001-1.023c0-0.179-0.096-0.343-0.25-0.433l-1.893-1.092c-0.154-0.089-0.345-0.09-0.499,0
	l-1.894,1.092c-0.155,0.089-0.25,0.254-0.25,0.433l-0.001,2.186c0,0.179,0.095,0.344,0.25,0.433l1.894,1.094
	c0.078,0.044,0.164,0.067,0.25,0.067s0.172-0.022,0.25-0.067l1.586-0.917l6.324,3.651l-2.626,0.703
	c-0.267,0.071-0.425,0.346-0.354,0.612c0.06,0.223,0.262,0.371,0.482,0.371c0.043,0,0.086-0.005,0.13-0.017l3.592-0.962l2.46,1.42
	l-2.458,1.419l-3.594-0.962c-0.265-0.071-0.541,0.087-0.612,0.354c-0.071,0.267,0.087,0.541,0.354,0.612l2.628,0.704l-6.216,3.589
	l-1.7-0.98c-0.155-0.089-0.345-0.088-0.499,0l-1.891,1.091c-0.155,0.089-0.251,0.254-0.251,0.433l-0.001,1.027l0.001,0.135
	l-0.001,1.023c0,0.179,0.095,0.344,0.25,0.434l1.894,1.094c0.078,0.044,0.164,0.067,0.25,0.067s0.172-0.022,0.25-0.067l1.893-1.094
	c0.155-0.089,0.25-0.254,0.25-0.433l-0.001-1.162l0-0.67l6.27-3.62l-0.703,2.625c-0.071,0.267,0.087,0.541,0.354,0.612
	c0.043,0.012,0.087,0.017,0.13,0.017c0.221,0,0.423-0.147,0.482-0.371l0.961-3.591l2.46-1.42v2.839l-2.63,2.631
	c-0.195,0.195-0.195,0.512,0,0.707s0.512,0.195,0.707,0l1.923-1.924v7.176l-1.644,0.948c-0.155,0.089-0.25,0.254-0.25,0.433v2.186
	c0,0.178,0.095,0.343,0.25,0.433l1.894,1.094c0.078,0.044,0.164,0.067,0.25,0.067s0.173-0.022,0.25-0.067l1.893-1.094
	c0.154-0.089,0.25-0.254,0.25-0.433v-2.186c0-0.179-0.095-0.344-0.25-0.433L-80-138.141v-7.176l1.923,1.924
	c0.098,0.098,0.226,0.146,0.354,0.146s0.256-0.049,0.354-0.146c0.195-0.195,0.195-0.512,0-0.707L-80-146.73v-2.839l2.46,1.42
	l0.961,3.591c0.06,0.223,0.262,0.371,0.482,0.371c0.043,0,0.086-0.005,0.13-0.017c0.267-0.071,0.425-0.346,0.354-0.612l-0.703-2.625
	l6.269,3.62v1.833c0,0.179,0.095,0.344,0.25,0.433l1.894,1.094c0.078,0.044,0.164,0.067,0.25,0.067s0.172-0.022,0.25-0.067
	l1.893-1.094c0.155-0.089,0.25-0.254,0.25-0.433l0.001-1.163L-65.261-144.176z M-69.048-158.72l1.394-0.804l1.393,0.803l0.001,1.61
	l-1.395,0.803l-1.393-0.804l-0.001-0.873L-69.048-158.72z M-93.346-156.308l-1.394-0.805l0.001-1.608l1.392-0.803l1.394,0.804
	l0,1.608L-93.346-156.308z M-93.347-141.474l-1.393-0.805l0-0.738l-0.001-0.135l0-0.734l1.393-0.804l1.385,0.799
	c0.003,0.007,0.004,0.014,0.007,0.021l0,1.592L-93.347-141.474z M-81.894-164.529v-1.609l1.394-0.805l1.393,0.805v1.609
	l-1.393,0.803L-81.894-164.529z M-79.107-136.471v1.609l-1.393,0.805l-1.394-0.805v-1.609l1.33-0.766
	c0.022,0.003,0.042,0.013,0.064,0.013s0.042-0.01,0.064-0.013L-79.107-136.471z M-66.261-142.279l-1.393,0.805l-1.394-0.805
	l0.001-0.874l0-0.715c0.003-0.008,0.005-0.016,0.008-0.024l1.384-0.8l1.394,0.806L-66.261-142.279z"/>
</svg>
