<?xml version="1.0" encoding="utf-8"?>
<!-- Generator: Adobe Illustrator 16.0.0, SVG Export Plug-In . SVG Version: 6.00 Build 0)  -->
<!DOCTYPE svg PUBLIC "-//W3C//DTD SVG 1.1//EN" "http://www.w3.org/Graphics/SVG/1.1/DTD/svg11.dtd">
<svg version="1.1" id="Layer_1" xmlns="http://www.w3.org/2000/svg" xmlns:xlink="http://www.w3.org/1999/xlink" x="0px" y="0px"
	 width="50px" height="50px" viewBox="-105.5 34.5 50 50" enable-background="new -105.5 34.5 50 50" xml:space="preserve">
<path style="fill:white" d="M-65.5,59h-1.729l-1.532-1.531c-0.195-0.195-0.512-0.195-0.707,0s-0.195,0.512,0,0.707L-68.643,59h-0.509l-1.907-1.906
	c-0.195-0.195-0.512-0.195-0.707,0s-0.195,0.512,0,0.707l1.2,1.199h-8.726l9.752-9.753c0.195-0.195,0.195-0.512,0-0.707
	s-0.512-0.195-0.707,0L-80,58.293v-8.724l1.198,1.198c0.195,0.195,0.512,0.195,0.707,0s0.195-0.512,0-0.707L-80,48.155v-0.511
	l0.823,0.822c0.195,0.195,0.512,0.195,0.708,0c0.195-0.195,0.195-0.512,0-0.707L-80,46.23V44.5c0-0.276-0.224-0.5-0.5-0.5
	s-0.5,0.224-0.5,0.5v1.729l-1.53,1.53c-0.195,0.195-0.195,0.512,0,0.707c0.098,0.098,0.226,0.146,0.354,0.146
	s0.256-0.049,0.354-0.146L-81,47.644v0.51l-1.905,1.907c-0.195,0.195-0.195,0.512,0,0.707c0.098,0.098,0.226,0.146,0.354,0.146
	s0.256-0.049,0.354-0.146L-81,49.568v8.725l-9.753-9.753c-0.195-0.195-0.512-0.195-0.707,0s-0.195,0.512,0,0.707L-81.708,59h-8.723
	l1.197-1.197c0.195-0.195,0.195-0.512,0-0.707s-0.512-0.195-0.707,0L-91.845,59h-0.509l0.822-0.822c0.195-0.195,0.195-0.512,0-0.707
	s-0.512-0.195-0.707,0L-93.769,59H-95.5c-0.276,0-0.5,0.224-0.5,0.5s0.224,0.5,0.5,0.5h1.728l1.533,1.531
	c0.098,0.098,0.226,0.146,0.354,0.146s0.256-0.049,0.354-0.146c0.195-0.195,0.195-0.512,0-0.707L-92.357,60h0.509l1.908,1.906
	c0.098,0.098,0.226,0.146,0.354,0.146s0.256-0.049,0.354-0.146c0.195-0.195,0.195-0.512,0-0.707l-1.2-1.199h8.727l-9.753,9.754
	c-0.195,0.195-0.195,0.512,0,0.707c0.098,0.098,0.226,0.146,0.354,0.146s0.256-0.049,0.354-0.146L-81,60.708v8.723l-1.198-1.198
	c-0.195-0.195-0.512-0.195-0.707,0s-0.195,0.512,0,0.707L-81,70.845v0.511l-0.823-0.822c-0.195-0.195-0.512-0.195-0.708,0
	c-0.195,0.195-0.195,0.512,0,0.707L-81,72.77v1.73c0,0.276,0.224,0.5,0.5,0.5s0.5-0.224,0.5-0.5v-1.729l1.53-1.53
	c0.195-0.195,0.195-0.512,0-0.707s-0.512-0.195-0.707,0L-80,71.356v-0.51l1.905-1.907c0.195-0.195,0.195-0.512,0-0.707
	s-0.512-0.195-0.707,0L-80,69.432v-8.724l9.753,9.753c0.098,0.098,0.226,0.146,0.354,0.146s0.256-0.049,0.354-0.146
	c0.195-0.195,0.195-0.512,0-0.707L-79.293,60h8.725l-1.198,1.197c-0.195,0.195-0.195,0.512,0,0.707
	c0.098,0.098,0.226,0.146,0.354,0.146s0.256-0.049,0.354-0.146L-69.154,60h0.509l-0.823,0.822c-0.195,0.195-0.195,0.512,0,0.707
	c0.098,0.098,0.226,0.146,0.354,0.146s0.256-0.049,0.354-0.146L-67.23,60h1.73c0.276,0,0.5-0.224,0.5-0.5S-65.224,59-65.5,59z"/>
</svg>
