<?xml version="1.0" encoding="utf-8"?>
<!-- Generator: Adobe Illustrator 16.0.0, SVG Export Plug-In . SVG Version: 6.00 Build 0)  -->
<!DOCTYPE svg PUBLIC "-//W3C//DTD SVG 1.1//EN" "http://www.w3.org/Graphics/SVG/1.1/DTD/svg11.dtd">
<svg version="1.1" id="Layer_1" xmlns="http://www.w3.org/2000/svg" xmlns:xlink="http://www.w3.org/1999/xlink" x="0px" y="0px"
	 width="50px" height="50px" viewBox="244.5 -315.5 50 50" enable-background="new 244.5 -315.5 50 50" xml:space="preserve">
<path style="fill:white" d="M284.5-291.25h-5.778l3.979-3.979c0.293-0.293,0.293-0.768,0-1.061s-0.768-0.293-1.061,0l-5.04,5.04h-1.664l-3.237-1.449
	l-1.449-3.237v-1.953l5.244-5.245c0.293-0.293,0.293-0.768,0-1.061s-0.768-0.293-1.061,0l-4.184,4.184v-5.49
	c0-0.414-0.336-0.75-0.75-0.75s-0.75,0.336-0.75,0.75v5.49l-4.184-4.184c-0.293-0.293-0.768-0.293-1.061,0s-0.293,0.768,0,1.061
	l5.244,5.245v1.953l-1.449,3.237l-3.237,1.449h-1.664l-5.04-5.04c-0.293-0.293-0.768-0.293-1.061,0s-0.293,0.768,0,1.061
	l3.979,3.979H254.5c-0.414,0-0.75,0.336-0.75,0.75s0.336,0.75,0.75,0.75h5.778l-3.979,3.979c-0.293,0.293-0.293,0.768,0,1.061
	c0.146,0.146,0.338,0.22,0.53,0.22s0.384-0.073,0.53-0.22l5.04-5.04h1.664l3.237,1.449l1.449,3.237v1.952l-5.244,5.245
	c-0.293,0.293-0.293,0.768,0,1.061s0.768,0.293,1.061,0l4.184-4.185v5.491c0,0.414,0.336,0.75,0.75,0.75s0.75-0.336,0.75-0.75v-5.49
	l4.184,4.185c0.146,0.146,0.338,0.22,0.53,0.22s0.384-0.073,0.53-0.22c0.293-0.293,0.293-0.768,0-1.061l-5.244-5.246v-1.952
	l1.449-3.237l3.237-1.449h1.664l5.04,5.04c0.146,0.146,0.338,0.22,0.53,0.22s0.384-0.073,0.53-0.22c0.293-0.293,0.293-0.768,0-1.061
	l-3.979-3.979h5.778c0.414,0,0.75-0.336,0.75-0.75S284.914-291.25,284.5-291.25z M271.267-289.75l-0.702,0.314l-0.314,0.702
	l-0.75,1.674l-0.75-1.674l-0.314-0.702l-0.702-0.314l-1.675-0.75l1.675-0.75l0.702-0.314l0.314-0.702l0.75-1.674l0.75,1.674
	l0.314,0.702l0.702,0.314l1.675,0.75L271.267-289.75z"/>
</svg>
