<?xml version="1.0" encoding="utf-8"?>
<!-- Generator: Adobe Illustrator 16.0.0, SVG Export Plug-In . SVG Version: 6.00 Build 0)  -->
<!DOCTYPE svg PUBLIC "-//W3C//DTD SVG 1.1//EN" "http://www.w3.org/Graphics/SVG/1.1/DTD/svg11.dtd">
<svg version="1.1" id="Layer_1" xmlns="http://www.w3.org/2000/svg" xmlns:xlink="http://www.w3.org/1999/xlink" x="0px" y="0px"
	 width="50px" height="50px" viewBox="-175.5 -315.5 50 50" enable-background="new -175.5 -315.5 50 50" xml:space="preserve">
<path style="fill:white" d="M-135.5-291.25h-3.289l1.799-1.799c0.293-0.292,0.293-0.768,0-1.061s-0.768-0.293-1.061,0l-2.86,2.859h-3.629v-3.711h4.479
	c0.414,0,0.75-0.336,0.75-0.75s-0.336-0.75-0.75-0.75h-3.418l3.614-3.614c0.293-0.293,0.293-0.768,0-1.061s-0.768-0.293-1.061,0
	l-3.614,3.614v-3.417c0-0.414-0.336-0.75-0.75-0.75s-0.75,0.336-0.75,0.75v4.478h-3.711v-3.629l2.86-2.86
	c0.293-0.293,0.293-0.768,0-1.061s-0.768-0.293-1.061,0l-1.8,1.8v-3.289c0-0.414-0.336-0.75-0.75-0.75s-0.75,0.336-0.75,0.75v3.289
	l-1.799-1.799c-0.293-0.293-0.768-0.293-1.061,0c-0.293,0.292-0.293,0.768,0,1.061l2.859,2.86v3.629h-3.71v-4.478
	c0-0.414-0.336-0.75-0.75-0.75s-0.75,0.336-0.75,0.75v3.417l-3.614-3.614c-0.293-0.293-0.768-0.293-1.061,0s-0.293,0.768,0,1.061
	l3.614,3.614h-3.418c-0.414,0-0.75,0.336-0.75,0.75s0.336,0.75,0.75,0.75h4.479v3.711h-3.63l-2.86-2.86
	c-0.293-0.293-0.768-0.293-1.061,0s-0.293,0.768,0,1.061l1.8,1.8h-3.289c-0.414,0-0.75,0.336-0.75,0.75s0.336,0.75,0.75,0.75h3.289
	l-1.799,1.799c-0.293,0.292-0.293,0.768,0,1.061c0.146,0.146,0.338,0.22,0.53,0.22s0.384-0.073,0.53-0.22l2.86-2.859h3.63v3.72
	h-4.479c-0.414,0-0.75,0.336-0.75,0.75s0.336,0.75,0.75,0.75h3.418l-3.614,3.614c-0.293,0.293-0.293,0.768,0,1.061
	c0.146,0.146,0.338,0.22,0.53,0.22s0.384-0.073,0.53-0.22l3.614-3.614v3.417c0,0.414,0.336,0.75,0.75,0.75s0.75-0.336,0.75-0.75
	v-4.486h3.71v3.629l-2.86,2.86c-0.293,0.293-0.293,0.768,0,1.061s0.768,0.293,1.061,0l1.8-1.8v3.289c0,0.414,0.336,0.75,0.75,0.75
	s0.75-0.336,0.75-0.75v-3.289l1.799,1.799c0.146,0.146,0.338,0.22,0.53,0.22s0.384-0.073,0.53-0.22c0.293-0.292,0.293-0.768,0-1.061
	l-2.859-2.86v-3.629h3.711v4.486c0,0.414,0.336,0.75,0.75,0.75s0.75-0.336,0.75-0.75v-3.417l3.614,3.614
	c0.146,0.146,0.338,0.22,0.53,0.22s0.384-0.073,0.53-0.22c0.293-0.293,0.293-0.768,0-1.061l-3.614-3.614h3.418
	c0.414,0,0.75-0.336,0.75-0.75s-0.336-0.75-0.75-0.75h-4.479v-3.72h3.629l2.86,2.86c0.146,0.146,0.338,0.22,0.53,0.22
	s0.384-0.073,0.53-0.22c0.293-0.293,0.293-0.768,0-1.061l-1.8-1.8h3.289c0.414,0,0.75-0.336,0.75-0.75S-135.086-291.25-135.5-291.25
	z M-146.039-289.75v3.711h-3.711h-1.5h-3.71v-3.711v-1.5v-3.711h3.71h1.5h3.711v3.711V-289.75z"/>
</svg>
