<?xml version="1.0" encoding="utf-8"?>
<!-- Generator: Adobe Illustrator 16.0.0, SVG Export Plug-In . SVG Version: 6.00 Build 0)  -->
<!DOCTYPE svg PUBLIC "-//W3C//DTD SVG 1.1//EN" "http://www.w3.org/Graphics/SVG/1.1/DTD/svg11.dtd">
<svg version="1.1" id="Layer_1" xmlns="http://www.w3.org/2000/svg" xmlns:xlink="http://www.w3.org/1999/xlink" x="0px" y="0px"
	 width="50px" height="50px" viewBox="314.5 104.5 50 50" enable-background="new 314.5 104.5 50 50" xml:space="preserve">
<path style="fill:white" d="M354.5,128.75h-2.43l1.368-1.368c0.293-0.293,0.293-0.768,0-1.061s-0.768-0.293-1.061,0l-2.429,2.429h-2.439l3.118-3.118
	c0.293-0.293,0.293-0.768,0-1.061s-0.768-0.293-1.061,0l-3.472,3.472c-0.58-2.624-2.687-4.678-5.339-5.179l3.844-3.844
	c0.293-0.293,0.293-0.768,0-1.061s-0.768-0.293-1.061,0l-3.29,3.29v-2.449l2.179-2.179c0.293-0.293,0.293-0.768,0-1.061
	s-0.768-0.293-1.061,0l-1.118,1.118v-2.18c0-0.414-0.336-0.75-0.75-0.75s-0.75,0.336-0.75,0.75v2.68l-1.618-1.618
	c-0.293-0.293-0.768-0.293-1.061,0s-0.293,0.768,0,1.061l2.679,2.679v1.949l-3.29-3.29c-0.293-0.293-0.768-0.293-1.061,0
	s-0.293,0.768,0,1.061l3.844,3.844c-2.652,0.501-4.759,2.555-5.339,5.179l-3.472-3.472c-0.293-0.293-0.768-0.293-1.061,0
	s-0.293,0.768,0,1.061l3.118,3.118h-2.439l-2.429-2.429c-0.293-0.293-0.768-0.293-1.061,0s-0.293,0.768,0,1.061l1.368,1.368h-2.43
	c-0.414,0-0.75,0.336-0.75,0.75s0.336,0.75,0.75,0.75h2.43l-1.368,1.367c-0.293,0.293-0.293,0.768,0,1.061
	c0.146,0.146,0.338,0.22,0.53,0.22c0.191,0,0.384-0.073,0.53-0.22l2.429-2.428h2.439l-3.118,3.118c-0.293,0.293-0.293,0.768,0,1.061
	c0.146,0.146,0.338,0.22,0.53,0.22s0.384-0.073,0.53-0.22l3.472-3.472c0.58,2.624,2.687,4.678,5.339,5.179l-3.844,3.844
	c-0.293,0.293-0.293,0.768,0,1.061s0.768,0.293,1.061,0l3.29-3.29v1.949l-2.679,2.679c-0.293,0.293-0.293,0.768,0,1.061
	s0.768,0.293,1.061,0l1.618-1.618v2.68c0,0.414,0.336,0.75,0.75,0.75s0.75-0.336,0.75-0.75v-2.18l1.118,1.118
	c0.146,0.146,0.338,0.22,0.53,0.22s0.384-0.073,0.53-0.22c0.293-0.293,0.293-0.768,0-1.061l-2.179-2.179v-2.449l3.29,3.29
	c0.146,0.146,0.338,0.22,0.53,0.22s0.384-0.073,0.53-0.22c0.293-0.293,0.293-0.768,0-1.061l-3.844-3.844
	c2.652-0.501,4.759-2.555,5.339-5.179l3.472,3.472c0.146,0.146,0.338,0.22,0.53,0.22s0.384-0.073,0.53-0.22
	c0.293-0.293,0.293-0.768,0-1.061l-3.118-3.118h2.439l2.429,2.429c0.146,0.146,0.338,0.22,0.53,0.22s0.384-0.073,0.53-0.22
	c0.293-0.293,0.293-0.768,0-1.061l-1.368-1.368h2.43c0.414,0,0.75-0.336,0.75-0.75S354.914,128.75,354.5,128.75z M340.25,134.682
	c-0.247,0.036-0.493,0.076-0.75,0.076s-0.503-0.04-0.75-0.076c-2.295-0.332-4.1-2.137-4.432-4.432
	c-0.031-0.211-0.061-0.423-0.065-0.642c-0.001-0.037-0.011-0.071-0.011-0.108s0.01-0.071,0.011-0.108
	c0.005-0.219,0.034-0.431,0.065-0.642c0.332-2.295,2.137-4.1,4.432-4.432c0.247-0.036,0.493-0.076,0.75-0.076s0.503,0.04,0.75,0.076
	c2.295,0.332,4.1,2.137,4.432,4.432c0.031,0.211,0.061,0.423,0.065,0.642c0.001,0.037,0.011,0.071,0.011,0.108
	s-0.01,0.071-0.011,0.108c-0.005,0.219-0.034,0.431-0.065,0.642C344.35,132.545,342.545,134.35,340.25,134.682z M351.04,139.979
	c0.293,0.293,0.293,0.768,0,1.061c-0.146,0.146-0.338,0.22-0.53,0.22s-0.384-0.073-0.53-0.22l-2.611-2.611
	c-0.293-0.293-0.293-0.768,0-1.061s0.768-0.293,1.061,0L351.04,139.979z M332.046,137.368c0.293,0.293,0.293,0.768,0,1.061
	l-2.613,2.611c-0.146,0.146-0.339,0.22-0.53,0.22c-0.192,0-0.384-0.073-0.53-0.22c-0.293-0.293-0.293-0.768,0-1.061l2.613-2.611
	C331.279,137.075,331.754,137.075,332.046,137.368z M328.373,119.712c-0.292-0.294-0.292-0.769,0.001-1.062
	c0.294-0.292,0.77-0.291,1.062,0.001l2.609,2.614c0.292,0.294,0.292,0.769-0.001,1.062c-0.146,0.146-0.339,0.219-0.53,0.219
	c-0.192,0-0.385-0.073-0.531-0.22L328.373,119.712z M347.366,122.332c-0.293-0.293-0.293-0.769,0-1.061l2.615-2.611
	c0.294-0.294,0.769-0.292,1.061,0c0.293,0.293,0.293,0.769,0,1.061l-2.615,2.611c-0.146,0.146-0.339,0.22-0.53,0.22
	C347.704,122.552,347.513,122.479,347.366,122.332z"/>
</svg>
