<?xml version="1.0" encoding="utf-8"?>
<!-- Generator: Adobe Illustrator 16.0.0, SVG Export Plug-In . SVG Version: 6.00 Build 0)  -->
<!DOCTYPE svg PUBLIC "-//W3C//DTD SVG 1.1//EN" "http://www.w3.org/Graphics/SVG/1.1/DTD/svg11.dtd">
<svg version="1.1" id="Layer_1" xmlns="http://www.w3.org/2000/svg" xmlns:xlink="http://www.w3.org/1999/xlink" x="0px" y="0px"
	 width="50px" height="50px" viewBox="244.5 34.5 50 50" enable-background="new 244.5 34.5 50 50" xml:space="preserve">
<path style="fill:white" d="M260.824,50.093c0-0.414,0.336-0.75,0.75-0.75l2.063,0.001l1.031-1.788c0.206-0.357,0.665-0.482,1.024-0.274
	c0.358,0.207,0.481,0.665,0.274,1.024l-1.463,2.538l-2.931-0.001C261.16,50.843,260.824,50.507,260.824,50.093z M277.428,68.156
	l-2.93-0.001l-1.463,2.537c-0.207,0.359-0.084,0.817,0.274,1.024c0.118,0.068,0.247,0.101,0.374,0.101
	c0.26,0,0.512-0.135,0.65-0.375l1.031-1.787l2.062,0.001c0.414,0,0.75-0.336,0.75-0.75S277.842,68.156,277.428,68.156z
	 M274.498,50.845h2.93c0.414,0,0.75-0.336,0.75-0.75s-0.336-0.75-0.75-0.75h-2.064l-1.032-1.788
	c-0.206-0.357-0.665-0.482-1.024-0.274c-0.358,0.207-0.481,0.666-0.274,1.024L274.498,50.845z M264.503,68.156h-2.931
	c-0.414,0-0.75,0.336-0.75,0.75s0.336,0.75,0.75,0.75h2.065l1.032,1.787c0.139,0.24,0.391,0.375,0.65,0.375
	c0.127,0,0.256-0.032,0.374-0.101c0.358-0.207,0.481-0.666,0.274-1.024L264.503,68.156z M257.016,62.312
	c0.118,0.068,0.247,0.101,0.374,0.101c0.26,0,0.512-0.135,0.65-0.375l1.464-2.537l-1.466-2.538
	c-0.207-0.357-0.664-0.482-1.024-0.274c-0.358,0.207-0.481,0.666-0.274,1.024l1.032,1.788l-1.03,1.787
	C256.534,61.647,256.657,62.105,257.016,62.312z M281.984,56.688c-0.36-0.208-0.818-0.083-1.024,0.274l-1.465,2.537l1.466,2.538
	c0.139,0.24,0.391,0.375,0.65,0.375c0.127,0,0.256-0.032,0.374-0.101c0.358-0.207,0.481-0.666,0.274-1.024l-1.032-1.788l1.031-1.787
	C282.466,57.354,282.343,56.896,281.984,56.688z M285.214,68.572c-0.139,0.24-0.391,0.375-0.65,0.375
	c-0.127,0-0.256-0.032-0.374-0.101l-0.855-0.494l-2.012,1.16c-0.116,0.067-0.246,0.101-0.375,0.101c-0.13,0-0.259-0.033-0.375-0.101
	l-2.384-1.376c-0.232-0.134-0.375-0.381-0.375-0.649v-0.604h-4.049l-2.026,3.509l0.521,0.301c0.232,0.134,0.375,0.381,0.375,0.649
	l0.001,2.754c0,0.268-0.144,0.516-0.376,0.649l-2.01,1.158v0.99c0,0.414-0.336,0.75-0.75,0.75s-0.75-0.336-0.75-0.75v-0.991
	l-2.011-1.159c-0.232-0.134-0.375-0.382-0.375-0.649l0.001-2.753c0-0.269,0.144-0.516,0.375-0.649l0.522-0.302l-2.025-3.506
	l-4.048-0.001v0.601c0,0.269-0.143,0.517-0.375,0.65l-2.387,1.378c-0.116,0.067-0.245,0.101-0.375,0.101s-0.259-0.033-0.375-0.101
	l-2.011-1.16l-0.858,0.495c-0.118,0.068-0.247,0.101-0.374,0.101c-0.26,0-0.512-0.135-0.65-0.375
	c-0.207-0.358-0.084-0.817,0.274-1.024l0.858-0.496l0.001-2.319c0-0.269,0.143-0.516,0.375-0.649l2.387-1.378
	c0.232-0.135,0.518-0.135,0.75,0l0.521,0.301l2.023-3.506l-2.024-3.507l-0.521,0.301c-0.116,0.067-0.245,0.101-0.375,0.101
	s-0.259-0.033-0.375-0.101l-2.385-1.377c-0.232-0.134-0.375-0.382-0.375-0.65l0.002-2.319l-0.859-0.496
	c-0.358-0.207-0.481-0.666-0.274-1.024c0.206-0.358,0.665-0.482,1.024-0.274l0.858,0.495l2.009-1.161c0.23-0.135,0.518-0.135,0.75,0
	l2.386,1.379c0.232,0.134,0.375,0.382,0.375,0.649v0.6h4.05l2.023-3.505l-0.523-0.302c-0.232-0.134-0.375-0.382-0.375-0.65
	l0.002-2.755c0-0.268,0.144-0.515,0.375-0.648l2.01-1.16v-0.989c0-0.414,0.336-0.75,0.75-0.75s0.75,0.336,0.75,0.75v0.991
	l2.01,1.158c0.232,0.134,0.375,0.382,0.375,0.65l-0.002,2.755c0,0.268-0.144,0.515-0.375,0.648l-0.519,0.3l2.025,3.508h4.046v-0.601
	c0-0.269,0.143-0.517,0.375-0.65l2.387-1.378c0.232-0.135,0.518-0.135,0.75,0l2.011,1.161l0.858-0.496
	c0.359-0.209,0.818-0.083,1.024,0.274c0.207,0.358,0.084,0.817-0.274,1.024l-0.859,0.496v2.32c0,0.268-0.143,0.516-0.375,0.649
	l-2.387,1.378c-0.116,0.067-0.245,0.101-0.375,0.101s-0.26-0.033-0.375-0.101l-0.52-0.301l-2.024,3.507l2.025,3.507l0.519-0.299
	c0.231-0.134,0.518-0.134,0.749-0.001l2.388,1.375c0.232,0.135,0.376,0.383,0.376,0.651l-0.002,2.318l0.858,0.495
	C285.298,67.755,285.421,68.214,285.214,68.572z M282.582,66.187l0.001-1.02l-1.638-0.943l-0.574,0.332
	c-0.055,0.064-0.116,0.125-0.193,0.17c-0.027,0.016-0.059,0.012-0.086,0.023c-0.035,0.015-0.07,0.019-0.105,0.028l-0.674,0.389
	v0.709c0.021,0.056,0.029,0.116,0.036,0.177c0.003,0.028,0.017,0.053,0.017,0.082c0,0.092-0.022,0.177-0.052,0.258v0.662
	l1.634,0.943l0.886-0.511l0.748-0.432L282.582,66.187z M276.841,60.447c-0.095,0.734-0.295,1.434-0.589,2.085l2.312,1.335
	l0.189-0.109L276.841,60.447z M269.501,74.605l0.749-0.432l0.886-0.511l-0.001-1.888l-0.638-0.368
	c-0.062-0.017-0.125-0.016-0.183-0.049c-0.025-0.015-0.041-0.039-0.064-0.057c-0.044-0.032-0.086-0.066-0.12-0.106l-0.63-0.363
	l-0.621,0.358c-0.037,0.043-0.082,0.079-0.129,0.114c-0.022,0.017-0.037,0.04-0.062,0.055c-0.06,0.035-0.126,0.034-0.189,0.051
	l-0.633,0.365l-0.001,1.886l0.886,0.511L269.501,74.605z M269.498,44.395l-0.748,0.433l-0.885,0.511l-0.002,1.888l0.574,0.331
	l0.312,0.18l0.134,0.077l0.616,0.355l0.625-0.361l0.125-0.072l0.304-0.176l0.579-0.334l0.002-1.888l-0.885-0.51L269.498,44.395z
	 M274.949,57.22c-0.195-0.466-0.454-0.898-0.757-1.295c-0.937-1.227-2.338-2.075-3.942-2.28c-0.246-0.031-0.495-0.053-0.75-0.053
	s-0.504,0.021-0.75,0.053c-1.604,0.205-3.006,1.054-3.942,2.28c-0.303,0.396-0.562,0.829-0.757,1.295
	c-0.295,0.702-0.459,1.473-0.459,2.28s0.164,1.578,0.459,2.28c0.195,0.466,0.454,0.898,0.757,1.295
	c0.937,1.227,2.338,2.075,3.942,2.28c0.246,0.031,0.495,0.053,0.75,0.053s0.504-0.021,0.75-0.053
	c1.604-0.205,3.006-1.054,3.942-2.28c0.303-0.396,0.562-0.829,0.757-1.295c0.295-0.702,0.459-1.473,0.459-2.28
	S275.244,57.922,274.949,57.22z M278.753,55.244l-0.19-0.11l-2.311,1.334c0.294,0.651,0.495,1.352,0.589,2.086L278.753,55.244z
	 M281.833,51.514l-0.886-0.511l-1.637,0.944l0.001,0.651v0.371v0.161l0.001,0.704l0.615,0.356c0.058,0.01,0.113,0.032,0.169,0.057
	c0.026,0.012,0.056,0.013,0.081,0.027c0.079,0.046,0.142,0.107,0.197,0.174l0.57,0.33l1.637-0.944v-1.021v-0.867L281.833,51.514z
	 M273.983,53.616c0.578,0.441,1.089,0.965,1.516,1.555l2.313-1.336v-0.219H273.983z M270.44,49.358l-0.19,0.109v2.662
	c0.736,0.074,1.441,0.259,2.099,0.533L270.44,49.358z M266.654,52.662c0.656-0.274,1.36-0.458,2.096-0.532v-2.661l-0.189-0.109
	L266.654,52.662z M261.188,53.615v0.22l2.313,1.336c0.427-0.591,0.938-1.114,1.517-1.556H261.188z M258.627,54.448l0.312-0.18
	l0.134-0.077l0.615-0.355v-0.723v-0.145l0.001-0.354v-0.667l-1.636-0.945l-0.885,0.512l-0.748,0.433l-0.001,0.866l-0.001,1.022
	l1.635,0.943L258.627,54.448z M262.159,58.554c0.094-0.734,0.295-1.435,0.589-2.086l-2.31-1.334l-0.19,0.11L262.159,58.554z
	 M260.249,63.757l0.188,0.109l2.311-1.334c-0.294-0.651-0.494-1.351-0.589-2.084L260.249,63.757z M257.167,67.486l0.886,0.511
	l1.637-0.944l-0.001-0.661c-0.029-0.081-0.052-0.166-0.052-0.258c0-0.029,0.014-0.055,0.017-0.083
	c0.007-0.06,0.015-0.118,0.035-0.172l-0.001-0.714l-0.667-0.386c-0.038-0.009-0.076-0.015-0.112-0.03
	c-0.028-0.012-0.059-0.007-0.085-0.022c-0.08-0.046-0.144-0.108-0.199-0.176l-0.569-0.329l-1.637,0.944l-0.001,1.021v0.866
	L257.167,67.486z M265.018,65.385c-0.578-0.442-1.09-0.965-1.517-1.556l-2.313,1.336v0.219L265.018,65.385z M268.562,69.642
	l0.188-0.108V66.87c-0.736-0.074-1.44-0.258-2.097-0.532L268.562,69.642z M272.349,66.337c-0.657,0.274-1.362,0.459-2.099,0.533
	v2.663l0.189,0.109L272.349,66.337z M277.812,65.384v-0.219l-2.313-1.336c-0.427,0.59-0.938,1.113-1.516,1.555H277.812z"/>
</svg>
