<?xml version="1.0" encoding="utf-8"?>
<!-- Generator: Adobe Illustrator 16.0.0, SVG Export Plug-In . SVG Version: 6.00 Build 0)  -->
<!DOCTYPE svg PUBLIC "-//W3C//DTD SVG 1.1//EN" "http://www.w3.org/Graphics/SVG/1.1/DTD/svg11.dtd">
<svg version="1.1" id="Layer_1" xmlns="http://www.w3.org/2000/svg" xmlns:xlink="http://www.w3.org/1999/xlink" x="0px" y="0px"
	 width="50px" height="50px" viewBox="-315.5 -245.5 50 50" enable-background="new -315.5 -245.5 50 50" xml:space="preserve">
<path style="fill:white" d="M-274.054-220.5l-3.175,3.175l-2.525-2.525h-7.282l1.986,1.986c0.254,0.254,0.254,0.666,0,0.919
	c-0.127,0.127-0.293,0.19-0.459,0.19s-0.333-0.063-0.459-0.19l-2.904-2.905h-0.978v0.976l2.905,2.906
	c0.254,0.254,0.254,0.665,0,0.919c-0.127,0.127-0.293,0.19-0.459,0.19s-0.333-0.063-0.459-0.19l-1.986-1.986v7.283l2.524,2.524
	l-3.175,3.175l-3.174-3.175l2.525-2.526v-7.281l-1.986,1.986c-0.254,0.254-0.665,0.254-0.919,0s-0.254-0.665,0-0.919l2.905-2.906
	v-0.976h-0.977l-2.906,2.905c-0.127,0.127-0.293,0.19-0.459,0.19s-0.333-0.063-0.459-0.19c-0.254-0.254-0.254-0.665,0-0.919
	l1.986-1.986h-7.281l-2.525,2.525l-3.175-3.175l3.175-3.174l2.525,2.524h7.281l-1.986-1.986c-0.254-0.254-0.254-0.665,0-0.919
	s0.665-0.254,0.919,0l2.906,2.905h0.977v-0.977l-2.905-2.906c-0.254-0.254-0.254-0.665,0-0.919s0.665-0.254,0.919,0l1.986,1.986
	v-7.28l-2.525-2.526l3.174-3.175l3.175,3.175l-2.524,2.524v7.282l1.986-1.986c0.254-0.254,0.665-0.254,0.919,0s0.254,0.665,0,0.919
	l-2.905,2.906v0.977h0.978l2.904-2.905c0.253-0.254,0.665-0.254,0.919,0c0.254,0.253,0.254,0.665,0,0.919l-1.986,1.986h7.282
	l2.525-2.524L-274.054-220.5z"/>
</svg>
