<?xml version="1.0" encoding="utf-8"?>
<!-- Generator: Adobe Illustrator 16.0.0, SVG Export Plug-In . SVG Version: 6.00 Build 0)  -->
<!DOCTYPE svg PUBLIC "-//W3C//DTD SVG 1.1//EN" "http://www.w3.org/Graphics/SVG/1.1/DTD/svg11.dtd">
<svg version="1.1" id="Layer_1" xmlns="http://www.w3.org/2000/svg" xmlns:xlink="http://www.w3.org/1999/xlink" x="0px" y="0px"
	 width="50px" height="50px" viewBox="314.5 34.5 50 50" enable-background="new 314.5 34.5 50 50" xml:space="preserve">
<path style="fill:white" d="M350.774,57.978l-0.878,1.522l0.879,1.522c0.207,0.358,0.084,0.817-0.274,1.024c-0.118,0.068-0.247,0.101-0.374,0.101
	c-0.26,0-0.512-0.135-0.65-0.375l-1.312-2.272l1.312-2.272c0.207-0.357,0.664-0.482,1.024-0.274
	C350.858,57.16,350.981,57.618,350.774,57.978z M332.545,51.995l2.624,0.002l1.312-2.273c0.207-0.359,0.084-0.817-0.274-1.024
	c-0.359-0.209-0.817-0.083-1.024,0.274l-0.878,1.523l-1.757-0.002c-0.001,0-0.001,0-0.001,0c-0.414,0-0.75,0.335-0.75,0.749
	S332.131,51.995,332.545,51.995z M346.456,67.003h-2.624l-1.31,2.271c-0.207,0.359-0.084,0.817,0.274,1.024
	c0.118,0.068,0.247,0.101,0.374,0.101c0.26,0,0.512-0.135,0.65-0.375l0.878-1.521h1.757c0.414,0,0.75-0.336,0.75-0.75
	S346.87,67.003,346.456,67.003z M342.52,49.725l1.312,2.272h2.624c0.414,0,0.75-0.336,0.75-0.75s-0.336-0.75-0.75-0.75h-1.759
	l-0.879-1.522c-0.207-0.357-0.665-0.482-1.024-0.274C342.436,48.907,342.312,49.366,342.52,49.725z M336.481,69.275l-1.313-2.272
	h-2.624c-0.414,0-0.75,0.336-0.75,0.75s0.336,0.75,0.75,0.75h1.759l0.88,1.522c0.139,0.241,0.391,0.375,0.65,0.375
	c0.127,0,0.256-0.032,0.374-0.101C336.566,70.093,336.688,69.634,336.481,69.275z M328.5,62.047
	c0.118,0.068,0.247,0.101,0.374,0.101c0.26,0,0.512-0.135,0.65-0.375l1.311-2.271l-1.312-2.273
	c-0.207-0.357-0.664-0.482-1.024-0.274c-0.358,0.207-0.481,0.666-0.274,1.024l0.879,1.523l-0.877,1.521
	C328.019,61.382,328.142,61.84,328.5,62.047z M355.214,68.572c-0.139,0.24-0.391,0.375-0.65,0.375c-0.127,0-0.256-0.032-0.374-0.101
	l-0.855-0.494l-2.012,1.16c-0.116,0.067-0.246,0.101-0.375,0.101c-0.13,0-0.259-0.033-0.375-0.101l-2.384-1.376
	c-0.232-0.134-0.375-0.381-0.375-0.649l-0.001-2.322l-2.313-1.336c-1.209,1.671-3.091,2.823-5.249,3.041v2.663l2.01,1.16
	c0.232,0.134,0.375,0.381,0.375,0.649l0.001,2.754c0,0.268-0.144,0.516-0.376,0.649l-2.01,1.158v0.99c0,0.414-0.336,0.75-0.75,0.75
	s-0.75-0.336-0.75-0.75v-0.991l-2.011-1.159c-0.232-0.134-0.375-0.382-0.375-0.649l0.001-2.753c0-0.269,0.144-0.516,0.375-0.649
	l2.01-1.159V66.87c-2.158-0.218-4.04-1.37-5.249-3.041l-2.313,1.336l0.002,2.319c0,0.269-0.143,0.517-0.375,0.65l-2.387,1.378
	c-0.116,0.067-0.245,0.101-0.375,0.101s-0.259-0.033-0.375-0.101l-2.011-1.16l-0.858,0.495c-0.118,0.068-0.247,0.101-0.374,0.101
	c-0.26,0-0.512-0.135-0.65-0.375c-0.207-0.358-0.084-0.817,0.274-1.024l0.858-0.496l0.001-2.319c0-0.269,0.143-0.516,0.375-0.649
	l2.387-1.378c0.232-0.135,0.518-0.135,0.75,0l2.008,1.16l2.311-1.334c-0.418-0.927-0.656-1.951-0.656-3.032s0.238-2.105,0.656-3.032
	l-2.31-1.334l-2.011,1.161c-0.116,0.067-0.245,0.101-0.375,0.101s-0.259-0.033-0.375-0.101l-2.385-1.377
	c-0.232-0.134-0.375-0.382-0.375-0.65l0.002-2.319l-0.859-0.496c-0.358-0.207-0.481-0.666-0.274-1.024s0.664-0.482,1.024-0.274
	l0.858,0.495l2.009-1.161c0.23-0.135,0.518-0.135,0.75,0l2.386,1.379c0.232,0.134,0.375,0.382,0.375,0.649l-0.001,2.319l2.313,1.336
	c1.209-1.671,3.091-2.823,5.249-3.041v-2.661l-2.012-1.16c-0.232-0.134-0.375-0.382-0.375-0.65l0.002-2.755
	c0-0.268,0.144-0.515,0.375-0.648l2.01-1.16v-0.989c0-0.414,0.336-0.75,0.75-0.75s0.75,0.336,0.75,0.75v0.991l2.01,1.158
	c0.232,0.134,0.375,0.382,0.375,0.65l-0.002,2.755c0,0.268-0.144,0.515-0.375,0.648l-2.008,1.159v2.662
	c2.158,0.218,4.04,1.37,5.249,3.041l2.313-1.336l-0.002-2.319c0-0.269,0.143-0.517,0.375-0.65l2.387-1.378
	c0.232-0.135,0.518-0.135,0.75,0l2.011,1.161l0.858-0.496c0.36-0.209,0.817-0.083,1.024,0.274c0.207,0.358,0.084,0.817-0.274,1.024
	l-0.859,0.496v2.32c0,0.268-0.143,0.516-0.375,0.649l-2.387,1.378c-0.116,0.067-0.245,0.101-0.375,0.101s-0.26-0.033-0.375-0.101
	l-2.008-1.161l-2.311,1.334c0.418,0.927,0.656,1.951,0.656,3.032s-0.238,2.105-0.656,3.032l2.312,1.335l2.007-1.158
	c0.232-0.134,0.519-0.134,0.749-0.001l2.388,1.375c0.232,0.135,0.376,0.383,0.376,0.651l-0.002,2.318l0.858,0.495
	C355.298,67.755,355.421,68.214,355.214,68.572z M349.312,52.97l0.001,0.865l0.749,0.434l0.884,0.511l1.637-0.944v-1.021v-0.867
	l-0.749-0.433l-0.886-0.511l-1.637,0.944L349.312,52.97z M329.688,52.969l0.001-1.021l-1.636-0.945l-0.885,0.512l-0.748,0.433
	l-0.001,0.866l-0.001,1.022l1.635,0.943l0.886-0.511l0.749-0.433V52.969z M329.688,66.03l-0.001-0.865l-0.75-0.433l-0.883-0.511
	l-1.637,0.944l-0.001,1.021v0.866l0.75,0.433l0.886,0.511l1.637-0.944L329.688,66.03z M344.192,63.075
	c0.303-0.396,0.562-0.829,0.757-1.295c0.295-0.702,0.459-1.473,0.459-2.28s-0.164-1.578-0.459-2.28
	c-0.195-0.466-0.454-0.898-0.757-1.295c-0.937-1.227-2.338-2.075-3.942-2.28c-0.246-0.031-0.495-0.053-0.75-0.053
	s-0.504,0.021-0.75,0.053c-1.604,0.205-3.006,1.054-3.942,2.28c-0.303,0.396-0.562,0.829-0.757,1.295
	c-0.295,0.702-0.459,1.473-0.459,2.28s0.164,1.578,0.459,2.28c0.195,0.466,0.454,0.898,0.757,1.295
	c0.937,1.227,2.338,2.075,3.942,2.28c0.246,0.031,0.495,0.053,0.75,0.053s0.504-0.021,0.75-0.053
	C341.854,65.15,343.256,64.302,344.192,63.075z M337.863,47.226l0.887,0.511l0.75,0.433l0.75-0.434l0.883-0.51l0.002-1.888
	l-0.885-0.51l-0.752-0.434l-0.748,0.433l-0.885,0.511L337.863,47.226z M341.135,71.775l-0.885-0.511l-0.75-0.433l-0.75,0.433
	l-0.885,0.511l-0.001,1.886l0.886,0.511l0.751,0.434l0.749-0.432l0.886-0.511L341.135,71.775z M352.582,66.187l0.001-1.02
	l-1.638-0.943l-0.882,0.509l-0.751,0.434v0.865l0.001,1.022l1.634,0.943l0.886-0.511l0.748-0.432L352.582,66.187z"/>
</svg>
