<?xml version="1.0" encoding="utf-8"?>
<!-- Generator: Adobe Illustrator 16.0.0, SVG Export Plug-In . SVG Version: 6.00 Build 0)  -->
<!DOCTYPE svg PUBLIC "-//W3C//DTD SVG 1.1//EN" "http://www.w3.org/Graphics/SVG/1.1/DTD/svg11.dtd">
<svg version="1.1" id="Layer_1" xmlns="http://www.w3.org/2000/svg" xmlns:xlink="http://www.w3.org/1999/xlink" x="0px" y="0px"
	 width="50px" height="50px" viewBox="-35.5 -315.5 50 50" enable-background="new -35.5 -315.5 50 50" xml:space="preserve">
<path style="fill:white" d="M4.5-291.25h-6.99l3.118-3.119c0.293-0.293,0.293-0.768,0-1.061s-0.768-0.293-1.061,0l-4.179,4.179h-1.009l-1.535-1.534
	l4.885-4.885c0.293-0.293,0.293-0.768,0-1.061s-0.768-0.293-1.061,0l-4.885,4.885l-1.534-1.533v-1.251l4.351-4.351
	c0.293-0.293,0.293-0.768,0-1.061s-0.768-0.293-1.061,0l-3.29,3.29v-6.75c0-0.414-0.336-0.75-0.75-0.75s-0.75,0.336-0.75,0.75v6.75
	l-3.29-3.29c-0.293-0.293-0.768-0.293-1.061,0s-0.293,0.768,0,1.061l4.351,4.351v1.251l-1.534,1.533l-4.885-4.885
	c-0.293-0.293-0.768-0.293-1.061,0s-0.293,0.768,0,1.061l4.885,4.885l-1.535,1.534h-1.009l-4.179-4.179
	c-0.293-0.293-0.768-0.293-1.061,0s-0.293,0.768,0,1.061l3.118,3.119h-6.99c-0.414,0-0.75,0.336-0.75,0.75s0.336,0.75,0.75,0.75
	h6.99l-3.118,3.119c-0.293,0.293-0.293,0.768,0,1.061c0.146,0.146,0.338,0.22,0.53,0.22s0.384-0.073,0.53-0.22l4.179-4.179h1.009
	l1.534,1.535l-4.884,4.885c-0.293,0.293-0.293,0.768,0,1.061c0.146,0.146,0.338,0.22,0.53,0.22s0.384-0.073,0.53-0.22l4.884-4.885
	l1.535,1.535v1.249l-4.351,4.351c-0.293,0.293-0.293,0.768,0,1.061s0.768,0.293,1.061,0l3.29-3.29v6.75
	c0,0.414,0.336,0.75,0.75,0.75s0.75-0.336,0.75-0.75v-6.75l3.29,3.291c0.146,0.146,0.338,0.22,0.53,0.22s0.384-0.073,0.53-0.22
	c0.293-0.293,0.293-0.768,0-1.061l-4.351-4.351v-1.25l1.535-1.534l4.884,4.885c0.146,0.146,0.338,0.22,0.53,0.22
	s0.384-0.073,0.53-0.22c0.293-0.293,0.293-0.768,0-1.061l-4.884-4.885l1.536-1.535h1.007l4.179,4.179
	c0.146,0.146,0.338,0.22,0.53,0.22s0.384-0.073,0.53-0.22c0.293-0.293,0.293-0.768,0-1.061l-3.118-3.119H4.5
	c0.414,0,0.75-0.336,0.75-0.75S4.914-291.25,4.5-291.25z M-7.74-289.75l-2.01,2.008l-0.751,0.75l-0.749-0.749l-2.009-2.009
	l-0.75-0.75l0.75-0.75l2.008-2.007l0.75-0.75l0.75,0.75l2.007,2.007l0.751,0.751L-7.74-289.75z"/>
</svg>
