<?xml version="1.0" encoding="utf-8"?>
<!-- Generator: Adobe Illustrator 16.0.0, SVG Export Plug-In . SVG Version: 6.00 Build 0)  -->
<!DOCTYPE svg PUBLIC "-//W3C//DTD SVG 1.1//EN" "http://www.w3.org/Graphics/SVG/1.1/DTD/svg11.dtd">
<svg version="1.1" id="Layer_1" xmlns="http://www.w3.org/2000/svg" xmlns:xlink="http://www.w3.org/1999/xlink" x="0px" y="0px"
	 width="50px" height="50px" viewBox="-175.5 -105.5 50 50" enable-background="new -175.5 -105.5 50 50" xml:space="preserve">
<path style="fill:white" d="M-135.629-79.019l-7.723,2.068L-149.5-80.5l6.148-3.55l7.722,2.069c0.043,0.012,0.087,0.017,0.13,0.017
	c0.221,0,0.423-0.147,0.482-0.371c0.071-0.267-0.087-0.541-0.354-0.612l-6.756-1.81l2.736-1.58l1.437,0.829l1.937-1.117v-2.236
	l-1.937-1.118l-1.937,1.118v1.658l-2.736,1.58l1.811-6.755c0.071-0.267-0.087-0.541-0.354-0.612c-0.266-0.07-0.54,0.086-0.612,0.354
	l-2.069,7.721l-6.149,3.55v-7.1l5.652-5.653c0.195-0.195,0.195-0.512,0-0.707s-0.512-0.195-0.707,0L-150-89.88v-3.159l1.437-0.83
	v-2.236l-1.937-1.117l-1.937,1.117v2.236l1.437,0.83v3.159l-4.945-4.946c-0.195-0.195-0.512-0.195-0.707,0s-0.195,0.512,0,0.707
	l5.652,5.653v7.1l-6.149-3.55l-2.069-7.721c-0.071-0.267-0.346-0.424-0.612-0.354c-0.267,0.071-0.425,0.346-0.354,0.612l1.811,6.755
	l-2.736-1.58v-1.658l-1.937-1.118l-1.937,1.118v2.236l1.937,1.117l1.437-0.829l2.736,1.58l-6.756,1.81
	c-0.267,0.071-0.425,0.346-0.354,0.612c0.06,0.224,0.262,0.371,0.482,0.371c0.043,0,0.086-0.005,0.13-0.017l7.722-2.069l6.148,3.55
	l-6.148,3.549l-7.723-2.068c-0.266-0.07-0.541,0.087-0.612,0.354c-0.071,0.267,0.087,0.541,0.354,0.612l6.757,1.81l-2.736,1.58
	l-1.437-0.829l-1.938,1.118l0.002,2.236l1.936,1.117l1.937-1.117v-1.659l2.736-1.58l-1.811,6.756
	c-0.071,0.267,0.087,0.541,0.354,0.612c0.043,0.012,0.087,0.017,0.13,0.017c0.221,0,0.422-0.147,0.482-0.371l2.069-7.722
	l6.148-3.549v7.099l-5.652,5.654c-0.195,0.195-0.195,0.512,0,0.707s0.512,0.195,0.707,0l4.945-4.947v3.16l-1.437,0.83v2.236
	l1.937,1.117l1.937-1.117v-2.236l-1.437-0.83v-3.16l4.945,4.947c0.098,0.098,0.226,0.146,0.354,0.146s0.256-0.049,0.354-0.146
	c0.195-0.195,0.195-0.512,0-0.707L-150-72.535v-7.099l6.148,3.549l2.069,7.722c0.06,0.224,0.262,0.371,0.482,0.371
	c0.043,0,0.086-0.005,0.13-0.017c0.267-0.071,0.425-0.346,0.354-0.612l-1.811-6.756l2.736,1.58v1.659l1.937,1.117l1.936-1.117
	l0.002-2.236l-1.938-1.118l-1.437,0.829l-2.736-1.58l6.757-1.81c0.267-0.071,0.425-0.346,0.354-0.612S-135.363-79.09-135.629-79.019
	z"/>
</svg>
