<?xml version="1.0" encoding="utf-8"?>
<!-- Generator: Adobe Illustrator 16.0.0, SVG Export Plug-In . SVG Version: 6.00 Build 0)  -->
<!DOCTYPE svg PUBLIC "-//W3C//DTD SVG 1.1//EN" "http://www.w3.org/Graphics/SVG/1.1/DTD/svg11.dtd">
<svg version="1.1" id="Layer_1" xmlns="http://www.w3.org/2000/svg" xmlns:xlink="http://www.w3.org/1999/xlink" x="0px" y="0px"
	 width="50px" height="50px" viewBox="174.5 -35.5 50 50" enable-background="new 174.5 -35.5 50 50" xml:space="preserve">
<path style="fill:white" d="M214.5-11h-2.302l1.2-1.2c0.195-0.195,0.195-0.512,0-0.707s-0.512-0.195-0.707,0L210.785-11h-1.51l0.822-0.823
	c0.195-0.195,0.195-0.512,0-0.707c-0.195-0.195-0.512-0.195-0.707,0L207.861-11h-1.937l-1.502-3.717l1.97-1.969l2.41-0.002
	c0.276,0,0.5-0.224,0.5-0.5c0-0.276-0.224-0.5-0.5-0.5l-1.409,0.001l3.065-3.065c0.195-0.195,0.195-0.512,0-0.707
	s-0.512-0.195-0.707,0l-3.066,3.066v-1.41c0-0.276-0.224-0.5-0.5-0.5s-0.5,0.224-0.5,0.5v2.41l-1.996,1.996L200-16.962v-1.9
	l1.527-1.53c0.195-0.195,0.195-0.512,0-0.707c-0.195-0.194-0.512-0.195-0.707,0.001L200-20.276v-1.509l1.904-1.906
	c0.195-0.195,0.195-0.512,0-0.707c-0.195-0.195-0.512-0.195-0.707,0L200-23.2v-2.3c0-0.276-0.224-0.5-0.5-0.5s-0.5,0.224-0.5,0.5
	v2.3l-1.199-1.199c-0.195-0.195-0.512-0.195-0.707,0s-0.195,0.512,0,0.707L199-21.785v1.51l-0.824-0.823
	c-0.195-0.195-0.512-0.195-0.707,0s-0.195,0.512,0,0.707L199-18.861v1.935l-3.717,1.503l-1.971-1.971l-0.002-2.409
	c0-0.276-0.224-0.5-0.5-0.5s-0.5,0.224-0.5,0.5l0.001,1.408l-3.065-3.066c-0.195-0.195-0.512-0.195-0.707,0s-0.195,0.512,0,0.707
	l3.064,3.064h-1.408c-0.276,0-0.5,0.224-0.5,0.5s0.224,0.5,0.5,0.5h2.408l1.999,1.999L193.035-11h-1.898l-1.529-1.528
	c-0.195-0.195-0.512-0.195-0.707,0s-0.195,0.512,0,0.707L189.723-11h-1.91l-1.908-1.907c-0.195-0.195-0.512-0.195-0.707,0
	s-0.195,0.512,0,0.707l1.201,1.2H184.5c-0.276,0-0.5,0.224-0.5,0.5s0.224,0.5,0.5,0.5h1.895l-1.197,1.198
	c-0.195,0.195-0.195,0.512,0,0.707c0.098,0.098,0.226,0.146,0.354,0.146s0.256-0.049,0.354-0.146L187.808-10h1.915L188.9-9.177
	c-0.195,0.195-0.195,0.512,0,0.707c0.098,0.098,0.226,0.146,0.354,0.146s0.256-0.049,0.354-0.146l1.529-1.53h1.937l1.503,3.716
	l-1.971,1.97l-2.41,0.002c-0.276,0-0.5,0.224-0.5,0.5c0,0.276,0.224,0.5,0.5,0.5l1.409-0.001l-3.065,3.065
	c-0.195,0.195-0.195,0.512,0,0.707c0.098,0.098,0.226,0.146,0.354,0.146s0.256-0.049,0.354-0.146l3.066-3.066v1.41
	c0,0.276,0.224,0.5,0.5,0.5s0.5-0.224,0.5-0.5v-2.41l1.996-1.996L199-4.037v1.898l-1.529,1.53c-0.195,0.195-0.195,0.512,0,0.707
	c0.195,0.195,0.512,0.195,0.707,0L199-0.724v1.509l-1.906,1.906c-0.195,0.195-0.195,0.512,0,0.707s0.512,0.195,0.707,0L199,2.199
	V4.5c0,0.276,0.224,0.5,0.5,0.5s0.5-0.224,0.5-0.5V2.199l1.199,1.199c0.098,0.098,0.226,0.146,0.354,0.146s0.256-0.049,0.354-0.146
	c0.195-0.195,0.195-0.512,0-0.707L200,0.785v-1.509l0.822,0.823c0.098,0.098,0.226,0.146,0.354,0.146s0.256-0.049,0.354-0.146
	c0.195-0.195,0.195-0.512,0-0.707L200-2.139v-1.937l3.715-1.502l1.973,1.973v2.407c0,0.276,0.224,0.5,0.5,0.5s0.5-0.224,0.5-0.5
	v-1.407l3.064,3.064c0.098,0.098,0.226,0.146,0.354,0.146s0.256-0.049,0.354-0.146c0.195-0.195,0.195-0.512,0-0.707l-3.065-3.065
	l1.411-0.001c0.276,0,0.5-0.224,0.5-0.5c0-0.276-0.224-0.5-0.5-0.5l-2.41,0.002l-1.999-1.999L205.963-10h1.898l1.529,1.528
	c0.098,0.098,0.226,0.146,0.354,0.146s0.256-0.049,0.354-0.146c0.195-0.195,0.195-0.512,0-0.707L209.275-10h1.51l1.906,1.904
	c0.098,0.098,0.226,0.146,0.354,0.146s0.256-0.049,0.354-0.146c0.195-0.195,0.195-0.512,0-0.707L212.2-10h2.3
	c0.276,0,0.5-0.224,0.5-0.5S214.776-11,214.5-11z M204.876-10l-1.242,2.927l-0.231,0.544l-0.455,0.184L200-5.153l-0.548,0.222
	L199-5.124l-2.929-1.242l-0.543-0.23l-0.185-0.457L194.151-10l-0.222-0.548L194.122-11l1.242-2.927l0.231-0.544l0.455-0.184
	L199-15.848l0.546-0.221L200-15.876l2.927,1.241l0.545,0.231l0.184,0.455L204.847-11l0.222,0.548L204.876-10z"/>
</svg>
