<?xml version="1.0" encoding="utf-8"?>
<!-- Generator: Adobe Illustrator 16.0.0, SVG Export Plug-In . SVG Version: 6.00 Build 0)  -->
<!DOCTYPE svg PUBLIC "-//W3C//DTD SVG 1.1//EN" "http://www.w3.org/Graphics/SVG/1.1/DTD/svg11.dtd">
<svg version="1.1" id="Layer_1" xmlns="http://www.w3.org/2000/svg" xmlns:xlink="http://www.w3.org/1999/xlink" x="0px" y="0px"
	 width="50px" height="50px" viewBox="-35.5 244.5 50 50" enable-background="new -35.5 244.5 50 50" xml:space="preserve">
<path style="fill:white" d="M4.814,277.765l-0.981-0.566v-2.467c0-0.179-0.095-0.344-0.25-0.433l-2.385-1.377c-0.154-0.09-0.346-0.09-0.5,0
	l-2.136,1.233l-1.612-0.931l5.728-1.533c0.267-0.072,0.425-0.346,0.354-0.612c-0.071-0.267-0.345-0.42-0.612-0.354l-6.694,1.793
	l-1.903-1.099l4.352-1.919l-4.353-1.919l1.908-1.101l6.689,1.793c0.043,0.011,0.087,0.017,0.13,0.017
	c0.221,0,0.422-0.147,0.482-0.37c0.071-0.268-0.087-0.541-0.354-0.613l-5.724-1.533l1.607-0.928l2.135,1.231
	c0.078,0.045,0.164,0.067,0.25,0.067s0.172-0.022,0.25-0.067l2.387-1.377c0.155-0.089,0.25-0.254,0.25-0.433l-0.002-2.465
	l0.983-0.567c0.239-0.138,0.321-0.443,0.183-0.683c-0.139-0.239-0.445-0.323-0.683-0.183l-0.983,0.567l-2.135-1.233
	c-0.154-0.09-0.345-0.09-0.5,0l-2.385,1.376c-0.155,0.089-0.25,0.254-0.25,0.433v2.468l-1.608,0.929l1.534-5.729
	c0.071-0.267-0.087-0.54-0.354-0.612c-0.264-0.064-0.541,0.088-0.612,0.354l-1.792,6.693l-1.905,1.1l0.514-4.729L-10,264.796v-2.199
	l4.898-4.897c0.195-0.195,0.195-0.512,0-0.707s-0.512-0.195-0.707,0l-4.191,4.19v-1.859l2.134-1.229
	c0.155-0.09,0.25-0.255,0.25-0.434v-2.756c0-0.179-0.095-0.344-0.25-0.433L-10,253.238v-1.135c0-0.276-0.224-0.5-0.5-0.5
	s-0.5,0.224-0.5,0.5v1.135l-2.135,1.233c-0.155,0.089-0.25,0.254-0.25,0.433v2.756c0,0.179,0.096,0.344,0.25,0.434l2.134,1.229
	v1.859l-4.191-4.19c-0.195-0.195-0.512-0.195-0.707,0s-0.195,0.512,0,0.707l4.898,4.897v2.199l-3.836-2.808l0.514,4.728l-1.906-1.1
	l-1.792-6.693c-0.071-0.267-0.344-0.42-0.612-0.354c-0.267,0.072-0.425,0.346-0.354,0.612l1.534,5.729l-1.61-0.93v-2.467
	c0-0.179-0.095-0.344-0.25-0.433l-2.383-1.376c-0.154-0.09-0.346-0.09-0.5,0l-2.135,1.233l-0.983-0.567
	c-0.239-0.141-0.545-0.057-0.683,0.183s-0.056,0.545,0.183,0.683l0.983,0.567l-0.002,2.465c0,0.179,0.095,0.344,0.25,0.433
	l2.385,1.377c0.077,0.045,0.164,0.067,0.25,0.067s0.173-0.022,0.25-0.067l2.135-1.232l1.609,0.929l-5.724,1.533
	c-0.267,0.072-0.425,0.346-0.354,0.613c0.06,0.223,0.262,0.37,0.482,0.37c0.043,0,0.086-0.006,0.13-0.017l6.689-1.793l1.908,1.102
	l-4.354,1.918l4.353,1.919l-1.903,1.099l-6.694-1.793c-0.266-0.064-0.541,0.088-0.612,0.354c-0.071,0.267,0.087,0.54,0.354,0.612
	l5.728,1.533l-1.611,0.93l-2.138-1.232c-0.154-0.088-0.345-0.089-0.5,0.001l-2.383,1.376c-0.155,0.089-0.25,0.254-0.25,0.433
	l-0.002,2.467l-0.98,0.566c-0.239,0.138-0.321,0.443-0.183,0.683c0.093,0.16,0.261,0.25,0.434,0.25c0.085,0,0.171-0.021,0.25-0.067
	l0.983-0.567l2.134,1.233c0.078,0.045,0.164,0.067,0.25,0.067s0.173-0.022,0.25-0.067l2.385-1.38c0.154-0.089,0.25-0.254,0.25-0.433
	v-2.463l1.608-0.929l-1.531,5.724c-0.071,0.267,0.087,0.541,0.354,0.612c0.043,0.011,0.087,0.017,0.13,0.017
	c0.221,0,0.423-0.147,0.482-0.371l1.79-6.688l1.906-1.101l-0.514,4.729l3.837-2.809v2.197l-4.898,4.898
	c-0.195,0.195-0.195,0.512,0,0.707s0.512,0.195,0.707,0l4.191-4.191v1.861l-2.134,1.229c-0.155,0.09-0.25,0.255-0.25,0.434v2.756
	c0,0.179,0.095,0.344,0.25,0.433l2.135,1.233v1.135c0,0.276,0.224,0.5,0.5,0.5s0.5-0.224,0.5-0.5v-1.135l2.135-1.233
	c0.155-0.089,0.25-0.254,0.25-0.433v-2.756c0-0.179-0.096-0.344-0.25-0.434L-10,279.677v-1.861l4.191,4.192
	c0.098,0.098,0.226,0.146,0.354,0.146s0.256-0.049,0.354-0.146c0.195-0.195,0.195-0.512,0-0.707L-10,276.401v-2.197l3.836,2.808
	l-0.514-4.728l1.907,1.101l1.79,6.688c0.06,0.224,0.262,0.371,0.482,0.371c0.043,0,0.086-0.006,0.13-0.017
	c0.267-0.071,0.425-0.346,0.354-0.612l-1.531-5.724l1.609,0.929v2.463c0,0.179,0.095,0.344,0.25,0.433l2.385,1.38
	c0.078,0.045,0.164,0.067,0.25,0.067s0.173-0.022,0.25-0.067l2.132-1.233l0.983,0.567c0.079,0.046,0.165,0.067,0.25,0.067
	c0.173,0,0.341-0.09,0.434-0.25C5.136,278.208,5.054,277.902,4.814,277.765z M-0.938,261.802l1.885-1.088l1.385,0.801l0.5,0.289
	l0,0.576l0.001,1.599l-1.887,1.089l-1.385-0.799l-0.5-0.289v-0.576V261.802z M-20.063,263.979l-0.5,0.289l-1.385,0.8l-1.885-1.088
	l0.001-1.6l0-0.576l0.5-0.289l1.385-0.801l1.883,1.088v1.6V263.979z M-20.062,277.195l-1.885,1.091l-1.385-0.801l-0.502-0.29
	l0-0.574l0.001-1.601l1.883-1.088l1.387,0.8l0.5,0.288v0.577V277.195z M-7.403,274.865L-10,272.964l-0.5-0.366l-0.5,0.366
	l-2.598,1.902l0.348-3.201l0.067-0.616l-0.566-0.25l-2.946-1.299l2.947-1.299l0.567-0.25l-0.067-0.615l-0.348-3.201l2.597,1.901
	l0.5,0.366l0.5-0.366l2.598-1.902l-0.348,3.201l-0.067,0.616l0.566,0.25l2.947,1.299l-2.946,1.3l-0.568,0.25l0.067,0.614
	L-7.403,274.865z M-12.385,255.192l1.385-0.8l0.5-0.289l0.5,0.289l1.385,0.8v2.179L-10,258.169l-0.5,0.288l-0.5-0.288l-1.385-0.798
	V255.192z M-8.615,283.808l-1.385,0.8l-0.5,0.289l-0.5-0.289l-1.385-0.8v-2.179l1.385-0.798l0.5-0.288l0.5,0.288l1.385,0.798
	V283.808z M0.948,278.285l-1.885-1.09v-1.597v-0.578l0.499-0.288l1.386-0.801l1.885,1.089v1.601v0.574l-0.501,0.29L0.948,278.285z"
	/>
</svg>
