<?xml version="1.0" encoding="utf-8"?>
<!-- Generator: Adobe Illustrator 16.0.0, SVG Export Plug-In . SVG Version: 6.00 Build 0)  -->
<!DOCTYPE svg PUBLIC "-//W3C//DTD SVG 1.1//EN" "http://www.w3.org/Graphics/SVG/1.1/DTD/svg11.dtd">
<svg version="1.1" id="Layer_1" xmlns="http://www.w3.org/2000/svg" xmlns:xlink="http://www.w3.org/1999/xlink" x="0px" y="0px"
	 width="50px" height="50px" viewBox="174.5 -245.5 50 50" enable-background="new 174.5 -245.5 50 50" xml:space="preserve">
<path style="fill:white" d="M203.139-223.432c-0.21-0.261-0.446-0.496-0.707-0.707c-0.682-0.551-1.514-0.908-2.432-1.007
	c-0.166-0.018-0.329-0.051-0.5-0.051s-0.334,0.033-0.5,0.051c-0.918,0.099-1.75,0.456-2.432,1.007
	c-0.261,0.21-0.497,0.446-0.707,0.707c-0.551,0.683-0.908,1.515-1.007,2.432c-0.019,0.167-0.051,0.329-0.051,0.5
	s0.032,0.333,0.051,0.5c0.099,0.917,0.456,1.75,1.007,2.432c0.21,0.261,0.446,0.496,0.707,0.707
	c0.682,0.551,1.514,0.908,2.432,1.007c0.166,0.018,0.329,0.051,0.5,0.051s0.334-0.033,0.5-0.051c0.918-0.099,1.75-0.456,2.432-1.007
	c0.261-0.21,0.497-0.446,0.707-0.707c0.551-0.683,0.908-1.515,1.007-2.432c0.019-0.167,0.051-0.329,0.051-0.5
	s-0.032-0.333-0.051-0.5C204.047-221.917,203.689-222.75,203.139-223.432z M203.146-220c-0.088,0.644-0.337,1.231-0.714,1.725
	c-0.203,0.267-0.439,0.504-0.707,0.707c-0.494,0.376-1.081,0.625-1.725,0.713c-0.165,0.023-0.329,0.051-0.5,0.051
	s-0.335-0.028-0.5-0.051c-0.644-0.088-1.23-0.337-1.725-0.713c-0.268-0.203-0.504-0.44-0.707-0.707
	c-0.377-0.494-0.626-1.082-0.714-1.725c-0.022-0.165-0.051-0.329-0.051-0.5s0.028-0.335,0.051-0.5
	c0.088-0.644,0.337-1.231,0.714-1.725c0.203-0.267,0.439-0.504,0.707-0.707c0.494-0.376,1.081-0.625,1.725-0.713
	c0.165-0.023,0.329-0.051,0.5-0.051s0.335,0.028,0.5,0.051c0.644,0.088,1.23,0.337,1.725,0.713c0.268,0.203,0.504,0.44,0.707,0.707
	c0.377,0.494,0.626,1.082,0.714,1.725c0.022,0.165,0.051,0.329,0.051,0.5S203.168-220.165,203.146-220z M214.5-222.969
	c-1.189,0-2.186,0.846-2.418,1.969h-3.508l3.723-3.723c0.195-0.195,0.195-0.512,0-0.707s-0.512-0.195-0.707,0l-4.43,4.43h-0.748
	c-0.11-1.537-0.721-2.934-1.672-4.033l5.72-5.72c0.195-0.195,0.195-0.512,0-0.707s-0.512-0.195-0.707,0l-5.72,5.72
	c-1.099-0.952-2.497-1.562-4.033-1.672v-0.744l4.428-4.434c0.195-0.196,0.195-0.512,0-0.708c-0.195-0.194-0.512-0.195-0.707,0
	L200-229.571v-3.51c1.123-0.231,1.971-1.228,1.971-2.419c0-1.362-1.108-2.47-2.47-2.47s-2.47,1.108-2.47,2.47
	c0,1.19,0.847,2.186,1.969,2.418v3.507l-3.723-3.722c-0.195-0.195-0.512-0.195-0.707,0s-0.195,0.512,0,0.707l4.43,4.43v0.748
	c-1.536,0.11-2.935,0.721-4.033,1.672l-5.72-5.72c-0.195-0.195-0.512-0.195-0.707,0s-0.195,0.512,0,0.707l5.72,5.72
	c-0.951,1.099-1.562,2.496-1.672,4.033h-0.745l-4.433-4.428c-0.195-0.194-0.512-0.195-0.707,0c-0.195,0.196-0.195,0.512,0,0.708
	l3.726,3.72h-3.51c-0.231-1.124-1.229-1.971-2.419-1.971c-1.361,0-2.47,1.108-2.47,2.47s1.108,2.47,2.47,2.47
	c1.189,0,2.186-0.846,2.418-1.969h3.508l-3.723,3.723c-0.195,0.195-0.195,0.512,0,0.707c0.098,0.098,0.226,0.146,0.354,0.146
	s0.256-0.049,0.354-0.146l4.43-4.43h0.748c0.11,1.537,0.721,2.934,1.672,4.033l-5.72,5.72c-0.195,0.195-0.195,0.512,0,0.707
	c0.098,0.098,0.226,0.146,0.354,0.146s0.256-0.049,0.354-0.146l5.72-5.72c1.099,0.952,2.497,1.562,4.033,1.672v0.744l-4.428,4.434
	c-0.195,0.196-0.195,0.512,0,0.708c0.195,0.194,0.512,0.195,0.707,0l3.721-3.726v3.51c-1.123,0.231-1.971,1.228-1.971,2.419
	c0,1.362,1.108,2.47,2.47,2.47s2.47-1.108,2.47-2.47c0-1.19-0.847-2.186-1.969-2.418v-3.507l3.723,3.722
	c0.098,0.098,0.226,0.146,0.354,0.146s0.256-0.049,0.354-0.146c0.195-0.195,0.195-0.512,0-0.707l-4.43-4.43v-0.748
	c1.536-0.11,2.935-0.721,4.033-1.672l5.72,5.72c0.098,0.098,0.226,0.146,0.354,0.146s0.256-0.049,0.354-0.146
	c0.195-0.195,0.195-0.512,0-0.707l-5.72-5.72c0.951-1.099,1.562-2.496,1.672-4.033h0.745l4.433,4.428
	c0.098,0.097,0.226,0.146,0.354,0.146s0.256-0.049,0.354-0.146c0.195-0.196,0.195-0.512,0-0.708l-3.726-3.72h3.51
	c0.231,1.124,1.229,1.971,2.419,1.971c1.361,0,2.47-1.108,2.47-2.47S215.861-222.969,214.5-222.969z M185.876-220
	c-0.206,0.563-0.742,0.969-1.376,0.969c-0.811,0-1.47-0.659-1.47-1.47s0.659-1.47,1.47-1.47c0.635,0,1.171,0.406,1.377,0.971
	c0.057,0.156,0.093,0.323,0.093,0.499C185.97-220.324,185.934-220.157,185.876-220z M198.031-235.5c0-0.811,0.659-1.47,1.47-1.47
	s1.47,0.659,1.47,1.47c0,0.635-0.406,1.171-0.971,1.376c-0.156,0.057-0.323,0.093-0.499,0.093c-0.177,0-0.344-0.036-0.501-0.094
	C198.437-234.33,198.031-234.866,198.031-235.5z M200.969-205.5c0,0.811-0.659,1.47-1.47,1.47s-1.47-0.659-1.47-1.47
	c0-0.635,0.406-1.171,0.971-1.376c0.156-0.057,0.323-0.093,0.499-0.093c0.177,0,0.344,0.036,0.501,0.094
	C200.563-206.67,200.969-206.134,200.969-205.5z M205.412-220c-0.105,1.262-0.605,2.412-1.379,3.326
	c-0.216,0.255-0.452,0.492-0.707,0.707c-0.914,0.773-2.064,1.273-3.326,1.379c-0.165,0.014-0.331,0.025-0.5,0.025
	s-0.335-0.012-0.5-0.025c-1.262-0.106-2.412-0.605-3.326-1.379c-0.255-0.215-0.491-0.452-0.707-0.707
	c-0.773-0.915-1.273-2.064-1.379-3.326c-0.014-0.165-0.025-0.331-0.025-0.5s0.012-0.335,0.025-0.5
	c0.105-1.262,0.605-2.412,1.379-3.326c0.216-0.255,0.452-0.492,0.707-0.707c0.914-0.773,2.064-1.273,3.326-1.379
	c0.165-0.014,0.331-0.025,0.5-0.025s0.335,0.012,0.5,0.025c1.262,0.106,2.412,0.605,3.326,1.379
	c0.255,0.215,0.491,0.452,0.707,0.707c0.773,0.915,1.273,2.064,1.379,3.326c0.014,0.165,0.025,0.331,0.025,0.5
	S205.426-220.165,205.412-220z M214.5-219.029c-0.635,0-1.171-0.406-1.377-0.971c-0.057-0.156-0.093-0.323-0.093-0.499
	c0-0.177,0.036-0.344,0.094-0.501c0.206-0.563,0.742-0.969,1.376-0.969c0.811,0,1.47,0.659,1.47,1.47S215.311-219.029,214.5-219.029
	z"/>
</svg>
