<?xml version="1.0" encoding="utf-8"?>
<!-- Generator: Adobe Illustrator 16.0.0, SVG Export Plug-In . SVG Version: 6.00 Build 0)  -->
<!DOCTYPE svg PUBLIC "-//W3C//DTD SVG 1.1//EN" "http://www.w3.org/Graphics/SVG/1.1/DTD/svg11.dtd">
<svg version="1.1" id="Layer_1" xmlns="http://www.w3.org/2000/svg" xmlns:xlink="http://www.w3.org/1999/xlink" x="0px" y="0px"
	 width="50px" height="50px" viewBox="-105.5 104.5 50 50" enable-background="new -105.5 104.5 50 50" xml:space="preserve">
<path style="fill:white" d="M-65.262,135.823c0-0.179-0.096-0.343-0.25-0.432l-1.893-1.094c-0.155-0.09-0.345-0.09-0.5,0l-1.698,0.981l-0.405-0.233
	c0.879-1.657,1.382-3.543,1.382-5.546c0-1.963-0.487-3.812-1.333-5.444l0.465-0.269l1.587,0.915c0.078,0.045,0.164,0.067,0.25,0.067
	s0.172-0.022,0.25-0.067l1.895-1.092c0.155-0.089,0.25-0.254,0.25-0.433l-0.002-1.161l0.002-1.025c0-0.179-0.095-0.345-0.25-0.434
	l-1.895-1.093c-0.155-0.089-0.345-0.088-0.5,0.001l-1.891,1.091c-0.155,0.089-0.251,0.255-0.251,0.434v1.963l-0.41,0.236
	c-2.021-3.203-5.523-5.37-9.542-5.539v-0.51l1.643-0.948c0.155-0.089,0.25-0.254,0.25-0.433v-2.186c0-0.179-0.095-0.343-0.25-0.433
	l-1.893-1.094c-0.155-0.09-0.345-0.09-0.5,0l-1.895,1.094c-0.154,0.09-0.25,0.254-0.25,0.433v2.186c0,0.179,0.095,0.344,0.25,0.433
	l1.645,0.948v0.51c-4.019,0.169-7.521,2.336-9.542,5.539l-0.412-0.237v-1.962c0-0.179-0.095-0.344-0.25-0.433l-1.892-1.092
	c-0.155-0.09-0.345-0.09-0.5-0.001l-1.894,1.093c-0.154,0.089-0.25,0.254-0.25,0.433l-0.002,2.186c0,0.179,0.095,0.344,0.25,0.433
	l1.895,1.094c0.078,0.045,0.164,0.067,0.25,0.067s0.172-0.022,0.25-0.067l1.586-0.917l0.468,0.271
	c-0.847,1.633-1.333,3.481-1.333,5.444c0,2.003,0.503,3.889,1.382,5.546l-0.406,0.234l-1.7-0.981
	c-0.155-0.089-0.344-0.088-0.499,0.001l-1.892,1.091c-0.155,0.089-0.251,0.255-0.251,0.434v2.186c0,0.179,0.095,0.344,0.25,0.433
	l1.893,1.094c0.078,0.045,0.164,0.067,0.25,0.067s0.172-0.022,0.25-0.067l1.893-1.094c0.155-0.089,0.25-0.254,0.25-0.433v-1.832
	l0.472-0.272c2.029,3.152,5.504,5.277,9.483,5.444v0.51l-1.645,0.948c-0.155,0.089-0.25,0.254-0.25,0.433v2.186
	c0,0.179,0.095,0.343,0.25,0.433l1.895,1.094c0.078,0.045,0.164,0.067,0.25,0.067s0.173-0.022,0.25-0.067l1.893-1.094
	c0.154-0.09,0.25-0.254,0.25-0.433v-2.186c0-0.179-0.095-0.344-0.25-0.433L-80,141.859v-0.51c3.979-0.167,7.454-2.292,9.483-5.444
	l0.47,0.271v1.833c0,0.179,0.095,0.344,0.25,0.433l1.893,1.094c0.078,0.045,0.164,0.067,0.25,0.067s0.172-0.022,0.25-0.067
	l1.893-1.094c0.155-0.089,0.25-0.254,0.25-0.433l0.002-1.163L-65.262,135.823z M-69.049,121.279l1.393-0.804l1.394,0.803l0,1.61
	l-1.395,0.804l-1.393-0.804V121.279z M-93.346,123.692l-1.395-0.806l0.002-1.608l1.392-0.803l1.394,0.804v1.607L-93.346,123.692z
	 M-93.348,138.526l-1.393-0.806v-1.607l1.393-0.804l1.386,0.8c0.002,0.006,0.003,0.013,0.006,0.019v1.593L-93.348,138.526z
	 M-69.625,129.5c0,1.82-0.455,3.535-1.25,5.045l-0.791-0.457c0.717-1.375,1.128-2.934,1.128-4.588c0-1.615-0.395-3.137-1.08-4.487
	l0.791-0.457C-70.063,126.041-69.625,127.719-69.625,129.5z M-75.966,123.331c-0.265-0.064-0.541,0.088-0.612,0.354l-0.962,3.594
	l-2.459,1.42v-2.84l2.629-2.631c0.195-0.195,0.195-0.512,0-0.707s-0.512-0.195-0.707,0L-80,124.445v-4.383
	c3.128,0.165,5.855,1.848,7.455,4.332l-3.771,2.178l0.704-2.629C-75.542,123.677-75.7,123.403-75.966,123.331z M-81,124.445
	l-1.924-1.924c-0.195-0.195-0.512-0.195-0.707,0s-0.195,0.512,0,0.707l2.631,2.631v2.84l-2.459-1.42l-0.964-3.595
	c-0.072-0.266-0.345-0.419-0.612-0.354c-0.267,0.072-0.425,0.347-0.354,0.613l0.705,2.628l-3.771-2.178
	c1.6-2.484,4.327-4.167,7.455-4.332V124.445z M-85.185,127.437l-2.626,0.703c-0.267,0.072-0.425,0.346-0.354,0.612
	c0.06,0.224,0.262,0.371,0.482,0.371c0.043,0,0.086-0.006,0.13-0.017l3.593-0.963l2.46,1.421l-2.458,1.419l-3.595-0.963
	c-0.265-0.062-0.541,0.088-0.612,0.354c-0.071,0.267,0.087,0.54,0.354,0.612l2.629,0.703l-3.719,2.147
	c-0.674-1.301-1.062-2.774-1.062-4.338c0-1.524,0.371-2.96,1.014-4.237L-85.185,127.437z M-84.684,132.557l-0.703,2.627
	c-0.071,0.267,0.087,0.54,0.354,0.612c0.043,0.011,0.087,0.017,0.13,0.017c0.221,0,0.423-0.147,0.482-0.371l0.962-3.591L-81,130.43
	v2.84l-2.631,2.631c-0.195,0.195-0.195,0.512,0,0.707c0.098,0.098,0.226,0.146,0.354,0.146s0.256-0.049,0.354-0.146l1.924-1.924
	v4.254c-3.089-0.162-5.789-1.804-7.397-4.236L-84.684,132.557z M-80,134.684l1.922,1.924c0.195,0.195,0.512,0.195,0.707,0
	s0.195-0.512,0-0.707L-80,133.27v-2.84l2.459,1.421l0.962,3.591c0.06,0.224,0.262,0.371,0.482,0.371c0.043,0,0.086-0.006,0.13-0.017
	c0.267-0.072,0.425-0.346,0.354-0.612l-0.703-2.627l3.713,2.145c-1.608,2.433-4.308,4.074-7.397,4.236V134.684z M-75.818,131.69
	l2.629-0.703c0.267-0.072,0.425-0.346,0.354-0.612c-0.071-0.267-0.346-0.418-0.612-0.354l-3.595,0.963l-2.458-1.419l2.46-1.421
	l3.593,0.963c0.043,0.011,0.087,0.017,0.13,0.017c0.221,0,0.423-0.147,0.482-0.371c0.071-0.267-0.087-0.54-0.354-0.612l-2.626-0.703
	l3.765-2.174c0.643,1.277,1.014,2.713,1.014,4.237c0,1.563-0.388,3.037-1.062,4.338L-75.818,131.69z M-71.323,123.689l-0.789,0.455
	c-1.688-2.633-4.575-4.416-7.888-4.582v-0.912C-76.351,118.817-73.17,120.784-71.323,123.689z M-81.895,113.862l1.394-0.805
	l1.393,0.805v1.608l-1.393,0.804l-1.394-0.804V113.862z M-81,118.65v0.912c-3.312,0.166-6.2,1.949-7.888,4.582l-0.789-0.455
	C-87.83,120.784-84.649,118.817-81,118.65z M-91.375,129.5c0-1.781,0.438-3.459,1.201-4.944l0.791,0.457
	c-0.685,1.351-1.08,2.872-1.08,4.487c0,1.654,0.412,3.213,1.128,4.588l-0.791,0.457C-90.92,133.035-91.375,131.32-91.375,129.5z
	 M-89.619,135.406l0.789-0.456c1.696,2.582,4.556,4.323,7.83,4.487v0.912C-84.61,140.185-87.764,138.26-89.619,135.406z
	 M-79.107,145.138l-1.393,0.805l-1.394-0.805v-1.608l1.33-0.767c0.022,0.003,0.042,0.013,0.064,0.013
	c0.022,0,0.042-0.01,0.063-0.013l1.329,0.767V145.138z M-80,140.35v-0.912c3.273-0.164,6.134-1.905,7.83-4.487l0.789,0.456
	C-73.236,138.26-76.39,140.185-80,140.35z M-66.262,137.721l-1.393,0.806l-1.393-0.806v-1.587c0.004-0.009,0.005-0.017,0.009-0.025
	l1.384-0.801l1.393,0.806L-66.262,137.721z"/>
</svg>
