<?xml version="1.0" encoding="utf-8"?>
<!-- Generator: Adobe Illustrator 16.0.0, SVG Export Plug-In . SVG Version: 6.00 Build 0)  -->
<!DOCTYPE svg PUBLIC "-//W3C//DTD SVG 1.1//EN" "http://www.w3.org/Graphics/SVG/1.1/DTD/svg11.dtd">
<svg version="1.1" id="Layer_1" xmlns="http://www.w3.org/2000/svg" xmlns:xlink="http://www.w3.org/1999/xlink" x="0px" y="0px"
	 width="50px" height="50px" viewBox="-245.5 104.5 50 50" enable-background="new -245.5 104.5 50 50" xml:space="preserve">
<path style="fill:white" d="M-205.146,131.599l-1.6-1.598h1.247c0.276,0,0.5-0.224,0.5-0.5s-0.224-0.5-0.5-0.5h-1.247l1.601-1.602
	c0.195-0.195,0.195-0.512,0-0.707s-0.512-0.195-0.707,0l-2.308,2.309h-0.489c-0.122-2.896-1.28-5.522-3.121-7.523l2.231-2.23
	c0.195-0.195,0.195-0.512,0-0.707s-0.512-0.195-0.707,0l-2.231,2.23c-2-1.839-4.626-2.998-7.522-3.119v-0.487l2.308-2.31
	c0.195-0.195,0.195-0.512,0-0.707s-0.512-0.195-0.707,0l-1.601,1.602v-1.248c0-0.276-0.224-0.5-0.5-0.5s-0.5,0.224-0.5,0.5v1.247
	l-1.601-1.601c-0.195-0.195-0.512-0.195-0.707,0s-0.195,0.512,0,0.707l2.308,2.308v0.489c-2.896,0.121-5.522,1.28-7.522,3.119
	l-2.231-2.23c-0.195-0.195-0.512-0.195-0.707,0s-0.195,0.512,0,0.707l2.231,2.23c-1.84,2.001-2.999,4.627-3.121,7.523h-0.489
	l-2.308-2.307c-0.195-0.195-0.512-0.195-0.707,0s-0.195,0.512,0,0.707l1.601,1.6h-1.247c-0.276,0-0.5,0.224-0.5,0.5
	s0.224,0.5,0.5,0.5h1.247l-1.601,1.602c-0.195,0.195-0.195,0.512,0,0.707c0.098,0.098,0.226,0.146,0.354,0.146
	s0.256-0.049,0.354-0.146l2.308-2.309h0.489c0.122,2.896,1.28,5.521,3.12,7.522l-2.23,2.229c-0.195,0.195-0.195,0.512,0,0.707
	c0.098,0.098,0.226,0.146,0.354,0.146s0.256-0.049,0.354-0.146l2.23-2.229c2,1.84,4.626,2.999,7.523,3.12v0.487l-2.308,2.31
	c-0.195,0.195-0.195,0.512,0,0.707c0.098,0.098,0.226,0.146,0.354,0.146s0.256-0.049,0.354-0.146l1.601-1.602v1.248
	c0,0.276,0.224,0.5,0.5,0.5s0.5-0.224,0.5-0.5v-1.247l1.601,1.601c0.195,0.195,0.512,0.195,0.707,0s0.195-0.512,0-0.707L-220,141.84
	v-0.489c2.896-0.121,5.523-1.28,7.523-3.12l2.23,2.229c0.098,0.098,0.226,0.146,0.354,0.146s0.256-0.049,0.354-0.146
	c0.195-0.195,0.195-0.512,0-0.707l-2.23-2.229c1.84-2.001,2.998-4.626,3.12-7.522h0.49l2.307,2.305
	c0.098,0.098,0.226,0.146,0.354,0.146s0.256-0.049,0.354-0.146C-204.951,132.11-204.951,131.794-205.146,131.599z M-220,118.651
	c2.621,0.12,4.997,1.167,6.815,2.826l-0.645,0.645c-1.652-1.494-3.801-2.44-6.17-2.559V118.651z M-212.262,129.001l-3.914-1.099
	l2.581-4.601l0.119-0.119c1.405,1.561,2.296,3.586,2.413,5.818H-212.262z M-211.068,130.107c-0.14,2.189-1.024,4.175-2.407,5.711
	l-0.687-0.687l-2.014-3.589L-211.068,130.107z M-220,120.063c2.231,0.117,4.256,1.008,5.817,2.412l-0.653,0.653l-3.917,2.199
	l-1.248-4.447V120.063z M-221,118.651v0.912c-2.369,0.118-4.519,1.064-6.17,2.559l-0.645-0.645
	C-225.997,119.818-223.621,118.771-221,118.651z M-229.938,129.001c0.116-2.202,0.984-4.204,2.357-5.757l2.613,4.658l-3.914,1.099
	H-229.938z M-224.967,131.543l-2.197,3.913l-0.362,0.362c-1.374-1.526-2.257-3.496-2.405-5.67L-224.967,131.543z M-226.817,122.476
	c1.561-1.404,3.586-2.295,5.817-2.412v0.31l-1.391,4.955l-3.591-2.017L-226.817,122.476z M-228.522,122.185l0.645,0.645
	c-1.495,1.652-2.441,3.803-2.56,6.172h-0.912C-231.229,126.38-230.182,124.003-228.522,122.185z M-228.523,136.816
	c-1.659-1.818-2.706-4.195-2.826-6.815h0.896l0.017,0.005c0.12,2.367,1.065,4.515,2.559,6.166L-228.523,136.816z M-221,140.351
	c-2.621-0.12-4.998-1.168-6.816-2.827l0.645-0.645c1.652,1.495,3.802,2.441,6.172,2.56V140.351z M-226.766,136.572l4.375-2.455
	l1.353,4.819C-223.23,138.812-225.222,137.943-226.766,136.572z M-220.571,136.898l-0.429-1.527l-0.771-2.748l-2.608,1.463
	l-1.268,0.712l1.098-1.955l1.077-1.919l-3.283-0.923l-0.994-0.279l2.568-0.721l1.708-0.479l-1.646-2.934l-0.528-0.941l2.282,1.281
	l1.594,0.895l0.771-2.748l0.429-1.527l0.571,2.035l0.629,2.24l1.919-1.077l1.957-1.099l-0.711,1.267l-1.464,2.608l1.708,0.479
	l2.568,0.721l-0.994,0.279l-3.283,0.923l0.895,1.594l1.28,2.28l-0.943-0.529l-2.933-1.646l-0.629,2.24L-220.571,136.898z
	 M-214.288,136.622c-1.546,1.351-3.531,2.201-5.712,2.316v-0.374l1.248-4.447L-214.288,136.622z M-220,140.351v-0.912
	c2.369-0.118,4.519-1.064,6.171-2.559l0.004,0.002l0.642,0.642C-215.002,139.183-217.379,140.23-220,140.351z M-212.477,136.816
	l-0.645-0.645c1.495-1.652,2.441-3.802,2.559-6.171h0.912C-209.771,132.621-210.817,134.998-212.477,136.816z M-210.562,129.001
	c-0.118-2.369-1.064-4.52-2.56-6.172l0.645-0.645c1.66,1.818,2.707,4.195,2.827,6.816H-210.562z"/>
</svg>
