<?xml version="1.0" encoding="utf-8"?>
<!-- Generator: Adobe Illustrator 16.0.0, SVG Export Plug-In . SVG Version: 6.00 Build 0)  -->
<!DOCTYPE svg PUBLIC "-//W3C//DTD SVG 1.1//EN" "http://www.w3.org/Graphics/SVG/1.1/DTD/svg11.dtd">
<svg version="1.1" id="Layer_1" xmlns="http://www.w3.org/2000/svg" xmlns:xlink="http://www.w3.org/1999/xlink" x="0px" y="0px"
	 width="50px" height="50px" viewBox="314.5 -315.5 50 50" enable-background="new 314.5 -315.5 50 50" xml:space="preserve">
<path d="M354.5-291.25h-3.289l1.8-1.799c0.293-0.292,0.293-0.768,0-1.061c-0.293-0.292-0.768-0.293-1.061,0l-2.86,2.859h-4.153
	l-3.237-1.449l-1.449-3.237v-4.154l2.86-2.86c0.293-0.293,0.293-0.768,0-1.061s-0.768-0.293-1.061,0l-1.8,1.8v-3.289
	c0-0.414-0.336-0.75-0.75-0.75s-0.75,0.336-0.75,0.75v3.289l-1.799-1.799c-0.293-0.293-0.768-0.293-1.061,0
	c-0.293,0.292-0.293,0.768,0,1.061l2.859,2.86v4.154l-1.449,3.237l-3.237,1.449h-4.153l-2.86-2.86c-0.293-0.293-0.768-0.293-1.061,0
	s-0.293,0.768,0,1.061l1.8,1.8H324.5c-0.414,0-0.75,0.336-0.75,0.75s0.336,0.75,0.75,0.75h3.289l-1.8,1.799
	c-0.293,0.292-0.293,0.768,0,1.061c0.146,0.146,0.338,0.22,0.53,0.22c0.191,0,0.384-0.073,0.53-0.22l2.86-2.859h4.153l3.237,1.449
	l1.449,3.237v4.154l-2.86,2.86c-0.293,0.293-0.293,0.768,0,1.061s0.768,0.293,1.061,0l1.8-1.8v3.289c0,0.414,0.336,0.75,0.75,0.75
	s0.75-0.336,0.75-0.75v-3.289l1.799,1.799c0.146,0.146,0.338,0.22,0.53,0.22s0.384-0.073,0.53-0.22c0.293-0.292,0.293-0.768,0-1.061
	l-2.859-2.86v-4.154l1.449-3.237l3.237-1.449h4.153l2.86,2.86c0.146,0.146,0.338,0.22,0.53,0.22s0.384-0.073,0.53-0.22
	c0.293-0.293,0.293-0.768,0-1.061l-1.8-1.8h3.289c0.414,0,0.75-0.336,0.75-0.75S354.914-291.25,354.5-291.25z M341.267-289.75
	l-0.702,0.314l-0.314,0.702l-0.75,1.674l-0.75-1.674l-0.314-0.702l-0.702-0.314l-1.675-0.75l1.675-0.75l0.702-0.314l0.314-0.702
	l0.75-1.674l0.75,1.674l0.314,0.702l0.702,0.314l1.675,0.75L341.267-289.75z M348.828-286.954c0,0.414-0.336,0.75-0.75,0.75h-4.282
	v4.283c0,0.414-0.336,0.75-0.75,0.75s-0.75-0.336-0.75-0.75v-5.783h5.782C348.492-287.704,348.828-287.368,348.828-286.954z
	 M330.172-294.045c0-0.414,0.336-0.75,0.75-0.75l4.282,0v-4.283c0-0.414,0.336-0.75,0.75-0.75s0.75,0.336,0.75,0.75v5.783l-5.782,0
	C330.508-293.295,330.172-293.631,330.172-294.045z M335.816-280.837c-0.414,0-0.75-0.336-0.75-0.75v-4.479h-4.479
	c-0.414,0-0.75-0.336-0.75-0.75s0.336-0.75,0.75-0.75h5.979v5.979C336.566-281.173,336.23-280.837,335.816-280.837z
	 M343.184-300.163c0.414,0,0.75,0.336,0.75,0.75v4.478h4.479c0.414,0,0.75,0.336,0.75,0.75s-0.336,0.75-0.75,0.75h-5.979v-5.978
	C342.434-299.827,342.77-300.163,343.184-300.163z" style="fill:white"/>
</svg>
