<?xml version="1.0" encoding="utf-8"?>
<!-- Generator: Adobe Illustrator 16.0.0, SVG Export Plug-In . SVG Version: 6.00 Build 0)  -->
<!DOCTYPE svg PUBLIC "-//W3C//DTD SVG 1.1//EN" "http://www.w3.org/Graphics/SVG/1.1/DTD/svg11.dtd">
<svg version="1.1" id="Layer_1" xmlns="http://www.w3.org/2000/svg" xmlns:xlink="http://www.w3.org/1999/xlink" x="0px" y="0px"
	 width="50px" height="50px" viewBox="34.5 314.5 50 50" enable-background="new 34.5 314.5 50 50" xml:space="preserve">
<path style="fill:white" d="M78.195,339.248l-1.574-2.727c-0.089-0.154-0.254-0.25-0.433-0.25h-3.147c-0.179,0-0.344,0.096-0.433,0.25L71.179,339h-3.93
	l1.793-3.105c0.139-0.239,0.057-0.545-0.183-0.683c-0.238-0.138-0.545-0.056-0.683,0.183l-1.994,3.452l-0.823-1.426l1.652-2.259
	l-2.781,0.303l-0.648-1.123l3.989-0.002c0.276,0,0.5-0.224,0.5-0.5s-0.224-0.5-0.5-0.5l-3.938,0.002l2.138-3.703h2.86
	c0.179,0,0.344-0.096,0.433-0.25l1.575-2.729c0.09-0.154,0.09-0.346,0-0.5l-1.575-2.727c-0.089-0.154-0.254-0.25-0.433-0.25h-3.149
	c-0.179,0-0.344,0.096-0.433,0.25l-1.575,2.727c-0.09,0.154-0.09,0.346,0,0.5l1.431,2.479l-2.049,3.55l-1.792-3.104
	c-0.138-0.239-0.444-0.323-0.683-0.183c-0.239,0.138-0.321,0.443-0.183,0.683l1.905,3.303H60.63l-1.13-2.561l-1.13,2.561h-1.296
	l1.906-3.303c0.139-0.239,0.057-0.545-0.183-0.683s-0.546-0.057-0.683,0.183l-1.883,3.26l-2.141-3.708l1.433-2.475
	c0.09-0.155,0.09-0.347,0-0.501l-1.577-2.729c-0.089-0.155-0.254-0.25-0.433-0.25h-3.148c-0.179,0-0.344,0.096-0.433,0.25
	l-1.575,2.729c-0.09,0.154-0.09,0.346,0,0.5l1.576,2.729c0.089,0.154,0.254,0.25,0.433,0.25c0,0,0,0,0.001,0l2.857-0.004l2.14,3.705
	h-3.756c-0.276,0-0.5,0.224-0.5,0.5s0.224,0.5,0.5,0.5h3.81l-0.65,1.126l-2.78-0.302l1.652,2.257l-0.734,1.272l-1.907-3.299
	c-0.139-0.239-0.446-0.322-0.683-0.183c-0.239,0.138-0.321,0.443-0.183,0.683L51.929,339h-4.109l-1.431-2.479
	c-0.089-0.154-0.254-0.25-0.433-0.25h-3.147c-0.179,0-0.344,0.096-0.434,0.25l-1.571,2.729c-0.089,0.155-0.089,0.345,0,0.499
	l1.569,2.727c0.09,0.155,0.255,0.251,0.434,0.251l3.149,0.002c0.179,0,0.344-0.096,0.433-0.25L47.819,340h4.283l-1.968,3.408
	c-0.139,0.239-0.057,0.545,0.183,0.683c0.079,0.046,0.165,0.067,0.25,0.067c0.172,0,0.341-0.09,0.433-0.25l1.993-3.451l0.648,1.123
	l-1.653,2.258l2.782-0.303l0.822,1.424h-3.983c-0.276,0-0.5,0.224-0.5,0.5s0.224,0.5,0.5,0.5h3.585l-1.966,3.404l-2.862,0.002
	c-0.179,0-0.344,0.096-0.433,0.25l-1.575,2.725c-0.09,0.154-0.09,0.345-0.001,0.5l1.572,2.727c0.09,0.154,0.255,0.25,0.434,0.25
	l3.152,0.002c0.179,0,0.344-0.096,0.434-0.251l1.572-2.73c0.089-0.154,0.089-0.345-0.001-0.499l-1.428-2.473l2.055-3.559l1.97,3.41
	c0.092,0.16,0.261,0.25,0.433,0.25c0.085,0,0.171-0.021,0.25-0.067c0.239-0.138,0.321-0.443,0.183-0.683l-2.08-3.604l1.469,0.001
	l1.129,2.561l1.129-2.561l1.646,0.001l-2.079,3.602c-0.139,0.239-0.057,0.545,0.183,0.683c0.079,0.046,0.165,0.067,0.25,0.067
	c0.172,0,0.341-0.09,0.433-0.25l1.88-3.254l1.965,3.402l-1.433,2.472c-0.09,0.155-0.09,0.346,0,0.501l1.576,2.73
	c0.089,0.154,0.254,0.25,0.433,0.25h3.15c0.179,0,0.344-0.096,0.433-0.25l1.573-2.727c0.09-0.154,0.09-0.345,0-0.5l-1.575-2.73
	c-0.089-0.154-0.254-0.25-0.433-0.25c0,0,0,0-0.001,0l-2.858,0.004l-1.967-3.406h3.765c0.276,0,0.5-0.224,0.5-0.5
	s-0.224-0.5-0.5-0.5H63.41l0.822-1.425l2.779,0.302l-1.652-2.256l0.736-1.276l2.081,3.604c0.092,0.16,0.261,0.25,0.433,0.25
	c0.085,0,0.171-0.021,0.25-0.067c0.239-0.138,0.321-0.443,0.183-0.683L67.075,340h4.103l1.427,2.475
	c0.09,0.154,0.255,0.25,0.434,0.25l3.151,0.002c0.179,0,0.344-0.096,0.434-0.25l1.573-2.729
	C78.285,339.593,78.285,339.402,78.195,339.248z M67.767,324.184h0.575l0.289,0.5l0.998,1.727l-1.287,2.229h-1.994h-0.577
	l-0.288-0.499l-0.999-1.729l1.287-2.227H67.767z M50.655,328.639l-1.287-2.229l0.999-1.729l0.288-0.5h0.575h1.996l1.288,2.229
	l-1,1.727l-0.288,0.498l-0.578,0.001L50.655,328.639z M46.954,339.5l-0.289,0.5l-0.998,1.729l-2.571-0.002l-0.994-1.728
	l-0.287-0.499l0.287-0.499l0.996-1.729h2.569L46.665,339L46.954,339.5z M51.233,354.816h-0.581l-0.285-0.494l-0.999-1.732
	l1.287-2.225l1.996-0.002h0.575l0.289,0.501l0.995,1.724l-1.284,2.23L51.233,354.816z M68.342,350.361l1.287,2.23l-0.998,1.729
	l-0.287,0.498h-0.577h-1.995l-1.288-2.229l1-1.725l0.289-0.499l0.575-0.001L68.342,350.361z M64.777,342.588l-0.543-0.059
	l-0.543-0.06l-2.028-0.22l-0.612-0.066l-0.251,0.569l-0.822,1.861l-0.221,0.5l-0.221,0.5h-0.072l-0.221-0.5l-0.22-0.5l-0.822-1.865
	l-0.25-0.566l-0.615,0.067l-2.025,0.22l-0.544,0.06l-0.543,0.059l-0.036-0.062l0.323-0.44l0.322-0.441L56.036,340l0.365-0.499
	L56.035,339l-1.203-1.644l-0.322-0.441l-0.322-0.441l0.035-0.062l0.543,0.059l0.544,0.06l2.024,0.22l0.615,0.066l0.25-0.566
	l0.822-1.863l0.221-0.5l0.221-0.5h0.074l0.221,0.5l0.22,0.5l0.822,1.863l0.25,0.567l0.614-0.066l2.026-0.221l0.544-0.06l0.543-0.059
	l0.035,0.062l-0.322,0.441l-0.322,0.441L62.965,339l-0.366,0.501L62.964,340l1.204,1.645l0.322,0.441l0.323,0.44L64.777,342.588z
	 M62.741,344.116l-0.288,0.499h-0.578H61.07l0.349-0.79l0.251-0.569l0.612,0.066l0.863,0.094L62.741,344.116z M57.125,344.613
	h-0.576l-0.289-0.5l-0.402-0.696l0.858-0.093l0.616-0.067l0.249,0.565l0.349,0.791H57.125z M53.595,339.5l0.289-0.5l0.402-0.697
	l0.51,0.697l0.367,0.501L54.798,340l-0.511,0.698L53.884,340L53.595,339.5z M56.258,334.887l0.289-0.5h0.576h0.806l-0.349,0.791
	l-0.25,0.566l-0.615-0.066l-0.859-0.094L56.258,334.887z M61.875,334.387h0.578l0.288,0.499l0.402,0.697l-0.859,0.093l-0.615,0.067
	l-0.25-0.566l-0.349-0.79H61.875z M64.202,340l-0.365-0.499L64.203,339l0.511-0.697L65.116,339l0.289,0.5l-0.288,0.5l-0.403,0.698
	L64.202,340z M73.327,341.725L72.332,340l-0.288-0.5l0.288-0.5l0.998-1.729h2.569l0.999,1.729l0.287,0.497L76.896,340l-0.996,1.727
	L73.327,341.725z"/>
</svg>
