<?xml version="1.0" encoding="utf-8"?>
<!-- Generator: Adobe Illustrator 16.0.0, SVG Export Plug-In . SVG Version: 6.00 Build 0)  -->
<!DOCTYPE svg PUBLIC "-//W3C//DTD SVG 1.1//EN" "http://www.w3.org/Graphics/SVG/1.1/DTD/svg11.dtd">
<svg version="1.1" id="Layer_1" xmlns="http://www.w3.org/2000/svg" xmlns:xlink="http://www.w3.org/1999/xlink" x="0px" y="0px"
	 width="50px" height="50px" viewBox="-175.5 314.5 50 50" enable-background="new -175.5 314.5 50 50" xml:space="preserve">
<path style="fill:white" d="M-132.562,337.274h-2.571l-0.996,1.725h-6.056l4.193-4.191c0.195-0.195,0.195-0.512,0-0.707s-0.512-0.195-0.707,0
	l-4.9,4.898h-2.197l2.807-3.837l-4.726,0.514l1.101-1.906l6.689-1.792c0.267-0.072,0.425-0.346,0.354-0.613
	c-0.072-0.266-0.344-0.418-0.612-0.354l-5.724,1.534l3.025-5.239h1.993l1.286-2.227l-1.285-2.227h-2.571l-1.284,2.227l0.996,1.725
	l-3.026,5.242l-1.535-5.728c-0.071-0.266-0.343-0.417-0.612-0.354c-0.267,0.072-0.425,0.346-0.354,0.613l1.793,6.692l-1.101,1.906
	l-1.919-4.351l-1.918,4.349l-1.099-1.903l1.792-6.69c0.071-0.267-0.087-0.54-0.354-0.612c-0.267-0.064-0.541,0.088-0.612,0.354
	l-1.534,5.724l-3.026-5.241l0.996-1.727l-1.285-2.227h-2.57l-1.285,2.227l1.285,2.225l1.994,0.002l3.026,5.24l-5.724-1.534
	c-0.264-0.064-0.541,0.088-0.612,0.354c-0.071,0.268,0.087,0.541,0.354,0.613l6.69,1.792l1.101,1.907l-4.728-0.514l2.807,3.835
	h-2.199l-4.898-4.898c-0.195-0.195-0.512-0.195-0.707,0s-0.195,0.512,0,0.707l4.191,4.191h-6.053l-0.996-1.725l-2.57-0.002
	l-1.285,2.229l1.285,2.225h2.57l0.998-1.727h6.051l-4.191,4.19c-0.195,0.195-0.195,0.512,0,0.707
	c0.098,0.098,0.226,0.146,0.354,0.146s0.256-0.049,0.354-0.146l4.898-4.897h2.201l-2.81,3.839l4.727-0.514l-1.098,1.901
	l-6.693,1.794c-0.267,0.072-0.425,0.346-0.354,0.613c0.072,0.267,0.346,0.42,0.612,0.354l5.728-1.536l-3.028,5.245l-1.992-0.001
	l-1.286,2.228l1.287,2.224h2.569l1.285-2.225l-0.997-1.728l3.025-5.24l1.535,5.723c0.06,0.223,0.262,0.37,0.482,0.37
	c0.043,0,0.086-0.006,0.13-0.017c0.267-0.072,0.425-0.347,0.354-0.613l-1.794-6.688l1.1-1.904l1.918,4.351l1.92-4.352l1.098,1.902
	l-1.792,6.691c-0.071,0.267,0.087,0.54,0.354,0.612c0.043,0.011,0.087,0.017,0.13,0.017c0.221,0,0.423-0.147,0.482-0.371
	l1.533-5.725l3.028,5.245l-0.997,1.726l1.285,2.227l2.57-0.002l1.285-2.225l-1.285-2.227l-1.993,0.001l-3.028-5.244l5.725,1.535
	c0.27,0.066,0.541-0.087,0.612-0.354c0.072-0.268-0.087-0.541-0.354-0.613l-6.691-1.793l-1.099-1.904l4.726,0.514l-2.81-3.837h2.203
	l4.895,4.898c0.098,0.098,0.226,0.146,0.354,0.146s0.256-0.049,0.354-0.146c0.195-0.195,0.195-0.512,0-0.707l-4.188-4.191h6.05
	l0.998,1.728l2.571-0.001l1.284-2.225L-132.562,337.274z M-148.949,342.184l-0.25,0.567l-1.3,2.945l-1.298-2.946l-0.25-0.567
	l-0.616,0.067l-3.201,0.348l1.902-2.599l0.365-0.498l-0.367-0.502l-1.9-2.597l3.202,0.348l0.613,0.066l0.251-0.569l1.299-2.944
	l1.299,2.947l0.25,0.567l0.615-0.067l3.201-0.348l-1.9,2.597l-0.367,0.502l0.365,0.498l1.902,2.599l-3.199-0.348L-148.949,342.184z"
	/>
</svg>
