<?xml version="1.0" encoding="utf-8"?>
<!-- Generator: Adobe Illustrator 16.0.0, SVG Export Plug-In . SVG Version: 6.00 Build 0)  -->
<!DOCTYPE svg PUBLIC "-//W3C//DTD SVG 1.1//EN" "http://www.w3.org/Graphics/SVG/1.1/DTD/svg11.dtd">
<svg version="1.1" id="Layer_1" xmlns="http://www.w3.org/2000/svg" xmlns:xlink="http://www.w3.org/1999/xlink" x="0px" y="0px"
	 width="50px" height="50px" viewBox="-175.5 314.5 50 50" enable-background="new -175.5 314.5 50 50" xml:space="preserve">
<path style="fill:white" d="M-136.01,345.639l1.192,0.689l-1.928,3.342l-1.19-0.688l-3.051,0.815l-0.817-3.049l-0.334-0.192l0.506,1.889
	c0.071,0.267-0.087,0.54-0.354,0.612c-0.266,0.065-0.541-0.087-0.612-0.354l-1.131-4.221l2.783,1.608l0.666,2.482l1.803-0.481
	l-0.167-0.667l1.532,0.879l0.929-1.609l-1.66-0.96l0.781-0.156l-0.472-1.763l-2.483,0.667l-2.782-1.608l4.218-1.13
	c0.268-0.063,0.541,0.087,0.612,0.354c0.071,0.267-0.087,0.54-0.354,0.612l-1.887,0.505l0.333,0.192l3.048-0.817L-136.01,345.639z
	 M-149.571,333.772l5.629-5.631l-2.06,7.688l-3.569,2.061V333.772z M-148.571,336.158l1.71-0.986l0.987-3.683l-2.697,2.697V336.158z
	 M-153.811,327.349c-0.195-0.195-0.512-0.195-0.707,0s-0.195,0.512,0,0.707l3.089,3.088v-3.212l-1.818-1.817l1.313-1.314
	l0.505,0.505v-1.8h1.857l0.005,1.795l0.5-0.5l1.313,1.314l-1.818,1.817v3.212l3.089-3.088c0.195-0.195,0.195-0.512,0-0.707
	s-0.512-0.195-0.707,0l-1.382,1.381v-0.384l2.232-2.231l-2.232-2.233v-1.376h-3.857v1.376l-2.232,2.233l2.232,2.231v0.384
	L-153.811,327.349z M-145.074,337.441l7.688,2.06l-7.69,2.059l-3.566-2.059L-145.074,337.441z M-144.932,338.514l-1.709,0.987
	l1.708,0.986l3.683-0.986L-144.932,338.514z M-140.28,330.429l1.907,0.511v0.487l1.262-0.729l0.928,1.609l-1.58,0.915l0.709,0.177
	l-0.479,1.788l-2.486-0.666l-2.781,1.605l4.22,1.131c0.043,0.011,0.087,0.017,0.13,0.017c0.221,0,0.422-0.147,0.482-0.37
	c0.071-0.268-0.087-0.541-0.354-0.613l-1.888-0.506l0.332-0.191l3.051,0.818l0.817-3.052l1.191-0.686l-1.929-3.344l-1.192,0.689
	l-3.048-0.818l-0.818,3.05l-0.332,0.191l0.505-1.886c0.072-0.268-0.087-0.541-0.354-0.613c-0.264-0.063-0.541,0.088-0.612,0.354
	l-1.131,4.22l2.782-1.607L-140.28,330.429z M-160.72,348.572l-1.803-0.481l0.168-0.675l-1.534,0.887l-0.929-1.609l1.655-0.961
	l-0.776-0.155l0.472-1.763l2.483,0.667l2.782-1.608l-4.218-1.13c-0.265-0.063-0.541,0.088-0.612,0.354s0.087,0.54,0.354,0.612
	l1.887,0.505l-0.333,0.192l-3.048-0.817l-0.816,3.049l-1.192,0.689l1.928,3.342l1.19-0.688l3.051,0.815l0.817-3.049l0.333-0.191
	l-0.506,1.887c-0.072,0.267,0.086,0.541,0.354,0.612c0.265,0.073,0.541-0.086,0.612-0.353l1.132-4.219l-2.783,1.605L-160.72,348.572
	z M-151.429,345.229l-5.629,5.63l2.062-7.688l3.568-2.061V345.229z M-152.429,342.842l-1.709,0.986l-0.987,3.683l2.697-2.696
	V342.842z M-147.189,351.653c0.195,0.195,0.512,0.195,0.707,0s0.195-0.512,0-0.707l-3.089-3.089v3.212l1.818,1.818l-1.313,1.313
	l-0.505-0.505v1.799h-1.857l-0.005-1.794l-0.5,0.5l-1.313-1.313l1.818-1.818v-3.213l-3.089,3.089c-0.195,0.195-0.195,0.512,0,0.707
	s0.512,0.195,0.707,0l1.382-1.382v0.385l-2.232,2.232l2.232,2.232v1.375h3.857v-1.375l2.232-2.232l-2.232-2.232v-0.384
	L-147.189,351.653z M-164.175,336.412l3.051-0.818l0.332,0.191l-1.888,0.506c-0.267,0.072-0.425,0.346-0.354,0.613
	c0.06,0.223,0.262,0.37,0.482,0.37c0.043,0,0.086-0.006,0.13-0.017l4.22-1.131l-2.781-1.605l-2.486,0.666l-0.479-1.788l0.717-0.179
	l-1.587-0.913l0.929-1.609l1.261,0.724v-0.482l1.906-0.512l0.667,2.482l2.782,1.609l-1.131-4.222
	c-0.071-0.266-0.345-0.418-0.612-0.354c-0.267,0.072-0.425,0.346-0.354,0.613l0.505,1.886l-0.332-0.191l-0.818-3.049l-3.048,0.817
	l-1.192-0.689l-1.929,3.344l1.191,0.686L-164.175,336.412z M-146.004,343.17l2.059,7.686l-5.626-5.627v-4.119L-146.004,343.17z
	 M-145.877,347.51l-0.986-3.682l-1.708-0.986v1.973L-145.877,347.51z M-155.925,337.441l3.567,2.06l-3.567,2.059l-7.689-2.059
	L-155.925,337.441z M-154.358,339.501l-1.708-0.987l-3.682,0.987l3.682,0.986L-154.358,339.501z M-154.997,335.831l-2.062-7.689
	l5.629,5.631v4.119L-154.997,335.831z M-155.125,331.489l0.987,3.684l1.709,0.986v-1.973L-155.125,331.489z"/>
</svg>
