<?xml version="1.0" encoding="utf-8"?>
<!-- Generator: Adobe Illustrator 16.0.0, SVG Export Plug-In . SVG Version: 6.00 Build 0)  -->
<!DOCTYPE svg PUBLIC "-//W3C//DTD SVG 1.1//EN" "http://www.w3.org/Graphics/SVG/1.1/DTD/svg11.dtd">
<svg version="1.1" id="Layer_1" xmlns="http://www.w3.org/2000/svg" xmlns:xlink="http://www.w3.org/1999/xlink" x="0px" y="0px"
	 width="50px" height="50px" viewBox="-105.5 244.5 50 50" enable-background="new -105.5 244.5 50 50" xml:space="preserve">
<path style="fill:white" d="M-64.106,276.32c0-0.179-0.095-0.344-0.25-0.433l-2.042-1.181c-0.154-0.089-0.345-0.089-0.499,0l-1.792,1.035l-4.362-2.518
	l5.728-1.534c0.267-0.072,0.425-0.346,0.354-0.612c-0.071-0.267-0.346-0.421-0.612-0.354l-6.694,1.794l-1.903-1.1l4.354-1.918
	l-4.353-1.919l1.907-1.101l6.69,1.793c0.043,0.011,0.087,0.017,0.13,0.017c0.221,0,0.422-0.147,0.482-0.37
	c0.071-0.268-0.087-0.541-0.354-0.613l-5.724-1.533l4.354-2.515l1.792,1.034c0.077,0.044,0.164,0.066,0.25,0.066
	s0.172-0.022,0.25-0.066l2.043-1.178c0.155-0.089,0.25-0.254,0.25-0.433l-0.002-1.253l0.001-1.106c0-0.179-0.095-0.344-0.25-0.433
	l-2.042-1.178c-0.155-0.088-0.345-0.088-0.5,0l-2.04,1.177c-0.155,0.089-0.251,0.254-0.251,0.434v2.07l-4.357,2.516l1.535-5.727
	c0.071-0.268-0.087-0.541-0.354-0.613c-0.265-0.063-0.54,0.088-0.612,0.354l-1.793,6.693l-1.906,1.101l0.514-4.73L-80,264.797v-2.2
	l4.898-4.897c0.195-0.195,0.195-0.512,0-0.707s-0.512-0.195-0.707,0l-4.191,4.19v-5.034l1.791-1.031
	c0.155-0.09,0.25-0.255,0.25-0.434v-2.357c0-0.179-0.095-0.343-0.249-0.433l-2.042-1.18c-0.155-0.09-0.346-0.09-0.501,0l-2.042,1.18
	c-0.154,0.089-0.25,0.254-0.25,0.433v2.357c0,0.179,0.096,0.344,0.25,0.434l1.792,1.032v5.033l-4.191-4.19
	c-0.195-0.195-0.512-0.195-0.707,0s-0.195,0.512,0,0.707l4.898,4.897v2.2l-3.836-2.809l0.514,4.729l-1.906-1.101l-1.793-6.693
	c-0.072-0.267-0.344-0.418-0.612-0.354c-0.267,0.072-0.425,0.346-0.354,0.613l1.535,5.727l-4.358-2.517l0.001-0.966l-0.001-1.104
	c0-0.178-0.096-0.343-0.25-0.432l-2.041-1.178c-0.155-0.088-0.345-0.088-0.499,0l-2.042,1.178c-0.155,0.089-0.25,0.254-0.25,0.433
	l-0.001,2.356c0,0.179,0.095,0.344,0.25,0.433l2.043,1.181c0.077,0.044,0.164,0.066,0.25,0.066s0.172-0.022,0.25-0.066l1.791-1.035
	l4.357,2.516l-5.724,1.533c-0.267,0.072-0.425,0.346-0.354,0.613c0.06,0.223,0.262,0.37,0.482,0.37c0.043,0,0.086-0.006,0.13-0.017
	l6.69-1.793l1.908,1.102l-4.353,1.918l4.352,1.919l-1.902,1.099l-6.694-1.794c-0.264-0.065-0.541,0.088-0.612,0.354
	s0.087,0.54,0.354,0.612l5.728,1.534l-4.363,2.519l-1.793-1.034c-0.155-0.088-0.345-0.089-0.499,0.001l-2.039,1.177
	c-0.155,0.09-0.25,0.255-0.25,0.434l-0.001,1.106l0.001,0.146l-0.001,1.104c0,0.179,0.095,0.344,0.25,0.433l2.042,1.18
	c0.077,0.044,0.164,0.066,0.25,0.066s0.172-0.022,0.25-0.066l2.041-1.18c0.155-0.089,0.25-0.254,0.25-0.433l-0.001-1.253
	l0.001-0.815l4.359-2.517l-1.532,5.724c-0.071,0.267,0.087,0.54,0.354,0.612c0.043,0.011,0.087,0.017,0.13,0.017
	c0.221,0,0.423-0.147,0.482-0.371l1.791-6.688l1.906-1.101l-0.514,4.729l3.837-2.81v2.197l-4.898,4.898
	c-0.195,0.195-0.195,0.512,0,0.707s0.512,0.195,0.707,0l4.191-4.191v5.036l-1.792,1.032c-0.155,0.09-0.25,0.255-0.25,0.434v2.357
	c0,0.179,0.095,0.344,0.25,0.433l2.042,1.18c0.078,0.045,0.164,0.067,0.25,0.067s0.173-0.022,0.25-0.067l2.041-1.18
	c0.154-0.089,0.25-0.254,0.25-0.433v-2.357c0-0.179-0.095-0.344-0.25-0.434L-80,282.852v-5.037l4.191,4.193
	c0.098,0.098,0.226,0.146,0.354,0.146s0.256-0.049,0.354-0.146c0.195-0.195,0.195-0.512,0-0.707L-80,276.4v-2.197l3.836,2.809
	l-0.514-4.729l1.907,1.102l1.791,6.688c0.06,0.224,0.262,0.371,0.482,0.371c0.043,0,0.086-0.006,0.13-0.017
	c0.267-0.072,0.425-0.346,0.354-0.612l-1.532-5.724l4.358,2.516v2.069c0,0.179,0.095,0.344,0.25,0.433l2.042,1.18
	c0.077,0.044,0.164,0.066,0.25,0.066s0.172-0.022,0.25-0.066l2.042-1.18c0.155-0.089,0.25-0.254,0.25-0.433l0.001-1.253
	L-64.106,276.32z M-68.191,261.43l0-0.817l1.542-0.889l1.062,0.612l0.479,0.276l0,0.554l0.001,1.228l-1.543,0.889l-1.042-0.601
	l-0.5-0.288l0-0.577L-68.191,261.43z M-95.894,261.166l0-0.554l0.479-0.276l1.062-0.612l1.542,0.889l0,1.203v0.576l-0.5,0.289
	l-1.041,0.602l-1.542-0.891L-95.894,261.166z M-92.812,278.388l-1.541,0.891l-1.071-0.619l-0.471-0.271l0-0.553v-0.266l-0.001-0.146
	l0-0.814l1.541-0.89l1.041,0.601l0.5,0.288v0.577L-92.812,278.388z M-77.403,274.865L-80,272.963l-0.5-0.366l-0.5,0.366
	l-2.598,1.903l0.348-3.201l0.067-0.615l-0.567-0.25l-2.946-1.3l2.947-1.299l0.567-0.25l-0.067-0.615l-0.348-3.201l2.597,1.902
	l0.5,0.366l0.5-0.366l2.597-1.902l-0.348,3.201l-0.067,0.614l0.568,0.25l2.946,1.3l-2.947,1.299l-0.567,0.25l0.067,0.615
	L-77.403,274.865z M-82.042,252.614l1.062-0.614l0.479-0.276l0.479,0.277l1.062,0.613v1.78L-80,254.995l-0.5,0.288l-0.5-0.288
	l-1.042-0.601V252.614z M-78.959,286.386l-1.062,0.613l-0.479,0.277L-80.979,287l-1.062-0.614v-1.78l1.042-0.601l0.5-0.288
	l0.5,0.288l1.041,0.601V286.386z M-68.188,277.424v-0.238l0-0.577l0.5-0.289l1.042-0.602l1.542,0.892l0,1.226v0.553l-0.47,0.271
	l-1.071,0.619l-1.542-0.891L-68.188,277.424z"/>
</svg>
