<?xml version="1.0" encoding="utf-8"?>
<!-- Generator: Adobe Illustrator 16.0.0, SVG Export Plug-In . SVG Version: 6.00 Build 0)  -->
<!DOCTYPE svg PUBLIC "-//W3C//DTD SVG 1.1//EN" "http://www.w3.org/Graphics/SVG/1.1/DTD/svg11.dtd">
<svg version="1.1" id="Layer_1" xmlns="http://www.w3.org/2000/svg" xmlns:xlink="http://www.w3.org/1999/xlink" x="0px" y="0px"
	 width="50px" height="50px" viewBox="174.5 -315.5 50 50" enable-background="new 174.5 -315.5 50 50" xml:space="preserve">
<path style="fill:white" d="M214.5-291.25h-5.778l3.979-3.979c0.293-0.293,0.293-0.768,0-1.061s-0.768-0.293-1.061,0l-5.04,5.04h-1.664l-2.505-1.121
	l6.511-6.511c0.293-0.293,0.293-0.768,0-1.061s-0.768-0.293-1.061,0l-6.511,6.511l-1.121-2.504v-1.953l5.244-5.245
	c0.293-0.293,0.293-0.768,0-1.061s-0.768-0.293-1.061,0l-4.184,4.184v-5.49c0-0.414-0.336-0.75-0.75-0.75s-0.75,0.336-0.75,0.75
	v5.49l-4.184-4.184c-0.293-0.293-0.768-0.293-1.061,0s-0.293,0.768,0,1.061l5.244,5.245v1.953l-1.121,2.504l-6.511-6.511
	c-0.293-0.293-0.768-0.293-1.061,0s-0.293,0.768,0,1.061l6.511,6.511l-2.505,1.121h-1.664l-5.04-5.04
	c-0.293-0.293-0.768-0.293-1.061,0s-0.293,0.768,0,1.061l3.979,3.979H184.5c-0.414,0-0.75,0.336-0.75,0.75s0.336,0.75,0.75,0.75
	h5.778l-3.979,3.979c-0.293,0.293-0.293,0.768,0,1.061c0.146,0.146,0.338,0.22,0.53,0.22s0.384-0.073,0.53-0.22l5.04-5.04h1.664
	l2.505,1.121l-6.511,6.511c-0.293,0.293-0.293,0.768,0,1.061c0.146,0.146,0.338,0.22,0.53,0.22s0.384-0.073,0.53-0.22l6.511-6.511
	l1.121,2.504v1.952l-5.244,5.245c-0.293,0.293-0.293,0.768,0,1.061s0.768,0.293,1.061,0l4.184-4.185v5.491
	c0,0.414,0.336,0.75,0.75,0.75s0.75-0.336,0.75-0.75v-5.49l4.184,4.185c0.146,0.146,0.338,0.22,0.53,0.22s0.384-0.073,0.53-0.22
	c0.293-0.293,0.293-0.768,0-1.061l-5.244-5.246v-1.952l1.121-2.504l6.511,6.511c0.146,0.146,0.338,0.22,0.53,0.22
	s0.384-0.073,0.53-0.22c0.293-0.293,0.293-0.768,0-1.061l-6.511-6.511l2.505-1.121h1.664l5.04,5.04
	c0.146,0.146,0.338,0.22,0.53,0.22s0.384-0.073,0.53-0.22c0.293-0.293,0.293-0.768,0-1.061l-3.979-3.979h5.778
	c0.414,0,0.75-0.336,0.75-0.75S214.914-291.25,214.5-291.25z M201.297-289.764l-0.03,0.014l-0.702,0.314l-0.314,0.702l-0.014,0.03
	l-0.736,1.644l-0.736-1.644l-0.014-0.03l-0.314-0.702l-0.702-0.314l-0.03-0.014l-1.645-0.736l1.645-0.736l0.03-0.014l0.702-0.314
	l0.314-0.702l0.014-0.03l0.736-1.644l0.736,1.644l0.014,0.03l0.314,0.702l0.702,0.314l0.03,0.014l1.645,0.736L201.297-289.764z"/>
</svg>
