<?xml version="1.0" encoding="utf-8"?>
<!-- Generator: Adobe Illustrator 16.0.0, SVG Export Plug-In . SVG Version: 6.00 Build 0)  -->
<!DOCTYPE svg PUBLIC "-//W3C//DTD SVG 1.1//EN" "http://www.w3.org/Graphics/SVG/1.1/DTD/svg11.dtd">
<svg version="1.1" id="Layer_1" xmlns="http://www.w3.org/2000/svg" xmlns:xlink="http://www.w3.org/1999/xlink" x="0px" y="0px"
	 width="50px" height="50px" viewBox="104.5 244.5 50 50" enable-background="new 104.5 244.5 50 50" xml:space="preserve">
<path style="fill:white" d="M143.984,263.738l2.236-1.286v-2.572l-2.236-1.289l-2.234,1.289v1.995l-2.418,1.391v-1.714c0-0.276-0.224-0.5-0.5-0.5
	s-0.5,0.224-0.5,0.5v2.289l-1.771,1.02v-4.494c0-0.276-0.224-0.5-0.5-0.5s-0.5,0.224-0.5,0.5v5.069l-2.237,1.288l0.514-4.736
	l-3.837,2.81v-2.73l4.254-2.457c0.239-0.138,0.321-0.443,0.183-0.683c-0.138-0.239-0.444-0.322-0.683-0.183L130,260.912v-2.047
	l1.84-1.062c0.239-0.138,0.321-0.443,0.183-0.683c-0.138-0.239-0.444-0.322-0.683-0.183l-1.34,0.773v-2.595l1.736-1v-2.572
	l-2.236-1.286l-2.236,1.286v2.572l1.736,1v2.678l-1.484-0.856c-0.238-0.138-0.545-0.057-0.683,0.183
	c-0.139,0.239-0.057,0.545,0.183,0.683l1.984,1.146v2.047l-3.898-2.251c-0.237-0.138-0.545-0.057-0.683,0.183
	c-0.139,0.239-0.057,0.545,0.183,0.683l4.398,2.54v2.647l-3.837-2.809l0.514,4.735l-2.384-1.372l-0.002-4.985
	c0-0.276-0.224-0.5-0.5-0.5s-0.5,0.224-0.5,0.5l0.002,4.41l-1.773-1.021v-2.204c0-0.276-0.224-0.5-0.5-0.5s-0.5,0.224-0.5,0.5v1.629
	l-2.27-1.306v-1.995l-2.234-1.289l-2.236,1.289v2.572l2.236,1.286l1.734-0.997l2.272,1.307l-1.415,0.817
	c-0.239,0.138-0.321,0.443-0.183,0.683c0.092,0.16,0.26,0.25,0.433,0.25c0.085,0,0.171-0.021,0.25-0.067l1.917-1.105l1.775,1.021
	l-3.833,2.213c-0.239,0.138-0.321,0.443-0.183,0.683c0.092,0.16,0.261,0.25,0.433,0.25c0.085,0,0.171-0.021,0.25-0.067l4.335-2.502
	l2.367,1.362l-4.344,1.915l4.344,1.915l-2.332,1.342l-4.37-2.521c-0.238-0.138-0.545-0.057-0.683,0.183
	c-0.139,0.239-0.057,0.545,0.183,0.683l3.867,2.233l-1.774,1.021l-1.952-1.126c-0.238-0.138-0.545-0.057-0.683,0.183
	c-0.139,0.239-0.057,0.545,0.183,0.683l1.45,0.838l-2.309,1.328l-1.733-0.998l-2.236,1.288l0.002,2.572l2.234,1.286l2.236-1.286
	v-1.998l2.27-1.306v1.589c0,0.276,0.224,0.5,0.5,0.5s0.5-0.224,0.5-0.5v-2.164l1.771-1.02v4.37c0,0.276,0.224,0.5,0.5,0.5
	s0.5-0.224,0.5-0.5v-4.945l2.384-1.372l-0.514,4.736l3.837-2.809v2.605l-4.398,2.54c-0.239,0.138-0.321,0.443-0.183,0.683
	c0.138,0.238,0.443,0.321,0.683,0.183l3.898-2.251v2.047l-1.984,1.146c-0.239,0.138-0.321,0.443-0.183,0.683
	c0.137,0.238,0.442,0.321,0.683,0.183l1.484-0.856v2.72l-1.736,0.999v2.572l2.236,1.286l2.236-1.286v-2.572L130,283.885v-2.637
	l1.34,0.773c0.079,0.046,0.165,0.067,0.25,0.067c0.172,0,0.341-0.09,0.433-0.25c0.139-0.239,0.057-0.545-0.183-0.683l-1.84-1.062
	v-2.047l3.754,2.168c0.079,0.046,0.165,0.067,0.25,0.067c0.172,0,0.341-0.09,0.433-0.25c0.139-0.239,0.057-0.545-0.183-0.683
	L130,276.893v-2.69l3.838,2.81l-0.515-4.735l2.237,1.288v5.029c0,0.276,0.224,0.5,0.5,0.5s0.5-0.224,0.5-0.5v-4.454l1.771,1.02
	v2.248c0,0.276,0.224,0.5,0.5,0.5s0.5-0.224,0.5-0.5v-1.673l2.416,1.39v1.998l2.236,1.286l2.234-1.286l0.002-2.572l-2.236-1.288
	l-1.733,0.998l-2.383-1.371l1.376-0.795c0.239-0.138,0.321-0.443,0.183-0.683c-0.139-0.24-0.444-0.321-0.683-0.183l-1.878,1.084
	l-1.774-1.021l3.795-2.191c0.239-0.138,0.321-0.443,0.183-0.683c-0.138-0.239-0.444-0.322-0.683-0.183l-4.297,2.479l-2.258-1.3
	l4.344-1.915l-4.345-1.915l2.294-1.32l4.262,2.46c0.079,0.046,0.165,0.067,0.25,0.067c0.172,0,0.341-0.09,0.433-0.25
	c0.139-0.239,0.057-0.545-0.183-0.683l-3.76-2.171l1.774-1.021l1.843,1.063c0.079,0.046,0.165,0.067,0.25,0.067
	c0.172,0,0.341-0.09,0.433-0.25c0.139-0.239,0.057-0.545-0.183-0.683l-1.341-0.774l2.347-1.35L143.984,263.738z M132.183,271.05
	l0.066,0.608l0.349,3.207L130,272.964l-0.499-0.365L129,272.965l-2.599,1.901l0.35-3.208l0.066-0.609l-0.573-0.253l-2.94-1.296
	l2.94-1.296l0.573-0.253l-0.066-0.609l-0.349-3.207l2.598,1.9l0.5,0.366l0.5-0.366l2.598-1.901l-0.349,3.208l-0.066,0.609
	l0.573,0.253l2.941,1.296l-2.94,1.297L132.183,271.05z"/>
</svg>
