<?xml version="1.0" encoding="utf-8"?>
<!-- Generator: Adobe Illustrator 16.0.0, SVG Export Plug-In . SVG Version: 6.00 Build 0)  -->
<!DOCTYPE svg PUBLIC "-//W3C//DTD SVG 1.1//EN" "http://www.w3.org/Graphics/SVG/1.1/DTD/svg11.dtd">
<svg version="1.1" id="Layer_1" xmlns="http://www.w3.org/2000/svg" xmlns:xlink="http://www.w3.org/1999/xlink" x="0px" y="0px"
	 width="50px" height="50px" viewBox="104.5 -245.5 50 50" enable-background="new 104.5 -245.5 50 50" xml:space="preserve">
<path style="fill:white" d="M133.14-223.433c-0.211-0.261-0.446-0.496-0.707-0.707c-0.683-0.55-1.515-0.907-2.432-1.006
	c-0.167-0.018-0.329-0.051-0.5-0.051s-0.333,0.033-0.5,0.051c-0.917,0.099-1.749,0.456-2.432,1.006
	c-0.261,0.211-0.496,0.446-0.707,0.707c-0.551,0.683-0.908,1.515-1.007,2.433c-0.019,0.167-0.051,0.329-0.051,0.5
	s0.032,0.333,0.051,0.5c0.099,0.917,0.455,1.749,1.006,2.432c0.211,0.261,0.446,0.496,0.707,0.707
	c0.683,0.551,1.515,0.908,2.433,1.007c0.167,0.018,0.329,0.051,0.5,0.051s0.333-0.033,0.5-0.051c0.918-0.099,1.75-0.456,2.433-1.007
	c0.261-0.211,0.496-0.446,0.707-0.707c0.551-0.683,0.907-1.515,1.006-2.432c0.019-0.167,0.051-0.329,0.051-0.5
	s-0.032-0.333-0.051-0.5C134.048-221.917,133.69-222.75,133.14-223.433z M133.146-220c-0.088,0.644-0.337,1.23-0.713,1.725
	c-0.203,0.267-0.44,0.504-0.707,0.707c-0.494,0.376-1.082,0.626-1.726,0.714c-0.165,0.023-0.329,0.051-0.5,0.051
	s-0.335-0.028-0.5-0.051c-0.644-0.088-1.231-0.337-1.726-0.714c-0.267-0.203-0.504-0.44-0.707-0.707
	c-0.376-0.494-0.625-1.081-0.713-1.725c-0.022-0.165-0.051-0.329-0.051-0.5s0.028-0.335,0.051-0.5
	c0.088-0.644,0.338-1.231,0.714-1.726c0.203-0.267,0.44-0.504,0.707-0.707c0.494-0.376,1.081-0.625,1.725-0.713
	c0.165-0.023,0.329-0.051,0.5-0.051s0.335,0.028,0.5,0.051c0.644,0.088,1.23,0.337,1.725,0.713c0.267,0.203,0.504,0.44,0.707,0.707
	c0.376,0.494,0.626,1.082,0.714,1.726c0.022,0.165,0.051,0.329,0.051,0.5S133.169-220.165,133.146-220z M144.5-222.969
	c-1.189,0-2.186,0.846-2.418,1.969h-1.994l1.601-1.6c0.195-0.195,0.195-0.512,0-0.707s-0.512-0.195-0.707,0L138.674-221h-2.261
	c-0.11-1.537-0.721-2.935-1.673-4.033l2.102-2.102l3.266-0.002c0.276,0,0.5-0.224,0.5-0.5c0-0.276-0.224-0.5-0.5-0.5l-2.265,0.001
	l2.618-2.618c0.195-0.195,0.195-0.512,0-0.707s-0.512-0.195-0.707,0l-2.617,2.617v-2.263c0-0.276-0.224-0.5-0.5-0.5
	s-0.5,0.224-0.5,0.5v3.263l-2.104,2.104c-1.099-0.952-2.496-1.562-4.032-1.672v-2.261l2.306-2.309c0.195-0.195,0.195-0.512,0-0.708
	c-0.195-0.194-0.512-0.195-0.707,0l-1.599,1.601v-1.994c1.122-0.232,1.97-1.228,1.97-2.418c0-1.362-1.108-2.47-2.47-2.47
	s-2.47,1.108-2.47,2.47c0,1.19,0.848,2.187,1.97,2.418v1.994l-1.601-1.601c-0.195-0.195-0.512-0.195-0.707,0s-0.195,0.512,0,0.707
	l2.308,2.309v2.261c-1.536,0.11-2.934,0.72-4.032,1.672l-2.108-2.108l-0.04-3.264c-0.004-0.276-0.2-0.488-0.506-0.494
	c-0.276,0.003-0.497,0.23-0.494,0.506l0.028,2.239l-2.601-2.6c-0.195-0.195-0.512-0.195-0.707,0s-0.195,0.512,0,0.707l2.633,2.633
	l-2.285,0.027c-0.276,0.003-0.497,0.23-0.494,0.506c0.003,0.274,0.227,0.494,0.5,0.494c0.002,0,0.004,0,0.006,0l3.263-0.039
	l2.099,2.099c-0.952,1.099-1.562,2.497-1.673,4.033h-2.261l-2.31-2.307c-0.195-0.194-0.512-0.195-0.707,0s-0.195,0.512,0,0.708
	l1.602,1.599h-1.994c-0.231-1.124-1.229-1.971-2.419-1.971c-1.361,0-2.47,1.108-2.47,2.47s1.108,2.47,2.47,2.47
	c1.189,0,2.186-0.846,2.418-1.969h1.994l-1.601,1.6c-0.195,0.195-0.195,0.512,0,0.707c0.098,0.098,0.226,0.146,0.354,0.146
	s0.256-0.049,0.354-0.146l2.308-2.307h2.263c0.11,1.536,0.721,2.934,1.672,4.032l-2.504,2.504l-3.31,0.002
	c-0.276,0-0.5,0.224-0.5,0.5c0,0.276,0.224,0.5,0.5,0.5l2.309-0.001l-2.215,2.215c-0.195,0.195-0.195,0.512,0,0.707
	c0.098,0.098,0.226,0.146,0.354,0.146s0.256-0.049,0.354-0.146l2.17-2.17v2.219c0,0.276,0.224,0.5,0.5,0.5s0.5-0.224,0.5-0.5v-3.219
	l2.55-2.55c1.099,0.952,2.496,1.562,4.033,1.673v2.259l-2.308,2.311c-0.195,0.195-0.195,0.512,0,0.708
	c0.098,0.097,0.226,0.146,0.354,0.146s0.256-0.049,0.354-0.146l1.601-1.603v1.995c-1.124,0.231-1.972,1.228-1.972,2.419
	c0,1.362,1.108,2.47,2.47,2.47s2.47-1.108,2.47-2.47c0-1.19-0.846-2.185-1.968-2.418v-1.993l1.599,1.599
	c0.195,0.195,0.512,0.195,0.707,0s0.195-0.512,0-0.707l-2.306-2.307v-2.263c1.537-0.11,2.935-0.721,4.033-1.673l2.706,2.706
	l0.041,3.333c0.004,0.274,0.227,0.494,0.5,0.494c0.002,0,0.004,0,0.006,0c0.276-0.003,0.497-0.23,0.494-0.506l-0.029-2.308
	l2.002,2.001c0.098,0.098,0.226,0.146,0.354,0.146s0.256-0.049,0.354-0.146c0.195-0.195,0.195-0.512,0-0.707l-1.966-1.966
	l2.218-0.026c0.276-0.003,0.497-0.23,0.494-0.506c-0.003-0.274-0.227-0.494-0.5-0.494c-0.002,0-0.004,0-0.006,0l-3.194,0.038
	l-2.766-2.765c0.951-1.099,1.562-2.496,1.672-4.032h2.259l2.31,2.307c0.098,0.097,0.226,0.146,0.354,0.146s0.256-0.049,0.354-0.146
	c0.195-0.195,0.195-0.512,0-0.708L140.087-220h1.994c0.231,1.124,1.229,1.971,2.419,1.971c1.361,0,2.47-1.108,2.47-2.47
	S145.861-222.969,144.5-222.969z M115.876-220c-0.206,0.563-0.742,0.969-1.376,0.969c-0.811,0-1.47-0.659-1.47-1.47
	s0.659-1.47,1.47-1.47c0.635,0,1.171,0.406,1.377,0.971c0.057,0.156,0.093,0.323,0.093,0.499
	C115.97-220.324,115.934-220.157,115.876-220z M128.031-235.5c0-0.811,0.659-1.47,1.47-1.47s1.47,0.659,1.47,1.47
	c0,0.634-0.406,1.171-0.97,1.376c-0.157,0.057-0.323,0.093-0.5,0.093s-0.343-0.036-0.5-0.093
	C128.438-234.329,128.031-234.866,128.031-235.5z M130.969-205.5c0,0.811-0.659,1.47-1.47,1.47s-1.47-0.659-1.47-1.47
	c0-0.635,0.407-1.172,0.972-1.377c0.156-0.057,0.322-0.093,0.498-0.093c0.177,0,0.345,0.036,0.502,0.094
	C130.563-206.669,130.969-206.133,130.969-205.5z M135.413-220c-0.105,1.262-0.605,2.411-1.378,3.326
	c-0.216,0.255-0.452,0.492-0.707,0.707c-0.915,0.773-2.065,1.273-3.327,1.379c-0.165,0.014-0.331,0.025-0.5,0.025
	s-0.335-0.012-0.5-0.025c-1.262-0.106-2.412-0.606-3.327-1.379c-0.255-0.215-0.491-0.452-0.707-0.707
	c-0.772-0.915-1.272-2.064-1.378-3.326c-0.014-0.165-0.025-0.331-0.025-0.5s0.012-0.335,0.025-0.5
	c0.105-1.262,0.605-2.412,1.379-3.327c0.216-0.255,0.452-0.492,0.708-0.707c0.914-0.773,2.063-1.272,3.325-1.378
	c0.165-0.014,0.331-0.025,0.5-0.025s0.335,0.012,0.5,0.025c1.262,0.106,2.411,0.605,3.325,1.378
	c0.256,0.215,0.492,0.452,0.708,0.707c0.773,0.915,1.273,2.065,1.379,3.327c0.014,0.165,0.025,0.331,0.025,0.5
	S135.427-220.165,135.413-220z M144.5-219.029c-0.635,0-1.171-0.406-1.377-0.971c-0.057-0.156-0.093-0.323-0.093-0.499
	c0-0.177,0.036-0.344,0.094-0.501c0.206-0.563,0.742-0.969,1.376-0.969c0.811,0,1.47,0.659,1.47,1.47S145.311-219.029,144.5-219.029
	z"/>
</svg>
