<?xml version="1.0" encoding="utf-8"?>
<!-- Generator: Adobe Illustrator 16.0.0, SVG Export Plug-In . SVG Version: 6.00 Build 0)  -->
<!DOCTYPE svg PUBLIC "-//W3C//DTD SVG 1.1//EN" "http://www.w3.org/Graphics/SVG/1.1/DTD/svg11.dtd">
<svg version="1.1" id="Layer_1" xmlns="http://www.w3.org/2000/svg" xmlns:xlink="http://www.w3.org/1999/xlink" x="0px" y="0px"
	 width="50px" height="50px" viewBox="34.5 -245.5 50 50" enable-background="new 34.5 -245.5 50 50" xml:space="preserve">
<path style="fill:white" d="M74.5-221h-3.444l1.602-1.602c0.195-0.195,0.195-0.512,0-0.707s-0.512-0.195-0.707,0L69.642-221h-3.229
	c-0.11-1.537-0.721-2.934-1.672-4.033l5.72-5.72c0.195-0.195,0.195-0.512,0-0.707s-0.512-0.195-0.707,0l-5.72,5.72
	c-1.099-0.952-2.497-1.562-4.033-1.672v-3.23l2.306-2.307c0.195-0.195,0.195-0.512,0-0.707s-0.512-0.195-0.707,0l-1.599,1.6v-3.443
	c0-0.276-0.224-0.5-0.5-0.5s-0.5,0.224-0.5,0.5v3.444l-1.602-1.6c-0.195-0.195-0.512-0.195-0.707,0s-0.195,0.512,0,0.707L59-230.642
	v3.23c-1.536,0.11-2.935,0.721-4.033,1.672l-5.72-5.72c-0.195-0.195-0.512-0.195-0.707,0s-0.195,0.512,0,0.707l5.72,5.72
	c-0.951,1.099-1.562,2.496-1.672,4.033h-3.229l-2.309-2.307c-0.195-0.195-0.512-0.195-0.707,0s-0.195,0.512,0,0.707l1.601,1.6H44.5
	c-0.276,0-0.5,0.224-0.5,0.5s0.224,0.5,0.5,0.5h3.444l-1.602,1.602c-0.195,0.195-0.195,0.512,0,0.707
	c0.098,0.098,0.226,0.146,0.354,0.146s0.256-0.049,0.354-0.146L49.358-220h3.229c0.11,1.537,0.721,2.934,1.672,4.033l-5.72,5.72
	c-0.195,0.195-0.195,0.512,0,0.707c0.098,0.098,0.226,0.146,0.354,0.146s0.256-0.049,0.354-0.146l5.72-5.72
	c1.099,0.952,2.497,1.562,4.033,1.672v3.229l-2.306,2.309c-0.195,0.195-0.195,0.512,0,0.708c0.098,0.097,0.226,0.146,0.354,0.146
	s0.256-0.049,0.354-0.146L59-208.944v3.444c0,0.276,0.224,0.5,0.5,0.5s0.5-0.224,0.5-0.5v-3.445l1.602,1.601
	c0.195,0.195,0.512,0.195,0.707,0s0.195-0.512,0-0.707L60-210.36v-3.228c1.536-0.11,2.935-0.721,4.033-1.672l5.72,5.72
	c0.098,0.098,0.226,0.146,0.354,0.146s0.256-0.049,0.354-0.146c0.195-0.195,0.195-0.512,0-0.707l-5.72-5.72
	c0.951-1.099,1.562-2.496,1.672-4.033h3.229l2.309,2.305c0.098,0.097,0.226,0.146,0.354,0.146s0.256-0.049,0.354-0.146
	c0.195-0.196,0.195-0.512,0-0.708L71.057-220H74.5c0.276,0,0.5-0.224,0.5-0.5S74.776-221,74.5-221z M65.412-220
	c-0.105,1.262-0.605,2.412-1.379,3.326c-0.216,0.255-0.452,0.492-0.707,0.707c-0.914,0.773-2.064,1.273-3.326,1.379
	c-0.165,0.014-0.331,0.025-0.5,0.025s-0.335-0.012-0.5-0.025c-1.262-0.106-2.412-0.605-3.326-1.379
	c-0.255-0.215-0.491-0.452-0.707-0.707c-0.773-0.915-1.273-2.064-1.379-3.326c-0.014-0.165-0.025-0.331-0.025-0.5
	s0.012-0.335,0.025-0.5c0.105-1.262,0.605-2.412,1.379-3.326c0.216-0.255,0.452-0.492,0.707-0.707
	c0.914-0.773,2.064-1.273,3.326-1.379c0.165-0.014,0.331-0.025,0.5-0.025s0.335,0.012,0.5,0.025
	c1.262,0.106,2.412,0.605,3.326,1.379c0.255,0.215,0.491,0.452,0.707,0.707c0.773,0.915,1.273,2.064,1.379,3.326
	c0.014,0.165,0.025,0.331,0.025,0.5S65.426-220.165,65.412-220z M63.139-223.432c-0.21-0.261-0.446-0.496-0.707-0.707
	c-0.682-0.551-1.514-0.908-2.432-1.007c-0.166-0.018-0.329-0.051-0.5-0.051s-0.334,0.033-0.5,0.051
	c-0.918,0.099-1.75,0.456-2.432,1.007c-0.261,0.21-0.497,0.446-0.707,0.707c-0.551,0.683-0.908,1.515-1.007,2.432
	c-0.019,0.167-0.051,0.329-0.051,0.5s0.032,0.333,0.051,0.5c0.099,0.917,0.456,1.75,1.007,2.432c0.21,0.261,0.446,0.496,0.707,0.707
	c0.682,0.551,1.514,0.908,2.432,1.007c0.166,0.018,0.329,0.051,0.5,0.051s0.334-0.033,0.5-0.051c0.918-0.099,1.75-0.456,2.432-1.007
	c0.261-0.21,0.497-0.446,0.707-0.707c0.551-0.683,0.908-1.515,1.007-2.432c0.019-0.167,0.051-0.329,0.051-0.5
	s-0.032-0.333-0.051-0.5C64.047-221.917,63.689-222.75,63.139-223.432z M63.146-220c-0.088,0.644-0.337,1.231-0.714,1.725
	c-0.203,0.267-0.439,0.504-0.707,0.707c-0.494,0.376-1.081,0.625-1.725,0.713c-0.165,0.023-0.329,0.051-0.5,0.051
	s-0.335-0.028-0.5-0.051c-0.644-0.088-1.23-0.337-1.725-0.713c-0.268-0.203-0.504-0.44-0.707-0.707
	c-0.377-0.494-0.626-1.082-0.714-1.725c-0.022-0.165-0.051-0.329-0.051-0.5s0.028-0.335,0.051-0.5
	c0.088-0.644,0.337-1.231,0.714-1.725c0.203-0.267,0.439-0.504,0.707-0.707c0.494-0.376,1.081-0.625,1.725-0.713
	c0.165-0.023,0.329-0.051,0.5-0.051s0.335,0.028,0.5,0.051c0.644,0.088,1.23,0.337,1.725,0.713c0.268,0.203,0.504,0.44,0.707,0.707
	c0.377,0.494,0.626,1.082,0.714,1.725c0.022,0.165,0.051,0.329,0.051,0.5S63.168-220.165,63.146-220z M61.562-221.854
	c-0.186-0.281-0.426-0.522-0.707-0.707c-0.257-0.169-0.544-0.293-0.854-0.357c-0.161-0.033-0.329-0.051-0.5-0.051
	s-0.339,0.018-0.5,0.051c-0.311,0.064-0.598,0.188-0.854,0.357c-0.281,0.185-0.521,0.426-0.707,0.707
	c-0.169,0.256-0.293,0.543-0.357,0.854c-0.033,0.162-0.051,0.329-0.051,0.5s0.018,0.338,0.051,0.5
	c0.064,0.311,0.188,0.598,0.357,0.854c0.186,0.281,0.426,0.522,0.707,0.707c0.257,0.169,0.544,0.293,0.854,0.357
	c0.161,0.033,0.329,0.051,0.5,0.051s0.339-0.018,0.5-0.051c0.311-0.064,0.598-0.188,0.854-0.357
	c0.281-0.185,0.521-0.426,0.707-0.707c0.169-0.256,0.293-0.543,0.357-0.854c0.033-0.162,0.051-0.329,0.051-0.5
	s-0.018-0.338-0.051-0.5C61.854-221.311,61.73-221.598,61.562-221.854z M60.876-220c-0.015,0.041-0.03,0.081-0.049,0.121
	c-0.146,0.311-0.396,0.561-0.707,0.707c-0.039,0.018-0.079,0.034-0.12,0.049c-0.156,0.057-0.323,0.093-0.5,0.093
	s-0.343-0.036-0.5-0.093c-0.041-0.015-0.081-0.031-0.12-0.049c-0.312-0.146-0.562-0.396-0.707-0.707
	c-0.019-0.04-0.034-0.08-0.049-0.121c-0.058-0.157-0.094-0.324-0.094-0.5s0.036-0.343,0.094-0.5c0.015-0.041,0.03-0.081,0.049-0.121
	c0.146-0.311,0.396-0.561,0.707-0.707c0.039-0.018,0.079-0.034,0.12-0.049c0.157-0.057,0.323-0.093,0.5-0.093s0.344,0.036,0.5,0.093
	c0.041,0.015,0.081,0.031,0.12,0.049c0.312,0.146,0.562,0.396,0.707,0.707c0.019,0.04,0.034,0.08,0.049,0.121
	c0.058,0.157,0.094,0.324,0.094,0.5S60.934-220.157,60.876-220z"/>
</svg>
