<?xml version="1.0" encoding="utf-8"?>
<!-- Generator: Adobe Illustrator 16.0.0, SVG Export Plug-In . SVG Version: 6.00 Build 0)  -->
<!DOCTYPE svg PUBLIC "-//W3C//DTD SVG 1.1//EN" "http://www.w3.org/Graphics/SVG/1.1/DTD/svg11.dtd">
<svg version="1.1" id="Layer_1" xmlns="http://www.w3.org/2000/svg" xmlns:xlink="http://www.w3.org/1999/xlink" x="0px" y="0px"
	 width="50px" height="50px" viewBox="314.5 104.5 50 50" enable-background="new 314.5 104.5 50 50" xml:space="preserve">
<path style="fill:white" d="M354.37,130.979l-7.724,2.07l-0.122-0.071v-6.957l0.123-0.071l7.724,2.068c0.043,0.011,0.086,0.017,0.129,0.017
	c0.221,0,0.423-0.147,0.483-0.371c0.071-0.267-0.087-0.54-0.354-0.612l-6.757-1.809l6.44-3.719c0.239-0.138,0.321-0.443,0.183-0.683
	c-0.138-0.239-0.443-0.322-0.683-0.183l-6.438,3.718l1.811-6.755c0.071-0.268-0.087-0.541-0.354-0.613
	c-0.269-0.064-0.541,0.088-0.613,0.354l-2.068,7.722l-0.122,0.07L340,121.678v-0.145l5.652-5.652c0.195-0.195,0.195-0.512,0-0.707
	s-0.512-0.195-0.707,0L340,120.119v-7.434c0-0.276-0.224-0.5-0.5-0.5s-0.5,0.224-0.5,0.5v7.434l-4.945-4.945
	c-0.195-0.195-0.512-0.195-0.707,0s-0.195,0.512,0,0.707l5.652,5.652v0.145l-6.027,3.477l-0.122-0.07l-2.068-7.722
	c-0.072-0.266-0.342-0.418-0.613-0.354c-0.267,0.072-0.425,0.346-0.354,0.613l1.811,6.755l-6.438-3.718
	c-0.238-0.138-0.545-0.057-0.683,0.183c-0.139,0.239-0.057,0.545,0.183,0.683l6.44,3.719l-6.757,1.809
	c-0.268,0.072-0.426,0.346-0.354,0.612c0.061,0.224,0.263,0.371,0.483,0.371c0.043,0,0.086-0.006,0.129-0.017l7.724-2.068
	l0.123,0.071v6.957l-0.123,0.071l-7.723-2.07c-0.269-0.063-0.541,0.088-0.613,0.354c-0.071,0.268,0.087,0.541,0.354,0.613
	l6.758,1.811l-6.44,3.719c-0.239,0.138-0.321,0.443-0.183,0.683c0.092,0.16,0.261,0.25,0.433,0.25c0.085,0,0.171-0.021,0.25-0.067
	l6.438-3.718l-1.811,6.755c-0.071,0.268,0.087,0.541,0.354,0.613c0.044,0.011,0.087,0.017,0.13,0.017
	c0.221,0,0.423-0.147,0.483-0.37l2.068-7.722l0.126-0.072l6.023,3.478v0.144l-5.652,5.654c-0.195,0.195-0.195,0.512,0,0.707
	s0.512,0.195,0.707,0l4.945-4.947v7.436c0,0.276,0.224,0.5,0.5,0.5s0.5-0.224,0.5-0.5v-7.436l4.945,4.947
	c0.098,0.098,0.226,0.146,0.354,0.146s0.256-0.049,0.354-0.146c0.195-0.195,0.195-0.512,0-0.707L340,137.465v-0.144l6.023-3.478
	l0.123,0.071l2.069,7.723c0.061,0.223,0.263,0.37,0.483,0.37c0.043,0,0.086-0.006,0.13-0.017c0.267-0.072,0.425-0.346,0.354-0.613
	l-1.812-6.756l6.441,3.719c0.079,0.046,0.165,0.067,0.25,0.067c0.172,0,0.341-0.09,0.433-0.25c0.139-0.239,0.057-0.545-0.183-0.683
	l-6.441-3.719l6.759-1.811c0.267-0.072,0.425-0.346,0.354-0.613C354.911,131.067,354.642,130.916,354.37,130.979z M345.524,132.401
	l-5.025-2.901l5.025-2.901V132.401z M345.026,125.732L340,128.635v-5.803L345.026,125.732z M339,122.832v5.803l-5.026-2.902
	L339,122.832z M333.476,126.599l5.025,2.901l-5.025,2.901V126.599z M333.977,133.266l5.023-2.9v5.802L333.977,133.266z M340,136.167
	v-5.802l5.023,2.9L340,136.167z"/>
</svg>
