<?xml version="1.0" encoding="utf-8"?>
<!-- Generator: Adobe Illustrator 16.0.0, SVG Export Plug-In . SVG Version: 6.00 Build 0)  -->
<!DOCTYPE svg PUBLIC "-//W3C//DTD SVG 1.1//EN" "http://www.w3.org/Graphics/SVG/1.1/DTD/svg11.dtd">
<svg version="1.1" id="Layer_1" xmlns="http://www.w3.org/2000/svg" xmlns:xlink="http://www.w3.org/1999/xlink" x="0px" y="0px"
	 width="50px" height="50px" viewBox="-175.5 -105.5 50 50" enable-background="new -175.5 -105.5 50 50" xml:space="preserve">
<path style="fill:white" d="M-132.562-82.725l-2.571,0L-136.129-81h-6.055l4.193-4.192c0.195-0.195,0.195-0.512,0-0.707s-0.512-0.195-0.707,0
	l-4.9,4.899h-3.017l-1.509-2.614l1.511-2.616l6.689-1.792c0.267-0.071,0.425-0.346,0.354-0.612
	c-0.071-0.267-0.346-0.423-0.612-0.354l-5.723,1.533l3.025-5.239h1.993l1.286-2.227l-1.285-2.226l-2.571-0.001l-1.284,2.227
	l0.997,1.725l-3.027,5.243l-1.535-5.727c-0.071-0.268-0.345-0.424-0.612-0.354c-0.267,0.071-0.425,0.346-0.354,0.612l1.793,6.693
	l-1.509,2.614h-3.019l-1.509-2.614l1.792-6.69c0.071-0.267-0.087-0.541-0.354-0.612c-0.266-0.069-0.541,0.087-0.612,0.354
	l-1.534,5.725l-3.026-5.242l0.996-1.727l-1.285-2.227l-2.57,0.001l-1.285,2.226l1.285,2.226l1.993,0.001l3.026,5.241l-5.724-1.534
	c-0.267-0.07-0.541,0.087-0.612,0.354c-0.071,0.267,0.087,0.541,0.354,0.612l6.69,1.792l1.51,2.615L-154.383-81h-3.019l-4.899-4.899
	c-0.195-0.195-0.512-0.195-0.707,0s-0.195,0.512,0,0.707l4.192,4.192h-6.053l-0.997-1.725l-2.57-0.001l-1.285,2.228l1.285,2.226
	h2.57l0.998-1.727h6.05l-4.19,4.19c-0.195,0.195-0.195,0.512,0,0.707c0.098,0.098,0.226,0.146,0.354,0.146s0.256-0.049,0.354-0.146
	l4.897-4.897h3.021l1.508,2.615l-1.507,2.61l-6.694,1.795c-0.267,0.071-0.425,0.346-0.354,0.612
	c0.072,0.268,0.347,0.427,0.612,0.354l5.728-1.536l-3.029,5.246l-1.992-0.001l-1.286,2.228l1.287,2.224h2.569l1.285-2.226
	l-0.997-1.727l3.025-5.24l1.535,5.722c0.06,0.224,0.262,0.371,0.482,0.371c0.043,0,0.086-0.005,0.13-0.017
	c0.267-0.072,0.425-0.346,0.354-0.612l-1.794-6.688l1.51-2.615h3.019l1.508,2.612l-1.792,6.691
	c-0.071,0.267,0.087,0.541,0.354,0.612c0.043,0.012,0.087,0.017,0.13,0.017c0.221,0,0.423-0.147,0.482-0.371l1.533-5.725
	l3.028,5.245l-0.997,1.725l1.285,2.227l2.57-0.001l1.285-2.226l-1.285-2.226l-1.993,0l-3.028-5.245l5.725,1.536
	c0.268,0.074,0.541-0.086,0.612-0.354c0.072-0.267-0.087-0.541-0.354-0.612l-6.691-1.794l-1.509-2.613l1.509-2.614h3.02l4.895,4.898
	c0.098,0.098,0.226,0.146,0.354,0.146s0.256-0.049,0.354-0.146c0.195-0.195,0.195-0.512,0-0.707L-142.181-80h6.05l0.998,1.728
	l2.571,0l1.284-2.226L-132.562-82.725z M-148.99-77.886h-0.578h-1.864h-0.578l-0.288-0.5L-153.229-80l-0.288-0.5l0.289-0.5
	l0.932-1.614l0.289-0.5h0.578h1.863l0.006-0.011l0.572,0.011l0.279,0.505l0.149-0.247l-0.14,0.242L-147.77-81l0.289,0.5l-0.289,0.5
	l-0.932,1.615L-148.99-77.886z M-148.98-83.614h0.279l0.003,0.005L-148.98-83.614z M-148.416-83.109l-0.137-0.248l0.14,0.242
	L-148.416-83.109z M-149.273-83.614l-0.145,0.242l0.139-0.242H-149.273z"/>
</svg>
