<?xml version="1.0" encoding="utf-8"?>
<!-- Generator: Adobe Illustrator 16.0.0, SVG Export Plug-In . SVG Version: 6.00 Build 0)  -->
<!DOCTYPE svg PUBLIC "-//W3C//DTD SVG 1.1//EN" "http://www.w3.org/Graphics/SVG/1.1/DTD/svg11.dtd">
<svg version="1.1" id="Layer_1" xmlns="http://www.w3.org/2000/svg" xmlns:xlink="http://www.w3.org/1999/xlink" x="0px" y="0px"
	 width="50px" height="50px" viewBox="244.5 244.5 50 50" enable-background="new 244.5 244.5 50 50" xml:space="preserve">
<path style="fill:white" d="M261.074,260.093c0-0.276,0.224-0.5,0.5-0.5l2.208,0.001l1.103-1.913c0.139-0.239,0.442-0.32,0.684-0.184
	c0.239,0.139,0.321,0.444,0.184,0.684l-1.392,2.413l-2.786-0.001C261.298,260.593,261.074,260.369,261.074,260.093z
	 M277.428,278.406l-2.785-0.001l-1.392,2.412c-0.138,0.239-0.056,0.545,0.184,0.684c0.079,0.045,0.165,0.066,0.25,0.066
	c0.173,0,0.341-0.09,0.434-0.25l1.103-1.912l2.207,0.001c0.276,0,0.5-0.224,0.5-0.5S277.704,278.406,277.428,278.406z
	 M274.642,260.595h2.786c0.276,0,0.5-0.224,0.5-0.5s-0.224-0.5-0.5-0.5h-2.208l-1.105-1.913c-0.138-0.24-0.443-0.322-0.683-0.183
	c-0.239,0.138-0.321,0.443-0.183,0.683L274.642,260.595z M264.359,278.406h-2.787c-0.276,0-0.5,0.224-0.5,0.5s0.224,0.5,0.5,0.5
	h2.209l1.105,1.912c0.093,0.16,0.261,0.25,0.433,0.25c0.085,0,0.171-0.021,0.25-0.067c0.239-0.138,0.321-0.443,0.183-0.683
	L264.359,278.406z M257.141,272.097c0.079,0.045,0.165,0.066,0.25,0.066c0.173,0,0.341-0.09,0.434-0.25l1.391-2.412l-1.394-2.413
	c-0.138-0.239-0.445-0.322-0.683-0.183c-0.239,0.138-0.321,0.443-0.183,0.683l1.104,1.913l-1.104,1.912
	C256.819,271.652,256.901,271.958,257.141,272.097z M281.859,266.905c-0.238-0.138-0.545-0.057-0.683,0.183l-1.393,2.412
	l1.394,2.413c0.092,0.16,0.261,0.25,0.433,0.25c0.085,0,0.171-0.021,0.25-0.067c0.239-0.138,0.321-0.443,0.183-0.683l-1.104-1.913
	l1.104-1.912C282.181,267.349,282.099,267.043,281.859,266.905z M284.997,278.447c-0.092,0.16-0.261,0.25-0.433,0.25
	c-0.085,0-0.171-0.021-0.25-0.067l-0.98-0.565l-2.137,1.232c-0.077,0.044-0.164,0.066-0.25,0.066s-0.173-0.022-0.25-0.067
	l-2.384-1.376c-0.154-0.089-0.25-0.254-0.25-0.433v-0.854h-4.442l-2.225,3.851l0.738,0.426c0.154,0.089,0.25,0.254,0.25,0.433
	l0.001,2.754c0,0.179-0.096,0.344-0.25,0.434l-2.136,1.23v1.134c0,0.276-0.224,0.5-0.5,0.5s-0.5-0.224-0.5-0.5v-1.135l-2.136-1.231
	c-0.154-0.09-0.25-0.255-0.25-0.434l0.001-2.753c0-0.179,0.096-0.344,0.25-0.433l0.739-0.427l-2.224-3.848l-4.442-0.001l0.001,0.852
	c0,0.179-0.095,0.344-0.25,0.433l-2.387,1.378c-0.077,0.045-0.164,0.067-0.25,0.067s-0.173-0.022-0.25-0.067l-2.136-1.232
	l-0.983,0.567c-0.079,0.046-0.165,0.067-0.25,0.067c-0.172,0-0.341-0.09-0.433-0.25c-0.139-0.239-0.057-0.545,0.183-0.683
	l0.983-0.567l0.001-2.465c0-0.179,0.096-0.344,0.25-0.433l2.387-1.378c0.154-0.09,0.346-0.09,0.5,0l0.737,0.426l2.221-3.848
	l-2.223-3.849l-0.737,0.426c-0.077,0.045-0.164,0.067-0.25,0.067s-0.173-0.022-0.25-0.067l-2.385-1.377
	c-0.155-0.089-0.25-0.254-0.25-0.433l0.002-2.465l-0.984-0.568c-0.239-0.138-0.321-0.443-0.183-0.683
	c0.138-0.238,0.445-0.321,0.683-0.183l0.983,0.567l2.134-1.233c0.153-0.09,0.345-0.09,0.5,0l2.386,1.379
	c0.155,0.089,0.25,0.254,0.25,0.433v0.85h4.443l2.222-3.846l-0.74-0.427c-0.154-0.09-0.25-0.255-0.25-0.434l0.002-2.755
	c0-0.179,0.096-0.344,0.25-0.433l2.135-1.232v-1.134c0-0.276,0.224-0.5,0.5-0.5s0.5,0.224,0.5,0.5v1.135l2.135,1.23
	c0.154,0.09,0.25,0.255,0.25,0.434l-0.002,2.755c0,0.179-0.096,0.344-0.25,0.433l-0.735,0.425l2.224,3.85h4.44l-0.001-0.852
	c0-0.179,0.095-0.344,0.25-0.433l2.387-1.378c0.154-0.09,0.346-0.09,0.5,0l2.136,1.233l0.983-0.568
	c0.239-0.139,0.545-0.057,0.683,0.183c0.139,0.239,0.057,0.545-0.183,0.683l-0.984,0.568v2.465c0,0.179-0.096,0.344-0.25,0.433
	l-2.387,1.378c-0.077,0.045-0.164,0.067-0.25,0.067c-0.087,0-0.173-0.022-0.25-0.067l-0.736-0.426l-2.222,3.849l2.223,3.849
	l0.735-0.424c0.154-0.09,0.344-0.089,0.5-0.001l2.388,1.375c0.154,0.09,0.25,0.255,0.25,0.434l-0.002,2.464l0.983,0.567
	C285.054,277.902,285.136,278.208,284.997,278.447z M282.832,276.62l0.001-1.598l-1.888-1.087l-0.734,0.424l-0.347,0.2l-0.301,0.174
	l-0.501,0.289v0.575v0.322l0.001,0.428v0.851l1.884,1.088l1.387-0.8l0.497-0.287L282.832,276.62z M279.095,265.152l-0.532-0.308
	l-2.281,1.317l-2.443,3.338l2.443,3.339l2.282,1.317l0.531-0.307l-2.512-4.349L279.095,265.152z M271.385,281.632l-0.764-0.441
	l-0.338-0.195L270,280.832l-0.5-0.289l-0.5,0.288l-0.279,0.162l-0.349,0.2l-0.757,0.438l-0.001,2.175l1.386,0.799l0.501,0.289
	l0.499-0.287l1.386-0.799L271.385,281.632z M267.613,257.37l0.738,0.426l0.37,0.213L269,258.17l0.5,0.288l0.5-0.289l0.282-0.163
	l0.365-0.211l0.735-0.425l0.002-2.177L270,254.395l-0.502-0.289L269,254.394l-1.385,0.8L267.613,257.37z M274.135,271.599
	l-1.537-2.099l1.537-2.099l0.731-0.999l-1.232,0.134l-2.585,0.281L270,264.438l-0.5-1.134l-0.5,1.134l-1.049,2.379l-2.585-0.281
	l-1.232-0.134l0.731,0.999l1.537,2.099l-1.537,2.099l-0.731,0.999l1.232-0.134l2.585-0.281l1.049,2.379l0.5,1.134l0.5-1.134
	l1.049-2.379l2.585,0.281l1.232,0.134L274.135,271.599z M282.333,261.515l-1.386-0.801l-1.887,1.089l0.001,0.847v0.433l0.001,0.32
	v0.577l0.499,0.289l0.281,0.162l0.369,0.214l0.733,0.424l1.887-1.09v-1.599v-0.577L282.333,261.515z M270.532,259.017L270,259.323
	v2.637l1.668,3.783l4.113-0.446l2.281-1.317l-0.001-0.613h-5.019L270.532,259.017z M260.938,263.365v0.614l2.281,1.317l4.113,0.446
	L269,261.96v-2.636l-0.531-0.306l-2.509,4.347H260.938z M258.788,264.644l0.37-0.214l0.28-0.162l0.499-0.288v-0.577v-0.326
	l0.001-0.422v-0.851l-1.886-1.09l-1.385,0.801l-0.498,0.288v0.578l-0.002,1.6l1.885,1.088L258.788,264.644z M259.907,273.849
	l0.53,0.307l2.281-1.317l2.443-3.338l-2.443-3.339l-2.28-1.316l-0.532,0.308l2.511,4.349L259.907,273.849z M256.667,277.486
	l1.386,0.8l1.887-1.089l-0.001-0.85v-0.427l-0.001-0.323v-0.576l-0.5-0.289l-0.294-0.17l-0.354-0.205l-0.734-0.425l-1.887,1.09
	l-0.001,1.598v0.577L256.667,277.486z M268.47,279.983l0.53-0.306v-2.638l-1.668-3.783l-4.113,0.446l-2.281,1.317l0.001,0.613
	l5.021,0.001L268.47,279.983z M278.062,275.634v-0.613l-2.281-1.317l-4.113-0.446L270,277.04v2.638l0.531,0.307l2.512-4.351H278.062
	z"/>
</svg>
