<?xml version="1.0" encoding="utf-8"?>
<!-- Generator: Adobe Illustrator 16.0.0, SVG Export Plug-In . SVG Version: 6.00 Build 0)  -->
<!DOCTYPE svg PUBLIC "-//W3C//DTD SVG 1.1//EN" "http://www.w3.org/Graphics/SVG/1.1/DTD/svg11.dtd">
<svg version="1.1" id="Layer_1" xmlns="http://www.w3.org/2000/svg" xmlns:xlink="http://www.w3.org/1999/xlink" x="0px" y="0px"
	 width="50px" height="50px" viewBox="-35.5 34.5 50 50" enable-background="new -35.5 34.5 50 50" xml:space="preserve">
<path style="fill:white" d="M4.5,59H2.772l-1.533-1.531c-0.195-0.195-0.512-0.195-0.708,0c-0.195,0.195-0.195,0.512,0,0.707L1.357,59H0.848
	l-1.908-1.906c-0.195-0.195-0.512-0.195-0.707,0s-0.195,0.512,0,0.707l1.2,1.199h-3.509l-1.501-3.717l3.426-3.426
	c0.195-0.195,0.195-0.512,0-0.707s-0.512-0.195-0.707,0l-3.453,3.453L-10,53.037v-3.47l1.198,1.198c0.195,0.195,0.512,0.195,0.707,0
	s0.195-0.512,0-0.707L-10,48.153v-0.51l0.823,0.823c0.195,0.195,0.512,0.195,0.707,0s0.195-0.512,0-0.707l-1.53-1.53V44.5
	c0-0.276-0.224-0.5-0.5-0.5s-0.5,0.224-0.5,0.5v1.728l-1.531,1.532c-0.195,0.195-0.195,0.512,0,0.707
	c0.098,0.098,0.226,0.146,0.354,0.146s0.256-0.049,0.354-0.146L-11,47.642v0.51l-1.906,1.907c-0.195,0.195-0.195,0.512,0,0.707
	c0.098,0.098,0.226,0.146,0.354,0.146s0.256-0.049,0.354-0.146l1.199-1.2v3.51l-3.716,1.501l-3.426-3.426
	c-0.195-0.195-0.512-0.195-0.707,0s-0.195,0.512,0,0.707l3.452,3.452L-16.963,59h-3.467l1.198-1.199
	c0.195-0.195,0.195-0.512,0-0.707s-0.512-0.195-0.707,0L-21.844,59h-0.511l0.822-0.824c0.195-0.196,0.195-0.513-0.001-0.707
	c-0.195-0.195-0.512-0.195-0.707,0L-23.769,59H-25.5c-0.276,0-0.5,0.224-0.5,0.5s0.224,0.5,0.5,0.5h1.729l1.531,1.531
	c0.098,0.098,0.226,0.146,0.354,0.146s0.256-0.049,0.354-0.146c0.195-0.195,0.195-0.512,0-0.707L-22.358,60h0.511l1.908,1.906
	c0.098,0.098,0.226,0.146,0.354,0.146s0.256-0.049,0.354-0.146c0.195-0.195,0.195-0.512,0-0.707L-20.433,60h3.508l1.501,3.717
	l-3.426,3.426c-0.195,0.195-0.195,0.512,0,0.707c0.098,0.098,0.226,0.146,0.354,0.146s0.256-0.049,0.354-0.146l3.453-3.453
	l3.69,1.566v3.468l-1.197-1.198c-0.195-0.195-0.512-0.195-0.707,0s-0.195,0.512,0,0.707L-11,70.845v0.51l-0.822-0.821
	c-0.195-0.195-0.512-0.195-0.707,0s-0.195,0.512,0,0.707L-11,72.769V74.5c0,0.276,0.224,0.5,0.5,0.5s0.5-0.224,0.5-0.5v-1.729
	l1.53-1.53c0.195-0.195,0.195-0.512,0-0.707s-0.512-0.195-0.707,0L-10,71.356v-0.51l1.905-1.907c0.195-0.195,0.195-0.512,0-0.707
	s-0.512-0.195-0.707,0L-10,69.432v-3.507l3.716-1.501l3.426,3.426c0.098,0.098,0.226,0.146,0.354,0.146s0.256-0.049,0.354-0.146
	c0.195-0.195,0.195-0.512,0-0.707l-3.452-3.452L-4.037,60h3.467l-1.197,1.197c-0.195,0.195-0.195,0.512,0,0.707
	c0.098,0.098,0.226,0.146,0.354,0.146s0.256-0.049,0.354-0.146L0.845,60h0.509l-0.822,0.822c-0.195,0.195-0.195,0.512,0,0.707
	c0.098,0.098,0.226,0.146,0.354,0.146s0.256-0.049,0.354-0.146L2.769,60H4.5C4.776,60,5,59.776,5,59.5S4.776,59,4.5,59z M-5.124,60
	l-1.242,2.928l-0.231,0.544l-0.455,0.184L-10,64.847l-0.548,0.222L-11,64.877l-2.928-1.242l-0.544-0.23l-0.184-0.455L-15.847,60
	l-0.221-0.548L-15.876,59l1.242-2.928l0.231-0.544l0.455-0.184L-11,54.153l0.548-0.222L-10,54.123l2.928,1.242l0.543,0.23
	l0.184,0.456L-5.153,59l0.221,0.548L-5.124,60z"/>
</svg>
