<?xml version="1.0" encoding="utf-8"?>
<!-- Generator: Adobe Illustrator 16.0.0, SVG Export Plug-In . SVG Version: 6.00 Build 0)  -->
<!DOCTYPE svg PUBLIC "-//W3C//DTD SVG 1.1//EN" "http://www.w3.org/Graphics/SVG/1.1/DTD/svg11.dtd">
<svg version="1.1" id="Layer_1" xmlns="http://www.w3.org/2000/svg" xmlns:xlink="http://www.w3.org/1999/xlink" x="0px" y="0px"
	 width="50px" height="50px" viewBox="174.5 -105.5 50 50" enable-background="new 174.5 -105.5 50 50" xml:space="preserve">
<path style="fill:white" d="M214.371-79.019l-7.724,2.068l-1.945-1.123v-4.853l1.946-1.124l7.723,2.069c0.043,0.012,0.086,0.017,0.129,0.017
	c0.221,0,0.423-0.147,0.483-0.371c0.071-0.267-0.087-0.541-0.354-0.612l-6.756-1.81l2.736-1.58l1.437,0.829l1.937-1.117v-2.236
	l-1.937-1.118l-1.937,1.118v1.658l-2.735,1.58l1.811-6.755c0.071-0.267-0.087-0.541-0.354-0.612c-0.27-0.07-0.54,0.086-0.613,0.354
	l-2.068,7.721l-1.946,1.124L200-86.219v-2.247l5.652-5.653c0.195-0.195,0.195-0.512,0-0.707s-0.512-0.195-0.707,0L200-89.88v-3.159
	l1.437-0.83v-2.236l-1.937-1.117l-1.937,1.117v2.236l1.437,0.83v3.159l-4.945-4.946c-0.195-0.195-0.512-0.195-0.707,0
	s-0.195,0.512,0,0.707L199-88.466v2.247l-4.203,2.426l-1.946-1.124l-2.068-7.721c-0.072-0.267-0.343-0.424-0.613-0.354
	c-0.267,0.071-0.425,0.346-0.354,0.612l1.811,6.755l-2.735-1.58v-1.658l-1.937-1.118l-1.937,1.118v2.236l1.937,1.117l1.437-0.829
	l2.736,1.58l-6.756,1.81c-0.268,0.071-0.426,0.346-0.354,0.612c0.061,0.224,0.263,0.371,0.483,0.371
	c0.043,0,0.086-0.005,0.129-0.017l7.723-2.069l1.946,1.124v4.853l-1.945,1.123l-7.724-2.068c-0.262-0.07-0.54,0.087-0.612,0.354
	c-0.071,0.267,0.087,0.541,0.354,0.612l6.757,1.81l-2.736,1.58l-1.437-0.829l-1.938,1.118l0.002,2.236l1.936,1.117l1.937-1.117
	v-1.659l2.735-1.579l-1.811,6.755c-0.071,0.267,0.087,0.541,0.354,0.612c0.044,0.012,0.087,0.017,0.13,0.017
	c0.221,0,0.423-0.147,0.483-0.371l2.069-7.722l1.945-1.123L199-74.782v2.247l-5.652,5.654c-0.195,0.195-0.195,0.512,0,0.707
	s0.512,0.195,0.707,0L199-71.121v3.16l-1.437,0.83v2.236l1.937,1.117l1.937-1.117v-2.236L200-67.961v-3.16l4.945,4.947
	c0.098,0.098,0.226,0.146,0.354,0.146s0.256-0.049,0.354-0.146c0.195-0.195,0.195-0.512,0-0.707L200-72.535v-2.247l4.202-2.426
	l1.945,1.123l2.069,7.722c0.061,0.224,0.263,0.371,0.483,0.371c0.043,0,0.086-0.005,0.13-0.017c0.267-0.071,0.425-0.346,0.354-0.612
	l-1.811-6.755l2.735,1.579v1.659l1.937,1.117l1.936-1.117l0.002-2.236l-1.938-1.118l-1.437,0.829l-2.736-1.58l6.757-1.81
	c0.268-0.071,0.426-0.346,0.354-0.612C214.911-78.932,214.635-79.09,214.371-79.019z M203.702-82.349v3.697v0.578l-0.5,0.289
	L200-75.936l-0.5,0.289l-0.5-0.289l-3.202-1.849l-0.5-0.289v-0.578v-3.697v-0.579l0.499-0.288L199-85.064l0.5-0.289l0.5,0.289
	l3.203,1.849l0.499,0.288V-82.349z"/>
</svg>
