<?xml version="1.0" encoding="utf-8"?>
<!-- Generator: Adobe Illustrator 16.0.0, SVG Export Plug-In . SVG Version: 6.00 Build 0)  -->
<!DOCTYPE svg PUBLIC "-//W3C//DTD SVG 1.1//EN" "http://www.w3.org/Graphics/SVG/1.1/DTD/svg11.dtd">
<svg version="1.1" id="Layer_1" xmlns="http://www.w3.org/2000/svg" xmlns:xlink="http://www.w3.org/1999/xlink" x="0px" y="0px"
	 width="50px" height="50px" viewBox="104.5 -105.5 50 50" enable-background="new 104.5 -105.5 50 50" xml:space="preserve">
<path style="fill:white" d="M131.875-83.625l-0.288-0.5h-0.577l-3.019-0.001h-0.576l-0.289,0.5l-1.511,2.614l-0.289,0.5l0.288,0.5l1.51,2.616
	l0.288,0.499h0.578h3.021h0.577l0.288-0.5l1.509-2.615l0.288-0.5l-0.289-0.5L131.875-83.625z M128.568-77.896h-0.578l-0.288-0.499
	l-0.934-1.615l-0.288-0.5l0.289-0.5l0.934-1.615l0.288-0.5h0.577l1.864,0.001h0.576l0.289,0.5l0.932,1.613l0.289,0.5l-0.288,0.5
	l-0.932,1.614l-0.289,0.5h-0.576H128.568z M145.444-83.348L145.444-83.348c-1.33,0.021-2.402,1.044-2.534,2.336h-1.683l0.815-1.412
	c0.138-0.239,0.056-0.545-0.184-0.683c-0.241-0.138-0.546-0.056-0.684,0.183l-1.103,1.912h-2.047l2.209-3.826
	c0.139-0.239,0.057-0.545-0.183-0.683c-0.238-0.137-0.545-0.056-0.683,0.183l-2.498,4.326h-0.602l-2.952-5.114l0.301-0.52l4.996,0
	c0.276,0,0.5-0.224,0.5-0.5c0-0.276-0.224-0.5-0.5-0.5l-4.419,0l1.023-1.772l2.208,0c0.276,0,0.5-0.224,0.5-0.5
	c0-0.276-0.224-0.5-0.5-0.5l-1.631,0l0.847-1.465c0.333,0.149,0.687,0.249,1.053,0.249c0.91,0,1.766-0.485,2.234-1.266
	c0.733-1.231,0.329-2.83-0.899-3.563c-1.188-0.709-2.855-0.284-3.564,0.898c-0.609,1.021-0.426,2.288,0.353,3.111l-0.888,1.537
	l-0.816-1.413c-0.138-0.24-0.443-0.32-0.683-0.183c-0.239,0.138-0.321,0.444-0.183,0.683l1.104,1.913l-1.022,1.771l-2.21-3.826
	c-0.138-0.24-0.444-0.322-0.683-0.183c-0.239,0.138-0.321,0.444-0.183,0.683l2.497,4.326l-0.301,0.521l-5.905-0.001l-0.3-0.519
	l2.498-4.328c0.139-0.239,0.057-0.545-0.183-0.683c-0.238-0.137-0.545-0.057-0.683,0.183l-2.21,3.827l-1.022-1.771l1.104-1.915
	c0.138-0.239,0.056-0.545-0.184-0.683c-0.241-0.139-0.546-0.056-0.684,0.184l-0.814,1.414l-0.854-1.479
	c0.387-0.336,0.666-0.779,0.802-1.286c0.18-0.671,0.088-1.372-0.259-1.973c-0.69-1.194-2.348-1.644-3.551-0.951
	c-1.24,0.716-1.667,2.308-0.95,3.549c0.463,0.802,1.326,1.3,2.253,1.3c0.285,0,0.562-0.063,0.831-0.155l0.861,1.492l-1.63,0
	c-0.276,0-0.5,0.224-0.5,0.5c0,0.276,0.224,0.5,0.5,0.5l2.207,0.001l1.023,1.771l-4.416,0c-0.276,0-0.5,0.224-0.5,0.5
	c0,0.276,0.224,0.5,0.5,0.5l4.993,0l0.301,0.521l-2.954,5.115h-0.6l-2.499-4.326c-0.139-0.241-0.444-0.322-0.683-0.183
	c-0.239,0.138-0.321,0.444-0.183,0.683l2.21,3.826h-2.048l-1.104-1.912c-0.138-0.24-0.443-0.322-0.683-0.183
	c-0.239,0.138-0.321,0.444-0.183,0.683l0.815,1.412h-1.775c-0.323-1.07-1.316-1.86-2.518-1.86c-0.001,0-0.001,0-0.001,0
	c-0.693,0.011-1.342,0.292-1.825,0.79c-0.484,0.499-0.744,1.155-0.733,1.848c0.021,1.412,1.188,2.56,2.6,2.56h0.038
	c0.693-0.011,1.343-0.291,1.826-0.79c0.412-0.425,0.651-0.968,0.709-1.548h1.681l-0.815,1.413c-0.138,0.239-0.056,0.545,0.184,0.683
	c0.079,0.045,0.165,0.067,0.25,0.067c0.173,0,0.341-0.09,0.434-0.25l1.103-1.913h2.048l-2.21,3.826
	c-0.139,0.239-0.057,0.545,0.183,0.683c0.079,0.045,0.165,0.067,0.25,0.067c0.172,0,0.341-0.089,0.433-0.25l2.499-4.326h0.598
	l2.953,5.116l-0.299,0.518l-4.994,0c-0.276,0-0.5,0.224-0.5,0.5c0,0.276,0.224,0.5,0.5,0.5l4.417,0l-1.023,1.771l-2.208,0
	c-0.276,0-0.5,0.224-0.5,0.5c0,0.276,0.224,0.5,0.5,0.5l1.631,0l-0.843,1.459c-1.157-0.504-2.636-0.07-3.289,1.024
	c-0.356,0.595-0.459,1.293-0.29,1.966c0.17,0.673,0.592,1.241,1.188,1.596c0.402,0.242,0.862,0.369,1.33,0.369
	c0.91,0,1.766-0.485,2.232-1.265c0.357-0.597,0.46-1.296,0.29-1.97c-0.11-0.439-0.337-0.825-0.64-1.144l0.888-1.537l0.816,1.414
	c0.092,0.161,0.261,0.25,0.433,0.25c0.085,0,0.171-0.021,0.25-0.067c0.239-0.138,0.321-0.444,0.183-0.683l-1.104-1.914l1.022-1.771
	l2.21,3.827c0.092,0.161,0.261,0.25,0.433,0.25c0.085,0,0.171-0.021,0.25-0.067c0.239-0.138,0.321-0.444,0.183-0.683l-2.497-4.327
	l0.299-0.519h5.907l0.3,0.52l-2.496,4.325c-0.139,0.239-0.057,0.545,0.183,0.683c0.079,0.045,0.165,0.067,0.25,0.067
	c0.172,0,0.341-0.09,0.433-0.25l2.209-3.825l1.022,1.771l-1.103,1.912c-0.139,0.239-0.057,0.545,0.183,0.683
	c0.079,0.045,0.165,0.067,0.25,0.067c0.173,0,0.341-0.09,0.433-0.25l0.815-1.411l0.854,1.479c-0.919,0.799-1.177,2.164-0.545,3.257
	c0.463,0.802,1.326,1.3,2.252,1.3c0.454,0,0.902-0.121,1.297-0.348c0.601-0.347,1.031-0.907,1.211-1.578
	c0.18-0.671,0.088-1.372-0.26-1.973c-0.603-1.046-1.953-1.522-3.088-1.155l-0.856-1.483l1.632,0c0.276,0,0.5-0.224,0.5-0.5
	c0-0.276-0.224-0.5-0.5-0.5l-2.209-0.001l-1.023-1.771h4.419c0.276,0,0.5-0.224,0.5-0.5s-0.224-0.5-0.5-0.5h-4.996l-0.3-0.519
	l2.952-5.115h0.6l2.499,4.327c0.092,0.161,0.261,0.25,0.433,0.25c0.085,0,0.171-0.021,0.25-0.067
	c0.239-0.138,0.321-0.444,0.183-0.683l-2.21-3.827h2.049l1.104,1.913c0.092,0.161,0.261,0.25,0.433,0.25
	c0.085,0,0.171-0.021,0.25-0.067c0.239-0.138,0.321-0.444,0.183-0.683l-0.815-1.413h1.775c0.322,1.07,1.311,1.861,2.479,1.861h0.038
	c1.433-0.023,2.58-1.207,2.559-2.638C148.06-82.2,146.896-83.348,145.444-83.348z M136.325-95.052
	c0.292-0.487,0.807-0.779,1.375-0.779c0.021,0,0.042,0.008,0.063,0.009c0.265,0.011,0.525,0.081,0.754,0.218
	c0.061,0.036,0.112,0.081,0.166,0.123c0.62,0.49,0.803,1.373,0.389,2.069c-0.391,0.652-1.233,0.928-1.935,0.673
	c-0.089-0.032-0.177-0.07-0.26-0.12c-0.223-0.133-0.395-0.315-0.524-0.521C136.043-93.874,136.007-94.518,136.325-95.052z
	 M120.125-93.555c-0.356-0.618-0.246-1.373,0.211-1.874c0.107-0.118,0.228-0.226,0.373-0.31c0.143-0.082,0.297-0.134,0.456-0.169
	c0.112-0.025,0.227-0.045,0.342-0.045c0.571,0,1.102,0.306,1.387,0.799c0.213,0.37,0.271,0.801,0.159,1.214
	c-0.065,0.245-0.191,0.461-0.355,0.646c-0.111,0.125-0.239,0.239-0.389,0.325c-0.15,0.087-0.314,0.137-0.48,0.167
	C121.176-92.681,120.462-92.97,120.125-93.555z M111.943-80.043c-0.01-0.068-0.022-0.135-0.023-0.205
	c-0.004-0.271,0.065-0.529,0.188-0.762c0.07-0.134,0.154-0.262,0.263-0.374c0.297-0.307,0.696-0.479,1.146-0.486
	c0.611,0,1.141,0.352,1.409,0.86c0.114,0.216,0.187,0.457,0.19,0.715c0.002,0.097-0.008,0.191-0.023,0.285
	c-0.052,0.319-0.197,0.615-0.428,0.852c-0.298,0.307-0.697,0.479-1.123,0.486l-0.023,0.498v-0.498
	C112.721-78.673,112.057-79.272,111.943-80.043z M122.853-67.181c0.104,0.415,0.041,0.845-0.178,1.212
	c-0.297,0.494-0.867,0.766-1.431,0.757c-0.265-0.005-0.528-0.066-0.761-0.206c-0.06-0.036-0.112-0.08-0.166-0.123
	c-0.277-0.217-0.478-0.513-0.565-0.86c-0.104-0.414-0.041-0.843,0.179-1.209c0.286-0.481,0.813-0.779,1.375-0.779
	c0.191,0,0.375,0.046,0.553,0.113c0.09,0.034,0.181,0.063,0.264,0.113c0.219,0.13,0.394,0.311,0.525,0.52
	C122.737-67.501,122.811-67.348,122.853-67.181z M137.488-68.267c0.571,0,1.103,0.306,1.388,0.799
	c0.213,0.37,0.27,0.801,0.159,1.213c-0.068,0.251-0.198,0.473-0.369,0.66c-0.109,0.119-0.231,0.228-0.376,0.311
	c-0.142,0.082-0.294,0.129-0.449,0.162c-0.66,0.135-1.392-0.153-1.733-0.747c-0.354-0.612-0.249-1.359,0.197-1.859
	c0.11-0.124,0.235-0.237,0.387-0.324c0.149-0.086,0.312-0.138,0.48-0.172C137.276-68.246,137.381-68.267,137.488-68.267z
	 M132.453-75.396h-0.576h-4.753h-0.577l-0.288-0.499l-2.377-4.115l-0.288-0.5l0.289-0.5l2.377-4.115l0.289-0.5h0.576l4.751,0.001
	h0.576l0.289,0.5l2.375,4.113l0.289,0.5l-0.288,0.5l-2.375,4.114L132.453-75.396z M144.073-80.011
	c-0.113-0.215-0.186-0.456-0.189-0.715c-0.001-0.098,0.009-0.192,0.024-0.285c0.125-0.747,0.771-1.325,1.576-1.337
	c0.797,0,1.459,0.599,1.572,1.369c0.01,0.068,0.022,0.135,0.023,0.206c0.004,0.276-0.068,0.533-0.189,0.762
	c-0.264,0.501-0.78,0.851-1.384,0.861l-0.023,0.498v-0.498C144.872-79.15,144.343-79.502,144.073-80.011z"/>
</svg>
