<?xml version="1.0" encoding="utf-8"?>
<!-- Generator: Adobe Illustrator 16.0.0, SVG Export Plug-In . SVG Version: 6.00 Build 0)  -->
<!DOCTYPE svg PUBLIC "-//W3C//DTD SVG 1.1//EN" "http://www.w3.org/Graphics/SVG/1.1/DTD/svg11.dtd">
<svg version="1.1" id="Layer_1" xmlns="http://www.w3.org/2000/svg" xmlns:xlink="http://www.w3.org/1999/xlink" x="0px" y="0px"
	 width="50px" height="50px" viewBox="-245.5 -35.5 50 50" enable-background="new -245.5 -35.5 50 50" xml:space="preserve">
<path style="fill:white" d="M-205.023-3.87c-0.18-0.635-0.597-1.161-1.173-1.482c-1.061-0.593-2.462-0.25-3.179,0.698l-2.753-1.589l6.757-1.81
	c0.267-0.071,0.425-0.346,0.354-0.612c-0.071-0.267-0.345-0.426-0.612-0.354l-7.723,2.068l-1.945-1.123v-4.853l1.946-1.124
	l7.723,2.069c0.043,0.012,0.087,0.017,0.13,0.017c0.221,0,0.423-0.147,0.482-0.371c0.071-0.267-0.087-0.541-0.354-0.612l-6.757-1.81
	l2.76-1.594c0.462,0.624,1.182,1.016,1.971,1.016h0c0.417,0,0.833-0.108,1.2-0.312c1.189-0.664,1.617-2.17,0.955-3.36
	c-0.638-1.146-2.205-1.598-3.36-0.955c-0.979,0.546-1.43,1.663-1.194,2.704l-2.831,1.635l1.81-6.755
	c0.071-0.267-0.087-0.541-0.354-0.612c-0.265-0.071-0.54,0.086-0.612,0.354l-2.069,7.721l-1.947,1.124L-220-16.219v-2.247
	l5.652-5.653c0.195-0.195,0.195-0.512,0-0.707s-0.512-0.195-0.707,0L-220-19.88v-3.201c1.124-0.231,1.971-1.228,1.971-2.419
	c0-1.362-1.108-2.47-2.47-2.47s-2.47,1.108-2.47,2.47c0,1.19,0.846,2.186,1.969,2.418v3.202l-4.945-4.946
	c-0.195-0.195-0.512-0.195-0.707,0s-0.195,0.512,0,0.707l5.652,5.653v2.247l-4.203,2.426l-1.947-1.124l-2.069-7.721
	c-0.072-0.267-0.345-0.426-0.612-0.354c-0.267,0.071-0.425,0.346-0.354,0.612l1.81,6.755l-2.831-1.635
	c0.236-1.041-0.215-2.158-1.194-2.704c-1.152-0.641-2.72-0.191-3.36,0.956c-0.662,1.189-0.234,2.696,0.956,3.36
	c0.367,0.204,0.782,0.312,1.2,0.312c0.789,0,1.509-0.392,1.971-1.016l2.76,1.594l-6.757,1.81c-0.267,0.071-0.425,0.346-0.354,0.612
	c0.06,0.224,0.262,0.371,0.482,0.371c0.043,0,0.086-0.005,0.13-0.017l7.723-2.069l1.946,1.124v4.853l-1.945,1.123l-7.723-2.068
	c-0.265-0.071-0.541,0.087-0.612,0.354s0.087,0.541,0.354,0.612l6.757,1.81l-2.753,1.589c-0.717-0.948-2.12-1.289-3.178-0.698
	c-0.576,0.321-0.993,0.848-1.173,1.482c-0.18,0.634-0.103,1.301,0.218,1.876c0.436,0.782,1.263,1.268,2.159,1.268
	c0.418,0,0.833-0.108,1.2-0.312c0.576-0.321,0.993-0.848,1.173-1.483c0.115-0.406,0.113-0.822,0.022-1.222l2.831-1.635l-1.811,6.755
	c-0.071,0.267,0.087,0.541,0.354,0.612c0.043,0.012,0.087,0.017,0.13,0.017c0.221,0,0.422-0.147,0.482-0.371l2.069-7.721
	l1.946-1.124L-221-4.782v2.247l-5.652,5.654c-0.195,0.195-0.195,0.512,0,0.707s0.512,0.195,0.707,0L-221-1.121v3.202
	c-1.124,0.231-1.971,1.228-1.971,2.419c0,1.362,1.108,2.47,2.47,2.47s2.47-1.108,2.47-2.47c0-1.19-0.846-2.186-1.969-2.418v-3.203
	l4.945,4.947c0.098,0.098,0.226,0.146,0.354,0.146s0.256-0.049,0.354-0.146c0.195-0.195,0.195-0.512,0-0.707L-220-2.535v-2.247
	l4.202-2.426l1.946,1.124l2.069,7.721c0.06,0.224,0.262,0.371,0.482,0.371c0.043,0,0.086-0.005,0.13-0.017
	c0.267-0.071,0.425-0.346,0.354-0.612l-1.811-6.755l2.831,1.635c-0.091,0.399-0.093,0.816,0.022,1.222
	c0.18,0.635,0.597,1.162,1.173,1.483c0.367,0.204,0.782,0.312,1.2,0.312c0.896,0,1.724-0.486,2.159-1.268
	C-204.921-2.569-204.843-3.235-205.023-3.87z M-207.401-19.274c0.267,0,0.524,0.072,0.747,0.203c0.222,0.13,0.41,0.318,0.54,0.551
	c0.042,0.076,0.073,0.155,0.101,0.234c0.23,0.662-0.038,1.414-0.669,1.766c-0.219,0.122-0.465,0.186-0.713,0.186h0
	c-0.432,0-0.83-0.196-1.106-0.515c-0.065-0.075-0.13-0.151-0.18-0.24c-0.125-0.225-0.178-0.468-0.179-0.708
	c-0.002-0.518,0.264-1.021,0.747-1.291C-207.896-19.21-207.649-19.274-207.401-19.274z M-232.317-17.089
	c-0.049,0.088-0.108,0.169-0.174,0.243c-0.443,0.498-1.226,0.66-1.825,0.326c-0.632-0.353-0.899-1.105-0.669-1.766
	c0.027-0.079,0.059-0.158,0.101-0.233c0.13-0.232,0.318-0.421,0.54-0.551c0.223-0.131,0.479-0.203,0.747-0.203
	c0.248,0,0.495,0.064,0.713,0.186c0.483,0.27,0.749,0.774,0.747,1.292C-232.139-17.557-232.192-17.314-232.317-17.089z
	 M-232.885-1.912c-0.219,0.122-0.466,0.187-0.714,0.187c-0.267,0-0.524-0.073-0.747-0.203c-0.222-0.13-0.41-0.319-0.539-0.552
	c-0.042-0.075-0.074-0.154-0.102-0.233c-0.099-0.283-0.112-0.588-0.028-0.883c0.107-0.377,0.355-0.69,0.698-0.882
	c0.219-0.122,0.465-0.187,0.714-0.187c0.432,0,0.829,0.196,1.105,0.515c0.065,0.075,0.13,0.151,0.18,0.24
	c0.123,0.22,0.179,0.462,0.18,0.708c0,0.137-0.012,0.274-0.05,0.41C-232.295-2.416-232.543-2.102-232.885-1.912z M-220-5.936
	l-0.5,0.289l-0.5-0.289l-3.202-1.849l-0.5-0.289v-0.578v-3.697v-0.579l0.5-0.288l3.203-1.849l0.5-0.289l0.5,0.289l3.203,1.849
	l0.5,0.288v0.579v3.697v0.578l-0.5,0.289L-220-5.936z M-221-26.876c0.157-0.058,0.324-0.094,0.501-0.094
	c0.176,0,0.343,0.036,0.499,0.093c0.564,0.205,0.971,0.742,0.971,1.376s-0.406,1.171-0.971,1.376
	c-0.156,0.057-0.323,0.093-0.499,0.093c-0.177,0-0.344-0.036-0.501-0.094c-0.563-0.206-0.969-0.742-0.969-1.376
	S-221.563-26.67-221-26.876z M-220,5.876c-0.157,0.058-0.324,0.094-0.501,0.094c-0.176,0-0.343-0.036-0.499-0.093
	c-0.564-0.205-0.971-0.742-0.971-1.376s0.406-1.171,0.971-1.376c0.156-0.057,0.323-0.093,0.499-0.093
	c0.177,0,0.344,0.036,0.501,0.094c0.563,0.206,0.969,0.742,0.969,1.376S-219.437,5.67-220,5.876z M-206.67-1.938
	c-0.437,0.244-0.992,0.279-1.444,0.026c-0.342-0.19-0.59-0.504-0.698-0.882c-0.038-0.135-0.05-0.273-0.049-0.41
	c0.001-0.245,0.057-0.488,0.18-0.708c0.049-0.089,0.114-0.164,0.179-0.239c0.276-0.319,0.674-0.515,1.105-0.515
	c0.249,0,0.495,0.064,0.714,0.187c0.343,0.191,0.59,0.504,0.698,0.881c0.083,0.295,0.071,0.6-0.028,0.883
	c-0.028,0.08-0.06,0.159-0.102,0.234C-206.246-2.246-206.443-2.065-206.67-1.938z"/>
</svg>
